<?xml version="1.0" encoding="utf-8" standalone="no"?>
<!DOCTYPE svg PUBLIC "-//W3C//DTD SVG 1.1//EN"
  "http://www.w3.org/Graphics/SVG/1.1/DTD/svg11.dtd">
<svg xmlns:xlink="http://www.w3.org/1999/xlink" width="1036.8pt" height="622.08pt" viewBox="0 0 1036.8 622.08" xmlns="http://www.w3.org/2000/svg" version="1.1">
 <metadata>
  <rdf:RDF xmlns:dc="http://purl.org/dc/elements/1.1/" xmlns:cc="http://creativecommons.org/ns#" xmlns:rdf="http://www.w3.org/1999/02/22-rdf-syntax-ns#">
   <cc:Work>
    <dc:type rdf:resource="http://purl.org/dc/dcmitype/StillImage"/>
    <dc:date>2025-02-03T12:28:30.248439</dc:date>
    <dc:format>image/svg+xml</dc:format>
    <dc:creator>
     <cc:Agent>
      <dc:title>Matplotlib v3.9.2, https://matplotlib.org/</dc:title>
     </cc:Agent>
    </dc:creator>
   </cc:Work>
  </rdf:RDF>
 </metadata>
 <defs>
  <style type="text/css">*{stroke-linejoin: round; stroke-linecap: butt}</style>
 </defs>
 <g id="figure_1">
  <g id="patch_1">
   <path d="M 0 622.08 
L 1036.8 622.08 
L 1036.8 0 
L 0 0 
z
" style="fill: #ffffff"/>
  </g>
  <g id="axes_1">
   <g id="patch_2">
    <path d="M 129.6 553.6512 
L 933.12 553.6512 
L 933.12 74.6496 
L 129.6 74.6496 
z
" style="fill: #ffffff"/>
   </g>
   <g id="patch_3">
    <path d="M 156.384 314.1504 
L 263.52 314.1504 
L 263.52 309.091228 
L 156.384 309.091228 
z
" clip-path="url(#pfbbe3a2fb0)" style="fill: #95ce98; opacity: 0.5"/>
   </g>
   <g id="patch_4">
    <path d="M 424.224 314.1504 
L 531.36 314.1504 
L 531.36 374.739292 
L 424.224 374.739292 
z
" clip-path="url(#pfbbe3a2fb0)" style="fill: #95ce98; opacity: 0.5"/>
   </g>
   <g id="patch_5">
    <path d="M 692.064 314.1504 
L 799.2 314.1504 
L 799.2 453.213091 
L 692.064 453.213091 
z
" clip-path="url(#pfbbe3a2fb0)" style="fill: #95ce98; opacity: 0.5"/>
   </g>
   <g id="patch_6">
    <path d="M 263.52 314.1504 
L 370.656 314.1504 
L 370.656 193.522293 
L 263.52 193.522293 
z
" clip-path="url(#pfbbe3a2fb0)" style="fill: #2e5342; opacity: 0.5"/>
   </g>
   <g id="patch_7">
    <path d="M 531.36 314.1504 
L 638.496 314.1504 
L 638.496 258.395602 
L 531.36 258.395602 
z
" clip-path="url(#pfbbe3a2fb0)" style="fill: #2e5342; opacity: 0.5"/>
   </g>
   <g id="patch_8">
    <path d="M 799.2 314.1504 
L 906.336 314.1504 
L 906.336 345.757455 
L 799.2 345.757455 
z
" clip-path="url(#pfbbe3a2fb0)" style="fill: #2e5342; opacity: 0.5"/>
   </g>
   <g id="patch_9">
    <path d="M 263.52 314.1504 
L 263.52 314.1504 
L 263.52 314.1504 
L 263.52 314.1504 
z
" clip-path="url(#pfbbe3a2fb0)" style="fill: #95ce98; opacity: 0.5"/>
   </g>
   <g id="patch_10">
    <path d="M 263.52 314.1504 
L 263.52 314.1504 
L 263.52 314.1504 
L 263.52 314.1504 
z
" clip-path="url(#pfbbe3a2fb0)" style="fill: #2e5342; opacity: 0.5"/>
   </g>
   <g id="matplotlib.axis_1">
    <g id="xtick_1">
     <g id="line2d_1">
      <defs>
       <path id="m65936710ea" d="M 0 0 
L 0 3.5 
" style="stroke: #000000; stroke-width: 0.8"/>
      </defs>
      <g>
       <use xlink:href="#m65936710ea" x="263.52" y="553.6512" style="stroke: #000000; stroke-width: 0.8"/>
      </g>
     </g>
     <g id="text_1">
      <!-- 0.25 -->
      <g transform="translate(235.687969 579.647294) scale(0.25 -0.25)">
       <defs>
        <path id="DejaVuSans-30" d="M 2034 4250 
Q 1547 4250 1301 3770 
Q 1056 3291 1056 2328 
Q 1056 1369 1301 889 
Q 1547 409 2034 409 
Q 2525 409 2770 889 
Q 3016 1369 3016 2328 
Q 3016 3291 2770 3770 
Q 2525 4250 2034 4250 
z
M 2034 4750 
Q 2819 4750 3233 4129 
Q 3647 3509 3647 2328 
Q 3647 1150 3233 529 
Q 2819 -91 2034 -91 
Q 1250 -91 836 529 
Q 422 1150 422 2328 
Q 422 3509 836 4129 
Q 1250 4750 2034 4750 
z
" transform="scale(0.015625)"/>
        <path id="DejaVuSans-2e" d="M 684 794 
L 1344 794 
L 1344 0 
L 684 0 
L 684 794 
z
" transform="scale(0.015625)"/>
        <path id="DejaVuSans-32" d="M 1228 531 
L 3431 531 
L 3431 0 
L 469 0 
L 469 531 
Q 828 903 1448 1529 
Q 2069 2156 2228 2338 
Q 2531 2678 2651 2914 
Q 2772 3150 2772 3378 
Q 2772 3750 2511 3984 
Q 2250 4219 1831 4219 
Q 1534 4219 1204 4116 
Q 875 4013 500 3803 
L 500 4441 
Q 881 4594 1212 4672 
Q 1544 4750 1819 4750 
Q 2544 4750 2975 4387 
Q 3406 4025 3406 3419 
Q 3406 3131 3298 2873 
Q 3191 2616 2906 2266 
Q 2828 2175 2409 1742 
Q 1991 1309 1228 531 
z
" transform="scale(0.015625)"/>
        <path id="DejaVuSans-35" d="M 691 4666 
L 3169 4666 
L 3169 4134 
L 1269 4134 
L 1269 2991 
Q 1406 3038 1543 3061 
Q 1681 3084 1819 3084 
Q 2600 3084 3056 2656 
Q 3513 2228 3513 1497 
Q 3513 744 3044 326 
Q 2575 -91 1722 -91 
Q 1428 -91 1123 -41 
Q 819 9 494 109 
L 494 744 
Q 775 591 1075 516 
Q 1375 441 1709 441 
Q 2250 441 2565 725 
Q 2881 1009 2881 1497 
Q 2881 1984 2565 2268 
Q 2250 2553 1709 2553 
Q 1456 2553 1204 2497 
Q 953 2441 691 2322 
L 691 4666 
z
" transform="scale(0.015625)"/>
       </defs>
       <use xlink:href="#DejaVuSans-30"/>
       <use xlink:href="#DejaVuSans-2e" x="63.623047"/>
       <use xlink:href="#DejaVuSans-32" x="95.410156"/>
       <use xlink:href="#DejaVuSans-35" x="159.033203"/>
      </g>
     </g>
    </g>
    <g id="xtick_2">
     <g id="line2d_2">
      <g>
       <use xlink:href="#m65936710ea" x="531.36" y="553.6512" style="stroke: #000000; stroke-width: 0.8"/>
      </g>
     </g>
     <g id="text_2">
      <!-- 0.5 -->
      <g transform="translate(511.481094 579.647294) scale(0.25 -0.25)">
       <use xlink:href="#DejaVuSans-30"/>
       <use xlink:href="#DejaVuSans-2e" x="63.623047"/>
       <use xlink:href="#DejaVuSans-35" x="95.410156"/>
      </g>
     </g>
    </g>
    <g id="xtick_3">
     <g id="line2d_3">
      <g>
       <use xlink:href="#m65936710ea" x="799.2" y="553.6512" style="stroke: #000000; stroke-width: 0.8"/>
      </g>
     </g>
     <g id="text_3">
      <!-- 0.75 -->
      <g transform="translate(771.367969 579.647294) scale(0.25 -0.25)">
       <defs>
        <path id="DejaVuSans-37" d="M 525 4666 
L 3525 4666 
L 3525 4397 
L 1831 0 
L 1172 0 
L 2766 4134 
L 525 4134 
L 525 4666 
z
" transform="scale(0.015625)"/>
       </defs>
       <use xlink:href="#DejaVuSans-30"/>
       <use xlink:href="#DejaVuSans-2e" x="63.623047"/>
       <use xlink:href="#DejaVuSans-37" x="95.410156"/>
       <use xlink:href="#DejaVuSans-35" x="159.033203"/>
      </g>
     </g>
    </g>
    <g id="text_4">
     <!-- P(Left|Green) -->
     <g transform="translate(431.917031 611.773075) scale(0.3 -0.3)">
      <defs>
       <path id="DejaVuSans-50" d="M 1259 4147 
L 1259 2394 
L 2053 2394 
Q 2494 2394 2734 2622 
Q 2975 2850 2975 3272 
Q 2975 3691 2734 3919 
Q 2494 4147 2053 4147 
L 1259 4147 
z
M 628 4666 
L 2053 4666 
Q 2838 4666 3239 4311 
Q 3641 3956 3641 3272 
Q 3641 2581 3239 2228 
Q 2838 1875 2053 1875 
L 1259 1875 
L 1259 0 
L 628 0 
L 628 4666 
z
" transform="scale(0.015625)"/>
       <path id="DejaVuSans-28" d="M 1984 4856 
Q 1566 4138 1362 3434 
Q 1159 2731 1159 2009 
Q 1159 1288 1364 580 
Q 1569 -128 1984 -844 
L 1484 -844 
Q 1016 -109 783 600 
Q 550 1309 550 2009 
Q 550 2706 781 3412 
Q 1013 4119 1484 4856 
L 1984 4856 
z
" transform="scale(0.015625)"/>
       <path id="DejaVuSans-4c" d="M 628 4666 
L 1259 4666 
L 1259 531 
L 3531 531 
L 3531 0 
L 628 0 
L 628 4666 
z
" transform="scale(0.015625)"/>
       <path id="DejaVuSans-65" d="M 3597 1894 
L 3597 1613 
L 953 1613 
Q 991 1019 1311 708 
Q 1631 397 2203 397 
Q 2534 397 2845 478 
Q 3156 559 3463 722 
L 3463 178 
Q 3153 47 2828 -22 
Q 2503 -91 2169 -91 
Q 1331 -91 842 396 
Q 353 884 353 1716 
Q 353 2575 817 3079 
Q 1281 3584 2069 3584 
Q 2775 3584 3186 3129 
Q 3597 2675 3597 1894 
z
M 3022 2063 
Q 3016 2534 2758 2815 
Q 2500 3097 2075 3097 
Q 1594 3097 1305 2825 
Q 1016 2553 972 2059 
L 3022 2063 
z
" transform="scale(0.015625)"/>
       <path id="DejaVuSans-66" d="M 2375 4863 
L 2375 4384 
L 1825 4384 
Q 1516 4384 1395 4259 
Q 1275 4134 1275 3809 
L 1275 3500 
L 2222 3500 
L 2222 3053 
L 1275 3053 
L 1275 0 
L 697 0 
L 697 3053 
L 147 3053 
L 147 3500 
L 697 3500 
L 697 3744 
Q 697 4328 969 4595 
Q 1241 4863 1831 4863 
L 2375 4863 
z
" transform="scale(0.015625)"/>
       <path id="DejaVuSans-74" d="M 1172 4494 
L 1172 3500 
L 2356 3500 
L 2356 3053 
L 1172 3053 
L 1172 1153 
Q 1172 725 1289 603 
Q 1406 481 1766 481 
L 2356 481 
L 2356 0 
L 1766 0 
Q 1100 0 847 248 
Q 594 497 594 1153 
L 594 3053 
L 172 3053 
L 172 3500 
L 594 3500 
L 594 4494 
L 1172 4494 
z
" transform="scale(0.015625)"/>
       <path id="DejaVuSans-7c" d="M 1344 4891 
L 1344 -1509 
L 813 -1509 
L 813 4891 
L 1344 4891 
z
" transform="scale(0.015625)"/>
       <path id="DejaVuSans-47" d="M 3809 666 
L 3809 1919 
L 2778 1919 
L 2778 2438 
L 4434 2438 
L 4434 434 
Q 4069 175 3628 42 
Q 3188 -91 2688 -91 
Q 1594 -91 976 548 
Q 359 1188 359 2328 
Q 359 3472 976 4111 
Q 1594 4750 2688 4750 
Q 3144 4750 3555 4637 
Q 3966 4525 4313 4306 
L 4313 3634 
Q 3963 3931 3569 4081 
Q 3175 4231 2741 4231 
Q 1884 4231 1454 3753 
Q 1025 3275 1025 2328 
Q 1025 1384 1454 906 
Q 1884 428 2741 428 
Q 3075 428 3337 486 
Q 3600 544 3809 666 
z
" transform="scale(0.015625)"/>
       <path id="DejaVuSans-72" d="M 2631 2963 
Q 2534 3019 2420 3045 
Q 2306 3072 2169 3072 
Q 1681 3072 1420 2755 
Q 1159 2438 1159 1844 
L 1159 0 
L 581 0 
L 581 3500 
L 1159 3500 
L 1159 2956 
Q 1341 3275 1631 3429 
Q 1922 3584 2338 3584 
Q 2397 3584 2469 3576 
Q 2541 3569 2628 3553 
L 2631 2963 
z
" transform="scale(0.015625)"/>
       <path id="DejaVuSans-6e" d="M 3513 2113 
L 3513 0 
L 2938 0 
L 2938 2094 
Q 2938 2591 2744 2837 
Q 2550 3084 2163 3084 
Q 1697 3084 1428 2787 
Q 1159 2491 1159 1978 
L 1159 0 
L 581 0 
L 581 3500 
L 1159 3500 
L 1159 2956 
Q 1366 3272 1645 3428 
Q 1925 3584 2291 3584 
Q 2894 3584 3203 3211 
Q 3513 2838 3513 2113 
z
" transform="scale(0.015625)"/>
       <path id="DejaVuSans-29" d="M 513 4856 
L 1013 4856 
Q 1481 4119 1714 3412 
Q 1947 2706 1947 2009 
Q 1947 1309 1714 600 
Q 1481 -109 1013 -844 
L 513 -844 
Q 928 -128 1133 580 
Q 1338 1288 1338 2009 
Q 1338 2731 1133 3434 
Q 928 4138 513 4856 
z
" transform="scale(0.015625)"/>
      </defs>
      <use xlink:href="#DejaVuSans-50"/>
      <use xlink:href="#DejaVuSans-28" x="60.302734"/>
      <use xlink:href="#DejaVuSans-4c" x="99.316406"/>
      <use xlink:href="#DejaVuSans-65" x="153.279297"/>
      <use xlink:href="#DejaVuSans-66" x="214.802734"/>
      <use xlink:href="#DejaVuSans-74" x="248.257812"/>
      <use xlink:href="#DejaVuSans-7c" x="287.466797"/>
      <use xlink:href="#DejaVuSans-47" x="321.158203"/>
      <use xlink:href="#DejaVuSans-72" x="398.648438"/>
      <use xlink:href="#DejaVuSans-65" x="437.511719"/>
      <use xlink:href="#DejaVuSans-65" x="499.035156"/>
      <use xlink:href="#DejaVuSans-6e" x="560.558594"/>
      <use xlink:href="#DejaVuSans-29" x="623.9375"/>
     </g>
    </g>
   </g>
   <g id="matplotlib.axis_2">
    <g id="ytick_1">
     <g id="line2d_4">
      <defs>
       <path id="m9d6029eb44" d="M 0 0 
L -3.5 0 
" style="stroke: #000000; stroke-width: 0.8"/>
      </defs>
      <g>
       <use xlink:href="#m9d6029eb44" x="129.6" y="553.6512" style="stroke: #000000; stroke-width: 0.8"/>
      </g>
     </g>
     <g id="text_5">
      <!-- −1.00 -->
      <g transform="translate(45.986719 563.149247) scale(0.25 -0.25)">
       <defs>
        <path id="DejaVuSans-2212" d="M 678 2272 
L 4684 2272 
L 4684 1741 
L 678 1741 
L 678 2272 
z
" transform="scale(0.015625)"/>
        <path id="DejaVuSans-31" d="M 794 531 
L 1825 531 
L 1825 4091 
L 703 3866 
L 703 4441 
L 1819 4666 
L 2450 4666 
L 2450 531 
L 3481 531 
L 3481 0 
L 794 0 
L 794 531 
z
" transform="scale(0.015625)"/>
       </defs>
       <use xlink:href="#DejaVuSans-2212"/>
       <use xlink:href="#DejaVuSans-31" x="83.789062"/>
       <use xlink:href="#DejaVuSans-2e" x="147.412109"/>
       <use xlink:href="#DejaVuSans-30" x="179.199219"/>
       <use xlink:href="#DejaVuSans-30" x="242.822266"/>
      </g>
     </g>
    </g>
    <g id="ytick_2">
     <g id="line2d_5">
      <g>
       <use xlink:href="#m9d6029eb44" x="129.6" y="493.776" style="stroke: #000000; stroke-width: 0.8"/>
      </g>
     </g>
     <g id="text_6">
      <!-- −0.75 -->
      <g transform="translate(45.986719 503.274047) scale(0.25 -0.25)">
       <use xlink:href="#DejaVuSans-2212"/>
       <use xlink:href="#DejaVuSans-30" x="83.789062"/>
       <use xlink:href="#DejaVuSans-2e" x="147.412109"/>
       <use xlink:href="#DejaVuSans-37" x="179.199219"/>
       <use xlink:href="#DejaVuSans-35" x="242.822266"/>
      </g>
     </g>
    </g>
    <g id="ytick_3">
     <g id="line2d_6">
      <g>
       <use xlink:href="#m9d6029eb44" x="129.6" y="433.9008" style="stroke: #000000; stroke-width: 0.8"/>
      </g>
     </g>
     <g id="text_7">
      <!-- −0.50 -->
      <g transform="translate(45.986719 443.398847) scale(0.25 -0.25)">
       <use xlink:href="#DejaVuSans-2212"/>
       <use xlink:href="#DejaVuSans-30" x="83.789062"/>
       <use xlink:href="#DejaVuSans-2e" x="147.412109"/>
       <use xlink:href="#DejaVuSans-35" x="179.199219"/>
       <use xlink:href="#DejaVuSans-30" x="242.822266"/>
      </g>
     </g>
    </g>
    <g id="ytick_4">
     <g id="line2d_7">
      <g>
       <use xlink:href="#m9d6029eb44" x="129.6" y="374.0256" style="stroke: #000000; stroke-width: 0.8"/>
      </g>
     </g>
     <g id="text_8">
      <!-- −0.25 -->
      <g transform="translate(45.986719 383.523647) scale(0.25 -0.25)">
       <use xlink:href="#DejaVuSans-2212"/>
       <use xlink:href="#DejaVuSans-30" x="83.789062"/>
       <use xlink:href="#DejaVuSans-2e" x="147.412109"/>
       <use xlink:href="#DejaVuSans-32" x="179.199219"/>
       <use xlink:href="#DejaVuSans-35" x="242.822266"/>
      </g>
     </g>
    </g>
    <g id="ytick_5">
     <g id="line2d_8">
      <g>
       <use xlink:href="#m9d6029eb44" x="129.6" y="314.1504" style="stroke: #000000; stroke-width: 0.8"/>
      </g>
     </g>
     <g id="text_9">
      <!-- 0.00 -->
      <g transform="translate(66.935937 323.648447) scale(0.25 -0.25)">
       <use xlink:href="#DejaVuSans-30"/>
       <use xlink:href="#DejaVuSans-2e" x="63.623047"/>
       <use xlink:href="#DejaVuSans-30" x="95.410156"/>
       <use xlink:href="#DejaVuSans-30" x="159.033203"/>
      </g>
     </g>
    </g>
    <g id="ytick_6">
     <g id="line2d_9">
      <g>
       <use xlink:href="#m9d6029eb44" x="129.6" y="254.2752" style="stroke: #000000; stroke-width: 0.8"/>
      </g>
     </g>
     <g id="text_10">
      <!-- 0.25 -->
      <g transform="translate(66.935937 263.773247) scale(0.25 -0.25)">
       <use xlink:href="#DejaVuSans-30"/>
       <use xlink:href="#DejaVuSans-2e" x="63.623047"/>
       <use xlink:href="#DejaVuSans-32" x="95.410156"/>
       <use xlink:href="#DejaVuSans-35" x="159.033203"/>
      </g>
     </g>
    </g>
    <g id="ytick_7">
     <g id="line2d_10">
      <g>
       <use xlink:href="#m9d6029eb44" x="129.6" y="194.4" style="stroke: #000000; stroke-width: 0.8"/>
      </g>
     </g>
     <g id="text_11">
      <!-- 0.50 -->
      <g transform="translate(66.935937 203.898047) scale(0.25 -0.25)">
       <use xlink:href="#DejaVuSans-30"/>
       <use xlink:href="#DejaVuSans-2e" x="63.623047"/>
       <use xlink:href="#DejaVuSans-35" x="95.410156"/>
       <use xlink:href="#DejaVuSans-30" x="159.033203"/>
      </g>
     </g>
    </g>
    <g id="ytick_8">
     <g id="line2d_11">
      <g>
       <use xlink:href="#m9d6029eb44" x="129.6" y="134.5248" style="stroke: #000000; stroke-width: 0.8"/>
      </g>
     </g>
     <g id="text_12">
      <!-- 0.75 -->
      <g transform="translate(66.935937 144.022847) scale(0.25 -0.25)">
       <use xlink:href="#DejaVuSans-30"/>
       <use xlink:href="#DejaVuSans-2e" x="63.623047"/>
       <use xlink:href="#DejaVuSans-37" x="95.410156"/>
       <use xlink:href="#DejaVuSans-35" x="159.033203"/>
      </g>
     </g>
    </g>
    <g id="ytick_9">
     <g id="line2d_12">
      <g>
       <use xlink:href="#m9d6029eb44" x="129.6" y="74.6496" style="stroke: #000000; stroke-width: 0.8"/>
      </g>
     </g>
     <g id="text_13">
      <!-- 1.00 -->
      <g transform="translate(66.935937 84.147647) scale(0.25 -0.25)">
       <use xlink:href="#DejaVuSans-31"/>
       <use xlink:href="#DejaVuSans-2e" x="63.623047"/>
       <use xlink:href="#DejaVuSans-30" x="95.410156"/>
       <use xlink:href="#DejaVuSans-30" x="159.033203"/>
      </g>
     </g>
    </g>
    <g id="text_14">
     <!-- ASEM (deg/s) -->
     <g transform="translate(35.747656 413.968369) rotate(-90) scale(0.3 -0.3)">
      <defs>
       <path id="DejaVuSans-41" d="M 2188 4044 
L 1331 1722 
L 3047 1722 
L 2188 4044 
z
M 1831 4666 
L 2547 4666 
L 4325 0 
L 3669 0 
L 3244 1197 
L 1141 1197 
L 716 0 
L 50 0 
L 1831 4666 
z
" transform="scale(0.015625)"/>
       <path id="DejaVuSans-53" d="M 3425 4513 
L 3425 3897 
Q 3066 4069 2747 4153 
Q 2428 4238 2131 4238 
Q 1616 4238 1336 4038 
Q 1056 3838 1056 3469 
Q 1056 3159 1242 3001 
Q 1428 2844 1947 2747 
L 2328 2669 
Q 3034 2534 3370 2195 
Q 3706 1856 3706 1288 
Q 3706 609 3251 259 
Q 2797 -91 1919 -91 
Q 1588 -91 1214 -16 
Q 841 59 441 206 
L 441 856 
Q 825 641 1194 531 
Q 1563 422 1919 422 
Q 2459 422 2753 634 
Q 3047 847 3047 1241 
Q 3047 1584 2836 1778 
Q 2625 1972 2144 2069 
L 1759 2144 
Q 1053 2284 737 2584 
Q 422 2884 422 3419 
Q 422 4038 858 4394 
Q 1294 4750 2059 4750 
Q 2388 4750 2728 4690 
Q 3069 4631 3425 4513 
z
" transform="scale(0.015625)"/>
       <path id="DejaVuSans-45" d="M 628 4666 
L 3578 4666 
L 3578 4134 
L 1259 4134 
L 1259 2753 
L 3481 2753 
L 3481 2222 
L 1259 2222 
L 1259 531 
L 3634 531 
L 3634 0 
L 628 0 
L 628 4666 
z
" transform="scale(0.015625)"/>
       <path id="DejaVuSans-4d" d="M 628 4666 
L 1569 4666 
L 2759 1491 
L 3956 4666 
L 4897 4666 
L 4897 0 
L 4281 0 
L 4281 4097 
L 3078 897 
L 2444 897 
L 1241 4097 
L 1241 0 
L 628 0 
L 628 4666 
z
" transform="scale(0.015625)"/>
       <path id="DejaVuSans-20" transform="scale(0.015625)"/>
       <path id="DejaVuSans-64" d="M 2906 2969 
L 2906 4863 
L 3481 4863 
L 3481 0 
L 2906 0 
L 2906 525 
Q 2725 213 2448 61 
Q 2172 -91 1784 -91 
Q 1150 -91 751 415 
Q 353 922 353 1747 
Q 353 2572 751 3078 
Q 1150 3584 1784 3584 
Q 2172 3584 2448 3432 
Q 2725 3281 2906 2969 
z
M 947 1747 
Q 947 1113 1208 752 
Q 1469 391 1925 391 
Q 2381 391 2643 752 
Q 2906 1113 2906 1747 
Q 2906 2381 2643 2742 
Q 2381 3103 1925 3103 
Q 1469 3103 1208 2742 
Q 947 2381 947 1747 
z
" transform="scale(0.015625)"/>
       <path id="DejaVuSans-67" d="M 2906 1791 
Q 2906 2416 2648 2759 
Q 2391 3103 1925 3103 
Q 1463 3103 1205 2759 
Q 947 2416 947 1791 
Q 947 1169 1205 825 
Q 1463 481 1925 481 
Q 2391 481 2648 825 
Q 2906 1169 2906 1791 
z
M 3481 434 
Q 3481 -459 3084 -895 
Q 2688 -1331 1869 -1331 
Q 1566 -1331 1297 -1286 
Q 1028 -1241 775 -1147 
L 775 -588 
Q 1028 -725 1275 -790 
Q 1522 -856 1778 -856 
Q 2344 -856 2625 -561 
Q 2906 -266 2906 331 
L 2906 616 
Q 2728 306 2450 153 
Q 2172 0 1784 0 
Q 1141 0 747 490 
Q 353 981 353 1791 
Q 353 2603 747 3093 
Q 1141 3584 1784 3584 
Q 2172 3584 2450 3431 
Q 2728 3278 2906 2969 
L 2906 3500 
L 3481 3500 
L 3481 434 
z
" transform="scale(0.015625)"/>
       <path id="DejaVuSans-2f" d="M 1625 4666 
L 2156 4666 
L 531 -594 
L 0 -594 
L 1625 4666 
z
" transform="scale(0.015625)"/>
       <path id="DejaVuSans-73" d="M 2834 3397 
L 2834 2853 
Q 2591 2978 2328 3040 
Q 2066 3103 1784 3103 
Q 1356 3103 1142 2972 
Q 928 2841 928 2578 
Q 928 2378 1081 2264 
Q 1234 2150 1697 2047 
L 1894 2003 
Q 2506 1872 2764 1633 
Q 3022 1394 3022 966 
Q 3022 478 2636 193 
Q 2250 -91 1575 -91 
Q 1294 -91 989 -36 
Q 684 19 347 128 
L 347 722 
Q 666 556 975 473 
Q 1284 391 1588 391 
Q 1994 391 2212 530 
Q 2431 669 2431 922 
Q 2431 1156 2273 1281 
Q 2116 1406 1581 1522 
L 1381 1569 
Q 847 1681 609 1914 
Q 372 2147 372 2553 
Q 372 3047 722 3315 
Q 1072 3584 1716 3584 
Q 2034 3584 2315 3537 
Q 2597 3491 2834 3397 
z
" transform="scale(0.015625)"/>
      </defs>
      <use xlink:href="#DejaVuSans-41"/>
      <use xlink:href="#DejaVuSans-53" x="68.408203"/>
      <use xlink:href="#DejaVuSans-45" x="131.884766"/>
      <use xlink:href="#DejaVuSans-4d" x="195.068359"/>
      <use xlink:href="#DejaVuSans-20" x="281.347656"/>
      <use xlink:href="#DejaVuSans-28" x="313.134766"/>
      <use xlink:href="#DejaVuSans-64" x="352.148438"/>
      <use xlink:href="#DejaVuSans-65" x="415.625"/>
      <use xlink:href="#DejaVuSans-67" x="477.148438"/>
      <use xlink:href="#DejaVuSans-2f" x="540.625"/>
      <use xlink:href="#DejaVuSans-73" x="574.316406"/>
      <use xlink:href="#DejaVuSans-29" x="626.416016"/>
     </g>
    </g>
   </g>
   <g id="line2d_13">
    <path d="M 209.952 329.423401 
L 209.952 290.120173 
" clip-path="url(#pfbbe3a2fb0)" style="fill: none; stroke: #424242; stroke-width: 2.25; stroke-linecap: square"/>
   </g>
   <g id="line2d_14">
    <path d="M 477.792 394.711824 
L 477.792 355.431807 
" clip-path="url(#pfbbe3a2fb0)" style="fill: none; stroke: #424242; stroke-width: 2.25; stroke-linecap: square"/>
   </g>
   <g id="line2d_15">
    <path d="M 745.632 476.80733 
L 745.632 429.230407 
" clip-path="url(#pfbbe3a2fb0)" style="fill: none; stroke: #424242; stroke-width: 2.25; stroke-linecap: square"/>
   </g>
   <g id="line2d_16">
    <path d="M 317.088 211.127917 
L 317.088 173.597004 
" clip-path="url(#pfbbe3a2fb0)" style="fill: none; stroke: #424242; stroke-width: 2.25; stroke-linecap: square"/>
   </g>
   <g id="line2d_17">
    <path d="M 584.928 277.553654 
L 584.928 240.119904 
" clip-path="url(#pfbbe3a2fb0)" style="fill: none; stroke: #424242; stroke-width: 2.25; stroke-linecap: square"/>
   </g>
   <g id="line2d_18">
    <path d="M 852.768 363.646832 
L 852.768 326.444599 
" clip-path="url(#pfbbe3a2fb0)" style="fill: none; stroke: #424242; stroke-width: 2.25; stroke-linecap: square"/>
   </g>
   <g id="patch_11">
    <path d="M 129.6 553.6512 
L 129.6 74.6496 
" style="fill: none; stroke: #000000; stroke-width: 0.8; stroke-linejoin: miter; stroke-linecap: square"/>
   </g>
   <g id="patch_12">
    <path d="M 933.12 553.6512 
L 933.12 74.6496 
" style="fill: none; stroke: #000000; stroke-width: 0.8; stroke-linejoin: miter; stroke-linecap: square"/>
   </g>
   <g id="patch_13">
    <path d="M 129.6 553.6512 
L 933.12 553.6512 
" style="fill: none; stroke: #000000; stroke-width: 0.8; stroke-linejoin: miter; stroke-linecap: square"/>
   </g>
   <g id="patch_14">
    <path d="M 129.6 74.6496 
L 933.12 74.6496 
" style="fill: none; stroke: #000000; stroke-width: 0.8; stroke-linejoin: miter; stroke-linecap: square"/>
   </g>
   <g id="PathCollection_1">
    <defs>
     <path id="C0_0_dfbc03ba08" d="M 0 4 
C 1.060812 4 2.078319 3.578535 2.828427 2.828427 
C 3.578535 2.078319 4 1.060812 4 -0 
C 4 -1.060812 3.578535 -2.078319 2.828427 -2.828427 
C 2.078319 -3.578535 1.060812 -4 0 -4 
C -1.060812 -4 -2.078319 -3.578535 -2.828427 -2.828427 
C -3.578535 -2.078319 -4 -1.060812 -4 0 
C -4 1.060812 -3.578535 2.078319 -2.828427 2.828427 
C -2.078319 3.578535 -1.060812 4 0 4 
z
"/>
    </defs>
    <g clip-path="url(#pfbbe3a2fb0)">
     <use xlink:href="#C0_0_dfbc03ba08" x="210.284354" y="285.206548" style="fill: #8cd790; fill-opacity: 0.7"/>
    </g>
    <g clip-path="url(#pfbbe3a2fb0)">
     <use xlink:href="#C0_0_dfbc03ba08" x="220.876028" y="524.775256" style="fill: #8cd790; fill-opacity: 0.7"/>
    </g>
    <g clip-path="url(#pfbbe3a2fb0)">
     <use xlink:href="#C0_0_dfbc03ba08" x="216.296501" y="219.509838" style="fill: #8cd790; fill-opacity: 0.7"/>
    </g>
    <g clip-path="url(#pfbbe3a2fb0)">
     <use xlink:href="#C0_0_dfbc03ba08" x="221.143285" y="361.892822" style="fill: #8cd790; fill-opacity: 0.7"/>
    </g>
    <g clip-path="url(#pfbbe3a2fb0)">
     <use xlink:href="#C0_0_dfbc03ba08" x="197.31366" y="120.685604" style="fill: #8cd790; fill-opacity: 0.7"/>
    </g>
    <g clip-path="url(#pfbbe3a2fb0)">
     <use xlink:href="#C0_0_dfbc03ba08" x="200.096895" y="421.048938" style="fill: #8cd790; fill-opacity: 0.7"/>
    </g>
    <g clip-path="url(#pfbbe3a2fb0)">
     <use xlink:href="#C0_0_dfbc03ba08" x="213.310862" y="263.760604" style="fill: #8cd790; fill-opacity: 0.7"/>
    </g>
    <g clip-path="url(#pfbbe3a2fb0)">
     <use xlink:href="#C0_0_dfbc03ba08" x="202.174651" y="53.373587" style="fill: #8cd790; fill-opacity: 0.7"/>
    </g>
    <g clip-path="url(#pfbbe3a2fb0)">
     <use xlink:href="#C0_0_dfbc03ba08" x="207.091081" y="288.767402" style="fill: #8cd790; fill-opacity: 0.7"/>
    </g>
    <g clip-path="url(#pfbbe3a2fb0)">
     <use xlink:href="#C0_0_dfbc03ba08" x="211.602641" y="333.495486" style="fill: #8cd790; fill-opacity: 0.7"/>
    </g>
    <g clip-path="url(#pfbbe3a2fb0)">
     <use xlink:href="#C0_0_dfbc03ba08" x="198.354229" y="153.020569" style="fill: #8cd790; fill-opacity: 0.7"/>
    </g>
    <g clip-path="url(#pfbbe3a2fb0)">
     <use xlink:href="#C0_0_dfbc03ba08" x="211.843803" y="304.975082" style="fill: #8cd790; fill-opacity: 0.7"/>
    </g>
    <g clip-path="url(#pfbbe3a2fb0)">
     <use xlink:href="#C0_0_dfbc03ba08" x="218.55336" y="276.853497" style="fill: #8cd790; fill-opacity: 0.7"/>
    </g>
    <g clip-path="url(#pfbbe3a2fb0)">
     <use xlink:href="#C0_0_dfbc03ba08" x="198.601466" y="500.483744" style="fill: #8cd790; fill-opacity: 0.7"/>
    </g>
    <g clip-path="url(#pfbbe3a2fb0)">
     <use xlink:href="#C0_0_dfbc03ba08" x="221.343379" y="307.875173" style="fill: #8cd790; fill-opacity: 0.7"/>
    </g>
   </g>
   <g id="PathCollection_2">
    <defs>
     <path id="C1_0_2eae23c599" d="M 0 4 
C 1.060812 4 2.078319 3.578535 2.828427 2.828427 
C 3.578535 2.078319 4 1.060812 4 -0 
C 4 -1.060812 3.578535 -2.078319 2.828427 -2.828427 
C 2.078319 -3.578535 1.060812 -4 0 -4 
C -1.060812 -4 -2.078319 -3.578535 -2.828427 -2.828427 
C -3.578535 -2.078319 -4 -1.060812 -4 0 
C -4 1.060812 -3.578535 2.078319 -2.828427 2.828427 
C -2.078319 3.578535 -1.060812 4 0 4 
z
"/>
    </defs>
    <g clip-path="url(#pfbbe3a2fb0)">
     <use xlink:href="#C1_0_2eae23c599" x="327.689214" y="264.341381" style="fill: #285943; fill-opacity: 0.7"/>
    </g>
    <g clip-path="url(#pfbbe3a2fb0)">
     <use xlink:href="#C1_0_2eae23c599" x="316.664706" y="120.099166" style="fill: #285943; fill-opacity: 0.7"/>
    </g>
    <g clip-path="url(#pfbbe3a2fb0)">
     <use xlink:href="#C1_0_2eae23c599" x="327.579259" y="89.840478" style="fill: #285943; fill-opacity: 0.7"/>
    </g>
    <g clip-path="url(#pfbbe3a2fb0)">
     <use xlink:href="#C1_0_2eae23c599" x="328.492297" y="291.231841" style="fill: #285943; fill-opacity: 0.7"/>
    </g>
    <g clip-path="url(#pfbbe3a2fb0)">
     <use xlink:href="#C1_0_2eae23c599" x="327.69138" y="85.422038" style="fill: #285943; fill-opacity: 0.7"/>
    </g>
    <g clip-path="url(#pfbbe3a2fb0)">
     <use xlink:href="#C1_0_2eae23c599" x="321.514923" y="245.441573" style="fill: #285943; fill-opacity: 0.7"/>
    </g>
    <g clip-path="url(#pfbbe3a2fb0)">
     <use xlink:href="#C1_0_2eae23c599" x="326.346371" y="318.773861" style="fill: #285943; fill-opacity: 0.7"/>
    </g>
    <g clip-path="url(#pfbbe3a2fb0)">
     <use xlink:href="#C1_0_2eae23c599" x="321.806196" y="68.89761" style="fill: #285943; fill-opacity: 0.7"/>
    </g>
    <g clip-path="url(#pfbbe3a2fb0)">
     <use xlink:href="#C1_0_2eae23c599" x="326.532865" y="209.164122" style="fill: #285943; fill-opacity: 0.7"/>
    </g>
    <g clip-path="url(#pfbbe3a2fb0)">
     <use xlink:href="#C1_0_2eae23c599" x="311.878744" y="248.270003" style="fill: #285943; fill-opacity: 0.7"/>
    </g>
    <g clip-path="url(#pfbbe3a2fb0)">
     <use xlink:href="#C1_0_2eae23c599" x="316.930627" y="169.193024" style="fill: #285943; fill-opacity: 0.7"/>
    </g>
    <g clip-path="url(#pfbbe3a2fb0)">
     <use xlink:href="#C1_0_2eae23c599" x="325.43219" y="175.639084" style="fill: #285943; fill-opacity: 0.7"/>
    </g>
    <g clip-path="url(#pfbbe3a2fb0)">
     <use xlink:href="#C1_0_2eae23c599" x="329.047983" y="264.803517" style="fill: #285943; fill-opacity: 0.7"/>
    </g>
    <g clip-path="url(#pfbbe3a2fb0)">
     <use xlink:href="#C1_0_2eae23c599" x="325.236939" y="352.621846" style="fill: #285943; fill-opacity: 0.7"/>
    </g>
    <g clip-path="url(#pfbbe3a2fb0)">
     <use xlink:href="#C1_0_2eae23c599" x="314.451574" y="243.566159" style="fill: #285943; fill-opacity: 0.7"/>
    </g>
   </g>
   <g id="PathCollection_3">
    <defs>
     <path id="C2_0_d7aa83091f" d="M 0 4 
C 1.060812 4 2.078319 3.578535 2.828427 2.828427 
C 3.578535 2.078319 4 1.060812 4 -0 
C 4 -1.060812 3.578535 -2.078319 2.828427 -2.828427 
C 2.078319 -3.578535 1.060812 -4 0 -4 
C -1.060812 -4 -2.078319 -3.578535 -2.828427 -2.828427 
C -3.578535 -2.078319 -4 -1.060812 -4 0 
C -4 1.060812 -3.578535 2.078319 -2.828427 2.828427 
C -2.078319 3.578535 -1.060812 4 0 4 
z
"/>
    </defs>
    <g clip-path="url(#pfbbe3a2fb0)">
     <use xlink:href="#C2_0_d7aa83091f" x="476.128444" y="328.37495" style="fill: #8cd790; fill-opacity: 0.7"/>
    </g>
    <g clip-path="url(#pfbbe3a2fb0)">
     <use xlink:href="#C2_0_d7aa83091f" x="487.161244" y="675.164634" style="fill: #8cd790; fill-opacity: 0.7"/>
    </g>
    <g clip-path="url(#pfbbe3a2fb0)">
     <use xlink:href="#C2_0_d7aa83091f" x="477.10684" y="267.229272" style="fill: #8cd790; fill-opacity: 0.7"/>
    </g>
    <g clip-path="url(#pfbbe3a2fb0)">
     <use xlink:href="#C2_0_d7aa83091f" x="472.943367" y="440.575984" style="fill: #8cd790; fill-opacity: 0.7"/>
    </g>
    <g clip-path="url(#pfbbe3a2fb0)">
     <use xlink:href="#C2_0_d7aa83091f" x="478.020197" y="279.409319" style="fill: #8cd790; fill-opacity: 0.7"/>
    </g>
    <g clip-path="url(#pfbbe3a2fb0)">
     <use xlink:href="#C2_0_d7aa83091f" x="481.2026" y="586.397588" style="fill: #8cd790; fill-opacity: 0.7"/>
    </g>
    <g clip-path="url(#pfbbe3a2fb0)">
     <use xlink:href="#C2_0_d7aa83091f" x="490.543133" y="319.647968" style="fill: #8cd790; fill-opacity: 0.7"/>
    </g>
    <g clip-path="url(#pfbbe3a2fb0)">
     <use xlink:href="#C2_0_d7aa83091f" x="481.111949" y="314.512233" style="fill: #8cd790; fill-opacity: 0.7"/>
    </g>
    <g clip-path="url(#pfbbe3a2fb0)">
     <use xlink:href="#C2_0_d7aa83091f" x="472.622111" y="326.009363" style="fill: #8cd790; fill-opacity: 0.7"/>
    </g>
    <g clip-path="url(#pfbbe3a2fb0)">
     <use xlink:href="#C2_0_d7aa83091f" x="478.2697" y="369.622021" style="fill: #8cd790; fill-opacity: 0.7"/>
    </g>
    <g clip-path="url(#pfbbe3a2fb0)">
     <use xlink:href="#C2_0_d7aa83091f" x="464.912421" y="251.061411" style="fill: #8cd790; fill-opacity: 0.7"/>
    </g>
    <g clip-path="url(#pfbbe3a2fb0)">
     <use xlink:href="#C2_0_d7aa83091f" x="485.5856" y="357.093715" style="fill: #8cd790; fill-opacity: 0.7"/>
    </g>
    <g clip-path="url(#pfbbe3a2fb0)">
     <use xlink:href="#C2_0_d7aa83091f" x="487.141906" y="377.96787" style="fill: #8cd790; fill-opacity: 0.7"/>
    </g>
    <g clip-path="url(#pfbbe3a2fb0)">
     <use xlink:href="#C2_0_d7aa83091f" x="475.075494" y="492.781192" style="fill: #8cd790; fill-opacity: 0.7"/>
    </g>
    <g clip-path="url(#pfbbe3a2fb0)">
     <use xlink:href="#C2_0_d7aa83091f" x="483.824332" y="325.397658" style="fill: #8cd790; fill-opacity: 0.7"/>
    </g>
   </g>
   <g id="PathCollection_4">
    <defs>
     <path id="C3_0_be1458024a" d="M 0 4 
C 1.060812 4 2.078319 3.578535 2.828427 2.828427 
C 3.578535 2.078319 4 1.060812 4 -0 
C 4 -1.060812 3.578535 -2.078319 2.828427 -2.828427 
C 2.078319 -3.578535 1.060812 -4 0 -4 
C -1.060812 -4 -2.078319 -3.578535 -2.828427 -2.828427 
C -3.578535 -2.078319 -4 -1.060812 -4 0 
C -4 1.060812 -3.578535 2.078319 -2.828427 2.828427 
C -2.078319 3.578535 -1.060812 4 0 4 
z
"/>
    </defs>
    <g clip-path="url(#pfbbe3a2fb0)">
     <use xlink:href="#C3_0_be1458024a" x="589.695296" y="303.655901" style="fill: #285943; fill-opacity: 0.7"/>
    </g>
    <g clip-path="url(#pfbbe3a2fb0)">
     <use xlink:href="#C3_0_be1458024a" x="584.25378" y="173.821955" style="fill: #285943; fill-opacity: 0.7"/>
    </g>
    <g clip-path="url(#pfbbe3a2fb0)">
     <use xlink:href="#C3_0_be1458024a" x="575.989959" y="185.905286" style="fill: #285943; fill-opacity: 0.7"/>
    </g>
    <g clip-path="url(#pfbbe3a2fb0)">
     <use xlink:href="#C3_0_be1458024a" x="596.691604" y="250.133509" style="fill: #285943; fill-opacity: 0.7"/>
    </g>
    <g clip-path="url(#pfbbe3a2fb0)">
     <use xlink:href="#C3_0_be1458024a" x="594.969027" y="195.666898" style="fill: #285943; fill-opacity: 0.7"/>
    </g>
    <g clip-path="url(#pfbbe3a2fb0)">
     <use xlink:href="#C3_0_be1458024a" x="596.719095" y="360.321774" style="fill: #285943; fill-opacity: 0.7"/>
    </g>
    <g clip-path="url(#pfbbe3a2fb0)">
     <use xlink:href="#C3_0_be1458024a" x="574.614571" y="330.383714" style="fill: #285943; fill-opacity: 0.7"/>
    </g>
    <g clip-path="url(#pfbbe3a2fb0)">
     <use xlink:href="#C3_0_be1458024a" x="586.192294" y="259.667216" style="fill: #285943; fill-opacity: 0.7"/>
    </g>
    <g clip-path="url(#pfbbe3a2fb0)">
     <use xlink:href="#C3_0_be1458024a" x="590.933509" y="248.842704" style="fill: #285943; fill-opacity: 0.7"/>
    </g>
    <g clip-path="url(#pfbbe3a2fb0)">
     <use xlink:href="#C3_0_be1458024a" x="589.49122" y="295.493701" style="fill: #285943; fill-opacity: 0.7"/>
    </g>
    <g clip-path="url(#pfbbe3a2fb0)">
     <use xlink:href="#C3_0_be1458024a" x="581.238982" y="165.071602" style="fill: #285943; fill-opacity: 0.7"/>
    </g>
    <g clip-path="url(#pfbbe3a2fb0)">
     <use xlink:href="#C3_0_be1458024a" x="584.941729" y="186.933623" style="fill: #285943; fill-opacity: 0.7"/>
    </g>
    <g clip-path="url(#pfbbe3a2fb0)">
     <use xlink:href="#C3_0_be1458024a" x="583.746699" y="330.971529" style="fill: #285943; fill-opacity: 0.7"/>
    </g>
    <g clip-path="url(#pfbbe3a2fb0)">
     <use xlink:href="#C3_0_be1458024a" x="581.620332" y="377.544187" style="fill: #285943; fill-opacity: 0.7"/>
    </g>
    <g clip-path="url(#pfbbe3a2fb0)">
     <use xlink:href="#C3_0_be1458024a" x="577.428064" y="209.308006" style="fill: #285943; fill-opacity: 0.7"/>
    </g>
   </g>
   <g id="PathCollection_5">
    <defs>
     <path id="C4_0_e9ecfa4f33" d="M 0 4 
C 1.060812 4 2.078319 3.578535 2.828427 2.828427 
C 3.578535 2.078319 4 1.060812 4 -0 
C 4 -1.060812 3.578535 -2.078319 2.828427 -2.828427 
C 2.078319 -3.578535 1.060812 -4 0 -4 
C -1.060812 -4 -2.078319 -3.578535 -2.828427 -2.828427 
C -3.578535 -2.078319 -4 -1.060812 -4 0 
C -4 1.060812 -3.578535 2.078319 -2.828427 2.828427 
C -2.078319 3.578535 -1.060812 4 0 4 
z
"/>
    </defs>
    <g clip-path="url(#pfbbe3a2fb0)">
     <use xlink:href="#C4_0_e9ecfa4f33" x="756.364849" y="513.708477" style="fill: #8cd790; fill-opacity: 0.7"/>
    </g>
    <g clip-path="url(#pfbbe3a2fb0)">
     <use xlink:href="#C4_0_e9ecfa4f33" x="732.284851" y="817.613158" style="fill: #8cd790; fill-opacity: 0.7"/>
    </g>
    <g clip-path="url(#pfbbe3a2fb0)">
     <use xlink:href="#C4_0_e9ecfa4f33" x="751.398704" y="255.420039" style="fill: #8cd790; fill-opacity: 0.7"/>
    </g>
    <g clip-path="url(#pfbbe3a2fb0)">
     <use xlink:href="#C4_0_e9ecfa4f33" x="750.649588" y="611.185403" style="fill: #8cd790; fill-opacity: 0.7"/>
    </g>
    <g clip-path="url(#pfbbe3a2fb0)">
     <use xlink:href="#C4_0_e9ecfa4f33" x="744.617612" y="316.665732" style="fill: #8cd790; fill-opacity: 0.7"/>
    </g>
    <g clip-path="url(#pfbbe3a2fb0)">
     <use xlink:href="#C4_0_e9ecfa4f33" x="751.693477" y="470.284773" style="fill: #8cd790; fill-opacity: 0.7"/>
    </g>
    <g clip-path="url(#pfbbe3a2fb0)">
     <use xlink:href="#C4_0_e9ecfa4f33" x="756.577352" y="256.059129" style="fill: #8cd790; fill-opacity: 0.7"/>
    </g>
    <g clip-path="url(#pfbbe3a2fb0)">
     <use xlink:href="#C4_0_e9ecfa4f33" x="737.765293" y="376.322491" style="fill: #8cd790; fill-opacity: 0.7"/>
    </g>
    <g clip-path="url(#pfbbe3a2fb0)">
     <use xlink:href="#C4_0_e9ecfa4f33" x="742.292206" y="357.589766" style="fill: #8cd790; fill-opacity: 0.7"/>
    </g>
    <g clip-path="url(#pfbbe3a2fb0)">
     <use xlink:href="#C4_0_e9ecfa4f33" x="757.037447" y="317.755552" style="fill: #8cd790; fill-opacity: 0.7"/>
    </g>
    <g clip-path="url(#pfbbe3a2fb0)">
     <use xlink:href="#C4_0_e9ecfa4f33" x="732.343001" y="169.752486" style="fill: #8cd790; fill-opacity: 0.7"/>
    </g>
    <g clip-path="url(#pfbbe3a2fb0)">
     <use xlink:href="#C4_0_e9ecfa4f33" x="748.181822" y="339.355092" style="fill: #8cd790; fill-opacity: 0.7"/>
    </g>
    <g clip-path="url(#pfbbe3a2fb0)">
     <use xlink:href="#C4_0_e9ecfa4f33" x="751.585608" y="429.559242" style="fill: #8cd790; fill-opacity: 0.7"/>
    </g>
    <g clip-path="url(#pfbbe3a2fb0)">
     <use xlink:href="#C4_0_e9ecfa4f33" x="738.556322" y="767.954665" style="fill: #8cd790; fill-opacity: 0.7"/>
    </g>
    <g clip-path="url(#pfbbe3a2fb0)">
     <use xlink:href="#C4_0_e9ecfa4f33" x="733.30202" y="455.55807" style="fill: #8cd790; fill-opacity: 0.7"/>
    </g>
   </g>
   <g id="PathCollection_6">
    <defs>
     <path id="C5_0_41b59f87bc" d="M 0 4 
C 1.060812 4 2.078319 3.578535 2.828427 2.828427 
C 3.578535 2.078319 4 1.060812 4 -0 
C 4 -1.060812 3.578535 -2.078319 2.828427 -2.828427 
C 2.078319 -3.578535 1.060812 -4 0 -4 
C -1.060812 -4 -2.078319 -3.578535 -2.828427 -2.828427 
C -3.578535 -2.078319 -4 -1.060812 -4 0 
C -4 1.060812 -3.578535 2.078319 -2.828427 2.828427 
C -2.078319 3.578535 -1.060812 4 0 4 
z
"/>
    </defs>
    <g clip-path="url(#pfbbe3a2fb0)">
     <use xlink:href="#C5_0_41b59f87bc" x="854.291833" y="380.623884" style="fill: #285943; fill-opacity: 0.7"/>
    </g>
    <g clip-path="url(#pfbbe3a2fb0)">
     <use xlink:href="#C5_0_41b59f87bc" x="844.788386" y="472.017871" style="fill: #285943; fill-opacity: 0.7"/>
    </g>
    <g clip-path="url(#pfbbe3a2fb0)">
     <use xlink:href="#C5_0_41b59f87bc" x="850.066343" y="269.304901" style="fill: #285943; fill-opacity: 0.7"/>
    </g>
    <g clip-path="url(#pfbbe3a2fb0)">
     <use xlink:href="#C5_0_41b59f87bc" x="863.07371" y="417.926681" style="fill: #285943; fill-opacity: 0.7"/>
    </g>
    <g clip-path="url(#pfbbe3a2fb0)">
     <use xlink:href="#C5_0_41b59f87bc" x="850.236028" y="273.109331" style="fill: #285943; fill-opacity: 0.7"/>
    </g>
    <g clip-path="url(#pfbbe3a2fb0)">
     <use xlink:href="#C5_0_41b59f87bc" x="861.071793" y="456.783552" style="fill: #285943; fill-opacity: 0.7"/>
    </g>
    <g clip-path="url(#pfbbe3a2fb0)">
     <use xlink:href="#C5_0_41b59f87bc" x="845.346729" y="348.857375" style="fill: #285943; fill-opacity: 0.7"/>
    </g>
    <g clip-path="url(#pfbbe3a2fb0)">
     <use xlink:href="#C5_0_41b59f87bc" x="845.594394" y="321.182054" style="fill: #285943; fill-opacity: 0.7"/>
    </g>
    <g clip-path="url(#pfbbe3a2fb0)">
     <use xlink:href="#C5_0_41b59f87bc" x="854.467745" y="341.737211" style="fill: #285943; fill-opacity: 0.7"/>
    </g>
    <g clip-path="url(#pfbbe3a2fb0)">
     <use xlink:href="#C5_0_41b59f87bc" x="856.651011" y="248.949097" style="fill: #285943; fill-opacity: 0.7"/>
    </g>
    <g clip-path="url(#pfbbe3a2fb0)">
     <use xlink:href="#C5_0_41b59f87bc" x="861.850906" y="153.9281" style="fill: #285943; fill-opacity: 0.7"/>
    </g>
    <g clip-path="url(#pfbbe3a2fb0)">
     <use xlink:href="#C5_0_41b59f87bc" x="860.616886" y="263.364043" style="fill: #285943; fill-opacity: 0.7"/>
    </g>
    <g clip-path="url(#pfbbe3a2fb0)">
     <use xlink:href="#C5_0_41b59f87bc" x="855.259065" y="356.51161" style="fill: #285943; fill-opacity: 0.7"/>
    </g>
    <g clip-path="url(#pfbbe3a2fb0)">
     <use xlink:href="#C5_0_41b59f87bc" x="843.935698" y="608.370603" style="fill: #285943; fill-opacity: 0.7"/>
    </g>
    <g clip-path="url(#pfbbe3a2fb0)">
     <use xlink:href="#C5_0_41b59f87bc" x="863.982981" y="229.867102" style="fill: #285943; fill-opacity: 0.7"/>
    </g>
   </g>
   <g id="text_15">
    <!-- Anticipatory Velocity Given Previous TD: color Green  -->
    <g transform="translate(133.187344 68.410538) scale(0.3 -0.3)">
     <defs>
      <path id="DejaVuSans-69" d="M 603 3500 
L 1178 3500 
L 1178 0 
L 603 0 
L 603 3500 
z
M 603 4863 
L 1178 4863 
L 1178 4134 
L 603 4134 
L 603 4863 
z
" transform="scale(0.015625)"/>
      <path id="DejaVuSans-63" d="M 3122 3366 
L 3122 2828 
Q 2878 2963 2633 3030 
Q 2388 3097 2138 3097 
Q 1578 3097 1268 2742 
Q 959 2388 959 1747 
Q 959 1106 1268 751 
Q 1578 397 2138 397 
Q 2388 397 2633 464 
Q 2878 531 3122 666 
L 3122 134 
Q 2881 22 2623 -34 
Q 2366 -91 2075 -91 
Q 1284 -91 818 406 
Q 353 903 353 1747 
Q 353 2603 823 3093 
Q 1294 3584 2113 3584 
Q 2378 3584 2631 3529 
Q 2884 3475 3122 3366 
z
" transform="scale(0.015625)"/>
      <path id="DejaVuSans-70" d="M 1159 525 
L 1159 -1331 
L 581 -1331 
L 581 3500 
L 1159 3500 
L 1159 2969 
Q 1341 3281 1617 3432 
Q 1894 3584 2278 3584 
Q 2916 3584 3314 3078 
Q 3713 2572 3713 1747 
Q 3713 922 3314 415 
Q 2916 -91 2278 -91 
Q 1894 -91 1617 61 
Q 1341 213 1159 525 
z
M 3116 1747 
Q 3116 2381 2855 2742 
Q 2594 3103 2138 3103 
Q 1681 3103 1420 2742 
Q 1159 2381 1159 1747 
Q 1159 1113 1420 752 
Q 1681 391 2138 391 
Q 2594 391 2855 752 
Q 3116 1113 3116 1747 
z
" transform="scale(0.015625)"/>
      <path id="DejaVuSans-61" d="M 2194 1759 
Q 1497 1759 1228 1600 
Q 959 1441 959 1056 
Q 959 750 1161 570 
Q 1363 391 1709 391 
Q 2188 391 2477 730 
Q 2766 1069 2766 1631 
L 2766 1759 
L 2194 1759 
z
M 3341 1997 
L 3341 0 
L 2766 0 
L 2766 531 
Q 2569 213 2275 61 
Q 1981 -91 1556 -91 
Q 1019 -91 701 211 
Q 384 513 384 1019 
Q 384 1609 779 1909 
Q 1175 2209 1959 2209 
L 2766 2209 
L 2766 2266 
Q 2766 2663 2505 2880 
Q 2244 3097 1772 3097 
Q 1472 3097 1187 3025 
Q 903 2953 641 2809 
L 641 3341 
Q 956 3463 1253 3523 
Q 1550 3584 1831 3584 
Q 2591 3584 2966 3190 
Q 3341 2797 3341 1997 
z
" transform="scale(0.015625)"/>
      <path id="DejaVuSans-6f" d="M 1959 3097 
Q 1497 3097 1228 2736 
Q 959 2375 959 1747 
Q 959 1119 1226 758 
Q 1494 397 1959 397 
Q 2419 397 2687 759 
Q 2956 1122 2956 1747 
Q 2956 2369 2687 2733 
Q 2419 3097 1959 3097 
z
M 1959 3584 
Q 2709 3584 3137 3096 
Q 3566 2609 3566 1747 
Q 3566 888 3137 398 
Q 2709 -91 1959 -91 
Q 1206 -91 779 398 
Q 353 888 353 1747 
Q 353 2609 779 3096 
Q 1206 3584 1959 3584 
z
" transform="scale(0.015625)"/>
      <path id="DejaVuSans-79" d="M 2059 -325 
Q 1816 -950 1584 -1140 
Q 1353 -1331 966 -1331 
L 506 -1331 
L 506 -850 
L 844 -850 
Q 1081 -850 1212 -737 
Q 1344 -625 1503 -206 
L 1606 56 
L 191 3500 
L 800 3500 
L 1894 763 
L 2988 3500 
L 3597 3500 
L 2059 -325 
z
" transform="scale(0.015625)"/>
      <path id="DejaVuSans-56" d="M 1831 0 
L 50 4666 
L 709 4666 
L 2188 738 
L 3669 4666 
L 4325 4666 
L 2547 0 
L 1831 0 
z
" transform="scale(0.015625)"/>
      <path id="DejaVuSans-6c" d="M 603 4863 
L 1178 4863 
L 1178 0 
L 603 0 
L 603 4863 
z
" transform="scale(0.015625)"/>
      <path id="DejaVuSans-76" d="M 191 3500 
L 800 3500 
L 1894 563 
L 2988 3500 
L 3597 3500 
L 2284 0 
L 1503 0 
L 191 3500 
z
" transform="scale(0.015625)"/>
      <path id="DejaVuSans-75" d="M 544 1381 
L 544 3500 
L 1119 3500 
L 1119 1403 
Q 1119 906 1312 657 
Q 1506 409 1894 409 
Q 2359 409 2629 706 
Q 2900 1003 2900 1516 
L 2900 3500 
L 3475 3500 
L 3475 0 
L 2900 0 
L 2900 538 
Q 2691 219 2414 64 
Q 2138 -91 1772 -91 
Q 1169 -91 856 284 
Q 544 659 544 1381 
z
M 1991 3584 
L 1991 3584 
z
" transform="scale(0.015625)"/>
      <path id="DejaVuSans-54" d="M -19 4666 
L 3928 4666 
L 3928 4134 
L 2272 4134 
L 2272 0 
L 1638 0 
L 1638 4134 
L -19 4134 
L -19 4666 
z
" transform="scale(0.015625)"/>
      <path id="DejaVuSans-44" d="M 1259 4147 
L 1259 519 
L 2022 519 
Q 2988 519 3436 956 
Q 3884 1394 3884 2338 
Q 3884 3275 3436 3711 
Q 2988 4147 2022 4147 
L 1259 4147 
z
M 628 4666 
L 1925 4666 
Q 3281 4666 3915 4102 
Q 4550 3538 4550 2338 
Q 4550 1131 3912 565 
Q 3275 0 1925 0 
L 628 0 
L 628 4666 
z
" transform="scale(0.015625)"/>
      <path id="DejaVuSans-3a" d="M 750 794 
L 1409 794 
L 1409 0 
L 750 0 
L 750 794 
z
M 750 3309 
L 1409 3309 
L 1409 2516 
L 750 2516 
L 750 3309 
z
" transform="scale(0.015625)"/>
     </defs>
     <use xlink:href="#DejaVuSans-41"/>
     <use xlink:href="#DejaVuSans-6e" x="68.408203"/>
     <use xlink:href="#DejaVuSans-74" x="131.787109"/>
     <use xlink:href="#DejaVuSans-69" x="170.996094"/>
     <use xlink:href="#DejaVuSans-63" x="198.779297"/>
     <use xlink:href="#DejaVuSans-69" x="253.759766"/>
     <use xlink:href="#DejaVuSans-70" x="281.542969"/>
     <use xlink:href="#DejaVuSans-61" x="345.019531"/>
     <use xlink:href="#DejaVuSans-74" x="406.298828"/>
     <use xlink:href="#DejaVuSans-6f" x="445.507812"/>
     <use xlink:href="#DejaVuSans-72" x="506.689453"/>
     <use xlink:href="#DejaVuSans-79" x="547.802734"/>
     <use xlink:href="#DejaVuSans-20" x="606.982422"/>
     <use xlink:href="#DejaVuSans-56" x="638.769531"/>
     <use xlink:href="#DejaVuSans-65" x="699.427734"/>
     <use xlink:href="#DejaVuSans-6c" x="760.951172"/>
     <use xlink:href="#DejaVuSans-6f" x="788.734375"/>
     <use xlink:href="#DejaVuSans-63" x="849.916016"/>
     <use xlink:href="#DejaVuSans-69" x="904.896484"/>
     <use xlink:href="#DejaVuSans-74" x="932.679688"/>
     <use xlink:href="#DejaVuSans-79" x="971.888672"/>
     <use xlink:href="#DejaVuSans-20" x="1031.068359"/>
     <use xlink:href="#DejaVuSans-47" x="1062.855469"/>
     <use xlink:href="#DejaVuSans-69" x="1140.345703"/>
     <use xlink:href="#DejaVuSans-76" x="1168.128906"/>
     <use xlink:href="#DejaVuSans-65" x="1227.308594"/>
     <use xlink:href="#DejaVuSans-6e" x="1288.832031"/>
     <use xlink:href="#DejaVuSans-20" x="1352.210938"/>
     <use xlink:href="#DejaVuSans-50" x="1383.998047"/>
     <use xlink:href="#DejaVuSans-72" x="1442.550781"/>
     <use xlink:href="#DejaVuSans-65" x="1481.414062"/>
     <use xlink:href="#DejaVuSans-76" x="1542.9375"/>
     <use xlink:href="#DejaVuSans-69" x="1602.117188"/>
     <use xlink:href="#DejaVuSans-6f" x="1629.900391"/>
     <use xlink:href="#DejaVuSans-75" x="1691.082031"/>
     <use xlink:href="#DejaVuSans-73" x="1754.460938"/>
     <use xlink:href="#DejaVuSans-20" x="1806.560547"/>
     <use xlink:href="#DejaVuSans-54" x="1838.347656"/>
     <use xlink:href="#DejaVuSans-44" x="1899.431641"/>
     <use xlink:href="#DejaVuSans-3a" x="1976.433594"/>
     <use xlink:href="#DejaVuSans-20" x="2010.125"/>
     <use xlink:href="#DejaVuSans-63" x="2041.912109"/>
     <use xlink:href="#DejaVuSans-6f" x="2096.892578"/>
     <use xlink:href="#DejaVuSans-6c" x="2158.074219"/>
     <use xlink:href="#DejaVuSans-6f" x="2185.857422"/>
     <use xlink:href="#DejaVuSans-72" x="2247.039062"/>
     <use xlink:href="#DejaVuSans-20" x="2288.152344"/>
     <use xlink:href="#DejaVuSans-47" x="2319.939453"/>
     <use xlink:href="#DejaVuSans-72" x="2397.429688"/>
     <use xlink:href="#DejaVuSans-65" x="2436.292969"/>
     <use xlink:href="#DejaVuSans-65" x="2497.816406"/>
     <use xlink:href="#DejaVuSans-6e" x="2559.339844"/>
     <use xlink:href="#DejaVuSans-20" x="2622.71875"/>
    </g>
   </g>
   <g id="legend_1">
    <g id="patch_15">
     <path d="M 808.129375 149.3621 
L 919.12 149.3621 
Q 923.12 149.3621 923.12 145.3621 
L 923.12 88.6496 
Q 923.12 84.6496 919.12 84.6496 
L 808.129375 84.6496 
Q 804.129375 84.6496 804.129375 88.6496 
L 804.129375 145.3621 
Q 804.129375 149.3621 808.129375 149.3621 
z
" style="fill: #ffffff; opacity: 0.8; stroke: #cccccc; stroke-linejoin: miter"/>
    </g>
    <g id="patch_16">
     <path d="M 812.129375 107.846475 
L 852.129375 107.846475 
L 852.129375 93.846475 
L 812.129375 93.846475 
z
" style="fill: #95ce98; opacity: 0.5"/>
    </g>
    <g id="text_16">
     <!-- left -->
     <g transform="translate(868.129375 107.846475) scale(0.2 -0.2)">
      <use xlink:href="#DejaVuSans-6c"/>
      <use xlink:href="#DejaVuSans-65" x="27.783203"/>
      <use xlink:href="#DejaVuSans-66" x="89.306641"/>
      <use xlink:href="#DejaVuSans-74" x="122.761719"/>
     </g>
    </g>
    <g id="patch_17">
     <path d="M 812.129375 137.202725 
L 852.129375 137.202725 
L 852.129375 123.202725 
L 812.129375 123.202725 
z
" style="fill: #2e5342; opacity: 0.5"/>
    </g>
    <g id="text_17">
     <!-- right -->
     <g transform="translate(868.129375 137.202725) scale(0.2 -0.2)">
      <defs>
       <path id="DejaVuSans-68" d="M 3513 2113 
L 3513 0 
L 2938 0 
L 2938 2094 
Q 2938 2591 2744 2837 
Q 2550 3084 2163 3084 
Q 1697 3084 1428 2787 
Q 1159 2491 1159 1978 
L 1159 0 
L 581 0 
L 581 4863 
L 1159 4863 
L 1159 2956 
Q 1366 3272 1645 3428 
Q 1925 3584 2291 3584 
Q 2894 3584 3203 3211 
Q 3513 2838 3513 2113 
z
" transform="scale(0.015625)"/>
      </defs>
      <use xlink:href="#DejaVuSans-72"/>
      <use xlink:href="#DejaVuSans-69" x="41.113281"/>
      <use xlink:href="#DejaVuSans-67" x="68.896484"/>
      <use xlink:href="#DejaVuSans-68" x="132.373047"/>
      <use xlink:href="#DejaVuSans-74" x="195.751953"/>
     </g>
    </g>
   </g>
  </g>
 </g>
 <defs>
  <clipPath id="pfbbe3a2fb0">
   <rect x="129.6" y="74.6496" width="803.52" height="479.0016"/>
  </clipPath>
 </defs>
</svg>
