<?xml version="1.0" encoding="utf-8" standalone="no"?>
<!DOCTYPE svg PUBLIC "-//W3C//DTD SVG 1.1//EN"
  "http://www.w3.org/Graphics/SVG/1.1/DTD/svg11.dtd">
<svg xmlns:xlink="http://www.w3.org/1999/xlink" width="1036.8pt" height="622.08pt" viewBox="0 0 1036.8 622.08" xmlns="http://www.w3.org/2000/svg" version="1.1">
 <metadata>
  <rdf:RDF xmlns:dc="http://purl.org/dc/elements/1.1/" xmlns:cc="http://creativecommons.org/ns#" xmlns:rdf="http://www.w3.org/1999/02/22-rdf-syntax-ns#">
   <cc:Work>
    <dc:type rdf:resource="http://purl.org/dc/dcmitype/StillImage"/>
    <dc:date>2025-02-03T12:20:20.686902</dc:date>
    <dc:format>image/svg+xml</dc:format>
    <dc:creator>
     <cc:Agent>
      <dc:title>Matplotlib v3.9.2, https://matplotlib.org/</dc:title>
     </cc:Agent>
    </dc:creator>
   </cc:Work>
  </rdf:RDF>
 </metadata>
 <defs>
  <style type="text/css">*{stroke-linejoin: round; stroke-linecap: butt}</style>
 </defs>
 <g id="figure_1">
  <g id="patch_1">
   <path d="M 0 622.08 
L 1036.8 622.08 
L 1036.8 0 
L 0 0 
z
" style="fill: #ffffff"/>
  </g>
  <g id="axes_1">
   <g id="patch_2">
    <path d="M 129.6 553.6512 
L 933.12 553.6512 
L 933.12 74.6496 
L 129.6 74.6496 
z
" style="fill: #ffffff"/>
   </g>
   <g id="patch_3">
    <path d="M 156.384 314.1504 
L 263.52 314.1504 
L 263.52 234.152468 
L 156.384 234.152468 
z
" clip-path="url(#pa34c40d2ef)" style="fill: #107010; opacity: 0.5"/>
   </g>
   <g id="patch_4">
    <path d="M 424.224 314.1504 
L 531.36 314.1504 
L 531.36 313.243647 
L 424.224 313.243647 
z
" clip-path="url(#pa34c40d2ef)" style="fill: #107010; opacity: 0.5"/>
   </g>
   <g id="patch_5">
    <path d="M 692.064 314.1504 
L 799.2 314.1504 
L 799.2 424.393612 
L 692.064 424.393612 
z
" clip-path="url(#pa34c40d2ef)" style="fill: #107010; opacity: 0.5"/>
   </g>
   <g id="patch_6">
    <path d="M 263.52 314.1504 
L 370.656 314.1504 
L 370.656 350.943159 
L 263.52 350.943159 
z
" clip-path="url(#pa34c40d2ef)" style="fill: #df2020; opacity: 0.5"/>
   </g>
   <g id="patch_7">
    <path d="M 531.36 314.1504 
L 638.496 314.1504 
L 638.496 319.343509 
L 531.36 319.343509 
z
" clip-path="url(#pa34c40d2ef)" style="fill: #df2020; opacity: 0.5"/>
   </g>
   <g id="patch_8">
    <path d="M 799.2 314.1504 
L 906.336 314.1504 
L 906.336 275.118976 
L 799.2 275.118976 
z
" clip-path="url(#pa34c40d2ef)" style="fill: #df2020; opacity: 0.5"/>
   </g>
   <g id="patch_9">
    <path d="M 263.52 314.1504 
L 263.52 314.1504 
L 263.52 314.1504 
L 263.52 314.1504 
z
" clip-path="url(#pa34c40d2ef)" style="fill: #107010; opacity: 0.5"/>
   </g>
   <g id="patch_10">
    <path d="M 263.52 314.1504 
L 263.52 314.1504 
L 263.52 314.1504 
L 263.52 314.1504 
z
" clip-path="url(#pa34c40d2ef)" style="fill: #df2020; opacity: 0.5"/>
   </g>
   <g id="matplotlib.axis_1">
    <g id="xtick_1">
     <g id="line2d_1">
      <defs>
       <path id="m4d51a30782" d="M 0 0 
L 0 3.5 
" style="stroke: #000000; stroke-width: 0.8"/>
      </defs>
      <g>
       <use xlink:href="#m4d51a30782" x="263.52" y="553.6512" style="stroke: #000000; stroke-width: 0.8"/>
      </g>
     </g>
     <g id="text_1">
      <!-- 0.25 -->
      <g transform="translate(235.687969 579.647294) scale(0.25 -0.25)">
       <defs>
        <path id="DejaVuSans-30" d="M 2034 4250 
Q 1547 4250 1301 3770 
Q 1056 3291 1056 2328 
Q 1056 1369 1301 889 
Q 1547 409 2034 409 
Q 2525 409 2770 889 
Q 3016 1369 3016 2328 
Q 3016 3291 2770 3770 
Q 2525 4250 2034 4250 
z
M 2034 4750 
Q 2819 4750 3233 4129 
Q 3647 3509 3647 2328 
Q 3647 1150 3233 529 
Q 2819 -91 2034 -91 
Q 1250 -91 836 529 
Q 422 1150 422 2328 
Q 422 3509 836 4129 
Q 1250 4750 2034 4750 
z
" transform="scale(0.015625)"/>
        <path id="DejaVuSans-2e" d="M 684 794 
L 1344 794 
L 1344 0 
L 684 0 
L 684 794 
z
" transform="scale(0.015625)"/>
        <path id="DejaVuSans-32" d="M 1228 531 
L 3431 531 
L 3431 0 
L 469 0 
L 469 531 
Q 828 903 1448 1529 
Q 2069 2156 2228 2338 
Q 2531 2678 2651 2914 
Q 2772 3150 2772 3378 
Q 2772 3750 2511 3984 
Q 2250 4219 1831 4219 
Q 1534 4219 1204 4116 
Q 875 4013 500 3803 
L 500 4441 
Q 881 4594 1212 4672 
Q 1544 4750 1819 4750 
Q 2544 4750 2975 4387 
Q 3406 4025 3406 3419 
Q 3406 3131 3298 2873 
Q 3191 2616 2906 2266 
Q 2828 2175 2409 1742 
Q 1991 1309 1228 531 
z
" transform="scale(0.015625)"/>
        <path id="DejaVuSans-35" d="M 691 4666 
L 3169 4666 
L 3169 4134 
L 1269 4134 
L 1269 2991 
Q 1406 3038 1543 3061 
Q 1681 3084 1819 3084 
Q 2600 3084 3056 2656 
Q 3513 2228 3513 1497 
Q 3513 744 3044 326 
Q 2575 -91 1722 -91 
Q 1428 -91 1123 -41 
Q 819 9 494 109 
L 494 744 
Q 775 591 1075 516 
Q 1375 441 1709 441 
Q 2250 441 2565 725 
Q 2881 1009 2881 1497 
Q 2881 1984 2565 2268 
Q 2250 2553 1709 2553 
Q 1456 2553 1204 2497 
Q 953 2441 691 2322 
L 691 4666 
z
" transform="scale(0.015625)"/>
       </defs>
       <use xlink:href="#DejaVuSans-30"/>
       <use xlink:href="#DejaVuSans-2e" x="63.623047"/>
       <use xlink:href="#DejaVuSans-32" x="95.410156"/>
       <use xlink:href="#DejaVuSans-35" x="159.033203"/>
      </g>
     </g>
    </g>
    <g id="xtick_2">
     <g id="line2d_2">
      <g>
       <use xlink:href="#m4d51a30782" x="531.36" y="553.6512" style="stroke: #000000; stroke-width: 0.8"/>
      </g>
     </g>
     <g id="text_2">
      <!-- 0.5 -->
      <g transform="translate(511.481094 579.647294) scale(0.25 -0.25)">
       <use xlink:href="#DejaVuSans-30"/>
       <use xlink:href="#DejaVuSans-2e" x="63.623047"/>
       <use xlink:href="#DejaVuSans-35" x="95.410156"/>
      </g>
     </g>
    </g>
    <g id="xtick_3">
     <g id="line2d_3">
      <g>
       <use xlink:href="#m4d51a30782" x="799.2" y="553.6512" style="stroke: #000000; stroke-width: 0.8"/>
      </g>
     </g>
     <g id="text_3">
      <!-- 0.75 -->
      <g transform="translate(771.367969 579.647294) scale(0.25 -0.25)">
       <defs>
        <path id="DejaVuSans-37" d="M 525 4666 
L 3525 4666 
L 3525 4397 
L 1831 0 
L 1172 0 
L 2766 4134 
L 525 4134 
L 525 4666 
z
" transform="scale(0.015625)"/>
       </defs>
       <use xlink:href="#DejaVuSans-30"/>
       <use xlink:href="#DejaVuSans-2e" x="63.623047"/>
       <use xlink:href="#DejaVuSans-37" x="95.410156"/>
       <use xlink:href="#DejaVuSans-35" x="159.033203"/>
      </g>
     </g>
    </g>
    <g id="text_4">
     <!-- P(Right|Red)=P(Left|Green) -->
     <g transform="translate(325.545938 611.773075) scale(0.3 -0.3)">
      <defs>
       <path id="DejaVuSans-50" d="M 1259 4147 
L 1259 2394 
L 2053 2394 
Q 2494 2394 2734 2622 
Q 2975 2850 2975 3272 
Q 2975 3691 2734 3919 
Q 2494 4147 2053 4147 
L 1259 4147 
z
M 628 4666 
L 2053 4666 
Q 2838 4666 3239 4311 
Q 3641 3956 3641 3272 
Q 3641 2581 3239 2228 
Q 2838 1875 2053 1875 
L 1259 1875 
L 1259 0 
L 628 0 
L 628 4666 
z
" transform="scale(0.015625)"/>
       <path id="DejaVuSans-28" d="M 1984 4856 
Q 1566 4138 1362 3434 
Q 1159 2731 1159 2009 
Q 1159 1288 1364 580 
Q 1569 -128 1984 -844 
L 1484 -844 
Q 1016 -109 783 600 
Q 550 1309 550 2009 
Q 550 2706 781 3412 
Q 1013 4119 1484 4856 
L 1984 4856 
z
" transform="scale(0.015625)"/>
       <path id="DejaVuSans-52" d="M 2841 2188 
Q 3044 2119 3236 1894 
Q 3428 1669 3622 1275 
L 4263 0 
L 3584 0 
L 2988 1197 
Q 2756 1666 2539 1819 
Q 2322 1972 1947 1972 
L 1259 1972 
L 1259 0 
L 628 0 
L 628 4666 
L 2053 4666 
Q 2853 4666 3247 4331 
Q 3641 3997 3641 3322 
Q 3641 2881 3436 2590 
Q 3231 2300 2841 2188 
z
M 1259 4147 
L 1259 2491 
L 2053 2491 
Q 2509 2491 2742 2702 
Q 2975 2913 2975 3322 
Q 2975 3731 2742 3939 
Q 2509 4147 2053 4147 
L 1259 4147 
z
" transform="scale(0.015625)"/>
       <path id="DejaVuSans-69" d="M 603 3500 
L 1178 3500 
L 1178 0 
L 603 0 
L 603 3500 
z
M 603 4863 
L 1178 4863 
L 1178 4134 
L 603 4134 
L 603 4863 
z
" transform="scale(0.015625)"/>
       <path id="DejaVuSans-67" d="M 2906 1791 
Q 2906 2416 2648 2759 
Q 2391 3103 1925 3103 
Q 1463 3103 1205 2759 
Q 947 2416 947 1791 
Q 947 1169 1205 825 
Q 1463 481 1925 481 
Q 2391 481 2648 825 
Q 2906 1169 2906 1791 
z
M 3481 434 
Q 3481 -459 3084 -895 
Q 2688 -1331 1869 -1331 
Q 1566 -1331 1297 -1286 
Q 1028 -1241 775 -1147 
L 775 -588 
Q 1028 -725 1275 -790 
Q 1522 -856 1778 -856 
Q 2344 -856 2625 -561 
Q 2906 -266 2906 331 
L 2906 616 
Q 2728 306 2450 153 
Q 2172 0 1784 0 
Q 1141 0 747 490 
Q 353 981 353 1791 
Q 353 2603 747 3093 
Q 1141 3584 1784 3584 
Q 2172 3584 2450 3431 
Q 2728 3278 2906 2969 
L 2906 3500 
L 3481 3500 
L 3481 434 
z
" transform="scale(0.015625)"/>
       <path id="DejaVuSans-68" d="M 3513 2113 
L 3513 0 
L 2938 0 
L 2938 2094 
Q 2938 2591 2744 2837 
Q 2550 3084 2163 3084 
Q 1697 3084 1428 2787 
Q 1159 2491 1159 1978 
L 1159 0 
L 581 0 
L 581 4863 
L 1159 4863 
L 1159 2956 
Q 1366 3272 1645 3428 
Q 1925 3584 2291 3584 
Q 2894 3584 3203 3211 
Q 3513 2838 3513 2113 
z
" transform="scale(0.015625)"/>
       <path id="DejaVuSans-74" d="M 1172 4494 
L 1172 3500 
L 2356 3500 
L 2356 3053 
L 1172 3053 
L 1172 1153 
Q 1172 725 1289 603 
Q 1406 481 1766 481 
L 2356 481 
L 2356 0 
L 1766 0 
Q 1100 0 847 248 
Q 594 497 594 1153 
L 594 3053 
L 172 3053 
L 172 3500 
L 594 3500 
L 594 4494 
L 1172 4494 
z
" transform="scale(0.015625)"/>
       <path id="DejaVuSans-7c" d="M 1344 4891 
L 1344 -1509 
L 813 -1509 
L 813 4891 
L 1344 4891 
z
" transform="scale(0.015625)"/>
       <path id="DejaVuSans-65" d="M 3597 1894 
L 3597 1613 
L 953 1613 
Q 991 1019 1311 708 
Q 1631 397 2203 397 
Q 2534 397 2845 478 
Q 3156 559 3463 722 
L 3463 178 
Q 3153 47 2828 -22 
Q 2503 -91 2169 -91 
Q 1331 -91 842 396 
Q 353 884 353 1716 
Q 353 2575 817 3079 
Q 1281 3584 2069 3584 
Q 2775 3584 3186 3129 
Q 3597 2675 3597 1894 
z
M 3022 2063 
Q 3016 2534 2758 2815 
Q 2500 3097 2075 3097 
Q 1594 3097 1305 2825 
Q 1016 2553 972 2059 
L 3022 2063 
z
" transform="scale(0.015625)"/>
       <path id="DejaVuSans-64" d="M 2906 2969 
L 2906 4863 
L 3481 4863 
L 3481 0 
L 2906 0 
L 2906 525 
Q 2725 213 2448 61 
Q 2172 -91 1784 -91 
Q 1150 -91 751 415 
Q 353 922 353 1747 
Q 353 2572 751 3078 
Q 1150 3584 1784 3584 
Q 2172 3584 2448 3432 
Q 2725 3281 2906 2969 
z
M 947 1747 
Q 947 1113 1208 752 
Q 1469 391 1925 391 
Q 2381 391 2643 752 
Q 2906 1113 2906 1747 
Q 2906 2381 2643 2742 
Q 2381 3103 1925 3103 
Q 1469 3103 1208 2742 
Q 947 2381 947 1747 
z
" transform="scale(0.015625)"/>
       <path id="DejaVuSans-29" d="M 513 4856 
L 1013 4856 
Q 1481 4119 1714 3412 
Q 1947 2706 1947 2009 
Q 1947 1309 1714 600 
Q 1481 -109 1013 -844 
L 513 -844 
Q 928 -128 1133 580 
Q 1338 1288 1338 2009 
Q 1338 2731 1133 3434 
Q 928 4138 513 4856 
z
" transform="scale(0.015625)"/>
       <path id="DejaVuSans-3d" d="M 678 2906 
L 4684 2906 
L 4684 2381 
L 678 2381 
L 678 2906 
z
M 678 1631 
L 4684 1631 
L 4684 1100 
L 678 1100 
L 678 1631 
z
" transform="scale(0.015625)"/>
       <path id="DejaVuSans-4c" d="M 628 4666 
L 1259 4666 
L 1259 531 
L 3531 531 
L 3531 0 
L 628 0 
L 628 4666 
z
" transform="scale(0.015625)"/>
       <path id="DejaVuSans-66" d="M 2375 4863 
L 2375 4384 
L 1825 4384 
Q 1516 4384 1395 4259 
Q 1275 4134 1275 3809 
L 1275 3500 
L 2222 3500 
L 2222 3053 
L 1275 3053 
L 1275 0 
L 697 0 
L 697 3053 
L 147 3053 
L 147 3500 
L 697 3500 
L 697 3744 
Q 697 4328 969 4595 
Q 1241 4863 1831 4863 
L 2375 4863 
z
" transform="scale(0.015625)"/>
       <path id="DejaVuSans-47" d="M 3809 666 
L 3809 1919 
L 2778 1919 
L 2778 2438 
L 4434 2438 
L 4434 434 
Q 4069 175 3628 42 
Q 3188 -91 2688 -91 
Q 1594 -91 976 548 
Q 359 1188 359 2328 
Q 359 3472 976 4111 
Q 1594 4750 2688 4750 
Q 3144 4750 3555 4637 
Q 3966 4525 4313 4306 
L 4313 3634 
Q 3963 3931 3569 4081 
Q 3175 4231 2741 4231 
Q 1884 4231 1454 3753 
Q 1025 3275 1025 2328 
Q 1025 1384 1454 906 
Q 1884 428 2741 428 
Q 3075 428 3337 486 
Q 3600 544 3809 666 
z
" transform="scale(0.015625)"/>
       <path id="DejaVuSans-72" d="M 2631 2963 
Q 2534 3019 2420 3045 
Q 2306 3072 2169 3072 
Q 1681 3072 1420 2755 
Q 1159 2438 1159 1844 
L 1159 0 
L 581 0 
L 581 3500 
L 1159 3500 
L 1159 2956 
Q 1341 3275 1631 3429 
Q 1922 3584 2338 3584 
Q 2397 3584 2469 3576 
Q 2541 3569 2628 3553 
L 2631 2963 
z
" transform="scale(0.015625)"/>
       <path id="DejaVuSans-6e" d="M 3513 2113 
L 3513 0 
L 2938 0 
L 2938 2094 
Q 2938 2591 2744 2837 
Q 2550 3084 2163 3084 
Q 1697 3084 1428 2787 
Q 1159 2491 1159 1978 
L 1159 0 
L 581 0 
L 581 3500 
L 1159 3500 
L 1159 2956 
Q 1366 3272 1645 3428 
Q 1925 3584 2291 3584 
Q 2894 3584 3203 3211 
Q 3513 2838 3513 2113 
z
" transform="scale(0.015625)"/>
      </defs>
      <use xlink:href="#DejaVuSans-50"/>
      <use xlink:href="#DejaVuSans-28" x="60.302734"/>
      <use xlink:href="#DejaVuSans-52" x="99.316406"/>
      <use xlink:href="#DejaVuSans-69" x="168.798828"/>
      <use xlink:href="#DejaVuSans-67" x="196.582031"/>
      <use xlink:href="#DejaVuSans-68" x="260.058594"/>
      <use xlink:href="#DejaVuSans-74" x="323.4375"/>
      <use xlink:href="#DejaVuSans-7c" x="362.646484"/>
      <use xlink:href="#DejaVuSans-52" x="396.337891"/>
      <use xlink:href="#DejaVuSans-65" x="461.320312"/>
      <use xlink:href="#DejaVuSans-64" x="522.84375"/>
      <use xlink:href="#DejaVuSans-29" x="586.320312"/>
      <use xlink:href="#DejaVuSans-3d" x="625.333984"/>
      <use xlink:href="#DejaVuSans-50" x="709.123047"/>
      <use xlink:href="#DejaVuSans-28" x="769.425781"/>
      <use xlink:href="#DejaVuSans-4c" x="808.439453"/>
      <use xlink:href="#DejaVuSans-65" x="862.402344"/>
      <use xlink:href="#DejaVuSans-66" x="923.925781"/>
      <use xlink:href="#DejaVuSans-74" x="957.380859"/>
      <use xlink:href="#DejaVuSans-7c" x="996.589844"/>
      <use xlink:href="#DejaVuSans-47" x="1030.28125"/>
      <use xlink:href="#DejaVuSans-72" x="1107.771484"/>
      <use xlink:href="#DejaVuSans-65" x="1146.634766"/>
      <use xlink:href="#DejaVuSans-65" x="1208.158203"/>
      <use xlink:href="#DejaVuSans-6e" x="1269.681641"/>
      <use xlink:href="#DejaVuSans-29" x="1333.060547"/>
     </g>
    </g>
   </g>
   <g id="matplotlib.axis_2">
    <g id="ytick_1">
     <g id="line2d_4">
      <defs>
       <path id="mc2ced23330" d="M 0 0 
L -3.5 0 
" style="stroke: #000000; stroke-width: 0.8"/>
      </defs>
      <g>
       <use xlink:href="#mc2ced23330" x="129.6" y="505.75104" style="stroke: #000000; stroke-width: 0.8"/>
      </g>
     </g>
     <g id="text_5">
      <!-- −0.6 -->
      <g transform="translate(61.892969 515.249087) scale(0.25 -0.25)">
       <defs>
        <path id="DejaVuSans-2212" d="M 678 2272 
L 4684 2272 
L 4684 1741 
L 678 1741 
L 678 2272 
z
" transform="scale(0.015625)"/>
        <path id="DejaVuSans-36" d="M 2113 2584 
Q 1688 2584 1439 2293 
Q 1191 2003 1191 1497 
Q 1191 994 1439 701 
Q 1688 409 2113 409 
Q 2538 409 2786 701 
Q 3034 994 3034 1497 
Q 3034 2003 2786 2293 
Q 2538 2584 2113 2584 
z
M 3366 4563 
L 3366 3988 
Q 3128 4100 2886 4159 
Q 2644 4219 2406 4219 
Q 1781 4219 1451 3797 
Q 1122 3375 1075 2522 
Q 1259 2794 1537 2939 
Q 1816 3084 2150 3084 
Q 2853 3084 3261 2657 
Q 3669 2231 3669 1497 
Q 3669 778 3244 343 
Q 2819 -91 2113 -91 
Q 1303 -91 875 529 
Q 447 1150 447 2328 
Q 447 3434 972 4092 
Q 1497 4750 2381 4750 
Q 2619 4750 2861 4703 
Q 3103 4656 3366 4563 
z
" transform="scale(0.015625)"/>
       </defs>
       <use xlink:href="#DejaVuSans-2212"/>
       <use xlink:href="#DejaVuSans-30" x="83.789062"/>
       <use xlink:href="#DejaVuSans-2e" x="147.412109"/>
       <use xlink:href="#DejaVuSans-36" x="179.199219"/>
      </g>
     </g>
    </g>
    <g id="ytick_2">
     <g id="line2d_5">
      <g>
       <use xlink:href="#mc2ced23330" x="129.6" y="441.88416" style="stroke: #000000; stroke-width: 0.8"/>
      </g>
     </g>
     <g id="text_6">
      <!-- −0.4 -->
      <g transform="translate(61.892969 451.382207) scale(0.25 -0.25)">
       <defs>
        <path id="DejaVuSans-34" d="M 2419 4116 
L 825 1625 
L 2419 1625 
L 2419 4116 
z
M 2253 4666 
L 3047 4666 
L 3047 1625 
L 3713 1625 
L 3713 1100 
L 3047 1100 
L 3047 0 
L 2419 0 
L 2419 1100 
L 313 1100 
L 313 1709 
L 2253 4666 
z
" transform="scale(0.015625)"/>
       </defs>
       <use xlink:href="#DejaVuSans-2212"/>
       <use xlink:href="#DejaVuSans-30" x="83.789062"/>
       <use xlink:href="#DejaVuSans-2e" x="147.412109"/>
       <use xlink:href="#DejaVuSans-34" x="179.199219"/>
      </g>
     </g>
    </g>
    <g id="ytick_3">
     <g id="line2d_6">
      <g>
       <use xlink:href="#mc2ced23330" x="129.6" y="378.01728" style="stroke: #000000; stroke-width: 0.8"/>
      </g>
     </g>
     <g id="text_7">
      <!-- −0.2 -->
      <g transform="translate(61.892969 387.515327) scale(0.25 -0.25)">
       <use xlink:href="#DejaVuSans-2212"/>
       <use xlink:href="#DejaVuSans-30" x="83.789062"/>
       <use xlink:href="#DejaVuSans-2e" x="147.412109"/>
       <use xlink:href="#DejaVuSans-32" x="179.199219"/>
      </g>
     </g>
    </g>
    <g id="ytick_4">
     <g id="line2d_7">
      <g>
       <use xlink:href="#mc2ced23330" x="129.6" y="314.1504" style="stroke: #000000; stroke-width: 0.8"/>
      </g>
     </g>
     <g id="text_8">
      <!-- 0.0 -->
      <g transform="translate(82.842187 323.648447) scale(0.25 -0.25)">
       <use xlink:href="#DejaVuSans-30"/>
       <use xlink:href="#DejaVuSans-2e" x="63.623047"/>
       <use xlink:href="#DejaVuSans-30" x="95.410156"/>
      </g>
     </g>
    </g>
    <g id="ytick_5">
     <g id="line2d_8">
      <g>
       <use xlink:href="#mc2ced23330" x="129.6" y="250.28352" style="stroke: #000000; stroke-width: 0.8"/>
      </g>
     </g>
     <g id="text_9">
      <!-- 0.2 -->
      <g transform="translate(82.842187 259.781567) scale(0.25 -0.25)">
       <use xlink:href="#DejaVuSans-30"/>
       <use xlink:href="#DejaVuSans-2e" x="63.623047"/>
       <use xlink:href="#DejaVuSans-32" x="95.410156"/>
      </g>
     </g>
    </g>
    <g id="ytick_6">
     <g id="line2d_9">
      <g>
       <use xlink:href="#mc2ced23330" x="129.6" y="186.41664" style="stroke: #000000; stroke-width: 0.8"/>
      </g>
     </g>
     <g id="text_10">
      <!-- 0.4 -->
      <g transform="translate(82.842187 195.914687) scale(0.25 -0.25)">
       <use xlink:href="#DejaVuSans-30"/>
       <use xlink:href="#DejaVuSans-2e" x="63.623047"/>
       <use xlink:href="#DejaVuSans-34" x="95.410156"/>
      </g>
     </g>
    </g>
    <g id="ytick_7">
     <g id="line2d_10">
      <g>
       <use xlink:href="#mc2ced23330" x="129.6" y="122.54976" style="stroke: #000000; stroke-width: 0.8"/>
      </g>
     </g>
     <g id="text_11">
      <!-- 0.6 -->
      <g transform="translate(82.842187 132.047807) scale(0.25 -0.25)">
       <use xlink:href="#DejaVuSans-30"/>
       <use xlink:href="#DejaVuSans-2e" x="63.623047"/>
       <use xlink:href="#DejaVuSans-36" x="95.410156"/>
      </g>
     </g>
    </g>
    <g id="text_12">
     <!-- ASEM (deg/s) -->
     <g transform="translate(51.653906 413.968369) rotate(-90) scale(0.3 -0.3)">
      <defs>
       <path id="DejaVuSans-41" d="M 2188 4044 
L 1331 1722 
L 3047 1722 
L 2188 4044 
z
M 1831 4666 
L 2547 4666 
L 4325 0 
L 3669 0 
L 3244 1197 
L 1141 1197 
L 716 0 
L 50 0 
L 1831 4666 
z
" transform="scale(0.015625)"/>
       <path id="DejaVuSans-53" d="M 3425 4513 
L 3425 3897 
Q 3066 4069 2747 4153 
Q 2428 4238 2131 4238 
Q 1616 4238 1336 4038 
Q 1056 3838 1056 3469 
Q 1056 3159 1242 3001 
Q 1428 2844 1947 2747 
L 2328 2669 
Q 3034 2534 3370 2195 
Q 3706 1856 3706 1288 
Q 3706 609 3251 259 
Q 2797 -91 1919 -91 
Q 1588 -91 1214 -16 
Q 841 59 441 206 
L 441 856 
Q 825 641 1194 531 
Q 1563 422 1919 422 
Q 2459 422 2753 634 
Q 3047 847 3047 1241 
Q 3047 1584 2836 1778 
Q 2625 1972 2144 2069 
L 1759 2144 
Q 1053 2284 737 2584 
Q 422 2884 422 3419 
Q 422 4038 858 4394 
Q 1294 4750 2059 4750 
Q 2388 4750 2728 4690 
Q 3069 4631 3425 4513 
z
" transform="scale(0.015625)"/>
       <path id="DejaVuSans-45" d="M 628 4666 
L 3578 4666 
L 3578 4134 
L 1259 4134 
L 1259 2753 
L 3481 2753 
L 3481 2222 
L 1259 2222 
L 1259 531 
L 3634 531 
L 3634 0 
L 628 0 
L 628 4666 
z
" transform="scale(0.015625)"/>
       <path id="DejaVuSans-4d" d="M 628 4666 
L 1569 4666 
L 2759 1491 
L 3956 4666 
L 4897 4666 
L 4897 0 
L 4281 0 
L 4281 4097 
L 3078 897 
L 2444 897 
L 1241 4097 
L 1241 0 
L 628 0 
L 628 4666 
z
" transform="scale(0.015625)"/>
       <path id="DejaVuSans-20" transform="scale(0.015625)"/>
       <path id="DejaVuSans-2f" d="M 1625 4666 
L 2156 4666 
L 531 -594 
L 0 -594 
L 1625 4666 
z
" transform="scale(0.015625)"/>
       <path id="DejaVuSans-73" d="M 2834 3397 
L 2834 2853 
Q 2591 2978 2328 3040 
Q 2066 3103 1784 3103 
Q 1356 3103 1142 2972 
Q 928 2841 928 2578 
Q 928 2378 1081 2264 
Q 1234 2150 1697 2047 
L 1894 2003 
Q 2506 1872 2764 1633 
Q 3022 1394 3022 966 
Q 3022 478 2636 193 
Q 2250 -91 1575 -91 
Q 1294 -91 989 -36 
Q 684 19 347 128 
L 347 722 
Q 666 556 975 473 
Q 1284 391 1588 391 
Q 1994 391 2212 530 
Q 2431 669 2431 922 
Q 2431 1156 2273 1281 
Q 2116 1406 1581 1522 
L 1381 1569 
Q 847 1681 609 1914 
Q 372 2147 372 2553 
Q 372 3047 722 3315 
Q 1072 3584 1716 3584 
Q 2034 3584 2315 3537 
Q 2597 3491 2834 3397 
z
" transform="scale(0.015625)"/>
      </defs>
      <use xlink:href="#DejaVuSans-41"/>
      <use xlink:href="#DejaVuSans-53" x="68.408203"/>
      <use xlink:href="#DejaVuSans-45" x="131.884766"/>
      <use xlink:href="#DejaVuSans-4d" x="195.068359"/>
      <use xlink:href="#DejaVuSans-20" x="281.347656"/>
      <use xlink:href="#DejaVuSans-28" x="313.134766"/>
      <use xlink:href="#DejaVuSans-64" x="352.148438"/>
      <use xlink:href="#DejaVuSans-65" x="415.625"/>
      <use xlink:href="#DejaVuSans-67" x="477.148438"/>
      <use xlink:href="#DejaVuSans-2f" x="540.625"/>
      <use xlink:href="#DejaVuSans-73" x="574.316406"/>
      <use xlink:href="#DejaVuSans-29" x="626.416016"/>
     </g>
    </g>
   </g>
   <g id="line2d_11">
    <path d="M 209.952 250.628376 
L 209.952 216.38949 
" clip-path="url(#pa34c40d2ef)" style="fill: none; stroke: #424242; stroke-width: 2.25; stroke-linecap: square"/>
   </g>
   <g id="line2d_12">
    <path d="M 477.792 333.111355 
L 477.792 294.882183 
" clip-path="url(#pa34c40d2ef)" style="fill: none; stroke: #424242; stroke-width: 2.25; stroke-linecap: square"/>
   </g>
   <g id="line2d_13">
    <path d="M 745.632 445.393341 
L 745.632 404.582806 
" clip-path="url(#pa34c40d2ef)" style="fill: none; stroke: #424242; stroke-width: 2.25; stroke-linecap: square"/>
   </g>
   <g id="line2d_14">
    <path d="M 317.088 370.377348 
L 317.088 331.238788 
" clip-path="url(#pa34c40d2ef)" style="fill: none; stroke: #424242; stroke-width: 2.25; stroke-linecap: square"/>
   </g>
   <g id="line2d_15">
    <path d="M 584.928 337.195563 
L 584.928 302.936168 
" clip-path="url(#pa34c40d2ef)" style="fill: none; stroke: #424242; stroke-width: 2.25; stroke-linecap: square"/>
   </g>
   <g id="line2d_16">
    <path d="M 852.768 292.829159 
L 852.768 258.464432 
" clip-path="url(#pa34c40d2ef)" style="fill: none; stroke: #424242; stroke-width: 2.25; stroke-linecap: square"/>
   </g>
   <g id="patch_11">
    <path d="M 129.6 553.6512 
L 129.6 74.6496 
" style="fill: none; stroke: #000000; stroke-width: 0.8; stroke-linejoin: miter; stroke-linecap: square"/>
   </g>
   <g id="patch_12">
    <path d="M 933.12 553.6512 
L 933.12 74.6496 
" style="fill: none; stroke: #000000; stroke-width: 0.8; stroke-linejoin: miter; stroke-linecap: square"/>
   </g>
   <g id="patch_13">
    <path d="M 129.6 553.6512 
L 933.12 553.6512 
" style="fill: none; stroke: #000000; stroke-width: 0.8; stroke-linejoin: miter; stroke-linecap: square"/>
   </g>
   <g id="patch_14">
    <path d="M 129.6 74.6496 
L 933.12 74.6496 
" style="fill: none; stroke: #000000; stroke-width: 0.8; stroke-linejoin: miter; stroke-linecap: square"/>
   </g>
   <g id="PathCollection_1">
    <defs>
     <path id="C0_0_d8a5215ee8" d="M 0 4 
C 1.060812 4 2.078319 3.578535 2.828427 2.828427 
C 3.578535 2.078319 4 1.060812 4 -0 
C 4 -1.060812 3.578535 -2.078319 2.828427 -2.828427 
C 2.078319 -3.578535 1.060812 -4 0 -4 
C -1.060812 -4 -2.078319 -3.578535 -2.828427 -2.828427 
C -3.578535 -2.078319 -4 -1.060812 -4 0 
C -4 1.060812 -3.578535 2.078319 -2.828427 2.828427 
C -2.078319 3.578535 -1.060812 4 0 4 
z
"/>
    </defs>
    <g clip-path="url(#pa34c40d2ef)">
     <use xlink:href="#C0_0_d8a5215ee8" x="202.830824" y="259.055075" style="fill: #008000; fill-opacity: 0.5"/>
    </g>
    <g clip-path="url(#pa34c40d2ef)">
     <use xlink:href="#C0_0_d8a5215ee8" x="199.496066" y="271.24267" style="fill: #008000; fill-opacity: 0.5"/>
    </g>
    <g clip-path="url(#pa34c40d2ef)">
     <use xlink:href="#C0_0_d8a5215ee8" x="203.727948" y="94.631646" style="fill: #008000; fill-opacity: 0.5"/>
    </g>
    <g clip-path="url(#pa34c40d2ef)">
     <use xlink:href="#C0_0_d8a5215ee8" x="200.746982" y="339.389342" style="fill: #008000; fill-opacity: 0.5"/>
    </g>
    <g clip-path="url(#pa34c40d2ef)">
     <use xlink:href="#C0_0_d8a5215ee8" x="202.303875" y="28.319357" style="fill: #008000; fill-opacity: 0.5"/>
    </g>
    <g clip-path="url(#pa34c40d2ef)">
     <use xlink:href="#C0_0_d8a5215ee8" x="206.504706" y="389.492879" style="fill: #008000; fill-opacity: 0.5"/>
    </g>
    <g clip-path="url(#pa34c40d2ef)">
     <use xlink:href="#C0_0_d8a5215ee8" x="210.288858" y="275.570899" style="fill: #008000; fill-opacity: 0.5"/>
    </g>
    <g clip-path="url(#pa34c40d2ef)">
     <use xlink:href="#C0_0_d8a5215ee8" x="202.550201" y="-18.419357" style="fill: #008000; fill-opacity: 0.5"/>
    </g>
    <g clip-path="url(#pa34c40d2ef)">
     <use xlink:href="#C0_0_d8a5215ee8" x="219.807154" y="218.469651" style="fill: #008000; fill-opacity: 0.5"/>
    </g>
    <g clip-path="url(#pa34c40d2ef)">
     <use xlink:href="#C0_0_d8a5215ee8" x="218.330656" y="260.977863" style="fill: #008000; fill-opacity: 0.5"/>
    </g>
    <g clip-path="url(#pa34c40d2ef)">
     <use xlink:href="#C0_0_d8a5215ee8" x="218.057573" y="107.716647" style="fill: #008000; fill-opacity: 0.5"/>
    </g>
    <g clip-path="url(#pa34c40d2ef)">
     <use xlink:href="#C0_0_d8a5215ee8" x="203.779457" y="255.309076" style="fill: #008000; fill-opacity: 0.5"/>
    </g>
    <g clip-path="url(#pa34c40d2ef)">
     <use xlink:href="#C0_0_d8a5215ee8" x="206.442996" y="257.47346" style="fill: #008000; fill-opacity: 0.5"/>
    </g>
    <g clip-path="url(#pa34c40d2ef)">
     <use xlink:href="#C0_0_d8a5215ee8" x="220.811882" y="510.358747" style="fill: #008000; fill-opacity: 0.5"/>
    </g>
    <g clip-path="url(#pa34c40d2ef)">
     <use xlink:href="#C0_0_d8a5215ee8" x="217.649076" y="278.941407" style="fill: #008000; fill-opacity: 0.5"/>
    </g>
   </g>
   <g id="PathCollection_2">
    <defs>
     <path id="C1_0_a786c5093e" d="M 0 4 
C 1.060812 4 2.078319 3.578535 2.828427 2.828427 
C 3.578535 2.078319 4 1.060812 4 -0 
C 4 -1.060812 3.578535 -2.078319 2.828427 -2.828427 
C 2.078319 -3.578535 1.060812 -4 0 -4 
C -1.060812 -4 -2.078319 -3.578535 -2.828427 -2.828427 
C -3.578535 -2.078319 -4 -1.060812 -4 0 
C -4 1.060812 -3.578535 2.078319 -2.828427 2.828427 
C -2.078319 3.578535 -1.060812 4 0 4 
z
"/>
    </defs>
    <g clip-path="url(#pa34c40d2ef)">
     <use xlink:href="#C1_0_a786c5093e" x="303.702754" y="326.993596" style="fill: #ff0000; fill-opacity: 0.5"/>
    </g>
    <g clip-path="url(#pa34c40d2ef)">
     <use xlink:href="#C1_0_a786c5093e" x="330.431324" y="688.21026" style="fill: #ff0000; fill-opacity: 0.5"/>
    </g>
    <g clip-path="url(#pa34c40d2ef)">
     <use xlink:href="#C1_0_a786c5093e" x="329.774394" y="206.709002" style="fill: #ff0000; fill-opacity: 0.5"/>
    </g>
    <g clip-path="url(#pa34c40d2ef)">
     <use xlink:href="#C1_0_a786c5093e" x="326.029869" y="378.824775" style="fill: #ff0000; fill-opacity: 0.5"/>
    </g>
    <g clip-path="url(#pa34c40d2ef)">
     <use xlink:href="#C1_0_a786c5093e" x="310.555531" y="197.420032" style="fill: #ff0000; fill-opacity: 0.5"/>
    </g>
    <g clip-path="url(#pa34c40d2ef)">
     <use xlink:href="#C1_0_a786c5093e" x="318.35025" y="439.440422" style="fill: #ff0000; fill-opacity: 0.5"/>
    </g>
    <g clip-path="url(#pa34c40d2ef)">
     <use xlink:href="#C1_0_a786c5093e" x="330.463462" y="350.048239" style="fill: #ff0000; fill-opacity: 0.5"/>
    </g>
    <g clip-path="url(#pa34c40d2ef)">
     <use xlink:href="#C1_0_a786c5093e" x="318.309854" y="388.04351" style="fill: #ff0000; fill-opacity: 0.5"/>
    </g>
    <g clip-path="url(#pa34c40d2ef)">
     <use xlink:href="#C1_0_a786c5093e" x="308.094141" y="269.769216" style="fill: #ff0000; fill-opacity: 0.5"/>
    </g>
    <g clip-path="url(#pa34c40d2ef)">
     <use xlink:href="#C1_0_a786c5093e" x="311.791771" y="453.427219" style="fill: #ff0000; fill-opacity: 0.5"/>
    </g>
    <g clip-path="url(#pa34c40d2ef)">
     <use xlink:href="#C1_0_a786c5093e" x="308.25699" y="181.60145" style="fill: #ff0000; fill-opacity: 0.5"/>
    </g>
    <g clip-path="url(#pa34c40d2ef)">
     <use xlink:href="#C1_0_a786c5093e" x="307.018851" y="268.998167" style="fill: #ff0000; fill-opacity: 0.5"/>
    </g>
    <g clip-path="url(#pa34c40d2ef)">
     <use xlink:href="#C1_0_a786c5093e" x="326.494715" y="367.976872" style="fill: #ff0000; fill-opacity: 0.5"/>
    </g>
    <g clip-path="url(#pa34c40d2ef)">
     <use xlink:href="#C1_0_a786c5093e" x="323.735338" y="439.227148" style="fill: #ff0000; fill-opacity: 0.5"/>
    </g>
    <g clip-path="url(#pa34c40d2ef)">
     <use xlink:href="#C1_0_a786c5093e" x="322.831498" y="323.725395" style="fill: #ff0000; fill-opacity: 0.5"/>
    </g>
   </g>
   <g id="PathCollection_3">
    <defs>
     <path id="C2_0_b2639a02c4" d="M 0 4 
C 1.060812 4 2.078319 3.578535 2.828427 2.828427 
C 3.578535 2.078319 4 1.060812 4 -0 
C 4 -1.060812 3.578535 -2.078319 2.828427 -2.828427 
C 2.078319 -3.578535 1.060812 -4 0 -4 
C -1.060812 -4 -2.078319 -3.578535 -2.828427 -2.828427 
C -3.578535 -2.078319 -4 -1.060812 -4 0 
C -4 1.060812 -3.578535 2.078319 -2.828427 2.828427 
C -2.078319 3.578535 -1.060812 4 0 4 
z
"/>
    </defs>
    <g clip-path="url(#pa34c40d2ef)">
     <use xlink:href="#C2_0_b2639a02c4" x="480.155325" y="316.894591" style="fill: #008000; fill-opacity: 0.5"/>
    </g>
    <g clip-path="url(#pa34c40d2ef)">
     <use xlink:href="#C2_0_b2639a02c4" x="466.710003" y="398.212287" style="fill: #008000; fill-opacity: 0.5"/>
    </g>
    <g clip-path="url(#pa34c40d2ef)">
     <use xlink:href="#C2_0_b2639a02c4" x="485.991453" y="200.361188" style="fill: #008000; fill-opacity: 0.5"/>
    </g>
    <g clip-path="url(#pa34c40d2ef)">
     <use xlink:href="#C2_0_b2639a02c4" x="489.830499" y="357.983593" style="fill: #008000; fill-opacity: 0.5"/>
    </g>
    <g clip-path="url(#pa34c40d2ef)">
     <use xlink:href="#C2_0_b2639a02c4" x="489.571183" y="204.430741" style="fill: #008000; fill-opacity: 0.5"/>
    </g>
    <g clip-path="url(#pa34c40d2ef)">
     <use xlink:href="#C2_0_b2639a02c4" x="489.517856" y="516.035151" style="fill: #008000; fill-opacity: 0.5"/>
    </g>
    <g clip-path="url(#pa34c40d2ef)">
     <use xlink:href="#C2_0_b2639a02c4" x="491.001787" y="328.965965" style="fill: #008000; fill-opacity: 0.5"/>
    </g>
    <g clip-path="url(#pa34c40d2ef)">
     <use xlink:href="#C2_0_b2639a02c4" x="489.353991" y="269.730491" style="fill: #008000; fill-opacity: 0.5"/>
    </g>
    <g clip-path="url(#pa34c40d2ef)">
     <use xlink:href="#C2_0_b2639a02c4" x="485.925177" y="273.597139" style="fill: #008000; fill-opacity: 0.5"/>
    </g>
    <g clip-path="url(#pa34c40d2ef)">
     <use xlink:href="#C2_0_b2639a02c4" x="484.326376" y="339.131017" style="fill: #008000; fill-opacity: 0.5"/>
    </g>
    <g clip-path="url(#pa34c40d2ef)">
     <use xlink:href="#C2_0_b2639a02c4" x="480.781215" y="171.69948" style="fill: #008000; fill-opacity: 0.5"/>
    </g>
    <g clip-path="url(#pa34c40d2ef)">
     <use xlink:href="#C2_0_b2639a02c4" x="485.699223" y="253.035915" style="fill: #008000; fill-opacity: 0.5"/>
    </g>
    <g clip-path="url(#pa34c40d2ef)">
     <use xlink:href="#C2_0_b2639a02c4" x="473.311724" y="369.530029" style="fill: #008000; fill-opacity: 0.5"/>
    </g>
    <g clip-path="url(#pa34c40d2ef)">
     <use xlink:href="#C2_0_b2639a02c4" x="471.685584" y="463.369909" style="fill: #008000; fill-opacity: 0.5"/>
    </g>
    <g clip-path="url(#pa34c40d2ef)">
     <use xlink:href="#C2_0_b2639a02c4" x="465.041259" y="252.463672" style="fill: #008000; fill-opacity: 0.5"/>
    </g>
   </g>
   <g id="PathCollection_4">
    <defs>
     <path id="C3_0_0e8ef1251d" d="M 0 4 
C 1.060812 4 2.078319 3.578535 2.828427 2.828427 
C 3.578535 2.078319 4 1.060812 4 -0 
C 4 -1.060812 3.578535 -2.078319 2.828427 -2.828427 
C 2.078319 -3.578535 1.060812 -4 0 -4 
C -1.060812 -4 -2.078319 -3.578535 -2.828427 -2.828427 
C -3.578535 -2.078319 -4 -1.060812 -4 0 
C -4 1.060812 -3.578535 2.078319 -2.828427 2.828427 
C -2.078319 3.578535 -1.060812 4 0 4 
z
"/>
    </defs>
    <g clip-path="url(#pa34c40d2ef)">
     <use xlink:href="#C3_0_0e8ef1251d" x="595.286818" y="282.972437" style="fill: #ff0000; fill-opacity: 0.5"/>
    </g>
    <g clip-path="url(#pa34c40d2ef)">
     <use xlink:href="#C3_0_0e8ef1251d" x="572.939629" y="567.219546" style="fill: #ff0000; fill-opacity: 0.5"/>
    </g>
    <g clip-path="url(#pa34c40d2ef)">
     <use xlink:href="#C3_0_0e8ef1251d" x="594.539097" y="233.474368" style="fill: #ff0000; fill-opacity: 0.5"/>
    </g>
    <g clip-path="url(#pa34c40d2ef)">
     <use xlink:href="#C3_0_0e8ef1251d" x="597.454626" y="374.818099" style="fill: #ff0000; fill-opacity: 0.5"/>
    </g>
    <g clip-path="url(#pa34c40d2ef)">
     <use xlink:href="#C3_0_0e8ef1251d" x="594.097616" y="158.459231" style="fill: #ff0000; fill-opacity: 0.5"/>
    </g>
    <g clip-path="url(#pa34c40d2ef)">
     <use xlink:href="#C3_0_0e8ef1251d" x="578.599843" y="444.368632" style="fill: #ff0000; fill-opacity: 0.5"/>
    </g>
    <g clip-path="url(#pa34c40d2ef)">
     <use xlink:href="#C3_0_0e8ef1251d" x="592.592382" y="302.745767" style="fill: #ff0000; fill-opacity: 0.5"/>
    </g>
    <g clip-path="url(#pa34c40d2ef)">
     <use xlink:href="#C3_0_0e8ef1251d" x="586.374773" y="280.370801" style="fill: #ff0000; fill-opacity: 0.5"/>
    </g>
    <g clip-path="url(#pa34c40d2ef)">
     <use xlink:href="#C3_0_0e8ef1251d" x="572.046033" y="272.365483" style="fill: #ff0000; fill-opacity: 0.5"/>
    </g>
    <g clip-path="url(#pa34c40d2ef)">
     <use xlink:href="#C3_0_0e8ef1251d" x="573.316285" y="284.850988" style="fill: #ff0000; fill-opacity: 0.5"/>
    </g>
    <g clip-path="url(#pa34c40d2ef)">
     <use xlink:href="#C3_0_0e8ef1251d" x="591.579843" y="161.815019" style="fill: #ff0000; fill-opacity: 0.5"/>
    </g>
    <g clip-path="url(#pa34c40d2ef)">
     <use xlink:href="#C3_0_0e8ef1251d" x="584.724621" y="295.033507" style="fill: #ff0000; fill-opacity: 0.5"/>
    </g>
    <g clip-path="url(#pa34c40d2ef)">
     <use xlink:href="#C3_0_0e8ef1251d" x="598.234327" y="364.836484" style="fill: #ff0000; fill-opacity: 0.5"/>
    </g>
    <g clip-path="url(#pa34c40d2ef)">
     <use xlink:href="#C3_0_0e8ef1251d" x="593.844674" y="443.114844" style="fill: #ff0000; fill-opacity: 0.5"/>
    </g>
    <g clip-path="url(#pa34c40d2ef)">
     <use xlink:href="#C3_0_0e8ef1251d" x="595.53417" y="277.953879" style="fill: #ff0000; fill-opacity: 0.5"/>
    </g>
   </g>
   <g id="PathCollection_5">
    <defs>
     <path id="C4_0_2ccfaa05c6" d="M 0 4 
C 1.060812 4 2.078319 3.578535 2.828427 2.828427 
C 3.578535 2.078319 4 1.060812 4 -0 
C 4 -1.060812 3.578535 -2.078319 2.828427 -2.828427 
C 2.078319 -3.578535 1.060812 -4 0 -4 
C -1.060812 -4 -2.078319 -3.578535 -2.828427 -2.828427 
C -3.578535 -2.078319 -4 -1.060812 -4 0 
C -4 1.060812 -3.578535 2.078319 -2.828427 2.828427 
C -2.078319 3.578535 -1.060812 4 0 4 
z
"/>
    </defs>
    <g clip-path="url(#pa34c40d2ef)">
     <use xlink:href="#C4_0_2ccfaa05c6" x="750.5716" y="507.63624" style="fill: #008000; fill-opacity: 0.5"/>
    </g>
    <g clip-path="url(#pa34c40d2ef)">
     <use xlink:href="#C4_0_2ccfaa05c6" x="741.773558" y="825.327786" style="fill: #008000; fill-opacity: 0.5"/>
    </g>
    <g clip-path="url(#pa34c40d2ef)">
     <use xlink:href="#C4_0_2ccfaa05c6" x="753.973039" y="244.204029" style="fill: #008000; fill-opacity: 0.5"/>
    </g>
    <g clip-path="url(#pa34c40d2ef)">
     <use xlink:href="#C4_0_2ccfaa05c6" x="756.115934" y="558.899723" style="fill: #008000; fill-opacity: 0.5"/>
    </g>
    <g clip-path="url(#pa34c40d2ef)">
     <use xlink:href="#C4_0_2ccfaa05c6" x="732.567177" y="289.943064" style="fill: #008000; fill-opacity: 0.5"/>
    </g>
    <g clip-path="url(#pa34c40d2ef)">
     <use xlink:href="#C4_0_2ccfaa05c6" x="739.080832" y="508.109791" style="fill: #008000; fill-opacity: 0.5"/>
    </g>
    <g clip-path="url(#pa34c40d2ef)">
     <use xlink:href="#C4_0_2ccfaa05c6" x="754.619641" y="323.157995" style="fill: #008000; fill-opacity: 0.5"/>
    </g>
    <g clip-path="url(#pa34c40d2ef)">
     <use xlink:href="#C4_0_2ccfaa05c6" x="744.346812" y="382.630721" style="fill: #008000; fill-opacity: 0.5"/>
    </g>
    <g clip-path="url(#pa34c40d2ef)">
     <use xlink:href="#C4_0_2ccfaa05c6" x="758.526718" y="363.614859" style="fill: #008000; fill-opacity: 0.5"/>
    </g>
    <g clip-path="url(#pa34c40d2ef)">
     <use xlink:href="#C4_0_2ccfaa05c6" x="739.932052" y="274.615331" style="fill: #008000; fill-opacity: 0.5"/>
    </g>
    <g clip-path="url(#pa34c40d2ef)">
     <use xlink:href="#C4_0_2ccfaa05c6" x="743.780209" y="106.726308" style="fill: #008000; fill-opacity: 0.5"/>
    </g>
    <g clip-path="url(#pa34c40d2ef)">
     <use xlink:href="#C4_0_2ccfaa05c6" x="749.367485" y="293.602116" style="fill: #008000; fill-opacity: 0.5"/>
    </g>
    <g clip-path="url(#pa34c40d2ef)">
     <use xlink:href="#C4_0_2ccfaa05c6" x="737.969518" y="402.537876" style="fill: #008000; fill-opacity: 0.5"/>
    </g>
    <g clip-path="url(#pa34c40d2ef)">
     <use xlink:href="#C4_0_2ccfaa05c6" x="740.919639" y="812.833379" style="fill: #008000; fill-opacity: 0.5"/>
    </g>
    <g clip-path="url(#pa34c40d2ef)">
     <use xlink:href="#C4_0_2ccfaa05c6" x="757.007575" y="310.212774" style="fill: #008000; fill-opacity: 0.5"/>
    </g>
   </g>
   <g id="PathCollection_6">
    <defs>
     <path id="C5_0_a2163b70a3" d="M 0 4 
C 1.060812 4 2.078319 3.578535 2.828427 2.828427 
C 3.578535 2.078319 4 1.060812 4 -0 
C 4 -1.060812 3.578535 -2.078319 2.828427 -2.828427 
C 2.078319 -3.578535 1.060812 -4 0 -4 
C -1.060812 -4 -2.078319 -3.578535 -2.828427 -2.828427 
C -3.578535 -2.078319 -4 -1.060812 -4 0 
C -4 1.060812 -3.578535 2.078319 -2.828427 2.828427 
C -2.078319 3.578535 -1.060812 4 0 4 
z
"/>
    </defs>
    <g clip-path="url(#pa34c40d2ef)">
     <use xlink:href="#C5_0_a2163b70a3" x="844.134231" y="242.576904" style="fill: #ff0000; fill-opacity: 0.5"/>
    </g>
    <g clip-path="url(#pa34c40d2ef)">
     <use xlink:href="#C5_0_a2163b70a3" x="848.762565" y="195.864236" style="fill: #ff0000; fill-opacity: 0.5"/>
    </g>
    <g clip-path="url(#pa34c40d2ef)">
     <use xlink:href="#C5_0_a2163b70a3" x="855.196624" y="130.230341" style="fill: #ff0000; fill-opacity: 0.5"/>
    </g>
    <g clip-path="url(#pa34c40d2ef)">
     <use xlink:href="#C5_0_a2163b70a3" x="840.469586" y="488.221026" style="fill: #ff0000; fill-opacity: 0.5"/>
    </g>
    <g clip-path="url(#pa34c40d2ef)">
     <use xlink:href="#C5_0_a2163b70a3" x="861.704473" y="67.444569" style="fill: #ff0000; fill-opacity: 0.5"/>
    </g>
    <g clip-path="url(#pa34c40d2ef)">
     <use xlink:href="#C5_0_a2163b70a3" x="856.174209" y="418.99178" style="fill: #ff0000; fill-opacity: 0.5"/>
    </g>
    <g clip-path="url(#pa34c40d2ef)">
     <use xlink:href="#C5_0_a2163b70a3" x="859.62801" y="288.573541" style="fill: #ff0000; fill-opacity: 0.5"/>
    </g>
    <g clip-path="url(#pa34c40d2ef)">
     <use xlink:href="#C5_0_a2163b70a3" x="861.419255" y="281.732427" style="fill: #ff0000; fill-opacity: 0.5"/>
    </g>
    <g clip-path="url(#pa34c40d2ef)">
     <use xlink:href="#C5_0_a2163b70a3" x="840.421849" y="294.377694" style="fill: #ff0000; fill-opacity: 0.5"/>
    </g>
    <g clip-path="url(#pa34c40d2ef)">
     <use xlink:href="#C5_0_a2163b70a3" x="844.543825" y="259.025863" style="fill: #ff0000; fill-opacity: 0.5"/>
    </g>
    <g clip-path="url(#pa34c40d2ef)">
     <use xlink:href="#C5_0_a2163b70a3" x="858.380962" y="145.541687" style="fill: #ff0000; fill-opacity: 0.5"/>
    </g>
    <g clip-path="url(#pa34c40d2ef)">
     <use xlink:href="#C5_0_a2163b70a3" x="861.10548" y="244.906927" style="fill: #ff0000; fill-opacity: 0.5"/>
    </g>
    <g clip-path="url(#pa34c40d2ef)">
     <use xlink:href="#C5_0_a2163b70a3" x="863.443532" y="319.05576" style="fill: #ff0000; fill-opacity: 0.5"/>
    </g>
    <g clip-path="url(#pa34c40d2ef)">
     <use xlink:href="#C5_0_a2163b70a3" x="846.075928" y="517.601584" style="fill: #ff0000; fill-opacity: 0.5"/>
    </g>
    <g clip-path="url(#pa34c40d2ef)">
     <use xlink:href="#C5_0_a2163b70a3" x="860.895169" y="333.589036" style="fill: #ff0000; fill-opacity: 0.5"/>
    </g>
   </g>
   <g id="line2d_17"/>
   <g id="line2d_18"/>
   <g id="text_13">
    <!-- ASEM across 3 different probabilites -->
    <g transform="translate(260.349844 68.410538) scale(0.3 -0.3)">
     <defs>
      <path id="DejaVuSans-61" d="M 2194 1759 
Q 1497 1759 1228 1600 
Q 959 1441 959 1056 
Q 959 750 1161 570 
Q 1363 391 1709 391 
Q 2188 391 2477 730 
Q 2766 1069 2766 1631 
L 2766 1759 
L 2194 1759 
z
M 3341 1997 
L 3341 0 
L 2766 0 
L 2766 531 
Q 2569 213 2275 61 
Q 1981 -91 1556 -91 
Q 1019 -91 701 211 
Q 384 513 384 1019 
Q 384 1609 779 1909 
Q 1175 2209 1959 2209 
L 2766 2209 
L 2766 2266 
Q 2766 2663 2505 2880 
Q 2244 3097 1772 3097 
Q 1472 3097 1187 3025 
Q 903 2953 641 2809 
L 641 3341 
Q 956 3463 1253 3523 
Q 1550 3584 1831 3584 
Q 2591 3584 2966 3190 
Q 3341 2797 3341 1997 
z
" transform="scale(0.015625)"/>
      <path id="DejaVuSans-63" d="M 3122 3366 
L 3122 2828 
Q 2878 2963 2633 3030 
Q 2388 3097 2138 3097 
Q 1578 3097 1268 2742 
Q 959 2388 959 1747 
Q 959 1106 1268 751 
Q 1578 397 2138 397 
Q 2388 397 2633 464 
Q 2878 531 3122 666 
L 3122 134 
Q 2881 22 2623 -34 
Q 2366 -91 2075 -91 
Q 1284 -91 818 406 
Q 353 903 353 1747 
Q 353 2603 823 3093 
Q 1294 3584 2113 3584 
Q 2378 3584 2631 3529 
Q 2884 3475 3122 3366 
z
" transform="scale(0.015625)"/>
      <path id="DejaVuSans-6f" d="M 1959 3097 
Q 1497 3097 1228 2736 
Q 959 2375 959 1747 
Q 959 1119 1226 758 
Q 1494 397 1959 397 
Q 2419 397 2687 759 
Q 2956 1122 2956 1747 
Q 2956 2369 2687 2733 
Q 2419 3097 1959 3097 
z
M 1959 3584 
Q 2709 3584 3137 3096 
Q 3566 2609 3566 1747 
Q 3566 888 3137 398 
Q 2709 -91 1959 -91 
Q 1206 -91 779 398 
Q 353 888 353 1747 
Q 353 2609 779 3096 
Q 1206 3584 1959 3584 
z
" transform="scale(0.015625)"/>
      <path id="DejaVuSans-33" d="M 2597 2516 
Q 3050 2419 3304 2112 
Q 3559 1806 3559 1356 
Q 3559 666 3084 287 
Q 2609 -91 1734 -91 
Q 1441 -91 1130 -33 
Q 819 25 488 141 
L 488 750 
Q 750 597 1062 519 
Q 1375 441 1716 441 
Q 2309 441 2620 675 
Q 2931 909 2931 1356 
Q 2931 1769 2642 2001 
Q 2353 2234 1838 2234 
L 1294 2234 
L 1294 2753 
L 1863 2753 
Q 2328 2753 2575 2939 
Q 2822 3125 2822 3475 
Q 2822 3834 2567 4026 
Q 2313 4219 1838 4219 
Q 1578 4219 1281 4162 
Q 984 4106 628 3988 
L 628 4550 
Q 988 4650 1302 4700 
Q 1616 4750 1894 4750 
Q 2613 4750 3031 4423 
Q 3450 4097 3450 3541 
Q 3450 3153 3228 2886 
Q 3006 2619 2597 2516 
z
" transform="scale(0.015625)"/>
      <path id="DejaVuSans-70" d="M 1159 525 
L 1159 -1331 
L 581 -1331 
L 581 3500 
L 1159 3500 
L 1159 2969 
Q 1341 3281 1617 3432 
Q 1894 3584 2278 3584 
Q 2916 3584 3314 3078 
Q 3713 2572 3713 1747 
Q 3713 922 3314 415 
Q 2916 -91 2278 -91 
Q 1894 -91 1617 61 
Q 1341 213 1159 525 
z
M 3116 1747 
Q 3116 2381 2855 2742 
Q 2594 3103 2138 3103 
Q 1681 3103 1420 2742 
Q 1159 2381 1159 1747 
Q 1159 1113 1420 752 
Q 1681 391 2138 391 
Q 2594 391 2855 752 
Q 3116 1113 3116 1747 
z
" transform="scale(0.015625)"/>
      <path id="DejaVuSans-62" d="M 3116 1747 
Q 3116 2381 2855 2742 
Q 2594 3103 2138 3103 
Q 1681 3103 1420 2742 
Q 1159 2381 1159 1747 
Q 1159 1113 1420 752 
Q 1681 391 2138 391 
Q 2594 391 2855 752 
Q 3116 1113 3116 1747 
z
M 1159 2969 
Q 1341 3281 1617 3432 
Q 1894 3584 2278 3584 
Q 2916 3584 3314 3078 
Q 3713 2572 3713 1747 
Q 3713 922 3314 415 
Q 2916 -91 2278 -91 
Q 1894 -91 1617 61 
Q 1341 213 1159 525 
L 1159 0 
L 581 0 
L 581 4863 
L 1159 4863 
L 1159 2969 
z
" transform="scale(0.015625)"/>
      <path id="DejaVuSans-6c" d="M 603 4863 
L 1178 4863 
L 1178 0 
L 603 0 
L 603 4863 
z
" transform="scale(0.015625)"/>
     </defs>
     <use xlink:href="#DejaVuSans-41"/>
     <use xlink:href="#DejaVuSans-53" x="68.408203"/>
     <use xlink:href="#DejaVuSans-45" x="131.884766"/>
     <use xlink:href="#DejaVuSans-4d" x="195.068359"/>
     <use xlink:href="#DejaVuSans-20" x="281.347656"/>
     <use xlink:href="#DejaVuSans-61" x="313.134766"/>
     <use xlink:href="#DejaVuSans-63" x="374.414062"/>
     <use xlink:href="#DejaVuSans-72" x="429.394531"/>
     <use xlink:href="#DejaVuSans-6f" x="468.257812"/>
     <use xlink:href="#DejaVuSans-73" x="529.439453"/>
     <use xlink:href="#DejaVuSans-73" x="581.539062"/>
     <use xlink:href="#DejaVuSans-20" x="633.638672"/>
     <use xlink:href="#DejaVuSans-33" x="665.425781"/>
     <use xlink:href="#DejaVuSans-20" x="729.048828"/>
     <use xlink:href="#DejaVuSans-64" x="760.835938"/>
     <use xlink:href="#DejaVuSans-69" x="824.3125"/>
     <use xlink:href="#DejaVuSans-66" x="852.095703"/>
     <use xlink:href="#DejaVuSans-66" x="887.300781"/>
     <use xlink:href="#DejaVuSans-65" x="922.505859"/>
     <use xlink:href="#DejaVuSans-72" x="984.029297"/>
     <use xlink:href="#DejaVuSans-65" x="1022.892578"/>
     <use xlink:href="#DejaVuSans-6e" x="1084.416016"/>
     <use xlink:href="#DejaVuSans-74" x="1147.794922"/>
     <use xlink:href="#DejaVuSans-20" x="1187.003906"/>
     <use xlink:href="#DejaVuSans-70" x="1218.791016"/>
     <use xlink:href="#DejaVuSans-72" x="1282.267578"/>
     <use xlink:href="#DejaVuSans-6f" x="1321.130859"/>
     <use xlink:href="#DejaVuSans-62" x="1382.3125"/>
     <use xlink:href="#DejaVuSans-61" x="1445.789062"/>
     <use xlink:href="#DejaVuSans-62" x="1507.068359"/>
     <use xlink:href="#DejaVuSans-69" x="1570.544922"/>
     <use xlink:href="#DejaVuSans-6c" x="1598.328125"/>
     <use xlink:href="#DejaVuSans-69" x="1626.111328"/>
     <use xlink:href="#DejaVuSans-74" x="1653.894531"/>
     <use xlink:href="#DejaVuSans-65" x="1693.103516"/>
     <use xlink:href="#DejaVuSans-73" x="1754.626953"/>
    </g>
   </g>
   <g id="legend_1">
    <g id="patch_15">
     <path d="M 143.6 543.6512 
L 268.15625 543.6512 
Q 272.15625 543.6512 272.15625 539.6512 
L 272.15625 424.2262 
Q 272.15625 420.2262 268.15625 420.2262 
L 143.6 420.2262 
Q 139.6 420.2262 139.6 424.2262 
L 139.6 539.6512 
Q 139.6 543.6512 143.6 543.6512 
z
" style="fill: #ffffff; opacity: 0.8; stroke: #cccccc; stroke-linejoin: miter"/>
    </g>
    <g id="patch_16">
     <path d="M 147.6 443.423075 
L 187.6 443.423075 
L 187.6 429.423075 
L 147.6 429.423075 
z
" style="fill: #107010; opacity: 0.5"/>
    </g>
    <g id="text_14">
     <!-- Green -->
     <g transform="translate(203.6 443.423075) scale(0.2 -0.2)">
      <use xlink:href="#DejaVuSans-47"/>
      <use xlink:href="#DejaVuSans-72" x="77.490234"/>
      <use xlink:href="#DejaVuSans-65" x="116.353516"/>
      <use xlink:href="#DejaVuSans-65" x="177.876953"/>
      <use xlink:href="#DejaVuSans-6e" x="239.400391"/>
     </g>
    </g>
    <g id="patch_17">
     <path d="M 147.6 472.779325 
L 187.6 472.779325 
L 187.6 458.779325 
L 147.6 458.779325 
z
" style="fill: #df2020; opacity: 0.5"/>
    </g>
    <g id="text_15">
     <!-- Red -->
     <g transform="translate(203.6 472.779325) scale(0.2 -0.2)">
      <use xlink:href="#DejaVuSans-52"/>
      <use xlink:href="#DejaVuSans-65" x="64.982422"/>
      <use xlink:href="#DejaVuSans-64" x="126.505859"/>
     </g>
    </g>
    <g id="line2d_19">
     <defs>
      <path id="mbd1a5a2fb8" d="M 0 4 
C 1.060812 4 2.078319 3.578535 2.828427 2.828427 
C 3.578535 2.078319 4 1.060812 4 0 
C 4 -1.060812 3.578535 -2.078319 2.828427 -2.828427 
C 2.078319 -3.578535 1.060812 -4 0 -4 
C -1.060812 -4 -2.078319 -3.578535 -2.828427 -2.828427 
C -3.578535 -2.078319 -4 -1.060812 -4 0 
C -4 1.060812 -3.578535 2.078319 -2.828427 2.828427 
C -2.078319 3.578535 -1.060812 4 0 4 
z
"/>
     </defs>
     <g>
      <use xlink:href="#mbd1a5a2fb8" x="167.6" y="495.135575" style="fill: #008000; fill-opacity: 0.5"/>
     </g>
    </g>
    <g id="text_16">
     <!-- Green -->
     <g transform="translate(203.6 502.135575) scale(0.2 -0.2)">
      <use xlink:href="#DejaVuSans-47"/>
      <use xlink:href="#DejaVuSans-72" x="77.490234"/>
      <use xlink:href="#DejaVuSans-65" x="116.353516"/>
      <use xlink:href="#DejaVuSans-65" x="177.876953"/>
      <use xlink:href="#DejaVuSans-6e" x="239.400391"/>
     </g>
    </g>
    <g id="line2d_20">
     <defs>
      <path id="mf1b968872c" d="M 0 4 
C 1.060812 4 2.078319 3.578535 2.828427 2.828427 
C 3.578535 2.078319 4 1.060812 4 0 
C 4 -1.060812 3.578535 -2.078319 2.828427 -2.828427 
C 2.078319 -3.578535 1.060812 -4 0 -4 
C -1.060812 -4 -2.078319 -3.578535 -2.828427 -2.828427 
C -3.578535 -2.078319 -4 -1.060812 -4 0 
C -4 1.060812 -3.578535 2.078319 -2.828427 2.828427 
C -2.078319 3.578535 -1.060812 4 0 4 
z
"/>
     </defs>
     <g>
      <use xlink:href="#mf1b968872c" x="167.6" y="524.491825" style="fill: #ff0000; fill-opacity: 0.5"/>
     </g>
    </g>
    <g id="text_17">
     <!-- Red -->
     <g transform="translate(203.6 531.491825) scale(0.2 -0.2)">
      <use xlink:href="#DejaVuSans-52"/>
      <use xlink:href="#DejaVuSans-65" x="64.982422"/>
      <use xlink:href="#DejaVuSans-64" x="126.505859"/>
     </g>
    </g>
   </g>
  </g>
 </g>
 <defs>
  <clipPath id="pa34c40d2ef">
   <rect x="129.6" y="74.6496" width="803.52" height="479.0016"/>
  </clipPath>
 </defs>
</svg>
