<?xml version="1.0" encoding="utf-8" standalone="no"?>
<!DOCTYPE svg PUBLIC "-//W3C//DTD SVG 1.1//EN"
  "http://www.w3.org/Graphics/SVG/1.1/DTD/svg11.dtd">
<svg xmlns:xlink="http://www.w3.org/1999/xlink" width="1036.8pt" height="622.08pt" viewBox="0 0 1036.8 622.08" xmlns="http://www.w3.org/2000/svg" version="1.1">
 <metadata>
  <rdf:RDF xmlns:dc="http://purl.org/dc/elements/1.1/" xmlns:cc="http://creativecommons.org/ns#" xmlns:rdf="http://www.w3.org/1999/02/22-rdf-syntax-ns#">
   <cc:Work>
    <dc:type rdf:resource="http://purl.org/dc/dcmitype/StillImage"/>
    <dc:date>2024-12-23T12:08:14.511772</dc:date>
    <dc:format>image/svg+xml</dc:format>
    <dc:creator>
     <cc:Agent>
      <dc:title>Matplotlib v3.9.2, https://matplotlib.org/</dc:title>
     </cc:Agent>
    </dc:creator>
   </cc:Work>
  </rdf:RDF>
 </metadata>
 <defs>
  <style type="text/css">*{stroke-linejoin: round; stroke-linecap: butt}</style>
 </defs>
 <g id="figure_1">
  <g id="patch_1">
   <path d="M 0 622.08 
L 1036.8 622.08 
L 1036.8 0 
L 0 0 
z
" style="fill: #ffffff"/>
  </g>
  <g id="axes_1">
   <g id="patch_2">
    <path d="M 129.6 553.6512 
L 933.12 553.6512 
L 933.12 74.6496 
L 129.6 74.6496 
z
" style="fill: #ffffff"/>
   </g>
   <g id="matplotlib.axis_1">
    <g id="xtick_1">
     <g id="line2d_1">
      <defs>
       <path id="m58dc6a4840" d="M 0 0 
L 0 3.5 
" style="stroke: #000000; stroke-width: 0.8"/>
      </defs>
      <g>
       <use xlink:href="#m58dc6a4840" x="263.52" y="553.6512" style="stroke: #000000; stroke-width: 0.8"/>
      </g>
     </g>
     <g id="text_1">
      <!-- 25.0 -->
      <g transform="translate(235.687969 579.647294) scale(0.25 -0.25)">
       <defs>
        <path id="DejaVuSans-32" d="M 1228 531 
L 3431 531 
L 3431 0 
L 469 0 
L 469 531 
Q 828 903 1448 1529 
Q 2069 2156 2228 2338 
Q 2531 2678 2651 2914 
Q 2772 3150 2772 3378 
Q 2772 3750 2511 3984 
Q 2250 4219 1831 4219 
Q 1534 4219 1204 4116 
Q 875 4013 500 3803 
L 500 4441 
Q 881 4594 1212 4672 
Q 1544 4750 1819 4750 
Q 2544 4750 2975 4387 
Q 3406 4025 3406 3419 
Q 3406 3131 3298 2873 
Q 3191 2616 2906 2266 
Q 2828 2175 2409 1742 
Q 1991 1309 1228 531 
z
" transform="scale(0.015625)"/>
        <path id="DejaVuSans-35" d="M 691 4666 
L 3169 4666 
L 3169 4134 
L 1269 4134 
L 1269 2991 
Q 1406 3038 1543 3061 
Q 1681 3084 1819 3084 
Q 2600 3084 3056 2656 
Q 3513 2228 3513 1497 
Q 3513 744 3044 326 
Q 2575 -91 1722 -91 
Q 1428 -91 1123 -41 
Q 819 9 494 109 
L 494 744 
Q 775 591 1075 516 
Q 1375 441 1709 441 
Q 2250 441 2565 725 
Q 2881 1009 2881 1497 
Q 2881 1984 2565 2268 
Q 2250 2553 1709 2553 
Q 1456 2553 1204 2497 
Q 953 2441 691 2322 
L 691 4666 
z
" transform="scale(0.015625)"/>
        <path id="DejaVuSans-2e" d="M 684 794 
L 1344 794 
L 1344 0 
L 684 0 
L 684 794 
z
" transform="scale(0.015625)"/>
        <path id="DejaVuSans-30" d="M 2034 4250 
Q 1547 4250 1301 3770 
Q 1056 3291 1056 2328 
Q 1056 1369 1301 889 
Q 1547 409 2034 409 
Q 2525 409 2770 889 
Q 3016 1369 3016 2328 
Q 3016 3291 2770 3770 
Q 2525 4250 2034 4250 
z
M 2034 4750 
Q 2819 4750 3233 4129 
Q 3647 3509 3647 2328 
Q 3647 1150 3233 529 
Q 2819 -91 2034 -91 
Q 1250 -91 836 529 
Q 422 1150 422 2328 
Q 422 3509 836 4129 
Q 1250 4750 2034 4750 
z
" transform="scale(0.015625)"/>
       </defs>
       <use xlink:href="#DejaVuSans-32"/>
       <use xlink:href="#DejaVuSans-35" x="63.623047"/>
       <use xlink:href="#DejaVuSans-2e" x="127.246094"/>
       <use xlink:href="#DejaVuSans-30" x="159.033203"/>
      </g>
     </g>
    </g>
    <g id="xtick_2">
     <g id="line2d_2">
      <g>
       <use xlink:href="#m58dc6a4840" x="531.36" y="553.6512" style="stroke: #000000; stroke-width: 0.8"/>
      </g>
     </g>
     <g id="text_2">
      <!-- 50.0 -->
      <g transform="translate(503.527969 579.647294) scale(0.25 -0.25)">
       <use xlink:href="#DejaVuSans-35"/>
       <use xlink:href="#DejaVuSans-30" x="63.623047"/>
       <use xlink:href="#DejaVuSans-2e" x="127.246094"/>
       <use xlink:href="#DejaVuSans-30" x="159.033203"/>
      </g>
     </g>
    </g>
    <g id="xtick_3">
     <g id="line2d_3">
      <g>
       <use xlink:href="#m58dc6a4840" x="799.2" y="553.6512" style="stroke: #000000; stroke-width: 0.8"/>
      </g>
     </g>
     <g id="text_3">
      <!-- 75.0 -->
      <g transform="translate(771.367969 579.647294) scale(0.25 -0.25)">
       <defs>
        <path id="DejaVuSans-37" d="M 525 4666 
L 3525 4666 
L 3525 4397 
L 1831 0 
L 1172 0 
L 2766 4134 
L 525 4134 
L 525 4666 
z
" transform="scale(0.015625)"/>
       </defs>
       <use xlink:href="#DejaVuSans-37"/>
       <use xlink:href="#DejaVuSans-35" x="63.623047"/>
       <use xlink:href="#DejaVuSans-2e" x="127.246094"/>
       <use xlink:href="#DejaVuSans-30" x="159.033203"/>
      </g>
     </g>
    </g>
    <g id="text_4">
     <!-- P(Right|RED) -->
     <g transform="translate(434.607656 611.773075) scale(0.3 -0.3)">
      <defs>
       <path id="DejaVuSans-50" d="M 1259 4147 
L 1259 2394 
L 2053 2394 
Q 2494 2394 2734 2622 
Q 2975 2850 2975 3272 
Q 2975 3691 2734 3919 
Q 2494 4147 2053 4147 
L 1259 4147 
z
M 628 4666 
L 2053 4666 
Q 2838 4666 3239 4311 
Q 3641 3956 3641 3272 
Q 3641 2581 3239 2228 
Q 2838 1875 2053 1875 
L 1259 1875 
L 1259 0 
L 628 0 
L 628 4666 
z
" transform="scale(0.015625)"/>
       <path id="DejaVuSans-28" d="M 1984 4856 
Q 1566 4138 1362 3434 
Q 1159 2731 1159 2009 
Q 1159 1288 1364 580 
Q 1569 -128 1984 -844 
L 1484 -844 
Q 1016 -109 783 600 
Q 550 1309 550 2009 
Q 550 2706 781 3412 
Q 1013 4119 1484 4856 
L 1984 4856 
z
" transform="scale(0.015625)"/>
       <path id="DejaVuSans-52" d="M 2841 2188 
Q 3044 2119 3236 1894 
Q 3428 1669 3622 1275 
L 4263 0 
L 3584 0 
L 2988 1197 
Q 2756 1666 2539 1819 
Q 2322 1972 1947 1972 
L 1259 1972 
L 1259 0 
L 628 0 
L 628 4666 
L 2053 4666 
Q 2853 4666 3247 4331 
Q 3641 3997 3641 3322 
Q 3641 2881 3436 2590 
Q 3231 2300 2841 2188 
z
M 1259 4147 
L 1259 2491 
L 2053 2491 
Q 2509 2491 2742 2702 
Q 2975 2913 2975 3322 
Q 2975 3731 2742 3939 
Q 2509 4147 2053 4147 
L 1259 4147 
z
" transform="scale(0.015625)"/>
       <path id="DejaVuSans-69" d="M 603 3500 
L 1178 3500 
L 1178 0 
L 603 0 
L 603 3500 
z
M 603 4863 
L 1178 4863 
L 1178 4134 
L 603 4134 
L 603 4863 
z
" transform="scale(0.015625)"/>
       <path id="DejaVuSans-67" d="M 2906 1791 
Q 2906 2416 2648 2759 
Q 2391 3103 1925 3103 
Q 1463 3103 1205 2759 
Q 947 2416 947 1791 
Q 947 1169 1205 825 
Q 1463 481 1925 481 
Q 2391 481 2648 825 
Q 2906 1169 2906 1791 
z
M 3481 434 
Q 3481 -459 3084 -895 
Q 2688 -1331 1869 -1331 
Q 1566 -1331 1297 -1286 
Q 1028 -1241 775 -1147 
L 775 -588 
Q 1028 -725 1275 -790 
Q 1522 -856 1778 -856 
Q 2344 -856 2625 -561 
Q 2906 -266 2906 331 
L 2906 616 
Q 2728 306 2450 153 
Q 2172 0 1784 0 
Q 1141 0 747 490 
Q 353 981 353 1791 
Q 353 2603 747 3093 
Q 1141 3584 1784 3584 
Q 2172 3584 2450 3431 
Q 2728 3278 2906 2969 
L 2906 3500 
L 3481 3500 
L 3481 434 
z
" transform="scale(0.015625)"/>
       <path id="DejaVuSans-68" d="M 3513 2113 
L 3513 0 
L 2938 0 
L 2938 2094 
Q 2938 2591 2744 2837 
Q 2550 3084 2163 3084 
Q 1697 3084 1428 2787 
Q 1159 2491 1159 1978 
L 1159 0 
L 581 0 
L 581 4863 
L 1159 4863 
L 1159 2956 
Q 1366 3272 1645 3428 
Q 1925 3584 2291 3584 
Q 2894 3584 3203 3211 
Q 3513 2838 3513 2113 
z
" transform="scale(0.015625)"/>
       <path id="DejaVuSans-74" d="M 1172 4494 
L 1172 3500 
L 2356 3500 
L 2356 3053 
L 1172 3053 
L 1172 1153 
Q 1172 725 1289 603 
Q 1406 481 1766 481 
L 2356 481 
L 2356 0 
L 1766 0 
Q 1100 0 847 248 
Q 594 497 594 1153 
L 594 3053 
L 172 3053 
L 172 3500 
L 594 3500 
L 594 4494 
L 1172 4494 
z
" transform="scale(0.015625)"/>
       <path id="DejaVuSans-7c" d="M 1344 4891 
L 1344 -1509 
L 813 -1509 
L 813 4891 
L 1344 4891 
z
" transform="scale(0.015625)"/>
       <path id="DejaVuSans-45" d="M 628 4666 
L 3578 4666 
L 3578 4134 
L 1259 4134 
L 1259 2753 
L 3481 2753 
L 3481 2222 
L 1259 2222 
L 1259 531 
L 3634 531 
L 3634 0 
L 628 0 
L 628 4666 
z
" transform="scale(0.015625)"/>
       <path id="DejaVuSans-44" d="M 1259 4147 
L 1259 519 
L 2022 519 
Q 2988 519 3436 956 
Q 3884 1394 3884 2338 
Q 3884 3275 3436 3711 
Q 2988 4147 2022 4147 
L 1259 4147 
z
M 628 4666 
L 1925 4666 
Q 3281 4666 3915 4102 
Q 4550 3538 4550 2338 
Q 4550 1131 3912 565 
Q 3275 0 1925 0 
L 628 0 
L 628 4666 
z
" transform="scale(0.015625)"/>
       <path id="DejaVuSans-29" d="M 513 4856 
L 1013 4856 
Q 1481 4119 1714 3412 
Q 1947 2706 1947 2009 
Q 1947 1309 1714 600 
Q 1481 -109 1013 -844 
L 513 -844 
Q 928 -128 1133 580 
Q 1338 1288 1338 2009 
Q 1338 2731 1133 3434 
Q 928 4138 513 4856 
z
" transform="scale(0.015625)"/>
      </defs>
      <use xlink:href="#DejaVuSans-50"/>
      <use xlink:href="#DejaVuSans-28" x="60.302734"/>
      <use xlink:href="#DejaVuSans-52" x="99.316406"/>
      <use xlink:href="#DejaVuSans-69" x="168.798828"/>
      <use xlink:href="#DejaVuSans-67" x="196.582031"/>
      <use xlink:href="#DejaVuSans-68" x="260.058594"/>
      <use xlink:href="#DejaVuSans-74" x="323.4375"/>
      <use xlink:href="#DejaVuSans-7c" x="362.646484"/>
      <use xlink:href="#DejaVuSans-52" x="396.337891"/>
      <use xlink:href="#DejaVuSans-45" x="465.820312"/>
      <use xlink:href="#DejaVuSans-44" x="529.003906"/>
      <use xlink:href="#DejaVuSans-29" x="606.005859"/>
     </g>
    </g>
   </g>
   <g id="matplotlib.axis_2">
    <g id="ytick_1">
     <g id="line2d_4">
      <defs>
       <path id="m962fd943b2" d="M 0 0 
L -3.5 0 
" style="stroke: #000000; stroke-width: 0.8"/>
      </defs>
      <g>
       <use xlink:href="#m962fd943b2" x="129.6" y="522.359047" style="stroke: #000000; stroke-width: 0.8"/>
      </g>
     </g>
     <g id="text_5">
      <!-- −1.5 -->
      <g transform="translate(61.892969 531.857094) scale(0.25 -0.25)">
       <defs>
        <path id="DejaVuSans-2212" d="M 678 2272 
L 4684 2272 
L 4684 1741 
L 678 1741 
L 678 2272 
z
" transform="scale(0.015625)"/>
        <path id="DejaVuSans-31" d="M 794 531 
L 1825 531 
L 1825 4091 
L 703 3866 
L 703 4441 
L 1819 4666 
L 2450 4666 
L 2450 531 
L 3481 531 
L 3481 0 
L 794 0 
L 794 531 
z
" transform="scale(0.015625)"/>
       </defs>
       <use xlink:href="#DejaVuSans-2212"/>
       <use xlink:href="#DejaVuSans-31" x="83.789062"/>
       <use xlink:href="#DejaVuSans-2e" x="147.412109"/>
       <use xlink:href="#DejaVuSans-35" x="179.199219"/>
      </g>
     </g>
    </g>
    <g id="ytick_2">
     <g id="line2d_5">
      <g>
       <use xlink:href="#m962fd943b2" x="129.6" y="440.845323" style="stroke: #000000; stroke-width: 0.8"/>
      </g>
     </g>
     <g id="text_6">
      <!-- −1.0 -->
      <g transform="translate(61.892969 450.34337) scale(0.25 -0.25)">
       <use xlink:href="#DejaVuSans-2212"/>
       <use xlink:href="#DejaVuSans-31" x="83.789062"/>
       <use xlink:href="#DejaVuSans-2e" x="147.412109"/>
       <use xlink:href="#DejaVuSans-30" x="179.199219"/>
      </g>
     </g>
    </g>
    <g id="ytick_3">
     <g id="line2d_6">
      <g>
       <use xlink:href="#m962fd943b2" x="129.6" y="359.331598" style="stroke: #000000; stroke-width: 0.8"/>
      </g>
     </g>
     <g id="text_7">
      <!-- −0.5 -->
      <g transform="translate(61.892969 368.829645) scale(0.25 -0.25)">
       <use xlink:href="#DejaVuSans-2212"/>
       <use xlink:href="#DejaVuSans-30" x="83.789062"/>
       <use xlink:href="#DejaVuSans-2e" x="147.412109"/>
       <use xlink:href="#DejaVuSans-35" x="179.199219"/>
      </g>
     </g>
    </g>
    <g id="ytick_4">
     <g id="line2d_7">
      <g>
       <use xlink:href="#m962fd943b2" x="129.6" y="277.817874" style="stroke: #000000; stroke-width: 0.8"/>
      </g>
     </g>
     <g id="text_8">
      <!-- 0.0 -->
      <g transform="translate(82.842187 287.315921) scale(0.25 -0.25)">
       <use xlink:href="#DejaVuSans-30"/>
       <use xlink:href="#DejaVuSans-2e" x="63.623047"/>
       <use xlink:href="#DejaVuSans-30" x="95.410156"/>
      </g>
     </g>
    </g>
    <g id="ytick_5">
     <g id="line2d_8">
      <g>
       <use xlink:href="#m962fd943b2" x="129.6" y="196.304149" style="stroke: #000000; stroke-width: 0.8"/>
      </g>
     </g>
     <g id="text_9">
      <!-- 0.5 -->
      <g transform="translate(82.842187 205.802196) scale(0.25 -0.25)">
       <use xlink:href="#DejaVuSans-30"/>
       <use xlink:href="#DejaVuSans-2e" x="63.623047"/>
       <use xlink:href="#DejaVuSans-35" x="95.410156"/>
      </g>
     </g>
    </g>
    <g id="ytick_6">
     <g id="line2d_9">
      <g>
       <use xlink:href="#m962fd943b2" x="129.6" y="114.790425" style="stroke: #000000; stroke-width: 0.8"/>
      </g>
     </g>
     <g id="text_10">
      <!-- 1.0 -->
      <g transform="translate(82.842187 124.288471) scale(0.25 -0.25)">
       <use xlink:href="#DejaVuSans-31"/>
       <use xlink:href="#DejaVuSans-2e" x="63.623047"/>
       <use xlink:href="#DejaVuSans-30" x="95.410156"/>
      </g>
     </g>
    </g>
    <g id="text_11">
     <!-- ASEM (deg/s) -->
     <g transform="translate(51.653906 413.968369) rotate(-90) scale(0.3 -0.3)">
      <defs>
       <path id="DejaVuSans-41" d="M 2188 4044 
L 1331 1722 
L 3047 1722 
L 2188 4044 
z
M 1831 4666 
L 2547 4666 
L 4325 0 
L 3669 0 
L 3244 1197 
L 1141 1197 
L 716 0 
L 50 0 
L 1831 4666 
z
" transform="scale(0.015625)"/>
       <path id="DejaVuSans-53" d="M 3425 4513 
L 3425 3897 
Q 3066 4069 2747 4153 
Q 2428 4238 2131 4238 
Q 1616 4238 1336 4038 
Q 1056 3838 1056 3469 
Q 1056 3159 1242 3001 
Q 1428 2844 1947 2747 
L 2328 2669 
Q 3034 2534 3370 2195 
Q 3706 1856 3706 1288 
Q 3706 609 3251 259 
Q 2797 -91 1919 -91 
Q 1588 -91 1214 -16 
Q 841 59 441 206 
L 441 856 
Q 825 641 1194 531 
Q 1563 422 1919 422 
Q 2459 422 2753 634 
Q 3047 847 3047 1241 
Q 3047 1584 2836 1778 
Q 2625 1972 2144 2069 
L 1759 2144 
Q 1053 2284 737 2584 
Q 422 2884 422 3419 
Q 422 4038 858 4394 
Q 1294 4750 2059 4750 
Q 2388 4750 2728 4690 
Q 3069 4631 3425 4513 
z
" transform="scale(0.015625)"/>
       <path id="DejaVuSans-4d" d="M 628 4666 
L 1569 4666 
L 2759 1491 
L 3956 4666 
L 4897 4666 
L 4897 0 
L 4281 0 
L 4281 4097 
L 3078 897 
L 2444 897 
L 1241 4097 
L 1241 0 
L 628 0 
L 628 4666 
z
" transform="scale(0.015625)"/>
       <path id="DejaVuSans-20" transform="scale(0.015625)"/>
       <path id="DejaVuSans-64" d="M 2906 2969 
L 2906 4863 
L 3481 4863 
L 3481 0 
L 2906 0 
L 2906 525 
Q 2725 213 2448 61 
Q 2172 -91 1784 -91 
Q 1150 -91 751 415 
Q 353 922 353 1747 
Q 353 2572 751 3078 
Q 1150 3584 1784 3584 
Q 2172 3584 2448 3432 
Q 2725 3281 2906 2969 
z
M 947 1747 
Q 947 1113 1208 752 
Q 1469 391 1925 391 
Q 2381 391 2643 752 
Q 2906 1113 2906 1747 
Q 2906 2381 2643 2742 
Q 2381 3103 1925 3103 
Q 1469 3103 1208 2742 
Q 947 2381 947 1747 
z
" transform="scale(0.015625)"/>
       <path id="DejaVuSans-65" d="M 3597 1894 
L 3597 1613 
L 953 1613 
Q 991 1019 1311 708 
Q 1631 397 2203 397 
Q 2534 397 2845 478 
Q 3156 559 3463 722 
L 3463 178 
Q 3153 47 2828 -22 
Q 2503 -91 2169 -91 
Q 1331 -91 842 396 
Q 353 884 353 1716 
Q 353 2575 817 3079 
Q 1281 3584 2069 3584 
Q 2775 3584 3186 3129 
Q 3597 2675 3597 1894 
z
M 3022 2063 
Q 3016 2534 2758 2815 
Q 2500 3097 2075 3097 
Q 1594 3097 1305 2825 
Q 1016 2553 972 2059 
L 3022 2063 
z
" transform="scale(0.015625)"/>
       <path id="DejaVuSans-2f" d="M 1625 4666 
L 2156 4666 
L 531 -594 
L 0 -594 
L 1625 4666 
z
" transform="scale(0.015625)"/>
       <path id="DejaVuSans-73" d="M 2834 3397 
L 2834 2853 
Q 2591 2978 2328 3040 
Q 2066 3103 1784 3103 
Q 1356 3103 1142 2972 
Q 928 2841 928 2578 
Q 928 2378 1081 2264 
Q 1234 2150 1697 2047 
L 1894 2003 
Q 2506 1872 2764 1633 
Q 3022 1394 3022 966 
Q 3022 478 2636 193 
Q 2250 -91 1575 -91 
Q 1294 -91 989 -36 
Q 684 19 347 128 
L 347 722 
Q 666 556 975 473 
Q 1284 391 1588 391 
Q 1994 391 2212 530 
Q 2431 669 2431 922 
Q 2431 1156 2273 1281 
Q 2116 1406 1581 1522 
L 1381 1569 
Q 847 1681 609 1914 
Q 372 2147 372 2553 
Q 372 3047 722 3315 
Q 1072 3584 1716 3584 
Q 2034 3584 2315 3537 
Q 2597 3491 2834 3397 
z
" transform="scale(0.015625)"/>
      </defs>
      <use xlink:href="#DejaVuSans-41"/>
      <use xlink:href="#DejaVuSans-53" x="68.408203"/>
      <use xlink:href="#DejaVuSans-45" x="131.884766"/>
      <use xlink:href="#DejaVuSans-4d" x="195.068359"/>
      <use xlink:href="#DejaVuSans-20" x="281.347656"/>
      <use xlink:href="#DejaVuSans-28" x="313.134766"/>
      <use xlink:href="#DejaVuSans-64" x="352.148438"/>
      <use xlink:href="#DejaVuSans-65" x="415.625"/>
      <use xlink:href="#DejaVuSans-67" x="477.148438"/>
      <use xlink:href="#DejaVuSans-2f" x="540.625"/>
      <use xlink:href="#DejaVuSans-73" x="574.316406"/>
      <use xlink:href="#DejaVuSans-29" x="626.416016"/>
     </g>
    </g>
   </g>
   <g id="line2d_10">
    <path d="M 263.52 327.742292 
L 531.36 276.262754 
L 799.2 240.826828 
" clip-path="url(#paeb73111dd)" style="fill: none; stroke: #1f77b4; stroke-opacity: 0.8; stroke-width: 2.7; stroke-linecap: square"/>
    <defs>
     <path id="md4bc26694a" d="M 0 3.383948 
C 0.897434 3.383948 1.758231 3.027394 2.392813 2.392813 
C 3.027394 1.758231 3.383948 0.897434 3.383948 0 
C 3.383948 -0.897434 3.027394 -1.758231 2.392813 -2.392813 
C 1.758231 -3.027394 0.897434 -3.383948 0 -3.383948 
C -0.897434 -3.383948 -1.758231 -3.027394 -2.392813 -2.392813 
C -3.027394 -1.758231 -3.383948 -0.897434 -3.383948 0 
C -3.383948 0.897434 -3.027394 1.758231 -2.392813 2.392813 
C -1.758231 3.027394 -0.897434 3.383948 0 3.383948 
z
" style="stroke: #1f77b4; stroke-opacity: 0.8; stroke-width: 2.025"/>
    </defs>
    <g clip-path="url(#paeb73111dd)">
     <use xlink:href="#md4bc26694a" x="263.52" y="327.742292" style="fill: #1f77b4; fill-opacity: 0.8; stroke: #1f77b4; stroke-opacity: 0.8; stroke-width: 2.025"/>
     <use xlink:href="#md4bc26694a" x="531.36" y="276.262754" style="fill: #1f77b4; fill-opacity: 0.8; stroke: #1f77b4; stroke-opacity: 0.8; stroke-width: 2.025"/>
     <use xlink:href="#md4bc26694a" x="799.2" y="240.826828" style="fill: #1f77b4; fill-opacity: 0.8; stroke: #1f77b4; stroke-opacity: 0.8; stroke-width: 2.025"/>
    </g>
   </g>
   <g id="line2d_11">
    <path d="M 250.128 363.346889 
L 276.912 363.346889 
M 263.52 363.346889 
L 263.52 295.30606 
M 250.128 295.30606 
L 276.912 295.30606 
" clip-path="url(#paeb73111dd)" style="fill: none; stroke: #1f77b4; stroke-opacity: 0.8; stroke-width: 2.7; stroke-linecap: square"/>
   </g>
   <g id="line2d_12">
    <path d="M 517.968 310.610226 
L 544.752 310.610226 
M 531.36 310.610226 
L 531.36 240.56276 
M 517.968 240.56276 
L 544.752 240.56276 
" clip-path="url(#paeb73111dd)" style="fill: none; stroke: #1f77b4; stroke-opacity: 0.8; stroke-width: 2.7; stroke-linecap: square"/>
   </g>
   <g id="line2d_13">
    <path d="M 785.808 281.788545 
L 812.592 281.788545 
M 799.2 281.788545 
L 799.2 202.562242 
M 785.808 202.562242 
L 812.592 202.562242 
" clip-path="url(#paeb73111dd)" style="fill: none; stroke: #1f77b4; stroke-opacity: 0.8; stroke-width: 2.7; stroke-linecap: square"/>
   </g>
   <g id="line2d_14">
    <path d="M 263.52 469.658976 
L 531.36 392.011385 
L 799.2 214.756849 
" clip-path="url(#paeb73111dd)" style="fill: none; stroke: #aec7e8; stroke-opacity: 0.8; stroke-width: 2.7; stroke-linecap: square"/>
    <defs>
     <path id="m2ca866d71d" d="M 0 3.383948 
C 0.897434 3.383948 1.758231 3.027394 2.392813 2.392813 
C 3.027394 1.758231 3.383948 0.897434 3.383948 0 
C 3.383948 -0.897434 3.027394 -1.758231 2.392813 -2.392813 
C 1.758231 -3.027394 0.897434 -3.383948 0 -3.383948 
C -0.897434 -3.383948 -1.758231 -3.027394 -2.392813 -2.392813 
C -3.027394 -1.758231 -3.383948 -0.897434 -3.383948 0 
C -3.383948 0.897434 -3.027394 1.758231 -2.392813 2.392813 
C -1.758231 3.027394 -0.897434 3.383948 0 3.383948 
z
" style="stroke: #aec7e8; stroke-opacity: 0.8; stroke-width: 2.025"/>
    </defs>
    <g clip-path="url(#paeb73111dd)">
     <use xlink:href="#m2ca866d71d" x="263.52" y="469.658976" style="fill: #aec7e8; fill-opacity: 0.8; stroke: #aec7e8; stroke-opacity: 0.8; stroke-width: 2.025"/>
     <use xlink:href="#m2ca866d71d" x="531.36" y="392.011385" style="fill: #aec7e8; fill-opacity: 0.8; stroke: #aec7e8; stroke-opacity: 0.8; stroke-width: 2.025"/>
     <use xlink:href="#m2ca866d71d" x="799.2" y="214.756849" style="fill: #aec7e8; fill-opacity: 0.8; stroke: #aec7e8; stroke-opacity: 0.8; stroke-width: 2.025"/>
    </g>
   </g>
   <g id="line2d_15">
    <path d="M 250.128 531.8784 
L 276.912 531.8784 
M 263.52 531.8784 
L 263.52 399.866238 
M 250.128 399.866238 
L 276.912 399.866238 
" clip-path="url(#paeb73111dd)" style="fill: none; stroke: #aec7e8; stroke-opacity: 0.8; stroke-width: 2.7; stroke-linecap: square"/>
   </g>
   <g id="line2d_16">
    <path d="M 517.968 448.753455 
L 544.752 448.753455 
M 531.36 448.753455 
L 531.36 332.259634 
M 517.968 332.259634 
L 544.752 332.259634 
" clip-path="url(#paeb73111dd)" style="fill: none; stroke: #aec7e8; stroke-opacity: 0.8; stroke-width: 2.7; stroke-linecap: square"/>
   </g>
   <g id="line2d_17">
    <path d="M 785.808 272.513126 
L 812.592 272.513126 
M 799.2 272.513126 
L 799.2 157.55564 
M 785.808 157.55564 
L 812.592 157.55564 
" clip-path="url(#paeb73111dd)" style="fill: none; stroke: #aec7e8; stroke-opacity: 0.8; stroke-width: 2.7; stroke-linecap: square"/>
   </g>
   <g id="line2d_18">
    <path d="M 263.52 214.139278 
L 531.36 225.835246 
L 799.2 175.198533 
" clip-path="url(#paeb73111dd)" style="fill: none; stroke: #ff7f0e; stroke-opacity: 0.8; stroke-width: 2.7; stroke-linecap: square"/>
    <defs>
     <path id="mda88834857" d="M 0 3.383948 
C 0.897434 3.383948 1.758231 3.027394 2.392813 2.392813 
C 3.027394 1.758231 3.383948 0.897434 3.383948 0 
C 3.383948 -0.897434 3.027394 -1.758231 2.392813 -2.392813 
C 1.758231 -3.027394 0.897434 -3.383948 0 -3.383948 
C -0.897434 -3.383948 -1.758231 -3.027394 -2.392813 -2.392813 
C -3.027394 -1.758231 -3.383948 -0.897434 -3.383948 0 
C -3.383948 0.897434 -3.027394 1.758231 -2.392813 2.392813 
C -1.758231 3.027394 -0.897434 3.383948 0 3.383948 
z
" style="stroke: #ff7f0e; stroke-opacity: 0.8; stroke-width: 2.025"/>
    </defs>
    <g clip-path="url(#paeb73111dd)">
     <use xlink:href="#mda88834857" x="263.52" y="214.139278" style="fill: #ff7f0e; fill-opacity: 0.8; stroke: #ff7f0e; stroke-opacity: 0.8; stroke-width: 2.025"/>
     <use xlink:href="#mda88834857" x="531.36" y="225.835246" style="fill: #ff7f0e; fill-opacity: 0.8; stroke: #ff7f0e; stroke-opacity: 0.8; stroke-width: 2.025"/>
     <use xlink:href="#mda88834857" x="799.2" y="175.198533" style="fill: #ff7f0e; fill-opacity: 0.8; stroke: #ff7f0e; stroke-opacity: 0.8; stroke-width: 2.025"/>
    </g>
   </g>
   <g id="line2d_19">
    <path d="M 250.128 245.91857 
L 276.912 245.91857 
M 263.52 245.91857 
L 263.52 185.859165 
M 250.128 185.859165 
L 276.912 185.859165 
" clip-path="url(#paeb73111dd)" style="fill: none; stroke: #ff7f0e; stroke-opacity: 0.8; stroke-width: 2.7; stroke-linecap: square"/>
   </g>
   <g id="line2d_20">
    <path d="M 517.968 252.459338 
L 544.752 252.459338 
M 531.36 252.459338 
L 531.36 199.557233 
M 517.968 199.557233 
L 544.752 199.557233 
" clip-path="url(#paeb73111dd)" style="fill: none; stroke: #ff7f0e; stroke-opacity: 0.8; stroke-width: 2.7; stroke-linecap: square"/>
   </g>
   <g id="line2d_21">
    <path d="M 785.808 205.315381 
L 812.592 205.315381 
M 799.2 205.315381 
L 799.2 144.776002 
M 785.808 144.776002 
L 812.592 144.776002 
" clip-path="url(#paeb73111dd)" style="fill: none; stroke: #ff7f0e; stroke-opacity: 0.8; stroke-width: 2.7; stroke-linecap: square"/>
   </g>
   <g id="line2d_22">
    <path d="M 263.52 321.570312 
L 531.36 333.496352 
L 799.2 368.264283 
" clip-path="url(#paeb73111dd)" style="fill: none; stroke: #ffbb78; stroke-opacity: 0.8; stroke-width: 2.7; stroke-linecap: square"/>
    <defs>
     <path id="me5ec1b913b" d="M 0 3.383948 
C 0.897434 3.383948 1.758231 3.027394 2.392813 2.392813 
C 3.027394 1.758231 3.383948 0.897434 3.383948 0 
C 3.383948 -0.897434 3.027394 -1.758231 2.392813 -2.392813 
C 1.758231 -3.027394 0.897434 -3.383948 0 -3.383948 
C -0.897434 -3.383948 -1.758231 -3.027394 -2.392813 -2.392813 
C -3.027394 -1.758231 -3.383948 -0.897434 -3.383948 0 
C -3.383948 0.897434 -3.027394 1.758231 -2.392813 2.392813 
C -1.758231 3.027394 -0.897434 3.383948 0 3.383948 
z
" style="stroke: #ffbb78; stroke-opacity: 0.8; stroke-width: 2.025"/>
    </defs>
    <g clip-path="url(#paeb73111dd)">
     <use xlink:href="#me5ec1b913b" x="263.52" y="321.570312" style="fill: #ffbb78; fill-opacity: 0.8; stroke: #ffbb78; stroke-opacity: 0.8; stroke-width: 2.025"/>
     <use xlink:href="#me5ec1b913b" x="531.36" y="333.496352" style="fill: #ffbb78; fill-opacity: 0.8; stroke: #ffbb78; stroke-opacity: 0.8; stroke-width: 2.025"/>
     <use xlink:href="#me5ec1b913b" x="799.2" y="368.264283" style="fill: #ffbb78; fill-opacity: 0.8; stroke: #ffbb78; stroke-opacity: 0.8; stroke-width: 2.025"/>
    </g>
   </g>
   <g id="line2d_23">
    <path d="M 250.128 365.797405 
L 276.912 365.797405 
M 263.52 365.797405 
L 263.52 278.746247 
M 250.128 278.746247 
L 276.912 278.746247 
" clip-path="url(#paeb73111dd)" style="fill: none; stroke: #ffbb78; stroke-opacity: 0.8; stroke-width: 2.7; stroke-linecap: square"/>
   </g>
   <g id="line2d_24">
    <path d="M 517.968 365.760433 
L 544.752 365.760433 
M 531.36 365.760433 
L 531.36 300.593552 
M 517.968 300.593552 
L 544.752 300.593552 
" clip-path="url(#paeb73111dd)" style="fill: none; stroke: #ffbb78; stroke-opacity: 0.8; stroke-width: 2.7; stroke-linecap: square"/>
   </g>
   <g id="line2d_25">
    <path d="M 785.808 411.493432 
L 812.592 411.493432 
M 799.2 411.493432 
L 799.2 323.712059 
M 785.808 323.712059 
L 812.592 323.712059 
" clip-path="url(#paeb73111dd)" style="fill: none; stroke: #ffbb78; stroke-opacity: 0.8; stroke-width: 2.7; stroke-linecap: square"/>
   </g>
   <g id="line2d_26">
    <path d="M 263.52 240.556724 
L 531.36 164.098656 
L 799.2 132.162861 
" clip-path="url(#paeb73111dd)" style="fill: none; stroke: #2ca02c; stroke-opacity: 0.8; stroke-width: 2.7; stroke-linecap: square"/>
    <defs>
     <path id="m8f4923b8d5" d="M 0 3.383948 
C 0.897434 3.383948 1.758231 3.027394 2.392813 2.392813 
C 3.027394 1.758231 3.383948 0.897434 3.383948 0 
C 3.383948 -0.897434 3.027394 -1.758231 2.392813 -2.392813 
C 1.758231 -3.027394 0.897434 -3.383948 0 -3.383948 
C -0.897434 -3.383948 -1.758231 -3.027394 -2.392813 -2.392813 
C -3.027394 -1.758231 -3.383948 -0.897434 -3.383948 0 
C -3.383948 0.897434 -3.027394 1.758231 -2.392813 2.392813 
C -1.758231 3.027394 -0.897434 3.383948 0 3.383948 
z
" style="stroke: #2ca02c; stroke-opacity: 0.8; stroke-width: 2.025"/>
    </defs>
    <g clip-path="url(#paeb73111dd)">
     <use xlink:href="#m8f4923b8d5" x="263.52" y="240.556724" style="fill: #2ca02c; fill-opacity: 0.8; stroke: #2ca02c; stroke-opacity: 0.8; stroke-width: 2.025"/>
     <use xlink:href="#m8f4923b8d5" x="531.36" y="164.098656" style="fill: #2ca02c; fill-opacity: 0.8; stroke: #2ca02c; stroke-opacity: 0.8; stroke-width: 2.025"/>
     <use xlink:href="#m8f4923b8d5" x="799.2" y="132.162861" style="fill: #2ca02c; fill-opacity: 0.8; stroke: #2ca02c; stroke-opacity: 0.8; stroke-width: 2.025"/>
    </g>
   </g>
   <g id="line2d_27">
    <path d="M 250.128 273.378057 
L 276.912 273.378057 
M 263.52 273.378057 
L 263.52 207.28835 
M 250.128 207.28835 
L 276.912 207.28835 
" clip-path="url(#paeb73111dd)" style="fill: none; stroke: #2ca02c; stroke-opacity: 0.8; stroke-width: 2.7; stroke-linecap: square"/>
   </g>
   <g id="line2d_28">
    <path d="M 517.968 202.446186 
L 544.752 202.446186 
M 531.36 202.446186 
L 531.36 124.883532 
M 517.968 124.883532 
L 544.752 124.883532 
" clip-path="url(#paeb73111dd)" style="fill: none; stroke: #2ca02c; stroke-opacity: 0.8; stroke-width: 2.7; stroke-linecap: square"/>
   </g>
   <g id="line2d_29">
    <path d="M 785.808 167.374328 
L 812.592 167.374328 
M 799.2 167.374328 
L 799.2 96.4224 
M 785.808 96.4224 
L 812.592 96.4224 
" clip-path="url(#paeb73111dd)" style="fill: none; stroke: #2ca02c; stroke-opacity: 0.8; stroke-width: 2.7; stroke-linecap: square"/>
   </g>
   <g id="line2d_30">
    <path d="M 263.52 335.253882 
L 531.36 342.89723 
L 799.2 311.318812 
" clip-path="url(#paeb73111dd)" style="fill: none; stroke: #98df8a; stroke-opacity: 0.8; stroke-width: 2.7; stroke-linecap: square"/>
    <defs>
     <path id="m7b4b77b041" d="M 0 3.383948 
C 0.897434 3.383948 1.758231 3.027394 2.392813 2.392813 
C 3.027394 1.758231 3.383948 0.897434 3.383948 0 
C 3.383948 -0.897434 3.027394 -1.758231 2.392813 -2.392813 
C 1.758231 -3.027394 0.897434 -3.383948 0 -3.383948 
C -0.897434 -3.383948 -1.758231 -3.027394 -2.392813 -2.392813 
C -3.027394 -1.758231 -3.383948 -0.897434 -3.383948 0 
C -3.383948 0.897434 -3.027394 1.758231 -2.392813 2.392813 
C -1.758231 3.027394 -0.897434 3.383948 0 3.383948 
z
" style="stroke: #98df8a; stroke-opacity: 0.8; stroke-width: 2.025"/>
    </defs>
    <g clip-path="url(#paeb73111dd)">
     <use xlink:href="#m7b4b77b041" x="263.52" y="335.253882" style="fill: #98df8a; fill-opacity: 0.8; stroke: #98df8a; stroke-opacity: 0.8; stroke-width: 2.025"/>
     <use xlink:href="#m7b4b77b041" x="531.36" y="342.89723" style="fill: #98df8a; fill-opacity: 0.8; stroke: #98df8a; stroke-opacity: 0.8; stroke-width: 2.025"/>
     <use xlink:href="#m7b4b77b041" x="799.2" y="311.318812" style="fill: #98df8a; fill-opacity: 0.8; stroke: #98df8a; stroke-opacity: 0.8; stroke-width: 2.025"/>
    </g>
   </g>
   <g id="line2d_31">
    <path d="M 250.128 375.089463 
L 276.912 375.089463 
M 263.52 375.089463 
L 263.52 296.440004 
M 250.128 296.440004 
L 276.912 296.440004 
" clip-path="url(#paeb73111dd)" style="fill: none; stroke: #98df8a; stroke-opacity: 0.8; stroke-width: 2.7; stroke-linecap: square"/>
   </g>
   <g id="line2d_32">
    <path d="M 517.968 389.539915 
L 544.752 389.539915 
M 531.36 389.539915 
L 531.36 298.500888 
M 517.968 298.500888 
L 544.752 298.500888 
" clip-path="url(#paeb73111dd)" style="fill: none; stroke: #98df8a; stroke-opacity: 0.8; stroke-width: 2.7; stroke-linecap: square"/>
   </g>
   <g id="line2d_33">
    <path d="M 785.808 346.751745 
L 812.592 346.751745 
M 799.2 346.751745 
L 799.2 276.339556 
M 785.808 276.339556 
L 812.592 276.339556 
" clip-path="url(#paeb73111dd)" style="fill: none; stroke: #98df8a; stroke-opacity: 0.8; stroke-width: 2.7; stroke-linecap: square"/>
   </g>
   <g id="line2d_34">
    <path d="M 263.52 339.25951 
L 531.36 313.41901 
L 799.2 302.167627 
" clip-path="url(#paeb73111dd)" style="fill: none; stroke: #d62728; stroke-opacity: 0.8; stroke-width: 2.7; stroke-linecap: square"/>
    <defs>
     <path id="m67801d321c" d="M 0 3.383948 
C 0.897434 3.383948 1.758231 3.027394 2.392813 2.392813 
C 3.027394 1.758231 3.383948 0.897434 3.383948 0 
C 3.383948 -0.897434 3.027394 -1.758231 2.392813 -2.392813 
C 1.758231 -3.027394 0.897434 -3.383948 0 -3.383948 
C -0.897434 -3.383948 -1.758231 -3.027394 -2.392813 -2.392813 
C -3.027394 -1.758231 -3.383948 -0.897434 -3.383948 0 
C -3.383948 0.897434 -3.027394 1.758231 -2.392813 2.392813 
C -1.758231 3.027394 -0.897434 3.383948 0 3.383948 
z
" style="stroke: #d62728; stroke-opacity: 0.8; stroke-width: 2.025"/>
    </defs>
    <g clip-path="url(#paeb73111dd)">
     <use xlink:href="#m67801d321c" x="263.52" y="339.25951" style="fill: #d62728; fill-opacity: 0.8; stroke: #d62728; stroke-opacity: 0.8; stroke-width: 2.025"/>
     <use xlink:href="#m67801d321c" x="531.36" y="313.41901" style="fill: #d62728; fill-opacity: 0.8; stroke: #d62728; stroke-opacity: 0.8; stroke-width: 2.025"/>
     <use xlink:href="#m67801d321c" x="799.2" y="302.167627" style="fill: #d62728; fill-opacity: 0.8; stroke: #d62728; stroke-opacity: 0.8; stroke-width: 2.025"/>
    </g>
   </g>
   <g id="line2d_35">
    <path d="M 250.128 386.278797 
L 276.912 386.278797 
M 263.52 386.278797 
L 263.52 293.322325 
M 250.128 293.322325 
L 276.912 293.322325 
" clip-path="url(#paeb73111dd)" style="fill: none; stroke: #d62728; stroke-opacity: 0.8; stroke-width: 2.7; stroke-linecap: square"/>
   </g>
   <g id="line2d_36">
    <path d="M 517.968 358.955371 
L 544.752 358.955371 
M 531.36 358.955371 
L 531.36 268.620124 
M 517.968 268.620124 
L 544.752 268.620124 
" clip-path="url(#paeb73111dd)" style="fill: none; stroke: #d62728; stroke-opacity: 0.8; stroke-width: 2.7; stroke-linecap: square"/>
   </g>
   <g id="line2d_37">
    <path d="M 785.808 339.870248 
L 812.592 339.870248 
M 799.2 339.870248 
L 799.2 264.549076 
M 785.808 264.549076 
L 812.592 264.549076 
" clip-path="url(#paeb73111dd)" style="fill: none; stroke: #d62728; stroke-opacity: 0.8; stroke-width: 2.7; stroke-linecap: square"/>
   </g>
   <g id="line2d_38">
    <path d="M 263.52 326.364045 
L 531.36 299.057349 
L 799.2 268.451468 
" clip-path="url(#paeb73111dd)" style="fill: none; stroke: #ff9896; stroke-opacity: 0.8; stroke-width: 2.7; stroke-linecap: square"/>
    <defs>
     <path id="m5f4c67e948" d="M 0 3.383948 
C 0.897434 3.383948 1.758231 3.027394 2.392813 2.392813 
C 3.027394 1.758231 3.383948 0.897434 3.383948 0 
C 3.383948 -0.897434 3.027394 -1.758231 2.392813 -2.392813 
C 1.758231 -3.027394 0.897434 -3.383948 0 -3.383948 
C -0.897434 -3.383948 -1.758231 -3.027394 -2.392813 -2.392813 
C -3.027394 -1.758231 -3.383948 -0.897434 -3.383948 0 
C -3.383948 0.897434 -3.027394 1.758231 -2.392813 2.392813 
C -1.758231 3.027394 -0.897434 3.383948 0 3.383948 
z
" style="stroke: #ff9896; stroke-opacity: 0.8; stroke-width: 2.025"/>
    </defs>
    <g clip-path="url(#paeb73111dd)">
     <use xlink:href="#m5f4c67e948" x="263.52" y="326.364045" style="fill: #ff9896; fill-opacity: 0.8; stroke: #ff9896; stroke-opacity: 0.8; stroke-width: 2.025"/>
     <use xlink:href="#m5f4c67e948" x="531.36" y="299.057349" style="fill: #ff9896; fill-opacity: 0.8; stroke: #ff9896; stroke-opacity: 0.8; stroke-width: 2.025"/>
     <use xlink:href="#m5f4c67e948" x="799.2" y="268.451468" style="fill: #ff9896; fill-opacity: 0.8; stroke: #ff9896; stroke-opacity: 0.8; stroke-width: 2.025"/>
    </g>
   </g>
   <g id="line2d_39">
    <path d="M 250.128 371.666669 
L 276.912 371.666669 
M 263.52 371.666669 
L 263.52 285.687774 
M 250.128 285.687774 
L 276.912 285.687774 
" clip-path="url(#paeb73111dd)" style="fill: none; stroke: #ff9896; stroke-opacity: 0.8; stroke-width: 2.7; stroke-linecap: square"/>
   </g>
   <g id="line2d_40">
    <path d="M 517.968 333.417746 
L 544.752 333.417746 
M 531.36 333.417746 
L 531.36 260.440398 
M 517.968 260.440398 
L 544.752 260.440398 
" clip-path="url(#paeb73111dd)" style="fill: none; stroke: #ff9896; stroke-opacity: 0.8; stroke-width: 2.7; stroke-linecap: square"/>
   </g>
   <g id="line2d_41">
    <path d="M 785.808 318.134455 
L 812.592 318.134455 
M 799.2 318.134455 
L 799.2 229.617564 
M 785.808 229.617564 
L 812.592 229.617564 
" clip-path="url(#paeb73111dd)" style="fill: none; stroke: #ff9896; stroke-opacity: 0.8; stroke-width: 2.7; stroke-linecap: square"/>
   </g>
   <g id="line2d_42">
    <path d="M 263.52 242.234843 
L 531.36 248.80277 
L 799.2 269.73896 
" clip-path="url(#paeb73111dd)" style="fill: none; stroke: #9467bd; stroke-opacity: 0.8; stroke-width: 2.7; stroke-linecap: square"/>
    <defs>
     <path id="m0205e845be" d="M 0 3.383948 
C 0.897434 3.383948 1.758231 3.027394 2.392813 2.392813 
C 3.027394 1.758231 3.383948 0.897434 3.383948 0 
C 3.383948 -0.897434 3.027394 -1.758231 2.392813 -2.392813 
C 1.758231 -3.027394 0.897434 -3.383948 0 -3.383948 
C -0.897434 -3.383948 -1.758231 -3.027394 -2.392813 -2.392813 
C -3.027394 -1.758231 -3.383948 -0.897434 -3.383948 0 
C -3.383948 0.897434 -3.027394 1.758231 -2.392813 2.392813 
C -1.758231 3.027394 -0.897434 3.383948 0 3.383948 
z
" style="stroke: #9467bd; stroke-opacity: 0.8; stroke-width: 2.025"/>
    </defs>
    <g clip-path="url(#paeb73111dd)">
     <use xlink:href="#m0205e845be" x="263.52" y="242.234843" style="fill: #9467bd; fill-opacity: 0.8; stroke: #9467bd; stroke-opacity: 0.8; stroke-width: 2.025"/>
     <use xlink:href="#m0205e845be" x="531.36" y="248.80277" style="fill: #9467bd; fill-opacity: 0.8; stroke: #9467bd; stroke-opacity: 0.8; stroke-width: 2.025"/>
     <use xlink:href="#m0205e845be" x="799.2" y="269.73896" style="fill: #9467bd; fill-opacity: 0.8; stroke: #9467bd; stroke-opacity: 0.8; stroke-width: 2.025"/>
    </g>
   </g>
   <g id="line2d_43">
    <path d="M 250.128 282.741222 
L 276.912 282.741222 
M 263.52 282.741222 
L 263.52 203.396021 
M 250.128 203.396021 
L 276.912 203.396021 
" clip-path="url(#paeb73111dd)" style="fill: none; stroke: #9467bd; stroke-opacity: 0.8; stroke-width: 2.7; stroke-linecap: square"/>
   </g>
   <g id="line2d_44">
    <path d="M 517.968 279.254881 
L 544.752 279.254881 
M 531.36 279.254881 
L 531.36 219.195946 
M 517.968 219.195946 
L 544.752 219.195946 
" clip-path="url(#paeb73111dd)" style="fill: none; stroke: #9467bd; stroke-opacity: 0.8; stroke-width: 2.7; stroke-linecap: square"/>
   </g>
   <g id="line2d_45">
    <path d="M 785.808 294.912859 
L 812.592 294.912859 
M 799.2 294.912859 
L 799.2 244.518171 
M 785.808 244.518171 
L 812.592 244.518171 
" clip-path="url(#paeb73111dd)" style="fill: none; stroke: #9467bd; stroke-opacity: 0.8; stroke-width: 2.7; stroke-linecap: square"/>
   </g>
   <g id="line2d_46">
    <path d="M 263.52 419.856705 
L 531.36 233.653223 
L 799.2 193.046007 
" clip-path="url(#paeb73111dd)" style="fill: none; stroke: #c5b0d5; stroke-opacity: 0.8; stroke-width: 2.7; stroke-linecap: square"/>
    <defs>
     <path id="m4939e6fc46" d="M 0 3.383948 
C 0.897434 3.383948 1.758231 3.027394 2.392813 2.392813 
C 3.027394 1.758231 3.383948 0.897434 3.383948 0 
C 3.383948 -0.897434 3.027394 -1.758231 2.392813 -2.392813 
C 1.758231 -3.027394 0.897434 -3.383948 0 -3.383948 
C -0.897434 -3.383948 -1.758231 -3.027394 -2.392813 -2.392813 
C -3.027394 -1.758231 -3.383948 -0.897434 -3.383948 0 
C -3.383948 0.897434 -3.027394 1.758231 -2.392813 2.392813 
C -1.758231 3.027394 -0.897434 3.383948 0 3.383948 
z
" style="stroke: #c5b0d5; stroke-opacity: 0.8; stroke-width: 2.025"/>
    </defs>
    <g clip-path="url(#paeb73111dd)">
     <use xlink:href="#m4939e6fc46" x="263.52" y="419.856705" style="fill: #c5b0d5; fill-opacity: 0.8; stroke: #c5b0d5; stroke-opacity: 0.8; stroke-width: 2.025"/>
     <use xlink:href="#m4939e6fc46" x="531.36" y="233.653223" style="fill: #c5b0d5; fill-opacity: 0.8; stroke: #c5b0d5; stroke-opacity: 0.8; stroke-width: 2.025"/>
     <use xlink:href="#m4939e6fc46" x="799.2" y="193.046007" style="fill: #c5b0d5; fill-opacity: 0.8; stroke: #c5b0d5; stroke-opacity: 0.8; stroke-width: 2.025"/>
    </g>
   </g>
   <g id="line2d_47">
    <path d="M 250.128 462.831647 
L 276.912 462.831647 
M 263.52 462.831647 
L 263.52 379.126013 
M 250.128 379.126013 
L 276.912 379.126013 
" clip-path="url(#paeb73111dd)" style="fill: none; stroke: #c5b0d5; stroke-opacity: 0.8; stroke-width: 2.7; stroke-linecap: square"/>
   </g>
   <g id="line2d_48">
    <path d="M 517.968 264.537553 
L 544.752 264.537553 
M 531.36 264.537553 
L 531.36 194.848699 
M 517.968 194.848699 
L 544.752 194.848699 
" clip-path="url(#paeb73111dd)" style="fill: none; stroke: #c5b0d5; stroke-opacity: 0.8; stroke-width: 2.7; stroke-linecap: square"/>
   </g>
   <g id="line2d_49">
    <path d="M 785.808 238.656391 
L 812.592 238.656391 
M 799.2 238.656391 
L 799.2 145.475863 
M 785.808 145.475863 
L 812.592 145.475863 
" clip-path="url(#paeb73111dd)" style="fill: none; stroke: #c5b0d5; stroke-opacity: 0.8; stroke-width: 2.7; stroke-linecap: square"/>
   </g>
   <g id="line2d_50">
    <path d="M 263.52 226.65958 
L 531.36 198.49756 
L 799.2 170.877935 
" clip-path="url(#paeb73111dd)" style="fill: none; stroke: #8c564b; stroke-opacity: 0.8; stroke-width: 2.7; stroke-linecap: square"/>
    <defs>
     <path id="m75640233cd" d="M 0 3.383948 
C 0.897434 3.383948 1.758231 3.027394 2.392813 2.392813 
C 3.027394 1.758231 3.383948 0.897434 3.383948 0 
C 3.383948 -0.897434 3.027394 -1.758231 2.392813 -2.392813 
C 1.758231 -3.027394 0.897434 -3.383948 0 -3.383948 
C -0.897434 -3.383948 -1.758231 -3.027394 -2.392813 -2.392813 
C -3.027394 -1.758231 -3.383948 -0.897434 -3.383948 0 
C -3.383948 0.897434 -3.027394 1.758231 -2.392813 2.392813 
C -1.758231 3.027394 -0.897434 3.383948 0 3.383948 
z
" style="stroke: #8c564b; stroke-opacity: 0.8; stroke-width: 2.025"/>
    </defs>
    <g clip-path="url(#paeb73111dd)">
     <use xlink:href="#m75640233cd" x="263.52" y="226.65958" style="fill: #8c564b; fill-opacity: 0.8; stroke: #8c564b; stroke-opacity: 0.8; stroke-width: 2.025"/>
     <use xlink:href="#m75640233cd" x="531.36" y="198.49756" style="fill: #8c564b; fill-opacity: 0.8; stroke: #8c564b; stroke-opacity: 0.8; stroke-width: 2.025"/>
     <use xlink:href="#m75640233cd" x="799.2" y="170.877935" style="fill: #8c564b; fill-opacity: 0.8; stroke: #8c564b; stroke-opacity: 0.8; stroke-width: 2.025"/>
    </g>
   </g>
   <g id="line2d_51">
    <path d="M 250.128 263.986739 
L 276.912 263.986739 
M 263.52 263.986739 
L 263.52 185.377856 
M 250.128 185.377856 
L 276.912 185.377856 
" clip-path="url(#paeb73111dd)" style="fill: none; stroke: #8c564b; stroke-opacity: 0.8; stroke-width: 2.7; stroke-linecap: square"/>
   </g>
   <g id="line2d_52">
    <path d="M 517.968 230.38782 
L 544.752 230.38782 
M 531.36 230.38782 
L 531.36 167.935553 
M 517.968 167.935553 
L 544.752 167.935553 
" clip-path="url(#paeb73111dd)" style="fill: none; stroke: #8c564b; stroke-opacity: 0.8; stroke-width: 2.7; stroke-linecap: square"/>
   </g>
   <g id="line2d_53">
    <path d="M 785.808 212.349901 
L 812.592 212.349901 
M 799.2 212.349901 
L 799.2 125.455288 
M 785.808 125.455288 
L 812.592 125.455288 
" clip-path="url(#paeb73111dd)" style="fill: none; stroke: #8c564b; stroke-opacity: 0.8; stroke-width: 2.7; stroke-linecap: square"/>
   </g>
   <g id="line2d_54">
    <path d="M 263.52 257.929113 
L 531.36 255.672564 
L 799.2 230.194244 
" clip-path="url(#paeb73111dd)" style="fill: none; stroke: #c49c94; stroke-opacity: 0.8; stroke-width: 2.7; stroke-linecap: square"/>
    <defs>
     <path id="mf452a43217" d="M 0 3.383948 
C 0.897434 3.383948 1.758231 3.027394 2.392813 2.392813 
C 3.027394 1.758231 3.383948 0.897434 3.383948 0 
C 3.383948 -0.897434 3.027394 -1.758231 2.392813 -2.392813 
C 1.758231 -3.027394 0.897434 -3.383948 0 -3.383948 
C -0.897434 -3.383948 -1.758231 -3.027394 -2.392813 -2.392813 
C -3.027394 -1.758231 -3.383948 -0.897434 -3.383948 0 
C -3.383948 0.897434 -3.027394 1.758231 -2.392813 2.392813 
C -1.758231 3.027394 -0.897434 3.383948 0 3.383948 
z
" style="stroke: #c49c94; stroke-opacity: 0.8; stroke-width: 2.025"/>
    </defs>
    <g clip-path="url(#paeb73111dd)">
     <use xlink:href="#mf452a43217" x="263.52" y="257.929113" style="fill: #c49c94; fill-opacity: 0.8; stroke: #c49c94; stroke-opacity: 0.8; stroke-width: 2.025"/>
     <use xlink:href="#mf452a43217" x="531.36" y="255.672564" style="fill: #c49c94; fill-opacity: 0.8; stroke: #c49c94; stroke-opacity: 0.8; stroke-width: 2.025"/>
     <use xlink:href="#mf452a43217" x="799.2" y="230.194244" style="fill: #c49c94; fill-opacity: 0.8; stroke: #c49c94; stroke-opacity: 0.8; stroke-width: 2.025"/>
    </g>
   </g>
   <g id="line2d_55">
    <path d="M 250.128 295.925565 
L 276.912 295.925565 
M 263.52 295.925565 
L 263.52 214.329343 
M 250.128 214.329343 
L 276.912 214.329343 
" clip-path="url(#paeb73111dd)" style="fill: none; stroke: #c49c94; stroke-opacity: 0.8; stroke-width: 2.7; stroke-linecap: square"/>
   </g>
   <g id="line2d_56">
    <path d="M 517.968 296.773288 
L 544.752 296.773288 
M 531.36 296.773288 
L 531.36 215.944755 
M 517.968 215.944755 
L 544.752 215.944755 
" clip-path="url(#paeb73111dd)" style="fill: none; stroke: #c49c94; stroke-opacity: 0.8; stroke-width: 2.7; stroke-linecap: square"/>
   </g>
   <g id="line2d_57">
    <path d="M 785.808 278.752758 
L 812.592 278.752758 
M 799.2 278.752758 
L 799.2 182.981118 
M 785.808 182.981118 
L 812.592 182.981118 
" clip-path="url(#paeb73111dd)" style="fill: none; stroke: #c49c94; stroke-opacity: 0.8; stroke-width: 2.7; stroke-linecap: square"/>
   </g>
   <g id="line2d_58">
    <path d="M 263.52 313.455734 
L 531.36 314.242972 
L 799.2 283.277649 
" clip-path="url(#paeb73111dd)" style="fill: none; stroke: #e377c2; stroke-opacity: 0.8; stroke-width: 2.7; stroke-linecap: square"/>
    <defs>
     <path id="m2f301c437d" d="M 0 3.383948 
C 0.897434 3.383948 1.758231 3.027394 2.392813 2.392813 
C 3.027394 1.758231 3.383948 0.897434 3.383948 0 
C 3.383948 -0.897434 3.027394 -1.758231 2.392813 -2.392813 
C 1.758231 -3.027394 0.897434 -3.383948 0 -3.383948 
C -0.897434 -3.383948 -1.758231 -3.027394 -2.392813 -2.392813 
C -3.027394 -1.758231 -3.383948 -0.897434 -3.383948 0 
C -3.383948 0.897434 -3.027394 1.758231 -2.392813 2.392813 
C -1.758231 3.027394 -0.897434 3.383948 0 3.383948 
z
" style="stroke: #e377c2; stroke-opacity: 0.8; stroke-width: 2.025"/>
    </defs>
    <g clip-path="url(#paeb73111dd)">
     <use xlink:href="#m2f301c437d" x="263.52" y="313.455734" style="fill: #e377c2; fill-opacity: 0.8; stroke: #e377c2; stroke-opacity: 0.8; stroke-width: 2.025"/>
     <use xlink:href="#m2f301c437d" x="531.36" y="314.242972" style="fill: #e377c2; fill-opacity: 0.8; stroke: #e377c2; stroke-opacity: 0.8; stroke-width: 2.025"/>
     <use xlink:href="#m2f301c437d" x="799.2" y="283.277649" style="fill: #e377c2; fill-opacity: 0.8; stroke: #e377c2; stroke-opacity: 0.8; stroke-width: 2.025"/>
    </g>
   </g>
   <g id="line2d_59">
    <path d="M 250.128 340.010128 
L 276.912 340.010128 
M 263.52 340.010128 
L 263.52 288.20857 
M 250.128 288.20857 
L 276.912 288.20857 
" clip-path="url(#paeb73111dd)" style="fill: none; stroke: #e377c2; stroke-opacity: 0.8; stroke-width: 2.7; stroke-linecap: square"/>
   </g>
   <g id="line2d_60">
    <path d="M 517.968 340.042583 
L 544.752 340.042583 
M 531.36 340.042583 
L 531.36 287.02617 
M 517.968 287.02617 
L 544.752 287.02617 
" clip-path="url(#paeb73111dd)" style="fill: none; stroke: #e377c2; stroke-opacity: 0.8; stroke-width: 2.7; stroke-linecap: square"/>
   </g>
   <g id="line2d_61">
    <path d="M 785.808 304.573588 
L 812.592 304.573588 
M 799.2 304.573588 
L 799.2 259.655237 
M 785.808 259.655237 
L 812.592 259.655237 
" clip-path="url(#paeb73111dd)" style="fill: none; stroke: #e377c2; stroke-opacity: 0.8; stroke-width: 2.7; stroke-linecap: square"/>
   </g>
   <g id="line2d_62">
    <path d="M 263.52 368.028841 
L 531.36 386.193554 
L 799.2 364.382016 
" clip-path="url(#paeb73111dd)" style="fill: none; stroke: #f7b6d2; stroke-opacity: 0.8; stroke-width: 2.7; stroke-linecap: square"/>
    <defs>
     <path id="m541cc79004" d="M 0 3.383948 
C 0.897434 3.383948 1.758231 3.027394 2.392813 2.392813 
C 3.027394 1.758231 3.383948 0.897434 3.383948 0 
C 3.383948 -0.897434 3.027394 -1.758231 2.392813 -2.392813 
C 1.758231 -3.027394 0.897434 -3.383948 0 -3.383948 
C -0.897434 -3.383948 -1.758231 -3.027394 -2.392813 -2.392813 
C -3.027394 -1.758231 -3.383948 -0.897434 -3.383948 0 
C -3.383948 0.897434 -3.027394 1.758231 -2.392813 2.392813 
C -1.758231 3.027394 -0.897434 3.383948 0 3.383948 
z
" style="stroke: #f7b6d2; stroke-opacity: 0.8; stroke-width: 2.025"/>
    </defs>
    <g clip-path="url(#paeb73111dd)">
     <use xlink:href="#m541cc79004" x="263.52" y="368.028841" style="fill: #f7b6d2; fill-opacity: 0.8; stroke: #f7b6d2; stroke-opacity: 0.8; stroke-width: 2.025"/>
     <use xlink:href="#m541cc79004" x="531.36" y="386.193554" style="fill: #f7b6d2; fill-opacity: 0.8; stroke: #f7b6d2; stroke-opacity: 0.8; stroke-width: 2.025"/>
     <use xlink:href="#m541cc79004" x="799.2" y="364.382016" style="fill: #f7b6d2; fill-opacity: 0.8; stroke: #f7b6d2; stroke-opacity: 0.8; stroke-width: 2.025"/>
    </g>
   </g>
   <g id="line2d_63">
    <path d="M 250.128 403.914451 
L 276.912 403.914451 
M 263.52 403.914451 
L 263.52 331.663002 
M 250.128 331.663002 
L 276.912 331.663002 
" clip-path="url(#paeb73111dd)" style="fill: none; stroke: #f7b6d2; stroke-opacity: 0.8; stroke-width: 2.7; stroke-linecap: square"/>
   </g>
   <g id="line2d_64">
    <path d="M 517.968 421.800224 
L 544.752 421.800224 
M 531.36 421.800224 
L 531.36 353.535359 
M 517.968 353.535359 
L 544.752 353.535359 
" clip-path="url(#paeb73111dd)" style="fill: none; stroke: #f7b6d2; stroke-opacity: 0.8; stroke-width: 2.7; stroke-linecap: square"/>
   </g>
   <g id="line2d_65">
    <path d="M 785.808 420.897977 
L 812.592 420.897977 
M 799.2 420.897977 
L 799.2 317.27696 
M 785.808 317.27696 
L 812.592 317.27696 
" clip-path="url(#paeb73111dd)" style="fill: none; stroke: #f7b6d2; stroke-opacity: 0.8; stroke-width: 2.7; stroke-linecap: square"/>
   </g>
   <g id="line2d_66">
    <path d="M 263.52 275.705866 
L 531.36 279.706259 
L 799.2 330.854096 
" clip-path="url(#paeb73111dd)" style="fill: none; stroke: #7f7f7f; stroke-opacity: 0.8; stroke-width: 2.7; stroke-linecap: square"/>
    <defs>
     <path id="me49f677c9b" d="M 0 3.383948 
C 0.897434 3.383948 1.758231 3.027394 2.392813 2.392813 
C 3.027394 1.758231 3.383948 0.897434 3.383948 0 
C 3.383948 -0.897434 3.027394 -1.758231 2.392813 -2.392813 
C 1.758231 -3.027394 0.897434 -3.383948 0 -3.383948 
C -0.897434 -3.383948 -1.758231 -3.027394 -2.392813 -2.392813 
C -3.027394 -1.758231 -3.383948 -0.897434 -3.383948 0 
C -3.383948 0.897434 -3.027394 1.758231 -2.392813 2.392813 
C -1.758231 3.027394 -0.897434 3.383948 0 3.383948 
z
" style="stroke: #7f7f7f; stroke-opacity: 0.8; stroke-width: 2.025"/>
    </defs>
    <g clip-path="url(#paeb73111dd)">
     <use xlink:href="#me49f677c9b" x="263.52" y="275.705866" style="fill: #7f7f7f; fill-opacity: 0.8; stroke: #7f7f7f; stroke-opacity: 0.8; stroke-width: 2.025"/>
     <use xlink:href="#me49f677c9b" x="531.36" y="279.706259" style="fill: #7f7f7f; fill-opacity: 0.8; stroke: #7f7f7f; stroke-opacity: 0.8; stroke-width: 2.025"/>
     <use xlink:href="#me49f677c9b" x="799.2" y="330.854096" style="fill: #7f7f7f; fill-opacity: 0.8; stroke: #7f7f7f; stroke-opacity: 0.8; stroke-width: 2.025"/>
    </g>
   </g>
   <g id="line2d_67">
    <path d="M 250.128 311.457514 
L 276.912 311.457514 
M 263.52 311.457514 
L 263.52 235.404277 
M 250.128 235.404277 
L 276.912 235.404277 
" clip-path="url(#paeb73111dd)" style="fill: none; stroke: #7f7f7f; stroke-opacity: 0.8; stroke-width: 2.7; stroke-linecap: square"/>
   </g>
   <g id="line2d_68">
    <path d="M 517.968 318.357522 
L 544.752 318.357522 
M 531.36 318.357522 
L 531.36 242.699908 
M 517.968 242.699908 
L 544.752 242.699908 
" clip-path="url(#paeb73111dd)" style="fill: none; stroke: #7f7f7f; stroke-opacity: 0.8; stroke-width: 2.7; stroke-linecap: square"/>
   </g>
   <g id="line2d_69">
    <path d="M 785.808 368.752413 
L 812.592 368.752413 
M 799.2 368.752413 
L 799.2 295.101109 
M 785.808 295.101109 
L 812.592 295.101109 
" clip-path="url(#paeb73111dd)" style="fill: none; stroke: #7f7f7f; stroke-opacity: 0.8; stroke-width: 2.7; stroke-linecap: square"/>
   </g>
   <g id="line2d_70"/>
   <g id="line2d_71"/>
   <g id="line2d_72"/>
   <g id="line2d_73"/>
   <g id="line2d_74"/>
   <g id="line2d_75"/>
   <g id="line2d_76"/>
   <g id="line2d_77"/>
   <g id="line2d_78"/>
   <g id="line2d_79"/>
   <g id="line2d_80"/>
   <g id="line2d_81"/>
   <g id="line2d_82"/>
   <g id="line2d_83"/>
   <g id="line2d_84"/>
   <g id="patch_3">
    <path d="M 129.6 553.6512 
L 129.6 74.6496 
" style="fill: none; stroke: #000000; stroke-width: 0.8; stroke-linejoin: miter; stroke-linecap: square"/>
   </g>
   <g id="patch_4">
    <path d="M 933.12 553.6512 
L 933.12 74.6496 
" style="fill: none; stroke: #000000; stroke-width: 0.8; stroke-linejoin: miter; stroke-linecap: square"/>
   </g>
   <g id="patch_5">
    <path d="M 129.6 553.6512 
L 933.12 553.6512 
" style="fill: none; stroke: #000000; stroke-width: 0.8; stroke-linejoin: miter; stroke-linecap: square"/>
   </g>
   <g id="patch_6">
    <path d="M 129.6 74.6496 
L 933.12 74.6496 
" style="fill: none; stroke: #000000; stroke-width: 0.8; stroke-linejoin: miter; stroke-linecap: square"/>
   </g>
   <g id="text_12">
    <!-- ASEM Per Subject: Color Red -->
    <g transform="translate(317.396719 68.410538) scale(0.3 -0.3)">
     <defs>
      <path id="DejaVuSans-72" d="M 2631 2963 
Q 2534 3019 2420 3045 
Q 2306 3072 2169 3072 
Q 1681 3072 1420 2755 
Q 1159 2438 1159 1844 
L 1159 0 
L 581 0 
L 581 3500 
L 1159 3500 
L 1159 2956 
Q 1341 3275 1631 3429 
Q 1922 3584 2338 3584 
Q 2397 3584 2469 3576 
Q 2541 3569 2628 3553 
L 2631 2963 
z
" transform="scale(0.015625)"/>
      <path id="DejaVuSans-75" d="M 544 1381 
L 544 3500 
L 1119 3500 
L 1119 1403 
Q 1119 906 1312 657 
Q 1506 409 1894 409 
Q 2359 409 2629 706 
Q 2900 1003 2900 1516 
L 2900 3500 
L 3475 3500 
L 3475 0 
L 2900 0 
L 2900 538 
Q 2691 219 2414 64 
Q 2138 -91 1772 -91 
Q 1169 -91 856 284 
Q 544 659 544 1381 
z
M 1991 3584 
L 1991 3584 
z
" transform="scale(0.015625)"/>
      <path id="DejaVuSans-62" d="M 3116 1747 
Q 3116 2381 2855 2742 
Q 2594 3103 2138 3103 
Q 1681 3103 1420 2742 
Q 1159 2381 1159 1747 
Q 1159 1113 1420 752 
Q 1681 391 2138 391 
Q 2594 391 2855 752 
Q 3116 1113 3116 1747 
z
M 1159 2969 
Q 1341 3281 1617 3432 
Q 1894 3584 2278 3584 
Q 2916 3584 3314 3078 
Q 3713 2572 3713 1747 
Q 3713 922 3314 415 
Q 2916 -91 2278 -91 
Q 1894 -91 1617 61 
Q 1341 213 1159 525 
L 1159 0 
L 581 0 
L 581 4863 
L 1159 4863 
L 1159 2969 
z
" transform="scale(0.015625)"/>
      <path id="DejaVuSans-6a" d="M 603 3500 
L 1178 3500 
L 1178 -63 
Q 1178 -731 923 -1031 
Q 669 -1331 103 -1331 
L -116 -1331 
L -116 -844 
L 38 -844 
Q 366 -844 484 -692 
Q 603 -541 603 -63 
L 603 3500 
z
M 603 4863 
L 1178 4863 
L 1178 4134 
L 603 4134 
L 603 4863 
z
" transform="scale(0.015625)"/>
      <path id="DejaVuSans-63" d="M 3122 3366 
L 3122 2828 
Q 2878 2963 2633 3030 
Q 2388 3097 2138 3097 
Q 1578 3097 1268 2742 
Q 959 2388 959 1747 
Q 959 1106 1268 751 
Q 1578 397 2138 397 
Q 2388 397 2633 464 
Q 2878 531 3122 666 
L 3122 134 
Q 2881 22 2623 -34 
Q 2366 -91 2075 -91 
Q 1284 -91 818 406 
Q 353 903 353 1747 
Q 353 2603 823 3093 
Q 1294 3584 2113 3584 
Q 2378 3584 2631 3529 
Q 2884 3475 3122 3366 
z
" transform="scale(0.015625)"/>
      <path id="DejaVuSans-3a" d="M 750 794 
L 1409 794 
L 1409 0 
L 750 0 
L 750 794 
z
M 750 3309 
L 1409 3309 
L 1409 2516 
L 750 2516 
L 750 3309 
z
" transform="scale(0.015625)"/>
      <path id="DejaVuSans-43" d="M 4122 4306 
L 4122 3641 
Q 3803 3938 3442 4084 
Q 3081 4231 2675 4231 
Q 1875 4231 1450 3742 
Q 1025 3253 1025 2328 
Q 1025 1406 1450 917 
Q 1875 428 2675 428 
Q 3081 428 3442 575 
Q 3803 722 4122 1019 
L 4122 359 
Q 3791 134 3420 21 
Q 3050 -91 2638 -91 
Q 1578 -91 968 557 
Q 359 1206 359 2328 
Q 359 3453 968 4101 
Q 1578 4750 2638 4750 
Q 3056 4750 3426 4639 
Q 3797 4528 4122 4306 
z
" transform="scale(0.015625)"/>
      <path id="DejaVuSans-6f" d="M 1959 3097 
Q 1497 3097 1228 2736 
Q 959 2375 959 1747 
Q 959 1119 1226 758 
Q 1494 397 1959 397 
Q 2419 397 2687 759 
Q 2956 1122 2956 1747 
Q 2956 2369 2687 2733 
Q 2419 3097 1959 3097 
z
M 1959 3584 
Q 2709 3584 3137 3096 
Q 3566 2609 3566 1747 
Q 3566 888 3137 398 
Q 2709 -91 1959 -91 
Q 1206 -91 779 398 
Q 353 888 353 1747 
Q 353 2609 779 3096 
Q 1206 3584 1959 3584 
z
" transform="scale(0.015625)"/>
      <path id="DejaVuSans-6c" d="M 603 4863 
L 1178 4863 
L 1178 0 
L 603 0 
L 603 4863 
z
" transform="scale(0.015625)"/>
     </defs>
     <use xlink:href="#DejaVuSans-41"/>
     <use xlink:href="#DejaVuSans-53" x="68.408203"/>
     <use xlink:href="#DejaVuSans-45" x="131.884766"/>
     <use xlink:href="#DejaVuSans-4d" x="195.068359"/>
     <use xlink:href="#DejaVuSans-20" x="281.347656"/>
     <use xlink:href="#DejaVuSans-50" x="313.134766"/>
     <use xlink:href="#DejaVuSans-65" x="369.8125"/>
     <use xlink:href="#DejaVuSans-72" x="431.335938"/>
     <use xlink:href="#DejaVuSans-20" x="472.449219"/>
     <use xlink:href="#DejaVuSans-53" x="504.236328"/>
     <use xlink:href="#DejaVuSans-75" x="567.712891"/>
     <use xlink:href="#DejaVuSans-62" x="631.091797"/>
     <use xlink:href="#DejaVuSans-6a" x="694.568359"/>
     <use xlink:href="#DejaVuSans-65" x="722.351562"/>
     <use xlink:href="#DejaVuSans-63" x="783.875"/>
     <use xlink:href="#DejaVuSans-74" x="838.855469"/>
     <use xlink:href="#DejaVuSans-3a" x="878.064453"/>
     <use xlink:href="#DejaVuSans-20" x="911.755859"/>
     <use xlink:href="#DejaVuSans-43" x="943.542969"/>
     <use xlink:href="#DejaVuSans-6f" x="1013.367188"/>
     <use xlink:href="#DejaVuSans-6c" x="1074.548828"/>
     <use xlink:href="#DejaVuSans-6f" x="1102.332031"/>
     <use xlink:href="#DejaVuSans-72" x="1163.513672"/>
     <use xlink:href="#DejaVuSans-20" x="1204.626953"/>
     <use xlink:href="#DejaVuSans-52" x="1236.414062"/>
     <use xlink:href="#DejaVuSans-65" x="1301.396484"/>
     <use xlink:href="#DejaVuSans-64" x="1362.919922"/>
    </g>
   </g>
   <g id="legend_1">
    <g id="patch_7">
     <path d="M 829.67 530.99335 
L 919.12 530.99335 
Q 923.12 530.99335 923.12 526.99335 
L 923.12 88.6496 
Q 923.12 84.6496 919.12 84.6496 
L 829.67 84.6496 
Q 825.67 84.6496 825.67 88.6496 
L 825.67 526.99335 
Q 825.67 530.99335 829.67 530.99335 
z
" style="fill: #ffffff; opacity: 0.8; stroke: #cccccc; stroke-linejoin: miter"/>
    </g>
    <g id="line2d_85">
     <path d="M 833.67 100.846475 
L 853.67 100.846475 
L 873.67 100.846475 
" style="fill: none; stroke: #1f77b4; stroke-opacity: 0.8; stroke-width: 2.7; stroke-linecap: square"/>
     <g>
      <use xlink:href="#md4bc26694a" x="853.67" y="100.846475" style="fill: #1f77b4; fill-opacity: 0.8; stroke: #1f77b4; stroke-opacity: 0.8; stroke-width: 2.025"/>
     </g>
    </g>
    <g id="text_13">
     <!-- 1 -->
     <g transform="translate(889.67 107.846475) scale(0.2 -0.2)">
      <use xlink:href="#DejaVuSans-31"/>
     </g>
    </g>
    <g id="line2d_86">
     <path d="M 833.67 130.202725 
L 853.67 130.202725 
L 873.67 130.202725 
" style="fill: none; stroke: #aec7e8; stroke-opacity: 0.8; stroke-width: 2.7; stroke-linecap: square"/>
     <g>
      <use xlink:href="#m2ca866d71d" x="853.67" y="130.202725" style="fill: #aec7e8; fill-opacity: 0.8; stroke: #aec7e8; stroke-opacity: 0.8; stroke-width: 2.025"/>
     </g>
    </g>
    <g id="text_14">
     <!-- 2 -->
     <g transform="translate(889.67 137.202725) scale(0.2 -0.2)">
      <use xlink:href="#DejaVuSans-32"/>
     </g>
    </g>
    <g id="line2d_87">
     <path d="M 833.67 159.558975 
L 853.67 159.558975 
L 873.67 159.558975 
" style="fill: none; stroke: #ff7f0e; stroke-opacity: 0.8; stroke-width: 2.7; stroke-linecap: square"/>
     <g>
      <use xlink:href="#mda88834857" x="853.67" y="159.558975" style="fill: #ff7f0e; fill-opacity: 0.8; stroke: #ff7f0e; stroke-opacity: 0.8; stroke-width: 2.025"/>
     </g>
    </g>
    <g id="text_15">
     <!-- 3 -->
     <g transform="translate(889.67 166.558975) scale(0.2 -0.2)">
      <defs>
       <path id="DejaVuSans-33" d="M 2597 2516 
Q 3050 2419 3304 2112 
Q 3559 1806 3559 1356 
Q 3559 666 3084 287 
Q 2609 -91 1734 -91 
Q 1441 -91 1130 -33 
Q 819 25 488 141 
L 488 750 
Q 750 597 1062 519 
Q 1375 441 1716 441 
Q 2309 441 2620 675 
Q 2931 909 2931 1356 
Q 2931 1769 2642 2001 
Q 2353 2234 1838 2234 
L 1294 2234 
L 1294 2753 
L 1863 2753 
Q 2328 2753 2575 2939 
Q 2822 3125 2822 3475 
Q 2822 3834 2567 4026 
Q 2313 4219 1838 4219 
Q 1578 4219 1281 4162 
Q 984 4106 628 3988 
L 628 4550 
Q 988 4650 1302 4700 
Q 1616 4750 1894 4750 
Q 2613 4750 3031 4423 
Q 3450 4097 3450 3541 
Q 3450 3153 3228 2886 
Q 3006 2619 2597 2516 
z
" transform="scale(0.015625)"/>
      </defs>
      <use xlink:href="#DejaVuSans-33"/>
     </g>
    </g>
    <g id="line2d_88">
     <path d="M 833.67 188.915225 
L 853.67 188.915225 
L 873.67 188.915225 
" style="fill: none; stroke: #ffbb78; stroke-opacity: 0.8; stroke-width: 2.7; stroke-linecap: square"/>
     <g>
      <use xlink:href="#me5ec1b913b" x="853.67" y="188.915225" style="fill: #ffbb78; fill-opacity: 0.8; stroke: #ffbb78; stroke-opacity: 0.8; stroke-width: 2.025"/>
     </g>
    </g>
    <g id="text_16">
     <!-- 4 -->
     <g transform="translate(889.67 195.915225) scale(0.2 -0.2)">
      <defs>
       <path id="DejaVuSans-34" d="M 2419 4116 
L 825 1625 
L 2419 1625 
L 2419 4116 
z
M 2253 4666 
L 3047 4666 
L 3047 1625 
L 3713 1625 
L 3713 1100 
L 3047 1100 
L 3047 0 
L 2419 0 
L 2419 1100 
L 313 1100 
L 313 1709 
L 2253 4666 
z
" transform="scale(0.015625)"/>
      </defs>
      <use xlink:href="#DejaVuSans-34"/>
     </g>
    </g>
    <g id="line2d_89">
     <path d="M 833.67 218.271475 
L 853.67 218.271475 
L 873.67 218.271475 
" style="fill: none; stroke: #2ca02c; stroke-opacity: 0.8; stroke-width: 2.7; stroke-linecap: square"/>
     <g>
      <use xlink:href="#m8f4923b8d5" x="853.67" y="218.271475" style="fill: #2ca02c; fill-opacity: 0.8; stroke: #2ca02c; stroke-opacity: 0.8; stroke-width: 2.025"/>
     </g>
    </g>
    <g id="text_17">
     <!-- 5 -->
     <g transform="translate(889.67 225.271475) scale(0.2 -0.2)">
      <use xlink:href="#DejaVuSans-35"/>
     </g>
    </g>
    <g id="line2d_90">
     <path d="M 833.67 247.627725 
L 853.67 247.627725 
L 873.67 247.627725 
" style="fill: none; stroke: #98df8a; stroke-opacity: 0.8; stroke-width: 2.7; stroke-linecap: square"/>
     <g>
      <use xlink:href="#m7b4b77b041" x="853.67" y="247.627725" style="fill: #98df8a; fill-opacity: 0.8; stroke: #98df8a; stroke-opacity: 0.8; stroke-width: 2.025"/>
     </g>
    </g>
    <g id="text_18">
     <!-- 6 -->
     <g transform="translate(889.67 254.627725) scale(0.2 -0.2)">
      <defs>
       <path id="DejaVuSans-36" d="M 2113 2584 
Q 1688 2584 1439 2293 
Q 1191 2003 1191 1497 
Q 1191 994 1439 701 
Q 1688 409 2113 409 
Q 2538 409 2786 701 
Q 3034 994 3034 1497 
Q 3034 2003 2786 2293 
Q 2538 2584 2113 2584 
z
M 3366 4563 
L 3366 3988 
Q 3128 4100 2886 4159 
Q 2644 4219 2406 4219 
Q 1781 4219 1451 3797 
Q 1122 3375 1075 2522 
Q 1259 2794 1537 2939 
Q 1816 3084 2150 3084 
Q 2853 3084 3261 2657 
Q 3669 2231 3669 1497 
Q 3669 778 3244 343 
Q 2819 -91 2113 -91 
Q 1303 -91 875 529 
Q 447 1150 447 2328 
Q 447 3434 972 4092 
Q 1497 4750 2381 4750 
Q 2619 4750 2861 4703 
Q 3103 4656 3366 4563 
z
" transform="scale(0.015625)"/>
      </defs>
      <use xlink:href="#DejaVuSans-36"/>
     </g>
    </g>
    <g id="line2d_91">
     <path d="M 833.67 276.983975 
L 853.67 276.983975 
L 873.67 276.983975 
" style="fill: none; stroke: #d62728; stroke-opacity: 0.8; stroke-width: 2.7; stroke-linecap: square"/>
     <g>
      <use xlink:href="#m67801d321c" x="853.67" y="276.983975" style="fill: #d62728; fill-opacity: 0.8; stroke: #d62728; stroke-opacity: 0.8; stroke-width: 2.025"/>
     </g>
    </g>
    <g id="text_19">
     <!-- 7 -->
     <g transform="translate(889.67 283.983975) scale(0.2 -0.2)">
      <use xlink:href="#DejaVuSans-37"/>
     </g>
    </g>
    <g id="line2d_92">
     <path d="M 833.67 306.340225 
L 853.67 306.340225 
L 873.67 306.340225 
" style="fill: none; stroke: #ff9896; stroke-opacity: 0.8; stroke-width: 2.7; stroke-linecap: square"/>
     <g>
      <use xlink:href="#m5f4c67e948" x="853.67" y="306.340225" style="fill: #ff9896; fill-opacity: 0.8; stroke: #ff9896; stroke-opacity: 0.8; stroke-width: 2.025"/>
     </g>
    </g>
    <g id="text_20">
     <!-- 8 -->
     <g transform="translate(889.67 313.340225) scale(0.2 -0.2)">
      <defs>
       <path id="DejaVuSans-38" d="M 2034 2216 
Q 1584 2216 1326 1975 
Q 1069 1734 1069 1313 
Q 1069 891 1326 650 
Q 1584 409 2034 409 
Q 2484 409 2743 651 
Q 3003 894 3003 1313 
Q 3003 1734 2745 1975 
Q 2488 2216 2034 2216 
z
M 1403 2484 
Q 997 2584 770 2862 
Q 544 3141 544 3541 
Q 544 4100 942 4425 
Q 1341 4750 2034 4750 
Q 2731 4750 3128 4425 
Q 3525 4100 3525 3541 
Q 3525 3141 3298 2862 
Q 3072 2584 2669 2484 
Q 3125 2378 3379 2068 
Q 3634 1759 3634 1313 
Q 3634 634 3220 271 
Q 2806 -91 2034 -91 
Q 1263 -91 848 271 
Q 434 634 434 1313 
Q 434 1759 690 2068 
Q 947 2378 1403 2484 
z
M 1172 3481 
Q 1172 3119 1398 2916 
Q 1625 2713 2034 2713 
Q 2441 2713 2670 2916 
Q 2900 3119 2900 3481 
Q 2900 3844 2670 4047 
Q 2441 4250 2034 4250 
Q 1625 4250 1398 4047 
Q 1172 3844 1172 3481 
z
" transform="scale(0.015625)"/>
      </defs>
      <use xlink:href="#DejaVuSans-38"/>
     </g>
    </g>
    <g id="line2d_93">
     <path d="M 833.67 335.696475 
L 853.67 335.696475 
L 873.67 335.696475 
" style="fill: none; stroke: #9467bd; stroke-opacity: 0.8; stroke-width: 2.7; stroke-linecap: square"/>
     <g>
      <use xlink:href="#m0205e845be" x="853.67" y="335.696475" style="fill: #9467bd; fill-opacity: 0.8; stroke: #9467bd; stroke-opacity: 0.8; stroke-width: 2.025"/>
     </g>
    </g>
    <g id="text_21">
     <!-- 10 -->
     <g transform="translate(889.67 342.696475) scale(0.2 -0.2)">
      <use xlink:href="#DejaVuSans-31"/>
      <use xlink:href="#DejaVuSans-30" x="63.623047"/>
     </g>
    </g>
    <g id="line2d_94">
     <path d="M 833.67 365.052725 
L 853.67 365.052725 
L 873.67 365.052725 
" style="fill: none; stroke: #c5b0d5; stroke-opacity: 0.8; stroke-width: 2.7; stroke-linecap: square"/>
     <g>
      <use xlink:href="#m4939e6fc46" x="853.67" y="365.052725" style="fill: #c5b0d5; fill-opacity: 0.8; stroke: #c5b0d5; stroke-opacity: 0.8; stroke-width: 2.025"/>
     </g>
    </g>
    <g id="text_22">
     <!-- 11 -->
     <g transform="translate(889.67 372.052725) scale(0.2 -0.2)">
      <use xlink:href="#DejaVuSans-31"/>
      <use xlink:href="#DejaVuSans-31" x="63.623047"/>
     </g>
    </g>
    <g id="line2d_95">
     <path d="M 833.67 394.408975 
L 853.67 394.408975 
L 873.67 394.408975 
" style="fill: none; stroke: #8c564b; stroke-opacity: 0.8; stroke-width: 2.7; stroke-linecap: square"/>
     <g>
      <use xlink:href="#m75640233cd" x="853.67" y="394.408975" style="fill: #8c564b; fill-opacity: 0.8; stroke: #8c564b; stroke-opacity: 0.8; stroke-width: 2.025"/>
     </g>
    </g>
    <g id="text_23">
     <!-- 12 -->
     <g transform="translate(889.67 401.408975) scale(0.2 -0.2)">
      <use xlink:href="#DejaVuSans-31"/>
      <use xlink:href="#DejaVuSans-32" x="63.623047"/>
     </g>
    </g>
    <g id="line2d_96">
     <path d="M 833.67 423.765225 
L 853.67 423.765225 
L 873.67 423.765225 
" style="fill: none; stroke: #c49c94; stroke-opacity: 0.8; stroke-width: 2.7; stroke-linecap: square"/>
     <g>
      <use xlink:href="#mf452a43217" x="853.67" y="423.765225" style="fill: #c49c94; fill-opacity: 0.8; stroke: #c49c94; stroke-opacity: 0.8; stroke-width: 2.025"/>
     </g>
    </g>
    <g id="text_24">
     <!-- 13 -->
     <g transform="translate(889.67 430.765225) scale(0.2 -0.2)">
      <use xlink:href="#DejaVuSans-31"/>
      <use xlink:href="#DejaVuSans-33" x="63.623047"/>
     </g>
    </g>
    <g id="line2d_97">
     <path d="M 833.67 453.121475 
L 853.67 453.121475 
L 873.67 453.121475 
" style="fill: none; stroke: #e377c2; stroke-opacity: 0.8; stroke-width: 2.7; stroke-linecap: square"/>
     <g>
      <use xlink:href="#m2f301c437d" x="853.67" y="453.121475" style="fill: #e377c2; fill-opacity: 0.8; stroke: #e377c2; stroke-opacity: 0.8; stroke-width: 2.025"/>
     </g>
    </g>
    <g id="text_25">
     <!-- 14 -->
     <g transform="translate(889.67 460.121475) scale(0.2 -0.2)">
      <use xlink:href="#DejaVuSans-31"/>
      <use xlink:href="#DejaVuSans-34" x="63.623047"/>
     </g>
    </g>
    <g id="line2d_98">
     <path d="M 833.67 482.477725 
L 853.67 482.477725 
L 873.67 482.477725 
" style="fill: none; stroke: #f7b6d2; stroke-opacity: 0.8; stroke-width: 2.7; stroke-linecap: square"/>
     <g>
      <use xlink:href="#m541cc79004" x="853.67" y="482.477725" style="fill: #f7b6d2; fill-opacity: 0.8; stroke: #f7b6d2; stroke-opacity: 0.8; stroke-width: 2.025"/>
     </g>
    </g>
    <g id="text_26">
     <!-- 15 -->
     <g transform="translate(889.67 489.477725) scale(0.2 -0.2)">
      <use xlink:href="#DejaVuSans-31"/>
      <use xlink:href="#DejaVuSans-35" x="63.623047"/>
     </g>
    </g>
    <g id="line2d_99">
     <path d="M 833.67 511.833975 
L 853.67 511.833975 
L 873.67 511.833975 
" style="fill: none; stroke: #7f7f7f; stroke-opacity: 0.8; stroke-width: 2.7; stroke-linecap: square"/>
     <g>
      <use xlink:href="#me49f677c9b" x="853.67" y="511.833975" style="fill: #7f7f7f; fill-opacity: 0.8; stroke: #7f7f7f; stroke-opacity: 0.8; stroke-width: 2.025"/>
     </g>
    </g>
    <g id="text_27">
     <!-- 16 -->
     <g transform="translate(889.67 518.833975) scale(0.2 -0.2)">
      <use xlink:href="#DejaVuSans-31"/>
      <use xlink:href="#DejaVuSans-36" x="63.623047"/>
     </g>
    </g>
   </g>
  </g>
 </g>
 <defs>
  <clipPath id="paeb73111dd">
   <rect x="129.6" y="74.6496" width="803.52" height="479.0016"/>
  </clipPath>
 </defs>
</svg>
