<?xml version="1.0" encoding="utf-8" standalone="no"?>
<!DOCTYPE svg PUBLIC "-//W3C//DTD SVG 1.1//EN"
  "http://www.w3.org/Graphics/SVG/1.1/DTD/svg11.dtd">
<svg xmlns:xlink="http://www.w3.org/1999/xlink" width="1843.2pt" height="1010.88pt" viewBox="0 0 1843.2 1010.88" xmlns="http://www.w3.org/2000/svg" version="1.1">
 <metadata>
  <rdf:RDF xmlns:dc="http://purl.org/dc/elements/1.1/" xmlns:cc="http://creativecommons.org/ns#" xmlns:rdf="http://www.w3.org/1999/02/22-rdf-syntax-ns#">
   <cc:Work>
    <dc:type rdf:resource="http://purl.org/dc/dcmitype/StillImage"/>
    <dc:date>2024-12-02T15:41:05.952201</dc:date>
    <dc:format>image/svg+xml</dc:format>
    <dc:creator>
     <cc:Agent>
      <dc:title>Matplotlib v3.9.2, https://matplotlib.org/</dc:title>
     </cc:Agent>
    </dc:creator>
   </cc:Work>
  </rdf:RDF>
 </metadata>
 <defs>
  <style type="text/css">*{stroke-linejoin: round; stroke-linecap: butt}</style>
 </defs>
 <g id="figure_1">
  <g id="patch_1">
   <path d="M 0 1010.88 
L 1843.2 1010.88 
L 1843.2 0 
L 0 0 
z
" style="fill: #ffffff"/>
  </g>
  <g id="axes_1">
   <g id="patch_2">
    <path d="M 230.4 899.6832 
L 1658.88 899.6832 
L 1658.88 121.3056 
L 230.4 121.3056 
z
" style="fill: #ffffff"/>
   </g>
   <g id="matplotlib.axis_1">
    <g id="xtick_1">
     <g id="line2d_1">
      <defs>
       <path id="m5deb005a67" d="M 0 0 
L 0 3.5 
" style="stroke: #000000; stroke-width: 0.8"/>
      </defs>
      <g>
       <use xlink:href="#m5deb005a67" x="468.48" y="899.6832" style="stroke: #000000; stroke-width: 0.8"/>
      </g>
     </g>
     <g id="text_1">
      <!-- 25.0 -->
      <g transform="translate(440.647969 925.679294) scale(0.25 -0.25)">
       <defs>
        <path id="DejaVuSans-32" d="M 1228 531 
L 3431 531 
L 3431 0 
L 469 0 
L 469 531 
Q 828 903 1448 1529 
Q 2069 2156 2228 2338 
Q 2531 2678 2651 2914 
Q 2772 3150 2772 3378 
Q 2772 3750 2511 3984 
Q 2250 4219 1831 4219 
Q 1534 4219 1204 4116 
Q 875 4013 500 3803 
L 500 4441 
Q 881 4594 1212 4672 
Q 1544 4750 1819 4750 
Q 2544 4750 2975 4387 
Q 3406 4025 3406 3419 
Q 3406 3131 3298 2873 
Q 3191 2616 2906 2266 
Q 2828 2175 2409 1742 
Q 1991 1309 1228 531 
z
" transform="scale(0.015625)"/>
        <path id="DejaVuSans-35" d="M 691 4666 
L 3169 4666 
L 3169 4134 
L 1269 4134 
L 1269 2991 
Q 1406 3038 1543 3061 
Q 1681 3084 1819 3084 
Q 2600 3084 3056 2656 
Q 3513 2228 3513 1497 
Q 3513 744 3044 326 
Q 2575 -91 1722 -91 
Q 1428 -91 1123 -41 
Q 819 9 494 109 
L 494 744 
Q 775 591 1075 516 
Q 1375 441 1709 441 
Q 2250 441 2565 725 
Q 2881 1009 2881 1497 
Q 2881 1984 2565 2268 
Q 2250 2553 1709 2553 
Q 1456 2553 1204 2497 
Q 953 2441 691 2322 
L 691 4666 
z
" transform="scale(0.015625)"/>
        <path id="DejaVuSans-2e" d="M 684 794 
L 1344 794 
L 1344 0 
L 684 0 
L 684 794 
z
" transform="scale(0.015625)"/>
        <path id="DejaVuSans-30" d="M 2034 4250 
Q 1547 4250 1301 3770 
Q 1056 3291 1056 2328 
Q 1056 1369 1301 889 
Q 1547 409 2034 409 
Q 2525 409 2770 889 
Q 3016 1369 3016 2328 
Q 3016 3291 2770 3770 
Q 2525 4250 2034 4250 
z
M 2034 4750 
Q 2819 4750 3233 4129 
Q 3647 3509 3647 2328 
Q 3647 1150 3233 529 
Q 2819 -91 2034 -91 
Q 1250 -91 836 529 
Q 422 1150 422 2328 
Q 422 3509 836 4129 
Q 1250 4750 2034 4750 
z
" transform="scale(0.015625)"/>
       </defs>
       <use xlink:href="#DejaVuSans-32"/>
       <use xlink:href="#DejaVuSans-35" x="63.623047"/>
       <use xlink:href="#DejaVuSans-2e" x="127.246094"/>
       <use xlink:href="#DejaVuSans-30" x="159.033203"/>
      </g>
     </g>
    </g>
    <g id="xtick_2">
     <g id="line2d_2">
      <g>
       <use xlink:href="#m5deb005a67" x="944.64" y="899.6832" style="stroke: #000000; stroke-width: 0.8"/>
      </g>
     </g>
     <g id="text_2">
      <!-- 50.0 -->
      <g transform="translate(916.807969 925.679294) scale(0.25 -0.25)">
       <use xlink:href="#DejaVuSans-35"/>
       <use xlink:href="#DejaVuSans-30" x="63.623047"/>
       <use xlink:href="#DejaVuSans-2e" x="127.246094"/>
       <use xlink:href="#DejaVuSans-30" x="159.033203"/>
      </g>
     </g>
    </g>
    <g id="xtick_3">
     <g id="line2d_3">
      <g>
       <use xlink:href="#m5deb005a67" x="1420.8" y="899.6832" style="stroke: #000000; stroke-width: 0.8"/>
      </g>
     </g>
     <g id="text_3">
      <!-- 75.0 -->
      <g transform="translate(1392.967969 925.679294) scale(0.25 -0.25)">
       <defs>
        <path id="DejaVuSans-37" d="M 525 4666 
L 3525 4666 
L 3525 4397 
L 1831 0 
L 1172 0 
L 2766 4134 
L 525 4134 
L 525 4666 
z
" transform="scale(0.015625)"/>
       </defs>
       <use xlink:href="#DejaVuSans-37"/>
       <use xlink:href="#DejaVuSans-35" x="63.623047"/>
       <use xlink:href="#DejaVuSans-2e" x="127.246094"/>
       <use xlink:href="#DejaVuSans-30" x="159.033203"/>
      </g>
     </g>
    </g>
    <g id="text_4">
     <!-- P(Right|RED) -->
     <g transform="translate(847.887656 957.805075) scale(0.3 -0.3)">
      <defs>
       <path id="DejaVuSans-50" d="M 1259 4147 
L 1259 2394 
L 2053 2394 
Q 2494 2394 2734 2622 
Q 2975 2850 2975 3272 
Q 2975 3691 2734 3919 
Q 2494 4147 2053 4147 
L 1259 4147 
z
M 628 4666 
L 2053 4666 
Q 2838 4666 3239 4311 
Q 3641 3956 3641 3272 
Q 3641 2581 3239 2228 
Q 2838 1875 2053 1875 
L 1259 1875 
L 1259 0 
L 628 0 
L 628 4666 
z
" transform="scale(0.015625)"/>
       <path id="DejaVuSans-28" d="M 1984 4856 
Q 1566 4138 1362 3434 
Q 1159 2731 1159 2009 
Q 1159 1288 1364 580 
Q 1569 -128 1984 -844 
L 1484 -844 
Q 1016 -109 783 600 
Q 550 1309 550 2009 
Q 550 2706 781 3412 
Q 1013 4119 1484 4856 
L 1984 4856 
z
" transform="scale(0.015625)"/>
       <path id="DejaVuSans-52" d="M 2841 2188 
Q 3044 2119 3236 1894 
Q 3428 1669 3622 1275 
L 4263 0 
L 3584 0 
L 2988 1197 
Q 2756 1666 2539 1819 
Q 2322 1972 1947 1972 
L 1259 1972 
L 1259 0 
L 628 0 
L 628 4666 
L 2053 4666 
Q 2853 4666 3247 4331 
Q 3641 3997 3641 3322 
Q 3641 2881 3436 2590 
Q 3231 2300 2841 2188 
z
M 1259 4147 
L 1259 2491 
L 2053 2491 
Q 2509 2491 2742 2702 
Q 2975 2913 2975 3322 
Q 2975 3731 2742 3939 
Q 2509 4147 2053 4147 
L 1259 4147 
z
" transform="scale(0.015625)"/>
       <path id="DejaVuSans-69" d="M 603 3500 
L 1178 3500 
L 1178 0 
L 603 0 
L 603 3500 
z
M 603 4863 
L 1178 4863 
L 1178 4134 
L 603 4134 
L 603 4863 
z
" transform="scale(0.015625)"/>
       <path id="DejaVuSans-67" d="M 2906 1791 
Q 2906 2416 2648 2759 
Q 2391 3103 1925 3103 
Q 1463 3103 1205 2759 
Q 947 2416 947 1791 
Q 947 1169 1205 825 
Q 1463 481 1925 481 
Q 2391 481 2648 825 
Q 2906 1169 2906 1791 
z
M 3481 434 
Q 3481 -459 3084 -895 
Q 2688 -1331 1869 -1331 
Q 1566 -1331 1297 -1286 
Q 1028 -1241 775 -1147 
L 775 -588 
Q 1028 -725 1275 -790 
Q 1522 -856 1778 -856 
Q 2344 -856 2625 -561 
Q 2906 -266 2906 331 
L 2906 616 
Q 2728 306 2450 153 
Q 2172 0 1784 0 
Q 1141 0 747 490 
Q 353 981 353 1791 
Q 353 2603 747 3093 
Q 1141 3584 1784 3584 
Q 2172 3584 2450 3431 
Q 2728 3278 2906 2969 
L 2906 3500 
L 3481 3500 
L 3481 434 
z
" transform="scale(0.015625)"/>
       <path id="DejaVuSans-68" d="M 3513 2113 
L 3513 0 
L 2938 0 
L 2938 2094 
Q 2938 2591 2744 2837 
Q 2550 3084 2163 3084 
Q 1697 3084 1428 2787 
Q 1159 2491 1159 1978 
L 1159 0 
L 581 0 
L 581 4863 
L 1159 4863 
L 1159 2956 
Q 1366 3272 1645 3428 
Q 1925 3584 2291 3584 
Q 2894 3584 3203 3211 
Q 3513 2838 3513 2113 
z
" transform="scale(0.015625)"/>
       <path id="DejaVuSans-74" d="M 1172 4494 
L 1172 3500 
L 2356 3500 
L 2356 3053 
L 1172 3053 
L 1172 1153 
Q 1172 725 1289 603 
Q 1406 481 1766 481 
L 2356 481 
L 2356 0 
L 1766 0 
Q 1100 0 847 248 
Q 594 497 594 1153 
L 594 3053 
L 172 3053 
L 172 3500 
L 594 3500 
L 594 4494 
L 1172 4494 
z
" transform="scale(0.015625)"/>
       <path id="DejaVuSans-7c" d="M 1344 4891 
L 1344 -1509 
L 813 -1509 
L 813 4891 
L 1344 4891 
z
" transform="scale(0.015625)"/>
       <path id="DejaVuSans-45" d="M 628 4666 
L 3578 4666 
L 3578 4134 
L 1259 4134 
L 1259 2753 
L 3481 2753 
L 3481 2222 
L 1259 2222 
L 1259 531 
L 3634 531 
L 3634 0 
L 628 0 
L 628 4666 
z
" transform="scale(0.015625)"/>
       <path id="DejaVuSans-44" d="M 1259 4147 
L 1259 519 
L 2022 519 
Q 2988 519 3436 956 
Q 3884 1394 3884 2338 
Q 3884 3275 3436 3711 
Q 2988 4147 2022 4147 
L 1259 4147 
z
M 628 4666 
L 1925 4666 
Q 3281 4666 3915 4102 
Q 4550 3538 4550 2338 
Q 4550 1131 3912 565 
Q 3275 0 1925 0 
L 628 0 
L 628 4666 
z
" transform="scale(0.015625)"/>
       <path id="DejaVuSans-29" d="M 513 4856 
L 1013 4856 
Q 1481 4119 1714 3412 
Q 1947 2706 1947 2009 
Q 1947 1309 1714 600 
Q 1481 -109 1013 -844 
L 513 -844 
Q 928 -128 1133 580 
Q 1338 1288 1338 2009 
Q 1338 2731 1133 3434 
Q 928 4138 513 4856 
z
" transform="scale(0.015625)"/>
      </defs>
      <use xlink:href="#DejaVuSans-50"/>
      <use xlink:href="#DejaVuSans-28" x="60.302734"/>
      <use xlink:href="#DejaVuSans-52" x="99.316406"/>
      <use xlink:href="#DejaVuSans-69" x="168.798828"/>
      <use xlink:href="#DejaVuSans-67" x="196.582031"/>
      <use xlink:href="#DejaVuSans-68" x="260.058594"/>
      <use xlink:href="#DejaVuSans-74" x="323.4375"/>
      <use xlink:href="#DejaVuSans-7c" x="362.646484"/>
      <use xlink:href="#DejaVuSans-52" x="396.337891"/>
      <use xlink:href="#DejaVuSans-45" x="465.820312"/>
      <use xlink:href="#DejaVuSans-44" x="529.003906"/>
      <use xlink:href="#DejaVuSans-29" x="606.005859"/>
     </g>
    </g>
   </g>
   <g id="matplotlib.axis_2">
    <g id="ytick_1">
     <g id="line2d_4">
      <defs>
       <path id="m3d66f748ed" d="M 0 0 
L -3.5 0 
" style="stroke: #000000; stroke-width: 0.8"/>
      </defs>
      <g>
       <use xlink:href="#m3d66f748ed" x="230.4" y="842.910027" style="stroke: #000000; stroke-width: 0.8"/>
      </g>
     </g>
     <g id="text_5">
      <!-- −1.5 -->
      <g transform="translate(162.692969 852.408074) scale(0.25 -0.25)">
       <defs>
        <path id="DejaVuSans-2212" d="M 678 2272 
L 4684 2272 
L 4684 1741 
L 678 1741 
L 678 2272 
z
" transform="scale(0.015625)"/>
        <path id="DejaVuSans-31" d="M 794 531 
L 1825 531 
L 1825 4091 
L 703 3866 
L 703 4441 
L 1819 4666 
L 2450 4666 
L 2450 531 
L 3481 531 
L 3481 0 
L 794 0 
L 794 531 
z
" transform="scale(0.015625)"/>
       </defs>
       <use xlink:href="#DejaVuSans-2212"/>
       <use xlink:href="#DejaVuSans-31" x="83.789062"/>
       <use xlink:href="#DejaVuSans-2e" x="147.412109"/>
       <use xlink:href="#DejaVuSans-35" x="179.199219"/>
      </g>
     </g>
    </g>
    <g id="ytick_2">
     <g id="line2d_5">
      <g>
       <use xlink:href="#m3d66f748ed" x="230.4" y="712.402318" style="stroke: #000000; stroke-width: 0.8"/>
      </g>
     </g>
     <g id="text_6">
      <!-- −1.0 -->
      <g transform="translate(162.692969 721.900365) scale(0.25 -0.25)">
       <use xlink:href="#DejaVuSans-2212"/>
       <use xlink:href="#DejaVuSans-31" x="83.789062"/>
       <use xlink:href="#DejaVuSans-2e" x="147.412109"/>
       <use xlink:href="#DejaVuSans-30" x="179.199219"/>
      </g>
     </g>
    </g>
    <g id="ytick_3">
     <g id="line2d_6">
      <g>
       <use xlink:href="#m3d66f748ed" x="230.4" y="581.894608" style="stroke: #000000; stroke-width: 0.8"/>
      </g>
     </g>
     <g id="text_7">
      <!-- −0.5 -->
      <g transform="translate(162.692969 591.392655) scale(0.25 -0.25)">
       <use xlink:href="#DejaVuSans-2212"/>
       <use xlink:href="#DejaVuSans-30" x="83.789062"/>
       <use xlink:href="#DejaVuSans-2e" x="147.412109"/>
       <use xlink:href="#DejaVuSans-35" x="179.199219"/>
      </g>
     </g>
    </g>
    <g id="ytick_4">
     <g id="line2d_7">
      <g>
       <use xlink:href="#m3d66f748ed" x="230.4" y="451.386898" style="stroke: #000000; stroke-width: 0.8"/>
      </g>
     </g>
     <g id="text_8">
      <!-- 0.0 -->
      <g transform="translate(183.642188 460.884945) scale(0.25 -0.25)">
       <use xlink:href="#DejaVuSans-30"/>
       <use xlink:href="#DejaVuSans-2e" x="63.623047"/>
       <use xlink:href="#DejaVuSans-30" x="95.410156"/>
      </g>
     </g>
    </g>
    <g id="ytick_5">
     <g id="line2d_8">
      <g>
       <use xlink:href="#m3d66f748ed" x="230.4" y="320.879189" style="stroke: #000000; stroke-width: 0.8"/>
      </g>
     </g>
     <g id="text_9">
      <!-- 0.5 -->
      <g transform="translate(183.642188 330.377236) scale(0.25 -0.25)">
       <use xlink:href="#DejaVuSans-30"/>
       <use xlink:href="#DejaVuSans-2e" x="63.623047"/>
       <use xlink:href="#DejaVuSans-35" x="95.410156"/>
      </g>
     </g>
    </g>
    <g id="ytick_6">
     <g id="line2d_9">
      <g>
       <use xlink:href="#m3d66f748ed" x="230.4" y="190.371479" style="stroke: #000000; stroke-width: 0.8"/>
      </g>
     </g>
     <g id="text_10">
      <!-- 1.0 -->
      <g transform="translate(183.642188 199.869526) scale(0.25 -0.25)">
       <use xlink:href="#DejaVuSans-31"/>
       <use xlink:href="#DejaVuSans-2e" x="63.623047"/>
       <use xlink:href="#DejaVuSans-30" x="95.410156"/>
      </g>
     </g>
    </g>
    <g id="text_11">
     <!-- ASEM (deg/s) -->
     <g transform="translate(152.453906 610.312369) rotate(-90) scale(0.3 -0.3)">
      <defs>
       <path id="DejaVuSans-41" d="M 2188 4044 
L 1331 1722 
L 3047 1722 
L 2188 4044 
z
M 1831 4666 
L 2547 4666 
L 4325 0 
L 3669 0 
L 3244 1197 
L 1141 1197 
L 716 0 
L 50 0 
L 1831 4666 
z
" transform="scale(0.015625)"/>
       <path id="DejaVuSans-53" d="M 3425 4513 
L 3425 3897 
Q 3066 4069 2747 4153 
Q 2428 4238 2131 4238 
Q 1616 4238 1336 4038 
Q 1056 3838 1056 3469 
Q 1056 3159 1242 3001 
Q 1428 2844 1947 2747 
L 2328 2669 
Q 3034 2534 3370 2195 
Q 3706 1856 3706 1288 
Q 3706 609 3251 259 
Q 2797 -91 1919 -91 
Q 1588 -91 1214 -16 
Q 841 59 441 206 
L 441 856 
Q 825 641 1194 531 
Q 1563 422 1919 422 
Q 2459 422 2753 634 
Q 3047 847 3047 1241 
Q 3047 1584 2836 1778 
Q 2625 1972 2144 2069 
L 1759 2144 
Q 1053 2284 737 2584 
Q 422 2884 422 3419 
Q 422 4038 858 4394 
Q 1294 4750 2059 4750 
Q 2388 4750 2728 4690 
Q 3069 4631 3425 4513 
z
" transform="scale(0.015625)"/>
       <path id="DejaVuSans-4d" d="M 628 4666 
L 1569 4666 
L 2759 1491 
L 3956 4666 
L 4897 4666 
L 4897 0 
L 4281 0 
L 4281 4097 
L 3078 897 
L 2444 897 
L 1241 4097 
L 1241 0 
L 628 0 
L 628 4666 
z
" transform="scale(0.015625)"/>
       <path id="DejaVuSans-20" transform="scale(0.015625)"/>
       <path id="DejaVuSans-64" d="M 2906 2969 
L 2906 4863 
L 3481 4863 
L 3481 0 
L 2906 0 
L 2906 525 
Q 2725 213 2448 61 
Q 2172 -91 1784 -91 
Q 1150 -91 751 415 
Q 353 922 353 1747 
Q 353 2572 751 3078 
Q 1150 3584 1784 3584 
Q 2172 3584 2448 3432 
Q 2725 3281 2906 2969 
z
M 947 1747 
Q 947 1113 1208 752 
Q 1469 391 1925 391 
Q 2381 391 2643 752 
Q 2906 1113 2906 1747 
Q 2906 2381 2643 2742 
Q 2381 3103 1925 3103 
Q 1469 3103 1208 2742 
Q 947 2381 947 1747 
z
" transform="scale(0.015625)"/>
       <path id="DejaVuSans-65" d="M 3597 1894 
L 3597 1613 
L 953 1613 
Q 991 1019 1311 708 
Q 1631 397 2203 397 
Q 2534 397 2845 478 
Q 3156 559 3463 722 
L 3463 178 
Q 3153 47 2828 -22 
Q 2503 -91 2169 -91 
Q 1331 -91 842 396 
Q 353 884 353 1716 
Q 353 2575 817 3079 
Q 1281 3584 2069 3584 
Q 2775 3584 3186 3129 
Q 3597 2675 3597 1894 
z
M 3022 2063 
Q 3016 2534 2758 2815 
Q 2500 3097 2075 3097 
Q 1594 3097 1305 2825 
Q 1016 2553 972 2059 
L 3022 2063 
z
" transform="scale(0.015625)"/>
       <path id="DejaVuSans-2f" d="M 1625 4666 
L 2156 4666 
L 531 -594 
L 0 -594 
L 1625 4666 
z
" transform="scale(0.015625)"/>
       <path id="DejaVuSans-73" d="M 2834 3397 
L 2834 2853 
Q 2591 2978 2328 3040 
Q 2066 3103 1784 3103 
Q 1356 3103 1142 2972 
Q 928 2841 928 2578 
Q 928 2378 1081 2264 
Q 1234 2150 1697 2047 
L 1894 2003 
Q 2506 1872 2764 1633 
Q 3022 1394 3022 966 
Q 3022 478 2636 193 
Q 2250 -91 1575 -91 
Q 1294 -91 989 -36 
Q 684 19 347 128 
L 347 722 
Q 666 556 975 473 
Q 1284 391 1588 391 
Q 1994 391 2212 530 
Q 2431 669 2431 922 
Q 2431 1156 2273 1281 
Q 2116 1406 1581 1522 
L 1381 1569 
Q 847 1681 609 1914 
Q 372 2147 372 2553 
Q 372 3047 722 3315 
Q 1072 3584 1716 3584 
Q 2034 3584 2315 3537 
Q 2597 3491 2834 3397 
z
" transform="scale(0.015625)"/>
      </defs>
      <use xlink:href="#DejaVuSans-41"/>
      <use xlink:href="#DejaVuSans-53" x="68.408203"/>
      <use xlink:href="#DejaVuSans-45" x="131.884766"/>
      <use xlink:href="#DejaVuSans-4d" x="195.068359"/>
      <use xlink:href="#DejaVuSans-20" x="281.347656"/>
      <use xlink:href="#DejaVuSans-28" x="313.134766"/>
      <use xlink:href="#DejaVuSans-64" x="352.148438"/>
      <use xlink:href="#DejaVuSans-65" x="415.625"/>
      <use xlink:href="#DejaVuSans-67" x="477.148438"/>
      <use xlink:href="#DejaVuSans-2f" x="540.625"/>
      <use xlink:href="#DejaVuSans-73" x="574.316406"/>
      <use xlink:href="#DejaVuSans-29" x="626.416016"/>
     </g>
    </g>
   </g>
   <g id="line2d_10">
    <path d="M 468.48 531.318487 
L 944.64 448.89707 
L 1420.8 392.162311 
" clip-path="url(#p7f5198e5e7)" style="fill: none; stroke: #1f77b4; stroke-opacity: 0.8; stroke-width: 2.7; stroke-linecap: square"/>
    <defs>
     <path id="m2c87cce752" d="M 0 3.383948 
C 0.897434 3.383948 1.758231 3.027394 2.392813 2.392813 
C 3.027394 1.758231 3.383948 0.897434 3.383948 0 
C 3.383948 -0.897434 3.027394 -1.758231 2.392813 -2.392813 
C 1.758231 -3.027394 0.897434 -3.383948 0 -3.383948 
C -0.897434 -3.383948 -1.758231 -3.027394 -2.392813 -2.392813 
C -3.027394 -1.758231 -3.383948 -0.897434 -3.383948 0 
C -3.383948 0.897434 -3.027394 1.758231 -2.392813 2.392813 
C -1.758231 3.027394 -0.897434 3.383948 0 3.383948 
z
" style="stroke: #1f77b4; stroke-opacity: 0.8; stroke-width: 2.025"/>
    </defs>
    <g clip-path="url(#p7f5198e5e7)">
     <use xlink:href="#m2c87cce752" x="468.48" y="531.318487" style="fill: #1f77b4; fill-opacity: 0.8; stroke: #1f77b4; stroke-opacity: 0.8; stroke-width: 2.025"/>
     <use xlink:href="#m2c87cce752" x="944.64" y="448.89707" style="fill: #1f77b4; fill-opacity: 0.8; stroke: #1f77b4; stroke-opacity: 0.8; stroke-width: 2.025"/>
     <use xlink:href="#m2c87cce752" x="1420.8" y="392.162311" style="fill: #1f77b4; fill-opacity: 0.8; stroke: #1f77b4; stroke-opacity: 0.8; stroke-width: 2.025"/>
    </g>
   </g>
   <g id="line2d_11">
    <path d="M 444.672 587.524256 
L 492.288 587.524256 
M 468.48 587.524256 
L 468.48 478.781866 
M 444.672 478.781866 
L 492.288 478.781866 
" clip-path="url(#p7f5198e5e7)" style="fill: none; stroke: #1f77b4; stroke-opacity: 0.8; stroke-width: 2.7; stroke-linecap: square"/>
   </g>
   <g id="line2d_12">
    <path d="M 920.832 503.795057 
L 968.448 503.795057 
M 944.64 503.795057 
L 944.64 394.211399 
M 920.832 394.211399 
L 968.448 394.211399 
" clip-path="url(#p7f5198e5e7)" style="fill: none; stroke: #1f77b4; stroke-opacity: 0.8; stroke-width: 2.7; stroke-linecap: square"/>
   </g>
   <g id="line2d_13">
    <path d="M 1396.992 456.645066 
L 1444.608 456.645066 
M 1420.8 456.645066 
L 1420.8 329.151926 
M 1396.992 329.151926 
L 1444.608 329.151926 
" clip-path="url(#p7f5198e5e7)" style="fill: none; stroke: #1f77b4; stroke-opacity: 0.8; stroke-width: 2.7; stroke-linecap: square"/>
   </g>
   <g id="line2d_14">
    <path d="M 468.48 758.534473 
L 944.64 634.216645 
L 1420.8 350.422921 
" clip-path="url(#p7f5198e5e7)" style="fill: none; stroke: #aec7e8; stroke-opacity: 0.8; stroke-width: 2.7; stroke-linecap: square"/>
    <defs>
     <path id="m2cc8beba43" d="M 0 3.383948 
C 0.897434 3.383948 1.758231 3.027394 2.392813 2.392813 
C 3.027394 1.758231 3.383948 0.897434 3.383948 0 
C 3.383948 -0.897434 3.027394 -1.758231 2.392813 -2.392813 
C 1.758231 -3.027394 0.897434 -3.383948 0 -3.383948 
C -0.897434 -3.383948 -1.758231 -3.027394 -2.392813 -2.392813 
C -3.027394 -1.758231 -3.383948 -0.897434 -3.383948 0 
C -3.383948 0.897434 -3.027394 1.758231 -2.392813 2.392813 
C -1.758231 3.027394 -0.897434 3.383948 0 3.383948 
z
" style="stroke: #aec7e8; stroke-opacity: 0.8; stroke-width: 2.025"/>
    </defs>
    <g clip-path="url(#p7f5198e5e7)">
     <use xlink:href="#m2cc8beba43" x="468.48" y="758.534473" style="fill: #aec7e8; fill-opacity: 0.8; stroke: #aec7e8; stroke-opacity: 0.8; stroke-width: 2.025"/>
     <use xlink:href="#m2cc8beba43" x="944.64" y="634.216645" style="fill: #aec7e8; fill-opacity: 0.8; stroke: #aec7e8; stroke-opacity: 0.8; stroke-width: 2.025"/>
     <use xlink:href="#m2cc8beba43" x="1420.8" y="350.422921" style="fill: #aec7e8; fill-opacity: 0.8; stroke: #aec7e8; stroke-opacity: 0.8; stroke-width: 2.025"/>
    </g>
   </g>
   <g id="line2d_15">
    <path d="M 444.672 864.3024 
L 492.288 864.3024 
M 468.48 864.3024 
L 468.48 649.109474 
M 444.672 649.109474 
L 492.288 649.109474 
" clip-path="url(#p7f5198e5e7)" style="fill: none; stroke: #aec7e8; stroke-opacity: 0.8; stroke-width: 2.7; stroke-linecap: square"/>
   </g>
   <g id="line2d_16">
    <path d="M 920.832 733.940307 
L 968.448 733.940307 
M 944.64 733.940307 
L 944.64 542.72667 
M 920.832 542.72667 
L 968.448 542.72667 
" clip-path="url(#p7f5198e5e7)" style="fill: none; stroke: #aec7e8; stroke-opacity: 0.8; stroke-width: 2.7; stroke-linecap: square"/>
   </g>
   <g id="line2d_17">
    <path d="M 1396.992 442.2394 
L 1444.608 442.2394 
M 1420.8 442.2394 
L 1420.8 257.062848 
M 1396.992 257.062848 
L 1444.608 257.062848 
" clip-path="url(#p7f5198e5e7)" style="fill: none; stroke: #aec7e8; stroke-opacity: 0.8; stroke-width: 2.7; stroke-linecap: square"/>
   </g>
   <g id="line2d_18">
    <path d="M 468.48 349.434157 
L 944.64 368.16001 
L 1420.8 287.088 
" clip-path="url(#p7f5198e5e7)" style="fill: none; stroke: #ff7f0e; stroke-opacity: 0.8; stroke-width: 2.7; stroke-linecap: square"/>
    <defs>
     <path id="m3c0aa0be05" d="M 0 3.383948 
C 0.897434 3.383948 1.758231 3.027394 2.392813 2.392813 
C 3.027394 1.758231 3.383948 0.897434 3.383948 0 
C 3.383948 -0.897434 3.027394 -1.758231 2.392813 -2.392813 
C 1.758231 -3.027394 0.897434 -3.383948 0 -3.383948 
C -0.897434 -3.383948 -1.758231 -3.027394 -2.392813 -2.392813 
C -3.027394 -1.758231 -3.383948 -0.897434 -3.383948 0 
C -3.383948 0.897434 -3.027394 1.758231 -2.392813 2.392813 
C -1.758231 3.027394 -0.897434 3.383948 0 3.383948 
z
" style="stroke: #ff7f0e; stroke-opacity: 0.8; stroke-width: 2.025"/>
    </defs>
    <g clip-path="url(#p7f5198e5e7)">
     <use xlink:href="#m3c0aa0be05" x="468.48" y="349.434157" style="fill: #ff7f0e; fill-opacity: 0.8; stroke: #ff7f0e; stroke-opacity: 0.8; stroke-width: 2.025"/>
     <use xlink:href="#m3c0aa0be05" x="944.64" y="368.16001" style="fill: #ff7f0e; fill-opacity: 0.8; stroke: #ff7f0e; stroke-opacity: 0.8; stroke-width: 2.025"/>
     <use xlink:href="#m3c0aa0be05" x="1420.8" y="287.088" style="fill: #ff7f0e; fill-opacity: 0.8; stroke: #ff7f0e; stroke-opacity: 0.8; stroke-width: 2.025"/>
    </g>
   </g>
   <g id="line2d_19">
    <path d="M 444.672 397.881879 
L 492.288 397.881879 
M 468.48 397.881879 
L 468.48 298.496548 
M 444.672 298.496548 
L 492.288 298.496548 
" clip-path="url(#p7f5198e5e7)" style="fill: none; stroke: #ff7f0e; stroke-opacity: 0.8; stroke-width: 2.7; stroke-linecap: square"/>
   </g>
   <g id="line2d_20">
    <path d="M 920.832 408.671549 
L 968.448 408.671549 
M 944.64 408.671549 
L 944.64 321.223211 
M 920.832 321.223211 
L 968.448 321.223211 
" clip-path="url(#p7f5198e5e7)" style="fill: none; stroke: #ff7f0e; stroke-opacity: 0.8; stroke-width: 2.7; stroke-linecap: square"/>
   </g>
   <g id="line2d_21">
    <path d="M 1396.992 335.471932 
L 1444.608 335.471932 
M 1420.8 335.471932 
L 1420.8 236.066785 
M 1396.992 236.066785 
L 1444.608 236.066785 
" clip-path="url(#p7f5198e5e7)" style="fill: none; stroke: #ff7f0e; stroke-opacity: 0.8; stroke-width: 2.7; stroke-linecap: square"/>
   </g>
   <g id="line2d_22">
    <path d="M 468.48 521.436826 
L 944.64 540.531036 
L 1420.8 596.196301 
" clip-path="url(#p7f5198e5e7)" style="fill: none; stroke: #ffbb78; stroke-opacity: 0.8; stroke-width: 2.7; stroke-linecap: square"/>
    <defs>
     <path id="md643731143" d="M 0 3.383948 
C 0.897434 3.383948 1.758231 3.027394 2.392813 2.392813 
C 3.027394 1.758231 3.383948 0.897434 3.383948 0 
C 3.383948 -0.897434 3.027394 -1.758231 2.392813 -2.392813 
C 1.758231 -3.027394 0.897434 -3.383948 0 -3.383948 
C -0.897434 -3.383948 -1.758231 -3.027394 -2.392813 -2.392813 
C -3.027394 -1.758231 -3.383948 -0.897434 -3.383948 0 
C -3.383948 0.897434 -3.027394 1.758231 -2.392813 2.392813 
C -1.758231 3.027394 -0.897434 3.383948 0 3.383948 
z
" style="stroke: #ffbb78; stroke-opacity: 0.8; stroke-width: 2.025"/>
    </defs>
    <g clip-path="url(#p7f5198e5e7)">
     <use xlink:href="#md643731143" x="468.48" y="521.436826" style="fill: #ffbb78; fill-opacity: 0.8; stroke: #ffbb78; stroke-opacity: 0.8; stroke-width: 2.025"/>
     <use xlink:href="#md643731143" x="944.64" y="540.531036" style="fill: #ffbb78; fill-opacity: 0.8; stroke: #ffbb78; stroke-opacity: 0.8; stroke-width: 2.025"/>
     <use xlink:href="#md643731143" x="1420.8" y="596.196301" style="fill: #ffbb78; fill-opacity: 0.8; stroke: #ffbb78; stroke-opacity: 0.8; stroke-width: 2.025"/>
    </g>
   </g>
   <g id="line2d_23">
    <path d="M 444.672 588.921207 
L 492.288 588.921207 
M 468.48 588.921207 
L 468.48 443.518333 
M 444.672 443.518333 
L 492.288 443.518333 
" clip-path="url(#p7f5198e5e7)" style="fill: none; stroke: #ffbb78; stroke-opacity: 0.8; stroke-width: 2.7; stroke-linecap: square"/>
   </g>
   <g id="line2d_24">
    <path d="M 920.832 593.793762 
L 968.448 593.793762 
M 944.64 593.793762 
L 944.64 486.438011 
M 920.832 486.438011 
L 968.448 486.438011 
" clip-path="url(#p7f5198e5e7)" style="fill: none; stroke: #ffbb78; stroke-opacity: 0.8; stroke-width: 2.7; stroke-linecap: square"/>
   </g>
   <g id="line2d_25">
    <path d="M 1396.992 662.432413 
L 1444.608 662.432413 
M 1420.8 662.432413 
L 1420.8 527.647138 
M 1396.992 527.647138 
L 1444.608 527.647138 
" clip-path="url(#p7f5198e5e7)" style="fill: none; stroke: #ffbb78; stroke-opacity: 0.8; stroke-width: 2.7; stroke-linecap: square"/>
   </g>
   <g id="line2d_26">
    <path d="M 468.48 391.729861 
L 944.64 269.31652 
L 1420.8 218.185652 
" clip-path="url(#p7f5198e5e7)" style="fill: none; stroke: #2ca02c; stroke-opacity: 0.8; stroke-width: 2.7; stroke-linecap: square"/>
    <defs>
     <path id="me491e004d9" d="M 0 3.383948 
C 0.897434 3.383948 1.758231 3.027394 2.392813 2.392813 
C 3.027394 1.758231 3.383948 0.897434 3.383948 0 
C 3.383948 -0.897434 3.027394 -1.758231 2.392813 -2.392813 
C 1.758231 -3.027394 0.897434 -3.383948 0 -3.383948 
C -0.897434 -3.383948 -1.758231 -3.027394 -2.392813 -2.392813 
C -3.027394 -1.758231 -3.383948 -0.897434 -3.383948 0 
C -3.383948 0.897434 -3.027394 1.758231 -2.392813 2.392813 
C -1.758231 3.027394 -0.897434 3.383948 0 3.383948 
z
" style="stroke: #2ca02c; stroke-opacity: 0.8; stroke-width: 2.025"/>
    </defs>
    <g clip-path="url(#p7f5198e5e7)">
     <use xlink:href="#me491e004d9" x="468.48" y="391.729861" style="fill: #2ca02c; fill-opacity: 0.8; stroke: #2ca02c; stroke-opacity: 0.8; stroke-width: 2.025"/>
     <use xlink:href="#me491e004d9" x="944.64" y="269.31652" style="fill: #2ca02c; fill-opacity: 0.8; stroke: #2ca02c; stroke-opacity: 0.8; stroke-width: 2.025"/>
     <use xlink:href="#me491e004d9" x="1420.8" y="218.185652" style="fill: #2ca02c; fill-opacity: 0.8; stroke: #2ca02c; stroke-opacity: 0.8; stroke-width: 2.025"/>
    </g>
   </g>
   <g id="line2d_27">
    <path d="M 444.672 442.739141 
L 492.288 442.739141 
M 468.48 442.739141 
L 468.48 339.102217 
M 444.672 339.102217 
L 492.288 339.102217 
" clip-path="url(#p7f5198e5e7)" style="fill: none; stroke: #2ca02c; stroke-opacity: 0.8; stroke-width: 2.7; stroke-linecap: square"/>
   </g>
   <g id="line2d_28">
    <path d="M 920.832 330.152268 
L 968.448 330.152268 
M 944.64 330.152268 
L 944.64 213.269658 
M 920.832 213.269658 
L 968.448 213.269658 
" clip-path="url(#p7f5198e5e7)" style="fill: none; stroke: #2ca02c; stroke-opacity: 0.8; stroke-width: 2.7; stroke-linecap: square"/>
   </g>
   <g id="line2d_29">
    <path d="M 1396.992 272.754543 
L 1444.608 272.754543 
M 1420.8 272.754543 
L 1420.8 156.6864 
M 1396.992 156.6864 
L 1444.608 156.6864 
" clip-path="url(#p7f5198e5e7)" style="fill: none; stroke: #2ca02c; stroke-opacity: 0.8; stroke-width: 2.7; stroke-linecap: square"/>
   </g>
   <g id="line2d_30">
    <path d="M 468.48 543.344933 
L 944.64 555.582331 
L 1420.8 505.023641 
" clip-path="url(#p7f5198e5e7)" style="fill: none; stroke: #98df8a; stroke-opacity: 0.8; stroke-width: 2.7; stroke-linecap: square"/>
    <defs>
     <path id="m5ec2e4852b" d="M 0 3.383948 
C 0.897434 3.383948 1.758231 3.027394 2.392813 2.392813 
C 3.027394 1.758231 3.383948 0.897434 3.383948 0 
C 3.383948 -0.897434 3.027394 -1.758231 2.392813 -2.392813 
C 1.758231 -3.027394 0.897434 -3.383948 0 -3.383948 
C -0.897434 -3.383948 -1.758231 -3.027394 -2.392813 -2.392813 
C -3.027394 -1.758231 -3.383948 -0.897434 -3.383948 0 
C -3.383948 0.897434 -3.027394 1.758231 -2.392813 2.392813 
C -1.758231 3.027394 -0.897434 3.383948 0 3.383948 
z
" style="stroke: #98df8a; stroke-opacity: 0.8; stroke-width: 2.025"/>
    </defs>
    <g clip-path="url(#p7f5198e5e7)">
     <use xlink:href="#m5ec2e4852b" x="468.48" y="543.344933" style="fill: #98df8a; fill-opacity: 0.8; stroke: #98df8a; stroke-opacity: 0.8; stroke-width: 2.025"/>
     <use xlink:href="#m5ec2e4852b" x="944.64" y="555.582331" style="fill: #98df8a; fill-opacity: 0.8; stroke: #98df8a; stroke-opacity: 0.8; stroke-width: 2.025"/>
     <use xlink:href="#m5ec2e4852b" x="1420.8" y="505.023641" style="fill: #98df8a; fill-opacity: 0.8; stroke: #98df8a; stroke-opacity: 0.8; stroke-width: 2.025"/>
    </g>
   </g>
   <g id="line2d_31">
    <path d="M 444.672 608.272578 
L 492.288 608.272578 
M 468.48 608.272578 
L 468.48 483.582252 
M 444.672 483.582252 
L 492.288 483.582252 
" clip-path="url(#p7f5198e5e7)" style="fill: none; stroke: #98df8a; stroke-opacity: 0.8; stroke-width: 2.7; stroke-linecap: square"/>
   </g>
   <g id="line2d_32">
    <path d="M 920.832 634.728305 
L 968.448 634.728305 
M 944.64 634.728305 
L 944.64 481.91707 
M 920.832 481.91707 
L 968.448 481.91707 
" clip-path="url(#p7f5198e5e7)" style="fill: none; stroke: #98df8a; stroke-opacity: 0.8; stroke-width: 2.7; stroke-linecap: square"/>
   </g>
   <g id="line2d_33">
    <path d="M 1396.992 559.847837 
L 1444.608 559.847837 
M 1420.8 559.847837 
L 1420.8 448.207181 
M 1396.992 448.207181 
L 1444.608 448.207181 
" clip-path="url(#p7f5198e5e7)" style="fill: none; stroke: #98df8a; stroke-opacity: 0.8; stroke-width: 2.7; stroke-linecap: square"/>
   </g>
   <g id="line2d_34">
    <path d="M 468.48 549.758152 
L 944.64 508.386167 
L 1420.8 490.372119 
" clip-path="url(#p7f5198e5e7)" style="fill: none; stroke: #d62728; stroke-opacity: 0.8; stroke-width: 2.7; stroke-linecap: square"/>
    <defs>
     <path id="m92033de39b" d="M 0 3.383948 
C 0.897434 3.383948 1.758231 3.027394 2.392813 2.392813 
C 3.027394 1.758231 3.383948 0.897434 3.383948 0 
C 3.383948 -0.897434 3.027394 -1.758231 2.392813 -2.392813 
C 1.758231 -3.027394 0.897434 -3.383948 0 -3.383948 
C -0.897434 -3.383948 -1.758231 -3.027394 -2.392813 -2.392813 
C -3.027394 -1.758231 -3.383948 -0.897434 -3.383948 0 
C -3.383948 0.897434 -3.027394 1.758231 -2.392813 2.392813 
C -1.758231 3.027394 -0.897434 3.383948 0 3.383948 
z
" style="stroke: #d62728; stroke-opacity: 0.8; stroke-width: 2.025"/>
    </defs>
    <g clip-path="url(#p7f5198e5e7)">
     <use xlink:href="#m92033de39b" x="468.48" y="549.758152" style="fill: #d62728; fill-opacity: 0.8; stroke: #d62728; stroke-opacity: 0.8; stroke-width: 2.025"/>
     <use xlink:href="#m92033de39b" x="944.64" y="508.386167" style="fill: #d62728; fill-opacity: 0.8; stroke: #d62728; stroke-opacity: 0.8; stroke-width: 2.025"/>
     <use xlink:href="#m92033de39b" x="1420.8" y="490.372119" style="fill: #d62728; fill-opacity: 0.8; stroke: #d62728; stroke-opacity: 0.8; stroke-width: 2.025"/>
    </g>
   </g>
   <g id="line2d_35">
    <path d="M 444.672 617.380399 
L 492.288 617.380399 
M 468.48 617.380399 
L 468.48 473.094528 
M 444.672 473.094528 
L 492.288 473.094528 
" clip-path="url(#p7f5198e5e7)" style="fill: none; stroke: #d62728; stroke-opacity: 0.8; stroke-width: 2.7; stroke-linecap: square"/>
   </g>
   <g id="line2d_36">
    <path d="M 920.832 580.114468 
L 968.448 580.114468 
M 944.64 580.114468 
L 944.64 431.858097 
M 920.832 431.858097 
L 968.448 431.858097 
" clip-path="url(#p7f5198e5e7)" style="fill: none; stroke: #d62728; stroke-opacity: 0.8; stroke-width: 2.7; stroke-linecap: square"/>
   </g>
   <g id="line2d_37">
    <path d="M 1396.992 544.97263 
L 1444.608 544.97263 
M 1420.8 544.97263 
L 1420.8 431.819168 
M 1396.992 431.819168 
L 1444.608 431.819168 
" clip-path="url(#p7f5198e5e7)" style="fill: none; stroke: #d62728; stroke-opacity: 0.8; stroke-width: 2.7; stroke-linecap: square"/>
   </g>
   <g id="line2d_38">
    <path d="M 468.48 529.111842 
L 944.64 485.392402 
L 1420.8 436.390796 
" clip-path="url(#p7f5198e5e7)" style="fill: none; stroke: #ff9896; stroke-opacity: 0.8; stroke-width: 2.7; stroke-linecap: square"/>
    <defs>
     <path id="m76e9400cba" d="M 0 3.383948 
C 0.897434 3.383948 1.758231 3.027394 2.392813 2.392813 
C 3.027394 1.758231 3.383948 0.897434 3.383948 0 
C 3.383948 -0.897434 3.027394 -1.758231 2.392813 -2.392813 
C 1.758231 -3.027394 0.897434 -3.383948 0 -3.383948 
C -0.897434 -3.383948 -1.758231 -3.027394 -2.392813 -2.392813 
C -3.027394 -1.758231 -3.383948 -0.897434 -3.383948 0 
C -3.383948 0.897434 -3.027394 1.758231 -2.392813 2.392813 
C -1.758231 3.027394 -0.897434 3.383948 0 3.383948 
z
" style="stroke: #ff9896; stroke-opacity: 0.8; stroke-width: 2.025"/>
    </defs>
    <g clip-path="url(#p7f5198e5e7)">
     <use xlink:href="#m76e9400cba" x="468.48" y="529.111842" style="fill: #ff9896; fill-opacity: 0.8; stroke: #ff9896; stroke-opacity: 0.8; stroke-width: 2.025"/>
     <use xlink:href="#m76e9400cba" x="944.64" y="485.392402" style="fill: #ff9896; fill-opacity: 0.8; stroke: #ff9896; stroke-opacity: 0.8; stroke-width: 2.025"/>
     <use xlink:href="#m76e9400cba" x="1420.8" y="436.390796" style="fill: #ff9896; fill-opacity: 0.8; stroke: #ff9896; stroke-opacity: 0.8; stroke-width: 2.025"/>
    </g>
   </g>
   <g id="line2d_39">
    <path d="M 444.672 597.090602 
L 492.288 597.090602 
M 468.48 597.090602 
L 468.48 459.52856 
M 444.672 459.52856 
L 492.288 459.52856 
" clip-path="url(#p7f5198e5e7)" style="fill: none; stroke: #ff9896; stroke-opacity: 0.8; stroke-width: 2.7; stroke-linecap: square"/>
   </g>
   <g id="line2d_40">
    <path d="M 920.832 543.174556 
L 968.448 543.174556 
M 944.64 543.174556 
L 944.64 428.90826 
M 920.832 428.90826 
L 968.448 428.90826 
" clip-path="url(#p7f5198e5e7)" style="fill: none; stroke: #ff9896; stroke-opacity: 0.8; stroke-width: 2.7; stroke-linecap: square"/>
   </g>
   <g id="line2d_41">
    <path d="M 1396.992 506.223783 
L 1444.608 506.223783 
M 1420.8 506.223783 
L 1420.8 367.029675 
M 1396.992 367.029675 
L 1444.608 367.029675 
" clip-path="url(#p7f5198e5e7)" style="fill: none; stroke: #ff9896; stroke-opacity: 0.8; stroke-width: 2.7; stroke-linecap: square"/>
   </g>
   <g id="line2d_42">
    <path d="M 468.48 394.416617 
L 944.64 404.932209 
L 1420.8 438.452138 
" clip-path="url(#p7f5198e5e7)" style="fill: none; stroke: #9467bd; stroke-opacity: 0.8; stroke-width: 2.7; stroke-linecap: square"/>
    <defs>
     <path id="m5431ae111d" d="M 0 3.383948 
C 0.897434 3.383948 1.758231 3.027394 2.392813 2.392813 
C 3.027394 1.758231 3.383948 0.897434 3.383948 0 
C 3.383948 -0.897434 3.027394 -1.758231 2.392813 -2.392813 
C 1.758231 -3.027394 0.897434 -3.383948 0 -3.383948 
C -0.897434 -3.383948 -1.758231 -3.027394 -2.392813 -2.392813 
C -3.027394 -1.758231 -3.383948 -0.897434 -3.383948 0 
C -3.383948 0.897434 -3.027394 1.758231 -2.392813 2.392813 
C -1.758231 3.027394 -0.897434 3.383948 0 3.383948 
z
" style="stroke: #9467bd; stroke-opacity: 0.8; stroke-width: 2.025"/>
    </defs>
    <g clip-path="url(#p7f5198e5e7)">
     <use xlink:href="#m5431ae111d" x="468.48" y="394.416617" style="fill: #9467bd; fill-opacity: 0.8; stroke: #9467bd; stroke-opacity: 0.8; stroke-width: 2.025"/>
     <use xlink:href="#m5431ae111d" x="944.64" y="404.932209" style="fill: #9467bd; fill-opacity: 0.8; stroke: #9467bd; stroke-opacity: 0.8; stroke-width: 2.025"/>
     <use xlink:href="#m5431ae111d" x="1420.8" y="438.452138" style="fill: #9467bd; fill-opacity: 0.8; stroke: #9467bd; stroke-opacity: 0.8; stroke-width: 2.025"/>
    </g>
   </g>
   <g id="line2d_43">
    <path d="M 444.672 453.433648 
L 492.288 453.433648 
M 468.48 453.433648 
L 468.48 332.8218 
M 444.672 332.8218 
L 492.288 332.8218 
" clip-path="url(#p7f5198e5e7)" style="fill: none; stroke: #9467bd; stroke-opacity: 0.8; stroke-width: 2.7; stroke-linecap: square"/>
   </g>
   <g id="line2d_44">
    <path d="M 920.832 455.868313 
L 968.448 455.868313 
M 944.64 455.868313 
L 944.64 358.953394 
M 920.832 358.953394 
L 968.448 358.953394 
" clip-path="url(#p7f5198e5e7)" style="fill: none; stroke: #9467bd; stroke-opacity: 0.8; stroke-width: 2.7; stroke-linecap: square"/>
   </g>
   <g id="line2d_45">
    <path d="M 1396.992 480.523511 
L 1444.608 480.523511 
M 1420.8 480.523511 
L 1420.8 394.418247 
M 1396.992 394.418247 
L 1444.608 394.418247 
" clip-path="url(#p7f5198e5e7)" style="fill: none; stroke: #9467bd; stroke-opacity: 0.8; stroke-width: 2.7; stroke-linecap: square"/>
   </g>
   <g id="line2d_46">
    <path d="M 468.48 678.79845 
L 944.64 380.676997 
L 1420.8 315.662733 
" clip-path="url(#p7f5198e5e7)" style="fill: none; stroke: #c5b0d5; stroke-opacity: 0.8; stroke-width: 2.7; stroke-linecap: square"/>
    <defs>
     <path id="m68e7255c94" d="M 0 3.383948 
C 0.897434 3.383948 1.758231 3.027394 2.392813 2.392813 
C 3.027394 1.758231 3.383948 0.897434 3.383948 0 
C 3.383948 -0.897434 3.027394 -1.758231 2.392813 -2.392813 
C 1.758231 -3.027394 0.897434 -3.383948 0 -3.383948 
C -0.897434 -3.383948 -1.758231 -3.027394 -2.392813 -2.392813 
C -3.027394 -1.758231 -3.383948 -0.897434 -3.383948 0 
C -3.383948 0.897434 -3.027394 1.758231 -2.392813 2.392813 
C -1.758231 3.027394 -0.897434 3.383948 0 3.383948 
z
" style="stroke: #c5b0d5; stroke-opacity: 0.8; stroke-width: 2.025"/>
    </defs>
    <g clip-path="url(#p7f5198e5e7)">
     <use xlink:href="#m68e7255c94" x="468.48" y="678.79845" style="fill: #c5b0d5; fill-opacity: 0.8; stroke: #c5b0d5; stroke-opacity: 0.8; stroke-width: 2.025"/>
     <use xlink:href="#m68e7255c94" x="944.64" y="380.676997" style="fill: #c5b0d5; fill-opacity: 0.8; stroke: #c5b0d5; stroke-opacity: 0.8; stroke-width: 2.025"/>
     <use xlink:href="#m68e7255c94" x="1420.8" y="315.662733" style="fill: #c5b0d5; fill-opacity: 0.8; stroke: #c5b0d5; stroke-opacity: 0.8; stroke-width: 2.025"/>
    </g>
   </g>
   <g id="line2d_47">
    <path d="M 444.672 748.157169 
L 492.288 748.157169 
M 468.48 748.157169 
L 468.48 610.521478 
M 444.672 610.521478 
L 492.288 610.521478 
" clip-path="url(#p7f5198e5e7)" style="fill: none; stroke: #c5b0d5; stroke-opacity: 0.8; stroke-width: 2.7; stroke-linecap: square"/>
   </g>
   <g id="line2d_48">
    <path d="M 920.832 436.651498 
L 968.448 436.651498 
M 944.64 436.651498 
L 944.64 326.485615 
M 920.832 326.485615 
L 968.448 326.485615 
" clip-path="url(#p7f5198e5e7)" style="fill: none; stroke: #c5b0d5; stroke-opacity: 0.8; stroke-width: 2.7; stroke-linecap: square"/>
   </g>
   <g id="line2d_49">
    <path d="M 1396.992 383.304018 
L 1444.608 383.304018 
M 1420.8 383.304018 
L 1420.8 237.741879 
M 1396.992 237.741879 
L 1444.608 237.741879 
" clip-path="url(#p7f5198e5e7)" style="fill: none; stroke: #c5b0d5; stroke-opacity: 0.8; stroke-width: 2.7; stroke-linecap: square"/>
   </g>
   <g id="line2d_50">
    <path d="M 468.48 369.479812 
L 944.64 324.390954 
L 1420.8 280.170499 
" clip-path="url(#p7f5198e5e7)" style="fill: none; stroke: #8c564b; stroke-opacity: 0.8; stroke-width: 2.7; stroke-linecap: square"/>
    <defs>
     <path id="me3445b2043" d="M 0 3.383948 
C 0.897434 3.383948 1.758231 3.027394 2.392813 2.392813 
C 3.027394 1.758231 3.383948 0.897434 3.383948 0 
C 3.383948 -0.897434 3.027394 -1.758231 2.392813 -2.392813 
C 1.758231 -3.027394 0.897434 -3.383948 0 -3.383948 
C -0.897434 -3.383948 -1.758231 -3.027394 -2.392813 -2.392813 
C -3.027394 -1.758231 -3.383948 -0.897434 -3.383948 0 
C -3.383948 0.897434 -3.027394 1.758231 -2.392813 2.392813 
C -1.758231 3.027394 -0.897434 3.383948 0 3.383948 
z
" style="stroke: #8c564b; stroke-opacity: 0.8; stroke-width: 2.025"/>
    </defs>
    <g clip-path="url(#p7f5198e5e7)">
     <use xlink:href="#me3445b2043" x="468.48" y="369.479812" style="fill: #8c564b; fill-opacity: 0.8; stroke: #8c564b; stroke-opacity: 0.8; stroke-width: 2.025"/>
     <use xlink:href="#me3445b2043" x="944.64" y="324.390954" style="fill: #8c564b; fill-opacity: 0.8; stroke: #8c564b; stroke-opacity: 0.8; stroke-width: 2.025"/>
     <use xlink:href="#me3445b2043" x="1420.8" y="280.170499" style="fill: #8c564b; fill-opacity: 0.8; stroke: #8c564b; stroke-opacity: 0.8; stroke-width: 2.025"/>
    </g>
   </g>
   <g id="line2d_51">
    <path d="M 444.672 432.778736 
L 492.288 432.778736 
M 468.48 432.778736 
L 468.48 306.447293 
M 444.672 306.447293 
L 492.288 306.447293 
" clip-path="url(#p7f5198e5e7)" style="fill: none; stroke: #8c564b; stroke-opacity: 0.8; stroke-width: 2.7; stroke-linecap: square"/>
   </g>
   <g id="line2d_52">
    <path d="M 920.832 373.246988 
L 968.448 373.246988 
M 944.64 373.246988 
L 944.64 272.315854 
M 920.832 272.315854 
L 968.448 272.315854 
" clip-path="url(#p7f5198e5e7)" style="fill: none; stroke: #8c564b; stroke-opacity: 0.8; stroke-width: 2.7; stroke-linecap: square"/>
   </g>
   <g id="line2d_53">
    <path d="M 1396.992 352.336165 
L 1444.608 352.336165 
M 1420.8 352.336165 
L 1420.8 209.01899 
M 1396.992 209.01899 
L 1444.608 209.01899 
" clip-path="url(#p7f5198e5e7)" style="fill: none; stroke: #8c564b; stroke-opacity: 0.8; stroke-width: 2.7; stroke-linecap: square"/>
   </g>
   <g id="line2d_54">
    <path d="M 468.48 419.543958 
L 944.64 415.931106 
L 1420.8 375.138992 
" clip-path="url(#p7f5198e5e7)" style="fill: none; stroke: #c49c94; stroke-opacity: 0.8; stroke-width: 2.7; stroke-linecap: square"/>
    <defs>
     <path id="mc45fd233e1" d="M 0 3.383948 
C 0.897434 3.383948 1.758231 3.027394 2.392813 2.392813 
C 3.027394 1.758231 3.383948 0.897434 3.383948 0 
C 3.383948 -0.897434 3.027394 -1.758231 2.392813 -2.392813 
C 1.758231 -3.027394 0.897434 -3.383948 0 -3.383948 
C -0.897434 -3.383948 -1.758231 -3.027394 -2.392813 -2.392813 
C -3.027394 -1.758231 -3.383948 -0.897434 -3.383948 0 
C -3.383948 0.897434 -3.027394 1.758231 -2.392813 2.392813 
C -1.758231 3.027394 -0.897434 3.383948 0 3.383948 
z
" style="stroke: #c49c94; stroke-opacity: 0.8; stroke-width: 2.025"/>
    </defs>
    <g clip-path="url(#p7f5198e5e7)">
     <use xlink:href="#mc45fd233e1" x="468.48" y="419.543958" style="fill: #c49c94; fill-opacity: 0.8; stroke: #c49c94; stroke-opacity: 0.8; stroke-width: 2.025"/>
     <use xlink:href="#mc45fd233e1" x="944.64" y="415.931106" style="fill: #c49c94; fill-opacity: 0.8; stroke: #c49c94; stroke-opacity: 0.8; stroke-width: 2.025"/>
     <use xlink:href="#mc45fd233e1" x="1420.8" y="375.138992" style="fill: #c49c94; fill-opacity: 0.8; stroke: #c49c94; stroke-opacity: 0.8; stroke-width: 2.025"/>
    </g>
   </g>
   <g id="line2d_55">
    <path d="M 444.672 483.186447 
L 492.288 483.186447 
M 468.48 483.186447 
L 468.48 351.805062 
M 444.672 351.805062 
L 492.288 351.805062 
" clip-path="url(#p7f5198e5e7)" style="fill: none; stroke: #c49c94; stroke-opacity: 0.8; stroke-width: 2.7; stroke-linecap: square"/>
   </g>
   <g id="line2d_56">
    <path d="M 920.832 481.437567 
L 968.448 481.437567 
M 944.64 481.437567 
L 944.64 348.625948 
M 920.832 348.625948 
L 968.448 348.625948 
" clip-path="url(#p7f5198e5e7)" style="fill: none; stroke: #c49c94; stroke-opacity: 0.8; stroke-width: 2.7; stroke-linecap: square"/>
   </g>
   <g id="line2d_57">
    <path d="M 1396.992 444.791268 
L 1444.608 444.791268 
M 1420.8 444.791268 
L 1420.8 293.59005 
M 1396.992 293.59005 
L 1444.608 293.59005 
" clip-path="url(#p7f5198e5e7)" style="fill: none; stroke: #c49c94; stroke-opacity: 0.8; stroke-width: 2.7; stroke-linecap: square"/>
   </g>
   <g id="line2d_58">
    <path d="M 468.48 508.444965 
L 944.64 509.705374 
L 1420.8 460.128282 
" clip-path="url(#p7f5198e5e7)" style="fill: none; stroke: #e377c2; stroke-opacity: 0.8; stroke-width: 2.7; stroke-linecap: square"/>
    <defs>
     <path id="mc2e40ca735" d="M 0 3.383948 
C 0.897434 3.383948 1.758231 3.027394 2.392813 2.392813 
C 3.027394 1.758231 3.383948 0.897434 3.383948 0 
C 3.383948 -0.897434 3.027394 -1.758231 2.392813 -2.392813 
C 1.758231 -3.027394 0.897434 -3.383948 0 -3.383948 
C -0.897434 -3.383948 -1.758231 -3.027394 -2.392813 -2.392813 
C -3.027394 -1.758231 -3.383948 -0.897434 -3.383948 0 
C -3.383948 0.897434 -3.027394 1.758231 -2.392813 2.392813 
C -1.758231 3.027394 -0.897434 3.383948 0 3.383948 
z
" style="stroke: #e377c2; stroke-opacity: 0.8; stroke-width: 2.025"/>
    </defs>
    <g clip-path="url(#p7f5198e5e7)">
     <use xlink:href="#mc2e40ca735" x="468.48" y="508.444965" style="fill: #e377c2; fill-opacity: 0.8; stroke: #e377c2; stroke-opacity: 0.8; stroke-width: 2.025"/>
     <use xlink:href="#mc2e40ca735" x="944.64" y="509.705374" style="fill: #e377c2; fill-opacity: 0.8; stroke: #e377c2; stroke-opacity: 0.8; stroke-width: 2.025"/>
     <use xlink:href="#mc2e40ca735" x="1420.8" y="460.128282" style="fill: #e377c2; fill-opacity: 0.8; stroke: #e377c2; stroke-opacity: 0.8; stroke-width: 2.025"/>
    </g>
   </g>
   <g id="line2d_59">
    <path d="M 444.672 552.13046 
L 492.288 552.13046 
M 468.48 552.13046 
L 468.48 466.135022 
M 444.672 466.135022 
L 492.288 466.135022 
" clip-path="url(#p7f5198e5e7)" style="fill: none; stroke: #e377c2; stroke-opacity: 0.8; stroke-width: 2.7; stroke-linecap: square"/>
   </g>
   <g id="line2d_60">
    <path d="M 920.832 552.644397 
L 968.448 552.644397 
M 944.64 552.644397 
L 944.64 470.431067 
M 920.832 470.431067 
L 968.448 470.431067 
" clip-path="url(#p7f5198e5e7)" style="fill: none; stroke: #e377c2; stroke-opacity: 0.8; stroke-width: 2.7; stroke-linecap: square"/>
   </g>
   <g id="line2d_61">
    <path d="M 1396.992 497.22532 
L 1444.608 497.22532 
M 1420.8 497.22532 
L 1420.8 423.343977 
M 1396.992 423.343977 
L 1444.608 423.343977 
" clip-path="url(#p7f5198e5e7)" style="fill: none; stroke: #e377c2; stroke-opacity: 0.8; stroke-width: 2.7; stroke-linecap: square"/>
   </g>
   <g id="line2d_62">
    <path d="M 468.48 595.819346 
L 944.64 624.901995 
L 1420.8 589.98059 
" clip-path="url(#p7f5198e5e7)" style="fill: none; stroke: #f7b6d2; stroke-opacity: 0.8; stroke-width: 2.7; stroke-linecap: square"/>
    <defs>
     <path id="m200fda2df8" d="M 0 3.383948 
C 0.897434 3.383948 1.758231 3.027394 2.392813 2.392813 
C 3.027394 1.758231 3.383948 0.897434 3.383948 0 
C 3.383948 -0.897434 3.027394 -1.758231 2.392813 -2.392813 
C 1.758231 -3.027394 0.897434 -3.383948 0 -3.383948 
C -0.897434 -3.383948 -1.758231 -3.027394 -2.392813 -2.392813 
C -3.027394 -1.758231 -3.383948 -0.897434 -3.383948 0 
C -3.383948 0.897434 -3.027394 1.758231 -2.392813 2.392813 
C -1.758231 3.027394 -0.897434 3.383948 0 3.383948 
z
" style="stroke: #f7b6d2; stroke-opacity: 0.8; stroke-width: 2.025"/>
    </defs>
    <g clip-path="url(#p7f5198e5e7)">
     <use xlink:href="#m200fda2df8" x="468.48" y="595.819346" style="fill: #f7b6d2; fill-opacity: 0.8; stroke: #f7b6d2; stroke-opacity: 0.8; stroke-width: 2.025"/>
     <use xlink:href="#m200fda2df8" x="944.64" y="624.901995" style="fill: #f7b6d2; fill-opacity: 0.8; stroke: #f7b6d2; stroke-opacity: 0.8; stroke-width: 2.025"/>
     <use xlink:href="#m200fda2df8" x="1420.8" y="589.98059" style="fill: #f7b6d2; fill-opacity: 0.8; stroke: #f7b6d2; stroke-opacity: 0.8; stroke-width: 2.025"/>
    </g>
   </g>
   <g id="line2d_63">
    <path d="M 444.672 647.573287 
L 492.288 647.573287 
M 468.48 647.573287 
L 468.48 540.27057 
M 444.672 540.27057 
L 492.288 540.27057 
" clip-path="url(#p7f5198e5e7)" style="fill: none; stroke: #f7b6d2; stroke-opacity: 0.8; stroke-width: 2.7; stroke-linecap: square"/>
   </g>
   <g id="line2d_64">
    <path d="M 920.832 685.788304 
L 968.448 685.788304 
M 944.64 685.788304 
L 944.64 567.850008 
M 920.832 567.850008 
L 968.448 567.850008 
" clip-path="url(#p7f5198e5e7)" style="fill: none; stroke: #f7b6d2; stroke-opacity: 0.8; stroke-width: 2.7; stroke-linecap: square"/>
   </g>
   <g id="line2d_65">
    <path d="M 1396.992 675.979674 
L 1444.608 675.979674 
M 1420.8 675.979674 
L 1420.8 517.757193 
M 1396.992 517.757193 
L 1444.608 517.757193 
" clip-path="url(#p7f5198e5e7)" style="fill: none; stroke: #f7b6d2; stroke-opacity: 0.8; stroke-width: 2.7; stroke-linecap: square"/>
   </g>
   <g id="line2d_66">
    <path d="M 468.48 448.005464 
L 944.64 454.410302 
L 1420.8 536.300647 
" clip-path="url(#p7f5198e5e7)" style="fill: none; stroke: #7f7f7f; stroke-opacity: 0.8; stroke-width: 2.7; stroke-linecap: square"/>
    <defs>
     <path id="m426f6304e6" d="M 0 3.383948 
C 0.897434 3.383948 1.758231 3.027394 2.392813 2.392813 
C 3.027394 1.758231 3.383948 0.897434 3.383948 0 
C 3.383948 -0.897434 3.027394 -1.758231 2.392813 -2.392813 
C 1.758231 -3.027394 0.897434 -3.383948 0 -3.383948 
C -0.897434 -3.383948 -1.758231 -3.027394 -2.392813 -2.392813 
C -3.027394 -1.758231 -3.383948 -0.897434 -3.383948 0 
C -3.383948 0.897434 -3.027394 1.758231 -2.392813 2.392813 
C -1.758231 3.027394 -0.897434 3.383948 0 3.383948 
z
" style="stroke: #7f7f7f; stroke-opacity: 0.8; stroke-width: 2.025"/>
    </defs>
    <g clip-path="url(#p7f5198e5e7)">
     <use xlink:href="#m426f6304e6" x="468.48" y="448.005464" style="fill: #7f7f7f; fill-opacity: 0.8; stroke: #7f7f7f; stroke-opacity: 0.8; stroke-width: 2.025"/>
     <use xlink:href="#m426f6304e6" x="944.64" y="454.410302" style="fill: #7f7f7f; fill-opacity: 0.8; stroke: #7f7f7f; stroke-opacity: 0.8; stroke-width: 2.025"/>
     <use xlink:href="#m426f6304e6" x="1420.8" y="536.300647" style="fill: #7f7f7f; fill-opacity: 0.8; stroke: #7f7f7f; stroke-opacity: 0.8; stroke-width: 2.025"/>
    </g>
   </g>
   <g id="line2d_67">
    <path d="M 444.672 507.55292 
L 492.288 507.55292 
M 468.48 507.55292 
L 468.48 389.137952 
M 444.672 389.137952 
L 492.288 389.137952 
" clip-path="url(#p7f5198e5e7)" style="fill: none; stroke: #7f7f7f; stroke-opacity: 0.8; stroke-width: 2.7; stroke-linecap: square"/>
   </g>
   <g id="line2d_68">
    <path d="M 920.832 514.667135 
L 968.448 514.667135 
M 944.64 514.667135 
L 944.64 400.648956 
M 920.832 400.648956 
L 968.448 400.648956 
" clip-path="url(#p7f5198e5e7)" style="fill: none; stroke: #7f7f7f; stroke-opacity: 0.8; stroke-width: 2.7; stroke-linecap: square"/>
   </g>
   <g id="line2d_69">
    <path d="M 1396.992 599.967306 
L 1444.608 599.967306 
M 1420.8 599.967306 
L 1420.8 481.478851 
M 1396.992 481.478851 
L 1444.608 481.478851 
" clip-path="url(#p7f5198e5e7)" style="fill: none; stroke: #7f7f7f; stroke-opacity: 0.8; stroke-width: 2.7; stroke-linecap: square"/>
   </g>
   <g id="line2d_70"/>
   <g id="line2d_71"/>
   <g id="line2d_72"/>
   <g id="line2d_73"/>
   <g id="line2d_74"/>
   <g id="line2d_75"/>
   <g id="line2d_76"/>
   <g id="line2d_77"/>
   <g id="line2d_78"/>
   <g id="line2d_79"/>
   <g id="line2d_80"/>
   <g id="line2d_81"/>
   <g id="line2d_82"/>
   <g id="line2d_83"/>
   <g id="line2d_84"/>
   <g id="patch_3">
    <path d="M 230.4 899.6832 
L 230.4 121.3056 
" style="fill: none; stroke: #000000; stroke-width: 0.8; stroke-linejoin: miter; stroke-linecap: square"/>
   </g>
   <g id="patch_4">
    <path d="M 1658.88 899.6832 
L 1658.88 121.3056 
" style="fill: none; stroke: #000000; stroke-width: 0.8; stroke-linejoin: miter; stroke-linecap: square"/>
   </g>
   <g id="patch_5">
    <path d="M 230.4 899.6832 
L 1658.88 899.6832 
" style="fill: none; stroke: #000000; stroke-width: 0.8; stroke-linejoin: miter; stroke-linecap: square"/>
   </g>
   <g id="patch_6">
    <path d="M 230.4 121.3056 
L 1658.88 121.3056 
" style="fill: none; stroke: #000000; stroke-width: 0.8; stroke-linejoin: miter; stroke-linecap: square"/>
   </g>
   <g id="text_12">
    <!-- ASEM Per Subject: Color Red -->
    <g transform="translate(730.676719 115.066538) scale(0.3 -0.3)">
     <defs>
      <path id="DejaVuSans-72" d="M 2631 2963 
Q 2534 3019 2420 3045 
Q 2306 3072 2169 3072 
Q 1681 3072 1420 2755 
Q 1159 2438 1159 1844 
L 1159 0 
L 581 0 
L 581 3500 
L 1159 3500 
L 1159 2956 
Q 1341 3275 1631 3429 
Q 1922 3584 2338 3584 
Q 2397 3584 2469 3576 
Q 2541 3569 2628 3553 
L 2631 2963 
z
" transform="scale(0.015625)"/>
      <path id="DejaVuSans-75" d="M 544 1381 
L 544 3500 
L 1119 3500 
L 1119 1403 
Q 1119 906 1312 657 
Q 1506 409 1894 409 
Q 2359 409 2629 706 
Q 2900 1003 2900 1516 
L 2900 3500 
L 3475 3500 
L 3475 0 
L 2900 0 
L 2900 538 
Q 2691 219 2414 64 
Q 2138 -91 1772 -91 
Q 1169 -91 856 284 
Q 544 659 544 1381 
z
M 1991 3584 
L 1991 3584 
z
" transform="scale(0.015625)"/>
      <path id="DejaVuSans-62" d="M 3116 1747 
Q 3116 2381 2855 2742 
Q 2594 3103 2138 3103 
Q 1681 3103 1420 2742 
Q 1159 2381 1159 1747 
Q 1159 1113 1420 752 
Q 1681 391 2138 391 
Q 2594 391 2855 752 
Q 3116 1113 3116 1747 
z
M 1159 2969 
Q 1341 3281 1617 3432 
Q 1894 3584 2278 3584 
Q 2916 3584 3314 3078 
Q 3713 2572 3713 1747 
Q 3713 922 3314 415 
Q 2916 -91 2278 -91 
Q 1894 -91 1617 61 
Q 1341 213 1159 525 
L 1159 0 
L 581 0 
L 581 4863 
L 1159 4863 
L 1159 2969 
z
" transform="scale(0.015625)"/>
      <path id="DejaVuSans-6a" d="M 603 3500 
L 1178 3500 
L 1178 -63 
Q 1178 -731 923 -1031 
Q 669 -1331 103 -1331 
L -116 -1331 
L -116 -844 
L 38 -844 
Q 366 -844 484 -692 
Q 603 -541 603 -63 
L 603 3500 
z
M 603 4863 
L 1178 4863 
L 1178 4134 
L 603 4134 
L 603 4863 
z
" transform="scale(0.015625)"/>
      <path id="DejaVuSans-63" d="M 3122 3366 
L 3122 2828 
Q 2878 2963 2633 3030 
Q 2388 3097 2138 3097 
Q 1578 3097 1268 2742 
Q 959 2388 959 1747 
Q 959 1106 1268 751 
Q 1578 397 2138 397 
Q 2388 397 2633 464 
Q 2878 531 3122 666 
L 3122 134 
Q 2881 22 2623 -34 
Q 2366 -91 2075 -91 
Q 1284 -91 818 406 
Q 353 903 353 1747 
Q 353 2603 823 3093 
Q 1294 3584 2113 3584 
Q 2378 3584 2631 3529 
Q 2884 3475 3122 3366 
z
" transform="scale(0.015625)"/>
      <path id="DejaVuSans-3a" d="M 750 794 
L 1409 794 
L 1409 0 
L 750 0 
L 750 794 
z
M 750 3309 
L 1409 3309 
L 1409 2516 
L 750 2516 
L 750 3309 
z
" transform="scale(0.015625)"/>
      <path id="DejaVuSans-43" d="M 4122 4306 
L 4122 3641 
Q 3803 3938 3442 4084 
Q 3081 4231 2675 4231 
Q 1875 4231 1450 3742 
Q 1025 3253 1025 2328 
Q 1025 1406 1450 917 
Q 1875 428 2675 428 
Q 3081 428 3442 575 
Q 3803 722 4122 1019 
L 4122 359 
Q 3791 134 3420 21 
Q 3050 -91 2638 -91 
Q 1578 -91 968 557 
Q 359 1206 359 2328 
Q 359 3453 968 4101 
Q 1578 4750 2638 4750 
Q 3056 4750 3426 4639 
Q 3797 4528 4122 4306 
z
" transform="scale(0.015625)"/>
      <path id="DejaVuSans-6f" d="M 1959 3097 
Q 1497 3097 1228 2736 
Q 959 2375 959 1747 
Q 959 1119 1226 758 
Q 1494 397 1959 397 
Q 2419 397 2687 759 
Q 2956 1122 2956 1747 
Q 2956 2369 2687 2733 
Q 2419 3097 1959 3097 
z
M 1959 3584 
Q 2709 3584 3137 3096 
Q 3566 2609 3566 1747 
Q 3566 888 3137 398 
Q 2709 -91 1959 -91 
Q 1206 -91 779 398 
Q 353 888 353 1747 
Q 353 2609 779 3096 
Q 1206 3584 1959 3584 
z
" transform="scale(0.015625)"/>
      <path id="DejaVuSans-6c" d="M 603 4863 
L 1178 4863 
L 1178 0 
L 603 0 
L 603 4863 
z
" transform="scale(0.015625)"/>
     </defs>
     <use xlink:href="#DejaVuSans-41"/>
     <use xlink:href="#DejaVuSans-53" x="68.408203"/>
     <use xlink:href="#DejaVuSans-45" x="131.884766"/>
     <use xlink:href="#DejaVuSans-4d" x="195.068359"/>
     <use xlink:href="#DejaVuSans-20" x="281.347656"/>
     <use xlink:href="#DejaVuSans-50" x="313.134766"/>
     <use xlink:href="#DejaVuSans-65" x="369.8125"/>
     <use xlink:href="#DejaVuSans-72" x="431.335938"/>
     <use xlink:href="#DejaVuSans-20" x="472.449219"/>
     <use xlink:href="#DejaVuSans-53" x="504.236328"/>
     <use xlink:href="#DejaVuSans-75" x="567.712891"/>
     <use xlink:href="#DejaVuSans-62" x="631.091797"/>
     <use xlink:href="#DejaVuSans-6a" x="694.568359"/>
     <use xlink:href="#DejaVuSans-65" x="722.351562"/>
     <use xlink:href="#DejaVuSans-63" x="783.875"/>
     <use xlink:href="#DejaVuSans-74" x="838.855469"/>
     <use xlink:href="#DejaVuSans-3a" x="878.064453"/>
     <use xlink:href="#DejaVuSans-20" x="911.755859"/>
     <use xlink:href="#DejaVuSans-43" x="943.542969"/>
     <use xlink:href="#DejaVuSans-6f" x="1013.367188"/>
     <use xlink:href="#DejaVuSans-6c" x="1074.548828"/>
     <use xlink:href="#DejaVuSans-6f" x="1102.332031"/>
     <use xlink:href="#DejaVuSans-72" x="1163.513672"/>
     <use xlink:href="#DejaVuSans-20" x="1204.626953"/>
     <use xlink:href="#DejaVuSans-52" x="1236.414062"/>
     <use xlink:href="#DejaVuSans-65" x="1301.396484"/>
     <use xlink:href="#DejaVuSans-64" x="1362.919922"/>
    </g>
   </g>
   <g id="legend_1">
    <g id="patch_7">
     <path d="M 1555.43 577.64935 
L 1644.88 577.64935 
Q 1648.88 577.64935 1648.88 573.64935 
L 1648.88 135.3056 
Q 1648.88 131.3056 1644.88 131.3056 
L 1555.43 131.3056 
Q 1551.43 131.3056 1551.43 135.3056 
L 1551.43 573.64935 
Q 1551.43 577.64935 1555.43 577.64935 
z
" style="fill: #ffffff; opacity: 0.8; stroke: #cccccc; stroke-linejoin: miter"/>
    </g>
    <g id="line2d_85">
     <path d="M 1559.43 147.502475 
L 1579.43 147.502475 
L 1599.43 147.502475 
" style="fill: none; stroke: #1f77b4; stroke-opacity: 0.8; stroke-width: 2.7; stroke-linecap: square"/>
     <g>
      <use xlink:href="#m2c87cce752" x="1579.43" y="147.502475" style="fill: #1f77b4; fill-opacity: 0.8; stroke: #1f77b4; stroke-opacity: 0.8; stroke-width: 2.025"/>
     </g>
    </g>
    <g id="text_13">
     <!-- 1 -->
     <g transform="translate(1615.43 154.502475) scale(0.2 -0.2)">
      <use xlink:href="#DejaVuSans-31"/>
     </g>
    </g>
    <g id="line2d_86">
     <path d="M 1559.43 176.858725 
L 1579.43 176.858725 
L 1599.43 176.858725 
" style="fill: none; stroke: #aec7e8; stroke-opacity: 0.8; stroke-width: 2.7; stroke-linecap: square"/>
     <g>
      <use xlink:href="#m2cc8beba43" x="1579.43" y="176.858725" style="fill: #aec7e8; fill-opacity: 0.8; stroke: #aec7e8; stroke-opacity: 0.8; stroke-width: 2.025"/>
     </g>
    </g>
    <g id="text_14">
     <!-- 2 -->
     <g transform="translate(1615.43 183.858725) scale(0.2 -0.2)">
      <use xlink:href="#DejaVuSans-32"/>
     </g>
    </g>
    <g id="line2d_87">
     <path d="M 1559.43 206.214975 
L 1579.43 206.214975 
L 1599.43 206.214975 
" style="fill: none; stroke: #ff7f0e; stroke-opacity: 0.8; stroke-width: 2.7; stroke-linecap: square"/>
     <g>
      <use xlink:href="#m3c0aa0be05" x="1579.43" y="206.214975" style="fill: #ff7f0e; fill-opacity: 0.8; stroke: #ff7f0e; stroke-opacity: 0.8; stroke-width: 2.025"/>
     </g>
    </g>
    <g id="text_15">
     <!-- 3 -->
     <g transform="translate(1615.43 213.214975) scale(0.2 -0.2)">
      <defs>
       <path id="DejaVuSans-33" d="M 2597 2516 
Q 3050 2419 3304 2112 
Q 3559 1806 3559 1356 
Q 3559 666 3084 287 
Q 2609 -91 1734 -91 
Q 1441 -91 1130 -33 
Q 819 25 488 141 
L 488 750 
Q 750 597 1062 519 
Q 1375 441 1716 441 
Q 2309 441 2620 675 
Q 2931 909 2931 1356 
Q 2931 1769 2642 2001 
Q 2353 2234 1838 2234 
L 1294 2234 
L 1294 2753 
L 1863 2753 
Q 2328 2753 2575 2939 
Q 2822 3125 2822 3475 
Q 2822 3834 2567 4026 
Q 2313 4219 1838 4219 
Q 1578 4219 1281 4162 
Q 984 4106 628 3988 
L 628 4550 
Q 988 4650 1302 4700 
Q 1616 4750 1894 4750 
Q 2613 4750 3031 4423 
Q 3450 4097 3450 3541 
Q 3450 3153 3228 2886 
Q 3006 2619 2597 2516 
z
" transform="scale(0.015625)"/>
      </defs>
      <use xlink:href="#DejaVuSans-33"/>
     </g>
    </g>
    <g id="line2d_88">
     <path d="M 1559.43 235.571225 
L 1579.43 235.571225 
L 1599.43 235.571225 
" style="fill: none; stroke: #ffbb78; stroke-opacity: 0.8; stroke-width: 2.7; stroke-linecap: square"/>
     <g>
      <use xlink:href="#md643731143" x="1579.43" y="235.571225" style="fill: #ffbb78; fill-opacity: 0.8; stroke: #ffbb78; stroke-opacity: 0.8; stroke-width: 2.025"/>
     </g>
    </g>
    <g id="text_16">
     <!-- 4 -->
     <g transform="translate(1615.43 242.571225) scale(0.2 -0.2)">
      <defs>
       <path id="DejaVuSans-34" d="M 2419 4116 
L 825 1625 
L 2419 1625 
L 2419 4116 
z
M 2253 4666 
L 3047 4666 
L 3047 1625 
L 3713 1625 
L 3713 1100 
L 3047 1100 
L 3047 0 
L 2419 0 
L 2419 1100 
L 313 1100 
L 313 1709 
L 2253 4666 
z
" transform="scale(0.015625)"/>
      </defs>
      <use xlink:href="#DejaVuSans-34"/>
     </g>
    </g>
    <g id="line2d_89">
     <path d="M 1559.43 264.927475 
L 1579.43 264.927475 
L 1599.43 264.927475 
" style="fill: none; stroke: #2ca02c; stroke-opacity: 0.8; stroke-width: 2.7; stroke-linecap: square"/>
     <g>
      <use xlink:href="#me491e004d9" x="1579.43" y="264.927475" style="fill: #2ca02c; fill-opacity: 0.8; stroke: #2ca02c; stroke-opacity: 0.8; stroke-width: 2.025"/>
     </g>
    </g>
    <g id="text_17">
     <!-- 5 -->
     <g transform="translate(1615.43 271.927475) scale(0.2 -0.2)">
      <use xlink:href="#DejaVuSans-35"/>
     </g>
    </g>
    <g id="line2d_90">
     <path d="M 1559.43 294.283725 
L 1579.43 294.283725 
L 1599.43 294.283725 
" style="fill: none; stroke: #98df8a; stroke-opacity: 0.8; stroke-width: 2.7; stroke-linecap: square"/>
     <g>
      <use xlink:href="#m5ec2e4852b" x="1579.43" y="294.283725" style="fill: #98df8a; fill-opacity: 0.8; stroke: #98df8a; stroke-opacity: 0.8; stroke-width: 2.025"/>
     </g>
    </g>
    <g id="text_18">
     <!-- 6 -->
     <g transform="translate(1615.43 301.283725) scale(0.2 -0.2)">
      <defs>
       <path id="DejaVuSans-36" d="M 2113 2584 
Q 1688 2584 1439 2293 
Q 1191 2003 1191 1497 
Q 1191 994 1439 701 
Q 1688 409 2113 409 
Q 2538 409 2786 701 
Q 3034 994 3034 1497 
Q 3034 2003 2786 2293 
Q 2538 2584 2113 2584 
z
M 3366 4563 
L 3366 3988 
Q 3128 4100 2886 4159 
Q 2644 4219 2406 4219 
Q 1781 4219 1451 3797 
Q 1122 3375 1075 2522 
Q 1259 2794 1537 2939 
Q 1816 3084 2150 3084 
Q 2853 3084 3261 2657 
Q 3669 2231 3669 1497 
Q 3669 778 3244 343 
Q 2819 -91 2113 -91 
Q 1303 -91 875 529 
Q 447 1150 447 2328 
Q 447 3434 972 4092 
Q 1497 4750 2381 4750 
Q 2619 4750 2861 4703 
Q 3103 4656 3366 4563 
z
" transform="scale(0.015625)"/>
      </defs>
      <use xlink:href="#DejaVuSans-36"/>
     </g>
    </g>
    <g id="line2d_91">
     <path d="M 1559.43 323.639975 
L 1579.43 323.639975 
L 1599.43 323.639975 
" style="fill: none; stroke: #d62728; stroke-opacity: 0.8; stroke-width: 2.7; stroke-linecap: square"/>
     <g>
      <use xlink:href="#m92033de39b" x="1579.43" y="323.639975" style="fill: #d62728; fill-opacity: 0.8; stroke: #d62728; stroke-opacity: 0.8; stroke-width: 2.025"/>
     </g>
    </g>
    <g id="text_19">
     <!-- 7 -->
     <g transform="translate(1615.43 330.639975) scale(0.2 -0.2)">
      <use xlink:href="#DejaVuSans-37"/>
     </g>
    </g>
    <g id="line2d_92">
     <path d="M 1559.43 352.996225 
L 1579.43 352.996225 
L 1599.43 352.996225 
" style="fill: none; stroke: #ff9896; stroke-opacity: 0.8; stroke-width: 2.7; stroke-linecap: square"/>
     <g>
      <use xlink:href="#m76e9400cba" x="1579.43" y="352.996225" style="fill: #ff9896; fill-opacity: 0.8; stroke: #ff9896; stroke-opacity: 0.8; stroke-width: 2.025"/>
     </g>
    </g>
    <g id="text_20">
     <!-- 8 -->
     <g transform="translate(1615.43 359.996225) scale(0.2 -0.2)">
      <defs>
       <path id="DejaVuSans-38" d="M 2034 2216 
Q 1584 2216 1326 1975 
Q 1069 1734 1069 1313 
Q 1069 891 1326 650 
Q 1584 409 2034 409 
Q 2484 409 2743 651 
Q 3003 894 3003 1313 
Q 3003 1734 2745 1975 
Q 2488 2216 2034 2216 
z
M 1403 2484 
Q 997 2584 770 2862 
Q 544 3141 544 3541 
Q 544 4100 942 4425 
Q 1341 4750 2034 4750 
Q 2731 4750 3128 4425 
Q 3525 4100 3525 3541 
Q 3525 3141 3298 2862 
Q 3072 2584 2669 2484 
Q 3125 2378 3379 2068 
Q 3634 1759 3634 1313 
Q 3634 634 3220 271 
Q 2806 -91 2034 -91 
Q 1263 -91 848 271 
Q 434 634 434 1313 
Q 434 1759 690 2068 
Q 947 2378 1403 2484 
z
M 1172 3481 
Q 1172 3119 1398 2916 
Q 1625 2713 2034 2713 
Q 2441 2713 2670 2916 
Q 2900 3119 2900 3481 
Q 2900 3844 2670 4047 
Q 2441 4250 2034 4250 
Q 1625 4250 1398 4047 
Q 1172 3844 1172 3481 
z
" transform="scale(0.015625)"/>
      </defs>
      <use xlink:href="#DejaVuSans-38"/>
     </g>
    </g>
    <g id="line2d_93">
     <path d="M 1559.43 382.352475 
L 1579.43 382.352475 
L 1599.43 382.352475 
" style="fill: none; stroke: #9467bd; stroke-opacity: 0.8; stroke-width: 2.7; stroke-linecap: square"/>
     <g>
      <use xlink:href="#m5431ae111d" x="1579.43" y="382.352475" style="fill: #9467bd; fill-opacity: 0.8; stroke: #9467bd; stroke-opacity: 0.8; stroke-width: 2.025"/>
     </g>
    </g>
    <g id="text_21">
     <!-- 10 -->
     <g transform="translate(1615.43 389.352475) scale(0.2 -0.2)">
      <use xlink:href="#DejaVuSans-31"/>
      <use xlink:href="#DejaVuSans-30" x="63.623047"/>
     </g>
    </g>
    <g id="line2d_94">
     <path d="M 1559.43 411.708725 
L 1579.43 411.708725 
L 1599.43 411.708725 
" style="fill: none; stroke: #c5b0d5; stroke-opacity: 0.8; stroke-width: 2.7; stroke-linecap: square"/>
     <g>
      <use xlink:href="#m68e7255c94" x="1579.43" y="411.708725" style="fill: #c5b0d5; fill-opacity: 0.8; stroke: #c5b0d5; stroke-opacity: 0.8; stroke-width: 2.025"/>
     </g>
    </g>
    <g id="text_22">
     <!-- 11 -->
     <g transform="translate(1615.43 418.708725) scale(0.2 -0.2)">
      <use xlink:href="#DejaVuSans-31"/>
      <use xlink:href="#DejaVuSans-31" x="63.623047"/>
     </g>
    </g>
    <g id="line2d_95">
     <path d="M 1559.43 441.064975 
L 1579.43 441.064975 
L 1599.43 441.064975 
" style="fill: none; stroke: #8c564b; stroke-opacity: 0.8; stroke-width: 2.7; stroke-linecap: square"/>
     <g>
      <use xlink:href="#me3445b2043" x="1579.43" y="441.064975" style="fill: #8c564b; fill-opacity: 0.8; stroke: #8c564b; stroke-opacity: 0.8; stroke-width: 2.025"/>
     </g>
    </g>
    <g id="text_23">
     <!-- 12 -->
     <g transform="translate(1615.43 448.064975) scale(0.2 -0.2)">
      <use xlink:href="#DejaVuSans-31"/>
      <use xlink:href="#DejaVuSans-32" x="63.623047"/>
     </g>
    </g>
    <g id="line2d_96">
     <path d="M 1559.43 470.421225 
L 1579.43 470.421225 
L 1599.43 470.421225 
" style="fill: none; stroke: #c49c94; stroke-opacity: 0.8; stroke-width: 2.7; stroke-linecap: square"/>
     <g>
      <use xlink:href="#mc45fd233e1" x="1579.43" y="470.421225" style="fill: #c49c94; fill-opacity: 0.8; stroke: #c49c94; stroke-opacity: 0.8; stroke-width: 2.025"/>
     </g>
    </g>
    <g id="text_24">
     <!-- 13 -->
     <g transform="translate(1615.43 477.421225) scale(0.2 -0.2)">
      <use xlink:href="#DejaVuSans-31"/>
      <use xlink:href="#DejaVuSans-33" x="63.623047"/>
     </g>
    </g>
    <g id="line2d_97">
     <path d="M 1559.43 499.777475 
L 1579.43 499.777475 
L 1599.43 499.777475 
" style="fill: none; stroke: #e377c2; stroke-opacity: 0.8; stroke-width: 2.7; stroke-linecap: square"/>
     <g>
      <use xlink:href="#mc2e40ca735" x="1579.43" y="499.777475" style="fill: #e377c2; fill-opacity: 0.8; stroke: #e377c2; stroke-opacity: 0.8; stroke-width: 2.025"/>
     </g>
    </g>
    <g id="text_25">
     <!-- 14 -->
     <g transform="translate(1615.43 506.777475) scale(0.2 -0.2)">
      <use xlink:href="#DejaVuSans-31"/>
      <use xlink:href="#DejaVuSans-34" x="63.623047"/>
     </g>
    </g>
    <g id="line2d_98">
     <path d="M 1559.43 529.133725 
L 1579.43 529.133725 
L 1599.43 529.133725 
" style="fill: none; stroke: #f7b6d2; stroke-opacity: 0.8; stroke-width: 2.7; stroke-linecap: square"/>
     <g>
      <use xlink:href="#m200fda2df8" x="1579.43" y="529.133725" style="fill: #f7b6d2; fill-opacity: 0.8; stroke: #f7b6d2; stroke-opacity: 0.8; stroke-width: 2.025"/>
     </g>
    </g>
    <g id="text_26">
     <!-- 15 -->
     <g transform="translate(1615.43 536.133725) scale(0.2 -0.2)">
      <use xlink:href="#DejaVuSans-31"/>
      <use xlink:href="#DejaVuSans-35" x="63.623047"/>
     </g>
    </g>
    <g id="line2d_99">
     <path d="M 1559.43 558.489975 
L 1579.43 558.489975 
L 1599.43 558.489975 
" style="fill: none; stroke: #7f7f7f; stroke-opacity: 0.8; stroke-width: 2.7; stroke-linecap: square"/>
     <g>
      <use xlink:href="#m426f6304e6" x="1579.43" y="558.489975" style="fill: #7f7f7f; fill-opacity: 0.8; stroke: #7f7f7f; stroke-opacity: 0.8; stroke-width: 2.025"/>
     </g>
    </g>
    <g id="text_27">
     <!-- 16 -->
     <g transform="translate(1615.43 565.489975) scale(0.2 -0.2)">
      <use xlink:href="#DejaVuSans-31"/>
      <use xlink:href="#DejaVuSans-36" x="63.623047"/>
     </g>
    </g>
   </g>
  </g>
 </g>
 <defs>
  <clipPath id="p7f5198e5e7">
   <rect x="230.4" y="121.3056" width="1428.48" height="778.3776"/>
  </clipPath>
 </defs>
</svg>
