<?xml version="1.0" encoding="utf-8" standalone="no"?>
<!DOCTYPE svg PUBLIC "-//W3C//DTD SVG 1.1//EN"
  "http://www.w3.org/Graphics/SVG/1.1/DTD/svg11.dtd">
<svg xmlns:xlink="http://www.w3.org/1999/xlink" width="1036.8pt" height="622.08pt" viewBox="0 0 1036.8 622.08" xmlns="http://www.w3.org/2000/svg" version="1.1">
 <metadata>
  <rdf:RDF xmlns:dc="http://purl.org/dc/elements/1.1/" xmlns:cc="http://creativecommons.org/ns#" xmlns:rdf="http://www.w3.org/1999/02/22-rdf-syntax-ns#">
   <cc:Work>
    <dc:type rdf:resource="http://purl.org/dc/dcmitype/StillImage"/>
    <dc:date>2025-02-03T12:06:46.440768</dc:date>
    <dc:format>image/svg+xml</dc:format>
    <dc:creator>
     <cc:Agent>
      <dc:title>Matplotlib v3.9.2, https://matplotlib.org/</dc:title>
     </cc:Agent>
    </dc:creator>
   </cc:Work>
  </rdf:RDF>
 </metadata>
 <defs>
  <style type="text/css">*{stroke-linejoin: round; stroke-linecap: butt}</style>
 </defs>
 <g id="figure_1">
  <g id="patch_1">
   <path d="M 0 622.08 
L 1036.8 622.08 
L 1036.8 0 
L 0 0 
z
" style="fill: #ffffff"/>
  </g>
  <g id="axes_1">
   <g id="patch_2">
    <path d="M 129.6 553.6512 
L 933.12 553.6512 
L 933.12 74.6496 
L 129.6 74.6496 
z
" style="fill: #ffffff"/>
   </g>
   <g id="matplotlib.axis_1">
    <g id="xtick_1">
     <g id="line2d_1">
      <defs>
       <path id="ma6ee70b74a" d="M 0 0 
L 0 3.5 
" style="stroke: #000000; stroke-width: 0.8"/>
      </defs>
      <g>
       <use xlink:href="#ma6ee70b74a" x="263.52" y="553.6512" style="stroke: #000000; stroke-width: 0.8"/>
      </g>
     </g>
     <g id="text_1">
      <!-- 0.25 -->
      <g transform="translate(235.687969 579.647294) scale(0.25 -0.25)">
       <defs>
        <path id="DejaVuSans-30" d="M 2034 4250 
Q 1547 4250 1301 3770 
Q 1056 3291 1056 2328 
Q 1056 1369 1301 889 
Q 1547 409 2034 409 
Q 2525 409 2770 889 
Q 3016 1369 3016 2328 
Q 3016 3291 2770 3770 
Q 2525 4250 2034 4250 
z
M 2034 4750 
Q 2819 4750 3233 4129 
Q 3647 3509 3647 2328 
Q 3647 1150 3233 529 
Q 2819 -91 2034 -91 
Q 1250 -91 836 529 
Q 422 1150 422 2328 
Q 422 3509 836 4129 
Q 1250 4750 2034 4750 
z
" transform="scale(0.015625)"/>
        <path id="DejaVuSans-2e" d="M 684 794 
L 1344 794 
L 1344 0 
L 684 0 
L 684 794 
z
" transform="scale(0.015625)"/>
        <path id="DejaVuSans-32" d="M 1228 531 
L 3431 531 
L 3431 0 
L 469 0 
L 469 531 
Q 828 903 1448 1529 
Q 2069 2156 2228 2338 
Q 2531 2678 2651 2914 
Q 2772 3150 2772 3378 
Q 2772 3750 2511 3984 
Q 2250 4219 1831 4219 
Q 1534 4219 1204 4116 
Q 875 4013 500 3803 
L 500 4441 
Q 881 4594 1212 4672 
Q 1544 4750 1819 4750 
Q 2544 4750 2975 4387 
Q 3406 4025 3406 3419 
Q 3406 3131 3298 2873 
Q 3191 2616 2906 2266 
Q 2828 2175 2409 1742 
Q 1991 1309 1228 531 
z
" transform="scale(0.015625)"/>
        <path id="DejaVuSans-35" d="M 691 4666 
L 3169 4666 
L 3169 4134 
L 1269 4134 
L 1269 2991 
Q 1406 3038 1543 3061 
Q 1681 3084 1819 3084 
Q 2600 3084 3056 2656 
Q 3513 2228 3513 1497 
Q 3513 744 3044 326 
Q 2575 -91 1722 -91 
Q 1428 -91 1123 -41 
Q 819 9 494 109 
L 494 744 
Q 775 591 1075 516 
Q 1375 441 1709 441 
Q 2250 441 2565 725 
Q 2881 1009 2881 1497 
Q 2881 1984 2565 2268 
Q 2250 2553 1709 2553 
Q 1456 2553 1204 2497 
Q 953 2441 691 2322 
L 691 4666 
z
" transform="scale(0.015625)"/>
       </defs>
       <use xlink:href="#DejaVuSans-30"/>
       <use xlink:href="#DejaVuSans-2e" x="63.623047"/>
       <use xlink:href="#DejaVuSans-32" x="95.410156"/>
       <use xlink:href="#DejaVuSans-35" x="159.033203"/>
      </g>
     </g>
    </g>
    <g id="xtick_2">
     <g id="line2d_2">
      <g>
       <use xlink:href="#ma6ee70b74a" x="531.36" y="553.6512" style="stroke: #000000; stroke-width: 0.8"/>
      </g>
     </g>
     <g id="text_2">
      <!-- 0.5 -->
      <g transform="translate(511.481094 579.647294) scale(0.25 -0.25)">
       <use xlink:href="#DejaVuSans-30"/>
       <use xlink:href="#DejaVuSans-2e" x="63.623047"/>
       <use xlink:href="#DejaVuSans-35" x="95.410156"/>
      </g>
     </g>
    </g>
    <g id="xtick_3">
     <g id="line2d_3">
      <g>
       <use xlink:href="#ma6ee70b74a" x="799.2" y="553.6512" style="stroke: #000000; stroke-width: 0.8"/>
      </g>
     </g>
     <g id="text_3">
      <!-- 0.75 -->
      <g transform="translate(771.367969 579.647294) scale(0.25 -0.25)">
       <defs>
        <path id="DejaVuSans-37" d="M 525 4666 
L 3525 4666 
L 3525 4397 
L 1831 0 
L 1172 0 
L 2766 4134 
L 525 4134 
L 525 4666 
z
" transform="scale(0.015625)"/>
       </defs>
       <use xlink:href="#DejaVuSans-30"/>
       <use xlink:href="#DejaVuSans-2e" x="63.623047"/>
       <use xlink:href="#DejaVuSans-37" x="95.410156"/>
       <use xlink:href="#DejaVuSans-35" x="159.033203"/>
      </g>
     </g>
    </g>
    <g id="text_4">
     <!-- P(Right|Green) -->
     <g transform="translate(420.64125 611.773075) scale(0.3 -0.3)">
      <defs>
       <path id="DejaVuSans-50" d="M 1259 4147 
L 1259 2394 
L 2053 2394 
Q 2494 2394 2734 2622 
Q 2975 2850 2975 3272 
Q 2975 3691 2734 3919 
Q 2494 4147 2053 4147 
L 1259 4147 
z
M 628 4666 
L 2053 4666 
Q 2838 4666 3239 4311 
Q 3641 3956 3641 3272 
Q 3641 2581 3239 2228 
Q 2838 1875 2053 1875 
L 1259 1875 
L 1259 0 
L 628 0 
L 628 4666 
z
" transform="scale(0.015625)"/>
       <path id="DejaVuSans-28" d="M 1984 4856 
Q 1566 4138 1362 3434 
Q 1159 2731 1159 2009 
Q 1159 1288 1364 580 
Q 1569 -128 1984 -844 
L 1484 -844 
Q 1016 -109 783 600 
Q 550 1309 550 2009 
Q 550 2706 781 3412 
Q 1013 4119 1484 4856 
L 1984 4856 
z
" transform="scale(0.015625)"/>
       <path id="DejaVuSans-52" d="M 2841 2188 
Q 3044 2119 3236 1894 
Q 3428 1669 3622 1275 
L 4263 0 
L 3584 0 
L 2988 1197 
Q 2756 1666 2539 1819 
Q 2322 1972 1947 1972 
L 1259 1972 
L 1259 0 
L 628 0 
L 628 4666 
L 2053 4666 
Q 2853 4666 3247 4331 
Q 3641 3997 3641 3322 
Q 3641 2881 3436 2590 
Q 3231 2300 2841 2188 
z
M 1259 4147 
L 1259 2491 
L 2053 2491 
Q 2509 2491 2742 2702 
Q 2975 2913 2975 3322 
Q 2975 3731 2742 3939 
Q 2509 4147 2053 4147 
L 1259 4147 
z
" transform="scale(0.015625)"/>
       <path id="DejaVuSans-69" d="M 603 3500 
L 1178 3500 
L 1178 0 
L 603 0 
L 603 3500 
z
M 603 4863 
L 1178 4863 
L 1178 4134 
L 603 4134 
L 603 4863 
z
" transform="scale(0.015625)"/>
       <path id="DejaVuSans-67" d="M 2906 1791 
Q 2906 2416 2648 2759 
Q 2391 3103 1925 3103 
Q 1463 3103 1205 2759 
Q 947 2416 947 1791 
Q 947 1169 1205 825 
Q 1463 481 1925 481 
Q 2391 481 2648 825 
Q 2906 1169 2906 1791 
z
M 3481 434 
Q 3481 -459 3084 -895 
Q 2688 -1331 1869 -1331 
Q 1566 -1331 1297 -1286 
Q 1028 -1241 775 -1147 
L 775 -588 
Q 1028 -725 1275 -790 
Q 1522 -856 1778 -856 
Q 2344 -856 2625 -561 
Q 2906 -266 2906 331 
L 2906 616 
Q 2728 306 2450 153 
Q 2172 0 1784 0 
Q 1141 0 747 490 
Q 353 981 353 1791 
Q 353 2603 747 3093 
Q 1141 3584 1784 3584 
Q 2172 3584 2450 3431 
Q 2728 3278 2906 2969 
L 2906 3500 
L 3481 3500 
L 3481 434 
z
" transform="scale(0.015625)"/>
       <path id="DejaVuSans-68" d="M 3513 2113 
L 3513 0 
L 2938 0 
L 2938 2094 
Q 2938 2591 2744 2837 
Q 2550 3084 2163 3084 
Q 1697 3084 1428 2787 
Q 1159 2491 1159 1978 
L 1159 0 
L 581 0 
L 581 4863 
L 1159 4863 
L 1159 2956 
Q 1366 3272 1645 3428 
Q 1925 3584 2291 3584 
Q 2894 3584 3203 3211 
Q 3513 2838 3513 2113 
z
" transform="scale(0.015625)"/>
       <path id="DejaVuSans-74" d="M 1172 4494 
L 1172 3500 
L 2356 3500 
L 2356 3053 
L 1172 3053 
L 1172 1153 
Q 1172 725 1289 603 
Q 1406 481 1766 481 
L 2356 481 
L 2356 0 
L 1766 0 
Q 1100 0 847 248 
Q 594 497 594 1153 
L 594 3053 
L 172 3053 
L 172 3500 
L 594 3500 
L 594 4494 
L 1172 4494 
z
" transform="scale(0.015625)"/>
       <path id="DejaVuSans-7c" d="M 1344 4891 
L 1344 -1509 
L 813 -1509 
L 813 4891 
L 1344 4891 
z
" transform="scale(0.015625)"/>
       <path id="DejaVuSans-47" d="M 3809 666 
L 3809 1919 
L 2778 1919 
L 2778 2438 
L 4434 2438 
L 4434 434 
Q 4069 175 3628 42 
Q 3188 -91 2688 -91 
Q 1594 -91 976 548 
Q 359 1188 359 2328 
Q 359 3472 976 4111 
Q 1594 4750 2688 4750 
Q 3144 4750 3555 4637 
Q 3966 4525 4313 4306 
L 4313 3634 
Q 3963 3931 3569 4081 
Q 3175 4231 2741 4231 
Q 1884 4231 1454 3753 
Q 1025 3275 1025 2328 
Q 1025 1384 1454 906 
Q 1884 428 2741 428 
Q 3075 428 3337 486 
Q 3600 544 3809 666 
z
" transform="scale(0.015625)"/>
       <path id="DejaVuSans-72" d="M 2631 2963 
Q 2534 3019 2420 3045 
Q 2306 3072 2169 3072 
Q 1681 3072 1420 2755 
Q 1159 2438 1159 1844 
L 1159 0 
L 581 0 
L 581 3500 
L 1159 3500 
L 1159 2956 
Q 1341 3275 1631 3429 
Q 1922 3584 2338 3584 
Q 2397 3584 2469 3576 
Q 2541 3569 2628 3553 
L 2631 2963 
z
" transform="scale(0.015625)"/>
       <path id="DejaVuSans-65" d="M 3597 1894 
L 3597 1613 
L 953 1613 
Q 991 1019 1311 708 
Q 1631 397 2203 397 
Q 2534 397 2845 478 
Q 3156 559 3463 722 
L 3463 178 
Q 3153 47 2828 -22 
Q 2503 -91 2169 -91 
Q 1331 -91 842 396 
Q 353 884 353 1716 
Q 353 2575 817 3079 
Q 1281 3584 2069 3584 
Q 2775 3584 3186 3129 
Q 3597 2675 3597 1894 
z
M 3022 2063 
Q 3016 2534 2758 2815 
Q 2500 3097 2075 3097 
Q 1594 3097 1305 2825 
Q 1016 2553 972 2059 
L 3022 2063 
z
" transform="scale(0.015625)"/>
       <path id="DejaVuSans-6e" d="M 3513 2113 
L 3513 0 
L 2938 0 
L 2938 2094 
Q 2938 2591 2744 2837 
Q 2550 3084 2163 3084 
Q 1697 3084 1428 2787 
Q 1159 2491 1159 1978 
L 1159 0 
L 581 0 
L 581 3500 
L 1159 3500 
L 1159 2956 
Q 1366 3272 1645 3428 
Q 1925 3584 2291 3584 
Q 2894 3584 3203 3211 
Q 3513 2838 3513 2113 
z
" transform="scale(0.015625)"/>
       <path id="DejaVuSans-29" d="M 513 4856 
L 1013 4856 
Q 1481 4119 1714 3412 
Q 1947 2706 1947 2009 
Q 1947 1309 1714 600 
Q 1481 -109 1013 -844 
L 513 -844 
Q 928 -128 1133 580 
Q 1338 1288 1338 2009 
Q 1338 2731 1133 3434 
Q 928 4138 513 4856 
z
" transform="scale(0.015625)"/>
      </defs>
      <use xlink:href="#DejaVuSans-50"/>
      <use xlink:href="#DejaVuSans-28" x="60.302734"/>
      <use xlink:href="#DejaVuSans-52" x="99.316406"/>
      <use xlink:href="#DejaVuSans-69" x="168.798828"/>
      <use xlink:href="#DejaVuSans-67" x="196.582031"/>
      <use xlink:href="#DejaVuSans-68" x="260.058594"/>
      <use xlink:href="#DejaVuSans-74" x="323.4375"/>
      <use xlink:href="#DejaVuSans-7c" x="362.646484"/>
      <use xlink:href="#DejaVuSans-47" x="396.337891"/>
      <use xlink:href="#DejaVuSans-72" x="473.828125"/>
      <use xlink:href="#DejaVuSans-65" x="512.691406"/>
      <use xlink:href="#DejaVuSans-65" x="574.214844"/>
      <use xlink:href="#DejaVuSans-6e" x="635.738281"/>
      <use xlink:href="#DejaVuSans-29" x="699.117188"/>
     </g>
    </g>
   </g>
   <g id="matplotlib.axis_2">
    <g id="ytick_1">
     <g id="line2d_4">
      <defs>
       <path id="m1718fd0cc6" d="M 0 0 
L -3.5 0 
" style="stroke: #000000; stroke-width: 0.8"/>
      </defs>
      <g>
       <use xlink:href="#m1718fd0cc6" x="129.6" y="543.414348" style="stroke: #000000; stroke-width: 0.8"/>
      </g>
     </g>
     <g id="text_5">
      <!-- −2.0 -->
      <g transform="translate(61.892969 552.912395) scale(0.25 -0.25)">
       <defs>
        <path id="DejaVuSans-2212" d="M 678 2272 
L 4684 2272 
L 4684 1741 
L 678 1741 
L 678 2272 
z
" transform="scale(0.015625)"/>
       </defs>
       <use xlink:href="#DejaVuSans-2212"/>
       <use xlink:href="#DejaVuSans-32" x="83.789062"/>
       <use xlink:href="#DejaVuSans-2e" x="147.412109"/>
       <use xlink:href="#DejaVuSans-30" x="179.199219"/>
      </g>
     </g>
    </g>
    <g id="ytick_2">
     <g id="line2d_5">
      <g>
       <use xlink:href="#m1718fd0cc6" x="129.6" y="475.344157" style="stroke: #000000; stroke-width: 0.8"/>
      </g>
     </g>
     <g id="text_6">
      <!-- −1.5 -->
      <g transform="translate(61.892969 484.842204) scale(0.25 -0.25)">
       <defs>
        <path id="DejaVuSans-31" d="M 794 531 
L 1825 531 
L 1825 4091 
L 703 3866 
L 703 4441 
L 1819 4666 
L 2450 4666 
L 2450 531 
L 3481 531 
L 3481 0 
L 794 0 
L 794 531 
z
" transform="scale(0.015625)"/>
       </defs>
       <use xlink:href="#DejaVuSans-2212"/>
       <use xlink:href="#DejaVuSans-31" x="83.789062"/>
       <use xlink:href="#DejaVuSans-2e" x="147.412109"/>
       <use xlink:href="#DejaVuSans-35" x="179.199219"/>
      </g>
     </g>
    </g>
    <g id="ytick_3">
     <g id="line2d_6">
      <g>
       <use xlink:href="#m1718fd0cc6" x="129.6" y="407.273966" style="stroke: #000000; stroke-width: 0.8"/>
      </g>
     </g>
     <g id="text_7">
      <!-- −1.0 -->
      <g transform="translate(61.892969 416.772013) scale(0.25 -0.25)">
       <use xlink:href="#DejaVuSans-2212"/>
       <use xlink:href="#DejaVuSans-31" x="83.789062"/>
       <use xlink:href="#DejaVuSans-2e" x="147.412109"/>
       <use xlink:href="#DejaVuSans-30" x="179.199219"/>
      </g>
     </g>
    </g>
    <g id="ytick_4">
     <g id="line2d_7">
      <g>
       <use xlink:href="#m1718fd0cc6" x="129.6" y="339.203775" style="stroke: #000000; stroke-width: 0.8"/>
      </g>
     </g>
     <g id="text_8">
      <!-- −0.5 -->
      <g transform="translate(61.892969 348.701822) scale(0.25 -0.25)">
       <use xlink:href="#DejaVuSans-2212"/>
       <use xlink:href="#DejaVuSans-30" x="83.789062"/>
       <use xlink:href="#DejaVuSans-2e" x="147.412109"/>
       <use xlink:href="#DejaVuSans-35" x="179.199219"/>
      </g>
     </g>
    </g>
    <g id="ytick_5">
     <g id="line2d_8">
      <g>
       <use xlink:href="#m1718fd0cc6" x="129.6" y="271.133584" style="stroke: #000000; stroke-width: 0.8"/>
      </g>
     </g>
     <g id="text_9">
      <!-- 0.0 -->
      <g transform="translate(82.842187 280.631631) scale(0.25 -0.25)">
       <use xlink:href="#DejaVuSans-30"/>
       <use xlink:href="#DejaVuSans-2e" x="63.623047"/>
       <use xlink:href="#DejaVuSans-30" x="95.410156"/>
      </g>
     </g>
    </g>
    <g id="ytick_6">
     <g id="line2d_9">
      <g>
       <use xlink:href="#m1718fd0cc6" x="129.6" y="203.063393" style="stroke: #000000; stroke-width: 0.8"/>
      </g>
     </g>
     <g id="text_10">
      <!-- 0.5 -->
      <g transform="translate(82.842187 212.56144) scale(0.25 -0.25)">
       <use xlink:href="#DejaVuSans-30"/>
       <use xlink:href="#DejaVuSans-2e" x="63.623047"/>
       <use xlink:href="#DejaVuSans-35" x="95.410156"/>
      </g>
     </g>
    </g>
    <g id="ytick_7">
     <g id="line2d_10">
      <g>
       <use xlink:href="#m1718fd0cc6" x="129.6" y="134.993202" style="stroke: #000000; stroke-width: 0.8"/>
      </g>
     </g>
     <g id="text_11">
      <!-- 1.0 -->
      <g transform="translate(82.842187 144.491249) scale(0.25 -0.25)">
       <use xlink:href="#DejaVuSans-31"/>
       <use xlink:href="#DejaVuSans-2e" x="63.623047"/>
       <use xlink:href="#DejaVuSans-30" x="95.410156"/>
      </g>
     </g>
    </g>
    <g id="text_12">
     <!-- ASEM (deg/s) -->
     <g transform="translate(51.653906 413.968369) rotate(-90) scale(0.3 -0.3)">
      <defs>
       <path id="DejaVuSans-41" d="M 2188 4044 
L 1331 1722 
L 3047 1722 
L 2188 4044 
z
M 1831 4666 
L 2547 4666 
L 4325 0 
L 3669 0 
L 3244 1197 
L 1141 1197 
L 716 0 
L 50 0 
L 1831 4666 
z
" transform="scale(0.015625)"/>
       <path id="DejaVuSans-53" d="M 3425 4513 
L 3425 3897 
Q 3066 4069 2747 4153 
Q 2428 4238 2131 4238 
Q 1616 4238 1336 4038 
Q 1056 3838 1056 3469 
Q 1056 3159 1242 3001 
Q 1428 2844 1947 2747 
L 2328 2669 
Q 3034 2534 3370 2195 
Q 3706 1856 3706 1288 
Q 3706 609 3251 259 
Q 2797 -91 1919 -91 
Q 1588 -91 1214 -16 
Q 841 59 441 206 
L 441 856 
Q 825 641 1194 531 
Q 1563 422 1919 422 
Q 2459 422 2753 634 
Q 3047 847 3047 1241 
Q 3047 1584 2836 1778 
Q 2625 1972 2144 2069 
L 1759 2144 
Q 1053 2284 737 2584 
Q 422 2884 422 3419 
Q 422 4038 858 4394 
Q 1294 4750 2059 4750 
Q 2388 4750 2728 4690 
Q 3069 4631 3425 4513 
z
" transform="scale(0.015625)"/>
       <path id="DejaVuSans-45" d="M 628 4666 
L 3578 4666 
L 3578 4134 
L 1259 4134 
L 1259 2753 
L 3481 2753 
L 3481 2222 
L 1259 2222 
L 1259 531 
L 3634 531 
L 3634 0 
L 628 0 
L 628 4666 
z
" transform="scale(0.015625)"/>
       <path id="DejaVuSans-4d" d="M 628 4666 
L 1569 4666 
L 2759 1491 
L 3956 4666 
L 4897 4666 
L 4897 0 
L 4281 0 
L 4281 4097 
L 3078 897 
L 2444 897 
L 1241 4097 
L 1241 0 
L 628 0 
L 628 4666 
z
" transform="scale(0.015625)"/>
       <path id="DejaVuSans-20" transform="scale(0.015625)"/>
       <path id="DejaVuSans-64" d="M 2906 2969 
L 2906 4863 
L 3481 4863 
L 3481 0 
L 2906 0 
L 2906 525 
Q 2725 213 2448 61 
Q 2172 -91 1784 -91 
Q 1150 -91 751 415 
Q 353 922 353 1747 
Q 353 2572 751 3078 
Q 1150 3584 1784 3584 
Q 2172 3584 2448 3432 
Q 2725 3281 2906 2969 
z
M 947 1747 
Q 947 1113 1208 752 
Q 1469 391 1925 391 
Q 2381 391 2643 752 
Q 2906 1113 2906 1747 
Q 2906 2381 2643 2742 
Q 2381 3103 1925 3103 
Q 1469 3103 1208 2742 
Q 947 2381 947 1747 
z
" transform="scale(0.015625)"/>
       <path id="DejaVuSans-2f" d="M 1625 4666 
L 2156 4666 
L 531 -594 
L 0 -594 
L 1625 4666 
z
" transform="scale(0.015625)"/>
       <path id="DejaVuSans-73" d="M 2834 3397 
L 2834 2853 
Q 2591 2978 2328 3040 
Q 2066 3103 1784 3103 
Q 1356 3103 1142 2972 
Q 928 2841 928 2578 
Q 928 2378 1081 2264 
Q 1234 2150 1697 2047 
L 1894 2003 
Q 2506 1872 2764 1633 
Q 3022 1394 3022 966 
Q 3022 478 2636 193 
Q 2250 -91 1575 -91 
Q 1294 -91 989 -36 
Q 684 19 347 128 
L 347 722 
Q 666 556 975 473 
Q 1284 391 1588 391 
Q 1994 391 2212 530 
Q 2431 669 2431 922 
Q 2431 1156 2273 1281 
Q 2116 1406 1581 1522 
L 1381 1569 
Q 847 1681 609 1914 
Q 372 2147 372 2553 
Q 372 3047 722 3315 
Q 1072 3584 1716 3584 
Q 2034 3584 2315 3537 
Q 2597 3491 2834 3397 
z
" transform="scale(0.015625)"/>
      </defs>
      <use xlink:href="#DejaVuSans-41"/>
      <use xlink:href="#DejaVuSans-53" x="68.408203"/>
      <use xlink:href="#DejaVuSans-45" x="131.884766"/>
      <use xlink:href="#DejaVuSans-4d" x="195.068359"/>
      <use xlink:href="#DejaVuSans-20" x="281.347656"/>
      <use xlink:href="#DejaVuSans-28" x="313.134766"/>
      <use xlink:href="#DejaVuSans-64" x="352.148438"/>
      <use xlink:href="#DejaVuSans-65" x="415.625"/>
      <use xlink:href="#DejaVuSans-67" x="477.148438"/>
      <use xlink:href="#DejaVuSans-2f" x="540.625"/>
      <use xlink:href="#DejaVuSans-73" x="574.316406"/>
      <use xlink:href="#DejaVuSans-29" x="626.416016"/>
     </g>
    </g>
   </g>
   <g id="line2d_11">
    <path d="M 263.52 247.645045 
L 531.36 272.303503 
L 799.2 353.621522 
" clip-path="url(#p131407c7f5)" style="fill: none; stroke: #1f77b4; stroke-opacity: 0.8; stroke-width: 2.7; stroke-linecap: square"/>
    <defs>
     <path id="m4d2f567743" d="M 0 3.383948 
C 0.897434 3.383948 1.758231 3.027394 2.392813 2.392813 
C 3.027394 1.758231 3.383948 0.897434 3.383948 0 
C 3.383948 -0.897434 3.027394 -1.758231 2.392813 -2.392813 
C 1.758231 -3.027394 0.897434 -3.383948 0 -3.383948 
C -0.897434 -3.383948 -1.758231 -3.027394 -2.392813 -2.392813 
C -3.027394 -1.758231 -3.383948 -0.897434 -3.383948 0 
C -3.383948 0.897434 -3.027394 1.758231 -2.392813 2.392813 
C -1.758231 3.027394 -0.897434 3.383948 0 3.383948 
z
" style="stroke: #1f77b4; stroke-opacity: 0.8; stroke-width: 2.025"/>
    </defs>
    <g clip-path="url(#p131407c7f5)">
     <use xlink:href="#m4d2f567743" x="263.52" y="247.645045" style="fill: #1f77b4; fill-opacity: 0.8; stroke: #1f77b4; stroke-opacity: 0.8; stroke-width: 2.025"/>
     <use xlink:href="#m4d2f567743" x="531.36" y="272.303503" style="fill: #1f77b4; fill-opacity: 0.8; stroke: #1f77b4; stroke-opacity: 0.8; stroke-width: 2.025"/>
     <use xlink:href="#m4d2f567743" x="799.2" y="353.621522" style="fill: #1f77b4; fill-opacity: 0.8; stroke: #1f77b4; stroke-opacity: 0.8; stroke-width: 2.025"/>
    </g>
   </g>
   <g id="line2d_12">
    <path d="M 250.128 265.915844 
L 276.912 265.915844 
M 263.52 265.915844 
L 263.52 229.538523 
M 250.128 229.538523 
L 276.912 229.538523 
" clip-path="url(#p131407c7f5)" style="fill: none; stroke: #1f77b4; stroke-opacity: 0.8; stroke-width: 2.7; stroke-linecap: square"/>
   </g>
   <g id="line2d_13">
    <path d="M 517.968 291.65314 
L 544.752 291.65314 
M 531.36 291.65314 
L 531.36 252.903124 
M 517.968 252.903124 
L 544.752 252.903124 
" clip-path="url(#p131407c7f5)" style="fill: none; stroke: #1f77b4; stroke-opacity: 0.8; stroke-width: 2.7; stroke-linecap: square"/>
   </g>
   <g id="line2d_14">
    <path d="M 785.808 379.45031 
L 812.592 379.45031 
M 799.2 379.45031 
L 799.2 326.854372 
M 785.808 326.854372 
L 812.592 326.854372 
" clip-path="url(#p131407c7f5)" style="fill: none; stroke: #1f77b4; stroke-opacity: 0.8; stroke-width: 2.7; stroke-linecap: square"/>
   </g>
   <g id="line2d_15">
    <path d="M 263.52 252.840927 
L 531.36 306.971306 
L 799.2 489.061513 
" clip-path="url(#p131407c7f5)" style="fill: none; stroke: #aec7e8; stroke-opacity: 0.8; stroke-width: 2.7; stroke-linecap: square"/>
    <defs>
     <path id="m742c2f9475" d="M 0 3.383948 
C 0.897434 3.383948 1.758231 3.027394 2.392813 2.392813 
C 3.027394 1.758231 3.383948 0.897434 3.383948 0 
C 3.383948 -0.897434 3.027394 -1.758231 2.392813 -2.392813 
C 1.758231 -3.027394 0.897434 -3.383948 0 -3.383948 
C -0.897434 -3.383948 -1.758231 -3.027394 -2.392813 -2.392813 
C -3.027394 -1.758231 -3.383948 -0.897434 -3.383948 0 
C -3.383948 0.897434 -3.027394 1.758231 -2.392813 2.392813 
C -1.758231 3.027394 -0.897434 3.383948 0 3.383948 
z
" style="stroke: #aec7e8; stroke-opacity: 0.8; stroke-width: 2.025"/>
    </defs>
    <g clip-path="url(#p131407c7f5)">
     <use xlink:href="#m742c2f9475" x="263.52" y="252.840927" style="fill: #aec7e8; fill-opacity: 0.8; stroke: #aec7e8; stroke-opacity: 0.8; stroke-width: 2.025"/>
     <use xlink:href="#m742c2f9475" x="531.36" y="306.971306" style="fill: #aec7e8; fill-opacity: 0.8; stroke: #aec7e8; stroke-opacity: 0.8; stroke-width: 2.025"/>
     <use xlink:href="#m742c2f9475" x="799.2" y="489.061513" style="fill: #aec7e8; fill-opacity: 0.8; stroke: #aec7e8; stroke-opacity: 0.8; stroke-width: 2.025"/>
    </g>
   </g>
   <g id="line2d_16">
    <path d="M 250.128 299.134455 
L 276.912 299.134455 
M 263.52 299.134455 
L 263.52 209.242688 
M 250.128 209.242688 
L 276.912 209.242688 
" clip-path="url(#p131407c7f5)" style="fill: none; stroke: #aec7e8; stroke-opacity: 0.8; stroke-width: 2.7; stroke-linecap: square"/>
   </g>
   <g id="line2d_17">
    <path d="M 517.968 359.892887 
L 544.752 359.892887 
M 531.36 359.892887 
L 531.36 252.262123 
M 517.968 252.262123 
L 544.752 252.262123 
" clip-path="url(#p131407c7f5)" style="fill: none; stroke: #aec7e8; stroke-opacity: 0.8; stroke-width: 2.7; stroke-linecap: square"/>
   </g>
   <g id="line2d_18">
    <path d="M 785.808 531.8784 
L 812.592 531.8784 
M 799.2 531.8784 
L 799.2 446.839101 
M 785.808 446.839101 
L 812.592 446.839101 
" clip-path="url(#p131407c7f5)" style="fill: none; stroke: #aec7e8; stroke-opacity: 0.8; stroke-width: 2.7; stroke-linecap: square"/>
   </g>
   <g id="line2d_19">
    <path d="M 263.52 177.547152 
L 531.36 222.622347 
L 799.2 241.313666 
" clip-path="url(#p131407c7f5)" style="fill: none; stroke: #ff7f0e; stroke-opacity: 0.8; stroke-width: 2.7; stroke-linecap: square"/>
    <defs>
     <path id="mdf0fded893" d="M 0 3.383948 
C 0.897434 3.383948 1.758231 3.027394 2.392813 2.392813 
C 3.027394 1.758231 3.383948 0.897434 3.383948 0 
C 3.383948 -0.897434 3.027394 -1.758231 2.392813 -2.392813 
C 1.758231 -3.027394 0.897434 -3.383948 0 -3.383948 
C -0.897434 -3.383948 -1.758231 -3.027394 -2.392813 -2.392813 
C -3.027394 -1.758231 -3.383948 -0.897434 -3.383948 0 
C -3.383948 0.897434 -3.027394 1.758231 -2.392813 2.392813 
C -1.758231 3.027394 -0.897434 3.383948 0 3.383948 
z
" style="stroke: #ff7f0e; stroke-opacity: 0.8; stroke-width: 2.025"/>
    </defs>
    <g clip-path="url(#p131407c7f5)">
     <use xlink:href="#mdf0fded893" x="263.52" y="177.547152" style="fill: #ff7f0e; fill-opacity: 0.8; stroke: #ff7f0e; stroke-opacity: 0.8; stroke-width: 2.025"/>
     <use xlink:href="#mdf0fded893" x="531.36" y="222.622347" style="fill: #ff7f0e; fill-opacity: 0.8; stroke: #ff7f0e; stroke-opacity: 0.8; stroke-width: 2.025"/>
     <use xlink:href="#mdf0fded893" x="799.2" y="241.313666" style="fill: #ff7f0e; fill-opacity: 0.8; stroke: #ff7f0e; stroke-opacity: 0.8; stroke-width: 2.025"/>
    </g>
   </g>
   <g id="line2d_20">
    <path d="M 250.128 200.856996 
L 276.912 200.856996 
M 263.52 200.856996 
L 263.52 151.476782 
M 250.128 151.476782 
L 276.912 151.476782 
" clip-path="url(#p131407c7f5)" style="fill: none; stroke: #ff7f0e; stroke-opacity: 0.8; stroke-width: 2.7; stroke-linecap: square"/>
   </g>
   <g id="line2d_21">
    <path d="M 517.968 244.128741 
L 544.752 244.128741 
M 531.36 244.128741 
L 531.36 199.547853 
M 517.968 199.547853 
L 544.752 199.547853 
" clip-path="url(#p131407c7f5)" style="fill: none; stroke: #ff7f0e; stroke-opacity: 0.8; stroke-width: 2.7; stroke-linecap: square"/>
   </g>
   <g id="line2d_22">
    <path d="M 785.808 266.303837 
L 812.592 266.303837 
M 799.2 266.303837 
L 799.2 219.684648 
M 785.808 219.684648 
L 812.592 219.684648 
" clip-path="url(#p131407c7f5)" style="fill: none; stroke: #ff7f0e; stroke-opacity: 0.8; stroke-width: 2.7; stroke-linecap: square"/>
   </g>
   <g id="line2d_23">
    <path d="M 263.52 281.893587 
L 531.36 289.82079 
L 799.2 375.476449 
" clip-path="url(#p131407c7f5)" style="fill: none; stroke: #ffbb78; stroke-opacity: 0.8; stroke-width: 2.7; stroke-linecap: square"/>
    <defs>
     <path id="mf182f40aab" d="M 0 3.383948 
C 0.897434 3.383948 1.758231 3.027394 2.392813 2.392813 
C 3.027394 1.758231 3.383948 0.897434 3.383948 0 
C 3.383948 -0.897434 3.027394 -1.758231 2.392813 -2.392813 
C 1.758231 -3.027394 0.897434 -3.383948 0 -3.383948 
C -0.897434 -3.383948 -1.758231 -3.027394 -2.392813 -2.392813 
C -3.027394 -1.758231 -3.383948 -0.897434 -3.383948 0 
C -3.383948 0.897434 -3.027394 1.758231 -2.392813 2.392813 
C -1.758231 3.027394 -0.897434 3.383948 0 3.383948 
z
" style="stroke: #ffbb78; stroke-opacity: 0.8; stroke-width: 2.025"/>
    </defs>
    <g clip-path="url(#p131407c7f5)">
     <use xlink:href="#mf182f40aab" x="263.52" y="281.893587" style="fill: #ffbb78; fill-opacity: 0.8; stroke: #ffbb78; stroke-opacity: 0.8; stroke-width: 2.025"/>
     <use xlink:href="#mf182f40aab" x="531.36" y="289.82079" style="fill: #ffbb78; fill-opacity: 0.8; stroke: #ffbb78; stroke-opacity: 0.8; stroke-width: 2.025"/>
     <use xlink:href="#mf182f40aab" x="799.2" y="375.476449" style="fill: #ffbb78; fill-opacity: 0.8; stroke: #ffbb78; stroke-opacity: 0.8; stroke-width: 2.025"/>
    </g>
   </g>
   <g id="line2d_24">
    <path d="M 250.128 319.510072 
L 276.912 319.510072 
M 263.52 319.510072 
L 263.52 247.103844 
M 250.128 247.103844 
L 276.912 247.103844 
" clip-path="url(#p131407c7f5)" style="fill: none; stroke: #ffbb78; stroke-opacity: 0.8; stroke-width: 2.7; stroke-linecap: square"/>
   </g>
   <g id="line2d_25">
    <path d="M 517.968 326.788273 
L 544.752 326.788273 
M 531.36 326.788273 
L 531.36 253.903667 
M 517.968 253.903667 
L 544.752 253.903667 
" clip-path="url(#p131407c7f5)" style="fill: none; stroke: #ffbb78; stroke-opacity: 0.8; stroke-width: 2.7; stroke-linecap: square"/>
   </g>
   <g id="line2d_26">
    <path d="M 785.808 406.687051 
L 812.592 406.687051 
M 799.2 406.687051 
L 799.2 345.542553 
M 785.808 345.542553 
L 812.592 345.542553 
" clip-path="url(#p131407c7f5)" style="fill: none; stroke: #ffbb78; stroke-opacity: 0.8; stroke-width: 2.7; stroke-linecap: square"/>
   </g>
   <g id="line2d_27">
    <path d="M 263.52 149.276536 
L 531.36 224.357301 
L 799.2 260.81338 
" clip-path="url(#p131407c7f5)" style="fill: none; stroke: #2ca02c; stroke-opacity: 0.8; stroke-width: 2.7; stroke-linecap: square"/>
    <defs>
     <path id="m1e13b33aa3" d="M 0 3.383948 
C 0.897434 3.383948 1.758231 3.027394 2.392813 2.392813 
C 3.027394 1.758231 3.383948 0.897434 3.383948 0 
C 3.383948 -0.897434 3.027394 -1.758231 2.392813 -2.392813 
C 1.758231 -3.027394 0.897434 -3.383948 0 -3.383948 
C -0.897434 -3.383948 -1.758231 -3.027394 -2.392813 -2.392813 
C -3.027394 -1.758231 -3.383948 -0.897434 -3.383948 0 
C -3.383948 0.897434 -3.027394 1.758231 -2.392813 2.392813 
C -1.758231 3.027394 -0.897434 3.383948 0 3.383948 
z
" style="stroke: #2ca02c; stroke-opacity: 0.8; stroke-width: 2.025"/>
    </defs>
    <g clip-path="url(#p131407c7f5)">
     <use xlink:href="#m1e13b33aa3" x="263.52" y="149.276536" style="fill: #2ca02c; fill-opacity: 0.8; stroke: #2ca02c; stroke-opacity: 0.8; stroke-width: 2.025"/>
     <use xlink:href="#m1e13b33aa3" x="531.36" y="224.357301" style="fill: #2ca02c; fill-opacity: 0.8; stroke: #2ca02c; stroke-opacity: 0.8; stroke-width: 2.025"/>
     <use xlink:href="#m1e13b33aa3" x="799.2" y="260.81338" style="fill: #2ca02c; fill-opacity: 0.8; stroke: #2ca02c; stroke-opacity: 0.8; stroke-width: 2.025"/>
    </g>
   </g>
   <g id="line2d_28">
    <path d="M 250.128 172.58977 
L 276.912 172.58977 
M 263.52 172.58977 
L 263.52 127.501626 
M 250.128 127.501626 
L 276.912 127.501626 
" clip-path="url(#p131407c7f5)" style="fill: none; stroke: #2ca02c; stroke-opacity: 0.8; stroke-width: 2.7; stroke-linecap: square"/>
   </g>
   <g id="line2d_29">
    <path d="M 517.968 247.676541 
L 544.752 247.676541 
M 531.36 247.676541 
L 531.36 199.421402 
M 517.968 199.421402 
L 544.752 199.421402 
" clip-path="url(#p131407c7f5)" style="fill: none; stroke: #2ca02c; stroke-opacity: 0.8; stroke-width: 2.7; stroke-linecap: square"/>
   </g>
   <g id="line2d_30">
    <path d="M 785.808 287.055919 
L 812.592 287.055919 
M 799.2 287.055919 
L 799.2 233.628629 
M 785.808 233.628629 
L 812.592 233.628629 
" clip-path="url(#p131407c7f5)" style="fill: none; stroke: #2ca02c; stroke-opacity: 0.8; stroke-width: 2.7; stroke-linecap: square"/>
   </g>
   <g id="line2d_31">
    <path d="M 263.52 303.254 
L 531.36 357.202192 
L 799.2 353.823409 
" clip-path="url(#p131407c7f5)" style="fill: none; stroke: #98df8a; stroke-opacity: 0.8; stroke-width: 2.7; stroke-linecap: square"/>
    <defs>
     <path id="mba18d0d175" d="M 0 3.383948 
C 0.897434 3.383948 1.758231 3.027394 2.392813 2.392813 
C 3.027394 1.758231 3.383948 0.897434 3.383948 0 
C 3.383948 -0.897434 3.027394 -1.758231 2.392813 -2.392813 
C 1.758231 -3.027394 0.897434 -3.383948 0 -3.383948 
C -0.897434 -3.383948 -1.758231 -3.027394 -2.392813 -2.392813 
C -3.027394 -1.758231 -3.383948 -0.897434 -3.383948 0 
C -3.383948 0.897434 -3.027394 1.758231 -2.392813 2.392813 
C -1.758231 3.027394 -0.897434 3.383948 0 3.383948 
z
" style="stroke: #98df8a; stroke-opacity: 0.8; stroke-width: 2.025"/>
    </defs>
    <g clip-path="url(#p131407c7f5)">
     <use xlink:href="#mba18d0d175" x="263.52" y="303.254" style="fill: #98df8a; fill-opacity: 0.8; stroke: #98df8a; stroke-opacity: 0.8; stroke-width: 2.025"/>
     <use xlink:href="#mba18d0d175" x="531.36" y="357.202192" style="fill: #98df8a; fill-opacity: 0.8; stroke: #98df8a; stroke-opacity: 0.8; stroke-width: 2.025"/>
     <use xlink:href="#mba18d0d175" x="799.2" y="353.823409" style="fill: #98df8a; fill-opacity: 0.8; stroke: #98df8a; stroke-opacity: 0.8; stroke-width: 2.025"/>
    </g>
   </g>
   <g id="line2d_32">
    <path d="M 250.128 335.628197 
L 276.912 335.628197 
M 263.52 335.628197 
L 263.52 273.153591 
M 250.128 273.153591 
L 276.912 273.153591 
" clip-path="url(#p131407c7f5)" style="fill: none; stroke: #98df8a; stroke-opacity: 0.8; stroke-width: 2.7; stroke-linecap: square"/>
   </g>
   <g id="line2d_33">
    <path d="M 517.968 397.651298 
L 544.752 397.651298 
M 531.36 397.651298 
L 531.36 318.309904 
M 517.968 318.309904 
L 544.752 318.309904 
" clip-path="url(#p131407c7f5)" style="fill: none; stroke: #98df8a; stroke-opacity: 0.8; stroke-width: 2.7; stroke-linecap: square"/>
   </g>
   <g id="line2d_34">
    <path d="M 785.808 386.310336 
L 812.592 386.310336 
M 799.2 386.310336 
L 799.2 322.038237 
M 785.808 322.038237 
L 812.592 322.038237 
" clip-path="url(#p131407c7f5)" style="fill: none; stroke: #98df8a; stroke-opacity: 0.8; stroke-width: 2.7; stroke-linecap: square"/>
   </g>
   <g id="line2d_35">
    <path d="M 263.52 254.686161 
L 531.36 277.449836 
L 799.2 274.973751 
" clip-path="url(#p131407c7f5)" style="fill: none; stroke: #d62728; stroke-opacity: 0.8; stroke-width: 2.7; stroke-linecap: square"/>
    <defs>
     <path id="m6a00602c26" d="M 0 3.383948 
C 0.897434 3.383948 1.758231 3.027394 2.392813 2.392813 
C 3.027394 1.758231 3.383948 0.897434 3.383948 0 
C 3.383948 -0.897434 3.027394 -1.758231 2.392813 -2.392813 
C 1.758231 -3.027394 0.897434 -3.383948 0 -3.383948 
C -0.897434 -3.383948 -1.758231 -3.027394 -2.392813 -2.392813 
C -3.027394 -1.758231 -3.383948 -0.897434 -3.383948 0 
C -3.383948 0.897434 -3.027394 1.758231 -2.392813 2.392813 
C -1.758231 3.027394 -0.897434 3.383948 0 3.383948 
z
" style="stroke: #d62728; stroke-opacity: 0.8; stroke-width: 2.025"/>
    </defs>
    <g clip-path="url(#p131407c7f5)">
     <use xlink:href="#m6a00602c26" x="263.52" y="254.686161" style="fill: #d62728; fill-opacity: 0.8; stroke: #d62728; stroke-opacity: 0.8; stroke-width: 2.025"/>
     <use xlink:href="#m6a00602c26" x="531.36" y="277.449836" style="fill: #d62728; fill-opacity: 0.8; stroke: #d62728; stroke-opacity: 0.8; stroke-width: 2.025"/>
     <use xlink:href="#m6a00602c26" x="799.2" y="274.973751" style="fill: #d62728; fill-opacity: 0.8; stroke: #d62728; stroke-opacity: 0.8; stroke-width: 2.025"/>
    </g>
   </g>
   <g id="line2d_36">
    <path d="M 250.128 290.111152 
L 276.912 290.111152 
M 263.52 290.111152 
L 263.52 218.957168 
M 250.128 218.957168 
L 276.912 218.957168 
" clip-path="url(#p131407c7f5)" style="fill: none; stroke: #d62728; stroke-opacity: 0.8; stroke-width: 2.7; stroke-linecap: square"/>
   </g>
   <g id="line2d_37">
    <path d="M 517.968 319.814595 
L 544.752 319.814595 
M 531.36 319.814595 
L 531.36 237.575864 
M 517.968 237.575864 
L 544.752 237.575864 
" clip-path="url(#p131407c7f5)" style="fill: none; stroke: #d62728; stroke-opacity: 0.8; stroke-width: 2.7; stroke-linecap: square"/>
   </g>
   <g id="line2d_38">
    <path d="M 785.808 315.149044 
L 812.592 315.149044 
M 799.2 315.149044 
L 799.2 230.985574 
M 785.808 230.985574 
L 812.592 230.985574 
" clip-path="url(#p131407c7f5)" style="fill: none; stroke: #d62728; stroke-opacity: 0.8; stroke-width: 2.7; stroke-linecap: square"/>
   </g>
   <g id="line2d_39">
    <path d="M 263.52 129.350633 
L 531.36 252.196246 
L 799.2 300.328488 
" clip-path="url(#p131407c7f5)" style="fill: none; stroke: #ff9896; stroke-opacity: 0.8; stroke-width: 2.7; stroke-linecap: square"/>
    <defs>
     <path id="m99b4e3e4ca" d="M 0 3.383948 
C 0.897434 3.383948 1.758231 3.027394 2.392813 2.392813 
C 3.027394 1.758231 3.383948 0.897434 3.383948 0 
C 3.383948 -0.897434 3.027394 -1.758231 2.392813 -2.392813 
C 1.758231 -3.027394 0.897434 -3.383948 0 -3.383948 
C -0.897434 -3.383948 -1.758231 -3.027394 -2.392813 -2.392813 
C -3.027394 -1.758231 -3.383948 -0.897434 -3.383948 0 
C -3.383948 0.897434 -3.027394 1.758231 -2.392813 2.392813 
C -1.758231 3.027394 -0.897434 3.383948 0 3.383948 
z
" style="stroke: #ff9896; stroke-opacity: 0.8; stroke-width: 2.025"/>
    </defs>
    <g clip-path="url(#p131407c7f5)">
     <use xlink:href="#m99b4e3e4ca" x="263.52" y="129.350633" style="fill: #ff9896; fill-opacity: 0.8; stroke: #ff9896; stroke-opacity: 0.8; stroke-width: 2.025"/>
     <use xlink:href="#m99b4e3e4ca" x="531.36" y="252.196246" style="fill: #ff9896; fill-opacity: 0.8; stroke: #ff9896; stroke-opacity: 0.8; stroke-width: 2.025"/>
     <use xlink:href="#m99b4e3e4ca" x="799.2" y="300.328488" style="fill: #ff9896; fill-opacity: 0.8; stroke: #ff9896; stroke-opacity: 0.8; stroke-width: 2.025"/>
    </g>
   </g>
   <g id="line2d_40">
    <path d="M 250.128 158.819345 
L 276.912 158.819345 
M 263.52 158.819345 
L 263.52 96.4224 
M 250.128 96.4224 
L 276.912 96.4224 
" clip-path="url(#p131407c7f5)" style="fill: none; stroke: #ff9896; stroke-opacity: 0.8; stroke-width: 2.7; stroke-linecap: square"/>
   </g>
   <g id="line2d_41">
    <path d="M 517.968 273.072383 
L 544.752 273.072383 
M 531.36 273.072383 
L 531.36 232.452636 
M 517.968 232.452636 
L 544.752 232.452636 
" clip-path="url(#p131407c7f5)" style="fill: none; stroke: #ff9896; stroke-opacity: 0.8; stroke-width: 2.7; stroke-linecap: square"/>
   </g>
   <g id="line2d_42">
    <path d="M 785.808 318.939834 
L 812.592 318.939834 
M 799.2 318.939834 
L 799.2 282.164422 
M 785.808 282.164422 
L 812.592 282.164422 
" clip-path="url(#p131407c7f5)" style="fill: none; stroke: #ff9896; stroke-opacity: 0.8; stroke-width: 2.7; stroke-linecap: square"/>
   </g>
   <g id="line2d_43">
    <path d="M 263.52 230.342446 
L 531.36 253.844697 
L 799.2 292.221542 
" clip-path="url(#p131407c7f5)" style="fill: none; stroke: #9467bd; stroke-opacity: 0.8; stroke-width: 2.7; stroke-linecap: square"/>
    <defs>
     <path id="m5fc5148ec8" d="M 0 3.383948 
C 0.897434 3.383948 1.758231 3.027394 2.392813 2.392813 
C 3.027394 1.758231 3.383948 0.897434 3.383948 0 
C 3.383948 -0.897434 3.027394 -1.758231 2.392813 -2.392813 
C 1.758231 -3.027394 0.897434 -3.383948 0 -3.383948 
C -0.897434 -3.383948 -1.758231 -3.027394 -2.392813 -2.392813 
C -3.027394 -1.758231 -3.383948 -0.897434 -3.383948 0 
C -3.383948 0.897434 -3.027394 1.758231 -2.392813 2.392813 
C -1.758231 3.027394 -0.897434 3.383948 0 3.383948 
z
" style="stroke: #9467bd; stroke-opacity: 0.8; stroke-width: 2.025"/>
    </defs>
    <g clip-path="url(#p131407c7f5)">
     <use xlink:href="#m5fc5148ec8" x="263.52" y="230.342446" style="fill: #9467bd; fill-opacity: 0.8; stroke: #9467bd; stroke-opacity: 0.8; stroke-width: 2.025"/>
     <use xlink:href="#m5fc5148ec8" x="531.36" y="253.844697" style="fill: #9467bd; fill-opacity: 0.8; stroke: #9467bd; stroke-opacity: 0.8; stroke-width: 2.025"/>
     <use xlink:href="#m5fc5148ec8" x="799.2" y="292.221542" style="fill: #9467bd; fill-opacity: 0.8; stroke: #9467bd; stroke-opacity: 0.8; stroke-width: 2.025"/>
    </g>
   </g>
   <g id="line2d_44">
    <path d="M 250.128 259.06432 
L 276.912 259.06432 
M 263.52 259.06432 
L 263.52 198.471477 
M 250.128 198.471477 
L 276.912 198.471477 
" clip-path="url(#p131407c7f5)" style="fill: none; stroke: #9467bd; stroke-opacity: 0.8; stroke-width: 2.7; stroke-linecap: square"/>
   </g>
   <g id="line2d_45">
    <path d="M 517.968 276.552797 
L 544.752 276.552797 
M 531.36 276.552797 
L 531.36 230.276347 
M 517.968 230.276347 
L 544.752 230.276347 
" clip-path="url(#p131407c7f5)" style="fill: none; stroke: #9467bd; stroke-opacity: 0.8; stroke-width: 2.7; stroke-linecap: square"/>
   </g>
   <g id="line2d_46">
    <path d="M 785.808 314.337287 
L 812.592 314.337287 
M 799.2 314.337287 
L 799.2 268.88421 
M 785.808 268.88421 
L 812.592 268.88421 
" clip-path="url(#p131407c7f5)" style="fill: none; stroke: #9467bd; stroke-opacity: 0.8; stroke-width: 2.7; stroke-linecap: square"/>
   </g>
   <g id="line2d_47">
    <path d="M 263.52 248.464778 
L 531.36 281.783457 
L 799.2 254.278778 
" clip-path="url(#p131407c7f5)" style="fill: none; stroke: #c5b0d5; stroke-opacity: 0.8; stroke-width: 2.7; stroke-linecap: square"/>
    <defs>
     <path id="m7d30419d79" d="M 0 3.383948 
C 0.897434 3.383948 1.758231 3.027394 2.392813 2.392813 
C 3.027394 1.758231 3.383948 0.897434 3.383948 0 
C 3.383948 -0.897434 3.027394 -1.758231 2.392813 -2.392813 
C 1.758231 -3.027394 0.897434 -3.383948 0 -3.383948 
C -0.897434 -3.383948 -1.758231 -3.027394 -2.392813 -2.392813 
C -3.027394 -1.758231 -3.383948 -0.897434 -3.383948 0 
C -3.383948 0.897434 -3.027394 1.758231 -2.392813 2.392813 
C -1.758231 3.027394 -0.897434 3.383948 0 3.383948 
z
" style="stroke: #c5b0d5; stroke-opacity: 0.8; stroke-width: 2.025"/>
    </defs>
    <g clip-path="url(#p131407c7f5)">
     <use xlink:href="#m7d30419d79" x="263.52" y="248.464778" style="fill: #c5b0d5; fill-opacity: 0.8; stroke: #c5b0d5; stroke-opacity: 0.8; stroke-width: 2.025"/>
     <use xlink:href="#m7d30419d79" x="531.36" y="281.783457" style="fill: #c5b0d5; fill-opacity: 0.8; stroke: #c5b0d5; stroke-opacity: 0.8; stroke-width: 2.025"/>
     <use xlink:href="#m7d30419d79" x="799.2" y="254.278778" style="fill: #c5b0d5; fill-opacity: 0.8; stroke: #c5b0d5; stroke-opacity: 0.8; stroke-width: 2.025"/>
    </g>
   </g>
   <g id="line2d_48">
    <path d="M 250.128 264.160162 
L 276.912 264.160162 
M 263.52 264.160162 
L 263.52 233.237005 
M 250.128 233.237005 
L 276.912 233.237005 
" clip-path="url(#p131407c7f5)" style="fill: none; stroke: #c5b0d5; stroke-opacity: 0.8; stroke-width: 2.7; stroke-linecap: square"/>
   </g>
   <g id="line2d_49">
    <path d="M 517.968 307.983877 
L 544.752 307.983877 
M 531.36 307.983877 
L 531.36 259.22917 
M 517.968 259.22917 
L 544.752 259.22917 
" clip-path="url(#p131407c7f5)" style="fill: none; stroke: #c5b0d5; stroke-opacity: 0.8; stroke-width: 2.7; stroke-linecap: square"/>
   </g>
   <g id="line2d_50">
    <path d="M 785.808 278.005254 
L 812.592 278.005254 
M 799.2 278.005254 
L 799.2 231.781087 
M 785.808 231.781087 
L 812.592 231.781087 
" clip-path="url(#p131407c7f5)" style="fill: none; stroke: #c5b0d5; stroke-opacity: 0.8; stroke-width: 2.7; stroke-linecap: square"/>
   </g>
   <g id="line2d_51">
    <path d="M 263.52 183.125621 
L 531.36 210.403132 
L 799.2 182.703414 
" clip-path="url(#p131407c7f5)" style="fill: none; stroke: #8c564b; stroke-opacity: 0.8; stroke-width: 2.7; stroke-linecap: square"/>
    <defs>
     <path id="m229788944e" d="M 0 3.383948 
C 0.897434 3.383948 1.758231 3.027394 2.392813 2.392813 
C 3.027394 1.758231 3.383948 0.897434 3.383948 0 
C 3.383948 -0.897434 3.027394 -1.758231 2.392813 -2.392813 
C 1.758231 -3.027394 0.897434 -3.383948 0 -3.383948 
C -0.897434 -3.383948 -1.758231 -3.027394 -2.392813 -2.392813 
C -3.027394 -1.758231 -3.383948 -0.897434 -3.383948 0 
C -3.383948 0.897434 -3.027394 1.758231 -2.392813 2.392813 
C -1.758231 3.027394 -0.897434 3.383948 0 3.383948 
z
" style="stroke: #8c564b; stroke-opacity: 0.8; stroke-width: 2.025"/>
    </defs>
    <g clip-path="url(#p131407c7f5)">
     <use xlink:href="#m229788944e" x="263.52" y="183.125621" style="fill: #8c564b; fill-opacity: 0.8; stroke: #8c564b; stroke-opacity: 0.8; stroke-width: 2.025"/>
     <use xlink:href="#m229788944e" x="531.36" y="210.403132" style="fill: #8c564b; fill-opacity: 0.8; stroke: #8c564b; stroke-opacity: 0.8; stroke-width: 2.025"/>
     <use xlink:href="#m229788944e" x="799.2" y="182.703414" style="fill: #8c564b; fill-opacity: 0.8; stroke: #8c564b; stroke-opacity: 0.8; stroke-width: 2.025"/>
    </g>
   </g>
   <g id="line2d_52">
    <path d="M 250.128 212.701287 
L 276.912 212.701287 
M 263.52 212.701287 
L 263.52 152.778531 
M 250.128 152.778531 
L 276.912 152.778531 
" clip-path="url(#p131407c7f5)" style="fill: none; stroke: #8c564b; stroke-opacity: 0.8; stroke-width: 2.7; stroke-linecap: square"/>
   </g>
   <g id="line2d_53">
    <path d="M 517.968 232.838477 
L 544.752 232.838477 
M 531.36 232.838477 
L 531.36 183.237926 
M 517.968 183.237926 
L 544.752 183.237926 
" clip-path="url(#p131407c7f5)" style="fill: none; stroke: #8c564b; stroke-opacity: 0.8; stroke-width: 2.7; stroke-linecap: square"/>
   </g>
   <g id="line2d_54">
    <path d="M 785.808 209.183502 
L 812.592 209.183502 
M 799.2 209.183502 
L 799.2 155.165406 
M 785.808 155.165406 
L 812.592 155.165406 
" clip-path="url(#p131407c7f5)" style="fill: none; stroke: #8c564b; stroke-opacity: 0.8; stroke-width: 2.7; stroke-linecap: square"/>
   </g>
   <g id="line2d_55">
    <path d="M 263.52 246.04803 
L 531.36 245.078924 
L 799.2 262.373327 
" clip-path="url(#p131407c7f5)" style="fill: none; stroke: #c49c94; stroke-opacity: 0.8; stroke-width: 2.7; stroke-linecap: square"/>
    <defs>
     <path id="m349dbe5dd2" d="M 0 3.383948 
C 0.897434 3.383948 1.758231 3.027394 2.392813 2.392813 
C 3.027394 1.758231 3.383948 0.897434 3.383948 0 
C 3.383948 -0.897434 3.027394 -1.758231 2.392813 -2.392813 
C 1.758231 -3.027394 0.897434 -3.383948 0 -3.383948 
C -0.897434 -3.383948 -1.758231 -3.027394 -2.392813 -2.392813 
C -3.027394 -1.758231 -3.383948 -0.897434 -3.383948 0 
C -3.383948 0.897434 -3.027394 1.758231 -2.392813 2.392813 
C -1.758231 3.027394 -0.897434 3.383948 0 3.383948 
z
" style="stroke: #c49c94; stroke-opacity: 0.8; stroke-width: 2.025"/>
    </defs>
    <g clip-path="url(#p131407c7f5)">
     <use xlink:href="#m349dbe5dd2" x="263.52" y="246.04803" style="fill: #c49c94; fill-opacity: 0.8; stroke: #c49c94; stroke-opacity: 0.8; stroke-width: 2.025"/>
     <use xlink:href="#m349dbe5dd2" x="531.36" y="245.078924" style="fill: #c49c94; fill-opacity: 0.8; stroke: #c49c94; stroke-opacity: 0.8; stroke-width: 2.025"/>
     <use xlink:href="#m349dbe5dd2" x="799.2" y="262.373327" style="fill: #c49c94; fill-opacity: 0.8; stroke: #c49c94; stroke-opacity: 0.8; stroke-width: 2.025"/>
    </g>
   </g>
   <g id="line2d_56">
    <path d="M 250.128 269.466799 
L 276.912 269.466799 
M 263.52 269.466799 
L 263.52 221.283905 
M 250.128 221.283905 
L 276.912 221.283905 
" clip-path="url(#p131407c7f5)" style="fill: none; stroke: #c49c94; stroke-opacity: 0.8; stroke-width: 2.7; stroke-linecap: square"/>
   </g>
   <g id="line2d_57">
    <path d="M 517.968 269.008727 
L 544.752 269.008727 
M 531.36 269.008727 
L 531.36 220.650791 
M 517.968 220.650791 
L 544.752 220.650791 
" clip-path="url(#p131407c7f5)" style="fill: none; stroke: #c49c94; stroke-opacity: 0.8; stroke-width: 2.7; stroke-linecap: square"/>
   </g>
   <g id="line2d_58">
    <path d="M 785.808 289.542213 
L 812.592 289.542213 
M 799.2 289.542213 
L 799.2 236.91146 
M 785.808 236.91146 
L 812.592 236.91146 
" clip-path="url(#p131407c7f5)" style="fill: none; stroke: #c49c94; stroke-opacity: 0.8; stroke-width: 2.7; stroke-linecap: square"/>
   </g>
   <g id="line2d_59">
    <path d="M 263.52 246.970762 
L 531.36 294.743329 
L 799.2 308.815414 
" clip-path="url(#p131407c7f5)" style="fill: none; stroke: #e377c2; stroke-opacity: 0.8; stroke-width: 2.7; stroke-linecap: square"/>
    <defs>
     <path id="mf702dad666" d="M 0 3.383948 
C 0.897434 3.383948 1.758231 3.027394 2.392813 2.392813 
C 3.027394 1.758231 3.383948 0.897434 3.383948 0 
C 3.383948 -0.897434 3.027394 -1.758231 2.392813 -2.392813 
C 1.758231 -3.027394 0.897434 -3.383948 0 -3.383948 
C -0.897434 -3.383948 -1.758231 -3.027394 -2.392813 -2.392813 
C -3.027394 -1.758231 -3.383948 -0.897434 -3.383948 0 
C -3.383948 0.897434 -3.027394 1.758231 -2.392813 2.392813 
C -1.758231 3.027394 -0.897434 3.383948 0 3.383948 
z
" style="stroke: #e377c2; stroke-opacity: 0.8; stroke-width: 2.025"/>
    </defs>
    <g clip-path="url(#p131407c7f5)">
     <use xlink:href="#mf702dad666" x="263.52" y="246.970762" style="fill: #e377c2; fill-opacity: 0.8; stroke: #e377c2; stroke-opacity: 0.8; stroke-width: 2.025"/>
     <use xlink:href="#mf702dad666" x="531.36" y="294.743329" style="fill: #e377c2; fill-opacity: 0.8; stroke: #e377c2; stroke-opacity: 0.8; stroke-width: 2.025"/>
     <use xlink:href="#mf702dad666" x="799.2" y="308.815414" style="fill: #e377c2; fill-opacity: 0.8; stroke: #e377c2; stroke-opacity: 0.8; stroke-width: 2.025"/>
    </g>
   </g>
   <g id="line2d_60">
    <path d="M 250.128 267.437367 
L 276.912 267.437367 
M 263.52 267.437367 
L 263.52 224.682468 
M 250.128 224.682468 
L 276.912 224.682468 
" clip-path="url(#p131407c7f5)" style="fill: none; stroke: #e377c2; stroke-opacity: 0.8; stroke-width: 2.7; stroke-linecap: square"/>
   </g>
   <g id="line2d_61">
    <path d="M 517.968 314.158844 
L 544.752 314.158844 
M 531.36 314.158844 
L 531.36 274.983268 
M 517.968 274.983268 
L 544.752 274.983268 
" clip-path="url(#p131407c7f5)" style="fill: none; stroke: #e377c2; stroke-opacity: 0.8; stroke-width: 2.7; stroke-linecap: square"/>
   </g>
   <g id="line2d_62">
    <path d="M 785.808 329.00963 
L 812.592 329.00963 
M 799.2 329.00963 
L 799.2 287.841107 
M 785.808 287.841107 
L 812.592 287.841107 
" clip-path="url(#p131407c7f5)" style="fill: none; stroke: #e377c2; stroke-opacity: 0.8; stroke-width: 2.7; stroke-linecap: square"/>
   </g>
   <g id="line2d_63">
    <path d="M 263.52 354.782196 
L 531.36 334.749658 
L 799.2 483.73483 
" clip-path="url(#p131407c7f5)" style="fill: none; stroke: #f7b6d2; stroke-opacity: 0.8; stroke-width: 2.7; stroke-linecap: square"/>
    <defs>
     <path id="m689eed8c17" d="M 0 3.383948 
C 0.897434 3.383948 1.758231 3.027394 2.392813 2.392813 
C 3.027394 1.758231 3.383948 0.897434 3.383948 0 
C 3.383948 -0.897434 3.027394 -1.758231 2.392813 -2.392813 
C 1.758231 -3.027394 0.897434 -3.383948 0 -3.383948 
C -0.897434 -3.383948 -1.758231 -3.027394 -2.392813 -2.392813 
C -3.027394 -1.758231 -3.383948 -0.897434 -3.383948 0 
C -3.383948 0.897434 -3.027394 1.758231 -2.392813 2.392813 
C -1.758231 3.027394 -0.897434 3.383948 0 3.383948 
z
" style="stroke: #f7b6d2; stroke-opacity: 0.8; stroke-width: 2.025"/>
    </defs>
    <g clip-path="url(#p131407c7f5)">
     <use xlink:href="#m689eed8c17" x="263.52" y="354.782196" style="fill: #f7b6d2; fill-opacity: 0.8; stroke: #f7b6d2; stroke-opacity: 0.8; stroke-width: 2.025"/>
     <use xlink:href="#m689eed8c17" x="531.36" y="334.749658" style="fill: #f7b6d2; fill-opacity: 0.8; stroke: #f7b6d2; stroke-opacity: 0.8; stroke-width: 2.025"/>
     <use xlink:href="#m689eed8c17" x="799.2" y="483.73483" style="fill: #f7b6d2; fill-opacity: 0.8; stroke: #f7b6d2; stroke-opacity: 0.8; stroke-width: 2.025"/>
    </g>
   </g>
   <g id="line2d_64">
    <path d="M 250.128 380.542672 
L 276.912 380.542672 
M 263.52 380.542672 
L 263.52 332.196421 
M 250.128 332.196421 
L 276.912 332.196421 
" clip-path="url(#p131407c7f5)" style="fill: none; stroke: #f7b6d2; stroke-opacity: 0.8; stroke-width: 2.7; stroke-linecap: square"/>
   </g>
   <g id="line2d_65">
    <path d="M 517.968 362.807663 
L 544.752 362.807663 
M 531.36 362.807663 
L 531.36 307.749748 
M 517.968 307.749748 
L 544.752 307.749748 
" clip-path="url(#p131407c7f5)" style="fill: none; stroke: #f7b6d2; stroke-opacity: 0.8; stroke-width: 2.7; stroke-linecap: square"/>
   </g>
   <g id="line2d_66">
    <path d="M 785.808 517.945862 
L 812.592 517.945862 
M 799.2 517.945862 
L 799.2 451.264187 
M 785.808 451.264187 
L 812.592 451.264187 
" clip-path="url(#p131407c7f5)" style="fill: none; stroke: #f7b6d2; stroke-opacity: 0.8; stroke-width: 2.7; stroke-linecap: square"/>
   </g>
   <g id="line2d_67">
    <path d="M 263.52 256.123094 
L 531.36 244.834962 
L 799.2 269.454874 
" clip-path="url(#p131407c7f5)" style="fill: none; stroke: #7f7f7f; stroke-opacity: 0.8; stroke-width: 2.7; stroke-linecap: square"/>
    <defs>
     <path id="m275eb190cc" d="M 0 3.383948 
C 0.897434 3.383948 1.758231 3.027394 2.392813 2.392813 
C 3.027394 1.758231 3.383948 0.897434 3.383948 0 
C 3.383948 -0.897434 3.027394 -1.758231 2.392813 -2.392813 
C 1.758231 -3.027394 0.897434 -3.383948 0 -3.383948 
C -0.897434 -3.383948 -1.758231 -3.027394 -2.392813 -2.392813 
C -3.027394 -1.758231 -3.383948 -0.897434 -3.383948 0 
C -3.383948 0.897434 -3.027394 1.758231 -2.392813 2.392813 
C -1.758231 3.027394 -0.897434 3.383948 0 3.383948 
z
" style="stroke: #7f7f7f; stroke-opacity: 0.8; stroke-width: 2.025"/>
    </defs>
    <g clip-path="url(#p131407c7f5)">
     <use xlink:href="#m275eb190cc" x="263.52" y="256.123094" style="fill: #7f7f7f; fill-opacity: 0.8; stroke: #7f7f7f; stroke-opacity: 0.8; stroke-width: 2.025"/>
     <use xlink:href="#m275eb190cc" x="531.36" y="244.834962" style="fill: #7f7f7f; fill-opacity: 0.8; stroke: #7f7f7f; stroke-opacity: 0.8; stroke-width: 2.025"/>
     <use xlink:href="#m275eb190cc" x="799.2" y="269.454874" style="fill: #7f7f7f; fill-opacity: 0.8; stroke: #7f7f7f; stroke-opacity: 0.8; stroke-width: 2.025"/>
    </g>
   </g>
   <g id="line2d_68">
    <path d="M 250.128 289.553506 
L 276.912 289.553506 
M 263.52 289.553506 
L 263.52 221.612963 
M 250.128 221.612963 
L 276.912 221.612963 
" clip-path="url(#p131407c7f5)" style="fill: none; stroke: #7f7f7f; stroke-opacity: 0.8; stroke-width: 2.7; stroke-linecap: square"/>
   </g>
   <g id="line2d_69">
    <path d="M 517.968 277.379627 
L 544.752 277.379627 
M 531.36 277.379627 
L 531.36 209.15016 
M 517.968 209.15016 
L 544.752 209.15016 
" clip-path="url(#p131407c7f5)" style="fill: none; stroke: #7f7f7f; stroke-opacity: 0.8; stroke-width: 2.7; stroke-linecap: square"/>
   </g>
   <g id="line2d_70">
    <path d="M 785.808 296.286296 
L 812.592 296.286296 
M 799.2 296.286296 
L 799.2 242.352703 
M 785.808 242.352703 
L 812.592 242.352703 
" clip-path="url(#p131407c7f5)" style="fill: none; stroke: #7f7f7f; stroke-opacity: 0.8; stroke-width: 2.7; stroke-linecap: square"/>
   </g>
   <g id="line2d_71"/>
   <g id="line2d_72"/>
   <g id="line2d_73"/>
   <g id="line2d_74"/>
   <g id="line2d_75"/>
   <g id="line2d_76"/>
   <g id="line2d_77"/>
   <g id="line2d_78"/>
   <g id="line2d_79"/>
   <g id="line2d_80"/>
   <g id="line2d_81"/>
   <g id="line2d_82"/>
   <g id="line2d_83"/>
   <g id="line2d_84"/>
   <g id="line2d_85"/>
   <g id="patch_3">
    <path d="M 129.6 553.6512 
L 129.6 74.6496 
" style="fill: none; stroke: #000000; stroke-width: 0.8; stroke-linejoin: miter; stroke-linecap: square"/>
   </g>
   <g id="patch_4">
    <path d="M 933.12 553.6512 
L 933.12 74.6496 
" style="fill: none; stroke: #000000; stroke-width: 0.8; stroke-linejoin: miter; stroke-linecap: square"/>
   </g>
   <g id="patch_5">
    <path d="M 129.6 553.6512 
L 933.12 553.6512 
" style="fill: none; stroke: #000000; stroke-width: 0.8; stroke-linejoin: miter; stroke-linecap: square"/>
   </g>
   <g id="patch_6">
    <path d="M 129.6 74.6496 
L 933.12 74.6496 
" style="fill: none; stroke: #000000; stroke-width: 0.8; stroke-linejoin: miter; stroke-linecap: square"/>
   </g>
   <g id="text_13">
    <!-- ASEM Per Subject: color Green -->
    <g transform="translate(302.706094 68.410538) scale(0.3 -0.3)">
     <defs>
      <path id="DejaVuSans-75" d="M 544 1381 
L 544 3500 
L 1119 3500 
L 1119 1403 
Q 1119 906 1312 657 
Q 1506 409 1894 409 
Q 2359 409 2629 706 
Q 2900 1003 2900 1516 
L 2900 3500 
L 3475 3500 
L 3475 0 
L 2900 0 
L 2900 538 
Q 2691 219 2414 64 
Q 2138 -91 1772 -91 
Q 1169 -91 856 284 
Q 544 659 544 1381 
z
M 1991 3584 
L 1991 3584 
z
" transform="scale(0.015625)"/>
      <path id="DejaVuSans-62" d="M 3116 1747 
Q 3116 2381 2855 2742 
Q 2594 3103 2138 3103 
Q 1681 3103 1420 2742 
Q 1159 2381 1159 1747 
Q 1159 1113 1420 752 
Q 1681 391 2138 391 
Q 2594 391 2855 752 
Q 3116 1113 3116 1747 
z
M 1159 2969 
Q 1341 3281 1617 3432 
Q 1894 3584 2278 3584 
Q 2916 3584 3314 3078 
Q 3713 2572 3713 1747 
Q 3713 922 3314 415 
Q 2916 -91 2278 -91 
Q 1894 -91 1617 61 
Q 1341 213 1159 525 
L 1159 0 
L 581 0 
L 581 4863 
L 1159 4863 
L 1159 2969 
z
" transform="scale(0.015625)"/>
      <path id="DejaVuSans-6a" d="M 603 3500 
L 1178 3500 
L 1178 -63 
Q 1178 -731 923 -1031 
Q 669 -1331 103 -1331 
L -116 -1331 
L -116 -844 
L 38 -844 
Q 366 -844 484 -692 
Q 603 -541 603 -63 
L 603 3500 
z
M 603 4863 
L 1178 4863 
L 1178 4134 
L 603 4134 
L 603 4863 
z
" transform="scale(0.015625)"/>
      <path id="DejaVuSans-63" d="M 3122 3366 
L 3122 2828 
Q 2878 2963 2633 3030 
Q 2388 3097 2138 3097 
Q 1578 3097 1268 2742 
Q 959 2388 959 1747 
Q 959 1106 1268 751 
Q 1578 397 2138 397 
Q 2388 397 2633 464 
Q 2878 531 3122 666 
L 3122 134 
Q 2881 22 2623 -34 
Q 2366 -91 2075 -91 
Q 1284 -91 818 406 
Q 353 903 353 1747 
Q 353 2603 823 3093 
Q 1294 3584 2113 3584 
Q 2378 3584 2631 3529 
Q 2884 3475 3122 3366 
z
" transform="scale(0.015625)"/>
      <path id="DejaVuSans-3a" d="M 750 794 
L 1409 794 
L 1409 0 
L 750 0 
L 750 794 
z
M 750 3309 
L 1409 3309 
L 1409 2516 
L 750 2516 
L 750 3309 
z
" transform="scale(0.015625)"/>
      <path id="DejaVuSans-6f" d="M 1959 3097 
Q 1497 3097 1228 2736 
Q 959 2375 959 1747 
Q 959 1119 1226 758 
Q 1494 397 1959 397 
Q 2419 397 2687 759 
Q 2956 1122 2956 1747 
Q 2956 2369 2687 2733 
Q 2419 3097 1959 3097 
z
M 1959 3584 
Q 2709 3584 3137 3096 
Q 3566 2609 3566 1747 
Q 3566 888 3137 398 
Q 2709 -91 1959 -91 
Q 1206 -91 779 398 
Q 353 888 353 1747 
Q 353 2609 779 3096 
Q 1206 3584 1959 3584 
z
" transform="scale(0.015625)"/>
      <path id="DejaVuSans-6c" d="M 603 4863 
L 1178 4863 
L 1178 0 
L 603 0 
L 603 4863 
z
" transform="scale(0.015625)"/>
     </defs>
     <use xlink:href="#DejaVuSans-41"/>
     <use xlink:href="#DejaVuSans-53" x="68.408203"/>
     <use xlink:href="#DejaVuSans-45" x="131.884766"/>
     <use xlink:href="#DejaVuSans-4d" x="195.068359"/>
     <use xlink:href="#DejaVuSans-20" x="281.347656"/>
     <use xlink:href="#DejaVuSans-50" x="313.134766"/>
     <use xlink:href="#DejaVuSans-65" x="369.8125"/>
     <use xlink:href="#DejaVuSans-72" x="431.335938"/>
     <use xlink:href="#DejaVuSans-20" x="472.449219"/>
     <use xlink:href="#DejaVuSans-53" x="504.236328"/>
     <use xlink:href="#DejaVuSans-75" x="567.712891"/>
     <use xlink:href="#DejaVuSans-62" x="631.091797"/>
     <use xlink:href="#DejaVuSans-6a" x="694.568359"/>
     <use xlink:href="#DejaVuSans-65" x="722.351562"/>
     <use xlink:href="#DejaVuSans-63" x="783.875"/>
     <use xlink:href="#DejaVuSans-74" x="838.855469"/>
     <use xlink:href="#DejaVuSans-3a" x="878.064453"/>
     <use xlink:href="#DejaVuSans-20" x="911.755859"/>
     <use xlink:href="#DejaVuSans-63" x="943.542969"/>
     <use xlink:href="#DejaVuSans-6f" x="998.523438"/>
     <use xlink:href="#DejaVuSans-6c" x="1059.705078"/>
     <use xlink:href="#DejaVuSans-6f" x="1087.488281"/>
     <use xlink:href="#DejaVuSans-72" x="1148.669922"/>
     <use xlink:href="#DejaVuSans-20" x="1189.783203"/>
     <use xlink:href="#DejaVuSans-47" x="1221.570312"/>
     <use xlink:href="#DejaVuSans-72" x="1299.060547"/>
     <use xlink:href="#DejaVuSans-65" x="1337.923828"/>
     <use xlink:href="#DejaVuSans-65" x="1399.447266"/>
     <use xlink:href="#DejaVuSans-6e" x="1460.970703"/>
    </g>
   </g>
   <g id="legend_1">
    <g id="patch_7">
     <path d="M 786.66375 530.99335 
L 919.12 530.99335 
Q 923.12 530.99335 923.12 526.99335 
L 923.12 88.6496 
Q 923.12 84.6496 919.12 84.6496 
L 786.66375 84.6496 
Q 782.66375 84.6496 782.66375 88.6496 
L 782.66375 526.99335 
Q 782.66375 530.99335 786.66375 530.99335 
z
" style="fill: #ffffff; opacity: 0.8; stroke: #cccccc; stroke-linejoin: miter"/>
    </g>
    <g id="line2d_86">
     <path d="M 790.66375 100.846475 
L 810.66375 100.846475 
L 830.66375 100.846475 
" style="fill: none; stroke: #1f77b4; stroke-opacity: 0.8; stroke-width: 2.7; stroke-linecap: square"/>
     <g>
      <use xlink:href="#m4d2f567743" x="810.66375" y="100.846475" style="fill: #1f77b4; fill-opacity: 0.8; stroke: #1f77b4; stroke-opacity: 0.8; stroke-width: 2.025"/>
     </g>
    </g>
    <g id="text_14">
     <!-- sub-01 -->
     <g transform="translate(846.66375 107.846475) scale(0.2 -0.2)">
      <defs>
       <path id="DejaVuSans-2d" d="M 313 2009 
L 1997 2009 
L 1997 1497 
L 313 1497 
L 313 2009 
z
" transform="scale(0.015625)"/>
      </defs>
      <use xlink:href="#DejaVuSans-73"/>
      <use xlink:href="#DejaVuSans-75" x="52.099609"/>
      <use xlink:href="#DejaVuSans-62" x="115.478516"/>
      <use xlink:href="#DejaVuSans-2d" x="178.955078"/>
      <use xlink:href="#DejaVuSans-30" x="215.039062"/>
      <use xlink:href="#DejaVuSans-31" x="278.662109"/>
     </g>
    </g>
    <g id="line2d_87">
     <path d="M 790.66375 130.202725 
L 810.66375 130.202725 
L 830.66375 130.202725 
" style="fill: none; stroke: #aec7e8; stroke-opacity: 0.8; stroke-width: 2.7; stroke-linecap: square"/>
     <g>
      <use xlink:href="#m742c2f9475" x="810.66375" y="130.202725" style="fill: #aec7e8; fill-opacity: 0.8; stroke: #aec7e8; stroke-opacity: 0.8; stroke-width: 2.025"/>
     </g>
    </g>
    <g id="text_15">
     <!-- sub-02 -->
     <g transform="translate(846.66375 137.202725) scale(0.2 -0.2)">
      <use xlink:href="#DejaVuSans-73"/>
      <use xlink:href="#DejaVuSans-75" x="52.099609"/>
      <use xlink:href="#DejaVuSans-62" x="115.478516"/>
      <use xlink:href="#DejaVuSans-2d" x="178.955078"/>
      <use xlink:href="#DejaVuSans-30" x="215.039062"/>
      <use xlink:href="#DejaVuSans-32" x="278.662109"/>
     </g>
    </g>
    <g id="line2d_88">
     <path d="M 790.66375 159.558975 
L 810.66375 159.558975 
L 830.66375 159.558975 
" style="fill: none; stroke: #ff7f0e; stroke-opacity: 0.8; stroke-width: 2.7; stroke-linecap: square"/>
     <g>
      <use xlink:href="#mdf0fded893" x="810.66375" y="159.558975" style="fill: #ff7f0e; fill-opacity: 0.8; stroke: #ff7f0e; stroke-opacity: 0.8; stroke-width: 2.025"/>
     </g>
    </g>
    <g id="text_16">
     <!-- sub-03 -->
     <g transform="translate(846.66375 166.558975) scale(0.2 -0.2)">
      <defs>
       <path id="DejaVuSans-33" d="M 2597 2516 
Q 3050 2419 3304 2112 
Q 3559 1806 3559 1356 
Q 3559 666 3084 287 
Q 2609 -91 1734 -91 
Q 1441 -91 1130 -33 
Q 819 25 488 141 
L 488 750 
Q 750 597 1062 519 
Q 1375 441 1716 441 
Q 2309 441 2620 675 
Q 2931 909 2931 1356 
Q 2931 1769 2642 2001 
Q 2353 2234 1838 2234 
L 1294 2234 
L 1294 2753 
L 1863 2753 
Q 2328 2753 2575 2939 
Q 2822 3125 2822 3475 
Q 2822 3834 2567 4026 
Q 2313 4219 1838 4219 
Q 1578 4219 1281 4162 
Q 984 4106 628 3988 
L 628 4550 
Q 988 4650 1302 4700 
Q 1616 4750 1894 4750 
Q 2613 4750 3031 4423 
Q 3450 4097 3450 3541 
Q 3450 3153 3228 2886 
Q 3006 2619 2597 2516 
z
" transform="scale(0.015625)"/>
      </defs>
      <use xlink:href="#DejaVuSans-73"/>
      <use xlink:href="#DejaVuSans-75" x="52.099609"/>
      <use xlink:href="#DejaVuSans-62" x="115.478516"/>
      <use xlink:href="#DejaVuSans-2d" x="178.955078"/>
      <use xlink:href="#DejaVuSans-30" x="215.039062"/>
      <use xlink:href="#DejaVuSans-33" x="278.662109"/>
     </g>
    </g>
    <g id="line2d_89">
     <path d="M 790.66375 188.915225 
L 810.66375 188.915225 
L 830.66375 188.915225 
" style="fill: none; stroke: #ffbb78; stroke-opacity: 0.8; stroke-width: 2.7; stroke-linecap: square"/>
     <g>
      <use xlink:href="#mf182f40aab" x="810.66375" y="188.915225" style="fill: #ffbb78; fill-opacity: 0.8; stroke: #ffbb78; stroke-opacity: 0.8; stroke-width: 2.025"/>
     </g>
    </g>
    <g id="text_17">
     <!-- sub-04 -->
     <g transform="translate(846.66375 195.915225) scale(0.2 -0.2)">
      <defs>
       <path id="DejaVuSans-34" d="M 2419 4116 
L 825 1625 
L 2419 1625 
L 2419 4116 
z
M 2253 4666 
L 3047 4666 
L 3047 1625 
L 3713 1625 
L 3713 1100 
L 3047 1100 
L 3047 0 
L 2419 0 
L 2419 1100 
L 313 1100 
L 313 1709 
L 2253 4666 
z
" transform="scale(0.015625)"/>
      </defs>
      <use xlink:href="#DejaVuSans-73"/>
      <use xlink:href="#DejaVuSans-75" x="52.099609"/>
      <use xlink:href="#DejaVuSans-62" x="115.478516"/>
      <use xlink:href="#DejaVuSans-2d" x="178.955078"/>
      <use xlink:href="#DejaVuSans-30" x="215.039062"/>
      <use xlink:href="#DejaVuSans-34" x="278.662109"/>
     </g>
    </g>
    <g id="line2d_90">
     <path d="M 790.66375 218.271475 
L 810.66375 218.271475 
L 830.66375 218.271475 
" style="fill: none; stroke: #2ca02c; stroke-opacity: 0.8; stroke-width: 2.7; stroke-linecap: square"/>
     <g>
      <use xlink:href="#m1e13b33aa3" x="810.66375" y="218.271475" style="fill: #2ca02c; fill-opacity: 0.8; stroke: #2ca02c; stroke-opacity: 0.8; stroke-width: 2.025"/>
     </g>
    </g>
    <g id="text_18">
     <!-- sub-05 -->
     <g transform="translate(846.66375 225.271475) scale(0.2 -0.2)">
      <use xlink:href="#DejaVuSans-73"/>
      <use xlink:href="#DejaVuSans-75" x="52.099609"/>
      <use xlink:href="#DejaVuSans-62" x="115.478516"/>
      <use xlink:href="#DejaVuSans-2d" x="178.955078"/>
      <use xlink:href="#DejaVuSans-30" x="215.039062"/>
      <use xlink:href="#DejaVuSans-35" x="278.662109"/>
     </g>
    </g>
    <g id="line2d_91">
     <path d="M 790.66375 247.627725 
L 810.66375 247.627725 
L 830.66375 247.627725 
" style="fill: none; stroke: #98df8a; stroke-opacity: 0.8; stroke-width: 2.7; stroke-linecap: square"/>
     <g>
      <use xlink:href="#mba18d0d175" x="810.66375" y="247.627725" style="fill: #98df8a; fill-opacity: 0.8; stroke: #98df8a; stroke-opacity: 0.8; stroke-width: 2.025"/>
     </g>
    </g>
    <g id="text_19">
     <!-- sub-06 -->
     <g transform="translate(846.66375 254.627725) scale(0.2 -0.2)">
      <defs>
       <path id="DejaVuSans-36" d="M 2113 2584 
Q 1688 2584 1439 2293 
Q 1191 2003 1191 1497 
Q 1191 994 1439 701 
Q 1688 409 2113 409 
Q 2538 409 2786 701 
Q 3034 994 3034 1497 
Q 3034 2003 2786 2293 
Q 2538 2584 2113 2584 
z
M 3366 4563 
L 3366 3988 
Q 3128 4100 2886 4159 
Q 2644 4219 2406 4219 
Q 1781 4219 1451 3797 
Q 1122 3375 1075 2522 
Q 1259 2794 1537 2939 
Q 1816 3084 2150 3084 
Q 2853 3084 3261 2657 
Q 3669 2231 3669 1497 
Q 3669 778 3244 343 
Q 2819 -91 2113 -91 
Q 1303 -91 875 529 
Q 447 1150 447 2328 
Q 447 3434 972 4092 
Q 1497 4750 2381 4750 
Q 2619 4750 2861 4703 
Q 3103 4656 3366 4563 
z
" transform="scale(0.015625)"/>
      </defs>
      <use xlink:href="#DejaVuSans-73"/>
      <use xlink:href="#DejaVuSans-75" x="52.099609"/>
      <use xlink:href="#DejaVuSans-62" x="115.478516"/>
      <use xlink:href="#DejaVuSans-2d" x="178.955078"/>
      <use xlink:href="#DejaVuSans-30" x="215.039062"/>
      <use xlink:href="#DejaVuSans-36" x="278.662109"/>
     </g>
    </g>
    <g id="line2d_92">
     <path d="M 790.66375 276.983975 
L 810.66375 276.983975 
L 830.66375 276.983975 
" style="fill: none; stroke: #d62728; stroke-opacity: 0.8; stroke-width: 2.7; stroke-linecap: square"/>
     <g>
      <use xlink:href="#m6a00602c26" x="810.66375" y="276.983975" style="fill: #d62728; fill-opacity: 0.8; stroke: #d62728; stroke-opacity: 0.8; stroke-width: 2.025"/>
     </g>
    </g>
    <g id="text_20">
     <!-- sub-07 -->
     <g transform="translate(846.66375 283.983975) scale(0.2 -0.2)">
      <use xlink:href="#DejaVuSans-73"/>
      <use xlink:href="#DejaVuSans-75" x="52.099609"/>
      <use xlink:href="#DejaVuSans-62" x="115.478516"/>
      <use xlink:href="#DejaVuSans-2d" x="178.955078"/>
      <use xlink:href="#DejaVuSans-30" x="215.039062"/>
      <use xlink:href="#DejaVuSans-37" x="278.662109"/>
     </g>
    </g>
    <g id="line2d_93">
     <path d="M 790.66375 306.340225 
L 810.66375 306.340225 
L 830.66375 306.340225 
" style="fill: none; stroke: #ff9896; stroke-opacity: 0.8; stroke-width: 2.7; stroke-linecap: square"/>
     <g>
      <use xlink:href="#m99b4e3e4ca" x="810.66375" y="306.340225" style="fill: #ff9896; fill-opacity: 0.8; stroke: #ff9896; stroke-opacity: 0.8; stroke-width: 2.025"/>
     </g>
    </g>
    <g id="text_21">
     <!-- sub-08 -->
     <g transform="translate(846.66375 313.340225) scale(0.2 -0.2)">
      <defs>
       <path id="DejaVuSans-38" d="M 2034 2216 
Q 1584 2216 1326 1975 
Q 1069 1734 1069 1313 
Q 1069 891 1326 650 
Q 1584 409 2034 409 
Q 2484 409 2743 651 
Q 3003 894 3003 1313 
Q 3003 1734 2745 1975 
Q 2488 2216 2034 2216 
z
M 1403 2484 
Q 997 2584 770 2862 
Q 544 3141 544 3541 
Q 544 4100 942 4425 
Q 1341 4750 2034 4750 
Q 2731 4750 3128 4425 
Q 3525 4100 3525 3541 
Q 3525 3141 3298 2862 
Q 3072 2584 2669 2484 
Q 3125 2378 3379 2068 
Q 3634 1759 3634 1313 
Q 3634 634 3220 271 
Q 2806 -91 2034 -91 
Q 1263 -91 848 271 
Q 434 634 434 1313 
Q 434 1759 690 2068 
Q 947 2378 1403 2484 
z
M 1172 3481 
Q 1172 3119 1398 2916 
Q 1625 2713 2034 2713 
Q 2441 2713 2670 2916 
Q 2900 3119 2900 3481 
Q 2900 3844 2670 4047 
Q 2441 4250 2034 4250 
Q 1625 4250 1398 4047 
Q 1172 3844 1172 3481 
z
" transform="scale(0.015625)"/>
      </defs>
      <use xlink:href="#DejaVuSans-73"/>
      <use xlink:href="#DejaVuSans-75" x="52.099609"/>
      <use xlink:href="#DejaVuSans-62" x="115.478516"/>
      <use xlink:href="#DejaVuSans-2d" x="178.955078"/>
      <use xlink:href="#DejaVuSans-30" x="215.039062"/>
      <use xlink:href="#DejaVuSans-38" x="278.662109"/>
     </g>
    </g>
    <g id="line2d_94">
     <path d="M 790.66375 335.696475 
L 810.66375 335.696475 
L 830.66375 335.696475 
" style="fill: none; stroke: #9467bd; stroke-opacity: 0.8; stroke-width: 2.7; stroke-linecap: square"/>
     <g>
      <use xlink:href="#m5fc5148ec8" x="810.66375" y="335.696475" style="fill: #9467bd; fill-opacity: 0.8; stroke: #9467bd; stroke-opacity: 0.8; stroke-width: 2.025"/>
     </g>
    </g>
    <g id="text_22">
     <!-- sub-10 -->
     <g transform="translate(846.66375 342.696475) scale(0.2 -0.2)">
      <use xlink:href="#DejaVuSans-73"/>
      <use xlink:href="#DejaVuSans-75" x="52.099609"/>
      <use xlink:href="#DejaVuSans-62" x="115.478516"/>
      <use xlink:href="#DejaVuSans-2d" x="178.955078"/>
      <use xlink:href="#DejaVuSans-31" x="215.039062"/>
      <use xlink:href="#DejaVuSans-30" x="278.662109"/>
     </g>
    </g>
    <g id="line2d_95">
     <path d="M 790.66375 365.052725 
L 810.66375 365.052725 
L 830.66375 365.052725 
" style="fill: none; stroke: #c5b0d5; stroke-opacity: 0.8; stroke-width: 2.7; stroke-linecap: square"/>
     <g>
      <use xlink:href="#m7d30419d79" x="810.66375" y="365.052725" style="fill: #c5b0d5; fill-opacity: 0.8; stroke: #c5b0d5; stroke-opacity: 0.8; stroke-width: 2.025"/>
     </g>
    </g>
    <g id="text_23">
     <!-- sub-11 -->
     <g transform="translate(846.66375 372.052725) scale(0.2 -0.2)">
      <use xlink:href="#DejaVuSans-73"/>
      <use xlink:href="#DejaVuSans-75" x="52.099609"/>
      <use xlink:href="#DejaVuSans-62" x="115.478516"/>
      <use xlink:href="#DejaVuSans-2d" x="178.955078"/>
      <use xlink:href="#DejaVuSans-31" x="215.039062"/>
      <use xlink:href="#DejaVuSans-31" x="278.662109"/>
     </g>
    </g>
    <g id="line2d_96">
     <path d="M 790.66375 394.408975 
L 810.66375 394.408975 
L 830.66375 394.408975 
" style="fill: none; stroke: #8c564b; stroke-opacity: 0.8; stroke-width: 2.7; stroke-linecap: square"/>
     <g>
      <use xlink:href="#m229788944e" x="810.66375" y="394.408975" style="fill: #8c564b; fill-opacity: 0.8; stroke: #8c564b; stroke-opacity: 0.8; stroke-width: 2.025"/>
     </g>
    </g>
    <g id="text_24">
     <!-- sub-12 -->
     <g transform="translate(846.66375 401.408975) scale(0.2 -0.2)">
      <use xlink:href="#DejaVuSans-73"/>
      <use xlink:href="#DejaVuSans-75" x="52.099609"/>
      <use xlink:href="#DejaVuSans-62" x="115.478516"/>
      <use xlink:href="#DejaVuSans-2d" x="178.955078"/>
      <use xlink:href="#DejaVuSans-31" x="215.039062"/>
      <use xlink:href="#DejaVuSans-32" x="278.662109"/>
     </g>
    </g>
    <g id="line2d_97">
     <path d="M 790.66375 423.765225 
L 810.66375 423.765225 
L 830.66375 423.765225 
" style="fill: none; stroke: #c49c94; stroke-opacity: 0.8; stroke-width: 2.7; stroke-linecap: square"/>
     <g>
      <use xlink:href="#m349dbe5dd2" x="810.66375" y="423.765225" style="fill: #c49c94; fill-opacity: 0.8; stroke: #c49c94; stroke-opacity: 0.8; stroke-width: 2.025"/>
     </g>
    </g>
    <g id="text_25">
     <!-- sub-13 -->
     <g transform="translate(846.66375 430.765225) scale(0.2 -0.2)">
      <use xlink:href="#DejaVuSans-73"/>
      <use xlink:href="#DejaVuSans-75" x="52.099609"/>
      <use xlink:href="#DejaVuSans-62" x="115.478516"/>
      <use xlink:href="#DejaVuSans-2d" x="178.955078"/>
      <use xlink:href="#DejaVuSans-31" x="215.039062"/>
      <use xlink:href="#DejaVuSans-33" x="278.662109"/>
     </g>
    </g>
    <g id="line2d_98">
     <path d="M 790.66375 453.121475 
L 810.66375 453.121475 
L 830.66375 453.121475 
" style="fill: none; stroke: #e377c2; stroke-opacity: 0.8; stroke-width: 2.7; stroke-linecap: square"/>
     <g>
      <use xlink:href="#mf702dad666" x="810.66375" y="453.121475" style="fill: #e377c2; fill-opacity: 0.8; stroke: #e377c2; stroke-opacity: 0.8; stroke-width: 2.025"/>
     </g>
    </g>
    <g id="text_26">
     <!-- sub-14 -->
     <g transform="translate(846.66375 460.121475) scale(0.2 -0.2)">
      <use xlink:href="#DejaVuSans-73"/>
      <use xlink:href="#DejaVuSans-75" x="52.099609"/>
      <use xlink:href="#DejaVuSans-62" x="115.478516"/>
      <use xlink:href="#DejaVuSans-2d" x="178.955078"/>
      <use xlink:href="#DejaVuSans-31" x="215.039062"/>
      <use xlink:href="#DejaVuSans-34" x="278.662109"/>
     </g>
    </g>
    <g id="line2d_99">
     <path d="M 790.66375 482.477725 
L 810.66375 482.477725 
L 830.66375 482.477725 
" style="fill: none; stroke: #f7b6d2; stroke-opacity: 0.8; stroke-width: 2.7; stroke-linecap: square"/>
     <g>
      <use xlink:href="#m689eed8c17" x="810.66375" y="482.477725" style="fill: #f7b6d2; fill-opacity: 0.8; stroke: #f7b6d2; stroke-opacity: 0.8; stroke-width: 2.025"/>
     </g>
    </g>
    <g id="text_27">
     <!-- sub-15 -->
     <g transform="translate(846.66375 489.477725) scale(0.2 -0.2)">
      <use xlink:href="#DejaVuSans-73"/>
      <use xlink:href="#DejaVuSans-75" x="52.099609"/>
      <use xlink:href="#DejaVuSans-62" x="115.478516"/>
      <use xlink:href="#DejaVuSans-2d" x="178.955078"/>
      <use xlink:href="#DejaVuSans-31" x="215.039062"/>
      <use xlink:href="#DejaVuSans-35" x="278.662109"/>
     </g>
    </g>
    <g id="line2d_100">
     <path d="M 790.66375 511.833975 
L 810.66375 511.833975 
L 830.66375 511.833975 
" style="fill: none; stroke: #7f7f7f; stroke-opacity: 0.8; stroke-width: 2.7; stroke-linecap: square"/>
     <g>
      <use xlink:href="#m275eb190cc" x="810.66375" y="511.833975" style="fill: #7f7f7f; fill-opacity: 0.8; stroke: #7f7f7f; stroke-opacity: 0.8; stroke-width: 2.025"/>
     </g>
    </g>
    <g id="text_28">
     <!-- sub-16 -->
     <g transform="translate(846.66375 518.833975) scale(0.2 -0.2)">
      <use xlink:href="#DejaVuSans-73"/>
      <use xlink:href="#DejaVuSans-75" x="52.099609"/>
      <use xlink:href="#DejaVuSans-62" x="115.478516"/>
      <use xlink:href="#DejaVuSans-2d" x="178.955078"/>
      <use xlink:href="#DejaVuSans-31" x="215.039062"/>
      <use xlink:href="#DejaVuSans-36" x="278.662109"/>
     </g>
    </g>
   </g>
  </g>
 </g>
 <defs>
  <clipPath id="p131407c7f5">
   <rect x="129.6" y="74.6496" width="803.52" height="479.0016"/>
  </clipPath>
 </defs>
</svg>
