<?xml version="1.0" encoding="utf-8" standalone="no"?>
<!DOCTYPE svg PUBLIC "-//W3C//DTD SVG 1.1//EN"
  "http://www.w3.org/Graphics/SVG/1.1/DTD/svg11.dtd">
<svg xmlns:xlink="http://www.w3.org/1999/xlink" width="1843.2pt" height="1010.88pt" viewBox="0 0 1843.2 1010.88" xmlns="http://www.w3.org/2000/svg" version="1.1">
 <metadata>
  <rdf:RDF xmlns:dc="http://purl.org/dc/elements/1.1/" xmlns:cc="http://creativecommons.org/ns#" xmlns:rdf="http://www.w3.org/1999/02/22-rdf-syntax-ns#">
   <cc:Work>
    <dc:type rdf:resource="http://purl.org/dc/dcmitype/StillImage"/>
    <dc:date>2024-11-15T19:57:37.946630</dc:date>
    <dc:format>image/svg+xml</dc:format>
    <dc:creator>
     <cc:Agent>
      <dc:title>Matplotlib v3.9.1, https://matplotlib.org/</dc:title>
     </cc:Agent>
    </dc:creator>
   </cc:Work>
  </rdf:RDF>
 </metadata>
 <defs>
  <style type="text/css">*{stroke-linejoin: round; stroke-linecap: butt}</style>
 </defs>
 <g id="figure_1">
  <g id="patch_1">
   <path d="M 0 1010.88 
L 1843.2 1010.88 
L 1843.2 0 
L 0 0 
z
" style="fill: #ffffff"/>
  </g>
  <g id="axes_1">
   <g id="patch_2">
    <path d="M 230.4 899.6832 
L 1658.88 899.6832 
L 1658.88 121.3056 
L 230.4 121.3056 
z
" style="fill: #ffffff"/>
   </g>
   <g id="matplotlib.axis_1">
    <g id="xtick_1">
     <g id="line2d_1">
      <defs>
       <path id="m2d855e0e6f" d="M 0 0 
L 0 3.5 
" style="stroke: #000000; stroke-width: 0.8"/>
      </defs>
      <g>
       <use xlink:href="#m2d855e0e6f" x="468.48" y="899.6832" style="stroke: #000000; stroke-width: 0.8"/>
      </g>
     </g>
     <g id="text_1">
      <!-- 25.0 -->
      <g transform="translate(440.647969 925.679294) scale(0.25 -0.25)">
       <defs>
        <path id="DejaVuSans-32" d="M 1228 531 
L 3431 531 
L 3431 0 
L 469 0 
L 469 531 
Q 828 903 1448 1529 
Q 2069 2156 2228 2338 
Q 2531 2678 2651 2914 
Q 2772 3150 2772 3378 
Q 2772 3750 2511 3984 
Q 2250 4219 1831 4219 
Q 1534 4219 1204 4116 
Q 875 4013 500 3803 
L 500 4441 
Q 881 4594 1212 4672 
Q 1544 4750 1819 4750 
Q 2544 4750 2975 4387 
Q 3406 4025 3406 3419 
Q 3406 3131 3298 2873 
Q 3191 2616 2906 2266 
Q 2828 2175 2409 1742 
Q 1991 1309 1228 531 
z
" transform="scale(0.015625)"/>
        <path id="DejaVuSans-35" d="M 691 4666 
L 3169 4666 
L 3169 4134 
L 1269 4134 
L 1269 2991 
Q 1406 3038 1543 3061 
Q 1681 3084 1819 3084 
Q 2600 3084 3056 2656 
Q 3513 2228 3513 1497 
Q 3513 744 3044 326 
Q 2575 -91 1722 -91 
Q 1428 -91 1123 -41 
Q 819 9 494 109 
L 494 744 
Q 775 591 1075 516 
Q 1375 441 1709 441 
Q 2250 441 2565 725 
Q 2881 1009 2881 1497 
Q 2881 1984 2565 2268 
Q 2250 2553 1709 2553 
Q 1456 2553 1204 2497 
Q 953 2441 691 2322 
L 691 4666 
z
" transform="scale(0.015625)"/>
        <path id="DejaVuSans-2e" d="M 684 794 
L 1344 794 
L 1344 0 
L 684 0 
L 684 794 
z
" transform="scale(0.015625)"/>
        <path id="DejaVuSans-30" d="M 2034 4250 
Q 1547 4250 1301 3770 
Q 1056 3291 1056 2328 
Q 1056 1369 1301 889 
Q 1547 409 2034 409 
Q 2525 409 2770 889 
Q 3016 1369 3016 2328 
Q 3016 3291 2770 3770 
Q 2525 4250 2034 4250 
z
M 2034 4750 
Q 2819 4750 3233 4129 
Q 3647 3509 3647 2328 
Q 3647 1150 3233 529 
Q 2819 -91 2034 -91 
Q 1250 -91 836 529 
Q 422 1150 422 2328 
Q 422 3509 836 4129 
Q 1250 4750 2034 4750 
z
" transform="scale(0.015625)"/>
       </defs>
       <use xlink:href="#DejaVuSans-32"/>
       <use xlink:href="#DejaVuSans-35" x="63.623047"/>
       <use xlink:href="#DejaVuSans-2e" x="127.246094"/>
       <use xlink:href="#DejaVuSans-30" x="159.033203"/>
      </g>
     </g>
    </g>
    <g id="xtick_2">
     <g id="line2d_2">
      <g>
       <use xlink:href="#m2d855e0e6f" x="944.64" y="899.6832" style="stroke: #000000; stroke-width: 0.8"/>
      </g>
     </g>
     <g id="text_2">
      <!-- 50.0 -->
      <g transform="translate(916.807969 925.679294) scale(0.25 -0.25)">
       <use xlink:href="#DejaVuSans-35"/>
       <use xlink:href="#DejaVuSans-30" x="63.623047"/>
       <use xlink:href="#DejaVuSans-2e" x="127.246094"/>
       <use xlink:href="#DejaVuSans-30" x="159.033203"/>
      </g>
     </g>
    </g>
    <g id="xtick_3">
     <g id="line2d_3">
      <g>
       <use xlink:href="#m2d855e0e6f" x="1420.8" y="899.6832" style="stroke: #000000; stroke-width: 0.8"/>
      </g>
     </g>
     <g id="text_3">
      <!-- 75.0 -->
      <g transform="translate(1392.967969 925.679294) scale(0.25 -0.25)">
       <defs>
        <path id="DejaVuSans-37" d="M 525 4666 
L 3525 4666 
L 3525 4397 
L 1831 0 
L 1172 0 
L 2766 4134 
L 525 4134 
L 525 4666 
z
" transform="scale(0.015625)"/>
       </defs>
       <use xlink:href="#DejaVuSans-37"/>
       <use xlink:href="#DejaVuSans-35" x="63.623047"/>
       <use xlink:href="#DejaVuSans-2e" x="127.246094"/>
       <use xlink:href="#DejaVuSans-30" x="159.033203"/>
      </g>
     </g>
    </g>
    <g id="text_4">
     <!-- P(Right|GREEN) -->
     <g transform="translate(827.115 957.805075) scale(0.3 -0.3)">
      <defs>
       <path id="DejaVuSans-50" d="M 1259 4147 
L 1259 2394 
L 2053 2394 
Q 2494 2394 2734 2622 
Q 2975 2850 2975 3272 
Q 2975 3691 2734 3919 
Q 2494 4147 2053 4147 
L 1259 4147 
z
M 628 4666 
L 2053 4666 
Q 2838 4666 3239 4311 
Q 3641 3956 3641 3272 
Q 3641 2581 3239 2228 
Q 2838 1875 2053 1875 
L 1259 1875 
L 1259 0 
L 628 0 
L 628 4666 
z
" transform="scale(0.015625)"/>
       <path id="DejaVuSans-28" d="M 1984 4856 
Q 1566 4138 1362 3434 
Q 1159 2731 1159 2009 
Q 1159 1288 1364 580 
Q 1569 -128 1984 -844 
L 1484 -844 
Q 1016 -109 783 600 
Q 550 1309 550 2009 
Q 550 2706 781 3412 
Q 1013 4119 1484 4856 
L 1984 4856 
z
" transform="scale(0.015625)"/>
       <path id="DejaVuSans-52" d="M 2841 2188 
Q 3044 2119 3236 1894 
Q 3428 1669 3622 1275 
L 4263 0 
L 3584 0 
L 2988 1197 
Q 2756 1666 2539 1819 
Q 2322 1972 1947 1972 
L 1259 1972 
L 1259 0 
L 628 0 
L 628 4666 
L 2053 4666 
Q 2853 4666 3247 4331 
Q 3641 3997 3641 3322 
Q 3641 2881 3436 2590 
Q 3231 2300 2841 2188 
z
M 1259 4147 
L 1259 2491 
L 2053 2491 
Q 2509 2491 2742 2702 
Q 2975 2913 2975 3322 
Q 2975 3731 2742 3939 
Q 2509 4147 2053 4147 
L 1259 4147 
z
" transform="scale(0.015625)"/>
       <path id="DejaVuSans-69" d="M 603 3500 
L 1178 3500 
L 1178 0 
L 603 0 
L 603 3500 
z
M 603 4863 
L 1178 4863 
L 1178 4134 
L 603 4134 
L 603 4863 
z
" transform="scale(0.015625)"/>
       <path id="DejaVuSans-67" d="M 2906 1791 
Q 2906 2416 2648 2759 
Q 2391 3103 1925 3103 
Q 1463 3103 1205 2759 
Q 947 2416 947 1791 
Q 947 1169 1205 825 
Q 1463 481 1925 481 
Q 2391 481 2648 825 
Q 2906 1169 2906 1791 
z
M 3481 434 
Q 3481 -459 3084 -895 
Q 2688 -1331 1869 -1331 
Q 1566 -1331 1297 -1286 
Q 1028 -1241 775 -1147 
L 775 -588 
Q 1028 -725 1275 -790 
Q 1522 -856 1778 -856 
Q 2344 -856 2625 -561 
Q 2906 -266 2906 331 
L 2906 616 
Q 2728 306 2450 153 
Q 2172 0 1784 0 
Q 1141 0 747 490 
Q 353 981 353 1791 
Q 353 2603 747 3093 
Q 1141 3584 1784 3584 
Q 2172 3584 2450 3431 
Q 2728 3278 2906 2969 
L 2906 3500 
L 3481 3500 
L 3481 434 
z
" transform="scale(0.015625)"/>
       <path id="DejaVuSans-68" d="M 3513 2113 
L 3513 0 
L 2938 0 
L 2938 2094 
Q 2938 2591 2744 2837 
Q 2550 3084 2163 3084 
Q 1697 3084 1428 2787 
Q 1159 2491 1159 1978 
L 1159 0 
L 581 0 
L 581 4863 
L 1159 4863 
L 1159 2956 
Q 1366 3272 1645 3428 
Q 1925 3584 2291 3584 
Q 2894 3584 3203 3211 
Q 3513 2838 3513 2113 
z
" transform="scale(0.015625)"/>
       <path id="DejaVuSans-74" d="M 1172 4494 
L 1172 3500 
L 2356 3500 
L 2356 3053 
L 1172 3053 
L 1172 1153 
Q 1172 725 1289 603 
Q 1406 481 1766 481 
L 2356 481 
L 2356 0 
L 1766 0 
Q 1100 0 847 248 
Q 594 497 594 1153 
L 594 3053 
L 172 3053 
L 172 3500 
L 594 3500 
L 594 4494 
L 1172 4494 
z
" transform="scale(0.015625)"/>
       <path id="DejaVuSans-7c" d="M 1344 4891 
L 1344 -1509 
L 813 -1509 
L 813 4891 
L 1344 4891 
z
" transform="scale(0.015625)"/>
       <path id="DejaVuSans-47" d="M 3809 666 
L 3809 1919 
L 2778 1919 
L 2778 2438 
L 4434 2438 
L 4434 434 
Q 4069 175 3628 42 
Q 3188 -91 2688 -91 
Q 1594 -91 976 548 
Q 359 1188 359 2328 
Q 359 3472 976 4111 
Q 1594 4750 2688 4750 
Q 3144 4750 3555 4637 
Q 3966 4525 4313 4306 
L 4313 3634 
Q 3963 3931 3569 4081 
Q 3175 4231 2741 4231 
Q 1884 4231 1454 3753 
Q 1025 3275 1025 2328 
Q 1025 1384 1454 906 
Q 1884 428 2741 428 
Q 3075 428 3337 486 
Q 3600 544 3809 666 
z
" transform="scale(0.015625)"/>
       <path id="DejaVuSans-45" d="M 628 4666 
L 3578 4666 
L 3578 4134 
L 1259 4134 
L 1259 2753 
L 3481 2753 
L 3481 2222 
L 1259 2222 
L 1259 531 
L 3634 531 
L 3634 0 
L 628 0 
L 628 4666 
z
" transform="scale(0.015625)"/>
       <path id="DejaVuSans-4e" d="M 628 4666 
L 1478 4666 
L 3547 763 
L 3547 4666 
L 4159 4666 
L 4159 0 
L 3309 0 
L 1241 3903 
L 1241 0 
L 628 0 
L 628 4666 
z
" transform="scale(0.015625)"/>
       <path id="DejaVuSans-29" d="M 513 4856 
L 1013 4856 
Q 1481 4119 1714 3412 
Q 1947 2706 1947 2009 
Q 1947 1309 1714 600 
Q 1481 -109 1013 -844 
L 513 -844 
Q 928 -128 1133 580 
Q 1338 1288 1338 2009 
Q 1338 2731 1133 3434 
Q 928 4138 513 4856 
z
" transform="scale(0.015625)"/>
      </defs>
      <use xlink:href="#DejaVuSans-50"/>
      <use xlink:href="#DejaVuSans-28" x="60.302734"/>
      <use xlink:href="#DejaVuSans-52" x="99.316406"/>
      <use xlink:href="#DejaVuSans-69" x="168.798828"/>
      <use xlink:href="#DejaVuSans-67" x="196.582031"/>
      <use xlink:href="#DejaVuSans-68" x="260.058594"/>
      <use xlink:href="#DejaVuSans-74" x="323.4375"/>
      <use xlink:href="#DejaVuSans-7c" x="362.646484"/>
      <use xlink:href="#DejaVuSans-47" x="396.337891"/>
      <use xlink:href="#DejaVuSans-52" x="473.828125"/>
      <use xlink:href="#DejaVuSans-45" x="543.310547"/>
      <use xlink:href="#DejaVuSans-45" x="606.494141"/>
      <use xlink:href="#DejaVuSans-4e" x="669.677734"/>
      <use xlink:href="#DejaVuSans-29" x="744.482422"/>
     </g>
    </g>
   </g>
   <g id="matplotlib.axis_2">
    <g id="ytick_1">
     <g id="line2d_4">
      <defs>
       <path id="m5b1d3337fe" d="M 0 0 
L -3.5 0 
" style="stroke: #000000; stroke-width: 0.8"/>
      </defs>
      <g>
       <use xlink:href="#m5b1d3337fe" x="230.4" y="861.005215" style="stroke: #000000; stroke-width: 0.8"/>
      </g>
     </g>
     <g id="text_5">
      <!-- −2.5 -->
      <g transform="translate(162.692969 870.503262) scale(0.25 -0.25)">
       <defs>
        <path id="DejaVuSans-2212" d="M 678 2272 
L 4684 2272 
L 4684 1741 
L 678 1741 
L 678 2272 
z
" transform="scale(0.015625)"/>
       </defs>
       <use xlink:href="#DejaVuSans-2212"/>
       <use xlink:href="#DejaVuSans-32" x="83.789062"/>
       <use xlink:href="#DejaVuSans-2e" x="147.412109"/>
       <use xlink:href="#DejaVuSans-35" x="179.199219"/>
      </g>
     </g>
    </g>
    <g id="ytick_2">
     <g id="line2d_5">
      <g>
       <use xlink:href="#m5b1d3337fe" x="230.4" y="768.473746" style="stroke: #000000; stroke-width: 0.8"/>
      </g>
     </g>
     <g id="text_6">
      <!-- −2.0 -->
      <g transform="translate(162.692969 777.971793) scale(0.25 -0.25)">
       <use xlink:href="#DejaVuSans-2212"/>
       <use xlink:href="#DejaVuSans-32" x="83.789062"/>
       <use xlink:href="#DejaVuSans-2e" x="147.412109"/>
       <use xlink:href="#DejaVuSans-30" x="179.199219"/>
      </g>
     </g>
    </g>
    <g id="ytick_3">
     <g id="line2d_6">
      <g>
       <use xlink:href="#m5b1d3337fe" x="230.4" y="675.942278" style="stroke: #000000; stroke-width: 0.8"/>
      </g>
     </g>
     <g id="text_7">
      <!-- −1.5 -->
      <g transform="translate(162.692969 685.440325) scale(0.25 -0.25)">
       <defs>
        <path id="DejaVuSans-31" d="M 794 531 
L 1825 531 
L 1825 4091 
L 703 3866 
L 703 4441 
L 1819 4666 
L 2450 4666 
L 2450 531 
L 3481 531 
L 3481 0 
L 794 0 
L 794 531 
z
" transform="scale(0.015625)"/>
       </defs>
       <use xlink:href="#DejaVuSans-2212"/>
       <use xlink:href="#DejaVuSans-31" x="83.789062"/>
       <use xlink:href="#DejaVuSans-2e" x="147.412109"/>
       <use xlink:href="#DejaVuSans-35" x="179.199219"/>
      </g>
     </g>
    </g>
    <g id="ytick_4">
     <g id="line2d_7">
      <g>
       <use xlink:href="#m5b1d3337fe" x="230.4" y="583.410809" style="stroke: #000000; stroke-width: 0.8"/>
      </g>
     </g>
     <g id="text_8">
      <!-- −1.0 -->
      <g transform="translate(162.692969 592.908856) scale(0.25 -0.25)">
       <use xlink:href="#DejaVuSans-2212"/>
       <use xlink:href="#DejaVuSans-31" x="83.789062"/>
       <use xlink:href="#DejaVuSans-2e" x="147.412109"/>
       <use xlink:href="#DejaVuSans-30" x="179.199219"/>
      </g>
     </g>
    </g>
    <g id="ytick_5">
     <g id="line2d_8">
      <g>
       <use xlink:href="#m5b1d3337fe" x="230.4" y="490.879341" style="stroke: #000000; stroke-width: 0.8"/>
      </g>
     </g>
     <g id="text_9">
      <!-- −0.5 -->
      <g transform="translate(162.692969 500.377388) scale(0.25 -0.25)">
       <use xlink:href="#DejaVuSans-2212"/>
       <use xlink:href="#DejaVuSans-30" x="83.789062"/>
       <use xlink:href="#DejaVuSans-2e" x="147.412109"/>
       <use xlink:href="#DejaVuSans-35" x="179.199219"/>
      </g>
     </g>
    </g>
    <g id="ytick_6">
     <g id="line2d_9">
      <g>
       <use xlink:href="#m5b1d3337fe" x="230.4" y="398.347872" style="stroke: #000000; stroke-width: 0.8"/>
      </g>
     </g>
     <g id="text_10">
      <!-- 0.0 -->
      <g transform="translate(183.642188 407.845919) scale(0.25 -0.25)">
       <use xlink:href="#DejaVuSans-30"/>
       <use xlink:href="#DejaVuSans-2e" x="63.623047"/>
       <use xlink:href="#DejaVuSans-30" x="95.410156"/>
      </g>
     </g>
    </g>
    <g id="ytick_7">
     <g id="line2d_10">
      <g>
       <use xlink:href="#m5b1d3337fe" x="230.4" y="305.816404" style="stroke: #000000; stroke-width: 0.8"/>
      </g>
     </g>
     <g id="text_11">
      <!-- 0.5 -->
      <g transform="translate(183.642188 315.314451) scale(0.25 -0.25)">
       <use xlink:href="#DejaVuSans-30"/>
       <use xlink:href="#DejaVuSans-2e" x="63.623047"/>
       <use xlink:href="#DejaVuSans-35" x="95.410156"/>
      </g>
     </g>
    </g>
    <g id="ytick_8">
     <g id="line2d_11">
      <g>
       <use xlink:href="#m5b1d3337fe" x="230.4" y="213.284935" style="stroke: #000000; stroke-width: 0.8"/>
      </g>
     </g>
     <g id="text_12">
      <!-- 1.0 -->
      <g transform="translate(183.642188 222.782982) scale(0.25 -0.25)">
       <use xlink:href="#DejaVuSans-31"/>
       <use xlink:href="#DejaVuSans-2e" x="63.623047"/>
       <use xlink:href="#DejaVuSans-30" x="95.410156"/>
      </g>
     </g>
    </g>
    <g id="text_13">
     <!-- ASEM (deg/s) -->
     <g transform="translate(152.453906 610.312369) rotate(-90) scale(0.3 -0.3)">
      <defs>
       <path id="DejaVuSans-41" d="M 2188 4044 
L 1331 1722 
L 3047 1722 
L 2188 4044 
z
M 1831 4666 
L 2547 4666 
L 4325 0 
L 3669 0 
L 3244 1197 
L 1141 1197 
L 716 0 
L 50 0 
L 1831 4666 
z
" transform="scale(0.015625)"/>
       <path id="DejaVuSans-53" d="M 3425 4513 
L 3425 3897 
Q 3066 4069 2747 4153 
Q 2428 4238 2131 4238 
Q 1616 4238 1336 4038 
Q 1056 3838 1056 3469 
Q 1056 3159 1242 3001 
Q 1428 2844 1947 2747 
L 2328 2669 
Q 3034 2534 3370 2195 
Q 3706 1856 3706 1288 
Q 3706 609 3251 259 
Q 2797 -91 1919 -91 
Q 1588 -91 1214 -16 
Q 841 59 441 206 
L 441 856 
Q 825 641 1194 531 
Q 1563 422 1919 422 
Q 2459 422 2753 634 
Q 3047 847 3047 1241 
Q 3047 1584 2836 1778 
Q 2625 1972 2144 2069 
L 1759 2144 
Q 1053 2284 737 2584 
Q 422 2884 422 3419 
Q 422 4038 858 4394 
Q 1294 4750 2059 4750 
Q 2388 4750 2728 4690 
Q 3069 4631 3425 4513 
z
" transform="scale(0.015625)"/>
       <path id="DejaVuSans-4d" d="M 628 4666 
L 1569 4666 
L 2759 1491 
L 3956 4666 
L 4897 4666 
L 4897 0 
L 4281 0 
L 4281 4097 
L 3078 897 
L 2444 897 
L 1241 4097 
L 1241 0 
L 628 0 
L 628 4666 
z
" transform="scale(0.015625)"/>
       <path id="DejaVuSans-20" transform="scale(0.015625)"/>
       <path id="DejaVuSans-64" d="M 2906 2969 
L 2906 4863 
L 3481 4863 
L 3481 0 
L 2906 0 
L 2906 525 
Q 2725 213 2448 61 
Q 2172 -91 1784 -91 
Q 1150 -91 751 415 
Q 353 922 353 1747 
Q 353 2572 751 3078 
Q 1150 3584 1784 3584 
Q 2172 3584 2448 3432 
Q 2725 3281 2906 2969 
z
M 947 1747 
Q 947 1113 1208 752 
Q 1469 391 1925 391 
Q 2381 391 2643 752 
Q 2906 1113 2906 1747 
Q 2906 2381 2643 2742 
Q 2381 3103 1925 3103 
Q 1469 3103 1208 2742 
Q 947 2381 947 1747 
z
" transform="scale(0.015625)"/>
       <path id="DejaVuSans-65" d="M 3597 1894 
L 3597 1613 
L 953 1613 
Q 991 1019 1311 708 
Q 1631 397 2203 397 
Q 2534 397 2845 478 
Q 3156 559 3463 722 
L 3463 178 
Q 3153 47 2828 -22 
Q 2503 -91 2169 -91 
Q 1331 -91 842 396 
Q 353 884 353 1716 
Q 353 2575 817 3079 
Q 1281 3584 2069 3584 
Q 2775 3584 3186 3129 
Q 3597 2675 3597 1894 
z
M 3022 2063 
Q 3016 2534 2758 2815 
Q 2500 3097 2075 3097 
Q 1594 3097 1305 2825 
Q 1016 2553 972 2059 
L 3022 2063 
z
" transform="scale(0.015625)"/>
       <path id="DejaVuSans-2f" d="M 1625 4666 
L 2156 4666 
L 531 -594 
L 0 -594 
L 1625 4666 
z
" transform="scale(0.015625)"/>
       <path id="DejaVuSans-73" d="M 2834 3397 
L 2834 2853 
Q 2591 2978 2328 3040 
Q 2066 3103 1784 3103 
Q 1356 3103 1142 2972 
Q 928 2841 928 2578 
Q 928 2378 1081 2264 
Q 1234 2150 1697 2047 
L 1894 2003 
Q 2506 1872 2764 1633 
Q 3022 1394 3022 966 
Q 3022 478 2636 193 
Q 2250 -91 1575 -91 
Q 1294 -91 989 -36 
Q 684 19 347 128 
L 347 722 
Q 666 556 975 473 
Q 1284 391 1588 391 
Q 1994 391 2212 530 
Q 2431 669 2431 922 
Q 2431 1156 2273 1281 
Q 2116 1406 1581 1522 
L 1381 1569 
Q 847 1681 609 1914 
Q 372 2147 372 2553 
Q 372 3047 722 3315 
Q 1072 3584 1716 3584 
Q 2034 3584 2315 3537 
Q 2597 3491 2834 3397 
z
" transform="scale(0.015625)"/>
      </defs>
      <use xlink:href="#DejaVuSans-41"/>
      <use xlink:href="#DejaVuSans-53" x="68.408203"/>
      <use xlink:href="#DejaVuSans-45" x="131.884766"/>
      <use xlink:href="#DejaVuSans-4d" x="195.068359"/>
      <use xlink:href="#DejaVuSans-20" x="281.347656"/>
      <use xlink:href="#DejaVuSans-28" x="313.134766"/>
      <use xlink:href="#DejaVuSans-64" x="352.148438"/>
      <use xlink:href="#DejaVuSans-65" x="415.625"/>
      <use xlink:href="#DejaVuSans-67" x="477.148438"/>
      <use xlink:href="#DejaVuSans-2f" x="540.625"/>
      <use xlink:href="#DejaVuSans-73" x="574.316406"/>
      <use xlink:href="#DejaVuSans-29" x="626.416016"/>
     </g>
    </g>
   </g>
   <g id="line2d_12">
    <path d="M 468.48 398.826636 
L 944.64 411.975447 
L 1420.8 594.194694 
" clip-path="url(#pfa8550e0f8)" style="fill: none; stroke: #1f77b4; stroke-opacity: 0.8; stroke-width: 2.7; stroke-linecap: square"/>
    <defs>
     <path id="mb147902a40" d="M 0 3.383948 
C 0.897434 3.383948 1.758231 3.027394 2.392813 2.392813 
C 3.027394 1.758231 3.383948 0.897434 3.383948 0 
C 3.383948 -0.897434 3.027394 -1.758231 2.392813 -2.392813 
C 1.758231 -3.027394 0.897434 -3.383948 0 -3.383948 
C -0.897434 -3.383948 -1.758231 -3.027394 -2.392813 -2.392813 
C -3.027394 -1.758231 -3.383948 -0.897434 -3.383948 0 
C -3.383948 0.897434 -3.027394 1.758231 -2.392813 2.392813 
C -1.758231 3.027394 -0.897434 3.383948 0 3.383948 
z
" style="stroke: #1f77b4; stroke-opacity: 0.8; stroke-width: 2.025"/>
    </defs>
    <g clip-path="url(#pfa8550e0f8)">
     <use xlink:href="#mb147902a40" x="468.48" y="398.826636" style="fill: #1f77b4; fill-opacity: 0.8; stroke: #1f77b4; stroke-opacity: 0.8; stroke-width: 2.025"/>
     <use xlink:href="#mb147902a40" x="944.64" y="411.975447" style="fill: #1f77b4; fill-opacity: 0.8; stroke: #1f77b4; stroke-opacity: 0.8; stroke-width: 2.025"/>
     <use xlink:href="#mb147902a40" x="1420.8" y="594.194694" style="fill: #1f77b4; fill-opacity: 0.8; stroke: #1f77b4; stroke-opacity: 0.8; stroke-width: 2.025"/>
    </g>
   </g>
   <g id="line2d_13">
    <path d="M 444.672 432.725536 
L 492.288 432.725536 
M 468.48 432.725536 
L 468.48 361.665615 
M 444.672 361.665615 
L 492.288 361.665615 
" clip-path="url(#pfa8550e0f8)" style="fill: none; stroke: #1f77b4; stroke-opacity: 0.8; stroke-width: 2.7; stroke-linecap: square"/>
   </g>
   <g id="line2d_14">
    <path d="M 920.832 448.73025 
L 968.448 448.73025 
M 944.64 448.73025 
L 944.64 371.949001 
M 920.832 371.949001 
L 968.448 371.949001 
" clip-path="url(#pfa8550e0f8)" style="fill: none; stroke: #1f77b4; stroke-opacity: 0.8; stroke-width: 2.7; stroke-linecap: square"/>
   </g>
   <g id="line2d_15">
    <path d="M 1396.992 644.030507 
L 1444.608 644.030507 
M 1420.8 644.030507 
L 1420.8 540.845931 
M 1396.992 540.845931 
L 1444.608 540.845931 
" clip-path="url(#pfa8550e0f8)" style="fill: none; stroke: #1f77b4; stroke-opacity: 0.8; stroke-width: 2.7; stroke-linecap: square"/>
   </g>
   <g id="line2d_16">
    <path d="M 468.48 371.641066 
L 944.64 426.928003 
L 1420.8 797.684975 
" clip-path="url(#pfa8550e0f8)" style="fill: none; stroke: #aec7e8; stroke-opacity: 0.8; stroke-width: 2.7; stroke-linecap: square"/>
    <defs>
     <path id="m9a8bf0963c" d="M 0 3.383948 
C 0.897434 3.383948 1.758231 3.027394 2.392813 2.392813 
C 3.027394 1.758231 3.383948 0.897434 3.383948 0 
C 3.383948 -0.897434 3.027394 -1.758231 2.392813 -2.392813 
C 1.758231 -3.027394 0.897434 -3.383948 0 -3.383948 
C -0.897434 -3.383948 -1.758231 -3.027394 -2.392813 -2.392813 
C -3.027394 -1.758231 -3.383948 -0.897434 -3.383948 0 
C -3.383948 0.897434 -3.027394 1.758231 -2.392813 2.392813 
C -1.758231 3.027394 -0.897434 3.383948 0 3.383948 
z
" style="stroke: #aec7e8; stroke-opacity: 0.8; stroke-width: 2.025"/>
    </defs>
    <g clip-path="url(#pfa8550e0f8)">
     <use xlink:href="#m9a8bf0963c" x="468.48" y="371.641066" style="fill: #aec7e8; fill-opacity: 0.8; stroke: #aec7e8; stroke-opacity: 0.8; stroke-width: 2.025"/>
     <use xlink:href="#m9a8bf0963c" x="944.64" y="426.928003" style="fill: #aec7e8; fill-opacity: 0.8; stroke: #aec7e8; stroke-opacity: 0.8; stroke-width: 2.025"/>
     <use xlink:href="#m9a8bf0963c" x="1420.8" y="797.684975" style="fill: #aec7e8; fill-opacity: 0.8; stroke: #aec7e8; stroke-opacity: 0.8; stroke-width: 2.025"/>
    </g>
   </g>
   <g id="line2d_17">
    <path d="M 444.672 437.758645 
L 492.288 437.758645 
M 468.48 437.758645 
L 468.48 312.216027 
M 444.672 312.216027 
L 492.288 312.216027 
" clip-path="url(#pfa8550e0f8)" style="fill: none; stroke: #aec7e8; stroke-opacity: 0.8; stroke-width: 2.7; stroke-linecap: square"/>
   </g>
   <g id="line2d_18">
    <path d="M 920.832 504.930763 
L 968.448 504.930763 
M 944.64 504.930763 
L 944.64 351.121745 
M 920.832 351.121745 
L 968.448 351.121745 
" clip-path="url(#pfa8550e0f8)" style="fill: none; stroke: #aec7e8; stroke-opacity: 0.8; stroke-width: 2.7; stroke-linecap: square"/>
   </g>
   <g id="line2d_19">
    <path d="M 1396.992 864.3024 
L 1444.608 864.3024 
M 1420.8 864.3024 
L 1420.8 723.881717 
M 1396.992 723.881717 
L 1444.608 723.881717 
" clip-path="url(#pfa8550e0f8)" style="fill: none; stroke: #aec7e8; stroke-opacity: 0.8; stroke-width: 2.7; stroke-linecap: square"/>
   </g>
   <g id="line2d_20">
    <path d="M 468.48 294.970104 
L 944.64 349.658157 
L 1420.8 349.648996 
" clip-path="url(#pfa8550e0f8)" style="fill: none; stroke: #ff7f0e; stroke-opacity: 0.8; stroke-width: 2.7; stroke-linecap: square"/>
    <defs>
     <path id="m5a5902cbe5" d="M 0 3.383948 
C 0.897434 3.383948 1.758231 3.027394 2.392813 2.392813 
C 3.027394 1.758231 3.383948 0.897434 3.383948 0 
C 3.383948 -0.897434 3.027394 -1.758231 2.392813 -2.392813 
C 1.758231 -3.027394 0.897434 -3.383948 0 -3.383948 
C -0.897434 -3.383948 -1.758231 -3.027394 -2.392813 -2.392813 
C -3.027394 -1.758231 -3.383948 -0.897434 -3.383948 0 
C -3.383948 0.897434 -3.027394 1.758231 -2.392813 2.392813 
C -1.758231 3.027394 -0.897434 3.383948 0 3.383948 
z
" style="stroke: #ff7f0e; stroke-opacity: 0.8; stroke-width: 2.025"/>
    </defs>
    <g clip-path="url(#pfa8550e0f8)">
     <use xlink:href="#m5a5902cbe5" x="468.48" y="294.970104" style="fill: #ff7f0e; fill-opacity: 0.8; stroke: #ff7f0e; stroke-opacity: 0.8; stroke-width: 2.025"/>
     <use xlink:href="#m5a5902cbe5" x="944.64" y="349.658157" style="fill: #ff7f0e; fill-opacity: 0.8; stroke: #ff7f0e; stroke-opacity: 0.8; stroke-width: 2.025"/>
     <use xlink:href="#m5a5902cbe5" x="1420.8" y="349.648996" style="fill: #ff7f0e; fill-opacity: 0.8; stroke: #ff7f0e; stroke-opacity: 0.8; stroke-width: 2.025"/>
    </g>
   </g>
   <g id="line2d_21">
    <path d="M 444.672 336.717306 
L 492.288 336.717306 
M 468.48 336.717306 
L 468.48 253.882252 
M 444.672 253.882252 
L 492.288 253.882252 
" clip-path="url(#pfa8550e0f8)" style="fill: none; stroke: #ff7f0e; stroke-opacity: 0.8; stroke-width: 2.7; stroke-linecap: square"/>
   </g>
   <g id="line2d_22">
    <path d="M 920.832 384.968354 
L 968.448 384.968354 
M 944.64 384.968354 
L 944.64 312.40503 
M 920.832 312.40503 
L 968.448 312.40503 
" clip-path="url(#pfa8550e0f8)" style="fill: none; stroke: #ff7f0e; stroke-opacity: 0.8; stroke-width: 2.7; stroke-linecap: square"/>
   </g>
   <g id="line2d_23">
    <path d="M 1396.992 384.900278 
L 1444.608 384.900278 
M 1420.8 384.900278 
L 1420.8 313.010874 
M 1396.992 313.010874 
L 1444.608 313.010874 
" clip-path="url(#pfa8550e0f8)" style="fill: none; stroke: #ff7f0e; stroke-opacity: 0.8; stroke-width: 2.7; stroke-linecap: square"/>
   </g>
   <g id="line2d_24">
    <path d="M 468.48 369.813499 
L 944.64 432.615575 
L 1420.8 582.95544 
" clip-path="url(#pfa8550e0f8)" style="fill: none; stroke: #ffbb78; stroke-opacity: 0.8; stroke-width: 2.7; stroke-linecap: square"/>
    <defs>
     <path id="m0f90a2ee28" d="M 0 3.383948 
C 0.897434 3.383948 1.758231 3.027394 2.392813 2.392813 
C 3.027394 1.758231 3.383948 0.897434 3.383948 0 
C 3.383948 -0.897434 3.027394 -1.758231 2.392813 -2.392813 
C 1.758231 -3.027394 0.897434 -3.383948 0 -3.383948 
C -0.897434 -3.383948 -1.758231 -3.027394 -2.392813 -2.392813 
C -3.027394 -1.758231 -3.383948 -0.897434 -3.383948 0 
C -3.383948 0.897434 -3.027394 1.758231 -2.392813 2.392813 
C -1.758231 3.027394 -0.897434 3.383948 0 3.383948 
z
" style="stroke: #ffbb78; stroke-opacity: 0.8; stroke-width: 2.025"/>
    </defs>
    <g clip-path="url(#pfa8550e0f8)">
     <use xlink:href="#m0f90a2ee28" x="468.48" y="369.813499" style="fill: #ffbb78; fill-opacity: 0.8; stroke: #ffbb78; stroke-opacity: 0.8; stroke-width: 2.025"/>
     <use xlink:href="#m0f90a2ee28" x="944.64" y="432.615575" style="fill: #ffbb78; fill-opacity: 0.8; stroke: #ffbb78; stroke-opacity: 0.8; stroke-width: 2.025"/>
     <use xlink:href="#m0f90a2ee28" x="1420.8" y="582.95544" style="fill: #ffbb78; fill-opacity: 0.8; stroke: #ffbb78; stroke-opacity: 0.8; stroke-width: 2.025"/>
    </g>
   </g>
   <g id="line2d_25">
    <path d="M 444.672 429.026988 
L 492.288 429.026988 
M 468.48 429.026988 
L 468.48 307.756971 
M 444.672 307.756971 
L 492.288 307.756971 
" clip-path="url(#pfa8550e0f8)" style="fill: none; stroke: #ffbb78; stroke-opacity: 0.8; stroke-width: 2.7; stroke-linecap: square"/>
   </g>
   <g id="line2d_26">
    <path d="M 920.832 486.146984 
L 968.448 486.146984 
M 944.64 486.146984 
L 944.64 378.6241 
M 920.832 378.6241 
L 968.448 378.6241 
" clip-path="url(#pfa8550e0f8)" style="fill: none; stroke: #ffbb78; stroke-opacity: 0.8; stroke-width: 2.7; stroke-linecap: square"/>
   </g>
   <g id="line2d_27">
    <path d="M 1396.992 639.092544 
L 1444.608 639.092544 
M 1420.8 639.092544 
L 1420.8 529.792097 
M 1396.992 529.792097 
L 1444.608 529.792097 
" clip-path="url(#pfa8550e0f8)" style="fill: none; stroke: #ffbb78; stroke-opacity: 0.8; stroke-width: 2.7; stroke-linecap: square"/>
   </g>
   <g id="line2d_28">
    <path d="M 468.48 227.553953 
L 944.64 326.78636 
L 1420.8 346.982269 
" clip-path="url(#pfa8550e0f8)" style="fill: none; stroke: #2ca02c; stroke-opacity: 0.8; stroke-width: 2.7; stroke-linecap: square"/>
    <defs>
     <path id="mfa970640f5" d="M 0 3.383948 
C 0.897434 3.383948 1.758231 3.027394 2.392813 2.392813 
C 3.027394 1.758231 3.383948 0.897434 3.383948 0 
C 3.383948 -0.897434 3.027394 -1.758231 2.392813 -2.392813 
C 1.758231 -3.027394 0.897434 -3.383948 0 -3.383948 
C -0.897434 -3.383948 -1.758231 -3.027394 -2.392813 -2.392813 
C -3.027394 -1.758231 -3.383948 -0.897434 -3.383948 0 
C -3.383948 0.897434 -3.027394 1.758231 -2.392813 2.392813 
C -1.758231 3.027394 -0.897434 3.383948 0 3.383948 
z
" style="stroke: #2ca02c; stroke-opacity: 0.8; stroke-width: 2.025"/>
    </defs>
    <g clip-path="url(#pfa8550e0f8)">
     <use xlink:href="#mfa970640f5" x="468.48" y="227.553953" style="fill: #2ca02c; fill-opacity: 0.8; stroke: #2ca02c; stroke-opacity: 0.8; stroke-width: 2.025"/>
     <use xlink:href="#mfa970640f5" x="944.64" y="326.78636" style="fill: #2ca02c; fill-opacity: 0.8; stroke: #2ca02c; stroke-opacity: 0.8; stroke-width: 2.025"/>
     <use xlink:href="#mfa970640f5" x="1420.8" y="346.982269" style="fill: #2ca02c; fill-opacity: 0.8; stroke: #2ca02c; stroke-opacity: 0.8; stroke-width: 2.025"/>
    </g>
   </g>
   <g id="line2d_29">
    <path d="M 444.672 264.255525 
L 492.288 264.255525 
M 468.48 264.255525 
L 468.48 188.304557 
M 444.672 188.304557 
L 492.288 188.304557 
" clip-path="url(#pfa8550e0f8)" style="fill: none; stroke: #2ca02c; stroke-opacity: 0.8; stroke-width: 2.7; stroke-linecap: square"/>
   </g>
   <g id="line2d_30">
    <path d="M 920.832 365.113665 
L 968.448 365.113665 
M 944.64 365.113665 
L 944.64 283.68408 
M 920.832 283.68408 
L 968.448 283.68408 
" clip-path="url(#pfa8550e0f8)" style="fill: none; stroke: #2ca02c; stroke-opacity: 0.8; stroke-width: 2.7; stroke-linecap: square"/>
   </g>
   <g id="line2d_31">
    <path d="M 1396.992 385.455872 
L 1444.608 385.455872 
M 1420.8 385.455872 
L 1420.8 307.570668 
M 1396.992 307.570668 
L 1444.608 307.570668 
" clip-path="url(#pfa8550e0f8)" style="fill: none; stroke: #2ca02c; stroke-opacity: 0.8; stroke-width: 2.7; stroke-linecap: square"/>
   </g>
   <g id="line2d_32">
    <path d="M 468.48 440.091931 
L 944.64 499.144264 
L 1420.8 513.78251 
" clip-path="url(#pfa8550e0f8)" style="fill: none; stroke: #98df8a; stroke-opacity: 0.8; stroke-width: 2.7; stroke-linecap: square"/>
    <defs>
     <path id="mb4b809a072" d="M 0 3.383948 
C 0.897434 3.383948 1.758231 3.027394 2.392813 2.392813 
C 3.027394 1.758231 3.383948 0.897434 3.383948 0 
C 3.383948 -0.897434 3.027394 -1.758231 2.392813 -2.392813 
C 1.758231 -3.027394 0.897434 -3.383948 0 -3.383948 
C -0.897434 -3.383948 -1.758231 -3.027394 -2.392813 -2.392813 
C -3.027394 -1.758231 -3.383948 -0.897434 -3.383948 0 
C -3.383948 0.897434 -3.027394 1.758231 -2.392813 2.392813 
C -1.758231 3.027394 -0.897434 3.383948 0 3.383948 
z
" style="stroke: #98df8a; stroke-opacity: 0.8; stroke-width: 2.025"/>
    </defs>
    <g clip-path="url(#pfa8550e0f8)">
     <use xlink:href="#mb4b809a072" x="468.48" y="440.091931" style="fill: #98df8a; fill-opacity: 0.8; stroke: #98df8a; stroke-opacity: 0.8; stroke-width: 2.025"/>
     <use xlink:href="#mb4b809a072" x="944.64" y="499.144264" style="fill: #98df8a; fill-opacity: 0.8; stroke: #98df8a; stroke-opacity: 0.8; stroke-width: 2.025"/>
     <use xlink:href="#mb4b809a072" x="1420.8" y="513.78251" style="fill: #98df8a; fill-opacity: 0.8; stroke: #98df8a; stroke-opacity: 0.8; stroke-width: 2.025"/>
    </g>
   </g>
   <g id="line2d_33">
    <path d="M 444.672 485.732692 
L 492.288 485.732692 
M 468.48 485.732692 
L 468.48 397.239933 
M 444.672 397.239933 
L 492.288 397.239933 
" clip-path="url(#pfa8550e0f8)" style="fill: none; stroke: #98df8a; stroke-opacity: 0.8; stroke-width: 2.7; stroke-linecap: square"/>
   </g>
   <g id="line2d_34">
    <path d="M 920.832 553.020674 
L 968.448 553.020674 
M 944.64 553.020674 
L 944.64 446.53767 
M 920.832 446.53767 
L 968.448 446.53767 
" clip-path="url(#pfa8550e0f8)" style="fill: none; stroke: #98df8a; stroke-opacity: 0.8; stroke-width: 2.7; stroke-linecap: square"/>
   </g>
   <g id="line2d_35">
    <path d="M 1396.992 567.489544 
L 1444.608 567.489544 
M 1420.8 567.489544 
L 1420.8 460.914279 
M 1396.992 460.914279 
L 1444.608 460.914279 
" clip-path="url(#pfa8550e0f8)" style="fill: none; stroke: #98df8a; stroke-opacity: 0.8; stroke-width: 2.7; stroke-linecap: square"/>
   </g>
   <g id="line2d_36">
    <path d="M 468.48 402.478939 
L 944.64 432.338031 
L 1420.8 467.119533 
" clip-path="url(#pfa8550e0f8)" style="fill: none; stroke: #d62728; stroke-opacity: 0.8; stroke-width: 2.7; stroke-linecap: square"/>
    <defs>
     <path id="m1de43fd6e1" d="M 0 3.383948 
C 0.897434 3.383948 1.758231 3.027394 2.392813 2.392813 
C 3.027394 1.758231 3.383948 0.897434 3.383948 0 
C 3.383948 -0.897434 3.027394 -1.758231 2.392813 -2.392813 
C 1.758231 -3.027394 0.897434 -3.383948 0 -3.383948 
C -0.897434 -3.383948 -1.758231 -3.027394 -2.392813 -2.392813 
C -3.027394 -1.758231 -3.383948 -0.897434 -3.383948 0 
C -3.383948 0.897434 -3.027394 1.758231 -2.392813 2.392813 
C -1.758231 3.027394 -0.897434 3.383948 0 3.383948 
z
" style="stroke: #d62728; stroke-opacity: 0.8; stroke-width: 2.025"/>
    </defs>
    <g clip-path="url(#pfa8550e0f8)">
     <use xlink:href="#m1de43fd6e1" x="468.48" y="402.478939" style="fill: #d62728; fill-opacity: 0.8; stroke: #d62728; stroke-opacity: 0.8; stroke-width: 2.025"/>
     <use xlink:href="#m1de43fd6e1" x="944.64" y="432.338031" style="fill: #d62728; fill-opacity: 0.8; stroke: #d62728; stroke-opacity: 0.8; stroke-width: 2.025"/>
     <use xlink:href="#m1de43fd6e1" x="1420.8" y="467.119533" style="fill: #d62728; fill-opacity: 0.8; stroke: #d62728; stroke-opacity: 0.8; stroke-width: 2.025"/>
    </g>
   </g>
   <g id="line2d_37">
    <path d="M 444.672 454.677589 
L 492.288 454.677589 
M 468.48 454.677589 
L 468.48 350.043135 
M 444.672 350.043135 
L 492.288 350.043135 
" clip-path="url(#pfa8550e0f8)" style="fill: none; stroke: #d62728; stroke-opacity: 0.8; stroke-width: 2.7; stroke-linecap: square"/>
   </g>
   <g id="line2d_38">
    <path d="M 920.832 487.293389 
L 968.448 487.293389 
M 944.64 487.293389 
L 944.64 372.261006 
M 920.832 372.261006 
L 968.448 372.261006 
" clip-path="url(#pfa8550e0f8)" style="fill: none; stroke: #d62728; stroke-opacity: 0.8; stroke-width: 2.7; stroke-linecap: square"/>
   </g>
   <g id="line2d_39">
    <path d="M 1396.992 524.962515 
L 1444.608 524.962515 
M 1420.8 524.962515 
L 1420.8 412.475086 
M 1396.992 412.475086 
L 1444.608 412.475086 
" clip-path="url(#pfa8550e0f8)" style="fill: none; stroke: #d62728; stroke-opacity: 0.8; stroke-width: 2.7; stroke-linecap: square"/>
   </g>
   <g id="line2d_40">
    <path d="M 468.48 206.562845 
L 944.64 394.473843 
L 1420.8 490.041005 
" clip-path="url(#pfa8550e0f8)" style="fill: none; stroke: #ff9896; stroke-opacity: 0.8; stroke-width: 2.7; stroke-linecap: square"/>
    <defs>
     <path id="m71b55e4f53" d="M 0 3.383948 
C 0.897434 3.383948 1.758231 3.027394 2.392813 2.392813 
C 3.027394 1.758231 3.383948 0.897434 3.383948 0 
C 3.383948 -0.897434 3.027394 -1.758231 2.392813 -2.392813 
C 1.758231 -3.027394 0.897434 -3.383948 0 -3.383948 
C -0.897434 -3.383948 -1.758231 -3.027394 -2.392813 -2.392813 
C -3.027394 -1.758231 -3.383948 -0.897434 -3.383948 0 
C -3.383948 0.897434 -3.027394 1.758231 -2.392813 2.392813 
C -1.758231 3.027394 -0.897434 3.383948 0 3.383948 
z
" style="stroke: #ff9896; stroke-opacity: 0.8; stroke-width: 2.025"/>
    </defs>
    <g clip-path="url(#pfa8550e0f8)">
     <use xlink:href="#m71b55e4f53" x="468.48" y="206.562845" style="fill: #ff9896; fill-opacity: 0.8; stroke: #ff9896; stroke-opacity: 0.8; stroke-width: 2.025"/>
     <use xlink:href="#m71b55e4f53" x="944.64" y="394.473843" style="fill: #ff9896; fill-opacity: 0.8; stroke: #ff9896; stroke-opacity: 0.8; stroke-width: 2.025"/>
     <use xlink:href="#m71b55e4f53" x="1420.8" y="490.041005" style="fill: #ff9896; fill-opacity: 0.8; stroke: #ff9896; stroke-opacity: 0.8; stroke-width: 2.025"/>
    </g>
   </g>
   <g id="line2d_41">
    <path d="M 444.672 251.287617 
L 492.288 251.287617 
M 468.48 251.287617 
L 468.48 156.6864 
M 444.672 156.6864 
L 492.288 156.6864 
" clip-path="url(#pfa8550e0f8)" style="fill: none; stroke: #ff9896; stroke-opacity: 0.8; stroke-width: 2.7; stroke-linecap: square"/>
   </g>
   <g id="line2d_42">
    <path d="M 920.832 431.206775 
L 968.448 431.206775 
M 944.64 431.206775 
L 944.64 357.665804 
M 920.832 357.665804 
L 968.448 357.665804 
" clip-path="url(#pfa8550e0f8)" style="fill: none; stroke: #ff9896; stroke-opacity: 0.8; stroke-width: 2.7; stroke-linecap: square"/>
   </g>
   <g id="line2d_43">
    <path d="M 1396.992 526.314753 
L 1444.608 526.314753 
M 1420.8 526.314753 
L 1420.8 451.481575 
M 1396.992 451.481575 
L 1444.608 451.481575 
" clip-path="url(#pfa8550e0f8)" style="fill: none; stroke: #ff9896; stroke-opacity: 0.8; stroke-width: 2.7; stroke-linecap: square"/>
   </g>
   <g id="line2d_44">
    <path d="M 468.48 345.593119 
L 944.64 363.435986 
L 1420.8 404.105331 
" clip-path="url(#pfa8550e0f8)" style="fill: none; stroke: #9467bd; stroke-opacity: 0.8; stroke-width: 2.7; stroke-linecap: square"/>
    <defs>
     <path id="m679323c374" d="M 0 3.383948 
C 0.897434 3.383948 1.758231 3.027394 2.392813 2.392813 
C 3.027394 1.758231 3.383948 0.897434 3.383948 0 
C 3.383948 -0.897434 3.027394 -1.758231 2.392813 -2.392813 
C 1.758231 -3.027394 0.897434 -3.383948 0 -3.383948 
C -0.897434 -3.383948 -1.758231 -3.027394 -2.392813 -2.392813 
C -3.027394 -1.758231 -3.383948 -0.897434 -3.383948 0 
C -3.383948 0.897434 -3.027394 1.758231 -2.392813 2.392813 
C -1.758231 3.027394 -0.897434 3.383948 0 3.383948 
z
" style="stroke: #9467bd; stroke-opacity: 0.8; stroke-width: 2.025"/>
    </defs>
    <g clip-path="url(#pfa8550e0f8)">
     <use xlink:href="#m679323c374" x="468.48" y="345.593119" style="fill: #9467bd; fill-opacity: 0.8; stroke: #9467bd; stroke-opacity: 0.8; stroke-width: 2.025"/>
     <use xlink:href="#m679323c374" x="944.64" y="363.435986" style="fill: #9467bd; fill-opacity: 0.8; stroke: #9467bd; stroke-opacity: 0.8; stroke-width: 2.025"/>
     <use xlink:href="#m679323c374" x="1420.8" y="404.105331" style="fill: #9467bd; fill-opacity: 0.8; stroke: #9467bd; stroke-opacity: 0.8; stroke-width: 2.025"/>
    </g>
   </g>
   <g id="line2d_45">
    <path d="M 444.672 387.174842 
L 492.288 387.174842 
M 468.48 387.174842 
L 468.48 303.544826 
M 444.672 303.544826 
L 492.288 303.544826 
" clip-path="url(#pfa8550e0f8)" style="fill: none; stroke: #9467bd; stroke-opacity: 0.8; stroke-width: 2.7; stroke-linecap: square"/>
   </g>
   <g id="line2d_46">
    <path d="M 920.832 397.481122 
L 968.448 397.481122 
M 944.64 397.481122 
L 944.64 330.832107 
M 920.832 330.832107 
L 968.448 330.832107 
" clip-path="url(#pfa8550e0f8)" style="fill: none; stroke: #9467bd; stroke-opacity: 0.8; stroke-width: 2.7; stroke-linecap: square"/>
   </g>
   <g id="line2d_47">
    <path d="M 1396.992 439.608112 
L 1444.608 439.608112 
M 1420.8 439.608112 
L 1420.8 371.637264 
M 1396.992 371.637264 
L 1444.608 371.637264 
" clip-path="url(#pfa8550e0f8)" style="fill: none; stroke: #9467bd; stroke-opacity: 0.8; stroke-width: 2.7; stroke-linecap: square"/>
   </g>
   <g id="line2d_48">
    <path d="M 468.48 334.720447 
L 944.64 366.734014 
L 1420.8 404.2616 
" clip-path="url(#pfa8550e0f8)" style="fill: none; stroke: #c5b0d5; stroke-opacity: 0.8; stroke-width: 2.7; stroke-linecap: square"/>
    <defs>
     <path id="mb7fbded44e" d="M 0 3.383948 
C 0.897434 3.383948 1.758231 3.027394 2.392813 2.392813 
C 3.027394 1.758231 3.383948 0.897434 3.383948 0 
C 3.383948 -0.897434 3.027394 -1.758231 2.392813 -2.392813 
C 1.758231 -3.027394 0.897434 -3.383948 0 -3.383948 
C -0.897434 -3.383948 -1.758231 -3.027394 -2.392813 -2.392813 
C -3.027394 -1.758231 -3.383948 -0.897434 -3.383948 0 
C -3.383948 0.897434 -3.027394 1.758231 -2.392813 2.392813 
C -1.758231 3.027394 -0.897434 3.383948 0 3.383948 
z
" style="stroke: #c5b0d5; stroke-opacity: 0.8; stroke-width: 2.025"/>
    </defs>
    <g clip-path="url(#pfa8550e0f8)">
     <use xlink:href="#mb7fbded44e" x="468.48" y="334.720447" style="fill: #c5b0d5; fill-opacity: 0.8; stroke: #c5b0d5; stroke-opacity: 0.8; stroke-width: 2.025"/>
     <use xlink:href="#mb7fbded44e" x="944.64" y="366.734014" style="fill: #c5b0d5; fill-opacity: 0.8; stroke: #c5b0d5; stroke-opacity: 0.8; stroke-width: 2.025"/>
     <use xlink:href="#mb7fbded44e" x="1420.8" y="404.2616" style="fill: #c5b0d5; fill-opacity: 0.8; stroke: #c5b0d5; stroke-opacity: 0.8; stroke-width: 2.025"/>
    </g>
   </g>
   <g id="line2d_49">
    <path d="M 444.672 378.909733 
L 492.288 378.909733 
M 468.48 378.909733 
L 468.48 287.827447 
M 444.672 287.827447 
L 492.288 287.827447 
" clip-path="url(#pfa8550e0f8)" style="fill: none; stroke: #c5b0d5; stroke-opacity: 0.8; stroke-width: 2.7; stroke-linecap: square"/>
   </g>
   <g id="line2d_50">
    <path d="M 920.832 416.238024 
L 968.448 416.238024 
M 944.64 416.238024 
L 944.64 319.806301 
M 920.832 319.806301 
L 968.448 319.806301 
" clip-path="url(#pfa8550e0f8)" style="fill: none; stroke: #c5b0d5; stroke-opacity: 0.8; stroke-width: 2.7; stroke-linecap: square"/>
   </g>
   <g id="line2d_51">
    <path d="M 1396.992 456.732481 
L 1444.608 456.732481 
M 1420.8 456.732481 
L 1420.8 353.917985 
M 1396.992 353.917985 
L 1444.608 353.917985 
" clip-path="url(#pfa8550e0f8)" style="fill: none; stroke: #c5b0d5; stroke-opacity: 0.8; stroke-width: 2.7; stroke-linecap: square"/>
   </g>
   <g id="line2d_52">
    <path d="M 468.48 299.259359 
L 944.64 296.904287 
L 1420.8 274.116531 
" clip-path="url(#pfa8550e0f8)" style="fill: none; stroke: #8c564b; stroke-opacity: 0.8; stroke-width: 2.7; stroke-linecap: square"/>
    <defs>
     <path id="mdc37019811" d="M 0 3.383948 
C 0.897434 3.383948 1.758231 3.027394 2.392813 2.392813 
C 3.027394 1.758231 3.383948 0.897434 3.383948 0 
C 3.383948 -0.897434 3.027394 -1.758231 2.392813 -2.392813 
C 1.758231 -3.027394 0.897434 -3.383948 0 -3.383948 
C -0.897434 -3.383948 -1.758231 -3.027394 -2.392813 -2.392813 
C -3.027394 -1.758231 -3.383948 -0.897434 -3.383948 0 
C -3.383948 0.897434 -3.027394 1.758231 -2.392813 2.392813 
C -1.758231 3.027394 -0.897434 3.383948 0 3.383948 
z
" style="stroke: #8c564b; stroke-opacity: 0.8; stroke-width: 2.025"/>
    </defs>
    <g clip-path="url(#pfa8550e0f8)">
     <use xlink:href="#mdc37019811" x="468.48" y="299.259359" style="fill: #8c564b; fill-opacity: 0.8; stroke: #8c564b; stroke-opacity: 0.8; stroke-width: 2.025"/>
     <use xlink:href="#mdc37019811" x="944.64" y="296.904287" style="fill: #8c564b; fill-opacity: 0.8; stroke: #8c564b; stroke-opacity: 0.8; stroke-width: 2.025"/>
     <use xlink:href="#mdc37019811" x="1420.8" y="274.116531" style="fill: #8c564b; fill-opacity: 0.8; stroke: #8c564b; stroke-opacity: 0.8; stroke-width: 2.025"/>
    </g>
   </g>
   <g id="line2d_53">
    <path d="M 444.672 348.496057 
L 492.288 348.496057 
M 468.48 348.496057 
L 468.48 247.343102 
M 444.672 247.343102 
L 492.288 247.343102 
" clip-path="url(#pfa8550e0f8)" style="fill: none; stroke: #8c564b; stroke-opacity: 0.8; stroke-width: 2.7; stroke-linecap: square"/>
   </g>
   <g id="line2d_54">
    <path d="M 920.832 329.196435 
L 968.448 329.196435 
M 944.64 329.196435 
L 944.64 256.506323 
M 920.832 256.506323 
L 968.448 256.506323 
" clip-path="url(#pfa8550e0f8)" style="fill: none; stroke: #8c564b; stroke-opacity: 0.8; stroke-width: 2.7; stroke-linecap: square"/>
   </g>
   <g id="line2d_55">
    <path d="M 1396.992 314.554696 
L 1444.608 314.554696 
M 1420.8 314.554696 
L 1420.8 235.354276 
M 1396.992 235.354276 
L 1444.608 235.354276 
" clip-path="url(#pfa8550e0f8)" style="fill: none; stroke: #8c564b; stroke-opacity: 0.8; stroke-width: 2.7; stroke-linecap: square"/>
   </g>
   <g id="line2d_56">
    <path d="M 468.48 309.770196 
L 944.64 347.490974 
L 1420.8 362.47862 
" clip-path="url(#pfa8550e0f8)" style="fill: none; stroke: #c49c94; stroke-opacity: 0.8; stroke-width: 2.7; stroke-linecap: square"/>
    <defs>
     <path id="m4d06dae4cd" d="M 0 3.383948 
C 0.897434 3.383948 1.758231 3.027394 2.392813 2.392813 
C 3.027394 1.758231 3.383948 0.897434 3.383948 0 
C 3.383948 -0.897434 3.027394 -1.758231 2.392813 -2.392813 
C 1.758231 -3.027394 0.897434 -3.383948 0 -3.383948 
C -0.897434 -3.383948 -1.758231 -3.027394 -2.392813 -2.392813 
C -3.027394 -1.758231 -3.383948 -0.897434 -3.383948 0 
C -3.383948 0.897434 -3.027394 1.758231 -2.392813 2.392813 
C -1.758231 3.027394 -0.897434 3.383948 0 3.383948 
z
" style="stroke: #c49c94; stroke-opacity: 0.8; stroke-width: 2.025"/>
    </defs>
    <g clip-path="url(#pfa8550e0f8)">
     <use xlink:href="#m4d06dae4cd" x="468.48" y="309.770196" style="fill: #c49c94; fill-opacity: 0.8; stroke: #c49c94; stroke-opacity: 0.8; stroke-width: 2.025"/>
     <use xlink:href="#m4d06dae4cd" x="944.64" y="347.490974" style="fill: #c49c94; fill-opacity: 0.8; stroke: #c49c94; stroke-opacity: 0.8; stroke-width: 2.025"/>
     <use xlink:href="#m4d06dae4cd" x="1420.8" y="362.47862" style="fill: #c49c94; fill-opacity: 0.8; stroke: #c49c94; stroke-opacity: 0.8; stroke-width: 2.025"/>
    </g>
   </g>
   <g id="line2d_57">
    <path d="M 444.672 358.93171 
L 492.288 358.93171 
M 468.48 358.93171 
L 468.48 258.026397 
M 444.672 258.026397 
L 492.288 258.026397 
" clip-path="url(#pfa8550e0f8)" style="fill: none; stroke: #c49c94; stroke-opacity: 0.8; stroke-width: 2.7; stroke-linecap: square"/>
   </g>
   <g id="line2d_58">
    <path d="M 920.832 390.824871 
L 968.448 390.824871 
M 944.64 390.824871 
L 944.64 300.917351 
M 920.832 300.917351 
L 968.448 300.917351 
" clip-path="url(#pfa8550e0f8)" style="fill: none; stroke: #c49c94; stroke-opacity: 0.8; stroke-width: 2.7; stroke-linecap: square"/>
   </g>
   <g id="line2d_59">
    <path d="M 1396.992 418.041657 
L 1444.608 418.041657 
M 1420.8 418.041657 
L 1420.8 305.71677 
M 1396.992 305.71677 
L 1444.608 305.71677 
" clip-path="url(#pfa8550e0f8)" style="fill: none; stroke: #c49c94; stroke-opacity: 0.8; stroke-width: 2.7; stroke-linecap: square"/>
   </g>
   <g id="line2d_60">
    <path d="M 468.48 338.485875 
L 944.64 453.902716 
L 1420.8 449.602646 
" clip-path="url(#pfa8550e0f8)" style="fill: none; stroke: #e377c2; stroke-opacity: 0.8; stroke-width: 2.7; stroke-linecap: square"/>
    <defs>
     <path id="m62878874ac" d="M 0 3.383948 
C 0.897434 3.383948 1.758231 3.027394 2.392813 2.392813 
C 3.027394 1.758231 3.383948 0.897434 3.383948 0 
C 3.383948 -0.897434 3.027394 -1.758231 2.392813 -2.392813 
C 1.758231 -3.027394 0.897434 -3.383948 0 -3.383948 
C -0.897434 -3.383948 -1.758231 -3.027394 -2.392813 -2.392813 
C -3.027394 -1.758231 -3.383948 -0.897434 -3.383948 0 
C -3.383948 0.897434 -3.027394 1.758231 -2.392813 2.392813 
C -1.758231 3.027394 -0.897434 3.383948 0 3.383948 
z
" style="stroke: #e377c2; stroke-opacity: 0.8; stroke-width: 2.025"/>
    </defs>
    <g clip-path="url(#pfa8550e0f8)">
     <use xlink:href="#m62878874ac" x="468.48" y="338.485875" style="fill: #e377c2; fill-opacity: 0.8; stroke: #e377c2; stroke-opacity: 0.8; stroke-width: 2.025"/>
     <use xlink:href="#m62878874ac" x="944.64" y="453.902716" style="fill: #e377c2; fill-opacity: 0.8; stroke: #e377c2; stroke-opacity: 0.8; stroke-width: 2.025"/>
     <use xlink:href="#m62878874ac" x="1420.8" y="449.602646" style="fill: #e377c2; fill-opacity: 0.8; stroke: #e377c2; stroke-opacity: 0.8; stroke-width: 2.025"/>
    </g>
   </g>
   <g id="line2d_61">
    <path d="M 444.672 374.925438 
L 492.288 374.925438 
M 468.48 374.925438 
L 468.48 303.567686 
M 444.672 303.567686 
L 492.288 303.567686 
" clip-path="url(#pfa8550e0f8)" style="fill: none; stroke: #e377c2; stroke-opacity: 0.8; stroke-width: 2.7; stroke-linecap: square"/>
   </g>
   <g id="line2d_62">
    <path d="M 920.832 485.940319 
L 968.448 485.940319 
M 944.64 485.940319 
L 944.64 421.485368 
M 920.832 421.485368 
L 968.448 421.485368 
" clip-path="url(#pfa8550e0f8)" style="fill: none; stroke: #e377c2; stroke-opacity: 0.8; stroke-width: 2.7; stroke-linecap: square"/>
   </g>
   <g id="line2d_63">
    <path d="M 1396.992 483.860455 
L 1444.608 483.860455 
M 1420.8 483.860455 
L 1420.8 416.634379 
M 1396.992 416.634379 
L 1444.608 416.634379 
" clip-path="url(#pfa8550e0f8)" style="fill: none; stroke: #e377c2; stroke-opacity: 0.8; stroke-width: 2.7; stroke-linecap: square"/>
   </g>
   <g id="line2d_64">
    <path d="M 468.48 549.365575 
L 944.64 529.426362 
L 1420.8 776.324344 
" clip-path="url(#pfa8550e0f8)" style="fill: none; stroke: #f7b6d2; stroke-opacity: 0.8; stroke-width: 2.7; stroke-linecap: square"/>
    <defs>
     <path id="m5f05d07072" d="M 0 3.383948 
C 0.897434 3.383948 1.758231 3.027394 2.392813 2.392813 
C 3.027394 1.758231 3.383948 0.897434 3.383948 0 
C 3.383948 -0.897434 3.027394 -1.758231 2.392813 -2.392813 
C 1.758231 -3.027394 0.897434 -3.383948 0 -3.383948 
C -0.897434 -3.383948 -1.758231 -3.027394 -2.392813 -2.392813 
C -3.027394 -1.758231 -3.383948 -0.897434 -3.383948 0 
C -3.383948 0.897434 -3.027394 1.758231 -2.392813 2.392813 
C -1.758231 3.027394 -0.897434 3.383948 0 3.383948 
z
" style="stroke: #f7b6d2; stroke-opacity: 0.8; stroke-width: 2.025"/>
    </defs>
    <g clip-path="url(#pfa8550e0f8)">
     <use xlink:href="#m5f05d07072" x="468.48" y="549.365575" style="fill: #f7b6d2; fill-opacity: 0.8; stroke: #f7b6d2; stroke-opacity: 0.8; stroke-width: 2.025"/>
     <use xlink:href="#m5f05d07072" x="944.64" y="529.426362" style="fill: #f7b6d2; fill-opacity: 0.8; stroke: #f7b6d2; stroke-opacity: 0.8; stroke-width: 2.025"/>
     <use xlink:href="#m5f05d07072" x="1420.8" y="776.324344" style="fill: #f7b6d2; fill-opacity: 0.8; stroke: #f7b6d2; stroke-opacity: 0.8; stroke-width: 2.025"/>
    </g>
   </g>
   <g id="line2d_65">
    <path d="M 444.672 590.333092 
L 492.288 590.333092 
M 468.48 590.333092 
L 468.48 509.148626 
M 444.672 509.148626 
L 492.288 509.148626 
" clip-path="url(#pfa8550e0f8)" style="fill: none; stroke: #f7b6d2; stroke-opacity: 0.8; stroke-width: 2.7; stroke-linecap: square"/>
   </g>
   <g id="line2d_66">
    <path d="M 920.832 581.384508 
L 968.448 581.384508 
M 944.64 581.384508 
L 944.64 478.896558 
M 920.832 478.896558 
L 968.448 478.896558 
" clip-path="url(#pfa8550e0f8)" style="fill: none; stroke: #f7b6d2; stroke-opacity: 0.8; stroke-width: 2.7; stroke-linecap: square"/>
   </g>
   <g id="line2d_67">
    <path d="M 1396.992 837.481088 
L 1444.608 837.481088 
M 1420.8 837.481088 
L 1420.8 718.329552 
M 1396.992 718.329552 
L 1444.608 718.329552 
" clip-path="url(#pfa8550e0f8)" style="fill: none; stroke: #f7b6d2; stroke-opacity: 0.8; stroke-width: 2.7; stroke-linecap: square"/>
   </g>
   <g id="line2d_68">
    <path d="M 468.48 381.670386 
L 944.64 377.556432 
L 1420.8 433.27261 
" clip-path="url(#pfa8550e0f8)" style="fill: none; stroke: #7f7f7f; stroke-opacity: 0.8; stroke-width: 2.7; stroke-linecap: square"/>
    <defs>
     <path id="m1fe70da450" d="M 0 3.383948 
C 0.897434 3.383948 1.758231 3.027394 2.392813 2.392813 
C 3.027394 1.758231 3.383948 0.897434 3.383948 0 
C 3.383948 -0.897434 3.027394 -1.758231 2.392813 -2.392813 
C 1.758231 -3.027394 0.897434 -3.383948 0 -3.383948 
C -0.897434 -3.383948 -1.758231 -3.027394 -2.392813 -2.392813 
C -3.027394 -1.758231 -3.383948 -0.897434 -3.383948 0 
C -3.383948 0.897434 -3.027394 1.758231 -2.392813 2.392813 
C -1.758231 3.027394 -0.897434 3.383948 0 3.383948 
z
" style="stroke: #7f7f7f; stroke-opacity: 0.8; stroke-width: 2.025"/>
    </defs>
    <g clip-path="url(#pfa8550e0f8)">
     <use xlink:href="#m1fe70da450" x="468.48" y="381.670386" style="fill: #7f7f7f; fill-opacity: 0.8; stroke: #7f7f7f; stroke-opacity: 0.8; stroke-width: 2.025"/>
     <use xlink:href="#m1fe70da450" x="944.64" y="377.556432" style="fill: #7f7f7f; fill-opacity: 0.8; stroke: #7f7f7f; stroke-opacity: 0.8; stroke-width: 2.025"/>
     <use xlink:href="#m1fe70da450" x="1420.8" y="433.27261" style="fill: #7f7f7f; fill-opacity: 0.8; stroke: #7f7f7f; stroke-opacity: 0.8; stroke-width: 2.025"/>
    </g>
   </g>
   <g id="line2d_69">
    <path d="M 444.672 443.214903 
L 492.288 443.214903 
M 468.48 443.214903 
L 468.48 322.520578 
M 444.672 322.520578 
L 492.288 322.520578 
" clip-path="url(#pfa8550e0f8)" style="fill: none; stroke: #7f7f7f; stroke-opacity: 0.8; stroke-width: 2.7; stroke-linecap: square"/>
   </g>
   <g id="line2d_70">
    <path d="M 920.832 438.398419 
L 968.448 438.398419 
M 944.64 438.398419 
L 944.64 319.57683 
M 920.832 319.57683 
L 968.448 319.57683 
" clip-path="url(#pfa8550e0f8)" style="fill: none; stroke: #7f7f7f; stroke-opacity: 0.8; stroke-width: 2.7; stroke-linecap: square"/>
   </g>
   <g id="line2d_71">
    <path d="M 1396.992 488.460872 
L 1444.608 488.460872 
M 1420.8 488.460872 
L 1420.8 380.200143 
M 1396.992 380.200143 
L 1444.608 380.200143 
" clip-path="url(#pfa8550e0f8)" style="fill: none; stroke: #7f7f7f; stroke-opacity: 0.8; stroke-width: 2.7; stroke-linecap: square"/>
   </g>
   <g id="line2d_72"/>
   <g id="line2d_73"/>
   <g id="line2d_74"/>
   <g id="line2d_75"/>
   <g id="line2d_76"/>
   <g id="line2d_77"/>
   <g id="line2d_78"/>
   <g id="line2d_79"/>
   <g id="line2d_80"/>
   <g id="line2d_81"/>
   <g id="line2d_82"/>
   <g id="line2d_83"/>
   <g id="line2d_84"/>
   <g id="line2d_85"/>
   <g id="line2d_86"/>
   <g id="patch_3">
    <path d="M 230.4 899.6832 
L 230.4 121.3056 
" style="fill: none; stroke: #000000; stroke-width: 0.8; stroke-linejoin: miter; stroke-linecap: square"/>
   </g>
   <g id="patch_4">
    <path d="M 1658.88 899.6832 
L 1658.88 121.3056 
" style="fill: none; stroke: #000000; stroke-width: 0.8; stroke-linejoin: miter; stroke-linecap: square"/>
   </g>
   <g id="patch_5">
    <path d="M 230.4 899.6832 
L 1658.88 899.6832 
" style="fill: none; stroke: #000000; stroke-width: 0.8; stroke-linejoin: miter; stroke-linecap: square"/>
   </g>
   <g id="patch_6">
    <path d="M 230.4 121.3056 
L 1658.88 121.3056 
" style="fill: none; stroke: #000000; stroke-width: 0.8; stroke-linejoin: miter; stroke-linecap: square"/>
   </g>
   <g id="text_14">
    <!-- ASEM Per Subject: Color Green -->
    <g transform="translate(713.759531 115.066538) scale(0.3 -0.3)">
     <defs>
      <path id="DejaVuSans-72" d="M 2631 2963 
Q 2534 3019 2420 3045 
Q 2306 3072 2169 3072 
Q 1681 3072 1420 2755 
Q 1159 2438 1159 1844 
L 1159 0 
L 581 0 
L 581 3500 
L 1159 3500 
L 1159 2956 
Q 1341 3275 1631 3429 
Q 1922 3584 2338 3584 
Q 2397 3584 2469 3576 
Q 2541 3569 2628 3553 
L 2631 2963 
z
" transform="scale(0.015625)"/>
      <path id="DejaVuSans-75" d="M 544 1381 
L 544 3500 
L 1119 3500 
L 1119 1403 
Q 1119 906 1312 657 
Q 1506 409 1894 409 
Q 2359 409 2629 706 
Q 2900 1003 2900 1516 
L 2900 3500 
L 3475 3500 
L 3475 0 
L 2900 0 
L 2900 538 
Q 2691 219 2414 64 
Q 2138 -91 1772 -91 
Q 1169 -91 856 284 
Q 544 659 544 1381 
z
M 1991 3584 
L 1991 3584 
z
" transform="scale(0.015625)"/>
      <path id="DejaVuSans-62" d="M 3116 1747 
Q 3116 2381 2855 2742 
Q 2594 3103 2138 3103 
Q 1681 3103 1420 2742 
Q 1159 2381 1159 1747 
Q 1159 1113 1420 752 
Q 1681 391 2138 391 
Q 2594 391 2855 752 
Q 3116 1113 3116 1747 
z
M 1159 2969 
Q 1341 3281 1617 3432 
Q 1894 3584 2278 3584 
Q 2916 3584 3314 3078 
Q 3713 2572 3713 1747 
Q 3713 922 3314 415 
Q 2916 -91 2278 -91 
Q 1894 -91 1617 61 
Q 1341 213 1159 525 
L 1159 0 
L 581 0 
L 581 4863 
L 1159 4863 
L 1159 2969 
z
" transform="scale(0.015625)"/>
      <path id="DejaVuSans-6a" d="M 603 3500 
L 1178 3500 
L 1178 -63 
Q 1178 -731 923 -1031 
Q 669 -1331 103 -1331 
L -116 -1331 
L -116 -844 
L 38 -844 
Q 366 -844 484 -692 
Q 603 -541 603 -63 
L 603 3500 
z
M 603 4863 
L 1178 4863 
L 1178 4134 
L 603 4134 
L 603 4863 
z
" transform="scale(0.015625)"/>
      <path id="DejaVuSans-63" d="M 3122 3366 
L 3122 2828 
Q 2878 2963 2633 3030 
Q 2388 3097 2138 3097 
Q 1578 3097 1268 2742 
Q 959 2388 959 1747 
Q 959 1106 1268 751 
Q 1578 397 2138 397 
Q 2388 397 2633 464 
Q 2878 531 3122 666 
L 3122 134 
Q 2881 22 2623 -34 
Q 2366 -91 2075 -91 
Q 1284 -91 818 406 
Q 353 903 353 1747 
Q 353 2603 823 3093 
Q 1294 3584 2113 3584 
Q 2378 3584 2631 3529 
Q 2884 3475 3122 3366 
z
" transform="scale(0.015625)"/>
      <path id="DejaVuSans-3a" d="M 750 794 
L 1409 794 
L 1409 0 
L 750 0 
L 750 794 
z
M 750 3309 
L 1409 3309 
L 1409 2516 
L 750 2516 
L 750 3309 
z
" transform="scale(0.015625)"/>
      <path id="DejaVuSans-43" d="M 4122 4306 
L 4122 3641 
Q 3803 3938 3442 4084 
Q 3081 4231 2675 4231 
Q 1875 4231 1450 3742 
Q 1025 3253 1025 2328 
Q 1025 1406 1450 917 
Q 1875 428 2675 428 
Q 3081 428 3442 575 
Q 3803 722 4122 1019 
L 4122 359 
Q 3791 134 3420 21 
Q 3050 -91 2638 -91 
Q 1578 -91 968 557 
Q 359 1206 359 2328 
Q 359 3453 968 4101 
Q 1578 4750 2638 4750 
Q 3056 4750 3426 4639 
Q 3797 4528 4122 4306 
z
" transform="scale(0.015625)"/>
      <path id="DejaVuSans-6f" d="M 1959 3097 
Q 1497 3097 1228 2736 
Q 959 2375 959 1747 
Q 959 1119 1226 758 
Q 1494 397 1959 397 
Q 2419 397 2687 759 
Q 2956 1122 2956 1747 
Q 2956 2369 2687 2733 
Q 2419 3097 1959 3097 
z
M 1959 3584 
Q 2709 3584 3137 3096 
Q 3566 2609 3566 1747 
Q 3566 888 3137 398 
Q 2709 -91 1959 -91 
Q 1206 -91 779 398 
Q 353 888 353 1747 
Q 353 2609 779 3096 
Q 1206 3584 1959 3584 
z
" transform="scale(0.015625)"/>
      <path id="DejaVuSans-6c" d="M 603 4863 
L 1178 4863 
L 1178 0 
L 603 0 
L 603 4863 
z
" transform="scale(0.015625)"/>
      <path id="DejaVuSans-6e" d="M 3513 2113 
L 3513 0 
L 2938 0 
L 2938 2094 
Q 2938 2591 2744 2837 
Q 2550 3084 2163 3084 
Q 1697 3084 1428 2787 
Q 1159 2491 1159 1978 
L 1159 0 
L 581 0 
L 581 3500 
L 1159 3500 
L 1159 2956 
Q 1366 3272 1645 3428 
Q 1925 3584 2291 3584 
Q 2894 3584 3203 3211 
Q 3513 2838 3513 2113 
z
" transform="scale(0.015625)"/>
     </defs>
     <use xlink:href="#DejaVuSans-41"/>
     <use xlink:href="#DejaVuSans-53" x="68.408203"/>
     <use xlink:href="#DejaVuSans-45" x="131.884766"/>
     <use xlink:href="#DejaVuSans-4d" x="195.068359"/>
     <use xlink:href="#DejaVuSans-20" x="281.347656"/>
     <use xlink:href="#DejaVuSans-50" x="313.134766"/>
     <use xlink:href="#DejaVuSans-65" x="369.8125"/>
     <use xlink:href="#DejaVuSans-72" x="431.335938"/>
     <use xlink:href="#DejaVuSans-20" x="472.449219"/>
     <use xlink:href="#DejaVuSans-53" x="504.236328"/>
     <use xlink:href="#DejaVuSans-75" x="567.712891"/>
     <use xlink:href="#DejaVuSans-62" x="631.091797"/>
     <use xlink:href="#DejaVuSans-6a" x="694.568359"/>
     <use xlink:href="#DejaVuSans-65" x="722.351562"/>
     <use xlink:href="#DejaVuSans-63" x="783.875"/>
     <use xlink:href="#DejaVuSans-74" x="838.855469"/>
     <use xlink:href="#DejaVuSans-3a" x="878.064453"/>
     <use xlink:href="#DejaVuSans-20" x="911.755859"/>
     <use xlink:href="#DejaVuSans-43" x="943.542969"/>
     <use xlink:href="#DejaVuSans-6f" x="1013.367188"/>
     <use xlink:href="#DejaVuSans-6c" x="1074.548828"/>
     <use xlink:href="#DejaVuSans-6f" x="1102.332031"/>
     <use xlink:href="#DejaVuSans-72" x="1163.513672"/>
     <use xlink:href="#DejaVuSans-20" x="1204.626953"/>
     <use xlink:href="#DejaVuSans-47" x="1236.414062"/>
     <use xlink:href="#DejaVuSans-72" x="1313.904297"/>
     <use xlink:href="#DejaVuSans-65" x="1352.767578"/>
     <use xlink:href="#DejaVuSans-65" x="1414.291016"/>
     <use xlink:href="#DejaVuSans-6e" x="1475.814453"/>
    </g>
   </g>
   <g id="legend_1">
    <g id="patch_7">
     <path d="M 1555.43 577.64935 
L 1644.88 577.64935 
Q 1648.88 577.64935 1648.88 573.64935 
L 1648.88 135.3056 
Q 1648.88 131.3056 1644.88 131.3056 
L 1555.43 131.3056 
Q 1551.43 131.3056 1551.43 135.3056 
L 1551.43 573.64935 
Q 1551.43 577.64935 1555.43 577.64935 
z
" style="fill: #ffffff; opacity: 0.8; stroke: #cccccc; stroke-linejoin: miter"/>
    </g>
    <g id="line2d_87">
     <path d="M 1559.43 147.502475 
L 1579.43 147.502475 
L 1599.43 147.502475 
" style="fill: none; stroke: #1f77b4; stroke-opacity: 0.8; stroke-width: 2.7; stroke-linecap: square"/>
     <g>
      <use xlink:href="#mb147902a40" x="1579.43" y="147.502475" style="fill: #1f77b4; fill-opacity: 0.8; stroke: #1f77b4; stroke-opacity: 0.8; stroke-width: 2.025"/>
     </g>
    </g>
    <g id="text_15">
     <!-- 1 -->
     <g transform="translate(1615.43 154.502475) scale(0.2 -0.2)">
      <use xlink:href="#DejaVuSans-31"/>
     </g>
    </g>
    <g id="line2d_88">
     <path d="M 1559.43 176.858725 
L 1579.43 176.858725 
L 1599.43 176.858725 
" style="fill: none; stroke: #aec7e8; stroke-opacity: 0.8; stroke-width: 2.7; stroke-linecap: square"/>
     <g>
      <use xlink:href="#m9a8bf0963c" x="1579.43" y="176.858725" style="fill: #aec7e8; fill-opacity: 0.8; stroke: #aec7e8; stroke-opacity: 0.8; stroke-width: 2.025"/>
     </g>
    </g>
    <g id="text_16">
     <!-- 2 -->
     <g transform="translate(1615.43 183.858725) scale(0.2 -0.2)">
      <use xlink:href="#DejaVuSans-32"/>
     </g>
    </g>
    <g id="line2d_89">
     <path d="M 1559.43 206.214975 
L 1579.43 206.214975 
L 1599.43 206.214975 
" style="fill: none; stroke: #ff7f0e; stroke-opacity: 0.8; stroke-width: 2.7; stroke-linecap: square"/>
     <g>
      <use xlink:href="#m5a5902cbe5" x="1579.43" y="206.214975" style="fill: #ff7f0e; fill-opacity: 0.8; stroke: #ff7f0e; stroke-opacity: 0.8; stroke-width: 2.025"/>
     </g>
    </g>
    <g id="text_17">
     <!-- 3 -->
     <g transform="translate(1615.43 213.214975) scale(0.2 -0.2)">
      <defs>
       <path id="DejaVuSans-33" d="M 2597 2516 
Q 3050 2419 3304 2112 
Q 3559 1806 3559 1356 
Q 3559 666 3084 287 
Q 2609 -91 1734 -91 
Q 1441 -91 1130 -33 
Q 819 25 488 141 
L 488 750 
Q 750 597 1062 519 
Q 1375 441 1716 441 
Q 2309 441 2620 675 
Q 2931 909 2931 1356 
Q 2931 1769 2642 2001 
Q 2353 2234 1838 2234 
L 1294 2234 
L 1294 2753 
L 1863 2753 
Q 2328 2753 2575 2939 
Q 2822 3125 2822 3475 
Q 2822 3834 2567 4026 
Q 2313 4219 1838 4219 
Q 1578 4219 1281 4162 
Q 984 4106 628 3988 
L 628 4550 
Q 988 4650 1302 4700 
Q 1616 4750 1894 4750 
Q 2613 4750 3031 4423 
Q 3450 4097 3450 3541 
Q 3450 3153 3228 2886 
Q 3006 2619 2597 2516 
z
" transform="scale(0.015625)"/>
      </defs>
      <use xlink:href="#DejaVuSans-33"/>
     </g>
    </g>
    <g id="line2d_90">
     <path d="M 1559.43 235.571225 
L 1579.43 235.571225 
L 1599.43 235.571225 
" style="fill: none; stroke: #ffbb78; stroke-opacity: 0.8; stroke-width: 2.7; stroke-linecap: square"/>
     <g>
      <use xlink:href="#m0f90a2ee28" x="1579.43" y="235.571225" style="fill: #ffbb78; fill-opacity: 0.8; stroke: #ffbb78; stroke-opacity: 0.8; stroke-width: 2.025"/>
     </g>
    </g>
    <g id="text_18">
     <!-- 4 -->
     <g transform="translate(1615.43 242.571225) scale(0.2 -0.2)">
      <defs>
       <path id="DejaVuSans-34" d="M 2419 4116 
L 825 1625 
L 2419 1625 
L 2419 4116 
z
M 2253 4666 
L 3047 4666 
L 3047 1625 
L 3713 1625 
L 3713 1100 
L 3047 1100 
L 3047 0 
L 2419 0 
L 2419 1100 
L 313 1100 
L 313 1709 
L 2253 4666 
z
" transform="scale(0.015625)"/>
      </defs>
      <use xlink:href="#DejaVuSans-34"/>
     </g>
    </g>
    <g id="line2d_91">
     <path d="M 1559.43 264.927475 
L 1579.43 264.927475 
L 1599.43 264.927475 
" style="fill: none; stroke: #2ca02c; stroke-opacity: 0.8; stroke-width: 2.7; stroke-linecap: square"/>
     <g>
      <use xlink:href="#mfa970640f5" x="1579.43" y="264.927475" style="fill: #2ca02c; fill-opacity: 0.8; stroke: #2ca02c; stroke-opacity: 0.8; stroke-width: 2.025"/>
     </g>
    </g>
    <g id="text_19">
     <!-- 5 -->
     <g transform="translate(1615.43 271.927475) scale(0.2 -0.2)">
      <use xlink:href="#DejaVuSans-35"/>
     </g>
    </g>
    <g id="line2d_92">
     <path d="M 1559.43 294.283725 
L 1579.43 294.283725 
L 1599.43 294.283725 
" style="fill: none; stroke: #98df8a; stroke-opacity: 0.8; stroke-width: 2.7; stroke-linecap: square"/>
     <g>
      <use xlink:href="#mb4b809a072" x="1579.43" y="294.283725" style="fill: #98df8a; fill-opacity: 0.8; stroke: #98df8a; stroke-opacity: 0.8; stroke-width: 2.025"/>
     </g>
    </g>
    <g id="text_20">
     <!-- 6 -->
     <g transform="translate(1615.43 301.283725) scale(0.2 -0.2)">
      <defs>
       <path id="DejaVuSans-36" d="M 2113 2584 
Q 1688 2584 1439 2293 
Q 1191 2003 1191 1497 
Q 1191 994 1439 701 
Q 1688 409 2113 409 
Q 2538 409 2786 701 
Q 3034 994 3034 1497 
Q 3034 2003 2786 2293 
Q 2538 2584 2113 2584 
z
M 3366 4563 
L 3366 3988 
Q 3128 4100 2886 4159 
Q 2644 4219 2406 4219 
Q 1781 4219 1451 3797 
Q 1122 3375 1075 2522 
Q 1259 2794 1537 2939 
Q 1816 3084 2150 3084 
Q 2853 3084 3261 2657 
Q 3669 2231 3669 1497 
Q 3669 778 3244 343 
Q 2819 -91 2113 -91 
Q 1303 -91 875 529 
Q 447 1150 447 2328 
Q 447 3434 972 4092 
Q 1497 4750 2381 4750 
Q 2619 4750 2861 4703 
Q 3103 4656 3366 4563 
z
" transform="scale(0.015625)"/>
      </defs>
      <use xlink:href="#DejaVuSans-36"/>
     </g>
    </g>
    <g id="line2d_93">
     <path d="M 1559.43 323.639975 
L 1579.43 323.639975 
L 1599.43 323.639975 
" style="fill: none; stroke: #d62728; stroke-opacity: 0.8; stroke-width: 2.7; stroke-linecap: square"/>
     <g>
      <use xlink:href="#m1de43fd6e1" x="1579.43" y="323.639975" style="fill: #d62728; fill-opacity: 0.8; stroke: #d62728; stroke-opacity: 0.8; stroke-width: 2.025"/>
     </g>
    </g>
    <g id="text_21">
     <!-- 7 -->
     <g transform="translate(1615.43 330.639975) scale(0.2 -0.2)">
      <use xlink:href="#DejaVuSans-37"/>
     </g>
    </g>
    <g id="line2d_94">
     <path d="M 1559.43 352.996225 
L 1579.43 352.996225 
L 1599.43 352.996225 
" style="fill: none; stroke: #ff9896; stroke-opacity: 0.8; stroke-width: 2.7; stroke-linecap: square"/>
     <g>
      <use xlink:href="#m71b55e4f53" x="1579.43" y="352.996225" style="fill: #ff9896; fill-opacity: 0.8; stroke: #ff9896; stroke-opacity: 0.8; stroke-width: 2.025"/>
     </g>
    </g>
    <g id="text_22">
     <!-- 8 -->
     <g transform="translate(1615.43 359.996225) scale(0.2 -0.2)">
      <defs>
       <path id="DejaVuSans-38" d="M 2034 2216 
Q 1584 2216 1326 1975 
Q 1069 1734 1069 1313 
Q 1069 891 1326 650 
Q 1584 409 2034 409 
Q 2484 409 2743 651 
Q 3003 894 3003 1313 
Q 3003 1734 2745 1975 
Q 2488 2216 2034 2216 
z
M 1403 2484 
Q 997 2584 770 2862 
Q 544 3141 544 3541 
Q 544 4100 942 4425 
Q 1341 4750 2034 4750 
Q 2731 4750 3128 4425 
Q 3525 4100 3525 3541 
Q 3525 3141 3298 2862 
Q 3072 2584 2669 2484 
Q 3125 2378 3379 2068 
Q 3634 1759 3634 1313 
Q 3634 634 3220 271 
Q 2806 -91 2034 -91 
Q 1263 -91 848 271 
Q 434 634 434 1313 
Q 434 1759 690 2068 
Q 947 2378 1403 2484 
z
M 1172 3481 
Q 1172 3119 1398 2916 
Q 1625 2713 2034 2713 
Q 2441 2713 2670 2916 
Q 2900 3119 2900 3481 
Q 2900 3844 2670 4047 
Q 2441 4250 2034 4250 
Q 1625 4250 1398 4047 
Q 1172 3844 1172 3481 
z
" transform="scale(0.015625)"/>
      </defs>
      <use xlink:href="#DejaVuSans-38"/>
     </g>
    </g>
    <g id="line2d_95">
     <path d="M 1559.43 382.352475 
L 1579.43 382.352475 
L 1599.43 382.352475 
" style="fill: none; stroke: #9467bd; stroke-opacity: 0.8; stroke-width: 2.7; stroke-linecap: square"/>
     <g>
      <use xlink:href="#m679323c374" x="1579.43" y="382.352475" style="fill: #9467bd; fill-opacity: 0.8; stroke: #9467bd; stroke-opacity: 0.8; stroke-width: 2.025"/>
     </g>
    </g>
    <g id="text_23">
     <!-- 10 -->
     <g transform="translate(1615.43 389.352475) scale(0.2 -0.2)">
      <use xlink:href="#DejaVuSans-31"/>
      <use xlink:href="#DejaVuSans-30" x="63.623047"/>
     </g>
    </g>
    <g id="line2d_96">
     <path d="M 1559.43 411.708725 
L 1579.43 411.708725 
L 1599.43 411.708725 
" style="fill: none; stroke: #c5b0d5; stroke-opacity: 0.8; stroke-width: 2.7; stroke-linecap: square"/>
     <g>
      <use xlink:href="#mb7fbded44e" x="1579.43" y="411.708725" style="fill: #c5b0d5; fill-opacity: 0.8; stroke: #c5b0d5; stroke-opacity: 0.8; stroke-width: 2.025"/>
     </g>
    </g>
    <g id="text_24">
     <!-- 11 -->
     <g transform="translate(1615.43 418.708725) scale(0.2 -0.2)">
      <use xlink:href="#DejaVuSans-31"/>
      <use xlink:href="#DejaVuSans-31" x="63.623047"/>
     </g>
    </g>
    <g id="line2d_97">
     <path d="M 1559.43 441.064975 
L 1579.43 441.064975 
L 1599.43 441.064975 
" style="fill: none; stroke: #8c564b; stroke-opacity: 0.8; stroke-width: 2.7; stroke-linecap: square"/>
     <g>
      <use xlink:href="#mdc37019811" x="1579.43" y="441.064975" style="fill: #8c564b; fill-opacity: 0.8; stroke: #8c564b; stroke-opacity: 0.8; stroke-width: 2.025"/>
     </g>
    </g>
    <g id="text_25">
     <!-- 12 -->
     <g transform="translate(1615.43 448.064975) scale(0.2 -0.2)">
      <use xlink:href="#DejaVuSans-31"/>
      <use xlink:href="#DejaVuSans-32" x="63.623047"/>
     </g>
    </g>
    <g id="line2d_98">
     <path d="M 1559.43 470.421225 
L 1579.43 470.421225 
L 1599.43 470.421225 
" style="fill: none; stroke: #c49c94; stroke-opacity: 0.8; stroke-width: 2.7; stroke-linecap: square"/>
     <g>
      <use xlink:href="#m4d06dae4cd" x="1579.43" y="470.421225" style="fill: #c49c94; fill-opacity: 0.8; stroke: #c49c94; stroke-opacity: 0.8; stroke-width: 2.025"/>
     </g>
    </g>
    <g id="text_26">
     <!-- 13 -->
     <g transform="translate(1615.43 477.421225) scale(0.2 -0.2)">
      <use xlink:href="#DejaVuSans-31"/>
      <use xlink:href="#DejaVuSans-33" x="63.623047"/>
     </g>
    </g>
    <g id="line2d_99">
     <path d="M 1559.43 499.777475 
L 1579.43 499.777475 
L 1599.43 499.777475 
" style="fill: none; stroke: #e377c2; stroke-opacity: 0.8; stroke-width: 2.7; stroke-linecap: square"/>
     <g>
      <use xlink:href="#m62878874ac" x="1579.43" y="499.777475" style="fill: #e377c2; fill-opacity: 0.8; stroke: #e377c2; stroke-opacity: 0.8; stroke-width: 2.025"/>
     </g>
    </g>
    <g id="text_27">
     <!-- 14 -->
     <g transform="translate(1615.43 506.777475) scale(0.2 -0.2)">
      <use xlink:href="#DejaVuSans-31"/>
      <use xlink:href="#DejaVuSans-34" x="63.623047"/>
     </g>
    </g>
    <g id="line2d_100">
     <path d="M 1559.43 529.133725 
L 1579.43 529.133725 
L 1599.43 529.133725 
" style="fill: none; stroke: #f7b6d2; stroke-opacity: 0.8; stroke-width: 2.7; stroke-linecap: square"/>
     <g>
      <use xlink:href="#m5f05d07072" x="1579.43" y="529.133725" style="fill: #f7b6d2; fill-opacity: 0.8; stroke: #f7b6d2; stroke-opacity: 0.8; stroke-width: 2.025"/>
     </g>
    </g>
    <g id="text_28">
     <!-- 15 -->
     <g transform="translate(1615.43 536.133725) scale(0.2 -0.2)">
      <use xlink:href="#DejaVuSans-31"/>
      <use xlink:href="#DejaVuSans-35" x="63.623047"/>
     </g>
    </g>
    <g id="line2d_101">
     <path d="M 1559.43 558.489975 
L 1579.43 558.489975 
L 1599.43 558.489975 
" style="fill: none; stroke: #7f7f7f; stroke-opacity: 0.8; stroke-width: 2.7; stroke-linecap: square"/>
     <g>
      <use xlink:href="#m1fe70da450" x="1579.43" y="558.489975" style="fill: #7f7f7f; fill-opacity: 0.8; stroke: #7f7f7f; stroke-opacity: 0.8; stroke-width: 2.025"/>
     </g>
    </g>
    <g id="text_29">
     <!-- 16 -->
     <g transform="translate(1615.43 565.489975) scale(0.2 -0.2)">
      <use xlink:href="#DejaVuSans-31"/>
      <use xlink:href="#DejaVuSans-36" x="63.623047"/>
     </g>
    </g>
   </g>
  </g>
 </g>
 <defs>
  <clipPath id="pfa8550e0f8">
   <rect x="230.4" y="121.3056" width="1428.48" height="778.3776"/>
  </clipPath>
 </defs>
</svg>
