<?xml version="1.0" encoding="utf-8" standalone="no"?>
<!DOCTYPE svg PUBLIC "-//W3C//DTD SVG 1.1//EN"
  "http://www.w3.org/Graphics/SVG/1.1/DTD/svg11.dtd">
<svg xmlns:xlink="http://www.w3.org/1999/xlink" width="720pt" height="720pt" viewBox="0 0 720 720" xmlns="http://www.w3.org/2000/svg" version="1.1">
 <metadata>
  <rdf:RDF xmlns:dc="http://purl.org/dc/elements/1.1/" xmlns:cc="http://creativecommons.org/ns#" xmlns:rdf="http://www.w3.org/1999/02/22-rdf-syntax-ns#">
   <cc:Work>
    <dc:type rdf:resource="http://purl.org/dc/dcmitype/StillImage"/>
    <dc:date>2025-02-03T12:36:15.442584</dc:date>
    <dc:format>image/svg+xml</dc:format>
    <dc:creator>
     <cc:Agent>
      <dc:title>Matplotlib v3.9.2, https://matplotlib.org/</dc:title>
     </cc:Agent>
    </dc:creator>
   </cc:Work>
  </rdf:RDF>
 </metadata>
 <defs>
  <style type="text/css">*{stroke-linejoin: round; stroke-linecap: butt}</style>
 </defs>
 <g id="figure_1">
  <g id="patch_1">
   <path d="M 0 720 
L 720 720 
L 720 0 
L 0 0 
z
" style="fill: #ffffff"/>
  </g>
  <g id="axes_1">
   <g id="patch_2">
    <path d="M 48.215 677.68 
L 709.2 677.68 
L 709.2 10.8 
L 48.215 10.8 
z
" style="fill: #ffffff"/>
   </g>
   <g id="PathCollection_1">
    <defs>
     <path id="m8d76af2485" d="M 0 3 
C 0.795609 3 1.55874 2.683901 2.12132 2.12132 
C 2.683901 1.55874 3 0.795609 3 0 
C 3 -0.795609 2.683901 -1.55874 2.12132 -2.12132 
C 1.55874 -2.683901 0.795609 -3 0 -3 
C -0.795609 -3 -1.55874 -2.683901 -2.12132 -2.12132 
C -2.683901 -1.55874 -3 -0.795609 -3 0 
C -3 0.795609 -2.683901 1.55874 -2.12132 2.12132 
C -1.55874 2.683901 -0.795609 3 0 3 
z
" style="stroke: #2e8b57; stroke-opacity: 0.8"/>
    </defs>
    <g clip-path="url(#p70f029b35b)">
     <use xlink:href="#m8d76af2485" x="450.46538" y="483.024372" style="fill: #2e8b57; fill-opacity: 0.8; stroke: #2e8b57; stroke-opacity: 0.8"/>
     <use xlink:href="#m8d76af2485" x="557.030692" y="202.595949" style="fill: #2e8b57; fill-opacity: 0.8; stroke: #2e8b57; stroke-opacity: 0.8"/>
     <use xlink:href="#m8d76af2485" x="421.474805" y="602.100546" style="fill: #2e8b57; fill-opacity: 0.8; stroke: #2e8b57; stroke-opacity: 0.8"/>
     <use xlink:href="#m8d76af2485" x="190.738899" y="400.159084" style="fill: #2e8b57; fill-opacity: 0.8; stroke: #2e8b57; stroke-opacity: 0.8"/>
     <use xlink:href="#m8d76af2485" x="339.851806" y="553.956671" style="fill: #2e8b57; fill-opacity: 0.8; stroke: #2e8b57; stroke-opacity: 0.8"/>
     <use xlink:href="#m8d76af2485" x="78.259773" y="480.399397" style="fill: #2e8b57; fill-opacity: 0.8; stroke: #2e8b57; stroke-opacity: 0.8"/>
     <use xlink:href="#m8d76af2485" x="134.19823" y="606.60042" style="fill: #2e8b57; fill-opacity: 0.8; stroke: #2e8b57; stroke-opacity: 0.8"/>
     <use xlink:href="#m8d76af2485" x="679.155227" y="412.017602" style="fill: #2e8b57; fill-opacity: 0.8; stroke: #2e8b57; stroke-opacity: 0.8"/>
     <use xlink:href="#m8d76af2485" x="378.962179" y="647.367273" style="fill: #2e8b57; fill-opacity: 0.8; stroke: #2e8b57; stroke-opacity: 0.8"/>
     <use xlink:href="#m8d76af2485" x="580.52825" y="466.647904" style="fill: #2e8b57; fill-opacity: 0.8; stroke: #2e8b57; stroke-opacity: 0.8"/>
     <use xlink:href="#m8d76af2485" x="159.420103" y="489.641099" style="fill: #2e8b57; fill-opacity: 0.8; stroke: #2e8b57; stroke-opacity: 0.8"/>
     <use xlink:href="#m8d76af2485" x="167.570088" y="634.038454" style="fill: #2e8b57; fill-opacity: 0.8; stroke: #2e8b57; stroke-opacity: 0.8"/>
     <use xlink:href="#m8d76af2485" x="190.490591" y="573.323871" style="fill: #2e8b57; fill-opacity: 0.8; stroke: #2e8b57; stroke-opacity: 0.8"/>
     <use xlink:href="#m8d76af2485" x="198.274646" y="41.112727" style="fill: #2e8b57; fill-opacity: 0.8; stroke: #2e8b57; stroke-opacity: 0.8"/>
     <use xlink:href="#m8d76af2485" x="98.131966" y="564.641392" style="fill: #2e8b57; fill-opacity: 0.8; stroke: #2e8b57; stroke-opacity: 0.8"/>
    </g>
   </g>
   <g id="PolyCollection_1">
    <path d="M 78.259773 360.65403 
L 78.259773 631.072564 
L 84.329424 628.918453 
L 90.399075 626.825401 
L 96.468726 624.70825 
L 102.538377 621.342515 
L 108.608028 618.575924 
L 114.677679 616.810577 
L 120.74733 615.170893 
L 126.816981 612.579263 
L 132.886632 609.355102 
L 138.956283 606.94098 
L 145.025934 604.657751 
L 151.095585 601.999881 
L 157.165236 599.199636 
L 163.234888 596.399391 
L 169.304539 595.474198 
L 175.37419 592.839211 
L 181.443841 590.442476 
L 187.513492 588.579634 
L 193.583143 586.285851 
L 199.652794 584.154059 
L 205.722445 581.882602 
L 211.792096 579.611144 
L 217.861747 577.538375 
L 223.931398 576.247166 
L 230.001049 574.260166 
L 236.0707 572.615623 
L 242.140351 570.410729 
L 248.210002 568.237139 
L 254.279653 567.012143 
L 260.349304 564.684155 
L 266.418955 563.761242 
L 272.488607 561.069088 
L 278.558258 559.881114 
L 284.627909 558.697944 
L 290.69756 558.502626 
L 296.767211 557.280002 
L 302.836862 556.58767 
L 308.906513 555.872772 
L 314.976164 555.042017 
L 321.045815 554.158524 
L 327.115466 552.943416 
L 333.185117 552.578697 
L 339.254768 552.3795 
L 345.324419 552.421543 
L 351.39407 550.944677 
L 357.463721 549.607134 
L 363.533372 549.195035 
L 369.603023 548.207603 
L 375.672674 547.672512 
L 381.742326 547.461213 
L 387.811977 547.290959 
L 393.881628 547.967592 
L 399.951279 548.646775 
L 406.02093 549.325958 
L 412.090581 549.898673 
L 418.160232 551.503519 
L 424.229883 551.533294 
L 430.299534 552.338364 
L 436.369185 552.693956 
L 442.438836 553.371528 
L 448.508487 554.304676 
L 454.578138 554.72667 
L 460.647789 556.35596 
L 466.71744 557.187152 
L 472.787091 557.994846 
L 478.856742 559.01544 
L 484.926393 560.109685 
L 490.996045 562.307513 
L 497.065696 563.06279 
L 503.135347 563.915737 
L 509.204998 566.713452 
L 515.274649 568.266678 
L 521.3443 568.168195 
L 527.413951 568.069713 
L 533.483602 568.947623 
L 539.553253 570.034272 
L 545.622904 571.120921 
L 551.692555 572.207569 
L 557.762206 573.294218 
L 563.831857 574.048585 
L 569.901508 575.432558 
L 575.971159 576.598517 
L 582.04081 577.716885 
L 588.110461 580.416515 
L 594.180112 582.794941 
L 600.249764 584.609947 
L 606.319415 586.469692 
L 612.389066 588.475678 
L 618.458717 591.286943 
L 624.528368 594.703975 
L 630.598019 598.121007 
L 636.66767 601.265932 
L 642.737321 602.457979 
L 648.806972 605.245323 
L 654.876623 608.032666 
L 660.946274 610.82001 
L 667.015925 613.427276 
L 673.085576 615.807169 
L 679.155227 618.187063 
L 679.155227 266.223519 
L 679.155227 266.223519 
L 673.085576 269.647483 
L 667.015925 273.071446 
L 660.946274 276.49541 
L 654.876623 279.767868 
L 648.806972 282.197924 
L 642.737321 284.62798 
L 636.66767 287.058037 
L 630.598019 288.926224 
L 624.528368 291.507774 
L 618.458717 294.348205 
L 612.389066 297.156588 
L 606.319415 299.188253 
L 600.249764 301.595381 
L 594.180112 304.00251 
L 588.110461 306.421493 
L 582.04081 309.139766 
L 575.971159 312.881433 
L 569.901508 315.769721 
L 563.831857 318.502463 
L 557.762206 321.612276 
L 551.692555 323.311388 
L 545.622904 325.012455 
L 539.553253 327.99057 
L 533.483602 331.087383 
L 527.413951 332.529062 
L 521.3443 333.828355 
L 515.274649 335.479524 
L 509.204998 338.868922 
L 503.135347 342.941279 
L 497.065696 343.53444 
L 490.996045 345.679971 
L 484.926393 347.563143 
L 478.856742 349.992078 
L 472.787091 350.804879 
L 466.71744 353.525428 
L 460.647789 355.202399 
L 454.578138 358.368257 
L 448.508487 361.534115 
L 442.438836 363.692579 
L 436.369185 364.630518 
L 430.299534 367.270938 
L 424.229883 370.110313 
L 418.160232 372.530263 
L 412.090581 375.197367 
L 406.02093 375.955095 
L 399.951279 377.687244 
L 393.881628 378.56001 
L 387.811977 379.693518 
L 381.742326 380.53022 
L 375.672674 381.384446 
L 369.603023 382.114052 
L 363.533372 382.984316 
L 357.463721 382.767726 
L 351.39407 383.65708 
L 345.324419 383.678427 
L 339.254768 383.52631 
L 333.185117 383.37226 
L 327.115466 384.890166 
L 321.045815 385.548119 
L 314.976164 386.455382 
L 308.906513 387.510816 
L 302.836862 388.482151 
L 296.767211 389.430885 
L 290.69756 387.845635 
L 284.627909 386.908929 
L 278.558258 385.094445 
L 272.488607 385.934302 
L 266.418955 387.192693 
L 260.349304 388.451084 
L 254.279653 387.981532 
L 248.210002 387.6184 
L 242.140351 386.654429 
L 236.0707 385.667827 
L 230.001049 384.811469 
L 223.931398 383.775808 
L 217.861747 382.796738 
L 211.792096 381.828831 
L 205.722445 382.238007 
L 199.652794 381.045199 
L 193.583143 379.852392 
L 187.513492 380.906079 
L 181.443841 383.009136 
L 175.37419 384.877572 
L 169.304539 383.033891 
L 163.234888 381.19802 
L 157.165236 378.480319 
L 151.095585 375.762617 
L 145.025934 374.349792 
L 138.956283 373.866078 
L 132.886632 370.722739 
L 126.816981 368.344404 
L 120.74733 367.37191 
L 114.677679 366.41604 
L 108.608028 364.616313 
L 102.538377 363.741664 
L 96.468726 363.216449 
L 90.399075 362.564923 
L 84.329424 361.609477 
L 78.259773 360.65403 
z
" clip-path="url(#p70f029b35b)" style="fill: #2e8b57; fill-opacity: 0.15"/>
   </g>
   <g id="matplotlib.axis_1">
    <g id="xtick_1">
     <g id="line2d_1">
      <defs>
       <path id="m615c1dabdf" d="M 0 0 
L 0 3.5 
" style="stroke: #000000; stroke-width: 0.8"/>
      </defs>
      <g>
       <use xlink:href="#m615c1dabdf" x="49.317531" y="677.68" style="stroke: #000000; stroke-width: 0.8"/>
      </g>
     </g>
     <g id="text_1">
      <!-- −1.00 -->
      <g transform="translate(26.333547 696.077656) scale(0.15 -0.15)">
       <defs>
        <path id="DejaVuSans-2212" d="M 678 2272 
L 4684 2272 
L 4684 1741 
L 678 1741 
L 678 2272 
z
" transform="scale(0.015625)"/>
        <path id="DejaVuSans-31" d="M 794 531 
L 1825 531 
L 1825 4091 
L 703 3866 
L 703 4441 
L 1819 4666 
L 2450 4666 
L 2450 531 
L 3481 531 
L 3481 0 
L 794 0 
L 794 531 
z
" transform="scale(0.015625)"/>
        <path id="DejaVuSans-2e" d="M 684 794 
L 1344 794 
L 1344 0 
L 684 0 
L 684 794 
z
" transform="scale(0.015625)"/>
        <path id="DejaVuSans-30" d="M 2034 4250 
Q 1547 4250 1301 3770 
Q 1056 3291 1056 2328 
Q 1056 1369 1301 889 
Q 1547 409 2034 409 
Q 2525 409 2770 889 
Q 3016 1369 3016 2328 
Q 3016 3291 2770 3770 
Q 2525 4250 2034 4250 
z
M 2034 4750 
Q 2819 4750 3233 4129 
Q 3647 3509 3647 2328 
Q 3647 1150 3233 529 
Q 2819 -91 2034 -91 
Q 1250 -91 836 529 
Q 422 1150 422 2328 
Q 422 3509 836 4129 
Q 1250 4750 2034 4750 
z
" transform="scale(0.015625)"/>
       </defs>
       <use xlink:href="#DejaVuSans-2212"/>
       <use xlink:href="#DejaVuSans-31" x="83.789062"/>
       <use xlink:href="#DejaVuSans-2e" x="147.412109"/>
       <use xlink:href="#DejaVuSans-30" x="179.199219"/>
       <use xlink:href="#DejaVuSans-30" x="242.822266"/>
      </g>
     </g>
    </g>
    <g id="xtick_2">
     <g id="line2d_2">
      <g>
       <use xlink:href="#m615c1dabdf" x="128.755237" y="677.68" style="stroke: #000000; stroke-width: 0.8"/>
      </g>
     </g>
     <g id="text_2">
      <!-- −0.75 -->
      <g transform="translate(105.771253 696.077656) scale(0.15 -0.15)">
       <defs>
        <path id="DejaVuSans-37" d="M 525 4666 
L 3525 4666 
L 3525 4397 
L 1831 0 
L 1172 0 
L 2766 4134 
L 525 4134 
L 525 4666 
z
" transform="scale(0.015625)"/>
        <path id="DejaVuSans-35" d="M 691 4666 
L 3169 4666 
L 3169 4134 
L 1269 4134 
L 1269 2991 
Q 1406 3038 1543 3061 
Q 1681 3084 1819 3084 
Q 2600 3084 3056 2656 
Q 3513 2228 3513 1497 
Q 3513 744 3044 326 
Q 2575 -91 1722 -91 
Q 1428 -91 1123 -41 
Q 819 9 494 109 
L 494 744 
Q 775 591 1075 516 
Q 1375 441 1709 441 
Q 2250 441 2565 725 
Q 2881 1009 2881 1497 
Q 2881 1984 2565 2268 
Q 2250 2553 1709 2553 
Q 1456 2553 1204 2497 
Q 953 2441 691 2322 
L 691 4666 
z
" transform="scale(0.015625)"/>
       </defs>
       <use xlink:href="#DejaVuSans-2212"/>
       <use xlink:href="#DejaVuSans-30" x="83.789062"/>
       <use xlink:href="#DejaVuSans-2e" x="147.412109"/>
       <use xlink:href="#DejaVuSans-37" x="179.199219"/>
       <use xlink:href="#DejaVuSans-35" x="242.822266"/>
      </g>
     </g>
    </g>
    <g id="xtick_3">
     <g id="line2d_3">
      <g>
       <use xlink:href="#m615c1dabdf" x="208.192944" y="677.68" style="stroke: #000000; stroke-width: 0.8"/>
      </g>
     </g>
     <g id="text_3">
      <!-- −0.50 -->
      <g transform="translate(185.20896 696.077656) scale(0.15 -0.15)">
       <use xlink:href="#DejaVuSans-2212"/>
       <use xlink:href="#DejaVuSans-30" x="83.789062"/>
       <use xlink:href="#DejaVuSans-2e" x="147.412109"/>
       <use xlink:href="#DejaVuSans-35" x="179.199219"/>
       <use xlink:href="#DejaVuSans-30" x="242.822266"/>
      </g>
     </g>
    </g>
    <g id="xtick_4">
     <g id="line2d_4">
      <g>
       <use xlink:href="#m615c1dabdf" x="287.630651" y="677.68" style="stroke: #000000; stroke-width: 0.8"/>
      </g>
     </g>
     <g id="text_4">
      <!-- −0.25 -->
      <g transform="translate(264.646666 696.077656) scale(0.15 -0.15)">
       <defs>
        <path id="DejaVuSans-32" d="M 1228 531 
L 3431 531 
L 3431 0 
L 469 0 
L 469 531 
Q 828 903 1448 1529 
Q 2069 2156 2228 2338 
Q 2531 2678 2651 2914 
Q 2772 3150 2772 3378 
Q 2772 3750 2511 3984 
Q 2250 4219 1831 4219 
Q 1534 4219 1204 4116 
Q 875 4013 500 3803 
L 500 4441 
Q 881 4594 1212 4672 
Q 1544 4750 1819 4750 
Q 2544 4750 2975 4387 
Q 3406 4025 3406 3419 
Q 3406 3131 3298 2873 
Q 3191 2616 2906 2266 
Q 2828 2175 2409 1742 
Q 1991 1309 1228 531 
z
" transform="scale(0.015625)"/>
       </defs>
       <use xlink:href="#DejaVuSans-2212"/>
       <use xlink:href="#DejaVuSans-30" x="83.789062"/>
       <use xlink:href="#DejaVuSans-2e" x="147.412109"/>
       <use xlink:href="#DejaVuSans-32" x="179.199219"/>
       <use xlink:href="#DejaVuSans-35" x="242.822266"/>
      </g>
     </g>
    </g>
    <g id="xtick_5">
     <g id="line2d_5">
      <g>
       <use xlink:href="#m615c1dabdf" x="367.068357" y="677.68" style="stroke: #000000; stroke-width: 0.8"/>
      </g>
     </g>
     <g id="text_5">
      <!-- 0.00 -->
      <g transform="translate(350.369138 696.077656) scale(0.15 -0.15)">
       <use xlink:href="#DejaVuSans-30"/>
       <use xlink:href="#DejaVuSans-2e" x="63.623047"/>
       <use xlink:href="#DejaVuSans-30" x="95.410156"/>
       <use xlink:href="#DejaVuSans-30" x="159.033203"/>
      </g>
     </g>
    </g>
    <g id="xtick_6">
     <g id="line2d_6">
      <g>
       <use xlink:href="#m615c1dabdf" x="446.506064" y="677.68" style="stroke: #000000; stroke-width: 0.8"/>
      </g>
     </g>
     <g id="text_6">
      <!-- 0.25 -->
      <g transform="translate(429.806845 696.077656) scale(0.15 -0.15)">
       <use xlink:href="#DejaVuSans-30"/>
       <use xlink:href="#DejaVuSans-2e" x="63.623047"/>
       <use xlink:href="#DejaVuSans-32" x="95.410156"/>
       <use xlink:href="#DejaVuSans-35" x="159.033203"/>
      </g>
     </g>
    </g>
    <g id="xtick_7">
     <g id="line2d_7">
      <g>
       <use xlink:href="#m615c1dabdf" x="525.94377" y="677.68" style="stroke: #000000; stroke-width: 0.8"/>
      </g>
     </g>
     <g id="text_7">
      <!-- 0.50 -->
      <g transform="translate(509.244551 696.077656) scale(0.15 -0.15)">
       <use xlink:href="#DejaVuSans-30"/>
       <use xlink:href="#DejaVuSans-2e" x="63.623047"/>
       <use xlink:href="#DejaVuSans-35" x="95.410156"/>
       <use xlink:href="#DejaVuSans-30" x="159.033203"/>
      </g>
     </g>
    </g>
    <g id="xtick_8">
     <g id="line2d_8">
      <g>
       <use xlink:href="#m615c1dabdf" x="605.381477" y="677.68" style="stroke: #000000; stroke-width: 0.8"/>
      </g>
     </g>
     <g id="text_8">
      <!-- 0.75 -->
      <g transform="translate(588.682258 696.077656) scale(0.15 -0.15)">
       <use xlink:href="#DejaVuSans-30"/>
       <use xlink:href="#DejaVuSans-2e" x="63.623047"/>
       <use xlink:href="#DejaVuSans-37" x="95.410156"/>
       <use xlink:href="#DejaVuSans-35" x="159.033203"/>
      </g>
     </g>
    </g>
    <g id="xtick_9">
     <g id="line2d_9">
      <g>
       <use xlink:href="#m615c1dabdf" x="684.819183" y="677.68" style="stroke: #000000; stroke-width: 0.8"/>
      </g>
     </g>
     <g id="text_9">
      <!-- 1.00 -->
      <g transform="translate(668.119964 696.077656) scale(0.15 -0.15)">
       <use xlink:href="#DejaVuSans-31"/>
       <use xlink:href="#DejaVuSans-2e" x="63.623047"/>
       <use xlink:href="#DejaVuSans-30" x="95.410156"/>
       <use xlink:href="#DejaVuSans-30" x="159.033203"/>
      </g>
     </g>
    </g>
    <g id="text_10">
     <!-- persistence_score -->
     <g transform="translate(288.97 718.394063) scale(0.2 -0.2)">
      <defs>
       <path id="DejaVuSans-70" d="M 1159 525 
L 1159 -1331 
L 581 -1331 
L 581 3500 
L 1159 3500 
L 1159 2969 
Q 1341 3281 1617 3432 
Q 1894 3584 2278 3584 
Q 2916 3584 3314 3078 
Q 3713 2572 3713 1747 
Q 3713 922 3314 415 
Q 2916 -91 2278 -91 
Q 1894 -91 1617 61 
Q 1341 213 1159 525 
z
M 3116 1747 
Q 3116 2381 2855 2742 
Q 2594 3103 2138 3103 
Q 1681 3103 1420 2742 
Q 1159 2381 1159 1747 
Q 1159 1113 1420 752 
Q 1681 391 2138 391 
Q 2594 391 2855 752 
Q 3116 1113 3116 1747 
z
" transform="scale(0.015625)"/>
       <path id="DejaVuSans-65" d="M 3597 1894 
L 3597 1613 
L 953 1613 
Q 991 1019 1311 708 
Q 1631 397 2203 397 
Q 2534 397 2845 478 
Q 3156 559 3463 722 
L 3463 178 
Q 3153 47 2828 -22 
Q 2503 -91 2169 -91 
Q 1331 -91 842 396 
Q 353 884 353 1716 
Q 353 2575 817 3079 
Q 1281 3584 2069 3584 
Q 2775 3584 3186 3129 
Q 3597 2675 3597 1894 
z
M 3022 2063 
Q 3016 2534 2758 2815 
Q 2500 3097 2075 3097 
Q 1594 3097 1305 2825 
Q 1016 2553 972 2059 
L 3022 2063 
z
" transform="scale(0.015625)"/>
       <path id="DejaVuSans-72" d="M 2631 2963 
Q 2534 3019 2420 3045 
Q 2306 3072 2169 3072 
Q 1681 3072 1420 2755 
Q 1159 2438 1159 1844 
L 1159 0 
L 581 0 
L 581 3500 
L 1159 3500 
L 1159 2956 
Q 1341 3275 1631 3429 
Q 1922 3584 2338 3584 
Q 2397 3584 2469 3576 
Q 2541 3569 2628 3553 
L 2631 2963 
z
" transform="scale(0.015625)"/>
       <path id="DejaVuSans-73" d="M 2834 3397 
L 2834 2853 
Q 2591 2978 2328 3040 
Q 2066 3103 1784 3103 
Q 1356 3103 1142 2972 
Q 928 2841 928 2578 
Q 928 2378 1081 2264 
Q 1234 2150 1697 2047 
L 1894 2003 
Q 2506 1872 2764 1633 
Q 3022 1394 3022 966 
Q 3022 478 2636 193 
Q 2250 -91 1575 -91 
Q 1294 -91 989 -36 
Q 684 19 347 128 
L 347 722 
Q 666 556 975 473 
Q 1284 391 1588 391 
Q 1994 391 2212 530 
Q 2431 669 2431 922 
Q 2431 1156 2273 1281 
Q 2116 1406 1581 1522 
L 1381 1569 
Q 847 1681 609 1914 
Q 372 2147 372 2553 
Q 372 3047 722 3315 
Q 1072 3584 1716 3584 
Q 2034 3584 2315 3537 
Q 2597 3491 2834 3397 
z
" transform="scale(0.015625)"/>
       <path id="DejaVuSans-69" d="M 603 3500 
L 1178 3500 
L 1178 0 
L 603 0 
L 603 3500 
z
M 603 4863 
L 1178 4863 
L 1178 4134 
L 603 4134 
L 603 4863 
z
" transform="scale(0.015625)"/>
       <path id="DejaVuSans-74" d="M 1172 4494 
L 1172 3500 
L 2356 3500 
L 2356 3053 
L 1172 3053 
L 1172 1153 
Q 1172 725 1289 603 
Q 1406 481 1766 481 
L 2356 481 
L 2356 0 
L 1766 0 
Q 1100 0 847 248 
Q 594 497 594 1153 
L 594 3053 
L 172 3053 
L 172 3500 
L 594 3500 
L 594 4494 
L 1172 4494 
z
" transform="scale(0.015625)"/>
       <path id="DejaVuSans-6e" d="M 3513 2113 
L 3513 0 
L 2938 0 
L 2938 2094 
Q 2938 2591 2744 2837 
Q 2550 3084 2163 3084 
Q 1697 3084 1428 2787 
Q 1159 2491 1159 1978 
L 1159 0 
L 581 0 
L 581 3500 
L 1159 3500 
L 1159 2956 
Q 1366 3272 1645 3428 
Q 1925 3584 2291 3584 
Q 2894 3584 3203 3211 
Q 3513 2838 3513 2113 
z
" transform="scale(0.015625)"/>
       <path id="DejaVuSans-63" d="M 3122 3366 
L 3122 2828 
Q 2878 2963 2633 3030 
Q 2388 3097 2138 3097 
Q 1578 3097 1268 2742 
Q 959 2388 959 1747 
Q 959 1106 1268 751 
Q 1578 397 2138 397 
Q 2388 397 2633 464 
Q 2878 531 3122 666 
L 3122 134 
Q 2881 22 2623 -34 
Q 2366 -91 2075 -91 
Q 1284 -91 818 406 
Q 353 903 353 1747 
Q 353 2603 823 3093 
Q 1294 3584 2113 3584 
Q 2378 3584 2631 3529 
Q 2884 3475 3122 3366 
z
" transform="scale(0.015625)"/>
       <path id="DejaVuSans-5f" d="M 3263 -1063 
L 3263 -1509 
L -63 -1509 
L -63 -1063 
L 3263 -1063 
z
" transform="scale(0.015625)"/>
       <path id="DejaVuSans-6f" d="M 1959 3097 
Q 1497 3097 1228 2736 
Q 959 2375 959 1747 
Q 959 1119 1226 758 
Q 1494 397 1959 397 
Q 2419 397 2687 759 
Q 2956 1122 2956 1747 
Q 2956 2369 2687 2733 
Q 2419 3097 1959 3097 
z
M 1959 3584 
Q 2709 3584 3137 3096 
Q 3566 2609 3566 1747 
Q 3566 888 3137 398 
Q 2709 -91 1959 -91 
Q 1206 -91 779 398 
Q 353 888 353 1747 
Q 353 2609 779 3096 
Q 1206 3584 1959 3584 
z
" transform="scale(0.015625)"/>
      </defs>
      <use xlink:href="#DejaVuSans-70"/>
      <use xlink:href="#DejaVuSans-65" x="63.476562"/>
      <use xlink:href="#DejaVuSans-72" x="125"/>
      <use xlink:href="#DejaVuSans-73" x="166.113281"/>
      <use xlink:href="#DejaVuSans-69" x="218.212891"/>
      <use xlink:href="#DejaVuSans-73" x="245.996094"/>
      <use xlink:href="#DejaVuSans-74" x="298.095703"/>
      <use xlink:href="#DejaVuSans-65" x="337.304688"/>
      <use xlink:href="#DejaVuSans-6e" x="398.828125"/>
      <use xlink:href="#DejaVuSans-63" x="462.207031"/>
      <use xlink:href="#DejaVuSans-65" x="517.1875"/>
      <use xlink:href="#DejaVuSans-5f" x="578.710938"/>
      <use xlink:href="#DejaVuSans-73" x="628.710938"/>
      <use xlink:href="#DejaVuSans-63" x="680.810547"/>
      <use xlink:href="#DejaVuSans-6f" x="735.791016"/>
      <use xlink:href="#DejaVuSans-72" x="796.972656"/>
      <use xlink:href="#DejaVuSans-65" x="835.835938"/>
     </g>
    </g>
   </g>
   <g id="matplotlib.axis_2">
    <g id="ytick_1">
     <g id="line2d_10">
      <defs>
       <path id="maa583858dc" d="M 0 0 
L -3.5 0 
" style="stroke: #000000; stroke-width: 0.8"/>
      </defs>
      <g>
       <use xlink:href="#maa583858dc" x="48.215" y="598.780251" style="stroke: #000000; stroke-width: 0.8"/>
      </g>
     </g>
     <g id="text_11">
      <!-- 0.1 -->
      <g transform="translate(17.360313 604.479079) scale(0.15 -0.15)">
       <use xlink:href="#DejaVuSans-30"/>
       <use xlink:href="#DejaVuSans-2e" x="63.623047"/>
       <use xlink:href="#DejaVuSans-31" x="95.410156"/>
      </g>
     </g>
    </g>
    <g id="ytick_2">
     <g id="line2d_11">
      <g>
       <use xlink:href="#maa583858dc" x="48.215" y="491.690518" style="stroke: #000000; stroke-width: 0.8"/>
      </g>
     </g>
     <g id="text_12">
      <!-- 0.2 -->
      <g transform="translate(17.360313 497.389346) scale(0.15 -0.15)">
       <use xlink:href="#DejaVuSans-30"/>
       <use xlink:href="#DejaVuSans-2e" x="63.623047"/>
       <use xlink:href="#DejaVuSans-32" x="95.410156"/>
      </g>
     </g>
    </g>
    <g id="ytick_3">
     <g id="line2d_12">
      <g>
       <use xlink:href="#maa583858dc" x="48.215" y="384.600784" style="stroke: #000000; stroke-width: 0.8"/>
      </g>
     </g>
     <g id="text_13">
      <!-- 0.3 -->
      <g transform="translate(17.360313 390.299612) scale(0.15 -0.15)">
       <defs>
        <path id="DejaVuSans-33" d="M 2597 2516 
Q 3050 2419 3304 2112 
Q 3559 1806 3559 1356 
Q 3559 666 3084 287 
Q 2609 -91 1734 -91 
Q 1441 -91 1130 -33 
Q 819 25 488 141 
L 488 750 
Q 750 597 1062 519 
Q 1375 441 1716 441 
Q 2309 441 2620 675 
Q 2931 909 2931 1356 
Q 2931 1769 2642 2001 
Q 2353 2234 1838 2234 
L 1294 2234 
L 1294 2753 
L 1863 2753 
Q 2328 2753 2575 2939 
Q 2822 3125 2822 3475 
Q 2822 3834 2567 4026 
Q 2313 4219 1838 4219 
Q 1578 4219 1281 4162 
Q 984 4106 628 3988 
L 628 4550 
Q 988 4650 1302 4700 
Q 1616 4750 1894 4750 
Q 2613 4750 3031 4423 
Q 3450 4097 3450 3541 
Q 3450 3153 3228 2886 
Q 3006 2619 2597 2516 
z
" transform="scale(0.015625)"/>
       </defs>
       <use xlink:href="#DejaVuSans-30"/>
       <use xlink:href="#DejaVuSans-2e" x="63.623047"/>
       <use xlink:href="#DejaVuSans-33" x="95.410156"/>
      </g>
     </g>
    </g>
    <g id="ytick_4">
     <g id="line2d_13">
      <g>
       <use xlink:href="#maa583858dc" x="48.215" y="277.511051" style="stroke: #000000; stroke-width: 0.8"/>
      </g>
     </g>
     <g id="text_14">
      <!-- 0.4 -->
      <g transform="translate(17.360313 283.209879) scale(0.15 -0.15)">
       <defs>
        <path id="DejaVuSans-34" d="M 2419 4116 
L 825 1625 
L 2419 1625 
L 2419 4116 
z
M 2253 4666 
L 3047 4666 
L 3047 1625 
L 3713 1625 
L 3713 1100 
L 3047 1100 
L 3047 0 
L 2419 0 
L 2419 1100 
L 313 1100 
L 313 1709 
L 2253 4666 
z
" transform="scale(0.015625)"/>
       </defs>
       <use xlink:href="#DejaVuSans-30"/>
       <use xlink:href="#DejaVuSans-2e" x="63.623047"/>
       <use xlink:href="#DejaVuSans-34" x="95.410156"/>
      </g>
     </g>
    </g>
    <g id="ytick_5">
     <g id="line2d_14">
      <g>
       <use xlink:href="#maa583858dc" x="48.215" y="170.421317" style="stroke: #000000; stroke-width: 0.8"/>
      </g>
     </g>
     <g id="text_15">
      <!-- 0.5 -->
      <g transform="translate(17.360313 176.120145) scale(0.15 -0.15)">
       <use xlink:href="#DejaVuSans-30"/>
       <use xlink:href="#DejaVuSans-2e" x="63.623047"/>
       <use xlink:href="#DejaVuSans-35" x="95.410156"/>
      </g>
     </g>
    </g>
    <g id="ytick_6">
     <g id="line2d_15">
      <g>
       <use xlink:href="#maa583858dc" x="48.215" y="63.331584" style="stroke: #000000; stroke-width: 0.8"/>
      </g>
     </g>
     <g id="text_16">
      <!-- 0.6 -->
      <g transform="translate(17.360313 69.030412) scale(0.15 -0.15)">
       <defs>
        <path id="DejaVuSans-36" d="M 2113 2584 
Q 1688 2584 1439 2293 
Q 1191 2003 1191 1497 
Q 1191 994 1439 701 
Q 1688 409 2113 409 
Q 2538 409 2786 701 
Q 3034 994 3034 1497 
Q 3034 2003 2786 2293 
Q 2538 2584 2113 2584 
z
M 3366 4563 
L 3366 3988 
Q 3128 4100 2886 4159 
Q 2644 4219 2406 4219 
Q 1781 4219 1451 3797 
Q 1122 3375 1075 2522 
Q 1259 2794 1537 2939 
Q 1816 3084 2150 3084 
Q 2853 3084 3261 2657 
Q 3669 2231 3669 1497 
Q 3669 778 3244 343 
Q 2819 -91 2113 -91 
Q 1303 -91 875 529 
Q 447 1150 447 2328 
Q 447 3434 972 4092 
Q 1497 4750 2381 4750 
Q 2619 4750 2861 4703 
Q 3103 4656 3366 4563 
z
" transform="scale(0.015625)"/>
       </defs>
       <use xlink:href="#DejaVuSans-30"/>
       <use xlink:href="#DejaVuSans-2e" x="63.623047"/>
       <use xlink:href="#DejaVuSans-36" x="95.410156"/>
      </g>
     </g>
    </g>
    <g id="text_17">
     <!-- adaptation_Green -->
     <g transform="translate(8.644688 433.674375) rotate(-90) scale(0.2 -0.2)">
      <defs>
       <path id="DejaVuSans-61" d="M 2194 1759 
Q 1497 1759 1228 1600 
Q 959 1441 959 1056 
Q 959 750 1161 570 
Q 1363 391 1709 391 
Q 2188 391 2477 730 
Q 2766 1069 2766 1631 
L 2766 1759 
L 2194 1759 
z
M 3341 1997 
L 3341 0 
L 2766 0 
L 2766 531 
Q 2569 213 2275 61 
Q 1981 -91 1556 -91 
Q 1019 -91 701 211 
Q 384 513 384 1019 
Q 384 1609 779 1909 
Q 1175 2209 1959 2209 
L 2766 2209 
L 2766 2266 
Q 2766 2663 2505 2880 
Q 2244 3097 1772 3097 
Q 1472 3097 1187 3025 
Q 903 2953 641 2809 
L 641 3341 
Q 956 3463 1253 3523 
Q 1550 3584 1831 3584 
Q 2591 3584 2966 3190 
Q 3341 2797 3341 1997 
z
" transform="scale(0.015625)"/>
       <path id="DejaVuSans-64" d="M 2906 2969 
L 2906 4863 
L 3481 4863 
L 3481 0 
L 2906 0 
L 2906 525 
Q 2725 213 2448 61 
Q 2172 -91 1784 -91 
Q 1150 -91 751 415 
Q 353 922 353 1747 
Q 353 2572 751 3078 
Q 1150 3584 1784 3584 
Q 2172 3584 2448 3432 
Q 2725 3281 2906 2969 
z
M 947 1747 
Q 947 1113 1208 752 
Q 1469 391 1925 391 
Q 2381 391 2643 752 
Q 2906 1113 2906 1747 
Q 2906 2381 2643 2742 
Q 2381 3103 1925 3103 
Q 1469 3103 1208 2742 
Q 947 2381 947 1747 
z
" transform="scale(0.015625)"/>
       <path id="DejaVuSans-47" d="M 3809 666 
L 3809 1919 
L 2778 1919 
L 2778 2438 
L 4434 2438 
L 4434 434 
Q 4069 175 3628 42 
Q 3188 -91 2688 -91 
Q 1594 -91 976 548 
Q 359 1188 359 2328 
Q 359 3472 976 4111 
Q 1594 4750 2688 4750 
Q 3144 4750 3555 4637 
Q 3966 4525 4313 4306 
L 4313 3634 
Q 3963 3931 3569 4081 
Q 3175 4231 2741 4231 
Q 1884 4231 1454 3753 
Q 1025 3275 1025 2328 
Q 1025 1384 1454 906 
Q 1884 428 2741 428 
Q 3075 428 3337 486 
Q 3600 544 3809 666 
z
" transform="scale(0.015625)"/>
      </defs>
      <use xlink:href="#DejaVuSans-61"/>
      <use xlink:href="#DejaVuSans-64" x="61.279297"/>
      <use xlink:href="#DejaVuSans-61" x="124.755859"/>
      <use xlink:href="#DejaVuSans-70" x="186.035156"/>
      <use xlink:href="#DejaVuSans-74" x="249.511719"/>
      <use xlink:href="#DejaVuSans-61" x="288.720703"/>
      <use xlink:href="#DejaVuSans-74" x="350"/>
      <use xlink:href="#DejaVuSans-69" x="389.208984"/>
      <use xlink:href="#DejaVuSans-6f" x="416.992188"/>
      <use xlink:href="#DejaVuSans-6e" x="478.173828"/>
      <use xlink:href="#DejaVuSans-5f" x="541.552734"/>
      <use xlink:href="#DejaVuSans-47" x="591.552734"/>
      <use xlink:href="#DejaVuSans-72" x="669.042969"/>
      <use xlink:href="#DejaVuSans-65" x="707.90625"/>
      <use xlink:href="#DejaVuSans-65" x="769.429688"/>
      <use xlink:href="#DejaVuSans-6e" x="830.953125"/>
     </g>
    </g>
   </g>
   <g id="line2d_16">
    <path d="M 78.259773 515.005362 
L 84.329424 514.00722 
L 90.399075 513.009078 
L 96.468726 512.010935 
L 102.538377 511.012793 
L 108.608028 510.014651 
L 114.677679 509.016508 
L 120.74733 508.018366 
L 126.816981 507.020224 
L 132.886632 506.022081 
L 138.956283 505.023939 
L 145.025934 504.025797 
L 151.095585 503.027654 
L 157.165236 502.029512 
L 163.234888 501.03137 
L 169.304539 500.033228 
L 175.37419 499.035085 
L 181.443841 498.036943 
L 187.513492 497.038801 
L 193.583143 496.040658 
L 199.652794 495.042516 
L 205.722445 494.044374 
L 211.792096 493.046231 
L 217.861747 492.048089 
L 223.931398 491.049947 
L 230.001049 490.051805 
L 236.0707 489.053662 
L 242.140351 488.05552 
L 248.210002 487.057378 
L 254.279653 486.059235 
L 260.349304 485.061093 
L 266.418955 484.062951 
L 272.488607 483.064808 
L 278.558258 482.066666 
L 284.627909 481.068524 
L 290.69756 480.070382 
L 296.767211 479.072239 
L 302.836862 478.074097 
L 308.906513 477.075955 
L 314.976164 476.077812 
L 321.045815 475.07967 
L 327.115466 474.081528 
L 333.185117 473.083385 
L 339.254768 472.085243 
L 345.324419 471.087101 
L 351.39407 470.088959 
L 357.463721 469.090816 
L 363.533372 468.092674 
L 369.603023 467.094532 
L 375.672674 466.096389 
L 381.742326 465.098247 
L 387.811977 464.100105 
L 393.881628 463.101962 
L 399.951279 462.10382 
L 406.02093 461.105678 
L 412.090581 460.107536 
L 418.160232 459.109393 
L 424.229883 458.111251 
L 430.299534 457.113109 
L 436.369185 456.114966 
L 442.438836 455.116824 
L 448.508487 454.118682 
L 454.578138 453.120539 
L 460.647789 452.122397 
L 466.71744 451.124255 
L 472.787091 450.126112 
L 478.856742 449.12797 
L 484.926393 448.129828 
L 490.996045 447.131686 
L 497.065696 446.133543 
L 503.135347 445.135401 
L 509.204998 444.137259 
L 515.274649 443.139116 
L 521.3443 442.140974 
L 527.413951 441.142832 
L 533.483602 440.144689 
L 539.553253 439.146547 
L 545.622904 438.148405 
L 551.692555 437.150263 
L 557.762206 436.15212 
L 563.831857 435.153978 
L 569.901508 434.155836 
L 575.971159 433.157693 
L 582.04081 432.159551 
L 588.110461 431.161409 
L 594.180112 430.163266 
L 600.249764 429.165124 
L 606.319415 428.166982 
L 612.389066 427.16884 
L 618.458717 426.170697 
L 624.528368 425.172555 
L 630.598019 424.174413 
L 636.66767 423.17627 
L 642.737321 422.178128 
L 648.806972 421.179986 
L 654.876623 420.181843 
L 660.946274 419.183701 
L 667.015925 418.185559 
L 673.085576 417.187417 
L 679.155227 416.189274 
" clip-path="url(#p70f029b35b)" style="fill: none; stroke: #2e8b57; stroke-width: 2.25; stroke-linecap: square"/>
   </g>
   <g id="patch_3">
    <path d="M 48.215 677.68 
L 48.215 10.8 
" style="fill: none; stroke: #000000; stroke-width: 0.8; stroke-linejoin: miter; stroke-linecap: square"/>
   </g>
   <g id="patch_4">
    <path d="M 48.215 677.68 
L 709.2 677.68 
" style="fill: none; stroke: #000000; stroke-width: 0.8; stroke-linejoin: miter; stroke-linecap: square"/>
   </g>
  </g>
 </g>
 <defs>
  <clipPath id="p70f029b35b">
   <rect x="48.215" y="10.8" width="660.985" height="666.88"/>
  </clipPath>
 </defs>
</svg>
