<?xml version="1.0" encoding="utf-8" standalone="no"?>
<!DOCTYPE svg PUBLIC "-//W3C//DTD SVG 1.1//EN"
  "http://www.w3.org/Graphics/SVG/1.1/DTD/svg11.dtd">
<svg xmlns:xlink="http://www.w3.org/1999/xlink" width="720pt" height="720pt" viewBox="0 0 720 720" xmlns="http://www.w3.org/2000/svg" version="1.1">
 <metadata>
  <rdf:RDF xmlns:dc="http://purl.org/dc/elements/1.1/" xmlns:cc="http://creativecommons.org/ns#" xmlns:rdf="http://www.w3.org/1999/02/22-rdf-syntax-ns#">
   <cc:Work>
    <dc:type rdf:resource="http://purl.org/dc/dcmitype/StillImage"/>
    <dc:date>2025-02-03T12:36:18.257799</dc:date>
    <dc:format>image/svg+xml</dc:format>
    <dc:creator>
     <cc:Agent>
      <dc:title>Matplotlib v3.9.2, https://matplotlib.org/</dc:title>
     </cc:Agent>
    </dc:creator>
   </cc:Work>
  </rdf:RDF>
 </metadata>
 <defs>
  <style type="text/css">*{stroke-linejoin: round; stroke-linecap: butt}</style>
 </defs>
 <g id="figure_1">
  <g id="patch_1">
   <path d="M 0 720 
L 720 720 
L 720 0 
L 0 0 
z
" style="fill: #ffffff"/>
  </g>
  <g id="axes_1">
   <g id="patch_2">
    <path d="M 54.605 677.68 
L 709.2 677.68 
L 709.2 10.8 
L 54.605 10.8 
z
" style="fill: #ffffff"/>
   </g>
   <g id="PathCollection_1">
    <defs>
     <path id="m81683457df" d="M 0 3 
C 0.795609 3 1.55874 2.683901 2.12132 2.12132 
C 2.683901 1.55874 3 0.795609 3 0 
C 3 -0.795609 2.683901 -1.55874 2.12132 -2.12132 
C 1.55874 -2.683901 0.795609 -3 0 -3 
C -0.795609 -3 -1.55874 -2.683901 -2.12132 -2.12132 
C -2.683901 -1.55874 -3 -0.795609 -3 0 
C -3 0.795609 -2.683901 1.55874 -2.12132 2.12132 
C -1.55874 2.683901 -0.795609 3 0 3 
z
" style="stroke: #fa8072; stroke-opacity: 0.8"/>
    </defs>
    <g clip-path="url(#p771cf0abbb)">
     <use xlink:href="#m81683457df" x="430.098464" y="639.690343" style="fill: #fa8072; fill-opacity: 0.8; stroke: #fa8072; stroke-opacity: 0.8"/>
     <use xlink:href="#m81683457df" x="556.500397" y="41.112727" style="fill: #fa8072; fill-opacity: 0.8; stroke: #fa8072; stroke-opacity: 0.8"/>
     <use xlink:href="#m81683457df" x="402.834073" y="333.089021" style="fill: #fa8072; fill-opacity: 0.8; stroke: #fa8072; stroke-opacity: 0.8"/>
     <use xlink:href="#m81683457df" x="219.662844" y="363.655545" style="fill: #fa8072; fill-opacity: 0.8; stroke: #fa8072; stroke-opacity: 0.8"/>
     <use xlink:href="#m81683457df" x="348.151174" y="522.205624" style="fill: #fa8072; fill-opacity: 0.8; stroke: #fa8072; stroke-opacity: 0.8"/>
     <use xlink:href="#m81683457df" x="87.713446" y="574.96723" style="fill: #fa8072; fill-opacity: 0.8; stroke: #fa8072; stroke-opacity: 0.8"/>
     <use xlink:href="#m81683457df" x="166.279282" y="568.113465" style="fill: #fa8072; fill-opacity: 0.8; stroke: #fa8072; stroke-opacity: 0.8"/>
     <use xlink:href="#m81683457df" x="679.445682" y="383.973567" style="fill: #fa8072; fill-opacity: 0.8; stroke: #fa8072; stroke-opacity: 0.8"/>
     <use xlink:href="#m81683457df" x="362.253369" y="601.383741" style="fill: #fa8072; fill-opacity: 0.8; stroke: #fa8072; stroke-opacity: 0.8"/>
     <use xlink:href="#m81683457df" x="570.005854" y="302.1782" style="fill: #fa8072; fill-opacity: 0.8; stroke: #fa8072; stroke-opacity: 0.8"/>
     <use xlink:href="#m81683457df" x="172.897506" y="639.963326" style="fill: #fa8072; fill-opacity: 0.8; stroke: #fa8072; stroke-opacity: 0.8"/>
     <use xlink:href="#m81683457df" x="184.855439" y="463.720563" style="fill: #fa8072; fill-opacity: 0.8; stroke: #fa8072; stroke-opacity: 0.8"/>
     <use xlink:href="#m81683457df" x="227.031014" y="545.042413" style="fill: #fa8072; fill-opacity: 0.8; stroke: #fa8072; stroke-opacity: 0.8"/>
     <use xlink:href="#m81683457df" x="84.359318" y="477.215849" style="fill: #fa8072; fill-opacity: 0.8; stroke: #fa8072; stroke-opacity: 0.8"/>
     <use xlink:href="#m81683457df" x="96.708338" y="402.477929" style="fill: #fa8072; fill-opacity: 0.8; stroke: #fa8072; stroke-opacity: 0.8"/>
    </g>
   </g>
   <g id="PolyCollection_1">
    <path d="M 84.359318 479.740536 
L 84.359318 647.367273 
L 90.370292 642.688061 
L 96.381265 637.986484 
L 102.392238 633.3463 
L 108.403212 629.036811 
L 114.414185 624.901693 
L 120.425158 620.089735 
L 126.436132 614.878561 
L 132.447105 610.087418 
L 138.458079 606.003936 
L 144.469052 601.780321 
L 150.480025 597.004966 
L 156.490999 592.627393 
L 162.501972 589.11908 
L 168.512945 585.417313 
L 174.523919 582.067834 
L 180.534892 578.627798 
L 186.545865 575.006134 
L 192.556839 572.660019 
L 198.567812 568.789852 
L 204.578786 564.381088 
L 210.589759 560.811283 
L 216.600732 557.517962 
L 222.611706 555.574357 
L 228.622679 552.111689 
L 234.633652 548.676301 
L 240.644626 546.37355 
L 246.655599 544.947268 
L 252.666573 543.295533 
L 258.677546 541.724536 
L 264.688519 540.772265 
L 270.699493 538.977972 
L 276.710466 537.604177 
L 282.721439 536.511837 
L 288.732413 535.577281 
L 294.743386 534.391366 
L 300.75436 533.833335 
L 306.765333 533.827853 
L 312.776306 532.742103 
L 318.78728 532.175251 
L 324.798253 530.531684 
L 330.809226 529.285961 
L 336.8202 528.446073 
L 342.831173 528.093287 
L 348.842146 527.510101 
L 354.85312 525.729987 
L 360.864093 526.384595 
L 366.875067 526.755955 
L 372.88604 526.425319 
L 378.897013 526.088527 
L 384.907987 525.751734 
L 390.91896 525.414942 
L 396.929933 524.989608 
L 402.940907 524.424256 
L 408.95188 523.896344 
L 414.962854 523.349287 
L 420.973827 522.80223 
L 426.9848 523.437642 
L 432.995774 523.145679 
L 439.006747 523.066231 
L 445.01772 523.201607 
L 451.028694 523.30119 
L 457.039667 523.525495 
L 463.05064 523.908324 
L 469.061614 523.535047 
L 475.072587 523.650188 
L 481.083561 523.76533 
L 487.094534 523.880472 
L 493.105507 524.425102 
L 499.116481 525.215661 
L 505.127454 526.00622 
L 511.138427 526.796779 
L 517.149401 527.322101 
L 523.160374 526.748899 
L 529.171348 526.170905 
L 535.182321 526.139466 
L 541.193294 526.439562 
L 547.204268 526.739658 
L 553.215241 527.039754 
L 559.226214 527.33985 
L 565.237188 527.639946 
L 571.248161 527.940042 
L 577.259135 528.240138 
L 583.270108 528.540234 
L 589.281081 528.830116 
L 595.292055 529.113482 
L 601.303028 529.396849 
L 607.314001 529.680215 
L 613.324975 529.963581 
L 619.335948 530.246947 
L 625.346921 530.530314 
L 631.357895 530.81368 
L 637.368868 530.647765 
L 643.379842 530.423134 
L 649.390815 530.188434 
L 655.401788 529.951825 
L 661.412762 529.715215 
L 667.423735 529.478606 
L 673.434708 529.241997 
L 679.445682 529.005388 
L 679.445682 100.035986 
L 679.445682 100.035986 
L 673.434708 105.007149 
L 667.423735 109.978311 
L 661.412762 114.700443 
L 655.401788 119.389087 
L 649.390815 124.077732 
L 643.379842 128.766377 
L 637.368868 133.463643 
L 631.357895 138.17117 
L 625.346921 142.878697 
L 619.335948 147.586225 
L 613.324975 152.293752 
L 607.314001 157.698908 
L 601.303028 163.22145 
L 595.292055 168.737296 
L 589.281081 174.234657 
L 583.270108 179.297166 
L 577.259135 183.483404 
L 571.248161 188.033681 
L 565.237188 193.824383 
L 559.226214 199.647382 
L 553.215241 205.290497 
L 547.204268 209.902348 
L 541.193294 214.587048 
L 535.182321 219.559478 
L 529.171348 224.521724 
L 523.160374 229.488837 
L 517.149401 234.46695 
L 511.138427 239.452864 
L 505.127454 244.438778 
L 499.116481 249.396793 
L 493.105507 253.565886 
L 487.094534 257.927961 
L 481.083561 262.214637 
L 475.072587 266.158643 
L 469.061614 270.423122 
L 463.05064 275.26458 
L 457.039667 279.901836 
L 451.028694 284.312413 
L 445.01772 288.860366 
L 439.006747 293.09171 
L 432.995774 297.482893 
L 426.9848 301.957664 
L 420.973827 306.554849 
L 414.962854 311.154743 
L 408.95188 315.795166 
L 402.940907 320.542353 
L 396.929933 325.462844 
L 390.91896 330.385719 
L 384.907987 335.219938 
L 378.897013 340.072908 
L 372.88604 344.947529 
L 366.875067 349.002366 
L 360.864093 354.230533 
L 354.85312 358.694859 
L 348.842146 362.523578 
L 342.831173 366.315902 
L 336.8202 370.103371 
L 330.809226 373.446159 
L 324.798253 377.264544 
L 318.78728 381.17441 
L 312.776306 385.392845 
L 306.765333 389.204028 
L 300.75436 393.436909 
L 294.743386 396.809635 
L 288.732413 400.664715 
L 282.721439 405.528089 
L 276.710466 408.590214 
L 270.699493 412.052085 
L 264.688519 415.849456 
L 258.677546 419.140831 
L 252.666573 421.235651 
L 246.655599 424.364894 
L 240.644626 427.525566 
L 234.633652 430.741278 
L 228.622679 434.248435 
L 222.611706 436.917353 
L 216.600732 440.062711 
L 210.589759 443.198395 
L 204.578786 445.433674 
L 198.567812 449.454886 
L 192.556839 451.870536 
L 186.545865 454.480652 
L 180.534892 456.878404 
L 174.523919 457.936788 
L 168.512945 458.953694 
L 162.501972 460.889365 
L 156.490999 463.392398 
L 150.480025 465.203192 
L 144.469052 466.144645 
L 138.458079 467.419189 
L 132.447105 468.784089 
L 126.436132 470.328387 
L 120.425158 472.542502 
L 114.414185 474.562764 
L 108.403212 475.331775 
L 102.392238 476.662761 
L 96.381265 477.683687 
L 90.370292 479.841682 
L 84.359318 479.740536 
z
" clip-path="url(#p771cf0abbb)" style="fill: #fa8072; fill-opacity: 0.15"/>
   </g>
   <g id="matplotlib.axis_1">
    <g id="xtick_1">
     <g id="line2d_1">
      <defs>
       <path id="ma37f53f31f" d="M 0 0 
L 0 3.5 
" style="stroke: #000000; stroke-width: 0.8"/>
      </defs>
      <g>
       <use xlink:href="#ma37f53f31f" x="61.13819" y="677.68" style="stroke: #000000; stroke-width: 0.8"/>
      </g>
     </g>
     <g id="text_1">
      <!-- −1.00 -->
      <g transform="translate(38.154206 696.077656) scale(0.15 -0.15)">
       <defs>
        <path id="DejaVuSans-2212" d="M 678 2272 
L 4684 2272 
L 4684 1741 
L 678 1741 
L 678 2272 
z
" transform="scale(0.015625)"/>
        <path id="DejaVuSans-31" d="M 794 531 
L 1825 531 
L 1825 4091 
L 703 3866 
L 703 4441 
L 1819 4666 
L 2450 4666 
L 2450 531 
L 3481 531 
L 3481 0 
L 794 0 
L 794 531 
z
" transform="scale(0.015625)"/>
        <path id="DejaVuSans-2e" d="M 684 794 
L 1344 794 
L 1344 0 
L 684 0 
L 684 794 
z
" transform="scale(0.015625)"/>
        <path id="DejaVuSans-30" d="M 2034 4250 
Q 1547 4250 1301 3770 
Q 1056 3291 1056 2328 
Q 1056 1369 1301 889 
Q 1547 409 2034 409 
Q 2525 409 2770 889 
Q 3016 1369 3016 2328 
Q 3016 3291 2770 3770 
Q 2525 4250 2034 4250 
z
M 2034 4750 
Q 2819 4750 3233 4129 
Q 3647 3509 3647 2328 
Q 3647 1150 3233 529 
Q 2819 -91 2034 -91 
Q 1250 -91 836 529 
Q 422 1150 422 2328 
Q 422 3509 836 4129 
Q 1250 4750 2034 4750 
z
" transform="scale(0.015625)"/>
       </defs>
       <use xlink:href="#DejaVuSans-2212"/>
       <use xlink:href="#DejaVuSans-31" x="83.789062"/>
       <use xlink:href="#DejaVuSans-2e" x="147.412109"/>
       <use xlink:href="#DejaVuSans-30" x="179.199219"/>
       <use xlink:href="#DejaVuSans-30" x="242.822266"/>
      </g>
     </g>
    </g>
    <g id="xtick_2">
     <g id="line2d_2">
      <g>
       <use xlink:href="#ma37f53f31f" x="138.426627" y="677.68" style="stroke: #000000; stroke-width: 0.8"/>
      </g>
     </g>
     <g id="text_2">
      <!-- −0.75 -->
      <g transform="translate(115.442642 696.077656) scale(0.15 -0.15)">
       <defs>
        <path id="DejaVuSans-37" d="M 525 4666 
L 3525 4666 
L 3525 4397 
L 1831 0 
L 1172 0 
L 2766 4134 
L 525 4134 
L 525 4666 
z
" transform="scale(0.015625)"/>
        <path id="DejaVuSans-35" d="M 691 4666 
L 3169 4666 
L 3169 4134 
L 1269 4134 
L 1269 2991 
Q 1406 3038 1543 3061 
Q 1681 3084 1819 3084 
Q 2600 3084 3056 2656 
Q 3513 2228 3513 1497 
Q 3513 744 3044 326 
Q 2575 -91 1722 -91 
Q 1428 -91 1123 -41 
Q 819 9 494 109 
L 494 744 
Q 775 591 1075 516 
Q 1375 441 1709 441 
Q 2250 441 2565 725 
Q 2881 1009 2881 1497 
Q 2881 1984 2565 2268 
Q 2250 2553 1709 2553 
Q 1456 2553 1204 2497 
Q 953 2441 691 2322 
L 691 4666 
z
" transform="scale(0.015625)"/>
       </defs>
       <use xlink:href="#DejaVuSans-2212"/>
       <use xlink:href="#DejaVuSans-30" x="83.789062"/>
       <use xlink:href="#DejaVuSans-2e" x="147.412109"/>
       <use xlink:href="#DejaVuSans-37" x="179.199219"/>
       <use xlink:href="#DejaVuSans-35" x="242.822266"/>
      </g>
     </g>
    </g>
    <g id="xtick_3">
     <g id="line2d_3">
      <g>
       <use xlink:href="#ma37f53f31f" x="215.715063" y="677.68" style="stroke: #000000; stroke-width: 0.8"/>
      </g>
     </g>
     <g id="text_3">
      <!-- −0.50 -->
      <g transform="translate(192.731079 696.077656) scale(0.15 -0.15)">
       <use xlink:href="#DejaVuSans-2212"/>
       <use xlink:href="#DejaVuSans-30" x="83.789062"/>
       <use xlink:href="#DejaVuSans-2e" x="147.412109"/>
       <use xlink:href="#DejaVuSans-35" x="179.199219"/>
       <use xlink:href="#DejaVuSans-30" x="242.822266"/>
      </g>
     </g>
    </g>
    <g id="xtick_4">
     <g id="line2d_4">
      <g>
       <use xlink:href="#ma37f53f31f" x="293.0035" y="677.68" style="stroke: #000000; stroke-width: 0.8"/>
      </g>
     </g>
     <g id="text_4">
      <!-- −0.25 -->
      <g transform="translate(270.019515 696.077656) scale(0.15 -0.15)">
       <defs>
        <path id="DejaVuSans-32" d="M 1228 531 
L 3431 531 
L 3431 0 
L 469 0 
L 469 531 
Q 828 903 1448 1529 
Q 2069 2156 2228 2338 
Q 2531 2678 2651 2914 
Q 2772 3150 2772 3378 
Q 2772 3750 2511 3984 
Q 2250 4219 1831 4219 
Q 1534 4219 1204 4116 
Q 875 4013 500 3803 
L 500 4441 
Q 881 4594 1212 4672 
Q 1544 4750 1819 4750 
Q 2544 4750 2975 4387 
Q 3406 4025 3406 3419 
Q 3406 3131 3298 2873 
Q 3191 2616 2906 2266 
Q 2828 2175 2409 1742 
Q 1991 1309 1228 531 
z
" transform="scale(0.015625)"/>
       </defs>
       <use xlink:href="#DejaVuSans-2212"/>
       <use xlink:href="#DejaVuSans-30" x="83.789062"/>
       <use xlink:href="#DejaVuSans-2e" x="147.412109"/>
       <use xlink:href="#DejaVuSans-32" x="179.199219"/>
       <use xlink:href="#DejaVuSans-35" x="242.822266"/>
      </g>
     </g>
    </g>
    <g id="xtick_5">
     <g id="line2d_5">
      <g>
       <use xlink:href="#ma37f53f31f" x="370.291936" y="677.68" style="stroke: #000000; stroke-width: 0.8"/>
      </g>
     </g>
     <g id="text_5">
      <!-- 0.00 -->
      <g transform="translate(353.592717 696.077656) scale(0.15 -0.15)">
       <use xlink:href="#DejaVuSans-30"/>
       <use xlink:href="#DejaVuSans-2e" x="63.623047"/>
       <use xlink:href="#DejaVuSans-30" x="95.410156"/>
       <use xlink:href="#DejaVuSans-30" x="159.033203"/>
      </g>
     </g>
    </g>
    <g id="xtick_6">
     <g id="line2d_6">
      <g>
       <use xlink:href="#ma37f53f31f" x="447.580372" y="677.68" style="stroke: #000000; stroke-width: 0.8"/>
      </g>
     </g>
     <g id="text_6">
      <!-- 0.25 -->
      <g transform="translate(430.881154 696.077656) scale(0.15 -0.15)">
       <use xlink:href="#DejaVuSans-30"/>
       <use xlink:href="#DejaVuSans-2e" x="63.623047"/>
       <use xlink:href="#DejaVuSans-32" x="95.410156"/>
       <use xlink:href="#DejaVuSans-35" x="159.033203"/>
      </g>
     </g>
    </g>
    <g id="xtick_7">
     <g id="line2d_7">
      <g>
       <use xlink:href="#ma37f53f31f" x="524.868809" y="677.68" style="stroke: #000000; stroke-width: 0.8"/>
      </g>
     </g>
     <g id="text_7">
      <!-- 0.50 -->
      <g transform="translate(508.16959 696.077656) scale(0.15 -0.15)">
       <use xlink:href="#DejaVuSans-30"/>
       <use xlink:href="#DejaVuSans-2e" x="63.623047"/>
       <use xlink:href="#DejaVuSans-35" x="95.410156"/>
       <use xlink:href="#DejaVuSans-30" x="159.033203"/>
      </g>
     </g>
    </g>
    <g id="xtick_8">
     <g id="line2d_8">
      <g>
       <use xlink:href="#ma37f53f31f" x="602.157245" y="677.68" style="stroke: #000000; stroke-width: 0.8"/>
      </g>
     </g>
     <g id="text_8">
      <!-- 0.75 -->
      <g transform="translate(585.458027 696.077656) scale(0.15 -0.15)">
       <use xlink:href="#DejaVuSans-30"/>
       <use xlink:href="#DejaVuSans-2e" x="63.623047"/>
       <use xlink:href="#DejaVuSans-37" x="95.410156"/>
       <use xlink:href="#DejaVuSans-35" x="159.033203"/>
      </g>
     </g>
    </g>
    <g id="xtick_9">
     <g id="line2d_9">
      <g>
       <use xlink:href="#ma37f53f31f" x="679.445682" y="677.68" style="stroke: #000000; stroke-width: 0.8"/>
      </g>
     </g>
     <g id="text_9">
      <!-- 1.00 -->
      <g transform="translate(662.746463 696.077656) scale(0.15 -0.15)">
       <use xlink:href="#DejaVuSans-31"/>
       <use xlink:href="#DejaVuSans-2e" x="63.623047"/>
       <use xlink:href="#DejaVuSans-30" x="95.410156"/>
       <use xlink:href="#DejaVuSans-30" x="159.033203"/>
      </g>
     </g>
    </g>
    <g id="text_10">
     <!-- persistence_score -->
     <g transform="translate(292.165 718.394063) scale(0.2 -0.2)">
      <defs>
       <path id="DejaVuSans-70" d="M 1159 525 
L 1159 -1331 
L 581 -1331 
L 581 3500 
L 1159 3500 
L 1159 2969 
Q 1341 3281 1617 3432 
Q 1894 3584 2278 3584 
Q 2916 3584 3314 3078 
Q 3713 2572 3713 1747 
Q 3713 922 3314 415 
Q 2916 -91 2278 -91 
Q 1894 -91 1617 61 
Q 1341 213 1159 525 
z
M 3116 1747 
Q 3116 2381 2855 2742 
Q 2594 3103 2138 3103 
Q 1681 3103 1420 2742 
Q 1159 2381 1159 1747 
Q 1159 1113 1420 752 
Q 1681 391 2138 391 
Q 2594 391 2855 752 
Q 3116 1113 3116 1747 
z
" transform="scale(0.015625)"/>
       <path id="DejaVuSans-65" d="M 3597 1894 
L 3597 1613 
L 953 1613 
Q 991 1019 1311 708 
Q 1631 397 2203 397 
Q 2534 397 2845 478 
Q 3156 559 3463 722 
L 3463 178 
Q 3153 47 2828 -22 
Q 2503 -91 2169 -91 
Q 1331 -91 842 396 
Q 353 884 353 1716 
Q 353 2575 817 3079 
Q 1281 3584 2069 3584 
Q 2775 3584 3186 3129 
Q 3597 2675 3597 1894 
z
M 3022 2063 
Q 3016 2534 2758 2815 
Q 2500 3097 2075 3097 
Q 1594 3097 1305 2825 
Q 1016 2553 972 2059 
L 3022 2063 
z
" transform="scale(0.015625)"/>
       <path id="DejaVuSans-72" d="M 2631 2963 
Q 2534 3019 2420 3045 
Q 2306 3072 2169 3072 
Q 1681 3072 1420 2755 
Q 1159 2438 1159 1844 
L 1159 0 
L 581 0 
L 581 3500 
L 1159 3500 
L 1159 2956 
Q 1341 3275 1631 3429 
Q 1922 3584 2338 3584 
Q 2397 3584 2469 3576 
Q 2541 3569 2628 3553 
L 2631 2963 
z
" transform="scale(0.015625)"/>
       <path id="DejaVuSans-73" d="M 2834 3397 
L 2834 2853 
Q 2591 2978 2328 3040 
Q 2066 3103 1784 3103 
Q 1356 3103 1142 2972 
Q 928 2841 928 2578 
Q 928 2378 1081 2264 
Q 1234 2150 1697 2047 
L 1894 2003 
Q 2506 1872 2764 1633 
Q 3022 1394 3022 966 
Q 3022 478 2636 193 
Q 2250 -91 1575 -91 
Q 1294 -91 989 -36 
Q 684 19 347 128 
L 347 722 
Q 666 556 975 473 
Q 1284 391 1588 391 
Q 1994 391 2212 530 
Q 2431 669 2431 922 
Q 2431 1156 2273 1281 
Q 2116 1406 1581 1522 
L 1381 1569 
Q 847 1681 609 1914 
Q 372 2147 372 2553 
Q 372 3047 722 3315 
Q 1072 3584 1716 3584 
Q 2034 3584 2315 3537 
Q 2597 3491 2834 3397 
z
" transform="scale(0.015625)"/>
       <path id="DejaVuSans-69" d="M 603 3500 
L 1178 3500 
L 1178 0 
L 603 0 
L 603 3500 
z
M 603 4863 
L 1178 4863 
L 1178 4134 
L 603 4134 
L 603 4863 
z
" transform="scale(0.015625)"/>
       <path id="DejaVuSans-74" d="M 1172 4494 
L 1172 3500 
L 2356 3500 
L 2356 3053 
L 1172 3053 
L 1172 1153 
Q 1172 725 1289 603 
Q 1406 481 1766 481 
L 2356 481 
L 2356 0 
L 1766 0 
Q 1100 0 847 248 
Q 594 497 594 1153 
L 594 3053 
L 172 3053 
L 172 3500 
L 594 3500 
L 594 4494 
L 1172 4494 
z
" transform="scale(0.015625)"/>
       <path id="DejaVuSans-6e" d="M 3513 2113 
L 3513 0 
L 2938 0 
L 2938 2094 
Q 2938 2591 2744 2837 
Q 2550 3084 2163 3084 
Q 1697 3084 1428 2787 
Q 1159 2491 1159 1978 
L 1159 0 
L 581 0 
L 581 3500 
L 1159 3500 
L 1159 2956 
Q 1366 3272 1645 3428 
Q 1925 3584 2291 3584 
Q 2894 3584 3203 3211 
Q 3513 2838 3513 2113 
z
" transform="scale(0.015625)"/>
       <path id="DejaVuSans-63" d="M 3122 3366 
L 3122 2828 
Q 2878 2963 2633 3030 
Q 2388 3097 2138 3097 
Q 1578 3097 1268 2742 
Q 959 2388 959 1747 
Q 959 1106 1268 751 
Q 1578 397 2138 397 
Q 2388 397 2633 464 
Q 2878 531 3122 666 
L 3122 134 
Q 2881 22 2623 -34 
Q 2366 -91 2075 -91 
Q 1284 -91 818 406 
Q 353 903 353 1747 
Q 353 2603 823 3093 
Q 1294 3584 2113 3584 
Q 2378 3584 2631 3529 
Q 2884 3475 3122 3366 
z
" transform="scale(0.015625)"/>
       <path id="DejaVuSans-5f" d="M 3263 -1063 
L 3263 -1509 
L -63 -1509 
L -63 -1063 
L 3263 -1063 
z
" transform="scale(0.015625)"/>
       <path id="DejaVuSans-6f" d="M 1959 3097 
Q 1497 3097 1228 2736 
Q 959 2375 959 1747 
Q 959 1119 1226 758 
Q 1494 397 1959 397 
Q 2419 397 2687 759 
Q 2956 1122 2956 1747 
Q 2956 2369 2687 2733 
Q 2419 3097 1959 3097 
z
M 1959 3584 
Q 2709 3584 3137 3096 
Q 3566 2609 3566 1747 
Q 3566 888 3137 398 
Q 2709 -91 1959 -91 
Q 1206 -91 779 398 
Q 353 888 353 1747 
Q 353 2609 779 3096 
Q 1206 3584 1959 3584 
z
" transform="scale(0.015625)"/>
      </defs>
      <use xlink:href="#DejaVuSans-70"/>
      <use xlink:href="#DejaVuSans-65" x="63.476562"/>
      <use xlink:href="#DejaVuSans-72" x="125"/>
      <use xlink:href="#DejaVuSans-73" x="166.113281"/>
      <use xlink:href="#DejaVuSans-69" x="218.212891"/>
      <use xlink:href="#DejaVuSans-73" x="245.996094"/>
      <use xlink:href="#DejaVuSans-74" x="298.095703"/>
      <use xlink:href="#DejaVuSans-65" x="337.304688"/>
      <use xlink:href="#DejaVuSans-6e" x="398.828125"/>
      <use xlink:href="#DejaVuSans-63" x="462.207031"/>
      <use xlink:href="#DejaVuSans-65" x="517.1875"/>
      <use xlink:href="#DejaVuSans-5f" x="578.710938"/>
      <use xlink:href="#DejaVuSans-73" x="628.710938"/>
      <use xlink:href="#DejaVuSans-63" x="680.810547"/>
      <use xlink:href="#DejaVuSans-6f" x="735.791016"/>
      <use xlink:href="#DejaVuSans-72" x="796.972656"/>
      <use xlink:href="#DejaVuSans-65" x="835.835938"/>
     </g>
    </g>
   </g>
   <g id="matplotlib.axis_2">
    <g id="ytick_1">
     <g id="line2d_10">
      <defs>
       <path id="mecf9c2fd1b" d="M 0 0 
L -3.5 0 
" style="stroke: #000000; stroke-width: 0.8"/>
      </defs>
      <g>
       <use xlink:href="#mecf9c2fd1b" x="54.605" y="648.485946" style="stroke: #000000; stroke-width: 0.8"/>
      </g>
     </g>
     <g id="text_11">
      <!-- 0.00 -->
      <g transform="translate(14.206563 654.184774) scale(0.15 -0.15)">
       <use xlink:href="#DejaVuSans-30"/>
       <use xlink:href="#DejaVuSans-2e" x="63.623047"/>
       <use xlink:href="#DejaVuSans-30" x="95.410156"/>
       <use xlink:href="#DejaVuSans-30" x="159.033203"/>
      </g>
     </g>
    </g>
    <g id="ytick_2">
     <g id="line2d_11">
      <g>
       <use xlink:href="#mecf9c2fd1b" x="54.605" y="571.016861" style="stroke: #000000; stroke-width: 0.8"/>
      </g>
     </g>
     <g id="text_12">
      <!-- 0.05 -->
      <g transform="translate(14.206563 576.715689) scale(0.15 -0.15)">
       <use xlink:href="#DejaVuSans-30"/>
       <use xlink:href="#DejaVuSans-2e" x="63.623047"/>
       <use xlink:href="#DejaVuSans-30" x="95.410156"/>
       <use xlink:href="#DejaVuSans-35" x="159.033203"/>
      </g>
     </g>
    </g>
    <g id="ytick_3">
     <g id="line2d_12">
      <g>
       <use xlink:href="#mecf9c2fd1b" x="54.605" y="493.547775" style="stroke: #000000; stroke-width: 0.8"/>
      </g>
     </g>
     <g id="text_13">
      <!-- 0.10 -->
      <g transform="translate(14.206563 499.246603) scale(0.15 -0.15)">
       <use xlink:href="#DejaVuSans-30"/>
       <use xlink:href="#DejaVuSans-2e" x="63.623047"/>
       <use xlink:href="#DejaVuSans-31" x="95.410156"/>
       <use xlink:href="#DejaVuSans-30" x="159.033203"/>
      </g>
     </g>
    </g>
    <g id="ytick_4">
     <g id="line2d_13">
      <g>
       <use xlink:href="#mecf9c2fd1b" x="54.605" y="416.07869" style="stroke: #000000; stroke-width: 0.8"/>
      </g>
     </g>
     <g id="text_14">
      <!-- 0.15 -->
      <g transform="translate(14.206563 421.777518) scale(0.15 -0.15)">
       <use xlink:href="#DejaVuSans-30"/>
       <use xlink:href="#DejaVuSans-2e" x="63.623047"/>
       <use xlink:href="#DejaVuSans-31" x="95.410156"/>
       <use xlink:href="#DejaVuSans-35" x="159.033203"/>
      </g>
     </g>
    </g>
    <g id="ytick_5">
     <g id="line2d_14">
      <g>
       <use xlink:href="#mecf9c2fd1b" x="54.605" y="338.609604" style="stroke: #000000; stroke-width: 0.8"/>
      </g>
     </g>
     <g id="text_15">
      <!-- 0.20 -->
      <g transform="translate(14.206563 344.308433) scale(0.15 -0.15)">
       <use xlink:href="#DejaVuSans-30"/>
       <use xlink:href="#DejaVuSans-2e" x="63.623047"/>
       <use xlink:href="#DejaVuSans-32" x="95.410156"/>
       <use xlink:href="#DejaVuSans-30" x="159.033203"/>
      </g>
     </g>
    </g>
    <g id="ytick_6">
     <g id="line2d_15">
      <g>
       <use xlink:href="#mecf9c2fd1b" x="54.605" y="261.140519" style="stroke: #000000; stroke-width: 0.8"/>
      </g>
     </g>
     <g id="text_16">
      <!-- 0.25 -->
      <g transform="translate(14.206563 266.839347) scale(0.15 -0.15)">
       <use xlink:href="#DejaVuSans-30"/>
       <use xlink:href="#DejaVuSans-2e" x="63.623047"/>
       <use xlink:href="#DejaVuSans-32" x="95.410156"/>
       <use xlink:href="#DejaVuSans-35" x="159.033203"/>
      </g>
     </g>
    </g>
    <g id="ytick_7">
     <g id="line2d_16">
      <g>
       <use xlink:href="#mecf9c2fd1b" x="54.605" y="183.671434" style="stroke: #000000; stroke-width: 0.8"/>
      </g>
     </g>
     <g id="text_17">
      <!-- 0.30 -->
      <g transform="translate(14.206563 189.370262) scale(0.15 -0.15)">
       <defs>
        <path id="DejaVuSans-33" d="M 2597 2516 
Q 3050 2419 3304 2112 
Q 3559 1806 3559 1356 
Q 3559 666 3084 287 
Q 2609 -91 1734 -91 
Q 1441 -91 1130 -33 
Q 819 25 488 141 
L 488 750 
Q 750 597 1062 519 
Q 1375 441 1716 441 
Q 2309 441 2620 675 
Q 2931 909 2931 1356 
Q 2931 1769 2642 2001 
Q 2353 2234 1838 2234 
L 1294 2234 
L 1294 2753 
L 1863 2753 
Q 2328 2753 2575 2939 
Q 2822 3125 2822 3475 
Q 2822 3834 2567 4026 
Q 2313 4219 1838 4219 
Q 1578 4219 1281 4162 
Q 984 4106 628 3988 
L 628 4550 
Q 988 4650 1302 4700 
Q 1616 4750 1894 4750 
Q 2613 4750 3031 4423 
Q 3450 4097 3450 3541 
Q 3450 3153 3228 2886 
Q 3006 2619 2597 2516 
z
" transform="scale(0.015625)"/>
       </defs>
       <use xlink:href="#DejaVuSans-30"/>
       <use xlink:href="#DejaVuSans-2e" x="63.623047"/>
       <use xlink:href="#DejaVuSans-33" x="95.410156"/>
       <use xlink:href="#DejaVuSans-30" x="159.033203"/>
      </g>
     </g>
    </g>
    <g id="ytick_8">
     <g id="line2d_17">
      <g>
       <use xlink:href="#mecf9c2fd1b" x="54.605" y="106.202348" style="stroke: #000000; stroke-width: 0.8"/>
      </g>
     </g>
     <g id="text_18">
      <!-- 0.35 -->
      <g transform="translate(14.206563 111.901176) scale(0.15 -0.15)">
       <use xlink:href="#DejaVuSans-30"/>
       <use xlink:href="#DejaVuSans-2e" x="63.623047"/>
       <use xlink:href="#DejaVuSans-33" x="95.410156"/>
       <use xlink:href="#DejaVuSans-35" x="159.033203"/>
      </g>
     </g>
    </g>
    <g id="ytick_9">
     <g id="line2d_18">
      <g>
       <use xlink:href="#mecf9c2fd1b" x="54.605" y="28.733263" style="stroke: #000000; stroke-width: 0.8"/>
      </g>
     </g>
     <g id="text_19">
      <!-- 0.40 -->
      <g transform="translate(14.206563 34.432091) scale(0.15 -0.15)">
       <defs>
        <path id="DejaVuSans-34" d="M 2419 4116 
L 825 1625 
L 2419 1625 
L 2419 4116 
z
M 2253 4666 
L 3047 4666 
L 3047 1625 
L 3713 1625 
L 3713 1100 
L 3047 1100 
L 3047 0 
L 2419 0 
L 2419 1100 
L 313 1100 
L 313 1709 
L 2253 4666 
z
" transform="scale(0.015625)"/>
       </defs>
       <use xlink:href="#DejaVuSans-30"/>
       <use xlink:href="#DejaVuSans-2e" x="63.623047"/>
       <use xlink:href="#DejaVuSans-34" x="95.410156"/>
       <use xlink:href="#DejaVuSans-30" x="159.033203"/>
      </g>
     </g>
    </g>
    <g id="text_20">
     <!-- adaptation_Red -->
     <g transform="translate(5.490938 422.39625) rotate(-90) scale(0.2 -0.2)">
      <defs>
       <path id="DejaVuSans-61" d="M 2194 1759 
Q 1497 1759 1228 1600 
Q 959 1441 959 1056 
Q 959 750 1161 570 
Q 1363 391 1709 391 
Q 2188 391 2477 730 
Q 2766 1069 2766 1631 
L 2766 1759 
L 2194 1759 
z
M 3341 1997 
L 3341 0 
L 2766 0 
L 2766 531 
Q 2569 213 2275 61 
Q 1981 -91 1556 -91 
Q 1019 -91 701 211 
Q 384 513 384 1019 
Q 384 1609 779 1909 
Q 1175 2209 1959 2209 
L 2766 2209 
L 2766 2266 
Q 2766 2663 2505 2880 
Q 2244 3097 1772 3097 
Q 1472 3097 1187 3025 
Q 903 2953 641 2809 
L 641 3341 
Q 956 3463 1253 3523 
Q 1550 3584 1831 3584 
Q 2591 3584 2966 3190 
Q 3341 2797 3341 1997 
z
" transform="scale(0.015625)"/>
       <path id="DejaVuSans-64" d="M 2906 2969 
L 2906 4863 
L 3481 4863 
L 3481 0 
L 2906 0 
L 2906 525 
Q 2725 213 2448 61 
Q 2172 -91 1784 -91 
Q 1150 -91 751 415 
Q 353 922 353 1747 
Q 353 2572 751 3078 
Q 1150 3584 1784 3584 
Q 2172 3584 2448 3432 
Q 2725 3281 2906 2969 
z
M 947 1747 
Q 947 1113 1208 752 
Q 1469 391 1925 391 
Q 2381 391 2643 752 
Q 2906 1113 2906 1747 
Q 2906 2381 2643 2742 
Q 2381 3103 1925 3103 
Q 1469 3103 1208 2742 
Q 947 2381 947 1747 
z
" transform="scale(0.015625)"/>
       <path id="DejaVuSans-52" d="M 2841 2188 
Q 3044 2119 3236 1894 
Q 3428 1669 3622 1275 
L 4263 0 
L 3584 0 
L 2988 1197 
Q 2756 1666 2539 1819 
Q 2322 1972 1947 1972 
L 1259 1972 
L 1259 0 
L 628 0 
L 628 4666 
L 2053 4666 
Q 2853 4666 3247 4331 
Q 3641 3997 3641 3322 
Q 3641 2881 3436 2590 
Q 3231 2300 2841 2188 
z
M 1259 4147 
L 1259 2491 
L 2053 2491 
Q 2509 2491 2742 2702 
Q 2975 2913 2975 3322 
Q 2975 3731 2742 3939 
Q 2509 4147 2053 4147 
L 1259 4147 
z
" transform="scale(0.015625)"/>
      </defs>
      <use xlink:href="#DejaVuSans-61"/>
      <use xlink:href="#DejaVuSans-64" x="61.279297"/>
      <use xlink:href="#DejaVuSans-61" x="124.755859"/>
      <use xlink:href="#DejaVuSans-70" x="186.035156"/>
      <use xlink:href="#DejaVuSans-74" x="249.511719"/>
      <use xlink:href="#DejaVuSans-61" x="288.720703"/>
      <use xlink:href="#DejaVuSans-74" x="350"/>
      <use xlink:href="#DejaVuSans-69" x="389.208984"/>
      <use xlink:href="#DejaVuSans-6f" x="416.992188"/>
      <use xlink:href="#DejaVuSans-6e" x="478.173828"/>
      <use xlink:href="#DejaVuSans-5f" x="541.552734"/>
      <use xlink:href="#DejaVuSans-52" x="591.552734"/>
      <use xlink:href="#DejaVuSans-65" x="656.535156"/>
      <use xlink:href="#DejaVuSans-64" x="718.058594"/>
     </g>
    </g>
   </g>
   <g id="line2d_19">
    <path d="M 84.359318 548.522145 
L 90.370292 546.045987 
L 96.381265 543.569829 
L 102.392238 541.093672 
L 108.403212 538.617514 
L 114.414185 536.141356 
L 120.425158 533.665198 
L 126.436132 531.18904 
L 132.447105 528.712883 
L 138.458079 526.236725 
L 144.469052 523.760567 
L 150.480025 521.284409 
L 156.490999 518.808251 
L 162.501972 516.332093 
L 168.512945 513.855936 
L 174.523919 511.379778 
L 180.534892 508.90362 
L 186.545865 506.427462 
L 192.556839 503.951304 
L 198.567812 501.475147 
L 204.578786 498.998989 
L 210.589759 496.522831 
L 216.600732 494.046673 
L 222.611706 491.570515 
L 228.622679 489.094358 
L 234.633652 486.6182 
L 240.644626 484.142042 
L 246.655599 481.665884 
L 252.666573 479.189726 
L 258.677546 476.713568 
L 264.688519 474.237411 
L 270.699493 471.761253 
L 276.710466 469.285095 
L 282.721439 466.808937 
L 288.732413 464.332779 
L 294.743386 461.856622 
L 300.75436 459.380464 
L 306.765333 456.904306 
L 312.776306 454.428148 
L 318.78728 451.95199 
L 324.798253 449.475832 
L 330.809226 446.999675 
L 336.8202 444.523517 
L 342.831173 442.047359 
L 348.842146 439.571201 
L 354.85312 437.095043 
L 360.864093 434.618886 
L 366.875067 432.142728 
L 372.88604 429.66657 
L 378.897013 427.190412 
L 384.907987 424.714254 
L 390.91896 422.238096 
L 396.929933 419.761939 
L 402.940907 417.285781 
L 408.95188 414.809623 
L 414.962854 412.333465 
L 420.973827 409.857307 
L 426.9848 407.38115 
L 432.995774 404.904992 
L 439.006747 402.428834 
L 445.01772 399.952676 
L 451.028694 397.476518 
L 457.039667 395.00036 
L 463.05064 392.524203 
L 469.061614 390.048045 
L 475.072587 387.571887 
L 481.083561 385.095729 
L 487.094534 382.619571 
L 493.105507 380.143414 
L 499.116481 377.667256 
L 505.127454 375.191098 
L 511.138427 372.71494 
L 517.149401 370.238782 
L 523.160374 367.762624 
L 529.171348 365.286467 
L 535.182321 362.810309 
L 541.193294 360.334151 
L 547.204268 357.857993 
L 553.215241 355.381835 
L 559.226214 352.905678 
L 565.237188 350.42952 
L 571.248161 347.953362 
L 577.259135 345.477204 
L 583.270108 343.001046 
L 589.281081 340.524888 
L 595.292055 338.048731 
L 601.303028 335.572573 
L 607.314001 333.096415 
L 613.324975 330.620257 
L 619.335948 328.144099 
L 625.346921 325.667942 
L 631.357895 323.191784 
L 637.368868 320.715626 
L 643.379842 318.239468 
L 649.390815 315.76331 
L 655.401788 313.287152 
L 661.412762 310.810995 
L 667.423735 308.334837 
L 673.434708 305.858679 
L 679.445682 303.382521 
" clip-path="url(#p771cf0abbb)" style="fill: none; stroke: #fa8072; stroke-width: 2.25; stroke-linecap: square"/>
   </g>
   <g id="patch_3">
    <path d="M 54.605 677.68 
L 54.605 10.8 
" style="fill: none; stroke: #000000; stroke-width: 0.8; stroke-linejoin: miter; stroke-linecap: square"/>
   </g>
   <g id="patch_4">
    <path d="M 54.605 677.68 
L 709.2 677.68 
" style="fill: none; stroke: #000000; stroke-width: 0.8; stroke-linejoin: miter; stroke-linecap: square"/>
   </g>
  </g>
 </g>
 <defs>
  <clipPath id="p771cf0abbb">
   <rect x="54.605" y="10.8" width="654.595" height="666.88"/>
  </clipPath>
 </defs>
</svg>
