<?xml version="1.0" encoding="utf-8" standalone="no"?>
<!DOCTYPE svg PUBLIC "-//W3C//DTD SVG 1.1//EN"
  "http://www.w3.org/Graphics/SVG/1.1/DTD/svg11.dtd">
<svg xmlns:xlink="http://www.w3.org/1999/xlink" width="720pt" height="720pt" viewBox="0 0 720 720" xmlns="http://www.w3.org/2000/svg" version="1.1">
 <metadata>
  <rdf:RDF xmlns:dc="http://purl.org/dc/elements/1.1/" xmlns:cc="http://creativecommons.org/ns#" xmlns:rdf="http://www.w3.org/1999/02/22-rdf-syntax-ns#">
   <cc:Work>
    <dc:type rdf:resource="http://purl.org/dc/dcmitype/StillImage"/>
    <dc:date>2024-12-23T13:37:06.811974</dc:date>
    <dc:format>image/svg+xml</dc:format>
    <dc:creator>
     <cc:Agent>
      <dc:title>Matplotlib v3.9.2, https://matplotlib.org/</dc:title>
     </cc:Agent>
    </dc:creator>
   </cc:Work>
  </rdf:RDF>
 </metadata>
 <defs>
  <style type="text/css">*{stroke-linejoin: round; stroke-linecap: butt}</style>
 </defs>
 <g id="figure_1">
  <g id="patch_1">
   <path d="M 0 720 
L 720 720 
L 720 0 
L 0 0 
z
" style="fill: #ffffff"/>
  </g>
  <g id="axes_1">
   <g id="patch_2">
    <path d="M 47.82125 677.93875 
L 709.2 677.93875 
L 709.2 10.8 
L 47.82125 10.8 
z
" style="fill: #ffffff"/>
   </g>
   <g id="PathCollection_1">
    <defs>
     <path id="m1937b5fa99" d="M 0 3 
C 0.795609 3 1.55874 2.683901 2.12132 2.12132 
C 2.683901 1.55874 3 0.795609 3 0 
C 3 -0.795609 2.683901 -1.55874 2.12132 -2.12132 
C 1.55874 -2.683901 0.795609 -3 0 -3 
C -0.795609 -3 -1.55874 -2.683901 -2.12132 -2.12132 
C -2.683901 -1.55874 -3 -0.795609 -3 0 
C -3 0.795609 -2.683901 1.55874 -2.12132 2.12132 
C -1.55874 2.683901 -0.795609 3 0 3 
z
" style="stroke: #2e8b57; stroke-opacity: 0.8"/>
    </defs>
    <g clip-path="url(#pc4b6922c6f)">
     <use xlink:href="#m1937b5fa99" x="453.555839" y="354.783998" style="fill: #2e8b57; fill-opacity: 0.8; stroke: #2e8b57; stroke-opacity: 0.8"/>
     <use xlink:href="#m1937b5fa99" x="559.021549" y="41.124489" style="fill: #2e8b57; fill-opacity: 0.8; stroke: #2e8b57; stroke-opacity: 0.8"/>
     <use xlink:href="#m1937b5fa99" x="425.511277" y="563.187361" style="fill: #2e8b57; fill-opacity: 0.8; stroke: #2e8b57; stroke-opacity: 0.8"/>
     <use xlink:href="#m1937b5fa99" x="180.488101" y="473.913188" style="fill: #2e8b57; fill-opacity: 0.8; stroke: #2e8b57; stroke-opacity: 0.8"/>
     <use xlink:href="#m1937b5fa99" x="347.735627" y="505.868603" style="fill: #2e8b57; fill-opacity: 0.8; stroke: #2e8b57; stroke-opacity: 0.8"/>
     <use xlink:href="#m1937b5fa99" x="77.88392" y="578.262874" style="fill: #2e8b57; fill-opacity: 0.8; stroke: #2e8b57; stroke-opacity: 0.8"/>
     <use xlink:href="#m1937b5fa99" x="111.012048" y="639.783686" style="fill: #2e8b57; fill-opacity: 0.8; stroke: #2e8b57; stroke-opacity: 0.8"/>
     <use xlink:href="#m1937b5fa99" x="679.13733" y="489.44658" style="fill: #2e8b57; fill-opacity: 0.8; stroke: #2e8b57; stroke-opacity: 0.8"/>
     <use xlink:href="#m1937b5fa99" x="389.511514" y="613.204612" style="fill: #2e8b57; fill-opacity: 0.8; stroke: #2e8b57; stroke-opacity: 0.8"/>
     <use xlink:href="#m1937b5fa99" x="581.516202" y="647.614261" style="fill: #2e8b57; fill-opacity: 0.8; stroke: #2e8b57; stroke-opacity: 0.8"/>
     <use xlink:href="#m1937b5fa99" x="166.064346" y="620.956193" style="fill: #2e8b57; fill-opacity: 0.8; stroke: #2e8b57; stroke-opacity: 0.8"/>
     <use xlink:href="#m1937b5fa99" x="177.237155" y="611.578499" style="fill: #2e8b57; fill-opacity: 0.8; stroke: #2e8b57; stroke-opacity: 0.8"/>
     <use xlink:href="#m1937b5fa99" x="194.644444" y="440.889123" style="fill: #2e8b57; fill-opacity: 0.8; stroke: #2e8b57; stroke-opacity: 0.8"/>
     <use xlink:href="#m1937b5fa99" x="177.028666" y="121.196242" style="fill: #2e8b57; fill-opacity: 0.8; stroke: #2e8b57; stroke-opacity: 0.8"/>
     <use xlink:href="#m1937b5fa99" x="99.319824" y="505.761663" style="fill: #2e8b57; fill-opacity: 0.8; stroke: #2e8b57; stroke-opacity: 0.8"/>
    </g>
   </g>
   <g id="PolyCollection_1">
    <path d="M 77.88392 379.819116 
L 77.88392 642.603729 
L 83.957187 637.442361 
L 90.030454 633.74744 
L 96.103721 630.169146 
L 102.176987 626.558181 
L 108.250254 622.963409 
L 114.323521 619.032432 
L 120.396788 614.672859 
L 126.470055 611.430691 
L 132.543321 608.177704 
L 138.616588 603.520858 
L 144.689855 599.276455 
L 150.763122 595.45458 
L 156.836388 592.554384 
L 162.909655 589.867487 
L 168.982922 587.108275 
L 175.056189 583.427457 
L 181.129455 579.956623 
L 187.202722 578.886418 
L 193.275989 576.223864 
L 199.349256 573.515489 
L 205.422522 572.658173 
L 211.495789 570.079109 
L 217.569056 567.769683 
L 223.642323 566.45693 
L 229.715589 564.486294 
L 235.788856 564.064508 
L 241.862123 563.065548 
L 247.93539 562.832382 
L 254.008656 562.335995 
L 260.081923 561.281498 
L 266.15519 559.703034 
L 272.228457 560.556457 
L 278.301723 559.82453 
L 284.37499 558.177103 
L 290.448257 557.382349 
L 296.521524 556.345739 
L 302.594791 556.614002 
L 308.668057 557.261015 
L 314.741324 557.153206 
L 320.814591 557.611068 
L 326.887858 557.35705 
L 332.961124 556.883008 
L 339.034391 556.514425 
L 345.107658 556.145841 
L 351.180925 556.101051 
L 357.254191 556.336648 
L 363.327458 556.585823 
L 369.400725 556.72245 
L 375.473992 556.053507 
L 381.547258 556.032806 
L 387.620525 556.391655 
L 393.693792 556.927618 
L 399.767059 557.844461 
L 405.840325 558.41505 
L 411.913592 558.997704 
L 417.986859 559.593467 
L 424.060126 559.778407 
L 430.133392 560.415902 
L 436.206659 561.333805 
L 442.279926 561.79781 
L 448.353193 562.273868 
L 454.426459 562.021328 
L 460.499726 561.756882 
L 466.572993 561.867146 
L 472.64626 562.908597 
L 478.719527 562.811708 
L 484.792793 563.167706 
L 490.86606 563.930329 
L 496.939327 564.836871 
L 503.012594 566.373571 
L 509.08586 567.819552 
L 515.159127 568.088216 
L 521.232394 568.463037 
L 527.305661 569.369579 
L 533.378927 570.690363 
L 539.452194 571.274958 
L 545.525461 572.102146 
L 551.598728 572.977853 
L 557.671994 574.217887 
L 563.745261 575.387635 
L 569.818528 576.489876 
L 575.891795 577.671404 
L 581.965061 579.107207 
L 588.038328 580.542694 
L 594.111595 581.985565 
L 600.184862 583.166092 
L 606.258128 584.90116 
L 612.331395 586.370318 
L 618.404662 587.796121 
L 624.477929 589.221924 
L 630.551195 590.174957 
L 636.624462 590.817653 
L 642.697729 591.45311 
L 648.770996 592.088567 
L 654.844263 592.724024 
L 660.917529 593.359481 
L 666.990796 594.483317 
L 673.064063 595.078449 
L 679.13733 596.360978 
L 679.13733 131.80045 
L 679.13733 131.80045 
L 673.064063 136.181193 
L 666.990796 140.564787 
L 660.917529 144.948382 
L 654.844263 149.333384 
L 648.770996 153.73939 
L 642.697729 158.145395 
L 636.624462 163.219786 
L 630.551195 168.553383 
L 624.477929 173.886979 
L 618.404662 179.220575 
L 612.331395 183.999972 
L 606.258128 187.797625 
L 600.184862 191.595279 
L 594.111595 195.392932 
L 588.038328 199.190586 
L 581.965061 203.007891 
L 575.891795 208.67569 
L 569.818528 213.010026 
L 563.745261 216.99066 
L 557.671994 220.971293 
L 551.598728 224.951927 
L 545.525461 228.932561 
L 539.452194 232.913195 
L 533.378927 237.017675 
L 527.305661 241.388989 
L 521.232394 245.771064 
L 515.159127 250.154658 
L 509.08586 254.15744 
L 503.012594 258.598809 
L 496.939327 263.059514 
L 490.86606 267.525067 
L 484.792793 271.99062 
L 478.719527 276.419695 
L 472.64626 280.80727 
L 466.572993 285.021732 
L 460.499726 289.582418 
L 454.426459 294.075676 
L 448.353193 298.789639 
L 442.279926 303.249489 
L 436.206659 307.715042 
L 430.133392 311.957886 
L 424.060126 316.065567 
L 417.986859 320.145589 
L 411.913592 323.76303 
L 405.840325 326.192774 
L 399.767059 328.967595 
L 393.693792 331.587903 
L 387.620525 334.182955 
L 381.547258 339.728027 
L 375.473992 344.473348 
L 369.400725 349.218668 
L 363.327458 353.955806 
L 357.254191 356.623941 
L 351.180925 357.289533 
L 345.107658 361.472105 
L 339.034391 364.641062 
L 332.961124 367.21673 
L 326.887858 369.873612 
L 320.814591 371.599275 
L 314.741324 373.088287 
L 308.668057 374.626804 
L 302.594791 376.577986 
L 296.521524 379.303108 
L 290.448257 382.233735 
L 284.37499 383.906196 
L 278.301723 385.431777 
L 272.228457 386.079382 
L 266.15519 387.551395 
L 260.081923 388.553668 
L 254.008656 390.549785 
L 247.93539 391.334819 
L 241.862123 391.540495 
L 235.788856 392.829199 
L 229.715589 394.479439 
L 223.642323 395.830863 
L 217.569056 395.428599 
L 211.495789 396.817459 
L 205.422522 396.798744 
L 199.349256 397.286549 
L 193.275989 396.358037 
L 187.202722 395.19012 
L 181.129455 392.758885 
L 175.056189 392.354719 
L 168.982922 390.761846 
L 162.909655 390.8385 
L 156.836388 391.097404 
L 150.763122 391.087421 
L 144.689855 390.965379 
L 138.616588 390.260003 
L 132.543321 390.398764 
L 126.470055 388.869204 
L 120.396788 388.266144 
L 114.323521 388.454745 
L 108.250254 386.947552 
L 102.176987 385.586967 
L 96.103721 384.547884 
L 90.030454 383.931097 
L 83.957187 381.875107 
L 77.88392 379.819116 
z
" clip-path="url(#pc4b6922c6f)" style="fill: #2e8b57; fill-opacity: 0.15"/>
   </g>
   <g id="matplotlib.axis_1">
    <g id="xtick_1">
     <g id="line2d_1">
      <defs>
       <path id="mc34b8f18e3" d="M 0 0 
L 0 3.5 
" style="stroke: #000000; stroke-width: 0.8"/>
      </defs>
      <g>
       <use xlink:href="#mc34b8f18e3" x="56.848217" y="677.93875" style="stroke: #000000; stroke-width: 0.8"/>
      </g>
     </g>
     <g id="text_1">
      <!-- −1.00 -->
      <g transform="translate(33.864233 696.336406) scale(0.15 -0.15)">
       <defs>
        <path id="DejaVuSans-2212" d="M 678 2272 
L 4684 2272 
L 4684 1741 
L 678 1741 
L 678 2272 
z
" transform="scale(0.015625)"/>
        <path id="DejaVuSans-31" d="M 794 531 
L 1825 531 
L 1825 4091 
L 703 3866 
L 703 4441 
L 1819 4666 
L 2450 4666 
L 2450 531 
L 3481 531 
L 3481 0 
L 794 0 
L 794 531 
z
" transform="scale(0.015625)"/>
        <path id="DejaVuSans-2e" d="M 684 794 
L 1344 794 
L 1344 0 
L 684 0 
L 684 794 
z
" transform="scale(0.015625)"/>
        <path id="DejaVuSans-30" d="M 2034 4250 
Q 1547 4250 1301 3770 
Q 1056 3291 1056 2328 
Q 1056 1369 1301 889 
Q 1547 409 2034 409 
Q 2525 409 2770 889 
Q 3016 1369 3016 2328 
Q 3016 3291 2770 3770 
Q 2525 4250 2034 4250 
z
M 2034 4750 
Q 2819 4750 3233 4129 
Q 3647 3509 3647 2328 
Q 3647 1150 3233 529 
Q 2819 -91 2034 -91 
Q 1250 -91 836 529 
Q 422 1150 422 2328 
Q 422 3509 836 4129 
Q 1250 4750 2034 4750 
z
" transform="scale(0.015625)"/>
       </defs>
       <use xlink:href="#DejaVuSans-2212"/>
       <use xlink:href="#DejaVuSans-31" x="83.789062"/>
       <use xlink:href="#DejaVuSans-2e" x="147.412109"/>
       <use xlink:href="#DejaVuSans-30" x="179.199219"/>
       <use xlink:href="#DejaVuSans-30" x="242.822266"/>
      </g>
     </g>
    </g>
    <g id="xtick_2">
     <g id="line2d_2">
      <g>
       <use xlink:href="#mc34b8f18e3" x="135.291714" y="677.93875" style="stroke: #000000; stroke-width: 0.8"/>
      </g>
     </g>
     <g id="text_2">
      <!-- −0.75 -->
      <g transform="translate(112.30773 696.336406) scale(0.15 -0.15)">
       <defs>
        <path id="DejaVuSans-37" d="M 525 4666 
L 3525 4666 
L 3525 4397 
L 1831 0 
L 1172 0 
L 2766 4134 
L 525 4134 
L 525 4666 
z
" transform="scale(0.015625)"/>
        <path id="DejaVuSans-35" d="M 691 4666 
L 3169 4666 
L 3169 4134 
L 1269 4134 
L 1269 2991 
Q 1406 3038 1543 3061 
Q 1681 3084 1819 3084 
Q 2600 3084 3056 2656 
Q 3513 2228 3513 1497 
Q 3513 744 3044 326 
Q 2575 -91 1722 -91 
Q 1428 -91 1123 -41 
Q 819 9 494 109 
L 494 744 
Q 775 591 1075 516 
Q 1375 441 1709 441 
Q 2250 441 2565 725 
Q 2881 1009 2881 1497 
Q 2881 1984 2565 2268 
Q 2250 2553 1709 2553 
Q 1456 2553 1204 2497 
Q 953 2441 691 2322 
L 691 4666 
z
" transform="scale(0.015625)"/>
       </defs>
       <use xlink:href="#DejaVuSans-2212"/>
       <use xlink:href="#DejaVuSans-30" x="83.789062"/>
       <use xlink:href="#DejaVuSans-2e" x="147.412109"/>
       <use xlink:href="#DejaVuSans-37" x="179.199219"/>
       <use xlink:href="#DejaVuSans-35" x="242.822266"/>
      </g>
     </g>
    </g>
    <g id="xtick_3">
     <g id="line2d_3">
      <g>
       <use xlink:href="#mc34b8f18e3" x="213.735211" y="677.93875" style="stroke: #000000; stroke-width: 0.8"/>
      </g>
     </g>
     <g id="text_3">
      <!-- −0.50 -->
      <g transform="translate(190.751227 696.336406) scale(0.15 -0.15)">
       <use xlink:href="#DejaVuSans-2212"/>
       <use xlink:href="#DejaVuSans-30" x="83.789062"/>
       <use xlink:href="#DejaVuSans-2e" x="147.412109"/>
       <use xlink:href="#DejaVuSans-35" x="179.199219"/>
       <use xlink:href="#DejaVuSans-30" x="242.822266"/>
      </g>
     </g>
    </g>
    <g id="xtick_4">
     <g id="line2d_4">
      <g>
       <use xlink:href="#mc34b8f18e3" x="292.178708" y="677.93875" style="stroke: #000000; stroke-width: 0.8"/>
      </g>
     </g>
     <g id="text_4">
      <!-- −0.25 -->
      <g transform="translate(269.194724 696.336406) scale(0.15 -0.15)">
       <defs>
        <path id="DejaVuSans-32" d="M 1228 531 
L 3431 531 
L 3431 0 
L 469 0 
L 469 531 
Q 828 903 1448 1529 
Q 2069 2156 2228 2338 
Q 2531 2678 2651 2914 
Q 2772 3150 2772 3378 
Q 2772 3750 2511 3984 
Q 2250 4219 1831 4219 
Q 1534 4219 1204 4116 
Q 875 4013 500 3803 
L 500 4441 
Q 881 4594 1212 4672 
Q 1544 4750 1819 4750 
Q 2544 4750 2975 4387 
Q 3406 4025 3406 3419 
Q 3406 3131 3298 2873 
Q 3191 2616 2906 2266 
Q 2828 2175 2409 1742 
Q 1991 1309 1228 531 
z
" transform="scale(0.015625)"/>
       </defs>
       <use xlink:href="#DejaVuSans-2212"/>
       <use xlink:href="#DejaVuSans-30" x="83.789062"/>
       <use xlink:href="#DejaVuSans-2e" x="147.412109"/>
       <use xlink:href="#DejaVuSans-32" x="179.199219"/>
       <use xlink:href="#DejaVuSans-35" x="242.822266"/>
      </g>
     </g>
    </g>
    <g id="xtick_5">
     <g id="line2d_5">
      <g>
       <use xlink:href="#mc34b8f18e3" x="370.622205" y="677.93875" style="stroke: #000000; stroke-width: 0.8"/>
      </g>
     </g>
     <g id="text_5">
      <!-- 0.00 -->
      <g transform="translate(353.922986 696.336406) scale(0.15 -0.15)">
       <use xlink:href="#DejaVuSans-30"/>
       <use xlink:href="#DejaVuSans-2e" x="63.623047"/>
       <use xlink:href="#DejaVuSans-30" x="95.410156"/>
       <use xlink:href="#DejaVuSans-30" x="159.033203"/>
      </g>
     </g>
    </g>
    <g id="xtick_6">
     <g id="line2d_6">
      <g>
       <use xlink:href="#mc34b8f18e3" x="449.065702" y="677.93875" style="stroke: #000000; stroke-width: 0.8"/>
      </g>
     </g>
     <g id="text_6">
      <!-- 0.25 -->
      <g transform="translate(432.366483 696.336406) scale(0.15 -0.15)">
       <use xlink:href="#DejaVuSans-30"/>
       <use xlink:href="#DejaVuSans-2e" x="63.623047"/>
       <use xlink:href="#DejaVuSans-32" x="95.410156"/>
       <use xlink:href="#DejaVuSans-35" x="159.033203"/>
      </g>
     </g>
    </g>
    <g id="xtick_7">
     <g id="line2d_7">
      <g>
       <use xlink:href="#mc34b8f18e3" x="527.509199" y="677.93875" style="stroke: #000000; stroke-width: 0.8"/>
      </g>
     </g>
     <g id="text_7">
      <!-- 0.50 -->
      <g transform="translate(510.809981 696.336406) scale(0.15 -0.15)">
       <use xlink:href="#DejaVuSans-30"/>
       <use xlink:href="#DejaVuSans-2e" x="63.623047"/>
       <use xlink:href="#DejaVuSans-35" x="95.410156"/>
       <use xlink:href="#DejaVuSans-30" x="159.033203"/>
      </g>
     </g>
    </g>
    <g id="xtick_8">
     <g id="line2d_8">
      <g>
       <use xlink:href="#mc34b8f18e3" x="605.952696" y="677.93875" style="stroke: #000000; stroke-width: 0.8"/>
      </g>
     </g>
     <g id="text_8">
      <!-- 0.75 -->
      <g transform="translate(589.253478 696.336406) scale(0.15 -0.15)">
       <use xlink:href="#DejaVuSans-30"/>
       <use xlink:href="#DejaVuSans-2e" x="63.623047"/>
       <use xlink:href="#DejaVuSans-37" x="95.410156"/>
       <use xlink:href="#DejaVuSans-35" x="159.033203"/>
      </g>
     </g>
    </g>
    <g id="xtick_9">
     <g id="line2d_9">
      <g>
       <use xlink:href="#mc34b8f18e3" x="684.396193" y="677.93875" style="stroke: #000000; stroke-width: 0.8"/>
      </g>
     </g>
     <g id="text_9">
      <!-- 1.00 -->
      <g transform="translate(667.696975 696.336406) scale(0.15 -0.15)">
       <use xlink:href="#DejaVuSans-31"/>
       <use xlink:href="#DejaVuSans-2e" x="63.623047"/>
       <use xlink:href="#DejaVuSans-30" x="95.410156"/>
       <use xlink:href="#DejaVuSans-30" x="159.033203"/>
      </g>
     </g>
    </g>
    <g id="text_10">
     <!-- persistence_score -->
     <g transform="translate(288.773125 718.652812) scale(0.2 -0.2)">
      <defs>
       <path id="DejaVuSans-70" d="M 1159 525 
L 1159 -1331 
L 581 -1331 
L 581 3500 
L 1159 3500 
L 1159 2969 
Q 1341 3281 1617 3432 
Q 1894 3584 2278 3584 
Q 2916 3584 3314 3078 
Q 3713 2572 3713 1747 
Q 3713 922 3314 415 
Q 2916 -91 2278 -91 
Q 1894 -91 1617 61 
Q 1341 213 1159 525 
z
M 3116 1747 
Q 3116 2381 2855 2742 
Q 2594 3103 2138 3103 
Q 1681 3103 1420 2742 
Q 1159 2381 1159 1747 
Q 1159 1113 1420 752 
Q 1681 391 2138 391 
Q 2594 391 2855 752 
Q 3116 1113 3116 1747 
z
" transform="scale(0.015625)"/>
       <path id="DejaVuSans-65" d="M 3597 1894 
L 3597 1613 
L 953 1613 
Q 991 1019 1311 708 
Q 1631 397 2203 397 
Q 2534 397 2845 478 
Q 3156 559 3463 722 
L 3463 178 
Q 3153 47 2828 -22 
Q 2503 -91 2169 -91 
Q 1331 -91 842 396 
Q 353 884 353 1716 
Q 353 2575 817 3079 
Q 1281 3584 2069 3584 
Q 2775 3584 3186 3129 
Q 3597 2675 3597 1894 
z
M 3022 2063 
Q 3016 2534 2758 2815 
Q 2500 3097 2075 3097 
Q 1594 3097 1305 2825 
Q 1016 2553 972 2059 
L 3022 2063 
z
" transform="scale(0.015625)"/>
       <path id="DejaVuSans-72" d="M 2631 2963 
Q 2534 3019 2420 3045 
Q 2306 3072 2169 3072 
Q 1681 3072 1420 2755 
Q 1159 2438 1159 1844 
L 1159 0 
L 581 0 
L 581 3500 
L 1159 3500 
L 1159 2956 
Q 1341 3275 1631 3429 
Q 1922 3584 2338 3584 
Q 2397 3584 2469 3576 
Q 2541 3569 2628 3553 
L 2631 2963 
z
" transform="scale(0.015625)"/>
       <path id="DejaVuSans-73" d="M 2834 3397 
L 2834 2853 
Q 2591 2978 2328 3040 
Q 2066 3103 1784 3103 
Q 1356 3103 1142 2972 
Q 928 2841 928 2578 
Q 928 2378 1081 2264 
Q 1234 2150 1697 2047 
L 1894 2003 
Q 2506 1872 2764 1633 
Q 3022 1394 3022 966 
Q 3022 478 2636 193 
Q 2250 -91 1575 -91 
Q 1294 -91 989 -36 
Q 684 19 347 128 
L 347 722 
Q 666 556 975 473 
Q 1284 391 1588 391 
Q 1994 391 2212 530 
Q 2431 669 2431 922 
Q 2431 1156 2273 1281 
Q 2116 1406 1581 1522 
L 1381 1569 
Q 847 1681 609 1914 
Q 372 2147 372 2553 
Q 372 3047 722 3315 
Q 1072 3584 1716 3584 
Q 2034 3584 2315 3537 
Q 2597 3491 2834 3397 
z
" transform="scale(0.015625)"/>
       <path id="DejaVuSans-69" d="M 603 3500 
L 1178 3500 
L 1178 0 
L 603 0 
L 603 3500 
z
M 603 4863 
L 1178 4863 
L 1178 4134 
L 603 4134 
L 603 4863 
z
" transform="scale(0.015625)"/>
       <path id="DejaVuSans-74" d="M 1172 4494 
L 1172 3500 
L 2356 3500 
L 2356 3053 
L 1172 3053 
L 1172 1153 
Q 1172 725 1289 603 
Q 1406 481 1766 481 
L 2356 481 
L 2356 0 
L 1766 0 
Q 1100 0 847 248 
Q 594 497 594 1153 
L 594 3053 
L 172 3053 
L 172 3500 
L 594 3500 
L 594 4494 
L 1172 4494 
z
" transform="scale(0.015625)"/>
       <path id="DejaVuSans-6e" d="M 3513 2113 
L 3513 0 
L 2938 0 
L 2938 2094 
Q 2938 2591 2744 2837 
Q 2550 3084 2163 3084 
Q 1697 3084 1428 2787 
Q 1159 2491 1159 1978 
L 1159 0 
L 581 0 
L 581 3500 
L 1159 3500 
L 1159 2956 
Q 1366 3272 1645 3428 
Q 1925 3584 2291 3584 
Q 2894 3584 3203 3211 
Q 3513 2838 3513 2113 
z
" transform="scale(0.015625)"/>
       <path id="DejaVuSans-63" d="M 3122 3366 
L 3122 2828 
Q 2878 2963 2633 3030 
Q 2388 3097 2138 3097 
Q 1578 3097 1268 2742 
Q 959 2388 959 1747 
Q 959 1106 1268 751 
Q 1578 397 2138 397 
Q 2388 397 2633 464 
Q 2878 531 3122 666 
L 3122 134 
Q 2881 22 2623 -34 
Q 2366 -91 2075 -91 
Q 1284 -91 818 406 
Q 353 903 353 1747 
Q 353 2603 823 3093 
Q 1294 3584 2113 3584 
Q 2378 3584 2631 3529 
Q 2884 3475 3122 3366 
z
" transform="scale(0.015625)"/>
       <path id="DejaVuSans-5f" d="M 3263 -1063 
L 3263 -1509 
L -63 -1509 
L -63 -1063 
L 3263 -1063 
z
" transform="scale(0.015625)"/>
       <path id="DejaVuSans-6f" d="M 1959 3097 
Q 1497 3097 1228 2736 
Q 959 2375 959 1747 
Q 959 1119 1226 758 
Q 1494 397 1959 397 
Q 2419 397 2687 759 
Q 2956 1122 2956 1747 
Q 2956 2369 2687 2733 
Q 2419 3097 1959 3097 
z
M 1959 3584 
Q 2709 3584 3137 3096 
Q 3566 2609 3566 1747 
Q 3566 888 3137 398 
Q 2709 -91 1959 -91 
Q 1206 -91 779 398 
Q 353 888 353 1747 
Q 353 2609 779 3096 
Q 1206 3584 1959 3584 
z
" transform="scale(0.015625)"/>
      </defs>
      <use xlink:href="#DejaVuSans-70"/>
      <use xlink:href="#DejaVuSans-65" x="63.476562"/>
      <use xlink:href="#DejaVuSans-72" x="125"/>
      <use xlink:href="#DejaVuSans-73" x="166.113281"/>
      <use xlink:href="#DejaVuSans-69" x="218.212891"/>
      <use xlink:href="#DejaVuSans-73" x="245.996094"/>
      <use xlink:href="#DejaVuSans-74" x="298.095703"/>
      <use xlink:href="#DejaVuSans-65" x="337.304688"/>
      <use xlink:href="#DejaVuSans-6e" x="398.828125"/>
      <use xlink:href="#DejaVuSans-63" x="462.207031"/>
      <use xlink:href="#DejaVuSans-65" x="517.1875"/>
      <use xlink:href="#DejaVuSans-5f" x="578.710938"/>
      <use xlink:href="#DejaVuSans-73" x="628.710938"/>
      <use xlink:href="#DejaVuSans-63" x="680.810547"/>
      <use xlink:href="#DejaVuSans-6f" x="735.791016"/>
      <use xlink:href="#DejaVuSans-72" x="796.972656"/>
      <use xlink:href="#DejaVuSans-65" x="835.835938"/>
     </g>
    </g>
   </g>
   <g id="matplotlib.axis_2">
    <g id="ytick_1">
     <g id="line2d_10">
      <defs>
       <path id="mf3867b2471" d="M 0 0 
L -3.5 0 
" style="stroke: #000000; stroke-width: 0.8"/>
      </defs>
      <g>
       <use xlink:href="#mf3867b2471" x="47.82125" y="659.237542" style="stroke: #000000; stroke-width: 0.8"/>
      </g>
     </g>
     <g id="text_11">
      <!-- 0.0 -->
      <g transform="translate(16.966563 664.93637) scale(0.15 -0.15)">
       <use xlink:href="#DejaVuSans-30"/>
       <use xlink:href="#DejaVuSans-2e" x="63.623047"/>
       <use xlink:href="#DejaVuSans-30" x="95.410156"/>
      </g>
     </g>
    </g>
    <g id="ytick_2">
     <g id="line2d_11">
      <g>
       <use xlink:href="#mf3867b2471" x="47.82125" y="522.80586" style="stroke: #000000; stroke-width: 0.8"/>
      </g>
     </g>
     <g id="text_12">
      <!-- 0.2 -->
      <g transform="translate(16.966563 528.504689) scale(0.15 -0.15)">
       <use xlink:href="#DejaVuSans-30"/>
       <use xlink:href="#DejaVuSans-2e" x="63.623047"/>
       <use xlink:href="#DejaVuSans-32" x="95.410156"/>
      </g>
     </g>
    </g>
    <g id="ytick_3">
     <g id="line2d_12">
      <g>
       <use xlink:href="#mf3867b2471" x="47.82125" y="386.374179" style="stroke: #000000; stroke-width: 0.8"/>
      </g>
     </g>
     <g id="text_13">
      <!-- 0.4 -->
      <g transform="translate(16.966563 392.073007) scale(0.15 -0.15)">
       <defs>
        <path id="DejaVuSans-34" d="M 2419 4116 
L 825 1625 
L 2419 1625 
L 2419 4116 
z
M 2253 4666 
L 3047 4666 
L 3047 1625 
L 3713 1625 
L 3713 1100 
L 3047 1100 
L 3047 0 
L 2419 0 
L 2419 1100 
L 313 1100 
L 313 1709 
L 2253 4666 
z
" transform="scale(0.015625)"/>
       </defs>
       <use xlink:href="#DejaVuSans-30"/>
       <use xlink:href="#DejaVuSans-2e" x="63.623047"/>
       <use xlink:href="#DejaVuSans-34" x="95.410156"/>
      </g>
     </g>
    </g>
    <g id="ytick_4">
     <g id="line2d_13">
      <g>
       <use xlink:href="#mf3867b2471" x="47.82125" y="249.942498" style="stroke: #000000; stroke-width: 0.8"/>
      </g>
     </g>
     <g id="text_14">
      <!-- 0.6 -->
      <g transform="translate(16.966563 255.641326) scale(0.15 -0.15)">
       <defs>
        <path id="DejaVuSans-36" d="M 2113 2584 
Q 1688 2584 1439 2293 
Q 1191 2003 1191 1497 
Q 1191 994 1439 701 
Q 1688 409 2113 409 
Q 2538 409 2786 701 
Q 3034 994 3034 1497 
Q 3034 2003 2786 2293 
Q 2538 2584 2113 2584 
z
M 3366 4563 
L 3366 3988 
Q 3128 4100 2886 4159 
Q 2644 4219 2406 4219 
Q 1781 4219 1451 3797 
Q 1122 3375 1075 2522 
Q 1259 2794 1537 2939 
Q 1816 3084 2150 3084 
Q 2853 3084 3261 2657 
Q 3669 2231 3669 1497 
Q 3669 778 3244 343 
Q 2819 -91 2113 -91 
Q 1303 -91 875 529 
Q 447 1150 447 2328 
Q 447 3434 972 4092 
Q 1497 4750 2381 4750 
Q 2619 4750 2861 4703 
Q 3103 4656 3366 4563 
z
" transform="scale(0.015625)"/>
       </defs>
       <use xlink:href="#DejaVuSans-30"/>
       <use xlink:href="#DejaVuSans-2e" x="63.623047"/>
       <use xlink:href="#DejaVuSans-36" x="95.410156"/>
      </g>
     </g>
    </g>
    <g id="ytick_5">
     <g id="line2d_14">
      <g>
       <use xlink:href="#mf3867b2471" x="47.82125" y="113.510816" style="stroke: #000000; stroke-width: 0.8"/>
      </g>
     </g>
     <g id="text_15">
      <!-- 0.8 -->
      <g transform="translate(16.966563 119.209644) scale(0.15 -0.15)">
       <defs>
        <path id="DejaVuSans-38" d="M 2034 2216 
Q 1584 2216 1326 1975 
Q 1069 1734 1069 1313 
Q 1069 891 1326 650 
Q 1584 409 2034 409 
Q 2484 409 2743 651 
Q 3003 894 3003 1313 
Q 3003 1734 2745 1975 
Q 2488 2216 2034 2216 
z
M 1403 2484 
Q 997 2584 770 2862 
Q 544 3141 544 3541 
Q 544 4100 942 4425 
Q 1341 4750 2034 4750 
Q 2731 4750 3128 4425 
Q 3525 4100 3525 3541 
Q 3525 3141 3298 2862 
Q 3072 2584 2669 2484 
Q 3125 2378 3379 2068 
Q 3634 1759 3634 1313 
Q 3634 634 3220 271 
Q 2806 -91 2034 -91 
Q 1263 -91 848 271 
Q 434 634 434 1313 
Q 434 1759 690 2068 
Q 947 2378 1403 2484 
z
M 1172 3481 
Q 1172 3119 1398 2916 
Q 1625 2713 2034 2713 
Q 2441 2713 2670 2916 
Q 2900 3119 2900 3481 
Q 2900 3844 2670 4047 
Q 2441 4250 2034 4250 
Q 1625 4250 1398 4047 
Q 1172 3844 1172 3481 
z
" transform="scale(0.015625)"/>
       </defs>
       <use xlink:href="#DejaVuSans-30"/>
       <use xlink:href="#DejaVuSans-2e" x="63.623047"/>
       <use xlink:href="#DejaVuSans-38" x="95.410156"/>
      </g>
     </g>
    </g>
    <g id="text_16">
     <!-- adaptation_green -->
     <g transform="translate(8.250937 432.40375) rotate(-90) scale(0.2 -0.2)">
      <defs>
       <path id="DejaVuSans-61" d="M 2194 1759 
Q 1497 1759 1228 1600 
Q 959 1441 959 1056 
Q 959 750 1161 570 
Q 1363 391 1709 391 
Q 2188 391 2477 730 
Q 2766 1069 2766 1631 
L 2766 1759 
L 2194 1759 
z
M 3341 1997 
L 3341 0 
L 2766 0 
L 2766 531 
Q 2569 213 2275 61 
Q 1981 -91 1556 -91 
Q 1019 -91 701 211 
Q 384 513 384 1019 
Q 384 1609 779 1909 
Q 1175 2209 1959 2209 
L 2766 2209 
L 2766 2266 
Q 2766 2663 2505 2880 
Q 2244 3097 1772 3097 
Q 1472 3097 1187 3025 
Q 903 2953 641 2809 
L 641 3341 
Q 956 3463 1253 3523 
Q 1550 3584 1831 3584 
Q 2591 3584 2966 3190 
Q 3341 2797 3341 1997 
z
" transform="scale(0.015625)"/>
       <path id="DejaVuSans-64" d="M 2906 2969 
L 2906 4863 
L 3481 4863 
L 3481 0 
L 2906 0 
L 2906 525 
Q 2725 213 2448 61 
Q 2172 -91 1784 -91 
Q 1150 -91 751 415 
Q 353 922 353 1747 
Q 353 2572 751 3078 
Q 1150 3584 1784 3584 
Q 2172 3584 2448 3432 
Q 2725 3281 2906 2969 
z
M 947 1747 
Q 947 1113 1208 752 
Q 1469 391 1925 391 
Q 2381 391 2643 752 
Q 2906 1113 2906 1747 
Q 2906 2381 2643 2742 
Q 2381 3103 1925 3103 
Q 1469 3103 1208 2742 
Q 947 2381 947 1747 
z
" transform="scale(0.015625)"/>
       <path id="DejaVuSans-67" d="M 2906 1791 
Q 2906 2416 2648 2759 
Q 2391 3103 1925 3103 
Q 1463 3103 1205 2759 
Q 947 2416 947 1791 
Q 947 1169 1205 825 
Q 1463 481 1925 481 
Q 2391 481 2648 825 
Q 2906 1169 2906 1791 
z
M 3481 434 
Q 3481 -459 3084 -895 
Q 2688 -1331 1869 -1331 
Q 1566 -1331 1297 -1286 
Q 1028 -1241 775 -1147 
L 775 -588 
Q 1028 -725 1275 -790 
Q 1522 -856 1778 -856 
Q 2344 -856 2625 -561 
Q 2906 -266 2906 331 
L 2906 616 
Q 2728 306 2450 153 
Q 2172 0 1784 0 
Q 1141 0 747 490 
Q 353 981 353 1791 
Q 353 2603 747 3093 
Q 1141 3584 1784 3584 
Q 2172 3584 2450 3431 
Q 2728 3278 2906 2969 
L 2906 3500 
L 3481 3500 
L 3481 434 
z
" transform="scale(0.015625)"/>
      </defs>
      <use xlink:href="#DejaVuSans-61"/>
      <use xlink:href="#DejaVuSans-64" x="61.279297"/>
      <use xlink:href="#DejaVuSans-61" x="124.755859"/>
      <use xlink:href="#DejaVuSans-70" x="186.035156"/>
      <use xlink:href="#DejaVuSans-74" x="249.511719"/>
      <use xlink:href="#DejaVuSans-61" x="288.720703"/>
      <use xlink:href="#DejaVuSans-74" x="350"/>
      <use xlink:href="#DejaVuSans-69" x="389.208984"/>
      <use xlink:href="#DejaVuSans-6f" x="416.992188"/>
      <use xlink:href="#DejaVuSans-6e" x="478.173828"/>
      <use xlink:href="#DejaVuSans-5f" x="541.552734"/>
      <use xlink:href="#DejaVuSans-67" x="591.552734"/>
      <use xlink:href="#DejaVuSans-72" x="655.029297"/>
      <use xlink:href="#DejaVuSans-65" x="693.892578"/>
      <use xlink:href="#DejaVuSans-65" x="755.416016"/>
      <use xlink:href="#DejaVuSans-6e" x="816.939453"/>
     </g>
    </g>
   </g>
   <g id="line2d_15">
    <path d="M 77.88392 524.098651 
L 83.957187 522.948003 
L 90.030454 521.797354 
L 96.103721 520.646705 
L 102.176987 519.496056 
L 108.250254 518.345407 
L 114.323521 517.194758 
L 120.396788 516.044109 
L 126.470055 514.89346 
L 132.543321 513.742811 
L 138.616588 512.592162 
L 144.689855 511.441513 
L 150.763122 510.290864 
L 156.836388 509.140215 
L 162.909655 507.989566 
L 168.982922 506.838917 
L 175.056189 505.688268 
L 181.129455 504.53762 
L 187.202722 503.386971 
L 193.275989 502.236322 
L 199.349256 501.085673 
L 205.422522 499.935024 
L 211.495789 498.784375 
L 217.569056 497.633726 
L 223.642323 496.483077 
L 229.715589 495.332428 
L 235.788856 494.181779 
L 241.862123 493.03113 
L 247.93539 491.880481 
L 254.008656 490.729832 
L 260.081923 489.579183 
L 266.15519 488.428534 
L 272.228457 487.277885 
L 278.301723 486.127236 
L 284.37499 484.976588 
L 290.448257 483.825939 
L 296.521524 482.67529 
L 302.594791 481.524641 
L 308.668057 480.373992 
L 314.741324 479.223343 
L 320.814591 478.072694 
L 326.887858 476.922045 
L 332.961124 475.771396 
L 339.034391 474.620747 
L 345.107658 473.470098 
L 351.180925 472.319449 
L 357.254191 471.1688 
L 363.327458 470.018151 
L 369.400725 468.867502 
L 375.473992 467.716853 
L 381.547258 466.566204 
L 387.620525 465.415556 
L 393.693792 464.264907 
L 399.767059 463.114258 
L 405.840325 461.963609 
L 411.913592 460.81296 
L 417.986859 459.662311 
L 424.060126 458.511662 
L 430.133392 457.361013 
L 436.206659 456.210364 
L 442.279926 455.059715 
L 448.353193 453.909066 
L 454.426459 452.758417 
L 460.499726 451.607768 
L 466.572993 450.457119 
L 472.64626 449.30647 
L 478.719527 448.155821 
L 484.792793 447.005172 
L 490.86606 445.854524 
L 496.939327 444.703875 
L 503.012594 443.553226 
L 509.08586 442.402577 
L 515.159127 441.251928 
L 521.232394 440.101279 
L 527.305661 438.95063 
L 533.378927 437.799981 
L 539.452194 436.649332 
L 545.525461 435.498683 
L 551.598728 434.348034 
L 557.671994 433.197385 
L 563.745261 432.046736 
L 569.818528 430.896087 
L 575.891795 429.745438 
L 581.965061 428.594789 
L 588.038328 427.444141 
L 594.111595 426.293492 
L 600.184862 425.142843 
L 606.258128 423.992194 
L 612.331395 422.841545 
L 618.404662 421.690896 
L 624.477929 420.540247 
L 630.551195 419.389598 
L 636.624462 418.238949 
L 642.697729 417.0883 
L 648.770996 415.937651 
L 654.844263 414.787002 
L 660.917529 413.636353 
L 666.990796 412.485704 
L 673.064063 411.335055 
L 679.13733 410.184406 
" clip-path="url(#pc4b6922c6f)" style="fill: none; stroke: #2e8b57; stroke-width: 2.25; stroke-linecap: square"/>
   </g>
   <g id="patch_3">
    <path d="M 47.82125 677.93875 
L 47.82125 10.8 
" style="fill: none; stroke: #000000; stroke-width: 0.8; stroke-linejoin: miter; stroke-linecap: square"/>
   </g>
   <g id="patch_4">
    <path d="M 47.82125 677.93875 
L 709.2 677.93875 
" style="fill: none; stroke: #000000; stroke-width: 0.8; stroke-linejoin: miter; stroke-linecap: square"/>
   </g>
  </g>
 </g>
 <defs>
  <clipPath id="pc4b6922c6f">
   <rect x="47.82125" y="10.8" width="661.37875" height="667.13875"/>
  </clipPath>
 </defs>
</svg>
