<?xml version="1.0" encoding="utf-8" standalone="no"?>
<!DOCTYPE svg PUBLIC "-//W3C//DTD SVG 1.1//EN"
  "http://www.w3.org/Graphics/SVG/1.1/DTD/svg11.dtd">
<svg xmlns:xlink="http://www.w3.org/1999/xlink" width="360pt" height="360pt" viewBox="0 0 360 360" xmlns="http://www.w3.org/2000/svg" version="1.1">
 <metadata>
  <rdf:RDF xmlns:dc="http://purl.org/dc/elements/1.1/" xmlns:cc="http://creativecommons.org/ns#" xmlns:rdf="http://www.w3.org/1999/02/22-rdf-syntax-ns#">
   <cc:Work>
    <dc:type rdf:resource="http://purl.org/dc/dcmitype/StillImage"/>
    <dc:date>2024-12-04T10:54:31.095611</dc:date>
    <dc:format>image/svg+xml</dc:format>
    <dc:creator>
     <cc:Agent>
      <dc:title>Matplotlib v3.9.2, https://matplotlib.org/</dc:title>
     </cc:Agent>
    </dc:creator>
   </cc:Work>
  </rdf:RDF>
 </metadata>
 <defs>
  <style type="text/css">*{stroke-linejoin: round; stroke-linecap: butt}</style>
 </defs>
 <g id="figure_1">
  <g id="patch_1">
   <path d="M 0 360 
L 360 360 
L 360 0 
L 0 0 
z
" style="fill: #ffffff"/>
  </g>
  <g id="axes_1">
   <g id="patch_2">
    <path d="M 54.12125 317.93875 
L 349.2 317.93875 
L 349.2 10.8 
L 54.12125 10.8 
z
" style="fill: #ffffff"/>
   </g>
   <g id="PathCollection_1">
    <defs>
     <path id="m2022a635d1" d="M 0 3 
C 0.795609 3 1.55874 2.683901 2.12132 2.12132 
C 2.683901 1.55874 3 0.795609 3 0 
C 3 -0.795609 2.683901 -1.55874 2.12132 -2.12132 
C 1.55874 -2.683901 0.795609 -3 0 -3 
C -0.795609 -3 -1.55874 -2.683901 -2.12132 -2.12132 
C -2.683901 -1.55874 -3 -0.795609 -3 0 
C -3 0.795609 -2.683901 1.55874 -2.12132 2.12132 
C -1.55874 2.683901 -0.795609 3 0 3 
z
" style="stroke: #fa8072; stroke-opacity: 0.8"/>
    </defs>
    <g clip-path="url(#p58f8fabc72)">
     <use xlink:href="#m2022a635d1" x="225.54453" y="200.631552" style="fill: #fa8072; fill-opacity: 0.8; stroke: #fa8072; stroke-opacity: 0.8"/>
     <use xlink:href="#m2022a635d1" x="282.242481" y="33.355256" style="fill: #fa8072; fill-opacity: 0.8; stroke: #fa8072; stroke-opacity: 0.8"/>
     <use xlink:href="#m2022a635d1" x="214.651031" y="248.4034" style="fill: #fa8072; fill-opacity: 0.8; stroke: #fa8072; stroke-opacity: 0.8"/>
     <use xlink:href="#m2022a635d1" x="129.481159" y="240.68296" style="fill: #fa8072; fill-opacity: 0.8; stroke: #fa8072; stroke-opacity: 0.8"/>
     <use xlink:href="#m2022a635d1" x="190.104905" y="179.243979" style="fill: #fa8072; fill-opacity: 0.8; stroke: #fa8072; stroke-opacity: 0.8"/>
     <use xlink:href="#m2022a635d1" x="71.277042" y="263.34562" style="fill: #fa8072; fill-opacity: 0.8; stroke: #fa8072; stroke-opacity: 0.8"/>
     <use xlink:href="#m2022a635d1" x="84.985244" y="250.244444" style="fill: #fa8072; fill-opacity: 0.8; stroke: #fa8072; stroke-opacity: 0.8"/>
     <use xlink:href="#m2022a635d1" x="335.78733" y="229.511794" style="fill: #fa8072; fill-opacity: 0.8; stroke: #fa8072; stroke-opacity: 0.8"/>
     <use xlink:href="#m2022a635d1" x="202.867522" y="259.791666" style="fill: #fa8072; fill-opacity: 0.8; stroke: #fa8072; stroke-opacity: 0.8"/>
     <use xlink:href="#m2022a635d1" x="288.313021" y="61.327894" style="fill: #fa8072; fill-opacity: 0.8; stroke: #fa8072; stroke-opacity: 0.8"/>
     <use xlink:href="#m2022a635d1" x="108.90066" y="231.633715" style="fill: #fa8072; fill-opacity: 0.8; stroke: #fa8072; stroke-opacity: 0.8"/>
     <use xlink:href="#m2022a635d1" x="112.717344" y="259.56189" style="fill: #fa8072; fill-opacity: 0.8; stroke: #fa8072; stroke-opacity: 0.8"/>
     <use xlink:href="#m2022a635d1" x="135.094791" y="257.129005" style="fill: #fa8072; fill-opacity: 0.8; stroke: #fa8072; stroke-opacity: 0.8"/>
     <use xlink:href="#m2022a635d1" x="67.53392" y="283.548073" style="fill: #fa8072; fill-opacity: 0.8; stroke: #fa8072; stroke-opacity: 0.8"/>
     <use xlink:href="#m2022a635d1" x="74.861042" y="232.264452" style="fill: #fa8072; fill-opacity: 0.8; stroke: #fa8072; stroke-opacity: 0.8"/>
    </g>
   </g>
   <g id="PolyCollection_1">
    <path d="M 67.53392 246.658304 
L 67.53392 303.977898 
L 70.243551 301.299094 
L 72.953181 298.660849 
L 75.662812 296.153205 
L 78.372442 293.630954 
L 81.082072 291.108702 
L 83.791703 288.586451 
L 86.501333 286.099347 
L 89.210964 283.935756 
L 91.920594 281.772165 
L 94.630224 279.537588 
L 97.339855 276.733522 
L 100.049485 274.520119 
L 102.759116 271.948756 
L 105.468746 269.442767 
L 108.178376 266.819586 
L 110.888007 264.937911 
L 113.597637 262.850536 
L 116.307268 260.709911 
L 119.016898 258.513401 
L 121.726528 256.773105 
L 124.436159 255.519176 
L 127.145789 253.903864 
L 129.85542 253.324423 
L 132.56505 252.313113 
L 135.27468 250.780241 
L 137.984311 249.723457 
L 140.693941 248.915298 
L 143.403572 248.202875 
L 146.113202 247.631649 
L 148.822832 246.976866 
L 151.532463 246.323046 
L 154.242093 245.867989 
L 156.951723 245.029774 
L 159.661354 244.600615 
L 162.370984 244.188274 
L 165.080615 243.837168 
L 167.790245 243.662057 
L 170.499875 243.531221 
L 173.209506 243.189109 
L 175.919136 242.756947 
L 178.628767 242.143323 
L 181.338397 241.529698 
L 184.048027 240.954224 
L 186.757658 240.573984 
L 189.467288 240.360316 
L 192.176919 240.146649 
L 194.886549 239.709307 
L 197.596179 239.237148 
L 200.30581 238.964324 
L 203.01544 238.558051 
L 205.725071 238.124598 
L 208.434701 237.712507 
L 211.144331 237.504454 
L 213.853962 237.239693 
L 216.563592 236.945545 
L 219.273223 236.507653 
L 221.982853 235.988392 
L 224.692483 235.475422 
L 227.402114 235.208541 
L 230.111744 234.939952 
L 232.821375 234.670484 
L 235.531005 234.304291 
L 238.240635 233.832887 
L 240.950266 233.36041 
L 243.659896 232.887932 
L 246.369527 232.415455 
L 249.079157 232.065122 
L 251.788787 231.727318 
L 254.498418 231.389513 
L 257.208048 231.051708 
L 259.917678 230.713903 
L 262.627309 230.308065 
L 265.336939 229.895999 
L 268.04657 229.482857 
L 270.7562 229.068096 
L 273.46583 228.776434 
L 276.175461 228.337441 
L 278.885091 227.993679 
L 281.594722 227.73185 
L 284.304352 227.467416 
L 287.013982 227.202328 
L 289.723613 226.911694 
L 292.433243 226.677307 
L 295.142874 226.349372 
L 297.852504 226.015374 
L 300.562134 225.681375 
L 303.271765 225.347376 
L 305.981395 225.013377 
L 308.691026 224.679378 
L 311.400656 224.345379 
L 314.110286 224.01138 
L 316.819917 223.839139 
L 319.529547 223.718889 
L 322.239178 223.59864 
L 324.948808 223.478391 
L 327.658438 223.276112 
L 330.368069 223.017957 
L 333.077699 222.759802 
L 335.78733 222.499121 
L 335.78733 24.760852 
L 335.78733 24.760852 
L 333.077699 27.457004 
L 330.368069 30.004819 
L 327.658438 32.548077 
L 324.948808 35.091334 
L 322.239178 37.634592 
L 319.529547 40.177849 
L 316.819917 42.848816 
L 314.110286 45.636508 
L 311.400656 48.424201 
L 308.691026 51.211893 
L 305.981395 53.999586 
L 303.271765 56.787278 
L 300.562134 59.574971 
L 297.852504 62.124464 
L 295.142874 64.64937 
L 292.433243 67.177057 
L 289.723613 69.704743 
L 287.013982 72.23243 
L 284.304352 74.811576 
L 281.594722 77.692021 
L 278.885091 80.574687 
L 276.175461 83.466446 
L 273.46583 86.358206 
L 270.7562 89.249965 
L 268.04657 91.897168 
L 265.336939 94.73335 
L 262.627309 97.515976 
L 259.917678 100.20721 
L 257.208048 102.898444 
L 254.498418 105.407492 
L 251.788787 107.856776 
L 249.079157 110.311214 
L 246.369527 112.988274 
L 243.659896 115.441884 
L 240.950266 117.897437 
L 238.240635 120.468685 
L 235.531005 123.062436 
L 232.821375 125.656186 
L 230.111744 128.247963 
L 227.402114 130.721397 
L 224.692483 133.258639 
L 221.982853 135.966236 
L 219.273223 138.496907 
L 216.563592 141.094767 
L 213.853962 143.422743 
L 211.144331 145.901089 
L 208.434701 148.486314 
L 205.725071 151.294237 
L 203.01544 154.081874 
L 200.30581 156.644833 
L 197.596179 159.209541 
L 194.886549 161.774248 
L 192.176919 164.46639 
L 189.467288 167.219994 
L 186.757658 169.82139 
L 184.048027 172.365337 
L 181.338397 175.072673 
L 178.628767 177.637236 
L 175.919136 180.206673 
L 173.209506 182.570833 
L 170.499875 184.994498 
L 167.790245 187.598599 
L 165.080615 190.357546 
L 162.370984 192.531272 
L 159.661354 195.024794 
L 156.951723 197.587946 
L 154.242093 200.151099 
L 151.532463 201.974466 
L 148.822832 204.016933 
L 146.113202 206.798643 
L 143.403572 209.559153 
L 140.693941 211.827589 
L 137.984311 213.804566 
L 135.27468 215.760094 
L 132.56505 217.917909 
L 129.85542 219.9038 
L 127.145789 221.69393 
L 124.436159 223.470441 
L 121.726528 225.323669 
L 119.016898 227.142028 
L 116.307268 228.558039 
L 113.597637 229.814193 
L 110.888007 231.151733 
L 108.178376 232.439829 
L 105.468746 233.761036 
L 102.759116 234.702647 
L 100.049485 235.998738 
L 97.339855 237.183653 
L 94.630224 238.180064 
L 91.920594 239.239299 
L 89.210964 240.295241 
L 86.501333 241.352734 
L 83.791703 242.213858 
L 81.082072 243.125419 
L 78.372442 244.045109 
L 75.662812 244.664977 
L 72.953181 245.32399 
L 70.243551 245.821294 
L 67.53392 246.658304 
z
" clip-path="url(#p58f8fabc72)" style="fill: #fa8072; fill-opacity: 0.15"/>
   </g>
   <g id="matplotlib.axis_1">
    <g id="xtick_1">
     <g id="line2d_1">
      <defs>
       <path id="m6f5de42f45" d="M 0 0 
L 0 3.5 
" style="stroke: #000000; stroke-width: 0.8"/>
      </defs>
      <g>
       <use xlink:href="#m6f5de42f45" x="62.81359" y="317.93875" style="stroke: #000000; stroke-width: 0.8"/>
      </g>
     </g>
     <g id="text_1">
      <!-- −1.00 -->
      <g transform="translate(39.829606 336.336406) scale(0.15 -0.15)">
       <defs>
        <path id="DejaVuSans-2212" d="M 678 2272 
L 4684 2272 
L 4684 1741 
L 678 1741 
L 678 2272 
z
" transform="scale(0.015625)"/>
        <path id="DejaVuSans-31" d="M 794 531 
L 1825 531 
L 1825 4091 
L 703 3866 
L 703 4441 
L 1819 4666 
L 2450 4666 
L 2450 531 
L 3481 531 
L 3481 0 
L 794 0 
L 794 531 
z
" transform="scale(0.015625)"/>
        <path id="DejaVuSans-2e" d="M 684 794 
L 1344 794 
L 1344 0 
L 684 0 
L 684 794 
z
" transform="scale(0.015625)"/>
        <path id="DejaVuSans-30" d="M 2034 4250 
Q 1547 4250 1301 3770 
Q 1056 3291 1056 2328 
Q 1056 1369 1301 889 
Q 1547 409 2034 409 
Q 2525 409 2770 889 
Q 3016 1369 3016 2328 
Q 3016 3291 2770 3770 
Q 2525 4250 2034 4250 
z
M 2034 4750 
Q 2819 4750 3233 4129 
Q 3647 3509 3647 2328 
Q 3647 1150 3233 529 
Q 2819 -91 2034 -91 
Q 1250 -91 836 529 
Q 422 1150 422 2328 
Q 422 3509 836 4129 
Q 1250 4750 2034 4750 
z
" transform="scale(0.015625)"/>
       </defs>
       <use xlink:href="#DejaVuSans-2212"/>
       <use xlink:href="#DejaVuSans-31" x="83.789062"/>
       <use xlink:href="#DejaVuSans-2e" x="147.412109"/>
       <use xlink:href="#DejaVuSans-30" x="179.199219"/>
       <use xlink:href="#DejaVuSans-30" x="242.822266"/>
      </g>
     </g>
    </g>
    <g id="xtick_2">
     <g id="line2d_2">
      <g>
       <use xlink:href="#m6f5de42f45" x="96.935308" y="317.93875" style="stroke: #000000; stroke-width: 0.8"/>
      </g>
     </g>
     <g id="text_2">
      <!-- −0.75 -->
      <g transform="translate(73.951323 336.336406) scale(0.15 -0.15)">
       <defs>
        <path id="DejaVuSans-37" d="M 525 4666 
L 3525 4666 
L 3525 4397 
L 1831 0 
L 1172 0 
L 2766 4134 
L 525 4134 
L 525 4666 
z
" transform="scale(0.015625)"/>
        <path id="DejaVuSans-35" d="M 691 4666 
L 3169 4666 
L 3169 4134 
L 1269 4134 
L 1269 2991 
Q 1406 3038 1543 3061 
Q 1681 3084 1819 3084 
Q 2600 3084 3056 2656 
Q 3513 2228 3513 1497 
Q 3513 744 3044 326 
Q 2575 -91 1722 -91 
Q 1428 -91 1123 -41 
Q 819 9 494 109 
L 494 744 
Q 775 591 1075 516 
Q 1375 441 1709 441 
Q 2250 441 2565 725 
Q 2881 1009 2881 1497 
Q 2881 1984 2565 2268 
Q 2250 2553 1709 2553 
Q 1456 2553 1204 2497 
Q 953 2441 691 2322 
L 691 4666 
z
" transform="scale(0.015625)"/>
       </defs>
       <use xlink:href="#DejaVuSans-2212"/>
       <use xlink:href="#DejaVuSans-30" x="83.789062"/>
       <use xlink:href="#DejaVuSans-2e" x="147.412109"/>
       <use xlink:href="#DejaVuSans-37" x="179.199219"/>
       <use xlink:href="#DejaVuSans-35" x="242.822266"/>
      </g>
     </g>
    </g>
    <g id="xtick_3">
     <g id="line2d_3">
      <g>
       <use xlink:href="#m6f5de42f45" x="131.057025" y="317.93875" style="stroke: #000000; stroke-width: 0.8"/>
      </g>
     </g>
     <g id="text_3">
      <!-- −0.50 -->
      <g transform="translate(108.073041 336.336406) scale(0.15 -0.15)">
       <use xlink:href="#DejaVuSans-2212"/>
       <use xlink:href="#DejaVuSans-30" x="83.789062"/>
       <use xlink:href="#DejaVuSans-2e" x="147.412109"/>
       <use xlink:href="#DejaVuSans-35" x="179.199219"/>
       <use xlink:href="#DejaVuSans-30" x="242.822266"/>
      </g>
     </g>
    </g>
    <g id="xtick_4">
     <g id="line2d_4">
      <g>
       <use xlink:href="#m6f5de42f45" x="165.178742" y="317.93875" style="stroke: #000000; stroke-width: 0.8"/>
      </g>
     </g>
     <g id="text_4">
      <!-- −0.25 -->
      <g transform="translate(142.194758 336.336406) scale(0.15 -0.15)">
       <defs>
        <path id="DejaVuSans-32" d="M 1228 531 
L 3431 531 
L 3431 0 
L 469 0 
L 469 531 
Q 828 903 1448 1529 
Q 2069 2156 2228 2338 
Q 2531 2678 2651 2914 
Q 2772 3150 2772 3378 
Q 2772 3750 2511 3984 
Q 2250 4219 1831 4219 
Q 1534 4219 1204 4116 
Q 875 4013 500 3803 
L 500 4441 
Q 881 4594 1212 4672 
Q 1544 4750 1819 4750 
Q 2544 4750 2975 4387 
Q 3406 4025 3406 3419 
Q 3406 3131 3298 2873 
Q 3191 2616 2906 2266 
Q 2828 2175 2409 1742 
Q 1991 1309 1228 531 
z
" transform="scale(0.015625)"/>
       </defs>
       <use xlink:href="#DejaVuSans-2212"/>
       <use xlink:href="#DejaVuSans-30" x="83.789062"/>
       <use xlink:href="#DejaVuSans-2e" x="147.412109"/>
       <use xlink:href="#DejaVuSans-32" x="179.199219"/>
       <use xlink:href="#DejaVuSans-35" x="242.822266"/>
      </g>
     </g>
    </g>
    <g id="xtick_5">
     <g id="line2d_5">
      <g>
       <use xlink:href="#m6f5de42f45" x="199.30046" y="317.93875" style="stroke: #000000; stroke-width: 0.8"/>
      </g>
     </g>
     <g id="text_5">
      <!-- 0.00 -->
      <g transform="translate(182.601241 336.336406) scale(0.15 -0.15)">
       <use xlink:href="#DejaVuSans-30"/>
       <use xlink:href="#DejaVuSans-2e" x="63.623047"/>
       <use xlink:href="#DejaVuSans-30" x="95.410156"/>
       <use xlink:href="#DejaVuSans-30" x="159.033203"/>
      </g>
     </g>
    </g>
    <g id="xtick_6">
     <g id="line2d_6">
      <g>
       <use xlink:href="#m6f5de42f45" x="233.422177" y="317.93875" style="stroke: #000000; stroke-width: 0.8"/>
      </g>
     </g>
     <g id="text_6">
      <!-- 0.25 -->
      <g transform="translate(216.722959 336.336406) scale(0.15 -0.15)">
       <use xlink:href="#DejaVuSans-30"/>
       <use xlink:href="#DejaVuSans-2e" x="63.623047"/>
       <use xlink:href="#DejaVuSans-32" x="95.410156"/>
       <use xlink:href="#DejaVuSans-35" x="159.033203"/>
      </g>
     </g>
    </g>
    <g id="xtick_7">
     <g id="line2d_7">
      <g>
       <use xlink:href="#m6f5de42f45" x="267.543895" y="317.93875" style="stroke: #000000; stroke-width: 0.8"/>
      </g>
     </g>
     <g id="text_7">
      <!-- 0.50 -->
      <g transform="translate(250.844676 336.336406) scale(0.15 -0.15)">
       <use xlink:href="#DejaVuSans-30"/>
       <use xlink:href="#DejaVuSans-2e" x="63.623047"/>
       <use xlink:href="#DejaVuSans-35" x="95.410156"/>
       <use xlink:href="#DejaVuSans-30" x="159.033203"/>
      </g>
     </g>
    </g>
    <g id="xtick_8">
     <g id="line2d_8">
      <g>
       <use xlink:href="#m6f5de42f45" x="301.665612" y="317.93875" style="stroke: #000000; stroke-width: 0.8"/>
      </g>
     </g>
     <g id="text_8">
      <!-- 0.75 -->
      <g transform="translate(284.966393 336.336406) scale(0.15 -0.15)">
       <use xlink:href="#DejaVuSans-30"/>
       <use xlink:href="#DejaVuSans-2e" x="63.623047"/>
       <use xlink:href="#DejaVuSans-37" x="95.410156"/>
       <use xlink:href="#DejaVuSans-35" x="159.033203"/>
      </g>
     </g>
    </g>
    <g id="xtick_9">
     <g id="line2d_9">
      <g>
       <use xlink:href="#m6f5de42f45" x="335.78733" y="317.93875" style="stroke: #000000; stroke-width: 0.8"/>
      </g>
     </g>
     <g id="text_9">
      <!-- 1.00 -->
      <g transform="translate(319.088111 336.336406) scale(0.15 -0.15)">
       <use xlink:href="#DejaVuSans-31"/>
       <use xlink:href="#DejaVuSans-2e" x="63.623047"/>
       <use xlink:href="#DejaVuSans-30" x="95.410156"/>
       <use xlink:href="#DejaVuSans-30" x="159.033203"/>
      </g>
     </g>
    </g>
    <g id="text_10">
     <!-- persistence_score -->
     <g transform="translate(111.923125 358.652812) scale(0.2 -0.2)">
      <defs>
       <path id="DejaVuSans-70" d="M 1159 525 
L 1159 -1331 
L 581 -1331 
L 581 3500 
L 1159 3500 
L 1159 2969 
Q 1341 3281 1617 3432 
Q 1894 3584 2278 3584 
Q 2916 3584 3314 3078 
Q 3713 2572 3713 1747 
Q 3713 922 3314 415 
Q 2916 -91 2278 -91 
Q 1894 -91 1617 61 
Q 1341 213 1159 525 
z
M 3116 1747 
Q 3116 2381 2855 2742 
Q 2594 3103 2138 3103 
Q 1681 3103 1420 2742 
Q 1159 2381 1159 1747 
Q 1159 1113 1420 752 
Q 1681 391 2138 391 
Q 2594 391 2855 752 
Q 3116 1113 3116 1747 
z
" transform="scale(0.015625)"/>
       <path id="DejaVuSans-65" d="M 3597 1894 
L 3597 1613 
L 953 1613 
Q 991 1019 1311 708 
Q 1631 397 2203 397 
Q 2534 397 2845 478 
Q 3156 559 3463 722 
L 3463 178 
Q 3153 47 2828 -22 
Q 2503 -91 2169 -91 
Q 1331 -91 842 396 
Q 353 884 353 1716 
Q 353 2575 817 3079 
Q 1281 3584 2069 3584 
Q 2775 3584 3186 3129 
Q 3597 2675 3597 1894 
z
M 3022 2063 
Q 3016 2534 2758 2815 
Q 2500 3097 2075 3097 
Q 1594 3097 1305 2825 
Q 1016 2553 972 2059 
L 3022 2063 
z
" transform="scale(0.015625)"/>
       <path id="DejaVuSans-72" d="M 2631 2963 
Q 2534 3019 2420 3045 
Q 2306 3072 2169 3072 
Q 1681 3072 1420 2755 
Q 1159 2438 1159 1844 
L 1159 0 
L 581 0 
L 581 3500 
L 1159 3500 
L 1159 2956 
Q 1341 3275 1631 3429 
Q 1922 3584 2338 3584 
Q 2397 3584 2469 3576 
Q 2541 3569 2628 3553 
L 2631 2963 
z
" transform="scale(0.015625)"/>
       <path id="DejaVuSans-73" d="M 2834 3397 
L 2834 2853 
Q 2591 2978 2328 3040 
Q 2066 3103 1784 3103 
Q 1356 3103 1142 2972 
Q 928 2841 928 2578 
Q 928 2378 1081 2264 
Q 1234 2150 1697 2047 
L 1894 2003 
Q 2506 1872 2764 1633 
Q 3022 1394 3022 966 
Q 3022 478 2636 193 
Q 2250 -91 1575 -91 
Q 1294 -91 989 -36 
Q 684 19 347 128 
L 347 722 
Q 666 556 975 473 
Q 1284 391 1588 391 
Q 1994 391 2212 530 
Q 2431 669 2431 922 
Q 2431 1156 2273 1281 
Q 2116 1406 1581 1522 
L 1381 1569 
Q 847 1681 609 1914 
Q 372 2147 372 2553 
Q 372 3047 722 3315 
Q 1072 3584 1716 3584 
Q 2034 3584 2315 3537 
Q 2597 3491 2834 3397 
z
" transform="scale(0.015625)"/>
       <path id="DejaVuSans-69" d="M 603 3500 
L 1178 3500 
L 1178 0 
L 603 0 
L 603 3500 
z
M 603 4863 
L 1178 4863 
L 1178 4134 
L 603 4134 
L 603 4863 
z
" transform="scale(0.015625)"/>
       <path id="DejaVuSans-74" d="M 1172 4494 
L 1172 3500 
L 2356 3500 
L 2356 3053 
L 1172 3053 
L 1172 1153 
Q 1172 725 1289 603 
Q 1406 481 1766 481 
L 2356 481 
L 2356 0 
L 1766 0 
Q 1100 0 847 248 
Q 594 497 594 1153 
L 594 3053 
L 172 3053 
L 172 3500 
L 594 3500 
L 594 4494 
L 1172 4494 
z
" transform="scale(0.015625)"/>
       <path id="DejaVuSans-6e" d="M 3513 2113 
L 3513 0 
L 2938 0 
L 2938 2094 
Q 2938 2591 2744 2837 
Q 2550 3084 2163 3084 
Q 1697 3084 1428 2787 
Q 1159 2491 1159 1978 
L 1159 0 
L 581 0 
L 581 3500 
L 1159 3500 
L 1159 2956 
Q 1366 3272 1645 3428 
Q 1925 3584 2291 3584 
Q 2894 3584 3203 3211 
Q 3513 2838 3513 2113 
z
" transform="scale(0.015625)"/>
       <path id="DejaVuSans-63" d="M 3122 3366 
L 3122 2828 
Q 2878 2963 2633 3030 
Q 2388 3097 2138 3097 
Q 1578 3097 1268 2742 
Q 959 2388 959 1747 
Q 959 1106 1268 751 
Q 1578 397 2138 397 
Q 2388 397 2633 464 
Q 2878 531 3122 666 
L 3122 134 
Q 2881 22 2623 -34 
Q 2366 -91 2075 -91 
Q 1284 -91 818 406 
Q 353 903 353 1747 
Q 353 2603 823 3093 
Q 1294 3584 2113 3584 
Q 2378 3584 2631 3529 
Q 2884 3475 3122 3366 
z
" transform="scale(0.015625)"/>
       <path id="DejaVuSans-5f" d="M 3263 -1063 
L 3263 -1509 
L -63 -1509 
L -63 -1063 
L 3263 -1063 
z
" transform="scale(0.015625)"/>
       <path id="DejaVuSans-6f" d="M 1959 3097 
Q 1497 3097 1228 2736 
Q 959 2375 959 1747 
Q 959 1119 1226 758 
Q 1494 397 1959 397 
Q 2419 397 2687 759 
Q 2956 1122 2956 1747 
Q 2956 2369 2687 2733 
Q 2419 3097 1959 3097 
z
M 1959 3584 
Q 2709 3584 3137 3096 
Q 3566 2609 3566 1747 
Q 3566 888 3137 398 
Q 2709 -91 1959 -91 
Q 1206 -91 779 398 
Q 353 888 353 1747 
Q 353 2609 779 3096 
Q 1206 3584 1959 3584 
z
" transform="scale(0.015625)"/>
      </defs>
      <use xlink:href="#DejaVuSans-70"/>
      <use xlink:href="#DejaVuSans-65" x="63.476562"/>
      <use xlink:href="#DejaVuSans-72" x="125"/>
      <use xlink:href="#DejaVuSans-73" x="166.113281"/>
      <use xlink:href="#DejaVuSans-69" x="218.212891"/>
      <use xlink:href="#DejaVuSans-73" x="245.996094"/>
      <use xlink:href="#DejaVuSans-74" x="298.095703"/>
      <use xlink:href="#DejaVuSans-65" x="337.304688"/>
      <use xlink:href="#DejaVuSans-6e" x="398.828125"/>
      <use xlink:href="#DejaVuSans-63" x="462.207031"/>
      <use xlink:href="#DejaVuSans-65" x="517.1875"/>
      <use xlink:href="#DejaVuSans-5f" x="578.710938"/>
      <use xlink:href="#DejaVuSans-73" x="628.710938"/>
      <use xlink:href="#DejaVuSans-63" x="680.810547"/>
      <use xlink:href="#DejaVuSans-6f" x="735.791016"/>
      <use xlink:href="#DejaVuSans-72" x="796.972656"/>
      <use xlink:href="#DejaVuSans-65" x="835.835938"/>
     </g>
    </g>
   </g>
   <g id="matplotlib.axis_2">
    <g id="ytick_1">
     <g id="line2d_10">
      <defs>
       <path id="mcc096b458d" d="M 0 0 
L -3.5 0 
" style="stroke: #000000; stroke-width: 0.8"/>
      </defs>
      <g>
       <use xlink:href="#mcc096b458d" x="54.12125" y="287.179476" style="stroke: #000000; stroke-width: 0.8"/>
      </g>
     </g>
     <g id="text_11">
      <!-- 0.00 -->
      <g transform="translate(13.722813 292.878304) scale(0.15 -0.15)">
       <use xlink:href="#DejaVuSans-30"/>
       <use xlink:href="#DejaVuSans-2e" x="63.623047"/>
       <use xlink:href="#DejaVuSans-30" x="95.410156"/>
       <use xlink:href="#DejaVuSans-30" x="159.033203"/>
      </g>
     </g>
    </g>
    <g id="ytick_2">
     <g id="line2d_11">
      <g>
       <use xlink:href="#mcc096b458d" x="54.12125" y="246.594963" style="stroke: #000000; stroke-width: 0.8"/>
      </g>
     </g>
     <g id="text_12">
      <!-- 0.25 -->
      <g transform="translate(13.722813 252.293791) scale(0.15 -0.15)">
       <use xlink:href="#DejaVuSans-30"/>
       <use xlink:href="#DejaVuSans-2e" x="63.623047"/>
       <use xlink:href="#DejaVuSans-32" x="95.410156"/>
       <use xlink:href="#DejaVuSans-35" x="159.033203"/>
      </g>
     </g>
    </g>
    <g id="ytick_3">
     <g id="line2d_12">
      <g>
       <use xlink:href="#mcc096b458d" x="54.12125" y="206.010449" style="stroke: #000000; stroke-width: 0.8"/>
      </g>
     </g>
     <g id="text_13">
      <!-- 0.50 -->
      <g transform="translate(13.722813 211.709277) scale(0.15 -0.15)">
       <use xlink:href="#DejaVuSans-30"/>
       <use xlink:href="#DejaVuSans-2e" x="63.623047"/>
       <use xlink:href="#DejaVuSans-35" x="95.410156"/>
       <use xlink:href="#DejaVuSans-30" x="159.033203"/>
      </g>
     </g>
    </g>
    <g id="ytick_4">
     <g id="line2d_13">
      <g>
       <use xlink:href="#mcc096b458d" x="54.12125" y="165.425936" style="stroke: #000000; stroke-width: 0.8"/>
      </g>
     </g>
     <g id="text_14">
      <!-- 0.75 -->
      <g transform="translate(13.722813 171.124764) scale(0.15 -0.15)">
       <use xlink:href="#DejaVuSans-30"/>
       <use xlink:href="#DejaVuSans-2e" x="63.623047"/>
       <use xlink:href="#DejaVuSans-37" x="95.410156"/>
       <use xlink:href="#DejaVuSans-35" x="159.033203"/>
      </g>
     </g>
    </g>
    <g id="ytick_5">
     <g id="line2d_14">
      <g>
       <use xlink:href="#mcc096b458d" x="54.12125" y="124.841422" style="stroke: #000000; stroke-width: 0.8"/>
      </g>
     </g>
     <g id="text_15">
      <!-- 1.00 -->
      <g transform="translate(13.722813 130.54025) scale(0.15 -0.15)">
       <use xlink:href="#DejaVuSans-31"/>
       <use xlink:href="#DejaVuSans-2e" x="63.623047"/>
       <use xlink:href="#DejaVuSans-30" x="95.410156"/>
       <use xlink:href="#DejaVuSans-30" x="159.033203"/>
      </g>
     </g>
    </g>
    <g id="ytick_6">
     <g id="line2d_15">
      <g>
       <use xlink:href="#mcc096b458d" x="54.12125" y="84.256909" style="stroke: #000000; stroke-width: 0.8"/>
      </g>
     </g>
     <g id="text_16">
      <!-- 1.25 -->
      <g transform="translate(13.722813 89.955737) scale(0.15 -0.15)">
       <use xlink:href="#DejaVuSans-31"/>
       <use xlink:href="#DejaVuSans-2e" x="63.623047"/>
       <use xlink:href="#DejaVuSans-32" x="95.410156"/>
       <use xlink:href="#DejaVuSans-35" x="159.033203"/>
      </g>
     </g>
    </g>
    <g id="ytick_7">
     <g id="line2d_16">
      <g>
       <use xlink:href="#mcc096b458d" x="54.12125" y="43.672395" style="stroke: #000000; stroke-width: 0.8"/>
      </g>
     </g>
     <g id="text_17">
      <!-- 1.50 -->
      <g transform="translate(13.722813 49.371223) scale(0.15 -0.15)">
       <use xlink:href="#DejaVuSans-31"/>
       <use xlink:href="#DejaVuSans-2e" x="63.623047"/>
       <use xlink:href="#DejaVuSans-35" x="95.410156"/>
       <use xlink:href="#DejaVuSans-30" x="159.033203"/>
      </g>
     </g>
    </g>
    <g id="text_18">
     <!-- adaptation_red -->
     <g transform="translate(5.007188 239.913125) rotate(-90) scale(0.2 -0.2)">
      <defs>
       <path id="DejaVuSans-61" d="M 2194 1759 
Q 1497 1759 1228 1600 
Q 959 1441 959 1056 
Q 959 750 1161 570 
Q 1363 391 1709 391 
Q 2188 391 2477 730 
Q 2766 1069 2766 1631 
L 2766 1759 
L 2194 1759 
z
M 3341 1997 
L 3341 0 
L 2766 0 
L 2766 531 
Q 2569 213 2275 61 
Q 1981 -91 1556 -91 
Q 1019 -91 701 211 
Q 384 513 384 1019 
Q 384 1609 779 1909 
Q 1175 2209 1959 2209 
L 2766 2209 
L 2766 2266 
Q 2766 2663 2505 2880 
Q 2244 3097 1772 3097 
Q 1472 3097 1187 3025 
Q 903 2953 641 2809 
L 641 3341 
Q 956 3463 1253 3523 
Q 1550 3584 1831 3584 
Q 2591 3584 2966 3190 
Q 3341 2797 3341 1997 
z
" transform="scale(0.015625)"/>
       <path id="DejaVuSans-64" d="M 2906 2969 
L 2906 4863 
L 3481 4863 
L 3481 0 
L 2906 0 
L 2906 525 
Q 2725 213 2448 61 
Q 2172 -91 1784 -91 
Q 1150 -91 751 415 
Q 353 922 353 1747 
Q 353 2572 751 3078 
Q 1150 3584 1784 3584 
Q 2172 3584 2448 3432 
Q 2725 3281 2906 2969 
z
M 947 1747 
Q 947 1113 1208 752 
Q 1469 391 1925 391 
Q 2381 391 2643 752 
Q 2906 1113 2906 1747 
Q 2906 2381 2643 2742 
Q 2381 3103 1925 3103 
Q 1469 3103 1208 2742 
Q 947 2381 947 1747 
z
" transform="scale(0.015625)"/>
      </defs>
      <use xlink:href="#DejaVuSans-61"/>
      <use xlink:href="#DejaVuSans-64" x="61.279297"/>
      <use xlink:href="#DejaVuSans-61" x="124.755859"/>
      <use xlink:href="#DejaVuSans-70" x="186.035156"/>
      <use xlink:href="#DejaVuSans-74" x="249.511719"/>
      <use xlink:href="#DejaVuSans-61" x="288.720703"/>
      <use xlink:href="#DejaVuSans-74" x="350"/>
      <use xlink:href="#DejaVuSans-69" x="389.208984"/>
      <use xlink:href="#DejaVuSans-6f" x="416.992188"/>
      <use xlink:href="#DejaVuSans-6e" x="478.173828"/>
      <use xlink:href="#DejaVuSans-5f" x="541.552734"/>
      <use xlink:href="#DejaVuSans-72" x="591.552734"/>
      <use xlink:href="#DejaVuSans-65" x="630.416016"/>
      <use xlink:href="#DejaVuSans-64" x="691.939453"/>
     </g>
    </g>
   </g>
   <g id="line2d_17">
    <path d="M 67.53392 269.262364 
L 70.243551 267.813275 
L 72.953181 266.364186 
L 75.662812 264.915097 
L 78.372442 263.466008 
L 81.082072 262.016919 
L 83.791703 260.56783 
L 86.501333 259.118741 
L 89.210964 257.669652 
L 91.920594 256.220563 
L 94.630224 254.771474 
L 97.339855 253.322385 
L 100.049485 251.873297 
L 102.759116 250.424208 
L 105.468746 248.975119 
L 108.178376 247.52603 
L 110.888007 246.076941 
L 113.597637 244.627852 
L 116.307268 243.178763 
L 119.016898 241.729674 
L 121.726528 240.280585 
L 124.436159 238.831496 
L 127.145789 237.382407 
L 129.85542 235.933318 
L 132.56505 234.48423 
L 135.27468 233.035141 
L 137.984311 231.586052 
L 140.693941 230.136963 
L 143.403572 228.687874 
L 146.113202 227.238785 
L 148.822832 225.789696 
L 151.532463 224.340607 
L 154.242093 222.891518 
L 156.951723 221.442429 
L 159.661354 219.99334 
L 162.370984 218.544251 
L 165.080615 217.095163 
L 167.790245 215.646074 
L 170.499875 214.196985 
L 173.209506 212.747896 
L 175.919136 211.298807 
L 178.628767 209.849718 
L 181.338397 208.400629 
L 184.048027 206.95154 
L 186.757658 205.502451 
L 189.467288 204.053362 
L 192.176919 202.604273 
L 194.886549 201.155185 
L 197.596179 199.706096 
L 200.30581 198.257007 
L 203.01544 196.807918 
L 205.725071 195.358829 
L 208.434701 193.90974 
L 211.144331 192.460651 
L 213.853962 191.011562 
L 216.563592 189.562473 
L 219.273223 188.113384 
L 221.982853 186.664295 
L 224.692483 185.215206 
L 227.402114 183.766118 
L 230.111744 182.317029 
L 232.821375 180.86794 
L 235.531005 179.418851 
L 238.240635 177.969762 
L 240.950266 176.520673 
L 243.659896 175.071584 
L 246.369527 173.622495 
L 249.079157 172.173406 
L 251.788787 170.724317 
L 254.498418 169.275228 
L 257.208048 167.826139 
L 259.917678 166.377051 
L 262.627309 164.927962 
L 265.336939 163.478873 
L 268.04657 162.029784 
L 270.7562 160.580695 
L 273.46583 159.131606 
L 276.175461 157.682517 
L 278.885091 156.233428 
L 281.594722 154.784339 
L 284.304352 153.33525 
L 287.013982 151.886161 
L 289.723613 150.437072 
L 292.433243 148.987984 
L 295.142874 147.538895 
L 297.852504 146.089806 
L 300.562134 144.640717 
L 303.271765 143.191628 
L 305.981395 141.742539 
L 308.691026 140.29345 
L 311.400656 138.844361 
L 314.110286 137.395272 
L 316.819917 135.946183 
L 319.529547 134.497094 
L 322.239178 133.048006 
L 324.948808 131.598917 
L 327.658438 130.149828 
L 330.368069 128.700739 
L 333.077699 127.25165 
L 335.78733 125.802561 
" clip-path="url(#p58f8fabc72)" style="fill: none; stroke: #fa8072; stroke-width: 2.25; stroke-linecap: square"/>
   </g>
   <g id="patch_3">
    <path d="M 54.12125 317.93875 
L 54.12125 10.8 
" style="fill: none; stroke: #000000; stroke-width: 0.8; stroke-linejoin: miter; stroke-linecap: square"/>
   </g>
   <g id="patch_4">
    <path d="M 54.12125 317.93875 
L 349.2 317.93875 
" style="fill: none; stroke: #000000; stroke-width: 0.8; stroke-linejoin: miter; stroke-linecap: square"/>
   </g>
  </g>
 </g>
 <defs>
  <clipPath id="p58f8fabc72">
   <rect x="54.12125" y="10.8" width="295.07875" height="307.13875"/>
  </clipPath>
 </defs>
</svg>
