<?xml version="1.0" encoding="utf-8" standalone="no"?>
<!DOCTYPE svg PUBLIC "-//W3C//DTD SVG 1.1//EN"
  "http://www.w3.org/Graphics/SVG/1.1/DTD/svg11.dtd">
<svg xmlns:xlink="http://www.w3.org/1999/xlink" width="360pt" height="360pt" viewBox="0 0 360 360" xmlns="http://www.w3.org/2000/svg" version="1.1">
 <metadata>
  <rdf:RDF xmlns:dc="http://purl.org/dc/elements/1.1/" xmlns:cc="http://creativecommons.org/ns#" xmlns:rdf="http://www.w3.org/1999/02/22-rdf-syntax-ns#">
   <cc:Work>
    <dc:type rdf:resource="http://purl.org/dc/dcmitype/StillImage"/>
    <dc:date>2024-12-04T10:53:59.879713</dc:date>
    <dc:format>image/svg+xml</dc:format>
    <dc:creator>
     <cc:Agent>
      <dc:title>Matplotlib v3.9.2, https://matplotlib.org/</dc:title>
     </cc:Agent>
    </dc:creator>
   </cc:Work>
  </rdf:RDF>
 </metadata>
 <defs>
  <style type="text/css">*{stroke-linejoin: round; stroke-linecap: butt}</style>
 </defs>
 <g id="figure_1">
  <g id="patch_1">
   <path d="M 0 360 
L 360 360 
L 360 0 
L 0 0 
z
" style="fill: #ffffff"/>
  </g>
  <g id="axes_1">
   <g id="patch_2">
    <path d="M 54.02 317.93875 
L 349.2 317.93875 
L 349.2 10.8 
L 54.02 10.8 
z
" style="fill: #ffffff"/>
   </g>
   <g id="PathCollection_1">
    <defs>
     <path id="m1d7926eff3" d="M 0 3 
C 0.795609 3 1.55874 2.683901 2.12132 2.12132 
C 2.683901 1.55874 3 0.795609 3 0 
C 3 -0.795609 2.683901 -1.55874 2.12132 -2.12132 
C 1.55874 -2.683901 0.795609 -3 0 -3 
C -0.795609 -3 -1.55874 -2.683901 -2.12132 -2.12132 
C -2.683901 -1.55874 -3 -0.795609 -3 0 
C -3 0.795609 -2.683901 1.55874 -2.12132 2.12132 
C -1.55874 2.683901 -0.795609 3 0 3 
z
" style="stroke: #1f77b4; stroke-opacity: 0.8"/>
    </defs>
    <g clip-path="url(#p32d7012efb)">
     <use xlink:href="#m1d7926eff3" x="229.490914" y="194.610455" style="fill: #1f77b4; fill-opacity: 0.8; stroke: #1f77b4; stroke-opacity: 0.8"/>
     <use xlink:href="#m1d7926eff3" x="281.815671" y="24.760852" style="fill: #1f77b4; fill-opacity: 0.8; stroke: #1f77b4; stroke-opacity: 0.8"/>
     <use xlink:href="#m1d7926eff3" x="217.711049" y="271.668316" style="fill: #1f77b4; fill-opacity: 0.8; stroke: #1f77b4; stroke-opacity: 0.8"/>
     <use xlink:href="#m1d7926eff3" x="119.895397" y="211.070876" style="fill: #1f77b4; fill-opacity: 0.8; stroke: #1f77b4; stroke-opacity: 0.8"/>
     <use xlink:href="#m1d7926eff3" x="187.931742" y="215.161637" style="fill: #1f77b4; fill-opacity: 0.8; stroke: #1f77b4; stroke-opacity: 0.8"/>
     <use xlink:href="#m1d7926eff3" x="67.437273" y="270.739662" style="fill: #1f77b4; fill-opacity: 0.8; stroke: #1f77b4; stroke-opacity: 0.8"/>
     <use xlink:href="#m1d7926eff3" x="81.780978" y="273.386529" style="fill: #1f77b4; fill-opacity: 0.8; stroke: #1f77b4; stroke-opacity: 0.8"/>
     <use xlink:href="#m1d7926eff3" x="335.782727" y="172.751313" style="fill: #1f77b4; fill-opacity: 0.8; stroke: #1f77b4; stroke-opacity: 0.8"/>
     <use xlink:href="#m1d7926eff3" x="203.711967" y="274.698573" style="fill: #1f77b4; fill-opacity: 0.8; stroke: #1f77b4; stroke-opacity: 0.8"/>
     <use xlink:href="#m1d7926eff3" x="289.903773" y="181.834701" style="fill: #1f77b4; fill-opacity: 0.8; stroke: #1f77b4; stroke-opacity: 0.8"/>
     <use xlink:href="#m1d7926eff3" x="106.196388" y="275.985802" style="fill: #1f77b4; fill-opacity: 0.8; stroke: #1f77b4; stroke-opacity: 0.8"/>
     <use xlink:href="#m1d7926eff3" x="110.622517" y="275.761396" style="fill: #1f77b4; fill-opacity: 0.8; stroke: #1f77b4; stroke-opacity: 0.8"/>
     <use xlink:href="#m1d7926eff3" x="125.900207" y="253.306967" style="fill: #1f77b4; fill-opacity: 0.8; stroke: #1f77b4; stroke-opacity: 0.8"/>
     <use xlink:href="#m1d7926eff3" x="87.527397" y="221.107436" style="fill: #1f77b4; fill-opacity: 0.8; stroke: #1f77b4; stroke-opacity: 0.8"/>
     <use xlink:href="#m1d7926eff3" x="74.022018" y="265.736069" style="fill: #1f77b4; fill-opacity: 0.8; stroke: #1f77b4; stroke-opacity: 0.8"/>
    </g>
   </g>
   <g id="PolyCollection_1">
    <path d="M 67.437273 254.213022 
L 67.437273 303.977898 
L 70.147833 301.806567 
L 72.858393 299.659852 
L 75.568953 297.731944 
L 78.279513 295.877163 
L 80.990073 293.872124 
L 83.700634 291.966432 
L 86.411194 289.891177 
L 89.121754 287.953246 
L 91.832314 286.036131 
L 94.542874 284.40703 
L 97.253434 282.538435 
L 99.963994 280.550062 
L 102.674555 278.876167 
L 105.385115 276.804897 
L 108.095675 275.547867 
L 110.806235 273.501828 
L 113.516795 271.868569 
L 116.227355 270.239087 
L 118.937916 268.917526 
L 121.648476 267.305883 
L 124.359036 266.056456 
L 127.069596 264.92783 
L 129.780156 263.594294 
L 132.490716 262.320225 
L 135.201276 261.114651 
L 137.911837 260.010357 
L 140.622397 259.149441 
L 143.332957 258.538424 
L 146.043517 257.68263 
L 148.754077 256.822569 
L 151.464637 256.119862 
L 154.175197 255.102084 
L 156.885758 254.371818 
L 159.596318 253.776706 
L 162.306878 252.913277 
L 165.017438 252.286917 
L 167.727998 251.639949 
L 170.438558 250.922965 
L 173.149118 250.315363 
L 175.859679 249.353025 
L 178.570239 248.462685 
L 181.280799 247.471644 
L 183.991359 246.8095 
L 186.701919 246.038192 
L 189.412479 245.124732 
L 192.123039 244.409231 
L 194.8336 243.617747 
L 197.54416 243.105488 
L 200.25472 242.619765 
L 202.96528 242.253684 
L 205.67584 241.800952 
L 208.3864 241.20493 
L 211.096961 240.672829 
L 213.807521 240.188459 
L 216.518081 239.692899 
L 219.228641 238.948456 
L 221.939201 238.138704 
L 224.649761 237.651116 
L 227.360321 237.163527 
L 230.070882 236.675938 
L 232.781442 236.18835 
L 235.492002 235.700761 
L 238.202562 235.213172 
L 240.913122 234.725583 
L 243.623682 234.236328 
L 246.334242 233.745194 
L 249.044803 233.254061 
L 251.755363 232.762927 
L 254.465923 232.234402 
L 257.176483 231.618054 
L 259.887043 230.997261 
L 262.597603 230.370461 
L 265.308163 229.742851 
L 268.018724 229.115241 
L 270.729284 228.48763 
L 273.439844 227.945002 
L 276.150404 227.516554 
L 278.860964 227.108153 
L 281.571524 226.511827 
L 284.282084 225.9155 
L 286.992645 225.319174 
L 289.703205 224.773929 
L 292.413765 224.300802 
L 295.124325 223.869836 
L 297.834885 223.438869 
L 300.545445 223.007903 
L 303.256006 222.576936 
L 305.966566 222.14597 
L 308.677126 221.715003 
L 311.387686 221.284036 
L 314.098246 220.85307 
L 316.808806 220.422103 
L 319.519366 219.991137 
L 322.229927 219.56017 
L 324.940487 219.223435 
L 327.651047 218.908658 
L 330.361607 218.593881 
L 333.072167 218.135319 
L 335.782727 217.649356 
L 335.782727 60.776257 
L 335.782727 60.776257 
L 333.072167 62.959455 
L 330.361607 65.046611 
L 327.651047 67.147628 
L 324.940487 69.476746 
L 322.229927 71.68434 
L 319.519366 73.867154 
L 316.808806 76.135713 
L 314.098246 78.455422 
L 311.387686 80.774068 
L 308.677126 83.088632 
L 305.966566 85.403196 
L 303.256006 87.725477 
L 300.545445 90.116172 
L 297.834885 92.580189 
L 295.124325 94.831788 
L 292.413765 97.083386 
L 289.703205 99.334985 
L 286.992645 101.636788 
L 284.282084 103.953275 
L 281.571524 106.215881 
L 278.860964 108.404026 
L 276.150404 110.59217 
L 273.439844 112.833323 
L 270.729284 115.08163 
L 268.018724 117.333693 
L 265.308163 119.870818 
L 262.597603 122.392572 
L 259.887043 124.658134 
L 257.176483 126.923696 
L 254.465923 129.189257 
L 251.755363 131.454819 
L 249.044803 133.71883 
L 246.334242 135.887179 
L 243.623682 138.055528 
L 240.913122 140.230648 
L 238.202562 142.79055 
L 235.492002 145.054022 
L 232.781442 147.321681 
L 230.070882 149.590409 
L 227.360321 151.838763 
L 224.649761 154.046905 
L 221.939201 156.392714 
L 219.228641 158.657124 
L 216.518081 160.921535 
L 213.807521 163.185945 
L 211.096961 165.450355 
L 208.3864 167.714766 
L 205.67584 169.979176 
L 202.96528 172.24671 
L 200.25472 174.514435 
L 197.54416 176.768077 
L 194.8336 178.920636 
L 192.123039 181.146584 
L 189.412479 183.483943 
L 186.701919 185.853059 
L 183.991359 188.11861 
L 181.280799 190.369618 
L 178.570239 192.630732 
L 175.859679 194.442756 
L 173.149118 196.105544 
L 170.438558 198.328662 
L 167.727998 200.351406 
L 165.017438 202.163833 
L 162.306878 204.353758 
L 159.596318 206.461439 
L 156.885758 208.953119 
L 154.175197 211.101425 
L 151.464637 213.22289 
L 148.754077 214.735206 
L 146.043517 216.334016 
L 143.332957 218.380067 
L 140.622397 220.379106 
L 137.911837 222.471346 
L 135.201276 224.30528 
L 132.490716 226.304346 
L 129.780156 227.838311 
L 127.069596 229.657156 
L 124.359036 231.139657 
L 121.648476 232.869211 
L 118.937916 234.727642 
L 116.227355 235.676136 
L 113.516795 237.286926 
L 110.806235 238.622279 
L 108.095675 240.029861 
L 105.385115 241.397294 
L 102.674555 242.622252 
L 99.963994 243.600701 
L 97.253434 244.556823 
L 94.542874 245.349246 
L 91.832314 246.20872 
L 89.121754 247.287189 
L 86.411194 248.109264 
L 83.700634 249.105769 
L 80.990073 250.10942 
L 78.279513 251.193413 
L 75.568953 252.1228 
L 72.858393 252.811904 
L 70.147833 253.624539 
L 67.437273 254.213022 
z
" clip-path="url(#p32d7012efb)" style="fill: #1f77b4; fill-opacity: 0.15"/>
   </g>
   <g id="matplotlib.axis_1">
    <g id="xtick_1">
     <g id="line2d_1">
      <defs>
       <path id="mbf5c3c9e33" d="M 0 0 
L 0 3.5 
" style="stroke: #000000; stroke-width: 0.8"/>
      </defs>
      <g>
       <use xlink:href="#mbf5c3c9e33" x="58.452236" y="317.93875" style="stroke: #000000; stroke-width: 0.8"/>
      </g>
     </g>
     <g id="text_1">
      <!-- −2.0 -->
      <g transform="translate(46.310829 332.537188) scale(0.1 -0.1)">
       <defs>
        <path id="DejaVuSans-2212" d="M 678 2272 
L 4684 2272 
L 4684 1741 
L 678 1741 
L 678 2272 
z
" transform="scale(0.015625)"/>
        <path id="DejaVuSans-32" d="M 1228 531 
L 3431 531 
L 3431 0 
L 469 0 
L 469 531 
Q 828 903 1448 1529 
Q 2069 2156 2228 2338 
Q 2531 2678 2651 2914 
Q 2772 3150 2772 3378 
Q 2772 3750 2511 3984 
Q 2250 4219 1831 4219 
Q 1534 4219 1204 4116 
Q 875 4013 500 3803 
L 500 4441 
Q 881 4594 1212 4672 
Q 1544 4750 1819 4750 
Q 2544 4750 2975 4387 
Q 3406 4025 3406 3419 
Q 3406 3131 3298 2873 
Q 3191 2616 2906 2266 
Q 2828 2175 2409 1742 
Q 1991 1309 1228 531 
z
" transform="scale(0.015625)"/>
        <path id="DejaVuSans-2e" d="M 684 794 
L 1344 794 
L 1344 0 
L 684 0 
L 684 794 
z
" transform="scale(0.015625)"/>
        <path id="DejaVuSans-30" d="M 2034 4250 
Q 1547 4250 1301 3770 
Q 1056 3291 1056 2328 
Q 1056 1369 1301 889 
Q 1547 409 2034 409 
Q 2525 409 2770 889 
Q 3016 1369 3016 2328 
Q 3016 3291 2770 3770 
Q 2525 4250 2034 4250 
z
M 2034 4750 
Q 2819 4750 3233 4129 
Q 3647 3509 3647 2328 
Q 3647 1150 3233 529 
Q 2819 -91 2034 -91 
Q 1250 -91 836 529 
Q 422 1150 422 2328 
Q 422 3509 836 4129 
Q 1250 4750 2034 4750 
z
" transform="scale(0.015625)"/>
       </defs>
       <use xlink:href="#DejaVuSans-2212"/>
       <use xlink:href="#DejaVuSans-32" x="83.789062"/>
       <use xlink:href="#DejaVuSans-2e" x="147.412109"/>
       <use xlink:href="#DejaVuSans-30" x="179.199219"/>
      </g>
     </g>
    </g>
    <g id="xtick_2">
     <g id="line2d_2">
      <g>
       <use xlink:href="#mbf5c3c9e33" x="93.26441" y="317.93875" style="stroke: #000000; stroke-width: 0.8"/>
      </g>
     </g>
     <g id="text_2">
      <!-- −1.5 -->
      <g transform="translate(81.123004 332.537188) scale(0.1 -0.1)">
       <defs>
        <path id="DejaVuSans-31" d="M 794 531 
L 1825 531 
L 1825 4091 
L 703 3866 
L 703 4441 
L 1819 4666 
L 2450 4666 
L 2450 531 
L 3481 531 
L 3481 0 
L 794 0 
L 794 531 
z
" transform="scale(0.015625)"/>
        <path id="DejaVuSans-35" d="M 691 4666 
L 3169 4666 
L 3169 4134 
L 1269 4134 
L 1269 2991 
Q 1406 3038 1543 3061 
Q 1681 3084 1819 3084 
Q 2600 3084 3056 2656 
Q 3513 2228 3513 1497 
Q 3513 744 3044 326 
Q 2575 -91 1722 -91 
Q 1428 -91 1123 -41 
Q 819 9 494 109 
L 494 744 
Q 775 591 1075 516 
Q 1375 441 1709 441 
Q 2250 441 2565 725 
Q 2881 1009 2881 1497 
Q 2881 1984 2565 2268 
Q 2250 2553 1709 2553 
Q 1456 2553 1204 2497 
Q 953 2441 691 2322 
L 691 4666 
z
" transform="scale(0.015625)"/>
       </defs>
       <use xlink:href="#DejaVuSans-2212"/>
       <use xlink:href="#DejaVuSans-31" x="83.789062"/>
       <use xlink:href="#DejaVuSans-2e" x="147.412109"/>
       <use xlink:href="#DejaVuSans-35" x="179.199219"/>
      </g>
     </g>
    </g>
    <g id="xtick_3">
     <g id="line2d_3">
      <g>
       <use xlink:href="#mbf5c3c9e33" x="128.076585" y="317.93875" style="stroke: #000000; stroke-width: 0.8"/>
      </g>
     </g>
     <g id="text_3">
      <!-- −1.0 -->
      <g transform="translate(115.935179 332.537188) scale(0.1 -0.1)">
       <use xlink:href="#DejaVuSans-2212"/>
       <use xlink:href="#DejaVuSans-31" x="83.789062"/>
       <use xlink:href="#DejaVuSans-2e" x="147.412109"/>
       <use xlink:href="#DejaVuSans-30" x="179.199219"/>
      </g>
     </g>
    </g>
    <g id="xtick_4">
     <g id="line2d_4">
      <g>
       <use xlink:href="#mbf5c3c9e33" x="162.88876" y="317.93875" style="stroke: #000000; stroke-width: 0.8"/>
      </g>
     </g>
     <g id="text_4">
      <!-- −0.5 -->
      <g transform="translate(150.747354 332.537188) scale(0.1 -0.1)">
       <use xlink:href="#DejaVuSans-2212"/>
       <use xlink:href="#DejaVuSans-30" x="83.789062"/>
       <use xlink:href="#DejaVuSans-2e" x="147.412109"/>
       <use xlink:href="#DejaVuSans-35" x="179.199219"/>
      </g>
     </g>
    </g>
    <g id="xtick_5">
     <g id="line2d_5">
      <g>
       <use xlink:href="#mbf5c3c9e33" x="197.700935" y="317.93875" style="stroke: #000000; stroke-width: 0.8"/>
      </g>
     </g>
     <g id="text_5">
      <!-- 0.0 -->
      <g transform="translate(189.749372 332.537188) scale(0.1 -0.1)">
       <use xlink:href="#DejaVuSans-30"/>
       <use xlink:href="#DejaVuSans-2e" x="63.623047"/>
       <use xlink:href="#DejaVuSans-30" x="95.410156"/>
      </g>
     </g>
    </g>
    <g id="xtick_6">
     <g id="line2d_6">
      <g>
       <use xlink:href="#mbf5c3c9e33" x="232.51311" y="317.93875" style="stroke: #000000; stroke-width: 0.8"/>
      </g>
     </g>
     <g id="text_6">
      <!-- 0.5 -->
      <g transform="translate(224.561547 332.537188) scale(0.1 -0.1)">
       <use xlink:href="#DejaVuSans-30"/>
       <use xlink:href="#DejaVuSans-2e" x="63.623047"/>
       <use xlink:href="#DejaVuSans-35" x="95.410156"/>
      </g>
     </g>
    </g>
    <g id="xtick_7">
     <g id="line2d_7">
      <g>
       <use xlink:href="#mbf5c3c9e33" x="267.325284" y="317.93875" style="stroke: #000000; stroke-width: 0.8"/>
      </g>
     </g>
     <g id="text_7">
      <!-- 1.0 -->
      <g transform="translate(259.373722 332.537188) scale(0.1 -0.1)">
       <use xlink:href="#DejaVuSans-31"/>
       <use xlink:href="#DejaVuSans-2e" x="63.623047"/>
       <use xlink:href="#DejaVuSans-30" x="95.410156"/>
      </g>
     </g>
    </g>
    <g id="xtick_8">
     <g id="line2d_8">
      <g>
       <use xlink:href="#mbf5c3c9e33" x="302.137459" y="317.93875" style="stroke: #000000; stroke-width: 0.8"/>
      </g>
     </g>
     <g id="text_8">
      <!-- 1.5 -->
      <g transform="translate(294.185897 332.537188) scale(0.1 -0.1)">
       <use xlink:href="#DejaVuSans-31"/>
       <use xlink:href="#DejaVuSans-2e" x="63.623047"/>
       <use xlink:href="#DejaVuSans-35" x="95.410156"/>
      </g>
     </g>
    </g>
    <g id="xtick_9">
     <g id="line2d_9">
      <g>
       <use xlink:href="#mbf5c3c9e33" x="336.949634" y="317.93875" style="stroke: #000000; stroke-width: 0.8"/>
      </g>
     </g>
     <g id="text_9">
      <!-- 2.0 -->
      <g transform="translate(328.998071 332.537188) scale(0.1 -0.1)">
       <use xlink:href="#DejaVuSans-32"/>
       <use xlink:href="#DejaVuSans-2e" x="63.623047"/>
       <use xlink:href="#DejaVuSans-30" x="95.410156"/>
      </g>
     </g>
    </g>
    <g id="text_10">
     <!-- persistence_score -->
     <g transform="translate(156.74125 346.215312) scale(0.1 -0.1)">
      <defs>
       <path id="DejaVuSans-70" d="M 1159 525 
L 1159 -1331 
L 581 -1331 
L 581 3500 
L 1159 3500 
L 1159 2969 
Q 1341 3281 1617 3432 
Q 1894 3584 2278 3584 
Q 2916 3584 3314 3078 
Q 3713 2572 3713 1747 
Q 3713 922 3314 415 
Q 2916 -91 2278 -91 
Q 1894 -91 1617 61 
Q 1341 213 1159 525 
z
M 3116 1747 
Q 3116 2381 2855 2742 
Q 2594 3103 2138 3103 
Q 1681 3103 1420 2742 
Q 1159 2381 1159 1747 
Q 1159 1113 1420 752 
Q 1681 391 2138 391 
Q 2594 391 2855 752 
Q 3116 1113 3116 1747 
z
" transform="scale(0.015625)"/>
       <path id="DejaVuSans-65" d="M 3597 1894 
L 3597 1613 
L 953 1613 
Q 991 1019 1311 708 
Q 1631 397 2203 397 
Q 2534 397 2845 478 
Q 3156 559 3463 722 
L 3463 178 
Q 3153 47 2828 -22 
Q 2503 -91 2169 -91 
Q 1331 -91 842 396 
Q 353 884 353 1716 
Q 353 2575 817 3079 
Q 1281 3584 2069 3584 
Q 2775 3584 3186 3129 
Q 3597 2675 3597 1894 
z
M 3022 2063 
Q 3016 2534 2758 2815 
Q 2500 3097 2075 3097 
Q 1594 3097 1305 2825 
Q 1016 2553 972 2059 
L 3022 2063 
z
" transform="scale(0.015625)"/>
       <path id="DejaVuSans-72" d="M 2631 2963 
Q 2534 3019 2420 3045 
Q 2306 3072 2169 3072 
Q 1681 3072 1420 2755 
Q 1159 2438 1159 1844 
L 1159 0 
L 581 0 
L 581 3500 
L 1159 3500 
L 1159 2956 
Q 1341 3275 1631 3429 
Q 1922 3584 2338 3584 
Q 2397 3584 2469 3576 
Q 2541 3569 2628 3553 
L 2631 2963 
z
" transform="scale(0.015625)"/>
       <path id="DejaVuSans-73" d="M 2834 3397 
L 2834 2853 
Q 2591 2978 2328 3040 
Q 2066 3103 1784 3103 
Q 1356 3103 1142 2972 
Q 928 2841 928 2578 
Q 928 2378 1081 2264 
Q 1234 2150 1697 2047 
L 1894 2003 
Q 2506 1872 2764 1633 
Q 3022 1394 3022 966 
Q 3022 478 2636 193 
Q 2250 -91 1575 -91 
Q 1294 -91 989 -36 
Q 684 19 347 128 
L 347 722 
Q 666 556 975 473 
Q 1284 391 1588 391 
Q 1994 391 2212 530 
Q 2431 669 2431 922 
Q 2431 1156 2273 1281 
Q 2116 1406 1581 1522 
L 1381 1569 
Q 847 1681 609 1914 
Q 372 2147 372 2553 
Q 372 3047 722 3315 
Q 1072 3584 1716 3584 
Q 2034 3584 2315 3537 
Q 2597 3491 2834 3397 
z
" transform="scale(0.015625)"/>
       <path id="DejaVuSans-69" d="M 603 3500 
L 1178 3500 
L 1178 0 
L 603 0 
L 603 3500 
z
M 603 4863 
L 1178 4863 
L 1178 4134 
L 603 4134 
L 603 4863 
z
" transform="scale(0.015625)"/>
       <path id="DejaVuSans-74" d="M 1172 4494 
L 1172 3500 
L 2356 3500 
L 2356 3053 
L 1172 3053 
L 1172 1153 
Q 1172 725 1289 603 
Q 1406 481 1766 481 
L 2356 481 
L 2356 0 
L 1766 0 
Q 1100 0 847 248 
Q 594 497 594 1153 
L 594 3053 
L 172 3053 
L 172 3500 
L 594 3500 
L 594 4494 
L 1172 4494 
z
" transform="scale(0.015625)"/>
       <path id="DejaVuSans-6e" d="M 3513 2113 
L 3513 0 
L 2938 0 
L 2938 2094 
Q 2938 2591 2744 2837 
Q 2550 3084 2163 3084 
Q 1697 3084 1428 2787 
Q 1159 2491 1159 1978 
L 1159 0 
L 581 0 
L 581 3500 
L 1159 3500 
L 1159 2956 
Q 1366 3272 1645 3428 
Q 1925 3584 2291 3584 
Q 2894 3584 3203 3211 
Q 3513 2838 3513 2113 
z
" transform="scale(0.015625)"/>
       <path id="DejaVuSans-63" d="M 3122 3366 
L 3122 2828 
Q 2878 2963 2633 3030 
Q 2388 3097 2138 3097 
Q 1578 3097 1268 2742 
Q 959 2388 959 1747 
Q 959 1106 1268 751 
Q 1578 397 2138 397 
Q 2388 397 2633 464 
Q 2878 531 3122 666 
L 3122 134 
Q 2881 22 2623 -34 
Q 2366 -91 2075 -91 
Q 1284 -91 818 406 
Q 353 903 353 1747 
Q 353 2603 823 3093 
Q 1294 3584 2113 3584 
Q 2378 3584 2631 3529 
Q 2884 3475 3122 3366 
z
" transform="scale(0.015625)"/>
       <path id="DejaVuSans-5f" d="M 3263 -1063 
L 3263 -1509 
L -63 -1509 
L -63 -1063 
L 3263 -1063 
z
" transform="scale(0.015625)"/>
       <path id="DejaVuSans-6f" d="M 1959 3097 
Q 1497 3097 1228 2736 
Q 959 2375 959 1747 
Q 959 1119 1226 758 
Q 1494 397 1959 397 
Q 2419 397 2687 759 
Q 2956 1122 2956 1747 
Q 2956 2369 2687 2733 
Q 2419 3097 1959 3097 
z
M 1959 3584 
Q 2709 3584 3137 3096 
Q 3566 2609 3566 1747 
Q 3566 888 3137 398 
Q 2709 -91 1959 -91 
Q 1206 -91 779 398 
Q 353 888 353 1747 
Q 353 2609 779 3096 
Q 1206 3584 1959 3584 
z
" transform="scale(0.015625)"/>
      </defs>
      <use xlink:href="#DejaVuSans-70"/>
      <use xlink:href="#DejaVuSans-65" x="63.476562"/>
      <use xlink:href="#DejaVuSans-72" x="125"/>
      <use xlink:href="#DejaVuSans-73" x="166.113281"/>
      <use xlink:href="#DejaVuSans-69" x="218.212891"/>
      <use xlink:href="#DejaVuSans-73" x="245.996094"/>
      <use xlink:href="#DejaVuSans-74" x="298.095703"/>
      <use xlink:href="#DejaVuSans-65" x="337.304688"/>
      <use xlink:href="#DejaVuSans-6e" x="398.828125"/>
      <use xlink:href="#DejaVuSans-63" x="462.207031"/>
      <use xlink:href="#DejaVuSans-65" x="517.1875"/>
      <use xlink:href="#DejaVuSans-5f" x="578.710938"/>
      <use xlink:href="#DejaVuSans-73" x="628.710938"/>
      <use xlink:href="#DejaVuSans-63" x="680.810547"/>
      <use xlink:href="#DejaVuSans-6f" x="735.791016"/>
      <use xlink:href="#DejaVuSans-72" x="796.972656"/>
      <use xlink:href="#DejaVuSans-65" x="835.835938"/>
     </g>
    </g>
   </g>
   <g id="matplotlib.axis_2">
    <g id="ytick_1">
     <g id="line2d_10">
      <defs>
       <path id="m3e35745d71" d="M 0 0 
L -3.5 0 
" style="stroke: #000000; stroke-width: 0.8"/>
      </defs>
      <g>
       <use xlink:href="#m3e35745d71" x="54.02" y="309.865516" style="stroke: #000000; stroke-width: 0.8"/>
      </g>
     </g>
     <g id="text_11">
      <!-- 0.00 -->
      <g transform="translate(24.754375 313.664735) scale(0.1 -0.1)">
       <use xlink:href="#DejaVuSans-30"/>
       <use xlink:href="#DejaVuSans-2e" x="63.623047"/>
       <use xlink:href="#DejaVuSans-30" x="95.410156"/>
       <use xlink:href="#DejaVuSans-30" x="159.033203"/>
      </g>
     </g>
    </g>
    <g id="ytick_2">
     <g id="line2d_11">
      <g>
       <use xlink:href="#m3e35745d71" x="54.02" y="273.725066" style="stroke: #000000; stroke-width: 0.8"/>
      </g>
     </g>
     <g id="text_12">
      <!-- 0.25 -->
      <g transform="translate(24.754375 277.524285) scale(0.1 -0.1)">
       <use xlink:href="#DejaVuSans-30"/>
       <use xlink:href="#DejaVuSans-2e" x="63.623047"/>
       <use xlink:href="#DejaVuSans-32" x="95.410156"/>
       <use xlink:href="#DejaVuSans-35" x="159.033203"/>
      </g>
     </g>
    </g>
    <g id="ytick_3">
     <g id="line2d_12">
      <g>
       <use xlink:href="#m3e35745d71" x="54.02" y="237.584616" style="stroke: #000000; stroke-width: 0.8"/>
      </g>
     </g>
     <g id="text_13">
      <!-- 0.50 -->
      <g transform="translate(24.754375 241.383835) scale(0.1 -0.1)">
       <use xlink:href="#DejaVuSans-30"/>
       <use xlink:href="#DejaVuSans-2e" x="63.623047"/>
       <use xlink:href="#DejaVuSans-35" x="95.410156"/>
       <use xlink:href="#DejaVuSans-30" x="159.033203"/>
      </g>
     </g>
    </g>
    <g id="ytick_4">
     <g id="line2d_13">
      <g>
       <use xlink:href="#m3e35745d71" x="54.02" y="201.444166" style="stroke: #000000; stroke-width: 0.8"/>
      </g>
     </g>
     <g id="text_14">
      <!-- 0.75 -->
      <g transform="translate(24.754375 205.243385) scale(0.1 -0.1)">
       <defs>
        <path id="DejaVuSans-37" d="M 525 4666 
L 3525 4666 
L 3525 4397 
L 1831 0 
L 1172 0 
L 2766 4134 
L 525 4134 
L 525 4666 
z
" transform="scale(0.015625)"/>
       </defs>
       <use xlink:href="#DejaVuSans-30"/>
       <use xlink:href="#DejaVuSans-2e" x="63.623047"/>
       <use xlink:href="#DejaVuSans-37" x="95.410156"/>
       <use xlink:href="#DejaVuSans-35" x="159.033203"/>
      </g>
     </g>
    </g>
    <g id="ytick_5">
     <g id="line2d_14">
      <g>
       <use xlink:href="#m3e35745d71" x="54.02" y="165.303716" style="stroke: #000000; stroke-width: 0.8"/>
      </g>
     </g>
     <g id="text_15">
      <!-- 1.00 -->
      <g transform="translate(24.754375 169.102935) scale(0.1 -0.1)">
       <use xlink:href="#DejaVuSans-31"/>
       <use xlink:href="#DejaVuSans-2e" x="63.623047"/>
       <use xlink:href="#DejaVuSans-30" x="95.410156"/>
       <use xlink:href="#DejaVuSans-30" x="159.033203"/>
      </g>
     </g>
    </g>
    <g id="ytick_6">
     <g id="line2d_15">
      <g>
       <use xlink:href="#m3e35745d71" x="54.02" y="129.163266" style="stroke: #000000; stroke-width: 0.8"/>
      </g>
     </g>
     <g id="text_16">
      <!-- 1.25 -->
      <g transform="translate(24.754375 132.962485) scale(0.1 -0.1)">
       <use xlink:href="#DejaVuSans-31"/>
       <use xlink:href="#DejaVuSans-2e" x="63.623047"/>
       <use xlink:href="#DejaVuSans-32" x="95.410156"/>
       <use xlink:href="#DejaVuSans-35" x="159.033203"/>
      </g>
     </g>
    </g>
    <g id="ytick_7">
     <g id="line2d_16">
      <g>
       <use xlink:href="#m3e35745d71" x="54.02" y="93.022816" style="stroke: #000000; stroke-width: 0.8"/>
      </g>
     </g>
     <g id="text_17">
      <!-- 1.50 -->
      <g transform="translate(24.754375 96.822035) scale(0.1 -0.1)">
       <use xlink:href="#DejaVuSans-31"/>
       <use xlink:href="#DejaVuSans-2e" x="63.623047"/>
       <use xlink:href="#DejaVuSans-35" x="95.410156"/>
       <use xlink:href="#DejaVuSans-30" x="159.033203"/>
      </g>
     </g>
    </g>
    <g id="ytick_8">
     <g id="line2d_17">
      <g>
       <use xlink:href="#m3e35745d71" x="54.02" y="56.882366" style="stroke: #000000; stroke-width: 0.8"/>
      </g>
     </g>
     <g id="text_18">
      <!-- 1.75 -->
      <g transform="translate(24.754375 60.681585) scale(0.1 -0.1)">
       <use xlink:href="#DejaVuSans-31"/>
       <use xlink:href="#DejaVuSans-2e" x="63.623047"/>
       <use xlink:href="#DejaVuSans-37" x="95.410156"/>
       <use xlink:href="#DejaVuSans-35" x="159.033203"/>
      </g>
     </g>
    </g>
    <g id="ytick_9">
     <g id="line2d_18">
      <g>
       <use xlink:href="#m3e35745d71" x="54.02" y="20.741916" style="stroke: #000000; stroke-width: 0.8"/>
      </g>
     </g>
     <g id="text_19">
      <!-- 2.00 -->
      <g transform="translate(24.754375 24.541135) scale(0.1 -0.1)">
       <use xlink:href="#DejaVuSans-32"/>
       <use xlink:href="#DejaVuSans-2e" x="63.623047"/>
       <use xlink:href="#DejaVuSans-30" x="95.410156"/>
       <use xlink:href="#DejaVuSans-30" x="159.033203"/>
      </g>
     </g>
    </g>
    <g id="text_20">
     <!-- adaptation -->
     <g transform="translate(18.674687 191.4475) rotate(-90) scale(0.1 -0.1)">
      <defs>
       <path id="DejaVuSans-61" d="M 2194 1759 
Q 1497 1759 1228 1600 
Q 959 1441 959 1056 
Q 959 750 1161 570 
Q 1363 391 1709 391 
Q 2188 391 2477 730 
Q 2766 1069 2766 1631 
L 2766 1759 
L 2194 1759 
z
M 3341 1997 
L 3341 0 
L 2766 0 
L 2766 531 
Q 2569 213 2275 61 
Q 1981 -91 1556 -91 
Q 1019 -91 701 211 
Q 384 513 384 1019 
Q 384 1609 779 1909 
Q 1175 2209 1959 2209 
L 2766 2209 
L 2766 2266 
Q 2766 2663 2505 2880 
Q 2244 3097 1772 3097 
Q 1472 3097 1187 3025 
Q 903 2953 641 2809 
L 641 3341 
Q 956 3463 1253 3523 
Q 1550 3584 1831 3584 
Q 2591 3584 2966 3190 
Q 3341 2797 3341 1997 
z
" transform="scale(0.015625)"/>
       <path id="DejaVuSans-64" d="M 2906 2969 
L 2906 4863 
L 3481 4863 
L 3481 0 
L 2906 0 
L 2906 525 
Q 2725 213 2448 61 
Q 2172 -91 1784 -91 
Q 1150 -91 751 415 
Q 353 922 353 1747 
Q 353 2572 751 3078 
Q 1150 3584 1784 3584 
Q 2172 3584 2448 3432 
Q 2725 3281 2906 2969 
z
M 947 1747 
Q 947 1113 1208 752 
Q 1469 391 1925 391 
Q 2381 391 2643 752 
Q 2906 1113 2906 1747 
Q 2906 2381 2643 2742 
Q 2381 3103 1925 3103 
Q 1469 3103 1208 2742 
Q 947 2381 947 1747 
z
" transform="scale(0.015625)"/>
      </defs>
      <use xlink:href="#DejaVuSans-61"/>
      <use xlink:href="#DejaVuSans-64" x="61.279297"/>
      <use xlink:href="#DejaVuSans-61" x="124.755859"/>
      <use xlink:href="#DejaVuSans-70" x="186.035156"/>
      <use xlink:href="#DejaVuSans-74" x="249.511719"/>
      <use xlink:href="#DejaVuSans-61" x="288.720703"/>
      <use xlink:href="#DejaVuSans-74" x="350"/>
      <use xlink:href="#DejaVuSans-69" x="389.208984"/>
      <use xlink:href="#DejaVuSans-6f" x="416.992188"/>
      <use xlink:href="#DejaVuSans-6e" x="478.173828"/>
     </g>
    </g>
   </g>
   <g id="line2d_19">
    <path d="M 67.437273 275.488089 
L 70.147833 274.140617 
L 72.858393 272.793146 
L 75.568953 271.445674 
L 78.279513 270.098203 
L 80.990073 268.750731 
L 83.700634 267.40326 
L 86.411194 266.055788 
L 89.121754 264.708317 
L 91.832314 263.360845 
L 94.542874 262.013374 
L 97.253434 260.665902 
L 99.963994 259.31843 
L 102.674555 257.970959 
L 105.385115 256.623487 
L 108.095675 255.276016 
L 110.806235 253.928544 
L 113.516795 252.581073 
L 116.227355 251.233601 
L 118.937916 249.88613 
L 121.648476 248.538658 
L 124.359036 247.191187 
L 127.069596 245.843715 
L 129.780156 244.496244 
L 132.490716 243.148772 
L 135.201276 241.801301 
L 137.911837 240.453829 
L 140.622397 239.106357 
L 143.332957 237.758886 
L 146.043517 236.411414 
L 148.754077 235.063943 
L 151.464637 233.716471 
L 154.175197 232.369 
L 156.885758 231.021528 
L 159.596318 229.674057 
L 162.306878 228.326585 
L 165.017438 226.979114 
L 167.727998 225.631642 
L 170.438558 224.284171 
L 173.149118 222.936699 
L 175.859679 221.589228 
L 178.570239 220.241756 
L 181.280799 218.894284 
L 183.991359 217.546813 
L 186.701919 216.199341 
L 189.412479 214.85187 
L 192.123039 213.504398 
L 194.8336 212.156927 
L 197.54416 210.809455 
L 200.25472 209.461984 
L 202.96528 208.114512 
L 205.67584 206.767041 
L 208.3864 205.419569 
L 211.096961 204.072098 
L 213.807521 202.724626 
L 216.518081 201.377154 
L 219.228641 200.029683 
L 221.939201 198.682211 
L 224.649761 197.33474 
L 227.360321 195.987268 
L 230.070882 194.639797 
L 232.781442 193.292325 
L 235.492002 191.944854 
L 238.202562 190.597382 
L 240.913122 189.249911 
L 243.623682 187.902439 
L 246.334242 186.554968 
L 249.044803 185.207496 
L 251.755363 183.860025 
L 254.465923 182.512553 
L 257.176483 181.165081 
L 259.887043 179.81761 
L 262.597603 178.470138 
L 265.308163 177.122667 
L 268.018724 175.775195 
L 270.729284 174.427724 
L 273.439844 173.080252 
L 276.150404 171.732781 
L 278.860964 170.385309 
L 281.571524 169.037838 
L 284.282084 167.690366 
L 286.992645 166.342895 
L 289.703205 164.995423 
L 292.413765 163.647952 
L 295.124325 162.30048 
L 297.834885 160.953008 
L 300.545445 159.605537 
L 303.256006 158.258065 
L 305.966566 156.910594 
L 308.677126 155.563122 
L 311.387686 154.215651 
L 314.098246 152.868179 
L 316.808806 151.520708 
L 319.519366 150.173236 
L 322.229927 148.825765 
L 324.940487 147.478293 
L 327.651047 146.130822 
L 330.361607 144.78335 
L 333.072167 143.435879 
L 335.782727 142.088407 
" clip-path="url(#p32d7012efb)" style="fill: none; stroke: #1f77b4; stroke-width: 2.25; stroke-linecap: square"/>
   </g>
   <g id="patch_3">
    <path d="M 54.02 317.93875 
L 54.02 10.8 
" style="fill: none; stroke: #000000; stroke-width: 0.8; stroke-linejoin: miter; stroke-linecap: square"/>
   </g>
   <g id="patch_4">
    <path d="M 54.02 317.93875 
L 349.2 317.93875 
" style="fill: none; stroke: #000000; stroke-width: 0.8; stroke-linejoin: miter; stroke-linecap: square"/>
   </g>
  </g>
 </g>
 <defs>
  <clipPath id="p32d7012efb">
   <rect x="54.02" y="10.8" width="295.18" height="307.13875"/>
  </clipPath>
 </defs>
</svg>
