<?xml version="1.0" encoding="utf-8" standalone="no"?>
<!DOCTYPE svg PUBLIC "-//W3C//DTD SVG 1.1//EN"
  "http://www.w3.org/Graphics/SVG/1.1/DTD/svg11.dtd">
<svg xmlns:xlink="http://www.w3.org/1999/xlink" width="1843.2pt" height="1010.88pt" viewBox="0 0 1843.2 1010.88" xmlns="http://www.w3.org/2000/svg" version="1.1">
 <metadata>
  <rdf:RDF xmlns:dc="http://purl.org/dc/elements/1.1/" xmlns:cc="http://creativecommons.org/ns#" xmlns:rdf="http://www.w3.org/1999/02/22-rdf-syntax-ns#">
   <cc:Work>
    <dc:type rdf:resource="http://purl.org/dc/dcmitype/StillImage"/>
    <dc:date>2024-11-27T16:28:22.430903</dc:date>
    <dc:format>image/svg+xml</dc:format>
    <dc:creator>
     <cc:Agent>
      <dc:title>Matplotlib v3.9.2, https://matplotlib.org/</dc:title>
     </cc:Agent>
    </dc:creator>
   </cc:Work>
  </rdf:RDF>
 </metadata>
 <defs>
  <style type="text/css">*{stroke-linejoin: round; stroke-linecap: butt}</style>
 </defs>
 <g id="figure_1">
  <g id="patch_1">
   <path d="M 0 1010.88 
L 1843.2 1010.88 
L 1843.2 0 
L 0 0 
z
" style="fill: #ffffff"/>
  </g>
  <g id="axes_1">
   <g id="patch_2">
    <path d="M 230.4 899.6832 
L 1658.88 899.6832 
L 1658.88 121.3056 
L 230.4 121.3056 
z
" style="fill: #ffffff"/>
   </g>
   <g id="matplotlib.axis_1">
    <g id="xtick_1">
     <g id="line2d_1">
      <defs>
       <path id="m73d35f1c2d" d="M 0 0 
L 0 3.5 
" style="stroke: #000000; stroke-width: 0.8"/>
      </defs>
      <g>
       <use xlink:href="#m73d35f1c2d" x="373.248" y="899.6832" style="stroke: #000000; stroke-width: 0.8"/>
      </g>
     </g>
     <g id="text_1">
      <!-- 0.0 -->
      <g transform="translate(357.344875 921.880075) scale(0.2 -0.2)">
       <defs>
        <path id="DejaVuSans-30" d="M 2034 4250 
Q 1547 4250 1301 3770 
Q 1056 3291 1056 2328 
Q 1056 1369 1301 889 
Q 1547 409 2034 409 
Q 2525 409 2770 889 
Q 3016 1369 3016 2328 
Q 3016 3291 2770 3770 
Q 2525 4250 2034 4250 
z
M 2034 4750 
Q 2819 4750 3233 4129 
Q 3647 3509 3647 2328 
Q 3647 1150 3233 529 
Q 2819 -91 2034 -91 
Q 1250 -91 836 529 
Q 422 1150 422 2328 
Q 422 3509 836 4129 
Q 1250 4750 2034 4750 
z
" transform="scale(0.015625)"/>
        <path id="DejaVuSans-2e" d="M 684 794 
L 1344 794 
L 1344 0 
L 684 0 
L 684 794 
z
" transform="scale(0.015625)"/>
       </defs>
       <use xlink:href="#DejaVuSans-30"/>
       <use xlink:href="#DejaVuSans-2e" x="63.623047"/>
       <use xlink:href="#DejaVuSans-30" x="95.410156"/>
      </g>
     </g>
    </g>
    <g id="xtick_2">
     <g id="line2d_2">
      <g>
       <use xlink:href="#m73d35f1c2d" x="658.944" y="899.6832" style="stroke: #000000; stroke-width: 0.8"/>
      </g>
     </g>
     <g id="text_2">
      <!-- 0.25 -->
      <g transform="translate(636.678375 921.880075) scale(0.2 -0.2)">
       <defs>
        <path id="DejaVuSans-32" d="M 1228 531 
L 3431 531 
L 3431 0 
L 469 0 
L 469 531 
Q 828 903 1448 1529 
Q 2069 2156 2228 2338 
Q 2531 2678 2651 2914 
Q 2772 3150 2772 3378 
Q 2772 3750 2511 3984 
Q 2250 4219 1831 4219 
Q 1534 4219 1204 4116 
Q 875 4013 500 3803 
L 500 4441 
Q 881 4594 1212 4672 
Q 1544 4750 1819 4750 
Q 2544 4750 2975 4387 
Q 3406 4025 3406 3419 
Q 3406 3131 3298 2873 
Q 3191 2616 2906 2266 
Q 2828 2175 2409 1742 
Q 1991 1309 1228 531 
z
" transform="scale(0.015625)"/>
        <path id="DejaVuSans-35" d="M 691 4666 
L 3169 4666 
L 3169 4134 
L 1269 4134 
L 1269 2991 
Q 1406 3038 1543 3061 
Q 1681 3084 1819 3084 
Q 2600 3084 3056 2656 
Q 3513 2228 3513 1497 
Q 3513 744 3044 326 
Q 2575 -91 1722 -91 
Q 1428 -91 1123 -41 
Q 819 9 494 109 
L 494 744 
Q 775 591 1075 516 
Q 1375 441 1709 441 
Q 2250 441 2565 725 
Q 2881 1009 2881 1497 
Q 2881 1984 2565 2268 
Q 2250 2553 1709 2553 
Q 1456 2553 1204 2497 
Q 953 2441 691 2322 
L 691 4666 
z
" transform="scale(0.015625)"/>
       </defs>
       <use xlink:href="#DejaVuSans-30"/>
       <use xlink:href="#DejaVuSans-2e" x="63.623047"/>
       <use xlink:href="#DejaVuSans-32" x="95.410156"/>
       <use xlink:href="#DejaVuSans-35" x="159.033203"/>
      </g>
     </g>
    </g>
    <g id="xtick_3">
     <g id="line2d_3">
      <g>
       <use xlink:href="#m73d35f1c2d" x="944.64" y="899.6832" style="stroke: #000000; stroke-width: 0.8"/>
      </g>
     </g>
     <g id="text_3">
      <!-- 0.5 -->
      <g transform="translate(928.736875 921.880075) scale(0.2 -0.2)">
       <use xlink:href="#DejaVuSans-30"/>
       <use xlink:href="#DejaVuSans-2e" x="63.623047"/>
       <use xlink:href="#DejaVuSans-35" x="95.410156"/>
      </g>
     </g>
    </g>
    <g id="xtick_4">
     <g id="line2d_4">
      <g>
       <use xlink:href="#m73d35f1c2d" x="1230.336" y="899.6832" style="stroke: #000000; stroke-width: 0.8"/>
      </g>
     </g>
     <g id="text_4">
      <!-- 0.75 -->
      <g transform="translate(1208.070375 921.880075) scale(0.2 -0.2)">
       <defs>
        <path id="DejaVuSans-37" d="M 525 4666 
L 3525 4666 
L 3525 4397 
L 1831 0 
L 1172 0 
L 2766 4134 
L 525 4134 
L 525 4666 
z
" transform="scale(0.015625)"/>
       </defs>
       <use xlink:href="#DejaVuSans-30"/>
       <use xlink:href="#DejaVuSans-2e" x="63.623047"/>
       <use xlink:href="#DejaVuSans-37" x="95.410156"/>
       <use xlink:href="#DejaVuSans-35" x="159.033203"/>
      </g>
     </g>
    </g>
    <g id="xtick_5">
     <g id="line2d_5">
      <g>
       <use xlink:href="#m73d35f1c2d" x="1516.032" y="899.6832" style="stroke: #000000; stroke-width: 0.8"/>
      </g>
     </g>
     <g id="text_5">
      <!-- 1.0 -->
      <g transform="translate(1500.128875 921.880075) scale(0.2 -0.2)">
       <defs>
        <path id="DejaVuSans-31" d="M 794 531 
L 1825 531 
L 1825 4091 
L 703 3866 
L 703 4441 
L 1819 4666 
L 2450 4666 
L 2450 531 
L 3481 531 
L 3481 0 
L 794 0 
L 794 531 
z
" transform="scale(0.015625)"/>
       </defs>
       <use xlink:href="#DejaVuSans-31"/>
       <use xlink:href="#DejaVuSans-2e" x="63.623047"/>
       <use xlink:href="#DejaVuSans-30" x="95.410156"/>
      </g>
     </g>
    </g>
    <g id="text_6">
     <!-- P(Right|UP) -->
     <g transform="translate(859.315781 952.966012) scale(0.3 -0.3)">
      <defs>
       <path id="DejaVuSans-50" d="M 1259 4147 
L 1259 2394 
L 2053 2394 
Q 2494 2394 2734 2622 
Q 2975 2850 2975 3272 
Q 2975 3691 2734 3919 
Q 2494 4147 2053 4147 
L 1259 4147 
z
M 628 4666 
L 2053 4666 
Q 2838 4666 3239 4311 
Q 3641 3956 3641 3272 
Q 3641 2581 3239 2228 
Q 2838 1875 2053 1875 
L 1259 1875 
L 1259 0 
L 628 0 
L 628 4666 
z
" transform="scale(0.015625)"/>
       <path id="DejaVuSans-28" d="M 1984 4856 
Q 1566 4138 1362 3434 
Q 1159 2731 1159 2009 
Q 1159 1288 1364 580 
Q 1569 -128 1984 -844 
L 1484 -844 
Q 1016 -109 783 600 
Q 550 1309 550 2009 
Q 550 2706 781 3412 
Q 1013 4119 1484 4856 
L 1984 4856 
z
" transform="scale(0.015625)"/>
       <path id="DejaVuSans-52" d="M 2841 2188 
Q 3044 2119 3236 1894 
Q 3428 1669 3622 1275 
L 4263 0 
L 3584 0 
L 2988 1197 
Q 2756 1666 2539 1819 
Q 2322 1972 1947 1972 
L 1259 1972 
L 1259 0 
L 628 0 
L 628 4666 
L 2053 4666 
Q 2853 4666 3247 4331 
Q 3641 3997 3641 3322 
Q 3641 2881 3436 2590 
Q 3231 2300 2841 2188 
z
M 1259 4147 
L 1259 2491 
L 2053 2491 
Q 2509 2491 2742 2702 
Q 2975 2913 2975 3322 
Q 2975 3731 2742 3939 
Q 2509 4147 2053 4147 
L 1259 4147 
z
" transform="scale(0.015625)"/>
       <path id="DejaVuSans-69" d="M 603 3500 
L 1178 3500 
L 1178 0 
L 603 0 
L 603 3500 
z
M 603 4863 
L 1178 4863 
L 1178 4134 
L 603 4134 
L 603 4863 
z
" transform="scale(0.015625)"/>
       <path id="DejaVuSans-67" d="M 2906 1791 
Q 2906 2416 2648 2759 
Q 2391 3103 1925 3103 
Q 1463 3103 1205 2759 
Q 947 2416 947 1791 
Q 947 1169 1205 825 
Q 1463 481 1925 481 
Q 2391 481 2648 825 
Q 2906 1169 2906 1791 
z
M 3481 434 
Q 3481 -459 3084 -895 
Q 2688 -1331 1869 -1331 
Q 1566 -1331 1297 -1286 
Q 1028 -1241 775 -1147 
L 775 -588 
Q 1028 -725 1275 -790 
Q 1522 -856 1778 -856 
Q 2344 -856 2625 -561 
Q 2906 -266 2906 331 
L 2906 616 
Q 2728 306 2450 153 
Q 2172 0 1784 0 
Q 1141 0 747 490 
Q 353 981 353 1791 
Q 353 2603 747 3093 
Q 1141 3584 1784 3584 
Q 2172 3584 2450 3431 
Q 2728 3278 2906 2969 
L 2906 3500 
L 3481 3500 
L 3481 434 
z
" transform="scale(0.015625)"/>
       <path id="DejaVuSans-68" d="M 3513 2113 
L 3513 0 
L 2938 0 
L 2938 2094 
Q 2938 2591 2744 2837 
Q 2550 3084 2163 3084 
Q 1697 3084 1428 2787 
Q 1159 2491 1159 1978 
L 1159 0 
L 581 0 
L 581 4863 
L 1159 4863 
L 1159 2956 
Q 1366 3272 1645 3428 
Q 1925 3584 2291 3584 
Q 2894 3584 3203 3211 
Q 3513 2838 3513 2113 
z
" transform="scale(0.015625)"/>
       <path id="DejaVuSans-74" d="M 1172 4494 
L 1172 3500 
L 2356 3500 
L 2356 3053 
L 1172 3053 
L 1172 1153 
Q 1172 725 1289 603 
Q 1406 481 1766 481 
L 2356 481 
L 2356 0 
L 1766 0 
Q 1100 0 847 248 
Q 594 497 594 1153 
L 594 3053 
L 172 3053 
L 172 3500 
L 594 3500 
L 594 4494 
L 1172 4494 
z
" transform="scale(0.015625)"/>
       <path id="DejaVuSans-7c" d="M 1344 4891 
L 1344 -1509 
L 813 -1509 
L 813 4891 
L 1344 4891 
z
" transform="scale(0.015625)"/>
       <path id="DejaVuSans-55" d="M 556 4666 
L 1191 4666 
L 1191 1831 
Q 1191 1081 1462 751 
Q 1734 422 2344 422 
Q 2950 422 3222 751 
Q 3494 1081 3494 1831 
L 3494 4666 
L 4128 4666 
L 4128 1753 
Q 4128 841 3676 375 
Q 3225 -91 2344 -91 
Q 1459 -91 1007 375 
Q 556 841 556 1753 
L 556 4666 
z
" transform="scale(0.015625)"/>
       <path id="DejaVuSans-29" d="M 513 4856 
L 1013 4856 
Q 1481 4119 1714 3412 
Q 1947 2706 1947 2009 
Q 1947 1309 1714 600 
Q 1481 -109 1013 -844 
L 513 -844 
Q 928 -128 1133 580 
Q 1338 1288 1338 2009 
Q 1338 2731 1133 3434 
Q 928 4138 513 4856 
z
" transform="scale(0.015625)"/>
      </defs>
      <use xlink:href="#DejaVuSans-50"/>
      <use xlink:href="#DejaVuSans-28" x="60.302734"/>
      <use xlink:href="#DejaVuSans-52" x="99.316406"/>
      <use xlink:href="#DejaVuSans-69" x="168.798828"/>
      <use xlink:href="#DejaVuSans-67" x="196.582031"/>
      <use xlink:href="#DejaVuSans-68" x="260.058594"/>
      <use xlink:href="#DejaVuSans-74" x="323.4375"/>
      <use xlink:href="#DejaVuSans-7c" x="362.646484"/>
      <use xlink:href="#DejaVuSans-55" x="396.337891"/>
      <use xlink:href="#DejaVuSans-50" x="469.53125"/>
      <use xlink:href="#DejaVuSans-29" x="529.833984"/>
     </g>
    </g>
   </g>
   <g id="matplotlib.axis_2">
    <g id="ytick_1">
     <g id="line2d_6">
      <defs>
       <path id="m397738d43d" d="M 0 0 
L -3.5 0 
" style="stroke: #000000; stroke-width: 0.8"/>
      </defs>
      <g>
       <use xlink:href="#m397738d43d" x="230.4" y="822.2519" style="stroke: #000000; stroke-width: 0.8"/>
      </g>
     </g>
     <g id="text_7">
      <!-- −1 -->
      <g transform="translate(193.915625 829.850337) scale(0.2 -0.2)">
       <defs>
        <path id="DejaVuSans-2212" d="M 678 2272 
L 4684 2272 
L 4684 1741 
L 678 1741 
L 678 2272 
z
" transform="scale(0.015625)"/>
       </defs>
       <use xlink:href="#DejaVuSans-2212"/>
       <use xlink:href="#DejaVuSans-31" x="83.789062"/>
      </g>
     </g>
    </g>
    <g id="ytick_2">
     <g id="line2d_7">
      <g>
       <use xlink:href="#m397738d43d" x="230.4" y="650.27297" style="stroke: #000000; stroke-width: 0.8"/>
      </g>
     </g>
     <g id="text_8">
      <!-- 0 -->
      <g transform="translate(210.675 657.871408) scale(0.2 -0.2)">
       <use xlink:href="#DejaVuSans-30"/>
      </g>
     </g>
    </g>
    <g id="ytick_3">
     <g id="line2d_8">
      <g>
       <use xlink:href="#m397738d43d" x="230.4" y="478.29404" style="stroke: #000000; stroke-width: 0.8"/>
      </g>
     </g>
     <g id="text_9">
      <!-- 1 -->
      <g transform="translate(210.675 485.892478) scale(0.2 -0.2)">
       <use xlink:href="#DejaVuSans-31"/>
      </g>
     </g>
    </g>
    <g id="ytick_4">
     <g id="line2d_9">
      <g>
       <use xlink:href="#m397738d43d" x="230.4" y="306.31511" style="stroke: #000000; stroke-width: 0.8"/>
      </g>
     </g>
     <g id="text_10">
      <!-- 2 -->
      <g transform="translate(210.675 313.913548) scale(0.2 -0.2)">
       <use xlink:href="#DejaVuSans-32"/>
      </g>
     </g>
    </g>
    <g id="ytick_5">
     <g id="line2d_10">
      <g>
       <use xlink:href="#m397738d43d" x="230.4" y="134.336181" style="stroke: #000000; stroke-width: 0.8"/>
      </g>
     </g>
     <g id="text_11">
      <!-- 3 -->
      <g transform="translate(210.675 141.934618) scale(0.2 -0.2)">
       <defs>
        <path id="DejaVuSans-33" d="M 2597 2516 
Q 3050 2419 3304 2112 
Q 3559 1806 3559 1356 
Q 3559 666 3084 287 
Q 2609 -91 1734 -91 
Q 1441 -91 1130 -33 
Q 819 25 488 141 
L 488 750 
Q 750 597 1062 519 
Q 1375 441 1716 441 
Q 2309 441 2620 675 
Q 2931 909 2931 1356 
Q 2931 1769 2642 2001 
Q 2353 2234 1838 2234 
L 1294 2234 
L 1294 2753 
L 1863 2753 
Q 2328 2753 2575 2939 
Q 2822 3125 2822 3475 
Q 2822 3834 2567 4026 
Q 2313 4219 1838 4219 
Q 1578 4219 1281 4162 
Q 984 4106 628 3988 
L 628 4550 
Q 988 4650 1302 4700 
Q 1616 4750 1894 4750 
Q 2613 4750 3031 4423 
Q 3450 4097 3450 3541 
Q 3450 3153 3228 2886 
Q 3006 2619 2597 2516 
z
" transform="scale(0.015625)"/>
       </defs>
       <use xlink:href="#DejaVuSans-33"/>
      </g>
     </g>
    </g>
    <g id="text_12">
     <!-- ASEM (deg/s) -->
     <g transform="translate(183.676562 610.312369) rotate(-90) scale(0.3 -0.3)">
      <defs>
       <path id="DejaVuSans-41" d="M 2188 4044 
L 1331 1722 
L 3047 1722 
L 2188 4044 
z
M 1831 4666 
L 2547 4666 
L 4325 0 
L 3669 0 
L 3244 1197 
L 1141 1197 
L 716 0 
L 50 0 
L 1831 4666 
z
" transform="scale(0.015625)"/>
       <path id="DejaVuSans-53" d="M 3425 4513 
L 3425 3897 
Q 3066 4069 2747 4153 
Q 2428 4238 2131 4238 
Q 1616 4238 1336 4038 
Q 1056 3838 1056 3469 
Q 1056 3159 1242 3001 
Q 1428 2844 1947 2747 
L 2328 2669 
Q 3034 2534 3370 2195 
Q 3706 1856 3706 1288 
Q 3706 609 3251 259 
Q 2797 -91 1919 -91 
Q 1588 -91 1214 -16 
Q 841 59 441 206 
L 441 856 
Q 825 641 1194 531 
Q 1563 422 1919 422 
Q 2459 422 2753 634 
Q 3047 847 3047 1241 
Q 3047 1584 2836 1778 
Q 2625 1972 2144 2069 
L 1759 2144 
Q 1053 2284 737 2584 
Q 422 2884 422 3419 
Q 422 4038 858 4394 
Q 1294 4750 2059 4750 
Q 2388 4750 2728 4690 
Q 3069 4631 3425 4513 
z
" transform="scale(0.015625)"/>
       <path id="DejaVuSans-45" d="M 628 4666 
L 3578 4666 
L 3578 4134 
L 1259 4134 
L 1259 2753 
L 3481 2753 
L 3481 2222 
L 1259 2222 
L 1259 531 
L 3634 531 
L 3634 0 
L 628 0 
L 628 4666 
z
" transform="scale(0.015625)"/>
       <path id="DejaVuSans-4d" d="M 628 4666 
L 1569 4666 
L 2759 1491 
L 3956 4666 
L 4897 4666 
L 4897 0 
L 4281 0 
L 4281 4097 
L 3078 897 
L 2444 897 
L 1241 4097 
L 1241 0 
L 628 0 
L 628 4666 
z
" transform="scale(0.015625)"/>
       <path id="DejaVuSans-20" transform="scale(0.015625)"/>
       <path id="DejaVuSans-64" d="M 2906 2969 
L 2906 4863 
L 3481 4863 
L 3481 0 
L 2906 0 
L 2906 525 
Q 2725 213 2448 61 
Q 2172 -91 1784 -91 
Q 1150 -91 751 415 
Q 353 922 353 1747 
Q 353 2572 751 3078 
Q 1150 3584 1784 3584 
Q 2172 3584 2448 3432 
Q 2725 3281 2906 2969 
z
M 947 1747 
Q 947 1113 1208 752 
Q 1469 391 1925 391 
Q 2381 391 2643 752 
Q 2906 1113 2906 1747 
Q 2906 2381 2643 2742 
Q 2381 3103 1925 3103 
Q 1469 3103 1208 2742 
Q 947 2381 947 1747 
z
" transform="scale(0.015625)"/>
       <path id="DejaVuSans-65" d="M 3597 1894 
L 3597 1613 
L 953 1613 
Q 991 1019 1311 708 
Q 1631 397 2203 397 
Q 2534 397 2845 478 
Q 3156 559 3463 722 
L 3463 178 
Q 3153 47 2828 -22 
Q 2503 -91 2169 -91 
Q 1331 -91 842 396 
Q 353 884 353 1716 
Q 353 2575 817 3079 
Q 1281 3584 2069 3584 
Q 2775 3584 3186 3129 
Q 3597 2675 3597 1894 
z
M 3022 2063 
Q 3016 2534 2758 2815 
Q 2500 3097 2075 3097 
Q 1594 3097 1305 2825 
Q 1016 2553 972 2059 
L 3022 2063 
z
" transform="scale(0.015625)"/>
       <path id="DejaVuSans-2f" d="M 1625 4666 
L 2156 4666 
L 531 -594 
L 0 -594 
L 1625 4666 
z
" transform="scale(0.015625)"/>
       <path id="DejaVuSans-73" d="M 2834 3397 
L 2834 2853 
Q 2591 2978 2328 3040 
Q 2066 3103 1784 3103 
Q 1356 3103 1142 2972 
Q 928 2841 928 2578 
Q 928 2378 1081 2264 
Q 1234 2150 1697 2047 
L 1894 2003 
Q 2506 1872 2764 1633 
Q 3022 1394 3022 966 
Q 3022 478 2636 193 
Q 2250 -91 1575 -91 
Q 1294 -91 989 -36 
Q 684 19 347 128 
L 347 722 
Q 666 556 975 473 
Q 1284 391 1588 391 
Q 1994 391 2212 530 
Q 2431 669 2431 922 
Q 2431 1156 2273 1281 
Q 2116 1406 1581 1522 
L 1381 1569 
Q 847 1681 609 1914 
Q 372 2147 372 2553 
Q 372 3047 722 3315 
Q 1072 3584 1716 3584 
Q 2034 3584 2315 3537 
Q 2597 3491 2834 3397 
z
" transform="scale(0.015625)"/>
      </defs>
      <use xlink:href="#DejaVuSans-41"/>
      <use xlink:href="#DejaVuSans-53" x="68.408203"/>
      <use xlink:href="#DejaVuSans-45" x="131.884766"/>
      <use xlink:href="#DejaVuSans-4d" x="195.068359"/>
      <use xlink:href="#DejaVuSans-20" x="281.347656"/>
      <use xlink:href="#DejaVuSans-28" x="313.134766"/>
      <use xlink:href="#DejaVuSans-64" x="352.148438"/>
      <use xlink:href="#DejaVuSans-65" x="415.625"/>
      <use xlink:href="#DejaVuSans-67" x="477.148438"/>
      <use xlink:href="#DejaVuSans-2f" x="540.625"/>
      <use xlink:href="#DejaVuSans-73" x="574.316406"/>
      <use xlink:href="#DejaVuSans-29" x="626.416016"/>
     </g>
    </g>
   </g>
   <g id="line2d_11">
    <path d="M 658.944 692.372923 
L 944.64 658.734666 
L 1230.336 687.066141 
L 1516.032 645.38475 
" clip-path="url(#p79da13c52d)" style="fill: none; stroke: #1f77b4; stroke-opacity: 0.7; stroke-width: 2.7; stroke-linecap: square"/>
    <defs>
     <path id="mc52d19c5de" d="M 0 3.383948 
C 0.897434 3.383948 1.758231 3.027394 2.392813 2.392813 
C 3.027394 1.758231 3.383948 0.897434 3.383948 0 
C 3.383948 -0.897434 3.027394 -1.758231 2.392813 -2.392813 
C 1.758231 -3.027394 0.897434 -3.383948 0 -3.383948 
C -0.897434 -3.383948 -1.758231 -3.027394 -2.392813 -2.392813 
C -3.027394 -1.758231 -3.383948 -0.897434 -3.383948 0 
C -3.383948 0.897434 -3.027394 1.758231 -2.392813 2.392813 
C -1.758231 3.027394 -0.897434 3.383948 0 3.383948 
z
" style="stroke: #1f77b4; stroke-opacity: 0.7; stroke-width: 2.025"/>
    </defs>
    <g clip-path="url(#p79da13c52d)">
     <use xlink:href="#mc52d19c5de" x="658.944" y="692.372923" style="fill: #1f77b4; fill-opacity: 0.7; stroke: #1f77b4; stroke-opacity: 0.7; stroke-width: 2.025"/>
     <use xlink:href="#mc52d19c5de" x="944.64" y="658.734666" style="fill: #1f77b4; fill-opacity: 0.7; stroke: #1f77b4; stroke-opacity: 0.7; stroke-width: 2.025"/>
     <use xlink:href="#mc52d19c5de" x="1230.336" y="687.066141" style="fill: #1f77b4; fill-opacity: 0.7; stroke: #1f77b4; stroke-opacity: 0.7; stroke-width: 2.025"/>
     <use xlink:href="#mc52d19c5de" x="1516.032" y="645.38475" style="fill: #1f77b4; fill-opacity: 0.7; stroke: #1f77b4; stroke-opacity: 0.7; stroke-width: 2.025"/>
    </g>
   </g>
   <g id="line2d_12">
    <path clip-path="url(#p79da13c52d)" style="fill: none; stroke: #1f77b4; stroke-opacity: 0.7; stroke-width: 2.7; stroke-linecap: square"/>
   </g>
   <g id="line2d_13">
    <path d="M 644.6592 758.766541 
L 673.2288 758.766541 
M 658.944 758.766541 
L 658.944 628.746886 
M 644.6592 628.746886 
L 673.2288 628.746886 
" clip-path="url(#p79da13c52d)" style="fill: none; stroke: #1f77b4; stroke-opacity: 0.7; stroke-width: 2.7; stroke-linecap: square"/>
   </g>
   <g id="line2d_14">
    <path d="M 930.3552 701.95425 
L 958.9248 701.95425 
M 944.64 701.95425 
L 944.64 614.442985 
M 930.3552 614.442985 
L 958.9248 614.442985 
" clip-path="url(#p79da13c52d)" style="fill: none; stroke: #1f77b4; stroke-opacity: 0.7; stroke-width: 2.7; stroke-linecap: square"/>
   </g>
   <g id="line2d_15">
    <path d="M 1216.0512 738.643607 
L 1244.6208 738.643607 
M 1230.336 738.643607 
L 1230.336 638.363998 
M 1216.0512 638.363998 
L 1244.6208 638.363998 
" clip-path="url(#p79da13c52d)" style="fill: none; stroke: #1f77b4; stroke-opacity: 0.7; stroke-width: 2.7; stroke-linecap: square"/>
   </g>
   <g id="line2d_16">
    <path d="M 1501.7472 713.942951 
L 1530.3168 713.942951 
M 1516.032 713.942951 
L 1516.032 580.766438 
M 1501.7472 580.766438 
L 1530.3168 580.766438 
" clip-path="url(#p79da13c52d)" style="fill: none; stroke: #1f77b4; stroke-opacity: 0.7; stroke-width: 2.7; stroke-linecap: square"/>
   </g>
   <g id="line2d_17">
    <path d="M 373.248 744.461117 
L 658.944 645.458981 
L 944.64 638.795901 
L 1230.336 625.115821 
" clip-path="url(#p79da13c52d)" style="fill: none; stroke: #aec7e8; stroke-opacity: 0.7; stroke-width: 2.7; stroke-linecap: square"/>
    <defs>
     <path id="m3883fca6db" d="M 0 3.383948 
C 0.897434 3.383948 1.758231 3.027394 2.392813 2.392813 
C 3.027394 1.758231 3.383948 0.897434 3.383948 0 
C 3.383948 -0.897434 3.027394 -1.758231 2.392813 -2.392813 
C 1.758231 -3.027394 0.897434 -3.383948 0 -3.383948 
C -0.897434 -3.383948 -1.758231 -3.027394 -2.392813 -2.392813 
C -3.027394 -1.758231 -3.383948 -0.897434 -3.383948 0 
C -3.383948 0.897434 -3.027394 1.758231 -2.392813 2.392813 
C -1.758231 3.027394 -0.897434 3.383948 0 3.383948 
z
" style="stroke: #aec7e8; stroke-opacity: 0.7; stroke-width: 2.025"/>
    </defs>
    <g clip-path="url(#p79da13c52d)">
     <use xlink:href="#m3883fca6db" x="373.248" y="744.461117" style="fill: #aec7e8; fill-opacity: 0.7; stroke: #aec7e8; stroke-opacity: 0.7; stroke-width: 2.025"/>
     <use xlink:href="#m3883fca6db" x="658.944" y="645.458981" style="fill: #aec7e8; fill-opacity: 0.7; stroke: #aec7e8; stroke-opacity: 0.7; stroke-width: 2.025"/>
     <use xlink:href="#m3883fca6db" x="944.64" y="638.795901" style="fill: #aec7e8; fill-opacity: 0.7; stroke: #aec7e8; stroke-opacity: 0.7; stroke-width: 2.025"/>
     <use xlink:href="#m3883fca6db" x="1230.336" y="625.115821" style="fill: #aec7e8; fill-opacity: 0.7; stroke: #aec7e8; stroke-opacity: 0.7; stroke-width: 2.025"/>
    </g>
   </g>
   <g id="line2d_18">
    <path d="M 358.9632 808.840756 
L 387.5328 808.840756 
M 373.248 808.840756 
L 373.248 678.137444 
M 358.9632 678.137444 
L 387.5328 678.137444 
" clip-path="url(#p79da13c52d)" style="fill: none; stroke: #aec7e8; stroke-opacity: 0.7; stroke-width: 2.7; stroke-linecap: square"/>
   </g>
   <g id="line2d_19">
    <path d="M 644.6592 697.697091 
L 673.2288 697.697091 
M 658.944 697.697091 
L 658.944 594.107687 
M 644.6592 594.107687 
L 673.2288 594.107687 
" clip-path="url(#p79da13c52d)" style="fill: none; stroke: #aec7e8; stroke-opacity: 0.7; stroke-width: 2.7; stroke-linecap: square"/>
   </g>
   <g id="line2d_20">
    <path d="M 930.3552 690.620816 
L 958.9248 690.620816 
M 944.64 690.620816 
L 944.64 587.003967 
M 930.3552 587.003967 
L 958.9248 587.003967 
" clip-path="url(#p79da13c52d)" style="fill: none; stroke: #aec7e8; stroke-opacity: 0.7; stroke-width: 2.7; stroke-linecap: square"/>
   </g>
   <g id="line2d_21">
    <path d="M 1216.0512 684.573249 
L 1244.6208 684.573249 
M 1230.336 684.573249 
L 1230.336 563.773711 
M 1216.0512 563.773711 
L 1244.6208 563.773711 
" clip-path="url(#p79da13c52d)" style="fill: none; stroke: #aec7e8; stroke-opacity: 0.7; stroke-width: 2.7; stroke-linecap: square"/>
   </g>
   <g id="line2d_22">
    <path clip-path="url(#p79da13c52d)" style="fill: none; stroke: #aec7e8; stroke-opacity: 0.7; stroke-width: 2.7; stroke-linecap: square"/>
   </g>
   <g id="line2d_23">
    <path d="M 373.248 635.085847 
L 658.944 659.180387 
L 944.64 630.837398 
L 1230.336 659.195592 
" clip-path="url(#p79da13c52d)" style="fill: none; stroke: #ff7f0e; stroke-opacity: 0.7; stroke-width: 2.7; stroke-linecap: square"/>
    <defs>
     <path id="mef05c8198b" d="M 0 3.383948 
C 0.897434 3.383948 1.758231 3.027394 2.392813 2.392813 
C 3.027394 1.758231 3.383948 0.897434 3.383948 0 
C 3.383948 -0.897434 3.027394 -1.758231 2.392813 -2.392813 
C 1.758231 -3.027394 0.897434 -3.383948 0 -3.383948 
C -0.897434 -3.383948 -1.758231 -3.027394 -2.392813 -2.392813 
C -3.027394 -1.758231 -3.383948 -0.897434 -3.383948 0 
C -3.383948 0.897434 -3.027394 1.758231 -2.392813 2.392813 
C -1.758231 3.027394 -0.897434 3.383948 0 3.383948 
z
" style="stroke: #ff7f0e; stroke-opacity: 0.7; stroke-width: 2.025"/>
    </defs>
    <g clip-path="url(#p79da13c52d)">
     <use xlink:href="#mef05c8198b" x="373.248" y="635.085847" style="fill: #ff7f0e; fill-opacity: 0.7; stroke: #ff7f0e; stroke-opacity: 0.7; stroke-width: 2.025"/>
     <use xlink:href="#mef05c8198b" x="658.944" y="659.180387" style="fill: #ff7f0e; fill-opacity: 0.7; stroke: #ff7f0e; stroke-opacity: 0.7; stroke-width: 2.025"/>
     <use xlink:href="#mef05c8198b" x="944.64" y="630.837398" style="fill: #ff7f0e; fill-opacity: 0.7; stroke: #ff7f0e; stroke-opacity: 0.7; stroke-width: 2.025"/>
     <use xlink:href="#mef05c8198b" x="1230.336" y="659.195592" style="fill: #ff7f0e; fill-opacity: 0.7; stroke: #ff7f0e; stroke-opacity: 0.7; stroke-width: 2.025"/>
    </g>
   </g>
   <g id="line2d_24">
    <path d="M 358.9632 680.98479 
L 387.5328 680.98479 
M 373.248 680.98479 
L 373.248 588.783606 
M 358.9632 588.783606 
L 387.5328 588.783606 
" clip-path="url(#p79da13c52d)" style="fill: none; stroke: #ff7f0e; stroke-opacity: 0.7; stroke-width: 2.7; stroke-linecap: square"/>
   </g>
   <g id="line2d_25">
    <path d="M 644.6592 712.536376 
L 673.2288 712.536376 
M 658.944 712.536376 
L 658.944 606.588287 
M 644.6592 606.588287 
L 673.2288 606.588287 
" clip-path="url(#p79da13c52d)" style="fill: none; stroke: #ff7f0e; stroke-opacity: 0.7; stroke-width: 2.7; stroke-linecap: square"/>
   </g>
   <g id="line2d_26">
    <path d="M 930.3552 686.494779 
L 958.9248 686.494779 
M 944.64 686.494779 
L 944.64 576.209455 
M 930.3552 576.209455 
L 958.9248 576.209455 
" clip-path="url(#p79da13c52d)" style="fill: none; stroke: #ff7f0e; stroke-opacity: 0.7; stroke-width: 2.7; stroke-linecap: square"/>
   </g>
   <g id="line2d_27">
    <path d="M 1216.0512 727.492676 
L 1244.6208 727.492676 
M 1230.336 727.492676 
L 1230.336 586.663286 
M 1216.0512 586.663286 
L 1244.6208 586.663286 
" clip-path="url(#p79da13c52d)" style="fill: none; stroke: #ff7f0e; stroke-opacity: 0.7; stroke-width: 2.7; stroke-linecap: square"/>
   </g>
   <g id="line2d_28">
    <path clip-path="url(#p79da13c52d)" style="fill: none; stroke: #ff7f0e; stroke-opacity: 0.7; stroke-width: 2.7; stroke-linecap: square"/>
   </g>
   <g id="line2d_29">
    <path d="M 658.944 640.890512 
L 944.64 671.99321 
L 1230.336 603.160335 
L 1516.032 296.46122 
" clip-path="url(#p79da13c52d)" style="fill: none; stroke: #ffbb78; stroke-opacity: 0.7; stroke-width: 2.7; stroke-linecap: square"/>
    <defs>
     <path id="mc393ab374c" d="M 0 3.383948 
C 0.897434 3.383948 1.758231 3.027394 2.392813 2.392813 
C 3.027394 1.758231 3.383948 0.897434 3.383948 0 
C 3.383948 -0.897434 3.027394 -1.758231 2.392813 -2.392813 
C 1.758231 -3.027394 0.897434 -3.383948 0 -3.383948 
C -0.897434 -3.383948 -1.758231 -3.027394 -2.392813 -2.392813 
C -3.027394 -1.758231 -3.383948 -0.897434 -3.383948 0 
C -3.383948 0.897434 -3.027394 1.758231 -2.392813 2.392813 
C -1.758231 3.027394 -0.897434 3.383948 0 3.383948 
z
" style="stroke: #ffbb78; stroke-opacity: 0.7; stroke-width: 2.025"/>
    </defs>
    <g clip-path="url(#p79da13c52d)">
     <use xlink:href="#mc393ab374c" x="658.944" y="640.890512" style="fill: #ffbb78; fill-opacity: 0.7; stroke: #ffbb78; stroke-opacity: 0.7; stroke-width: 2.025"/>
     <use xlink:href="#mc393ab374c" x="944.64" y="671.99321" style="fill: #ffbb78; fill-opacity: 0.7; stroke: #ffbb78; stroke-opacity: 0.7; stroke-width: 2.025"/>
     <use xlink:href="#mc393ab374c" x="1230.336" y="603.160335" style="fill: #ffbb78; fill-opacity: 0.7; stroke: #ffbb78; stroke-opacity: 0.7; stroke-width: 2.025"/>
     <use xlink:href="#mc393ab374c" x="1516.032" y="296.46122" style="fill: #ffbb78; fill-opacity: 0.7; stroke: #ffbb78; stroke-opacity: 0.7; stroke-width: 2.025"/>
    </g>
   </g>
   <g id="line2d_30">
    <path clip-path="url(#p79da13c52d)" style="fill: none; stroke: #ffbb78; stroke-opacity: 0.7; stroke-width: 2.7; stroke-linecap: square"/>
   </g>
   <g id="line2d_31">
    <path d="M 644.6592 703.734676 
L 673.2288 703.734676 
M 658.944 703.734676 
L 658.944 576.809432 
M 644.6592 576.809432 
L 673.2288 576.809432 
" clip-path="url(#p79da13c52d)" style="fill: none; stroke: #ffbb78; stroke-opacity: 0.7; stroke-width: 2.7; stroke-linecap: square"/>
   </g>
   <g id="line2d_32">
    <path d="M 930.3552 732.401553 
L 958.9248 732.401553 
M 944.64 732.401553 
L 944.64 608.695896 
M 930.3552 608.695896 
L 958.9248 608.695896 
" clip-path="url(#p79da13c52d)" style="fill: none; stroke: #ffbb78; stroke-opacity: 0.7; stroke-width: 2.7; stroke-linecap: square"/>
   </g>
   <g id="line2d_33">
    <path d="M 1216.0512 655.132322 
L 1244.6208 655.132322 
M 1230.336 655.132322 
L 1230.336 548.049832 
M 1216.0512 548.049832 
L 1244.6208 548.049832 
" clip-path="url(#p79da13c52d)" style="fill: none; stroke: #ffbb78; stroke-opacity: 0.7; stroke-width: 2.7; stroke-linecap: square"/>
   </g>
   <g id="line2d_34">
    <path d="M 1501.7472 381.391134 
L 1530.3168 381.391134 
M 1516.032 381.391134 
L 1516.032 210.666659 
M 1501.7472 210.666659 
L 1530.3168 210.666659 
" clip-path="url(#p79da13c52d)" style="fill: none; stroke: #ffbb78; stroke-opacity: 0.7; stroke-width: 2.7; stroke-linecap: square"/>
   </g>
   <g id="line2d_35">
    <path d="M 658.944 638.906081 
L 944.64 623.141895 
L 1230.336 587.401956 
L 1516.032 265.150124 
" clip-path="url(#p79da13c52d)" style="fill: none; stroke: #2ca02c; stroke-opacity: 0.7; stroke-width: 2.7; stroke-linecap: square"/>
    <defs>
     <path id="m88a510cb74" d="M 0 3.383948 
C 0.897434 3.383948 1.758231 3.027394 2.392813 2.392813 
C 3.027394 1.758231 3.383948 0.897434 3.383948 0 
C 3.383948 -0.897434 3.027394 -1.758231 2.392813 -2.392813 
C 1.758231 -3.027394 0.897434 -3.383948 0 -3.383948 
C -0.897434 -3.383948 -1.758231 -3.027394 -2.392813 -2.392813 
C -3.027394 -1.758231 -3.383948 -0.897434 -3.383948 0 
C -3.383948 0.897434 -3.027394 1.758231 -2.392813 2.392813 
C -1.758231 3.027394 -0.897434 3.383948 0 3.383948 
z
" style="stroke: #2ca02c; stroke-opacity: 0.7; stroke-width: 2.025"/>
    </defs>
    <g clip-path="url(#p79da13c52d)">
     <use xlink:href="#m88a510cb74" x="658.944" y="638.906081" style="fill: #2ca02c; fill-opacity: 0.7; stroke: #2ca02c; stroke-opacity: 0.7; stroke-width: 2.025"/>
     <use xlink:href="#m88a510cb74" x="944.64" y="623.141895" style="fill: #2ca02c; fill-opacity: 0.7; stroke: #2ca02c; stroke-opacity: 0.7; stroke-width: 2.025"/>
     <use xlink:href="#m88a510cb74" x="1230.336" y="587.401956" style="fill: #2ca02c; fill-opacity: 0.7; stroke: #2ca02c; stroke-opacity: 0.7; stroke-width: 2.025"/>
     <use xlink:href="#m88a510cb74" x="1516.032" y="265.150124" style="fill: #2ca02c; fill-opacity: 0.7; stroke: #2ca02c; stroke-opacity: 0.7; stroke-width: 2.025"/>
    </g>
   </g>
   <g id="line2d_36">
    <path clip-path="url(#p79da13c52d)" style="fill: none; stroke: #2ca02c; stroke-opacity: 0.7; stroke-width: 2.7; stroke-linecap: square"/>
   </g>
   <g id="line2d_37">
    <path d="M 644.6592 680.024973 
L 673.2288 680.024973 
M 658.944 680.024973 
L 658.944 600.021144 
M 644.6592 600.021144 
L 673.2288 600.021144 
" clip-path="url(#p79da13c52d)" style="fill: none; stroke: #2ca02c; stroke-opacity: 0.7; stroke-width: 2.7; stroke-linecap: square"/>
   </g>
   <g id="line2d_38">
    <path d="M 930.3552 655.37173 
L 958.9248 655.37173 
M 944.64 655.37173 
L 944.64 590.642847 
M 930.3552 590.642847 
L 958.9248 590.642847 
" clip-path="url(#p79da13c52d)" style="fill: none; stroke: #2ca02c; stroke-opacity: 0.7; stroke-width: 2.7; stroke-linecap: square"/>
   </g>
   <g id="line2d_39">
    <path d="M 1216.0512 634.616305 
L 1244.6208 634.616305 
M 1230.336 634.616305 
L 1230.336 545.432685 
M 1216.0512 545.432685 
L 1244.6208 545.432685 
" clip-path="url(#p79da13c52d)" style="fill: none; stroke: #2ca02c; stroke-opacity: 0.7; stroke-width: 2.7; stroke-linecap: square"/>
   </g>
   <g id="line2d_40">
    <path d="M 1501.7472 344.038214 
L 1530.3168 344.038214 
M 1516.032 344.038214 
L 1516.032 192.161687 
M 1501.7472 192.161687 
L 1530.3168 192.161687 
" clip-path="url(#p79da13c52d)" style="fill: none; stroke: #2ca02c; stroke-opacity: 0.7; stroke-width: 2.7; stroke-linecap: square"/>
   </g>
   <g id="line2d_41">
    <path d="M 373.248 784.063528 
L 658.944 756.125471 
L 944.64 643.968791 
L 1230.336 658.176262 
" clip-path="url(#p79da13c52d)" style="fill: none; stroke: #98df8a; stroke-opacity: 0.7; stroke-width: 2.7; stroke-linecap: square"/>
    <defs>
     <path id="m02e2c63848" d="M 0 3.383948 
C 0.897434 3.383948 1.758231 3.027394 2.392813 2.392813 
C 3.027394 1.758231 3.383948 0.897434 3.383948 0 
C 3.383948 -0.897434 3.027394 -1.758231 2.392813 -2.392813 
C 1.758231 -3.027394 0.897434 -3.383948 0 -3.383948 
C -0.897434 -3.383948 -1.758231 -3.027394 -2.392813 -2.392813 
C -3.027394 -1.758231 -3.383948 -0.897434 -3.383948 0 
C -3.383948 0.897434 -3.027394 1.758231 -2.392813 2.392813 
C -1.758231 3.027394 -0.897434 3.383948 0 3.383948 
z
" style="stroke: #98df8a; stroke-opacity: 0.7; stroke-width: 2.025"/>
    </defs>
    <g clip-path="url(#p79da13c52d)">
     <use xlink:href="#m02e2c63848" x="373.248" y="784.063528" style="fill: #98df8a; fill-opacity: 0.7; stroke: #98df8a; stroke-opacity: 0.7; stroke-width: 2.025"/>
     <use xlink:href="#m02e2c63848" x="658.944" y="756.125471" style="fill: #98df8a; fill-opacity: 0.7; stroke: #98df8a; stroke-opacity: 0.7; stroke-width: 2.025"/>
     <use xlink:href="#m02e2c63848" x="944.64" y="643.968791" style="fill: #98df8a; fill-opacity: 0.7; stroke: #98df8a; stroke-opacity: 0.7; stroke-width: 2.025"/>
     <use xlink:href="#m02e2c63848" x="1230.336" y="658.176262" style="fill: #98df8a; fill-opacity: 0.7; stroke: #98df8a; stroke-opacity: 0.7; stroke-width: 2.025"/>
    </g>
   </g>
   <g id="line2d_42">
    <path d="M 358.9632 830.613186 
L 387.5328 830.613186 
M 373.248 830.613186 
L 373.248 740.373703 
M 358.9632 740.373703 
L 387.5328 740.373703 
" clip-path="url(#p79da13c52d)" style="fill: none; stroke: #98df8a; stroke-opacity: 0.7; stroke-width: 2.7; stroke-linecap: square"/>
   </g>
   <g id="line2d_43">
    <path d="M 644.6592 795.722166 
L 673.2288 795.722166 
M 658.944 795.722166 
L 658.944 717.931737 
M 644.6592 717.931737 
L 673.2288 717.931737 
" clip-path="url(#p79da13c52d)" style="fill: none; stroke: #98df8a; stroke-opacity: 0.7; stroke-width: 2.7; stroke-linecap: square"/>
   </g>
   <g id="line2d_44">
    <path d="M 930.3552 691.624812 
L 958.9248 691.624812 
M 944.64 691.624812 
L 944.64 599.745385 
M 930.3552 599.745385 
L 958.9248 599.745385 
" clip-path="url(#p79da13c52d)" style="fill: none; stroke: #98df8a; stroke-opacity: 0.7; stroke-width: 2.7; stroke-linecap: square"/>
   </g>
   <g id="line2d_45">
    <path d="M 1216.0512 693.364619 
L 1244.6208 693.364619 
M 1230.336 693.364619 
L 1230.336 623.179445 
M 1216.0512 623.179445 
L 1244.6208 623.179445 
" clip-path="url(#p79da13c52d)" style="fill: none; stroke: #98df8a; stroke-opacity: 0.7; stroke-width: 2.7; stroke-linecap: square"/>
   </g>
   <g id="line2d_46">
    <path clip-path="url(#p79da13c52d)" style="fill: none; stroke: #98df8a; stroke-opacity: 0.7; stroke-width: 2.7; stroke-linecap: square"/>
   </g>
   <g id="line2d_47">
    <path d="M 373.248 757.216682 
L 658.944 705.113558 
L 944.64 577.603547 
L 1230.336 566.881952 
" clip-path="url(#p79da13c52d)" style="fill: none; stroke: #d62728; stroke-opacity: 0.7; stroke-width: 2.7; stroke-linecap: square"/>
    <defs>
     <path id="m3afd81966a" d="M 0 3.383948 
C 0.897434 3.383948 1.758231 3.027394 2.392813 2.392813 
C 3.027394 1.758231 3.383948 0.897434 3.383948 0 
C 3.383948 -0.897434 3.027394 -1.758231 2.392813 -2.392813 
C 1.758231 -3.027394 0.897434 -3.383948 0 -3.383948 
C -0.897434 -3.383948 -1.758231 -3.027394 -2.392813 -2.392813 
C -3.027394 -1.758231 -3.383948 -0.897434 -3.383948 0 
C -3.383948 0.897434 -3.027394 1.758231 -2.392813 2.392813 
C -1.758231 3.027394 -0.897434 3.383948 0 3.383948 
z
" style="stroke: #d62728; stroke-opacity: 0.7; stroke-width: 2.025"/>
    </defs>
    <g clip-path="url(#p79da13c52d)">
     <use xlink:href="#m3afd81966a" x="373.248" y="757.216682" style="fill: #d62728; fill-opacity: 0.7; stroke: #d62728; stroke-opacity: 0.7; stroke-width: 2.025"/>
     <use xlink:href="#m3afd81966a" x="658.944" y="705.113558" style="fill: #d62728; fill-opacity: 0.7; stroke: #d62728; stroke-opacity: 0.7; stroke-width: 2.025"/>
     <use xlink:href="#m3afd81966a" x="944.64" y="577.603547" style="fill: #d62728; fill-opacity: 0.7; stroke: #d62728; stroke-opacity: 0.7; stroke-width: 2.025"/>
     <use xlink:href="#m3afd81966a" x="1230.336" y="566.881952" style="fill: #d62728; fill-opacity: 0.7; stroke: #d62728; stroke-opacity: 0.7; stroke-width: 2.025"/>
    </g>
   </g>
   <g id="line2d_48">
    <path d="M 358.9632 839.60848 
L 387.5328 839.60848 
M 373.248 839.60848 
L 373.248 683.091655 
M 358.9632 683.091655 
L 387.5328 683.091655 
" clip-path="url(#p79da13c52d)" style="fill: none; stroke: #d62728; stroke-opacity: 0.7; stroke-width: 2.7; stroke-linecap: square"/>
   </g>
   <g id="line2d_49">
    <path d="M 644.6592 798.287378 
L 673.2288 798.287378 
M 658.944 798.287378 
L 658.944 605.408763 
M 644.6592 605.408763 
L 673.2288 605.408763 
" clip-path="url(#p79da13c52d)" style="fill: none; stroke: #d62728; stroke-opacity: 0.7; stroke-width: 2.7; stroke-linecap: square"/>
   </g>
   <g id="line2d_50">
    <path d="M 930.3552 634.454691 
L 958.9248 634.454691 
M 944.64 634.454691 
L 944.64 519.834564 
M 930.3552 519.834564 
L 958.9248 519.834564 
" clip-path="url(#p79da13c52d)" style="fill: none; stroke: #d62728; stroke-opacity: 0.7; stroke-width: 2.7; stroke-linecap: square"/>
   </g>
   <g id="line2d_51">
    <path d="M 1216.0512 619.060717 
L 1244.6208 619.060717 
M 1230.336 619.060717 
L 1230.336 510.424259 
M 1216.0512 510.424259 
L 1244.6208 510.424259 
" clip-path="url(#p79da13c52d)" style="fill: none; stroke: #d62728; stroke-opacity: 0.7; stroke-width: 2.7; stroke-linecap: square"/>
   </g>
   <g id="line2d_52">
    <path clip-path="url(#p79da13c52d)" style="fill: none; stroke: #d62728; stroke-opacity: 0.7; stroke-width: 2.7; stroke-linecap: square"/>
   </g>
   <g id="line2d_53">
    <path d="M 373.248 758.769748 
L 658.944 673.521325 
L 944.64 676.60313 
L 1230.336 601.969207 
" clip-path="url(#p79da13c52d)" style="fill: none; stroke: #ff9896; stroke-opacity: 0.7; stroke-width: 2.7; stroke-linecap: square"/>
    <defs>
     <path id="m1d5d567698" d="M 0 3.383948 
C 0.897434 3.383948 1.758231 3.027394 2.392813 2.392813 
C 3.027394 1.758231 3.383948 0.897434 3.383948 0 
C 3.383948 -0.897434 3.027394 -1.758231 2.392813 -2.392813 
C 1.758231 -3.027394 0.897434 -3.383948 0 -3.383948 
C -0.897434 -3.383948 -1.758231 -3.027394 -2.392813 -2.392813 
C -3.027394 -1.758231 -3.383948 -0.897434 -3.383948 0 
C -3.383948 0.897434 -3.027394 1.758231 -2.392813 2.392813 
C -1.758231 3.027394 -0.897434 3.383948 0 3.383948 
z
" style="stroke: #ff9896; stroke-opacity: 0.7; stroke-width: 2.025"/>
    </defs>
    <g clip-path="url(#p79da13c52d)">
     <use xlink:href="#m1d5d567698" x="373.248" y="758.769748" style="fill: #ff9896; fill-opacity: 0.7; stroke: #ff9896; stroke-opacity: 0.7; stroke-width: 2.025"/>
     <use xlink:href="#m1d5d567698" x="658.944" y="673.521325" style="fill: #ff9896; fill-opacity: 0.7; stroke: #ff9896; stroke-opacity: 0.7; stroke-width: 2.025"/>
     <use xlink:href="#m1d5d567698" x="944.64" y="676.60313" style="fill: #ff9896; fill-opacity: 0.7; stroke: #ff9896; stroke-opacity: 0.7; stroke-width: 2.025"/>
     <use xlink:href="#m1d5d567698" x="1230.336" y="601.969207" style="fill: #ff9896; fill-opacity: 0.7; stroke: #ff9896; stroke-opacity: 0.7; stroke-width: 2.025"/>
    </g>
   </g>
   <g id="line2d_54">
    <path d="M 358.9632 827.752087 
L 387.5328 827.752087 
M 373.248 827.752087 
L 373.248 684.161652 
M 358.9632 684.161652 
L 387.5328 684.161652 
" clip-path="url(#p79da13c52d)" style="fill: none; stroke: #ff9896; stroke-opacity: 0.7; stroke-width: 2.7; stroke-linecap: square"/>
   </g>
   <g id="line2d_55">
    <path d="M 644.6592 716.491114 
L 673.2288 716.491114 
M 658.944 716.491114 
L 658.944 629.949628 
M 644.6592 629.949628 
L 673.2288 629.949628 
" clip-path="url(#p79da13c52d)" style="fill: none; stroke: #ff9896; stroke-opacity: 0.7; stroke-width: 2.7; stroke-linecap: square"/>
   </g>
   <g id="line2d_56">
    <path d="M 930.3552 742.50761 
L 958.9248 742.50761 
M 944.64 742.50761 
L 944.64 608.484589 
M 930.3552 608.484589 
L 958.9248 608.484589 
" clip-path="url(#p79da13c52d)" style="fill: none; stroke: #ff9896; stroke-opacity: 0.7; stroke-width: 2.7; stroke-linecap: square"/>
   </g>
   <g id="line2d_57">
    <path d="M 1216.0512 660.034417 
L 1244.6208 660.034417 
M 1230.336 660.034417 
L 1230.336 546.108525 
M 1216.0512 546.108525 
L 1244.6208 546.108525 
" clip-path="url(#p79da13c52d)" style="fill: none; stroke: #ff9896; stroke-opacity: 0.7; stroke-width: 2.7; stroke-linecap: square"/>
   </g>
   <g id="line2d_58">
    <path clip-path="url(#p79da13c52d)" style="fill: none; stroke: #ff9896; stroke-opacity: 0.7; stroke-width: 2.7; stroke-linecap: square"/>
   </g>
   <g id="line2d_59">
    <path d="M 658.944 671.844253 
L 944.64 595.83509 
L 1230.336 577.476367 
L 1516.032 537.689639 
" clip-path="url(#p79da13c52d)" style="fill: none; stroke: #9467bd; stroke-opacity: 0.7; stroke-width: 2.7; stroke-linecap: square"/>
    <defs>
     <path id="m8dacc6f974" d="M 0 3.383948 
C 0.897434 3.383948 1.758231 3.027394 2.392813 2.392813 
C 3.027394 1.758231 3.383948 0.897434 3.383948 0 
C 3.383948 -0.897434 3.027394 -1.758231 2.392813 -2.392813 
C 1.758231 -3.027394 0.897434 -3.383948 0 -3.383948 
C -0.897434 -3.383948 -1.758231 -3.027394 -2.392813 -2.392813 
C -3.027394 -1.758231 -3.383948 -0.897434 -3.383948 0 
C -3.383948 0.897434 -3.027394 1.758231 -2.392813 2.392813 
C -1.758231 3.027394 -0.897434 3.383948 0 3.383948 
z
" style="stroke: #9467bd; stroke-opacity: 0.7; stroke-width: 2.025"/>
    </defs>
    <g clip-path="url(#p79da13c52d)">
     <use xlink:href="#m8dacc6f974" x="658.944" y="671.844253" style="fill: #9467bd; fill-opacity: 0.7; stroke: #9467bd; stroke-opacity: 0.7; stroke-width: 2.025"/>
     <use xlink:href="#m8dacc6f974" x="944.64" y="595.83509" style="fill: #9467bd; fill-opacity: 0.7; stroke: #9467bd; stroke-opacity: 0.7; stroke-width: 2.025"/>
     <use xlink:href="#m8dacc6f974" x="1230.336" y="577.476367" style="fill: #9467bd; fill-opacity: 0.7; stroke: #9467bd; stroke-opacity: 0.7; stroke-width: 2.025"/>
     <use xlink:href="#m8dacc6f974" x="1516.032" y="537.689639" style="fill: #9467bd; fill-opacity: 0.7; stroke: #9467bd; stroke-opacity: 0.7; stroke-width: 2.025"/>
    </g>
   </g>
   <g id="line2d_60">
    <path clip-path="url(#p79da13c52d)" style="fill: none; stroke: #9467bd; stroke-opacity: 0.7; stroke-width: 2.7; stroke-linecap: square"/>
   </g>
   <g id="line2d_61">
    <path d="M 644.6592 713.187017 
L 673.2288 713.187017 
M 658.944 713.187017 
L 658.944 631.41151 
M 644.6592 631.41151 
L 673.2288 631.41151 
" clip-path="url(#p79da13c52d)" style="fill: none; stroke: #9467bd; stroke-opacity: 0.7; stroke-width: 2.7; stroke-linecap: square"/>
   </g>
   <g id="line2d_62">
    <path d="M 930.3552 642.929775 
L 958.9248 642.929775 
M 944.64 642.929775 
L 944.64 546.634876 
M 930.3552 546.634876 
L 958.9248 546.634876 
" clip-path="url(#p79da13c52d)" style="fill: none; stroke: #9467bd; stroke-opacity: 0.7; stroke-width: 2.7; stroke-linecap: square"/>
   </g>
   <g id="line2d_63">
    <path d="M 1216.0512 639.936339 
L 1244.6208 639.936339 
M 1230.336 639.936339 
L 1230.336 513.816452 
M 1216.0512 513.816452 
L 1244.6208 513.816452 
" clip-path="url(#p79da13c52d)" style="fill: none; stroke: #9467bd; stroke-opacity: 0.7; stroke-width: 2.7; stroke-linecap: square"/>
   </g>
   <g id="line2d_64">
    <path d="M 1501.7472 579.767201 
L 1530.3168 579.767201 
M 1516.032 579.767201 
L 1516.032 492.618113 
M 1501.7472 492.618113 
L 1530.3168 492.618113 
" clip-path="url(#p79da13c52d)" style="fill: none; stroke: #9467bd; stroke-opacity: 0.7; stroke-width: 2.7; stroke-linecap: square"/>
   </g>
   <g id="line2d_65">
    <path d="M 658.944 649.603079 
L 944.64 626.542502 
L 1230.336 607.724649 
L 1516.032 609.622524 
" clip-path="url(#p79da13c52d)" style="fill: none; stroke: #c5b0d5; stroke-opacity: 0.7; stroke-width: 2.7; stroke-linecap: square"/>
    <defs>
     <path id="m0b935e633b" d="M 0 3.383948 
C 0.897434 3.383948 1.758231 3.027394 2.392813 2.392813 
C 3.027394 1.758231 3.383948 0.897434 3.383948 0 
C 3.383948 -0.897434 3.027394 -1.758231 2.392813 -2.392813 
C 1.758231 -3.027394 0.897434 -3.383948 0 -3.383948 
C -0.897434 -3.383948 -1.758231 -3.027394 -2.392813 -2.392813 
C -3.027394 -1.758231 -3.383948 -0.897434 -3.383948 0 
C -3.383948 0.897434 -3.027394 1.758231 -2.392813 2.392813 
C -1.758231 3.027394 -0.897434 3.383948 0 3.383948 
z
" style="stroke: #c5b0d5; stroke-opacity: 0.7; stroke-width: 2.025"/>
    </defs>
    <g clip-path="url(#p79da13c52d)">
     <use xlink:href="#m0b935e633b" x="658.944" y="649.603079" style="fill: #c5b0d5; fill-opacity: 0.7; stroke: #c5b0d5; stroke-opacity: 0.7; stroke-width: 2.025"/>
     <use xlink:href="#m0b935e633b" x="944.64" y="626.542502" style="fill: #c5b0d5; fill-opacity: 0.7; stroke: #c5b0d5; stroke-opacity: 0.7; stroke-width: 2.025"/>
     <use xlink:href="#m0b935e633b" x="1230.336" y="607.724649" style="fill: #c5b0d5; fill-opacity: 0.7; stroke: #c5b0d5; stroke-opacity: 0.7; stroke-width: 2.025"/>
     <use xlink:href="#m0b935e633b" x="1516.032" y="609.622524" style="fill: #c5b0d5; fill-opacity: 0.7; stroke: #c5b0d5; stroke-opacity: 0.7; stroke-width: 2.025"/>
    </g>
   </g>
   <g id="line2d_66">
    <path clip-path="url(#p79da13c52d)" style="fill: none; stroke: #c5b0d5; stroke-opacity: 0.7; stroke-width: 2.7; stroke-linecap: square"/>
   </g>
   <g id="line2d_67">
    <path d="M 644.6592 703.770031 
L 673.2288 703.770031 
M 658.944 703.770031 
L 658.944 592.019042 
M 644.6592 592.019042 
L 673.2288 592.019042 
" clip-path="url(#p79da13c52d)" style="fill: none; stroke: #c5b0d5; stroke-opacity: 0.7; stroke-width: 2.7; stroke-linecap: square"/>
   </g>
   <g id="line2d_68">
    <path d="M 930.3552 668.504464 
L 958.9248 668.504464 
M 944.64 668.504464 
L 944.64 581.960426 
M 930.3552 581.960426 
L 958.9248 581.960426 
" clip-path="url(#p79da13c52d)" style="fill: none; stroke: #c5b0d5; stroke-opacity: 0.7; stroke-width: 2.7; stroke-linecap: square"/>
   </g>
   <g id="line2d_69">
    <path d="M 1216.0512 645.311501 
L 1244.6208 645.311501 
M 1230.336 645.311501 
L 1230.336 568.910233 
M 1216.0512 568.910233 
L 1244.6208 568.910233 
" clip-path="url(#p79da13c52d)" style="fill: none; stroke: #c5b0d5; stroke-opacity: 0.7; stroke-width: 2.7; stroke-linecap: square"/>
   </g>
   <g id="line2d_70">
    <path d="M 1501.7472 651.98708 
L 1530.3168 651.98708 
M 1516.032 651.98708 
L 1516.032 566.975159 
M 1501.7472 566.975159 
L 1530.3168 566.975159 
" clip-path="url(#p79da13c52d)" style="fill: none; stroke: #c5b0d5; stroke-opacity: 0.7; stroke-width: 2.7; stroke-linecap: square"/>
   </g>
   <g id="line2d_71">
    <path d="M 658.944 615.531854 
L 944.64 560.478602 
L 1230.336 451.071902 
L 1516.032 236.588421 
" clip-path="url(#p79da13c52d)" style="fill: none; stroke: #8c564b; stroke-opacity: 0.7; stroke-width: 2.7; stroke-linecap: square"/>
    <defs>
     <path id="m2478e1f108" d="M 0 3.383948 
C 0.897434 3.383948 1.758231 3.027394 2.392813 2.392813 
C 3.027394 1.758231 3.383948 0.897434 3.383948 0 
C 3.383948 -0.897434 3.027394 -1.758231 2.392813 -2.392813 
C 1.758231 -3.027394 0.897434 -3.383948 0 -3.383948 
C -0.897434 -3.383948 -1.758231 -3.027394 -2.392813 -2.392813 
C -3.027394 -1.758231 -3.383948 -0.897434 -3.383948 0 
C -3.383948 0.897434 -3.027394 1.758231 -2.392813 2.392813 
C -1.758231 3.027394 -0.897434 3.383948 0 3.383948 
z
" style="stroke: #8c564b; stroke-opacity: 0.7; stroke-width: 2.025"/>
    </defs>
    <g clip-path="url(#p79da13c52d)">
     <use xlink:href="#m2478e1f108" x="658.944" y="615.531854" style="fill: #8c564b; fill-opacity: 0.7; stroke: #8c564b; stroke-opacity: 0.7; stroke-width: 2.025"/>
     <use xlink:href="#m2478e1f108" x="944.64" y="560.478602" style="fill: #8c564b; fill-opacity: 0.7; stroke: #8c564b; stroke-opacity: 0.7; stroke-width: 2.025"/>
     <use xlink:href="#m2478e1f108" x="1230.336" y="451.071902" style="fill: #8c564b; fill-opacity: 0.7; stroke: #8c564b; stroke-opacity: 0.7; stroke-width: 2.025"/>
     <use xlink:href="#m2478e1f108" x="1516.032" y="236.588421" style="fill: #8c564b; fill-opacity: 0.7; stroke: #8c564b; stroke-opacity: 0.7; stroke-width: 2.025"/>
    </g>
   </g>
   <g id="line2d_72">
    <path clip-path="url(#p79da13c52d)" style="fill: none; stroke: #8c564b; stroke-opacity: 0.7; stroke-width: 2.7; stroke-linecap: square"/>
   </g>
   <g id="line2d_73">
    <path d="M 644.6592 662.736343 
L 673.2288 662.736343 
M 658.944 662.736343 
L 658.944 563.287176 
M 644.6592 563.287176 
L 673.2288 563.287176 
" clip-path="url(#p79da13c52d)" style="fill: none; stroke: #8c564b; stroke-opacity: 0.7; stroke-width: 2.7; stroke-linecap: square"/>
   </g>
   <g id="line2d_74">
    <path d="M 930.3552 621.312063 
L 958.9248 621.312063 
M 944.64 621.312063 
L 944.64 496.570393 
M 930.3552 496.570393 
L 958.9248 496.570393 
" clip-path="url(#p79da13c52d)" style="fill: none; stroke: #8c564b; stroke-opacity: 0.7; stroke-width: 2.7; stroke-linecap: square"/>
   </g>
   <g id="line2d_75">
    <path d="M 1216.0512 504.235144 
L 1244.6208 504.235144 
M 1230.336 504.235144 
L 1230.336 390.681778 
M 1216.0512 390.681778 
L 1244.6208 390.681778 
" clip-path="url(#p79da13c52d)" style="fill: none; stroke: #8c564b; stroke-opacity: 0.7; stroke-width: 2.7; stroke-linecap: square"/>
   </g>
   <g id="line2d_76">
    <path d="M 1501.7472 317.142921 
L 1530.3168 317.142921 
M 1516.032 317.142921 
L 1516.032 156.6864 
M 1501.7472 156.6864 
L 1530.3168 156.6864 
" clip-path="url(#p79da13c52d)" style="fill: none; stroke: #8c564b; stroke-opacity: 0.7; stroke-width: 2.7; stroke-linecap: square"/>
   </g>
   <g id="line2d_77">
    <path d="M 373.248 824.008635 
L 658.944 743.338558 
L 944.64 741.531744 
L 1230.336 744.289196 
" clip-path="url(#p79da13c52d)" style="fill: none; stroke: #c49c94; stroke-opacity: 0.7; stroke-width: 2.7; stroke-linecap: square"/>
    <defs>
     <path id="m271f81ab90" d="M 0 3.383948 
C 0.897434 3.383948 1.758231 3.027394 2.392813 2.392813 
C 3.027394 1.758231 3.383948 0.897434 3.383948 0 
C 3.383948 -0.897434 3.027394 -1.758231 2.392813 -2.392813 
C 1.758231 -3.027394 0.897434 -3.383948 0 -3.383948 
C -0.897434 -3.383948 -1.758231 -3.027394 -2.392813 -2.392813 
C -3.027394 -1.758231 -3.383948 -0.897434 -3.383948 0 
C -3.383948 0.897434 -3.027394 1.758231 -2.392813 2.392813 
C -1.758231 3.027394 -0.897434 3.383948 0 3.383948 
z
" style="stroke: #c49c94; stroke-opacity: 0.7; stroke-width: 2.025"/>
    </defs>
    <g clip-path="url(#p79da13c52d)">
     <use xlink:href="#m271f81ab90" x="373.248" y="824.008635" style="fill: #c49c94; fill-opacity: 0.7; stroke: #c49c94; stroke-opacity: 0.7; stroke-width: 2.025"/>
     <use xlink:href="#m271f81ab90" x="658.944" y="743.338558" style="fill: #c49c94; fill-opacity: 0.7; stroke: #c49c94; stroke-opacity: 0.7; stroke-width: 2.025"/>
     <use xlink:href="#m271f81ab90" x="944.64" y="741.531744" style="fill: #c49c94; fill-opacity: 0.7; stroke: #c49c94; stroke-opacity: 0.7; stroke-width: 2.025"/>
     <use xlink:href="#m271f81ab90" x="1230.336" y="744.289196" style="fill: #c49c94; fill-opacity: 0.7; stroke: #c49c94; stroke-opacity: 0.7; stroke-width: 2.025"/>
    </g>
   </g>
   <g id="line2d_78">
    <path d="M 358.9632 864.3024 
L 387.5328 864.3024 
M 373.248 864.3024 
L 373.248 784.406137 
M 358.9632 784.406137 
L 387.5328 784.406137 
" clip-path="url(#p79da13c52d)" style="fill: none; stroke: #c49c94; stroke-opacity: 0.7; stroke-width: 2.7; stroke-linecap: square"/>
   </g>
   <g id="line2d_79">
    <path d="M 644.6592 781.624499 
L 673.2288 781.624499 
M 658.944 781.624499 
L 658.944 705.712605 
M 644.6592 705.712605 
L 673.2288 705.712605 
" clip-path="url(#p79da13c52d)" style="fill: none; stroke: #c49c94; stroke-opacity: 0.7; stroke-width: 2.7; stroke-linecap: square"/>
   </g>
   <g id="line2d_80">
    <path d="M 930.3552 773.09582 
L 958.9248 773.09582 
M 944.64 773.09582 
L 944.64 713.602252 
M 930.3552 713.602252 
L 958.9248 713.602252 
" clip-path="url(#p79da13c52d)" style="fill: none; stroke: #c49c94; stroke-opacity: 0.7; stroke-width: 2.7; stroke-linecap: square"/>
   </g>
   <g id="line2d_81">
    <path d="M 1216.0512 778.275214 
L 1244.6208 778.275214 
M 1230.336 778.275214 
L 1230.336 710.355675 
M 1216.0512 710.355675 
L 1244.6208 710.355675 
" clip-path="url(#p79da13c52d)" style="fill: none; stroke: #c49c94; stroke-opacity: 0.7; stroke-width: 2.7; stroke-linecap: square"/>
   </g>
   <g id="line2d_82">
    <path clip-path="url(#p79da13c52d)" style="fill: none; stroke: #c49c94; stroke-opacity: 0.7; stroke-width: 2.7; stroke-linecap: square"/>
   </g>
   <g id="line2d_83">
    <path d="M 658.944 658.439194 
L 944.64 694.677755 
L 1230.336 670.749136 
L 1516.032 637.412729 
" clip-path="url(#p79da13c52d)" style="fill: none; stroke: #e377c2; stroke-opacity: 0.7; stroke-width: 2.7; stroke-linecap: square"/>
    <defs>
     <path id="m5f5651b80c" d="M 0 3.383948 
C 0.897434 3.383948 1.758231 3.027394 2.392813 2.392813 
C 3.027394 1.758231 3.383948 0.897434 3.383948 0 
C 3.383948 -0.897434 3.027394 -1.758231 2.392813 -2.392813 
C 1.758231 -3.027394 0.897434 -3.383948 0 -3.383948 
C -0.897434 -3.383948 -1.758231 -3.027394 -2.392813 -2.392813 
C -3.027394 -1.758231 -3.383948 -0.897434 -3.383948 0 
C -3.383948 0.897434 -3.027394 1.758231 -2.392813 2.392813 
C -1.758231 3.027394 -0.897434 3.383948 0 3.383948 
z
" style="stroke: #e377c2; stroke-opacity: 0.7; stroke-width: 2.025"/>
    </defs>
    <g clip-path="url(#p79da13c52d)">
     <use xlink:href="#m5f5651b80c" x="658.944" y="658.439194" style="fill: #e377c2; fill-opacity: 0.7; stroke: #e377c2; stroke-opacity: 0.7; stroke-width: 2.025"/>
     <use xlink:href="#m5f5651b80c" x="944.64" y="694.677755" style="fill: #e377c2; fill-opacity: 0.7; stroke: #e377c2; stroke-opacity: 0.7; stroke-width: 2.025"/>
     <use xlink:href="#m5f5651b80c" x="1230.336" y="670.749136" style="fill: #e377c2; fill-opacity: 0.7; stroke: #e377c2; stroke-opacity: 0.7; stroke-width: 2.025"/>
     <use xlink:href="#m5f5651b80c" x="1516.032" y="637.412729" style="fill: #e377c2; fill-opacity: 0.7; stroke: #e377c2; stroke-opacity: 0.7; stroke-width: 2.025"/>
    </g>
   </g>
   <g id="line2d_84">
    <path clip-path="url(#p79da13c52d)" style="fill: none; stroke: #e377c2; stroke-opacity: 0.7; stroke-width: 2.7; stroke-linecap: square"/>
   </g>
   <g id="line2d_85">
    <path d="M 644.6592 727.263699 
L 673.2288 727.263699 
M 658.944 727.263699 
L 658.944 595.432025 
M 644.6592 595.432025 
L 673.2288 595.432025 
" clip-path="url(#p79da13c52d)" style="fill: none; stroke: #e377c2; stroke-opacity: 0.7; stroke-width: 2.7; stroke-linecap: square"/>
   </g>
   <g id="line2d_86">
    <path d="M 930.3552 759.769217 
L 958.9248 759.769217 
M 944.64 759.769217 
L 944.64 625.268443 
M 930.3552 625.268443 
L 958.9248 625.268443 
" clip-path="url(#p79da13c52d)" style="fill: none; stroke: #e377c2; stroke-opacity: 0.7; stroke-width: 2.7; stroke-linecap: square"/>
   </g>
   <g id="line2d_87">
    <path d="M 1216.0512 731.896803 
L 1244.6208 731.896803 
M 1230.336 731.896803 
L 1230.336 607.746056 
M 1216.0512 607.746056 
L 1244.6208 607.746056 
" clip-path="url(#p79da13c52d)" style="fill: none; stroke: #e377c2; stroke-opacity: 0.7; stroke-width: 2.7; stroke-linecap: square"/>
   </g>
   <g id="line2d_88">
    <path d="M 1501.7472 696.700753 
L 1530.3168 696.700753 
M 1516.032 696.700753 
L 1516.032 577.464236 
M 1501.7472 577.464236 
L 1530.3168 577.464236 
" clip-path="url(#p79da13c52d)" style="fill: none; stroke: #e377c2; stroke-opacity: 0.7; stroke-width: 2.7; stroke-linecap: square"/>
   </g>
   <g id="line2d_89"/>
   <g id="line2d_90"/>
   <g id="line2d_91"/>
   <g id="line2d_92"/>
   <g id="line2d_93"/>
   <g id="line2d_94"/>
   <g id="line2d_95"/>
   <g id="line2d_96"/>
   <g id="line2d_97"/>
   <g id="line2d_98"/>
   <g id="line2d_99"/>
   <g id="line2d_100"/>
   <g id="line2d_101"/>
   <g id="patch_3">
    <path d="M 230.4 899.6832 
L 230.4 121.3056 
" style="fill: none; stroke: #000000; stroke-width: 0.8; stroke-linejoin: miter; stroke-linecap: square"/>
   </g>
   <g id="patch_4">
    <path d="M 1658.88 899.6832 
L 1658.88 121.3056 
" style="fill: none; stroke: #000000; stroke-width: 0.8; stroke-linejoin: miter; stroke-linecap: square"/>
   </g>
   <g id="patch_5">
    <path d="M 230.4 899.6832 
L 1658.88 899.6832 
" style="fill: none; stroke: #000000; stroke-width: 0.8; stroke-linejoin: miter; stroke-linecap: square"/>
   </g>
   <g id="patch_6">
    <path d="M 230.4 121.3056 
L 1658.88 121.3056 
" style="fill: none; stroke: #000000; stroke-width: 0.8; stroke-linejoin: miter; stroke-linecap: square"/>
   </g>
   <g id="text_13">
    <!-- ASEM Per Subject: Arrow UP -->
    <g transform="translate(734.879063 115.066538) scale(0.3 -0.3)">
     <defs>
      <path id="DejaVuSans-72" d="M 2631 2963 
Q 2534 3019 2420 3045 
Q 2306 3072 2169 3072 
Q 1681 3072 1420 2755 
Q 1159 2438 1159 1844 
L 1159 0 
L 581 0 
L 581 3500 
L 1159 3500 
L 1159 2956 
Q 1341 3275 1631 3429 
Q 1922 3584 2338 3584 
Q 2397 3584 2469 3576 
Q 2541 3569 2628 3553 
L 2631 2963 
z
" transform="scale(0.015625)"/>
      <path id="DejaVuSans-75" d="M 544 1381 
L 544 3500 
L 1119 3500 
L 1119 1403 
Q 1119 906 1312 657 
Q 1506 409 1894 409 
Q 2359 409 2629 706 
Q 2900 1003 2900 1516 
L 2900 3500 
L 3475 3500 
L 3475 0 
L 2900 0 
L 2900 538 
Q 2691 219 2414 64 
Q 2138 -91 1772 -91 
Q 1169 -91 856 284 
Q 544 659 544 1381 
z
M 1991 3584 
L 1991 3584 
z
" transform="scale(0.015625)"/>
      <path id="DejaVuSans-62" d="M 3116 1747 
Q 3116 2381 2855 2742 
Q 2594 3103 2138 3103 
Q 1681 3103 1420 2742 
Q 1159 2381 1159 1747 
Q 1159 1113 1420 752 
Q 1681 391 2138 391 
Q 2594 391 2855 752 
Q 3116 1113 3116 1747 
z
M 1159 2969 
Q 1341 3281 1617 3432 
Q 1894 3584 2278 3584 
Q 2916 3584 3314 3078 
Q 3713 2572 3713 1747 
Q 3713 922 3314 415 
Q 2916 -91 2278 -91 
Q 1894 -91 1617 61 
Q 1341 213 1159 525 
L 1159 0 
L 581 0 
L 581 4863 
L 1159 4863 
L 1159 2969 
z
" transform="scale(0.015625)"/>
      <path id="DejaVuSans-6a" d="M 603 3500 
L 1178 3500 
L 1178 -63 
Q 1178 -731 923 -1031 
Q 669 -1331 103 -1331 
L -116 -1331 
L -116 -844 
L 38 -844 
Q 366 -844 484 -692 
Q 603 -541 603 -63 
L 603 3500 
z
M 603 4863 
L 1178 4863 
L 1178 4134 
L 603 4134 
L 603 4863 
z
" transform="scale(0.015625)"/>
      <path id="DejaVuSans-63" d="M 3122 3366 
L 3122 2828 
Q 2878 2963 2633 3030 
Q 2388 3097 2138 3097 
Q 1578 3097 1268 2742 
Q 959 2388 959 1747 
Q 959 1106 1268 751 
Q 1578 397 2138 397 
Q 2388 397 2633 464 
Q 2878 531 3122 666 
L 3122 134 
Q 2881 22 2623 -34 
Q 2366 -91 2075 -91 
Q 1284 -91 818 406 
Q 353 903 353 1747 
Q 353 2603 823 3093 
Q 1294 3584 2113 3584 
Q 2378 3584 2631 3529 
Q 2884 3475 3122 3366 
z
" transform="scale(0.015625)"/>
      <path id="DejaVuSans-3a" d="M 750 794 
L 1409 794 
L 1409 0 
L 750 0 
L 750 794 
z
M 750 3309 
L 1409 3309 
L 1409 2516 
L 750 2516 
L 750 3309 
z
" transform="scale(0.015625)"/>
      <path id="DejaVuSans-6f" d="M 1959 3097 
Q 1497 3097 1228 2736 
Q 959 2375 959 1747 
Q 959 1119 1226 758 
Q 1494 397 1959 397 
Q 2419 397 2687 759 
Q 2956 1122 2956 1747 
Q 2956 2369 2687 2733 
Q 2419 3097 1959 3097 
z
M 1959 3584 
Q 2709 3584 3137 3096 
Q 3566 2609 3566 1747 
Q 3566 888 3137 398 
Q 2709 -91 1959 -91 
Q 1206 -91 779 398 
Q 353 888 353 1747 
Q 353 2609 779 3096 
Q 1206 3584 1959 3584 
z
" transform="scale(0.015625)"/>
      <path id="DejaVuSans-77" d="M 269 3500 
L 844 3500 
L 1563 769 
L 2278 3500 
L 2956 3500 
L 3675 769 
L 4391 3500 
L 4966 3500 
L 4050 0 
L 3372 0 
L 2619 2869 
L 1863 0 
L 1184 0 
L 269 3500 
z
" transform="scale(0.015625)"/>
     </defs>
     <use xlink:href="#DejaVuSans-41"/>
     <use xlink:href="#DejaVuSans-53" x="68.408203"/>
     <use xlink:href="#DejaVuSans-45" x="131.884766"/>
     <use xlink:href="#DejaVuSans-4d" x="195.068359"/>
     <use xlink:href="#DejaVuSans-20" x="281.347656"/>
     <use xlink:href="#DejaVuSans-50" x="313.134766"/>
     <use xlink:href="#DejaVuSans-65" x="369.8125"/>
     <use xlink:href="#DejaVuSans-72" x="431.335938"/>
     <use xlink:href="#DejaVuSans-20" x="472.449219"/>
     <use xlink:href="#DejaVuSans-53" x="504.236328"/>
     <use xlink:href="#DejaVuSans-75" x="567.712891"/>
     <use xlink:href="#DejaVuSans-62" x="631.091797"/>
     <use xlink:href="#DejaVuSans-6a" x="694.568359"/>
     <use xlink:href="#DejaVuSans-65" x="722.351562"/>
     <use xlink:href="#DejaVuSans-63" x="783.875"/>
     <use xlink:href="#DejaVuSans-74" x="838.855469"/>
     <use xlink:href="#DejaVuSans-3a" x="878.064453"/>
     <use xlink:href="#DejaVuSans-20" x="911.755859"/>
     <use xlink:href="#DejaVuSans-41" x="943.542969"/>
     <use xlink:href="#DejaVuSans-72" x="1011.951172"/>
     <use xlink:href="#DejaVuSans-72" x="1051.314453"/>
     <use xlink:href="#DejaVuSans-6f" x="1090.177734"/>
     <use xlink:href="#DejaVuSans-77" x="1151.359375"/>
     <use xlink:href="#DejaVuSans-20" x="1233.146484"/>
     <use xlink:href="#DejaVuSans-55" x="1264.933594"/>
     <use xlink:href="#DejaVuSans-50" x="1338.126953"/>
    </g>
   </g>
   <g id="legend_1">
    <g id="patch_7">
     <path d="M 1555.43 518.93685 
L 1644.88 518.93685 
Q 1648.88 518.93685 1648.88 514.93685 
L 1648.88 135.3056 
Q 1648.88 131.3056 1644.88 131.3056 
L 1555.43 131.3056 
Q 1551.43 131.3056 1551.43 135.3056 
L 1551.43 514.93685 
Q 1551.43 518.93685 1555.43 518.93685 
z
" style="fill: #ffffff; opacity: 0.8; stroke: #cccccc; stroke-linejoin: miter"/>
    </g>
    <g id="line2d_102">
     <path d="M 1559.43 147.502475 
L 1579.43 147.502475 
L 1599.43 147.502475 
" style="fill: none; stroke: #1f77b4; stroke-opacity: 0.7; stroke-width: 2.7; stroke-linecap: square"/>
     <g>
      <use xlink:href="#mc52d19c5de" x="1579.43" y="147.502475" style="fill: #1f77b4; fill-opacity: 0.7; stroke: #1f77b4; stroke-opacity: 0.7; stroke-width: 2.025"/>
     </g>
    </g>
    <g id="text_14">
     <!-- 2 -->
     <g transform="translate(1615.43 154.502475) scale(0.2 -0.2)">
      <use xlink:href="#DejaVuSans-32"/>
     </g>
    </g>
    <g id="line2d_103">
     <path d="M 1559.43 176.858725 
L 1579.43 176.858725 
L 1599.43 176.858725 
" style="fill: none; stroke: #aec7e8; stroke-opacity: 0.7; stroke-width: 2.7; stroke-linecap: square"/>
     <g>
      <use xlink:href="#m3883fca6db" x="1579.43" y="176.858725" style="fill: #aec7e8; fill-opacity: 0.7; stroke: #aec7e8; stroke-opacity: 0.7; stroke-width: 2.025"/>
     </g>
    </g>
    <g id="text_15">
     <!-- 3 -->
     <g transform="translate(1615.43 183.858725) scale(0.2 -0.2)">
      <use xlink:href="#DejaVuSans-33"/>
     </g>
    </g>
    <g id="line2d_104">
     <path d="M 1559.43 206.214975 
L 1579.43 206.214975 
L 1599.43 206.214975 
" style="fill: none; stroke: #ff7f0e; stroke-opacity: 0.7; stroke-width: 2.7; stroke-linecap: square"/>
     <g>
      <use xlink:href="#mef05c8198b" x="1579.43" y="206.214975" style="fill: #ff7f0e; fill-opacity: 0.7; stroke: #ff7f0e; stroke-opacity: 0.7; stroke-width: 2.025"/>
     </g>
    </g>
    <g id="text_16">
     <!-- 4 -->
     <g transform="translate(1615.43 213.214975) scale(0.2 -0.2)">
      <defs>
       <path id="DejaVuSans-34" d="M 2419 4116 
L 825 1625 
L 2419 1625 
L 2419 4116 
z
M 2253 4666 
L 3047 4666 
L 3047 1625 
L 3713 1625 
L 3713 1100 
L 3047 1100 
L 3047 0 
L 2419 0 
L 2419 1100 
L 313 1100 
L 313 1709 
L 2253 4666 
z
" transform="scale(0.015625)"/>
      </defs>
      <use xlink:href="#DejaVuSans-34"/>
     </g>
    </g>
    <g id="line2d_105">
     <path d="M 1559.43 235.571225 
L 1579.43 235.571225 
L 1599.43 235.571225 
" style="fill: none; stroke: #ffbb78; stroke-opacity: 0.7; stroke-width: 2.7; stroke-linecap: square"/>
     <g>
      <use xlink:href="#mc393ab374c" x="1579.43" y="235.571225" style="fill: #ffbb78; fill-opacity: 0.7; stroke: #ffbb78; stroke-opacity: 0.7; stroke-width: 2.025"/>
     </g>
    </g>
    <g id="text_17">
     <!-- 5 -->
     <g transform="translate(1615.43 242.571225) scale(0.2 -0.2)">
      <use xlink:href="#DejaVuSans-35"/>
     </g>
    </g>
    <g id="line2d_106">
     <path d="M 1559.43 264.927475 
L 1579.43 264.927475 
L 1599.43 264.927475 
" style="fill: none; stroke: #2ca02c; stroke-opacity: 0.7; stroke-width: 2.7; stroke-linecap: square"/>
     <g>
      <use xlink:href="#m88a510cb74" x="1579.43" y="264.927475" style="fill: #2ca02c; fill-opacity: 0.7; stroke: #2ca02c; stroke-opacity: 0.7; stroke-width: 2.025"/>
     </g>
    </g>
    <g id="text_18">
     <!-- 6 -->
     <g transform="translate(1615.43 271.927475) scale(0.2 -0.2)">
      <defs>
       <path id="DejaVuSans-36" d="M 2113 2584 
Q 1688 2584 1439 2293 
Q 1191 2003 1191 1497 
Q 1191 994 1439 701 
Q 1688 409 2113 409 
Q 2538 409 2786 701 
Q 3034 994 3034 1497 
Q 3034 2003 2786 2293 
Q 2538 2584 2113 2584 
z
M 3366 4563 
L 3366 3988 
Q 3128 4100 2886 4159 
Q 2644 4219 2406 4219 
Q 1781 4219 1451 3797 
Q 1122 3375 1075 2522 
Q 1259 2794 1537 2939 
Q 1816 3084 2150 3084 
Q 2853 3084 3261 2657 
Q 3669 2231 3669 1497 
Q 3669 778 3244 343 
Q 2819 -91 2113 -91 
Q 1303 -91 875 529 
Q 447 1150 447 2328 
Q 447 3434 972 4092 
Q 1497 4750 2381 4750 
Q 2619 4750 2861 4703 
Q 3103 4656 3366 4563 
z
" transform="scale(0.015625)"/>
      </defs>
      <use xlink:href="#DejaVuSans-36"/>
     </g>
    </g>
    <g id="line2d_107">
     <path d="M 1559.43 294.283725 
L 1579.43 294.283725 
L 1599.43 294.283725 
" style="fill: none; stroke: #98df8a; stroke-opacity: 0.7; stroke-width: 2.7; stroke-linecap: square"/>
     <g>
      <use xlink:href="#m02e2c63848" x="1579.43" y="294.283725" style="fill: #98df8a; fill-opacity: 0.7; stroke: #98df8a; stroke-opacity: 0.7; stroke-width: 2.025"/>
     </g>
    </g>
    <g id="text_19">
     <!-- 7 -->
     <g transform="translate(1615.43 301.283725) scale(0.2 -0.2)">
      <use xlink:href="#DejaVuSans-37"/>
     </g>
    </g>
    <g id="line2d_108">
     <path d="M 1559.43 323.639975 
L 1579.43 323.639975 
L 1599.43 323.639975 
" style="fill: none; stroke: #d62728; stroke-opacity: 0.7; stroke-width: 2.7; stroke-linecap: square"/>
     <g>
      <use xlink:href="#m3afd81966a" x="1579.43" y="323.639975" style="fill: #d62728; fill-opacity: 0.7; stroke: #d62728; stroke-opacity: 0.7; stroke-width: 2.025"/>
     </g>
    </g>
    <g id="text_20">
     <!-- 8 -->
     <g transform="translate(1615.43 330.639975) scale(0.2 -0.2)">
      <defs>
       <path id="DejaVuSans-38" d="M 2034 2216 
Q 1584 2216 1326 1975 
Q 1069 1734 1069 1313 
Q 1069 891 1326 650 
Q 1584 409 2034 409 
Q 2484 409 2743 651 
Q 3003 894 3003 1313 
Q 3003 1734 2745 1975 
Q 2488 2216 2034 2216 
z
M 1403 2484 
Q 997 2584 770 2862 
Q 544 3141 544 3541 
Q 544 4100 942 4425 
Q 1341 4750 2034 4750 
Q 2731 4750 3128 4425 
Q 3525 4100 3525 3541 
Q 3525 3141 3298 2862 
Q 3072 2584 2669 2484 
Q 3125 2378 3379 2068 
Q 3634 1759 3634 1313 
Q 3634 634 3220 271 
Q 2806 -91 2034 -91 
Q 1263 -91 848 271 
Q 434 634 434 1313 
Q 434 1759 690 2068 
Q 947 2378 1403 2484 
z
M 1172 3481 
Q 1172 3119 1398 2916 
Q 1625 2713 2034 2713 
Q 2441 2713 2670 2916 
Q 2900 3119 2900 3481 
Q 2900 3844 2670 4047 
Q 2441 4250 2034 4250 
Q 1625 4250 1398 4047 
Q 1172 3844 1172 3481 
z
" transform="scale(0.015625)"/>
      </defs>
      <use xlink:href="#DejaVuSans-38"/>
     </g>
    </g>
    <g id="line2d_109">
     <path d="M 1559.43 352.996225 
L 1579.43 352.996225 
L 1599.43 352.996225 
" style="fill: none; stroke: #ff9896; stroke-opacity: 0.7; stroke-width: 2.7; stroke-linecap: square"/>
     <g>
      <use xlink:href="#m1d5d567698" x="1579.43" y="352.996225" style="fill: #ff9896; fill-opacity: 0.7; stroke: #ff9896; stroke-opacity: 0.7; stroke-width: 2.025"/>
     </g>
    </g>
    <g id="text_21">
     <!-- 9 -->
     <g transform="translate(1615.43 359.996225) scale(0.2 -0.2)">
      <defs>
       <path id="DejaVuSans-39" d="M 703 97 
L 703 672 
Q 941 559 1184 500 
Q 1428 441 1663 441 
Q 2288 441 2617 861 
Q 2947 1281 2994 2138 
Q 2813 1869 2534 1725 
Q 2256 1581 1919 1581 
Q 1219 1581 811 2004 
Q 403 2428 403 3163 
Q 403 3881 828 4315 
Q 1253 4750 1959 4750 
Q 2769 4750 3195 4129 
Q 3622 3509 3622 2328 
Q 3622 1225 3098 567 
Q 2575 -91 1691 -91 
Q 1453 -91 1209 -44 
Q 966 3 703 97 
z
M 1959 2075 
Q 2384 2075 2632 2365 
Q 2881 2656 2881 3163 
Q 2881 3666 2632 3958 
Q 2384 4250 1959 4250 
Q 1534 4250 1286 3958 
Q 1038 3666 1038 3163 
Q 1038 2656 1286 2365 
Q 1534 2075 1959 2075 
z
" transform="scale(0.015625)"/>
      </defs>
      <use xlink:href="#DejaVuSans-39"/>
     </g>
    </g>
    <g id="line2d_110">
     <path d="M 1559.43 382.352475 
L 1579.43 382.352475 
L 1599.43 382.352475 
" style="fill: none; stroke: #9467bd; stroke-opacity: 0.7; stroke-width: 2.7; stroke-linecap: square"/>
     <g>
      <use xlink:href="#m8dacc6f974" x="1579.43" y="382.352475" style="fill: #9467bd; fill-opacity: 0.7; stroke: #9467bd; stroke-opacity: 0.7; stroke-width: 2.025"/>
     </g>
    </g>
    <g id="text_22">
     <!-- 10 -->
     <g transform="translate(1615.43 389.352475) scale(0.2 -0.2)">
      <use xlink:href="#DejaVuSans-31"/>
      <use xlink:href="#DejaVuSans-30" x="63.623047"/>
     </g>
    </g>
    <g id="line2d_111">
     <path d="M 1559.43 411.708725 
L 1579.43 411.708725 
L 1599.43 411.708725 
" style="fill: none; stroke: #c5b0d5; stroke-opacity: 0.7; stroke-width: 2.7; stroke-linecap: square"/>
     <g>
      <use xlink:href="#m0b935e633b" x="1579.43" y="411.708725" style="fill: #c5b0d5; fill-opacity: 0.7; stroke: #c5b0d5; stroke-opacity: 0.7; stroke-width: 2.025"/>
     </g>
    </g>
    <g id="text_23">
     <!-- 11 -->
     <g transform="translate(1615.43 418.708725) scale(0.2 -0.2)">
      <use xlink:href="#DejaVuSans-31"/>
      <use xlink:href="#DejaVuSans-31" x="63.623047"/>
     </g>
    </g>
    <g id="line2d_112">
     <path d="M 1559.43 441.064975 
L 1579.43 441.064975 
L 1599.43 441.064975 
" style="fill: none; stroke: #8c564b; stroke-opacity: 0.7; stroke-width: 2.7; stroke-linecap: square"/>
     <g>
      <use xlink:href="#m2478e1f108" x="1579.43" y="441.064975" style="fill: #8c564b; fill-opacity: 0.7; stroke: #8c564b; stroke-opacity: 0.7; stroke-width: 2.025"/>
     </g>
    </g>
    <g id="text_24">
     <!-- 12 -->
     <g transform="translate(1615.43 448.064975) scale(0.2 -0.2)">
      <use xlink:href="#DejaVuSans-31"/>
      <use xlink:href="#DejaVuSans-32" x="63.623047"/>
     </g>
    </g>
    <g id="line2d_113">
     <path d="M 1559.43 470.421225 
L 1579.43 470.421225 
L 1599.43 470.421225 
" style="fill: none; stroke: #c49c94; stroke-opacity: 0.7; stroke-width: 2.7; stroke-linecap: square"/>
     <g>
      <use xlink:href="#m271f81ab90" x="1579.43" y="470.421225" style="fill: #c49c94; fill-opacity: 0.7; stroke: #c49c94; stroke-opacity: 0.7; stroke-width: 2.025"/>
     </g>
    </g>
    <g id="text_25">
     <!-- 13 -->
     <g transform="translate(1615.43 477.421225) scale(0.2 -0.2)">
      <use xlink:href="#DejaVuSans-31"/>
      <use xlink:href="#DejaVuSans-33" x="63.623047"/>
     </g>
    </g>
    <g id="line2d_114">
     <path d="M 1559.43 499.777475 
L 1579.43 499.777475 
L 1599.43 499.777475 
" style="fill: none; stroke: #e377c2; stroke-opacity: 0.7; stroke-width: 2.7; stroke-linecap: square"/>
     <g>
      <use xlink:href="#m5f5651b80c" x="1579.43" y="499.777475" style="fill: #e377c2; fill-opacity: 0.7; stroke: #e377c2; stroke-opacity: 0.7; stroke-width: 2.025"/>
     </g>
    </g>
    <g id="text_26">
     <!-- 14 -->
     <g transform="translate(1615.43 506.777475) scale(0.2 -0.2)">
      <use xlink:href="#DejaVuSans-31"/>
      <use xlink:href="#DejaVuSans-34" x="63.623047"/>
     </g>
    </g>
   </g>
  </g>
 </g>
 <defs>
  <clipPath id="p79da13c52d">
   <rect x="230.4" y="121.3056" width="1428.48" height="778.3776"/>
  </clipPath>
 </defs>
</svg>
