<?xml version="1.0" encoding="utf-8" standalone="no"?>
<!DOCTYPE svg PUBLIC "-//W3C//DTD SVG 1.1//EN"
  "http://www.w3.org/Graphics/SVG/1.1/DTD/svg11.dtd">
<svg xmlns:xlink="http://www.w3.org/1999/xlink" width="1843.2pt" height="1010.88pt" viewBox="0 0 1843.2 1010.88" xmlns="http://www.w3.org/2000/svg" version="1.1">
 <metadata>
  <rdf:RDF xmlns:dc="http://purl.org/dc/elements/1.1/" xmlns:cc="http://creativecommons.org/ns#" xmlns:rdf="http://www.w3.org/1999/02/22-rdf-syntax-ns#">
   <cc:Work>
    <dc:type rdf:resource="http://purl.org/dc/dcmitype/StillImage"/>
    <dc:date>2024-11-18T18:39:16.512273</dc:date>
    <dc:format>image/svg+xml</dc:format>
    <dc:creator>
     <cc:Agent>
      <dc:title>Matplotlib v3.9.1, https://matplotlib.org/</dc:title>
     </cc:Agent>
    </dc:creator>
   </cc:Work>
  </rdf:RDF>
 </metadata>
 <defs>
  <style type="text/css">*{stroke-linejoin: round; stroke-linecap: butt}</style>
 </defs>
 <g id="figure_1">
  <g id="patch_1">
   <path d="M 0 1010.88 
L 1843.2 1010.88 
L 1843.2 0 
L 0 0 
z
" style="fill: #ffffff"/>
  </g>
  <g id="axes_1">
   <g id="patch_2">
    <path d="M 230.4 899.6832 
L 1658.88 899.6832 
L 1658.88 121.3056 
L 230.4 121.3056 
z
" style="fill: #ffffff"/>
   </g>
   <g id="matplotlib.axis_1">
    <g id="xtick_1">
     <g id="line2d_1">
      <defs>
       <path id="m7ba155652c" d="M 0 0 
L 0 3.5 
" style="stroke: #000000; stroke-width: 0.8"/>
      </defs>
      <g>
       <use xlink:href="#m7ba155652c" x="373.248" y="899.6832" style="stroke: #000000; stroke-width: 0.8"/>
      </g>
     </g>
     <g id="text_1">
      <!-- 0.0 -->
      <g transform="translate(357.344875 921.880075) scale(0.2 -0.2)">
       <defs>
        <path id="DejaVuSans-30" d="M 2034 4250 
Q 1547 4250 1301 3770 
Q 1056 3291 1056 2328 
Q 1056 1369 1301 889 
Q 1547 409 2034 409 
Q 2525 409 2770 889 
Q 3016 1369 3016 2328 
Q 3016 3291 2770 3770 
Q 2525 4250 2034 4250 
z
M 2034 4750 
Q 2819 4750 3233 4129 
Q 3647 3509 3647 2328 
Q 3647 1150 3233 529 
Q 2819 -91 2034 -91 
Q 1250 -91 836 529 
Q 422 1150 422 2328 
Q 422 3509 836 4129 
Q 1250 4750 2034 4750 
z
" transform="scale(0.015625)"/>
        <path id="DejaVuSans-2e" d="M 684 794 
L 1344 794 
L 1344 0 
L 684 0 
L 684 794 
z
" transform="scale(0.015625)"/>
       </defs>
       <use xlink:href="#DejaVuSans-30"/>
       <use xlink:href="#DejaVuSans-2e" x="63.623047"/>
       <use xlink:href="#DejaVuSans-30" x="95.410156"/>
      </g>
     </g>
    </g>
    <g id="xtick_2">
     <g id="line2d_2">
      <g>
       <use xlink:href="#m7ba155652c" x="658.944" y="899.6832" style="stroke: #000000; stroke-width: 0.8"/>
      </g>
     </g>
     <g id="text_2">
      <!-- 0.25 -->
      <g transform="translate(636.678375 921.880075) scale(0.2 -0.2)">
       <defs>
        <path id="DejaVuSans-32" d="M 1228 531 
L 3431 531 
L 3431 0 
L 469 0 
L 469 531 
Q 828 903 1448 1529 
Q 2069 2156 2228 2338 
Q 2531 2678 2651 2914 
Q 2772 3150 2772 3378 
Q 2772 3750 2511 3984 
Q 2250 4219 1831 4219 
Q 1534 4219 1204 4116 
Q 875 4013 500 3803 
L 500 4441 
Q 881 4594 1212 4672 
Q 1544 4750 1819 4750 
Q 2544 4750 2975 4387 
Q 3406 4025 3406 3419 
Q 3406 3131 3298 2873 
Q 3191 2616 2906 2266 
Q 2828 2175 2409 1742 
Q 1991 1309 1228 531 
z
" transform="scale(0.015625)"/>
        <path id="DejaVuSans-35" d="M 691 4666 
L 3169 4666 
L 3169 4134 
L 1269 4134 
L 1269 2991 
Q 1406 3038 1543 3061 
Q 1681 3084 1819 3084 
Q 2600 3084 3056 2656 
Q 3513 2228 3513 1497 
Q 3513 744 3044 326 
Q 2575 -91 1722 -91 
Q 1428 -91 1123 -41 
Q 819 9 494 109 
L 494 744 
Q 775 591 1075 516 
Q 1375 441 1709 441 
Q 2250 441 2565 725 
Q 2881 1009 2881 1497 
Q 2881 1984 2565 2268 
Q 2250 2553 1709 2553 
Q 1456 2553 1204 2497 
Q 953 2441 691 2322 
L 691 4666 
z
" transform="scale(0.015625)"/>
       </defs>
       <use xlink:href="#DejaVuSans-30"/>
       <use xlink:href="#DejaVuSans-2e" x="63.623047"/>
       <use xlink:href="#DejaVuSans-32" x="95.410156"/>
       <use xlink:href="#DejaVuSans-35" x="159.033203"/>
      </g>
     </g>
    </g>
    <g id="xtick_3">
     <g id="line2d_3">
      <g>
       <use xlink:href="#m7ba155652c" x="944.64" y="899.6832" style="stroke: #000000; stroke-width: 0.8"/>
      </g>
     </g>
     <g id="text_3">
      <!-- 0.5 -->
      <g transform="translate(928.736875 921.880075) scale(0.2 -0.2)">
       <use xlink:href="#DejaVuSans-30"/>
       <use xlink:href="#DejaVuSans-2e" x="63.623047"/>
       <use xlink:href="#DejaVuSans-35" x="95.410156"/>
      </g>
     </g>
    </g>
    <g id="xtick_4">
     <g id="line2d_4">
      <g>
       <use xlink:href="#m7ba155652c" x="1230.336" y="899.6832" style="stroke: #000000; stroke-width: 0.8"/>
      </g>
     </g>
     <g id="text_4">
      <!-- 0.75 -->
      <g transform="translate(1208.070375 921.880075) scale(0.2 -0.2)">
       <defs>
        <path id="DejaVuSans-37" d="M 525 4666 
L 3525 4666 
L 3525 4397 
L 1831 0 
L 1172 0 
L 2766 4134 
L 525 4134 
L 525 4666 
z
" transform="scale(0.015625)"/>
       </defs>
       <use xlink:href="#DejaVuSans-30"/>
       <use xlink:href="#DejaVuSans-2e" x="63.623047"/>
       <use xlink:href="#DejaVuSans-37" x="95.410156"/>
       <use xlink:href="#DejaVuSans-35" x="159.033203"/>
      </g>
     </g>
    </g>
    <g id="xtick_5">
     <g id="line2d_5">
      <g>
       <use xlink:href="#m7ba155652c" x="1516.032" y="899.6832" style="stroke: #000000; stroke-width: 0.8"/>
      </g>
     </g>
     <g id="text_5">
      <!-- 1.0 -->
      <g transform="translate(1500.128875 921.880075) scale(0.2 -0.2)">
       <defs>
        <path id="DejaVuSans-31" d="M 794 531 
L 1825 531 
L 1825 4091 
L 703 3866 
L 703 4441 
L 1819 4666 
L 2450 4666 
L 2450 531 
L 3481 531 
L 3481 0 
L 794 0 
L 794 531 
z
" transform="scale(0.015625)"/>
       </defs>
       <use xlink:href="#DejaVuSans-31"/>
       <use xlink:href="#DejaVuSans-2e" x="63.623047"/>
       <use xlink:href="#DejaVuSans-30" x="95.410156"/>
      </g>
     </g>
    </g>
    <g id="text_6">
     <!-- P(Left|DOWN) -->
     <g transform="translate(841.203281 952.966012) scale(0.3 -0.3)">
      <defs>
       <path id="DejaVuSans-50" d="M 1259 4147 
L 1259 2394 
L 2053 2394 
Q 2494 2394 2734 2622 
Q 2975 2850 2975 3272 
Q 2975 3691 2734 3919 
Q 2494 4147 2053 4147 
L 1259 4147 
z
M 628 4666 
L 2053 4666 
Q 2838 4666 3239 4311 
Q 3641 3956 3641 3272 
Q 3641 2581 3239 2228 
Q 2838 1875 2053 1875 
L 1259 1875 
L 1259 0 
L 628 0 
L 628 4666 
z
" transform="scale(0.015625)"/>
       <path id="DejaVuSans-28" d="M 1984 4856 
Q 1566 4138 1362 3434 
Q 1159 2731 1159 2009 
Q 1159 1288 1364 580 
Q 1569 -128 1984 -844 
L 1484 -844 
Q 1016 -109 783 600 
Q 550 1309 550 2009 
Q 550 2706 781 3412 
Q 1013 4119 1484 4856 
L 1984 4856 
z
" transform="scale(0.015625)"/>
       <path id="DejaVuSans-4c" d="M 628 4666 
L 1259 4666 
L 1259 531 
L 3531 531 
L 3531 0 
L 628 0 
L 628 4666 
z
" transform="scale(0.015625)"/>
       <path id="DejaVuSans-65" d="M 3597 1894 
L 3597 1613 
L 953 1613 
Q 991 1019 1311 708 
Q 1631 397 2203 397 
Q 2534 397 2845 478 
Q 3156 559 3463 722 
L 3463 178 
Q 3153 47 2828 -22 
Q 2503 -91 2169 -91 
Q 1331 -91 842 396 
Q 353 884 353 1716 
Q 353 2575 817 3079 
Q 1281 3584 2069 3584 
Q 2775 3584 3186 3129 
Q 3597 2675 3597 1894 
z
M 3022 2063 
Q 3016 2534 2758 2815 
Q 2500 3097 2075 3097 
Q 1594 3097 1305 2825 
Q 1016 2553 972 2059 
L 3022 2063 
z
" transform="scale(0.015625)"/>
       <path id="DejaVuSans-66" d="M 2375 4863 
L 2375 4384 
L 1825 4384 
Q 1516 4384 1395 4259 
Q 1275 4134 1275 3809 
L 1275 3500 
L 2222 3500 
L 2222 3053 
L 1275 3053 
L 1275 0 
L 697 0 
L 697 3053 
L 147 3053 
L 147 3500 
L 697 3500 
L 697 3744 
Q 697 4328 969 4595 
Q 1241 4863 1831 4863 
L 2375 4863 
z
" transform="scale(0.015625)"/>
       <path id="DejaVuSans-74" d="M 1172 4494 
L 1172 3500 
L 2356 3500 
L 2356 3053 
L 1172 3053 
L 1172 1153 
Q 1172 725 1289 603 
Q 1406 481 1766 481 
L 2356 481 
L 2356 0 
L 1766 0 
Q 1100 0 847 248 
Q 594 497 594 1153 
L 594 3053 
L 172 3053 
L 172 3500 
L 594 3500 
L 594 4494 
L 1172 4494 
z
" transform="scale(0.015625)"/>
       <path id="DejaVuSans-7c" d="M 1344 4891 
L 1344 -1509 
L 813 -1509 
L 813 4891 
L 1344 4891 
z
" transform="scale(0.015625)"/>
       <path id="DejaVuSans-44" d="M 1259 4147 
L 1259 519 
L 2022 519 
Q 2988 519 3436 956 
Q 3884 1394 3884 2338 
Q 3884 3275 3436 3711 
Q 2988 4147 2022 4147 
L 1259 4147 
z
M 628 4666 
L 1925 4666 
Q 3281 4666 3915 4102 
Q 4550 3538 4550 2338 
Q 4550 1131 3912 565 
Q 3275 0 1925 0 
L 628 0 
L 628 4666 
z
" transform="scale(0.015625)"/>
       <path id="DejaVuSans-4f" d="M 2522 4238 
Q 1834 4238 1429 3725 
Q 1025 3213 1025 2328 
Q 1025 1447 1429 934 
Q 1834 422 2522 422 
Q 3209 422 3611 934 
Q 4013 1447 4013 2328 
Q 4013 3213 3611 3725 
Q 3209 4238 2522 4238 
z
M 2522 4750 
Q 3503 4750 4090 4092 
Q 4678 3434 4678 2328 
Q 4678 1225 4090 567 
Q 3503 -91 2522 -91 
Q 1538 -91 948 565 
Q 359 1222 359 2328 
Q 359 3434 948 4092 
Q 1538 4750 2522 4750 
z
" transform="scale(0.015625)"/>
       <path id="DejaVuSans-57" d="M 213 4666 
L 850 4666 
L 1831 722 
L 2809 4666 
L 3519 4666 
L 4500 722 
L 5478 4666 
L 6119 4666 
L 4947 0 
L 4153 0 
L 3169 4050 
L 2175 0 
L 1381 0 
L 213 4666 
z
" transform="scale(0.015625)"/>
       <path id="DejaVuSans-4e" d="M 628 4666 
L 1478 4666 
L 3547 763 
L 3547 4666 
L 4159 4666 
L 4159 0 
L 3309 0 
L 1241 3903 
L 1241 0 
L 628 0 
L 628 4666 
z
" transform="scale(0.015625)"/>
       <path id="DejaVuSans-29" d="M 513 4856 
L 1013 4856 
Q 1481 4119 1714 3412 
Q 1947 2706 1947 2009 
Q 1947 1309 1714 600 
Q 1481 -109 1013 -844 
L 513 -844 
Q 928 -128 1133 580 
Q 1338 1288 1338 2009 
Q 1338 2731 1133 3434 
Q 928 4138 513 4856 
z
" transform="scale(0.015625)"/>
      </defs>
      <use xlink:href="#DejaVuSans-50"/>
      <use xlink:href="#DejaVuSans-28" x="60.302734"/>
      <use xlink:href="#DejaVuSans-4c" x="99.316406"/>
      <use xlink:href="#DejaVuSans-65" x="153.279297"/>
      <use xlink:href="#DejaVuSans-66" x="214.802734"/>
      <use xlink:href="#DejaVuSans-74" x="248.257812"/>
      <use xlink:href="#DejaVuSans-7c" x="287.466797"/>
      <use xlink:href="#DejaVuSans-44" x="321.158203"/>
      <use xlink:href="#DejaVuSans-4f" x="398.160156"/>
      <use xlink:href="#DejaVuSans-57" x="476.871094"/>
      <use xlink:href="#DejaVuSans-4e" x="575.748047"/>
      <use xlink:href="#DejaVuSans-29" x="650.552734"/>
     </g>
    </g>
   </g>
   <g id="matplotlib.axis_2">
    <g id="ytick_1">
     <g id="line2d_6">
      <defs>
       <path id="m2b5c2ca73b" d="M 0 0 
L -3.5 0 
" style="stroke: #000000; stroke-width: 0.8"/>
      </defs>
      <g>
       <use xlink:href="#m2b5c2ca73b" x="230.4" y="870.171745" style="stroke: #000000; stroke-width: 0.8"/>
      </g>
     </g>
     <g id="text_7">
      <!-- −2.5 -->
      <g transform="translate(174.834375 877.770183) scale(0.2 -0.2)">
       <defs>
        <path id="DejaVuSans-2212" d="M 678 2272 
L 4684 2272 
L 4684 1741 
L 678 1741 
L 678 2272 
z
" transform="scale(0.015625)"/>
       </defs>
       <use xlink:href="#DejaVuSans-2212"/>
       <use xlink:href="#DejaVuSans-32" x="83.789062"/>
       <use xlink:href="#DejaVuSans-2e" x="147.412109"/>
       <use xlink:href="#DejaVuSans-35" x="179.199219"/>
      </g>
     </g>
    </g>
    <g id="ytick_2">
     <g id="line2d_7">
      <g>
       <use xlink:href="#m2b5c2ca73b" x="230.4" y="782.460236" style="stroke: #000000; stroke-width: 0.8"/>
      </g>
     </g>
     <g id="text_8">
      <!-- −2.0 -->
      <g transform="translate(174.834375 790.058673) scale(0.2 -0.2)">
       <use xlink:href="#DejaVuSans-2212"/>
       <use xlink:href="#DejaVuSans-32" x="83.789062"/>
       <use xlink:href="#DejaVuSans-2e" x="147.412109"/>
       <use xlink:href="#DejaVuSans-30" x="179.199219"/>
      </g>
     </g>
    </g>
    <g id="ytick_3">
     <g id="line2d_8">
      <g>
       <use xlink:href="#m2b5c2ca73b" x="230.4" y="694.748726" style="stroke: #000000; stroke-width: 0.8"/>
      </g>
     </g>
     <g id="text_9">
      <!-- −1.5 -->
      <g transform="translate(174.834375 702.347164) scale(0.2 -0.2)">
       <use xlink:href="#DejaVuSans-2212"/>
       <use xlink:href="#DejaVuSans-31" x="83.789062"/>
       <use xlink:href="#DejaVuSans-2e" x="147.412109"/>
       <use xlink:href="#DejaVuSans-35" x="179.199219"/>
      </g>
     </g>
    </g>
    <g id="ytick_4">
     <g id="line2d_9">
      <g>
       <use xlink:href="#m2b5c2ca73b" x="230.4" y="607.037216" style="stroke: #000000; stroke-width: 0.8"/>
      </g>
     </g>
     <g id="text_10">
      <!-- −1.0 -->
      <g transform="translate(174.834375 614.635654) scale(0.2 -0.2)">
       <use xlink:href="#DejaVuSans-2212"/>
       <use xlink:href="#DejaVuSans-31" x="83.789062"/>
       <use xlink:href="#DejaVuSans-2e" x="147.412109"/>
       <use xlink:href="#DejaVuSans-30" x="179.199219"/>
      </g>
     </g>
    </g>
    <g id="ytick_5">
     <g id="line2d_10">
      <g>
       <use xlink:href="#m2b5c2ca73b" x="230.4" y="519.325707" style="stroke: #000000; stroke-width: 0.8"/>
      </g>
     </g>
     <g id="text_11">
      <!-- −0.5 -->
      <g transform="translate(174.834375 526.924144) scale(0.2 -0.2)">
       <use xlink:href="#DejaVuSans-2212"/>
       <use xlink:href="#DejaVuSans-30" x="83.789062"/>
       <use xlink:href="#DejaVuSans-2e" x="147.412109"/>
       <use xlink:href="#DejaVuSans-35" x="179.199219"/>
      </g>
     </g>
    </g>
    <g id="ytick_6">
     <g id="line2d_11">
      <g>
       <use xlink:href="#m2b5c2ca73b" x="230.4" y="431.614197" style="stroke: #000000; stroke-width: 0.8"/>
      </g>
     </g>
     <g id="text_12">
      <!-- 0.0 -->
      <g transform="translate(191.59375 439.212635) scale(0.2 -0.2)">
       <use xlink:href="#DejaVuSans-30"/>
       <use xlink:href="#DejaVuSans-2e" x="63.623047"/>
       <use xlink:href="#DejaVuSans-30" x="95.410156"/>
      </g>
     </g>
    </g>
    <g id="ytick_7">
     <g id="line2d_12">
      <g>
       <use xlink:href="#m2b5c2ca73b" x="230.4" y="343.902688" style="stroke: #000000; stroke-width: 0.8"/>
      </g>
     </g>
     <g id="text_13">
      <!-- 0.5 -->
      <g transform="translate(191.59375 351.501125) scale(0.2 -0.2)">
       <use xlink:href="#DejaVuSans-30"/>
       <use xlink:href="#DejaVuSans-2e" x="63.623047"/>
       <use xlink:href="#DejaVuSans-35" x="95.410156"/>
      </g>
     </g>
    </g>
    <g id="ytick_8">
     <g id="line2d_13">
      <g>
       <use xlink:href="#m2b5c2ca73b" x="230.4" y="256.191178" style="stroke: #000000; stroke-width: 0.8"/>
      </g>
     </g>
     <g id="text_14">
      <!-- 1.0 -->
      <g transform="translate(191.59375 263.789616) scale(0.2 -0.2)">
       <use xlink:href="#DejaVuSans-31"/>
       <use xlink:href="#DejaVuSans-2e" x="63.623047"/>
       <use xlink:href="#DejaVuSans-30" x="95.410156"/>
      </g>
     </g>
    </g>
    <g id="ytick_9">
     <g id="line2d_14">
      <g>
       <use xlink:href="#m2b5c2ca73b" x="230.4" y="168.479669" style="stroke: #000000; stroke-width: 0.8"/>
      </g>
     </g>
     <g id="text_15">
      <!-- 1.5 -->
      <g transform="translate(191.59375 176.078106) scale(0.2 -0.2)">
       <use xlink:href="#DejaVuSans-31"/>
       <use xlink:href="#DejaVuSans-2e" x="63.623047"/>
       <use xlink:href="#DejaVuSans-35" x="95.410156"/>
      </g>
     </g>
    </g>
    <g id="text_16">
     <!-- ASEM (deg/s) -->
     <g transform="translate(164.595312 610.312369) rotate(-90) scale(0.3 -0.3)">
      <defs>
       <path id="DejaVuSans-41" d="M 2188 4044 
L 1331 1722 
L 3047 1722 
L 2188 4044 
z
M 1831 4666 
L 2547 4666 
L 4325 0 
L 3669 0 
L 3244 1197 
L 1141 1197 
L 716 0 
L 50 0 
L 1831 4666 
z
" transform="scale(0.015625)"/>
       <path id="DejaVuSans-53" d="M 3425 4513 
L 3425 3897 
Q 3066 4069 2747 4153 
Q 2428 4238 2131 4238 
Q 1616 4238 1336 4038 
Q 1056 3838 1056 3469 
Q 1056 3159 1242 3001 
Q 1428 2844 1947 2747 
L 2328 2669 
Q 3034 2534 3370 2195 
Q 3706 1856 3706 1288 
Q 3706 609 3251 259 
Q 2797 -91 1919 -91 
Q 1588 -91 1214 -16 
Q 841 59 441 206 
L 441 856 
Q 825 641 1194 531 
Q 1563 422 1919 422 
Q 2459 422 2753 634 
Q 3047 847 3047 1241 
Q 3047 1584 2836 1778 
Q 2625 1972 2144 2069 
L 1759 2144 
Q 1053 2284 737 2584 
Q 422 2884 422 3419 
Q 422 4038 858 4394 
Q 1294 4750 2059 4750 
Q 2388 4750 2728 4690 
Q 3069 4631 3425 4513 
z
" transform="scale(0.015625)"/>
       <path id="DejaVuSans-45" d="M 628 4666 
L 3578 4666 
L 3578 4134 
L 1259 4134 
L 1259 2753 
L 3481 2753 
L 3481 2222 
L 1259 2222 
L 1259 531 
L 3634 531 
L 3634 0 
L 628 0 
L 628 4666 
z
" transform="scale(0.015625)"/>
       <path id="DejaVuSans-4d" d="M 628 4666 
L 1569 4666 
L 2759 1491 
L 3956 4666 
L 4897 4666 
L 4897 0 
L 4281 0 
L 4281 4097 
L 3078 897 
L 2444 897 
L 1241 4097 
L 1241 0 
L 628 0 
L 628 4666 
z
" transform="scale(0.015625)"/>
       <path id="DejaVuSans-20" transform="scale(0.015625)"/>
       <path id="DejaVuSans-64" d="M 2906 2969 
L 2906 4863 
L 3481 4863 
L 3481 0 
L 2906 0 
L 2906 525 
Q 2725 213 2448 61 
Q 2172 -91 1784 -91 
Q 1150 -91 751 415 
Q 353 922 353 1747 
Q 353 2572 751 3078 
Q 1150 3584 1784 3584 
Q 2172 3584 2448 3432 
Q 2725 3281 2906 2969 
z
M 947 1747 
Q 947 1113 1208 752 
Q 1469 391 1925 391 
Q 2381 391 2643 752 
Q 2906 1113 2906 1747 
Q 2906 2381 2643 2742 
Q 2381 3103 1925 3103 
Q 1469 3103 1208 2742 
Q 947 2381 947 1747 
z
" transform="scale(0.015625)"/>
       <path id="DejaVuSans-67" d="M 2906 1791 
Q 2906 2416 2648 2759 
Q 2391 3103 1925 3103 
Q 1463 3103 1205 2759 
Q 947 2416 947 1791 
Q 947 1169 1205 825 
Q 1463 481 1925 481 
Q 2391 481 2648 825 
Q 2906 1169 2906 1791 
z
M 3481 434 
Q 3481 -459 3084 -895 
Q 2688 -1331 1869 -1331 
Q 1566 -1331 1297 -1286 
Q 1028 -1241 775 -1147 
L 775 -588 
Q 1028 -725 1275 -790 
Q 1522 -856 1778 -856 
Q 2344 -856 2625 -561 
Q 2906 -266 2906 331 
L 2906 616 
Q 2728 306 2450 153 
Q 2172 0 1784 0 
Q 1141 0 747 490 
Q 353 981 353 1791 
Q 353 2603 747 3093 
Q 1141 3584 1784 3584 
Q 2172 3584 2450 3431 
Q 2728 3278 2906 2969 
L 2906 3500 
L 3481 3500 
L 3481 434 
z
" transform="scale(0.015625)"/>
       <path id="DejaVuSans-2f" d="M 1625 4666 
L 2156 4666 
L 531 -594 
L 0 -594 
L 1625 4666 
z
" transform="scale(0.015625)"/>
       <path id="DejaVuSans-73" d="M 2834 3397 
L 2834 2853 
Q 2591 2978 2328 3040 
Q 2066 3103 1784 3103 
Q 1356 3103 1142 2972 
Q 928 2841 928 2578 
Q 928 2378 1081 2264 
Q 1234 2150 1697 2047 
L 1894 2003 
Q 2506 1872 2764 1633 
Q 3022 1394 3022 966 
Q 3022 478 2636 193 
Q 2250 -91 1575 -91 
Q 1294 -91 989 -36 
Q 684 19 347 128 
L 347 722 
Q 666 556 975 473 
Q 1284 391 1588 391 
Q 1994 391 2212 530 
Q 2431 669 2431 922 
Q 2431 1156 2273 1281 
Q 2116 1406 1581 1522 
L 1381 1569 
Q 847 1681 609 1914 
Q 372 2147 372 2553 
Q 372 3047 722 3315 
Q 1072 3584 1716 3584 
Q 2034 3584 2315 3537 
Q 2597 3491 2834 3397 
z
" transform="scale(0.015625)"/>
      </defs>
      <use xlink:href="#DejaVuSans-41"/>
      <use xlink:href="#DejaVuSans-53" x="68.408203"/>
      <use xlink:href="#DejaVuSans-45" x="131.884766"/>
      <use xlink:href="#DejaVuSans-4d" x="195.068359"/>
      <use xlink:href="#DejaVuSans-20" x="281.347656"/>
      <use xlink:href="#DejaVuSans-28" x="313.134766"/>
      <use xlink:href="#DejaVuSans-64" x="352.148438"/>
      <use xlink:href="#DejaVuSans-65" x="415.625"/>
      <use xlink:href="#DejaVuSans-67" x="477.148438"/>
      <use xlink:href="#DejaVuSans-2f" x="540.625"/>
      <use xlink:href="#DejaVuSans-73" x="574.316406"/>
      <use xlink:href="#DejaVuSans-29" x="626.416016"/>
     </g>
    </g>
   </g>
   <g id="line2d_15">
    <path d="M 658.944 443.613024 
L 944.64 508.123929 
L 1230.336 573.233776 
L 1516.032 495.372521 
" clip-path="url(#pf756b76143)" style="fill: none; stroke: #1f77b4; stroke-opacity: 0.7; stroke-width: 2.7; stroke-linecap: square"/>
    <defs>
     <path id="ma5d7f15b32" d="M 0 3.383948 
C 0.897434 3.383948 1.758231 3.027394 2.392813 2.392813 
C 3.027394 1.758231 3.383948 0.897434 3.383948 0 
C 3.383948 -0.897434 3.027394 -1.758231 2.392813 -2.392813 
C 1.758231 -3.027394 0.897434 -3.383948 0 -3.383948 
C -0.897434 -3.383948 -1.758231 -3.027394 -2.392813 -2.392813 
C -3.027394 -1.758231 -3.383948 -0.897434 -3.383948 0 
C -3.383948 0.897434 -3.027394 1.758231 -2.392813 2.392813 
C -1.758231 3.027394 -0.897434 3.383948 0 3.383948 
z
" style="stroke: #1f77b4; stroke-opacity: 0.7; stroke-width: 2.025"/>
    </defs>
    <g clip-path="url(#pf756b76143)">
     <use xlink:href="#ma5d7f15b32" x="658.944" y="443.613024" style="fill: #1f77b4; fill-opacity: 0.7; stroke: #1f77b4; stroke-opacity: 0.7; stroke-width: 2.025"/>
     <use xlink:href="#ma5d7f15b32" x="944.64" y="508.123929" style="fill: #1f77b4; fill-opacity: 0.7; stroke: #1f77b4; stroke-opacity: 0.7; stroke-width: 2.025"/>
     <use xlink:href="#ma5d7f15b32" x="1230.336" y="573.233776" style="fill: #1f77b4; fill-opacity: 0.7; stroke: #1f77b4; stroke-opacity: 0.7; stroke-width: 2.025"/>
     <use xlink:href="#ma5d7f15b32" x="1516.032" y="495.372521" style="fill: #1f77b4; fill-opacity: 0.7; stroke: #1f77b4; stroke-opacity: 0.7; stroke-width: 2.025"/>
    </g>
   </g>
   <g id="line2d_16">
    <path clip-path="url(#pf756b76143)" style="fill: none; stroke: #1f77b4; stroke-opacity: 0.7; stroke-width: 2.7; stroke-linecap: square"/>
   </g>
   <g id="line2d_17">
    <path d="M 644.6592 498.442512 
L 673.2288 498.442512 
M 658.944 498.442512 
L 658.944 391.505109 
M 644.6592 391.505109 
L 673.2288 391.505109 
" clip-path="url(#pf756b76143)" style="fill: none; stroke: #1f77b4; stroke-opacity: 0.7; stroke-width: 2.7; stroke-linecap: square"/>
   </g>
   <g id="line2d_18">
    <path d="M 930.3552 566.741076 
L 958.9248 566.741076 
M 944.64 566.741076 
L 944.64 445.80343 
M 930.3552 445.80343 
L 958.9248 445.80343 
" clip-path="url(#pf756b76143)" style="fill: none; stroke: #1f77b4; stroke-opacity: 0.7; stroke-width: 2.7; stroke-linecap: square"/>
   </g>
   <g id="line2d_19">
    <path d="M 1216.0512 622.115325 
L 1244.6208 622.115325 
M 1230.336 622.115325 
L 1230.336 526.08695 
M 1216.0512 526.08695 
L 1244.6208 526.08695 
" clip-path="url(#pf756b76143)" style="fill: none; stroke: #1f77b4; stroke-opacity: 0.7; stroke-width: 2.7; stroke-linecap: square"/>
   </g>
   <g id="line2d_20">
    <path d="M 1501.7472 564.13902 
L 1530.3168 564.13902 
M 1516.032 564.13902 
L 1516.032 428.834677 
M 1501.7472 428.834677 
L 1530.3168 428.834677 
" clip-path="url(#pf756b76143)" style="fill: none; stroke: #1f77b4; stroke-opacity: 0.7; stroke-width: 2.7; stroke-linecap: square"/>
   </g>
   <g id="line2d_21">
    <path d="M 373.248 262.248137 
L 658.944 435.617719 
L 944.64 493.12572 
L 1230.336 516.82812 
" clip-path="url(#pf756b76143)" style="fill: none; stroke: #aec7e8; stroke-opacity: 0.7; stroke-width: 2.7; stroke-linecap: square"/>
    <defs>
     <path id="m6f239b7a74" d="M 0 3.383948 
C 0.897434 3.383948 1.758231 3.027394 2.392813 2.392813 
C 3.027394 1.758231 3.383948 0.897434 3.383948 0 
C 3.383948 -0.897434 3.027394 -1.758231 2.392813 -2.392813 
C 1.758231 -3.027394 0.897434 -3.383948 0 -3.383948 
C -0.897434 -3.383948 -1.758231 -3.027394 -2.392813 -2.392813 
C -3.027394 -1.758231 -3.383948 -0.897434 -3.383948 0 
C -3.383948 0.897434 -3.027394 1.758231 -2.392813 2.392813 
C -1.758231 3.027394 -0.897434 3.383948 0 3.383948 
z
" style="stroke: #aec7e8; stroke-opacity: 0.7; stroke-width: 2.025"/>
    </defs>
    <g clip-path="url(#pf756b76143)">
     <use xlink:href="#m6f239b7a74" x="373.248" y="262.248137" style="fill: #aec7e8; fill-opacity: 0.7; stroke: #aec7e8; stroke-opacity: 0.7; stroke-width: 2.025"/>
     <use xlink:href="#m6f239b7a74" x="658.944" y="435.617719" style="fill: #aec7e8; fill-opacity: 0.7; stroke: #aec7e8; stroke-opacity: 0.7; stroke-width: 2.025"/>
     <use xlink:href="#m6f239b7a74" x="944.64" y="493.12572" style="fill: #aec7e8; fill-opacity: 0.7; stroke: #aec7e8; stroke-opacity: 0.7; stroke-width: 2.025"/>
     <use xlink:href="#m6f239b7a74" x="1230.336" y="516.82812" style="fill: #aec7e8; fill-opacity: 0.7; stroke: #aec7e8; stroke-opacity: 0.7; stroke-width: 2.025"/>
    </g>
   </g>
   <g id="line2d_22">
    <path d="M 358.9632 324.70298 
L 387.5328 324.70298 
M 373.248 324.70298 
L 373.248 204.104311 
M 358.9632 204.104311 
L 387.5328 204.104311 
" clip-path="url(#pf756b76143)" style="fill: none; stroke: #aec7e8; stroke-opacity: 0.7; stroke-width: 2.7; stroke-linecap: square"/>
   </g>
   <g id="line2d_23">
    <path d="M 644.6592 481.967977 
L 673.2288 481.967977 
M 658.944 481.967977 
L 658.944 391.53696 
M 644.6592 391.53696 
L 673.2288 391.53696 
" clip-path="url(#pf756b76143)" style="fill: none; stroke: #aec7e8; stroke-opacity: 0.7; stroke-width: 2.7; stroke-linecap: square"/>
   </g>
   <g id="line2d_24">
    <path d="M 930.3552 544.42432 
L 958.9248 544.42432 
M 944.64 544.42432 
L 944.64 440.891128 
M 930.3552 440.891128 
L 958.9248 440.891128 
" clip-path="url(#pf756b76143)" style="fill: none; stroke: #aec7e8; stroke-opacity: 0.7; stroke-width: 2.7; stroke-linecap: square"/>
   </g>
   <g id="line2d_25">
    <path d="M 1216.0512 569.916298 
L 1244.6208 569.916298 
M 1230.336 569.916298 
L 1230.336 465.913047 
M 1216.0512 465.913047 
L 1244.6208 465.913047 
" clip-path="url(#pf756b76143)" style="fill: none; stroke: #aec7e8; stroke-opacity: 0.7; stroke-width: 2.7; stroke-linecap: square"/>
   </g>
   <g id="line2d_26">
    <path clip-path="url(#pf756b76143)" style="fill: none; stroke: #aec7e8; stroke-opacity: 0.7; stroke-width: 2.7; stroke-linecap: square"/>
   </g>
   <g id="line2d_27">
    <path d="M 373.248 391.001277 
L 658.944 460.584748 
L 944.64 453.674141 
L 1230.336 340.870848 
" clip-path="url(#pf756b76143)" style="fill: none; stroke: #ff7f0e; stroke-opacity: 0.7; stroke-width: 2.7; stroke-linecap: square"/>
    <defs>
     <path id="m221e6ae7ca" d="M 0 3.383948 
C 0.897434 3.383948 1.758231 3.027394 2.392813 2.392813 
C 3.027394 1.758231 3.383948 0.897434 3.383948 0 
C 3.383948 -0.897434 3.027394 -1.758231 2.392813 -2.392813 
C 1.758231 -3.027394 0.897434 -3.383948 0 -3.383948 
C -0.897434 -3.383948 -1.758231 -3.027394 -2.392813 -2.392813 
C -3.027394 -1.758231 -3.383948 -0.897434 -3.383948 0 
C -3.383948 0.897434 -3.027394 1.758231 -2.392813 2.392813 
C -1.758231 3.027394 -0.897434 3.383948 0 3.383948 
z
" style="stroke: #ff7f0e; stroke-opacity: 0.7; stroke-width: 2.025"/>
    </defs>
    <g clip-path="url(#pf756b76143)">
     <use xlink:href="#m221e6ae7ca" x="373.248" y="391.001277" style="fill: #ff7f0e; fill-opacity: 0.7; stroke: #ff7f0e; stroke-opacity: 0.7; stroke-width: 2.025"/>
     <use xlink:href="#m221e6ae7ca" x="658.944" y="460.584748" style="fill: #ff7f0e; fill-opacity: 0.7; stroke: #ff7f0e; stroke-opacity: 0.7; stroke-width: 2.025"/>
     <use xlink:href="#m221e6ae7ca" x="944.64" y="453.674141" style="fill: #ff7f0e; fill-opacity: 0.7; stroke: #ff7f0e; stroke-opacity: 0.7; stroke-width: 2.025"/>
     <use xlink:href="#m221e6ae7ca" x="1230.336" y="340.870848" style="fill: #ff7f0e; fill-opacity: 0.7; stroke: #ff7f0e; stroke-opacity: 0.7; stroke-width: 2.025"/>
    </g>
   </g>
   <g id="line2d_28">
    <path d="M 358.9632 441.686927 
L 387.5328 441.686927 
M 373.248 441.686927 
L 373.248 336.644708 
M 358.9632 336.644708 
L 387.5328 336.644708 
" clip-path="url(#pf756b76143)" style="fill: none; stroke: #ff7f0e; stroke-opacity: 0.7; stroke-width: 2.7; stroke-linecap: square"/>
   </g>
   <g id="line2d_29">
    <path d="M 644.6592 516.607841 
L 673.2288 516.607841 
M 658.944 516.607841 
L 658.944 402.981402 
M 644.6592 402.981402 
L 673.2288 402.981402 
" clip-path="url(#pf756b76143)" style="fill: none; stroke: #ff7f0e; stroke-opacity: 0.7; stroke-width: 2.7; stroke-linecap: square"/>
   </g>
   <g id="line2d_30">
    <path d="M 930.3552 517.501868 
L 958.9248 517.501868 
M 944.64 517.501868 
L 944.64 390.21881 
M 930.3552 390.21881 
L 958.9248 390.21881 
" clip-path="url(#pf756b76143)" style="fill: none; stroke: #ff7f0e; stroke-opacity: 0.7; stroke-width: 2.7; stroke-linecap: square"/>
   </g>
   <g id="line2d_31">
    <path d="M 1216.0512 404.824825 
L 1244.6208 404.824825 
M 1230.336 404.824825 
L 1230.336 274.67278 
M 1216.0512 274.67278 
L 1244.6208 274.67278 
" clip-path="url(#pf756b76143)" style="fill: none; stroke: #ff7f0e; stroke-opacity: 0.7; stroke-width: 2.7; stroke-linecap: square"/>
   </g>
   <g id="line2d_32">
    <path clip-path="url(#pf756b76143)" style="fill: none; stroke: #ff7f0e; stroke-opacity: 0.7; stroke-width: 2.7; stroke-linecap: square"/>
   </g>
   <g id="line2d_33">
    <path d="M 658.944 300.029679 
L 944.64 470.255722 
L 1230.336 473.20843 
L 1516.032 706.584842 
" clip-path="url(#pf756b76143)" style="fill: none; stroke: #ffbb78; stroke-opacity: 0.7; stroke-width: 2.7; stroke-linecap: square"/>
    <defs>
     <path id="m417dacca55" d="M 0 3.383948 
C 0.897434 3.383948 1.758231 3.027394 2.392813 2.392813 
C 3.027394 1.758231 3.383948 0.897434 3.383948 0 
C 3.383948 -0.897434 3.027394 -1.758231 2.392813 -2.392813 
C 1.758231 -3.027394 0.897434 -3.383948 0 -3.383948 
C -0.897434 -3.383948 -1.758231 -3.027394 -2.392813 -2.392813 
C -3.027394 -1.758231 -3.383948 -0.897434 -3.383948 0 
C -3.383948 0.897434 -3.027394 1.758231 -2.392813 2.392813 
C -1.758231 3.027394 -0.897434 3.383948 0 3.383948 
z
" style="stroke: #ffbb78; stroke-opacity: 0.7; stroke-width: 2.025"/>
    </defs>
    <g clip-path="url(#pf756b76143)">
     <use xlink:href="#m417dacca55" x="658.944" y="300.029679" style="fill: #ffbb78; fill-opacity: 0.7; stroke: #ffbb78; stroke-opacity: 0.7; stroke-width: 2.025"/>
     <use xlink:href="#m417dacca55" x="944.64" y="470.255722" style="fill: #ffbb78; fill-opacity: 0.7; stroke: #ffbb78; stroke-opacity: 0.7; stroke-width: 2.025"/>
     <use xlink:href="#m417dacca55" x="1230.336" y="473.20843" style="fill: #ffbb78; fill-opacity: 0.7; stroke: #ffbb78; stroke-opacity: 0.7; stroke-width: 2.025"/>
     <use xlink:href="#m417dacca55" x="1516.032" y="706.584842" style="fill: #ffbb78; fill-opacity: 0.7; stroke: #ffbb78; stroke-opacity: 0.7; stroke-width: 2.025"/>
    </g>
   </g>
   <g id="line2d_34">
    <path clip-path="url(#pf756b76143)" style="fill: none; stroke: #ffbb78; stroke-opacity: 0.7; stroke-width: 2.7; stroke-linecap: square"/>
   </g>
   <g id="line2d_35">
    <path d="M 644.6592 353.977274 
L 673.2288 353.977274 
M 658.944 353.977274 
L 658.944 237.676302 
M 644.6592 237.676302 
L 673.2288 237.676302 
" clip-path="url(#pf756b76143)" style="fill: none; stroke: #ffbb78; stroke-opacity: 0.7; stroke-width: 2.7; stroke-linecap: square"/>
   </g>
   <g id="line2d_36">
    <path d="M 930.3552 527.599786 
L 958.9248 527.599786 
M 944.64 527.599786 
L 944.64 412.829461 
M 930.3552 412.829461 
L 958.9248 412.829461 
" clip-path="url(#pf756b76143)" style="fill: none; stroke: #ffbb78; stroke-opacity: 0.7; stroke-width: 2.7; stroke-linecap: square"/>
   </g>
   <g id="line2d_37">
    <path d="M 1216.0512 535.855991 
L 1244.6208 535.855991 
M 1230.336 535.855991 
L 1230.336 410.8965 
M 1216.0512 410.8965 
L 1244.6208 410.8965 
" clip-path="url(#pf756b76143)" style="fill: none; stroke: #ffbb78; stroke-opacity: 0.7; stroke-width: 2.7; stroke-linecap: square"/>
   </g>
   <g id="line2d_38">
    <path d="M 1501.7472 778.963756 
L 1530.3168 778.963756 
M 1516.032 778.963756 
L 1516.032 630.988641 
M 1501.7472 630.988641 
L 1530.3168 630.988641 
" clip-path="url(#pf756b76143)" style="fill: none; stroke: #ffbb78; stroke-opacity: 0.7; stroke-width: 2.7; stroke-linecap: square"/>
   </g>
   <g id="line2d_39">
    <path d="M 658.944 332.092881 
L 944.64 368.707934 
L 1230.336 391.451787 
L 1516.032 791.133084 
" clip-path="url(#pf756b76143)" style="fill: none; stroke: #2ca02c; stroke-opacity: 0.7; stroke-width: 2.7; stroke-linecap: square"/>
    <defs>
     <path id="m11ea60dbe3" d="M 0 3.383948 
C 0.897434 3.383948 1.758231 3.027394 2.392813 2.392813 
C 3.027394 1.758231 3.383948 0.897434 3.383948 0 
C 3.383948 -0.897434 3.027394 -1.758231 2.392813 -2.392813 
C 1.758231 -3.027394 0.897434 -3.383948 0 -3.383948 
C -0.897434 -3.383948 -1.758231 -3.027394 -2.392813 -2.392813 
C -3.027394 -1.758231 -3.383948 -0.897434 -3.383948 0 
C -3.383948 0.897434 -3.027394 1.758231 -2.392813 2.392813 
C -1.758231 3.027394 -0.897434 3.383948 0 3.383948 
z
" style="stroke: #2ca02c; stroke-opacity: 0.7; stroke-width: 2.025"/>
    </defs>
    <g clip-path="url(#pf756b76143)">
     <use xlink:href="#m11ea60dbe3" x="658.944" y="332.092881" style="fill: #2ca02c; fill-opacity: 0.7; stroke: #2ca02c; stroke-opacity: 0.7; stroke-width: 2.025"/>
     <use xlink:href="#m11ea60dbe3" x="944.64" y="368.707934" style="fill: #2ca02c; fill-opacity: 0.7; stroke: #2ca02c; stroke-opacity: 0.7; stroke-width: 2.025"/>
     <use xlink:href="#m11ea60dbe3" x="1230.336" y="391.451787" style="fill: #2ca02c; fill-opacity: 0.7; stroke: #2ca02c; stroke-opacity: 0.7; stroke-width: 2.025"/>
     <use xlink:href="#m11ea60dbe3" x="1516.032" y="791.133084" style="fill: #2ca02c; fill-opacity: 0.7; stroke: #2ca02c; stroke-opacity: 0.7; stroke-width: 2.025"/>
    </g>
   </g>
   <g id="line2d_40">
    <path clip-path="url(#pf756b76143)" style="fill: none; stroke: #2ca02c; stroke-opacity: 0.7; stroke-width: 2.7; stroke-linecap: square"/>
   </g>
   <g id="line2d_41">
    <path d="M 644.6592 380.484595 
L 673.2288 380.484595 
M 658.944 380.484595 
L 658.944 283.067984 
M 644.6592 283.067984 
L 673.2288 283.067984 
" clip-path="url(#pf756b76143)" style="fill: none; stroke: #2ca02c; stroke-opacity: 0.7; stroke-width: 2.7; stroke-linecap: square"/>
   </g>
   <g id="line2d_42">
    <path d="M 930.3552 436.408174 
L 958.9248 436.408174 
M 944.64 436.408174 
L 944.64 301.105775 
M 930.3552 301.105775 
L 958.9248 301.105775 
" clip-path="url(#pf756b76143)" style="fill: none; stroke: #2ca02c; stroke-opacity: 0.7; stroke-width: 2.7; stroke-linecap: square"/>
   </g>
   <g id="line2d_43">
    <path d="M 1216.0512 428.759705 
L 1244.6208 428.759705 
M 1230.336 428.759705 
L 1230.336 355.173655 
M 1216.0512 355.173655 
L 1244.6208 355.173655 
" clip-path="url(#pf756b76143)" style="fill: none; stroke: #2ca02c; stroke-opacity: 0.7; stroke-width: 2.7; stroke-linecap: square"/>
   </g>
   <g id="line2d_44">
    <path d="M 1501.7472 864.3024 
L 1530.3168 864.3024 
M 1516.032 864.3024 
L 1516.032 718.092933 
M 1501.7472 718.092933 
L 1530.3168 718.092933 
" clip-path="url(#pf756b76143)" style="fill: none; stroke: #2ca02c; stroke-opacity: 0.7; stroke-width: 2.7; stroke-linecap: square"/>
   </g>
   <g id="line2d_45">
    <path d="M 373.248 406.804809 
L 658.944 465.051055 
L 944.64 455.751008 
L 1230.336 499.914244 
" clip-path="url(#pf756b76143)" style="fill: none; stroke: #98df8a; stroke-opacity: 0.7; stroke-width: 2.7; stroke-linecap: square"/>
    <defs>
     <path id="m317f965b38" d="M 0 3.383948 
C 0.897434 3.383948 1.758231 3.027394 2.392813 2.392813 
C 3.027394 1.758231 3.383948 0.897434 3.383948 0 
C 3.383948 -0.897434 3.027394 -1.758231 2.392813 -2.392813 
C 1.758231 -3.027394 0.897434 -3.383948 0 -3.383948 
C -0.897434 -3.383948 -1.758231 -3.027394 -2.392813 -2.392813 
C -3.027394 -1.758231 -3.383948 -0.897434 -3.383948 0 
C -3.383948 0.897434 -3.027394 1.758231 -2.392813 2.392813 
C -1.758231 3.027394 -0.897434 3.383948 0 3.383948 
z
" style="stroke: #98df8a; stroke-opacity: 0.7; stroke-width: 2.025"/>
    </defs>
    <g clip-path="url(#pf756b76143)">
     <use xlink:href="#m317f965b38" x="373.248" y="406.804809" style="fill: #98df8a; fill-opacity: 0.7; stroke: #98df8a; stroke-opacity: 0.7; stroke-width: 2.025"/>
     <use xlink:href="#m317f965b38" x="658.944" y="465.051055" style="fill: #98df8a; fill-opacity: 0.7; stroke: #98df8a; stroke-opacity: 0.7; stroke-width: 2.025"/>
     <use xlink:href="#m317f965b38" x="944.64" y="455.751008" style="fill: #98df8a; fill-opacity: 0.7; stroke: #98df8a; stroke-opacity: 0.7; stroke-width: 2.025"/>
     <use xlink:href="#m317f965b38" x="1230.336" y="499.914244" style="fill: #98df8a; fill-opacity: 0.7; stroke: #98df8a; stroke-opacity: 0.7; stroke-width: 2.025"/>
    </g>
   </g>
   <g id="line2d_46">
    <path d="M 358.9632 458.723532 
L 387.5328 458.723532 
M 373.248 458.723532 
L 373.248 354.379157 
M 358.9632 354.379157 
L 387.5328 354.379157 
" clip-path="url(#pf756b76143)" style="fill: none; stroke: #98df8a; stroke-opacity: 0.7; stroke-width: 2.7; stroke-linecap: square"/>
   </g>
   <g id="line2d_47">
    <path d="M 644.6592 513.830273 
L 673.2288 513.830273 
M 658.944 513.830273 
L 658.944 414.526088 
M 644.6592 414.526088 
L 673.2288 414.526088 
" clip-path="url(#pf756b76143)" style="fill: none; stroke: #98df8a; stroke-opacity: 0.7; stroke-width: 2.7; stroke-linecap: square"/>
   </g>
   <g id="line2d_48">
    <path d="M 930.3552 500.066424 
L 958.9248 500.066424 
M 944.64 500.066424 
L 944.64 413.960724 
M 930.3552 413.960724 
L 958.9248 413.960724 
" clip-path="url(#pf756b76143)" style="fill: none; stroke: #98df8a; stroke-opacity: 0.7; stroke-width: 2.7; stroke-linecap: square"/>
   </g>
   <g id="line2d_49">
    <path d="M 1216.0512 542.132861 
L 1244.6208 542.132861 
M 1230.336 542.132861 
L 1230.336 456.732708 
M 1216.0512 456.732708 
L 1244.6208 456.732708 
" clip-path="url(#pf756b76143)" style="fill: none; stroke: #98df8a; stroke-opacity: 0.7; stroke-width: 2.7; stroke-linecap: square"/>
   </g>
   <g id="line2d_50">
    <path clip-path="url(#pf756b76143)" style="fill: none; stroke: #98df8a; stroke-opacity: 0.7; stroke-width: 2.7; stroke-linecap: square"/>
   </g>
   <g id="line2d_51">
    <path d="M 373.248 245.469848 
L 658.944 365.319984 
L 944.64 437.400347 
L 1230.336 523.655039 
" clip-path="url(#pf756b76143)" style="fill: none; stroke: #d62728; stroke-opacity: 0.7; stroke-width: 2.7; stroke-linecap: square"/>
    <defs>
     <path id="mf10a937261" d="M 0 3.383948 
C 0.897434 3.383948 1.758231 3.027394 2.392813 2.392813 
C 3.027394 1.758231 3.383948 0.897434 3.383948 0 
C 3.383948 -0.897434 3.027394 -1.758231 2.392813 -2.392813 
C 1.758231 -3.027394 0.897434 -3.383948 0 -3.383948 
C -0.897434 -3.383948 -1.758231 -3.027394 -2.392813 -2.392813 
C -3.027394 -1.758231 -3.383948 -0.897434 -3.383948 0 
C -3.383948 0.897434 -3.027394 1.758231 -2.392813 2.392813 
C -1.758231 3.027394 -0.897434 3.383948 0 3.383948 
z
" style="stroke: #d62728; stroke-opacity: 0.7; stroke-width: 2.025"/>
    </defs>
    <g clip-path="url(#pf756b76143)">
     <use xlink:href="#mf10a937261" x="373.248" y="245.469848" style="fill: #d62728; fill-opacity: 0.7; stroke: #d62728; stroke-opacity: 0.7; stroke-width: 2.025"/>
     <use xlink:href="#mf10a937261" x="658.944" y="365.319984" style="fill: #d62728; fill-opacity: 0.7; stroke: #d62728; stroke-opacity: 0.7; stroke-width: 2.025"/>
     <use xlink:href="#mf10a937261" x="944.64" y="437.400347" style="fill: #d62728; fill-opacity: 0.7; stroke: #d62728; stroke-opacity: 0.7; stroke-width: 2.025"/>
     <use xlink:href="#mf10a937261" x="1230.336" y="523.655039" style="fill: #d62728; fill-opacity: 0.7; stroke: #d62728; stroke-opacity: 0.7; stroke-width: 2.025"/>
    </g>
   </g>
   <g id="line2d_52">
    <path d="M 358.9632 313.02055 
L 387.5328 313.02055 
M 373.248 313.02055 
L 373.248 181.343301 
M 358.9632 181.343301 
L 387.5328 181.343301 
" clip-path="url(#pf756b76143)" style="fill: none; stroke: #d62728; stroke-opacity: 0.7; stroke-width: 2.7; stroke-linecap: square"/>
   </g>
   <g id="line2d_53">
    <path d="M 644.6592 445.854194 
L 673.2288 445.854194 
M 658.944 445.854194 
L 658.944 284.576998 
M 644.6592 284.576998 
L 673.2288 284.576998 
" clip-path="url(#pf756b76143)" style="fill: none; stroke: #d62728; stroke-opacity: 0.7; stroke-width: 2.7; stroke-linecap: square"/>
   </g>
   <g id="line2d_54">
    <path d="M 930.3552 511.471245 
L 958.9248 511.471245 
M 944.64 511.471245 
L 944.64 359.929883 
M 930.3552 359.929883 
L 958.9248 359.929883 
" clip-path="url(#pf756b76143)" style="fill: none; stroke: #d62728; stroke-opacity: 0.7; stroke-width: 2.7; stroke-linecap: square"/>
   </g>
   <g id="line2d_55">
    <path d="M 1216.0512 581.364132 
L 1244.6208 581.364132 
M 1230.336 581.364132 
L 1230.336 463.549664 
M 1216.0512 463.549664 
L 1244.6208 463.549664 
" clip-path="url(#pf756b76143)" style="fill: none; stroke: #d62728; stroke-opacity: 0.7; stroke-width: 2.7; stroke-linecap: square"/>
   </g>
   <g id="line2d_56">
    <path clip-path="url(#pf756b76143)" style="fill: none; stroke: #d62728; stroke-opacity: 0.7; stroke-width: 2.7; stroke-linecap: square"/>
   </g>
   <g id="line2d_57">
    <path d="M 373.248 233.042551 
L 658.944 389.956947 
L 944.64 408.944707 
L 1230.336 481.072441 
" clip-path="url(#pf756b76143)" style="fill: none; stroke: #ff9896; stroke-opacity: 0.7; stroke-width: 2.7; stroke-linecap: square"/>
    <defs>
     <path id="md700d676ca" d="M 0 3.383948 
C 0.897434 3.383948 1.758231 3.027394 2.392813 2.392813 
C 3.027394 1.758231 3.383948 0.897434 3.383948 0 
C 3.383948 -0.897434 3.027394 -1.758231 2.392813 -2.392813 
C 1.758231 -3.027394 0.897434 -3.383948 0 -3.383948 
C -0.897434 -3.383948 -1.758231 -3.027394 -2.392813 -2.392813 
C -3.027394 -1.758231 -3.383948 -0.897434 -3.383948 0 
C -3.383948 0.897434 -3.027394 1.758231 -2.392813 2.392813 
C -1.758231 3.027394 -0.897434 3.383948 0 3.383948 
z
" style="stroke: #ff9896; stroke-opacity: 0.7; stroke-width: 2.025"/>
    </defs>
    <g clip-path="url(#pf756b76143)">
     <use xlink:href="#md700d676ca" x="373.248" y="233.042551" style="fill: #ff9896; fill-opacity: 0.7; stroke: #ff9896; stroke-opacity: 0.7; stroke-width: 2.025"/>
     <use xlink:href="#md700d676ca" x="658.944" y="389.956947" style="fill: #ff9896; fill-opacity: 0.7; stroke: #ff9896; stroke-opacity: 0.7; stroke-width: 2.025"/>
     <use xlink:href="#md700d676ca" x="944.64" y="408.944707" style="fill: #ff9896; fill-opacity: 0.7; stroke: #ff9896; stroke-opacity: 0.7; stroke-width: 2.025"/>
     <use xlink:href="#md700d676ca" x="1230.336" y="481.072441" style="fill: #ff9896; fill-opacity: 0.7; stroke: #ff9896; stroke-opacity: 0.7; stroke-width: 2.025"/>
    </g>
   </g>
   <g id="line2d_58">
    <path d="M 358.9632 310.887362 
L 387.5328 310.887362 
M 373.248 310.887362 
L 373.248 156.6864 
M 358.9632 156.6864 
L 387.5328 156.6864 
" clip-path="url(#pf756b76143)" style="fill: none; stroke: #ff9896; stroke-opacity: 0.7; stroke-width: 2.7; stroke-linecap: square"/>
   </g>
   <g id="line2d_59">
    <path d="M 644.6592 456.594618 
L 673.2288 456.594618 
M 658.944 456.594618 
L 658.944 332.356084 
M 644.6592 332.356084 
L 673.2288 332.356084 
" clip-path="url(#pf756b76143)" style="fill: none; stroke: #ff9896; stroke-opacity: 0.7; stroke-width: 2.7; stroke-linecap: square"/>
   </g>
   <g id="line2d_60">
    <path d="M 930.3552 463.936511 
L 958.9248 463.936511 
M 944.64 463.936511 
L 944.64 356.568572 
M 930.3552 356.568572 
L 958.9248 356.568572 
" clip-path="url(#pf756b76143)" style="fill: none; stroke: #ff9896; stroke-opacity: 0.7; stroke-width: 2.7; stroke-linecap: square"/>
   </g>
   <g id="line2d_61">
    <path d="M 1216.0512 568.313892 
L 1244.6208 568.313892 
M 1230.336 568.313892 
L 1230.336 398.817718 
M 1216.0512 398.817718 
L 1244.6208 398.817718 
" clip-path="url(#pf756b76143)" style="fill: none; stroke: #ff9896; stroke-opacity: 0.7; stroke-width: 2.7; stroke-linecap: square"/>
   </g>
   <g id="line2d_62">
    <path clip-path="url(#pf756b76143)" style="fill: none; stroke: #ff9896; stroke-opacity: 0.7; stroke-width: 2.7; stroke-linecap: square"/>
   </g>
   <g id="line2d_63">
    <path d="M 658.944 412.181677 
L 944.64 410.318152 
L 1230.336 418.214474 
L 1516.032 589.605584 
" clip-path="url(#pf756b76143)" style="fill: none; stroke: #9467bd; stroke-opacity: 0.7; stroke-width: 2.7; stroke-linecap: square"/>
    <defs>
     <path id="m933e40d298" d="M 0 3.383948 
C 0.897434 3.383948 1.758231 3.027394 2.392813 2.392813 
C 3.027394 1.758231 3.383948 0.897434 3.383948 0 
C 3.383948 -0.897434 3.027394 -1.758231 2.392813 -2.392813 
C 1.758231 -3.027394 0.897434 -3.383948 0 -3.383948 
C -0.897434 -3.383948 -1.758231 -3.027394 -2.392813 -2.392813 
C -3.027394 -1.758231 -3.383948 -0.897434 -3.383948 0 
C -3.383948 0.897434 -3.027394 1.758231 -2.392813 2.392813 
C -1.758231 3.027394 -0.897434 3.383948 0 3.383948 
z
" style="stroke: #9467bd; stroke-opacity: 0.7; stroke-width: 2.025"/>
    </defs>
    <g clip-path="url(#pf756b76143)">
     <use xlink:href="#m933e40d298" x="658.944" y="412.181677" style="fill: #9467bd; fill-opacity: 0.7; stroke: #9467bd; stroke-opacity: 0.7; stroke-width: 2.025"/>
     <use xlink:href="#m933e40d298" x="944.64" y="410.318152" style="fill: #9467bd; fill-opacity: 0.7; stroke: #9467bd; stroke-opacity: 0.7; stroke-width: 2.025"/>
     <use xlink:href="#m933e40d298" x="1230.336" y="418.214474" style="fill: #9467bd; fill-opacity: 0.7; stroke: #9467bd; stroke-opacity: 0.7; stroke-width: 2.025"/>
     <use xlink:href="#m933e40d298" x="1516.032" y="589.605584" style="fill: #9467bd; fill-opacity: 0.7; stroke: #9467bd; stroke-opacity: 0.7; stroke-width: 2.025"/>
    </g>
   </g>
   <g id="line2d_64">
    <path clip-path="url(#pf756b76143)" style="fill: none; stroke: #9467bd; stroke-opacity: 0.7; stroke-width: 2.7; stroke-linecap: square"/>
   </g>
   <g id="line2d_65">
    <path d="M 644.6592 463.680787 
L 673.2288 463.680787 
M 658.944 463.680787 
L 658.944 361.361513 
M 644.6592 361.361513 
L 673.2288 361.361513 
" clip-path="url(#pf756b76143)" style="fill: none; stroke: #9467bd; stroke-opacity: 0.7; stroke-width: 2.7; stroke-linecap: square"/>
   </g>
   <g id="line2d_66">
    <path d="M 930.3552 454.719838 
L 958.9248 454.719838 
M 944.64 454.719838 
L 944.64 363.381048 
M 930.3552 363.381048 
L 958.9248 363.381048 
" clip-path="url(#pf756b76143)" style="fill: none; stroke: #9467bd; stroke-opacity: 0.7; stroke-width: 2.7; stroke-linecap: square"/>
   </g>
   <g id="line2d_67">
    <path d="M 1216.0512 474.669957 
L 1244.6208 474.669957 
M 1230.336 474.669957 
L 1230.336 363.501793 
M 1216.0512 363.501793 
L 1244.6208 363.501793 
" clip-path="url(#pf756b76143)" style="fill: none; stroke: #9467bd; stroke-opacity: 0.7; stroke-width: 2.7; stroke-linecap: square"/>
   </g>
   <g id="line2d_68">
    <path d="M 1501.7472 633.005224 
L 1530.3168 633.005224 
M 1516.032 633.005224 
L 1516.032 546.550828 
M 1501.7472 546.550828 
L 1530.3168 546.550828 
" clip-path="url(#pf756b76143)" style="fill: none; stroke: #9467bd; stroke-opacity: 0.7; stroke-width: 2.7; stroke-linecap: square"/>
   </g>
   <g id="line2d_69">
    <path d="M 658.944 343.924004 
L 944.64 418.055209 
L 1230.336 459.295632 
L 1516.032 522.431419 
" clip-path="url(#pf756b76143)" style="fill: none; stroke: #c5b0d5; stroke-opacity: 0.7; stroke-width: 2.7; stroke-linecap: square"/>
    <defs>
     <path id="m24299c04e5" d="M 0 3.383948 
C 0.897434 3.383948 1.758231 3.027394 2.392813 2.392813 
C 3.027394 1.758231 3.383948 0.897434 3.383948 0 
C 3.383948 -0.897434 3.027394 -1.758231 2.392813 -2.392813 
C 1.758231 -3.027394 0.897434 -3.383948 0 -3.383948 
C -0.897434 -3.383948 -1.758231 -3.027394 -2.392813 -2.392813 
C -3.027394 -1.758231 -3.383948 -0.897434 -3.383948 0 
C -3.383948 0.897434 -3.027394 1.758231 -2.392813 2.392813 
C -1.758231 3.027394 -0.897434 3.383948 0 3.383948 
z
" style="stroke: #c5b0d5; stroke-opacity: 0.7; stroke-width: 2.025"/>
    </defs>
    <g clip-path="url(#pf756b76143)">
     <use xlink:href="#m24299c04e5" x="658.944" y="343.924004" style="fill: #c5b0d5; fill-opacity: 0.7; stroke: #c5b0d5; stroke-opacity: 0.7; stroke-width: 2.025"/>
     <use xlink:href="#m24299c04e5" x="944.64" y="418.055209" style="fill: #c5b0d5; fill-opacity: 0.7; stroke: #c5b0d5; stroke-opacity: 0.7; stroke-width: 2.025"/>
     <use xlink:href="#m24299c04e5" x="1230.336" y="459.295632" style="fill: #c5b0d5; fill-opacity: 0.7; stroke: #c5b0d5; stroke-opacity: 0.7; stroke-width: 2.025"/>
     <use xlink:href="#m24299c04e5" x="1516.032" y="522.431419" style="fill: #c5b0d5; fill-opacity: 0.7; stroke: #c5b0d5; stroke-opacity: 0.7; stroke-width: 2.025"/>
    </g>
   </g>
   <g id="line2d_70">
    <path clip-path="url(#pf756b76143)" style="fill: none; stroke: #c5b0d5; stroke-opacity: 0.7; stroke-width: 2.7; stroke-linecap: square"/>
   </g>
   <g id="line2d_71">
    <path d="M 644.6592 393.35537 
L 673.2288 393.35537 
M 658.944 393.35537 
L 658.944 296.019362 
M 644.6592 296.019362 
L 673.2288 296.019362 
" clip-path="url(#pf756b76143)" style="fill: none; stroke: #c5b0d5; stroke-opacity: 0.7; stroke-width: 2.7; stroke-linecap: square"/>
   </g>
   <g id="line2d_72">
    <path d="M 930.3552 466.237867 
L 958.9248 466.237867 
M 944.64 466.237867 
L 944.64 369.026782 
M 930.3552 369.026782 
L 958.9248 369.026782 
" clip-path="url(#pf756b76143)" style="fill: none; stroke: #c5b0d5; stroke-opacity: 0.7; stroke-width: 2.7; stroke-linecap: square"/>
   </g>
   <g id="line2d_73">
    <path d="M 1216.0512 502.742924 
L 1244.6208 502.742924 
M 1230.336 502.742924 
L 1230.336 415.968666 
M 1216.0512 415.968666 
L 1244.6208 415.968666 
" clip-path="url(#pf756b76143)" style="fill: none; stroke: #c5b0d5; stroke-opacity: 0.7; stroke-width: 2.7; stroke-linecap: square"/>
   </g>
   <g id="line2d_74">
    <path d="M 1501.7472 576.170567 
L 1530.3168 576.170567 
M 1516.032 576.170567 
L 1516.032 470.283319 
M 1501.7472 470.283319 
L 1530.3168 470.283319 
" clip-path="url(#pf756b76143)" style="fill: none; stroke: #c5b0d5; stroke-opacity: 0.7; stroke-width: 2.7; stroke-linecap: square"/>
   </g>
   <g id="line2d_75">
    <path d="M 658.944 377.432234 
L 944.64 459.080543 
L 1230.336 438.891071 
L 1516.032 593.131164 
" clip-path="url(#pf756b76143)" style="fill: none; stroke: #8c564b; stroke-opacity: 0.7; stroke-width: 2.7; stroke-linecap: square"/>
    <defs>
     <path id="m7362d32069" d="M 0 3.383948 
C 0.897434 3.383948 1.758231 3.027394 2.392813 2.392813 
C 3.027394 1.758231 3.383948 0.897434 3.383948 0 
C 3.383948 -0.897434 3.027394 -1.758231 2.392813 -2.392813 
C 1.758231 -3.027394 0.897434 -3.383948 0 -3.383948 
C -0.897434 -3.383948 -1.758231 -3.027394 -2.392813 -2.392813 
C -3.027394 -1.758231 -3.383948 -0.897434 -3.383948 0 
C -3.383948 0.897434 -3.027394 1.758231 -2.392813 2.392813 
C -1.758231 3.027394 -0.897434 3.383948 0 3.383948 
z
" style="stroke: #8c564b; stroke-opacity: 0.7; stroke-width: 2.025"/>
    </defs>
    <g clip-path="url(#pf756b76143)">
     <use xlink:href="#m7362d32069" x="658.944" y="377.432234" style="fill: #8c564b; fill-opacity: 0.7; stroke: #8c564b; stroke-opacity: 0.7; stroke-width: 2.025"/>
     <use xlink:href="#m7362d32069" x="944.64" y="459.080543" style="fill: #8c564b; fill-opacity: 0.7; stroke: #8c564b; stroke-opacity: 0.7; stroke-width: 2.025"/>
     <use xlink:href="#m7362d32069" x="1230.336" y="438.891071" style="fill: #8c564b; fill-opacity: 0.7; stroke: #8c564b; stroke-opacity: 0.7; stroke-width: 2.025"/>
     <use xlink:href="#m7362d32069" x="1516.032" y="593.131164" style="fill: #8c564b; fill-opacity: 0.7; stroke: #8c564b; stroke-opacity: 0.7; stroke-width: 2.025"/>
    </g>
   </g>
   <g id="line2d_76">
    <path clip-path="url(#pf756b76143)" style="fill: none; stroke: #8c564b; stroke-opacity: 0.7; stroke-width: 2.7; stroke-linecap: square"/>
   </g>
   <g id="line2d_77">
    <path d="M 644.6592 435.398457 
L 673.2288 435.398457 
M 658.944 435.398457 
L 658.944 318.956366 
M 644.6592 318.956366 
L 673.2288 318.956366 
" clip-path="url(#pf756b76143)" style="fill: none; stroke: #8c564b; stroke-opacity: 0.7; stroke-width: 2.7; stroke-linecap: square"/>
   </g>
   <g id="line2d_78">
    <path d="M 930.3552 521.485909 
L 958.9248 521.485909 
M 944.64 521.485909 
L 944.64 397.542238 
M 930.3552 397.542238 
L 958.9248 397.542238 
" clip-path="url(#pf756b76143)" style="fill: none; stroke: #8c564b; stroke-opacity: 0.7; stroke-width: 2.7; stroke-linecap: square"/>
   </g>
   <g id="line2d_79">
    <path d="M 1216.0512 497.553316 
L 1244.6208 497.553316 
M 1230.336 497.553316 
L 1230.336 384.916298 
M 1216.0512 384.916298 
L 1244.6208 384.916298 
" clip-path="url(#pf756b76143)" style="fill: none; stroke: #8c564b; stroke-opacity: 0.7; stroke-width: 2.7; stroke-linecap: square"/>
   </g>
   <g id="line2d_80">
    <path d="M 1501.7472 689.186691 
L 1530.3168 689.186691 
M 1516.032 689.186691 
L 1516.032 497.840571 
M 1501.7472 497.840571 
L 1530.3168 497.840571 
" clip-path="url(#pf756b76143)" style="fill: none; stroke: #8c564b; stroke-opacity: 0.7; stroke-width: 2.7; stroke-linecap: square"/>
   </g>
   <g id="line2d_81">
    <path d="M 373.248 462.670248 
L 658.944 521.598591 
L 944.64 515.827763 
L 1230.336 565.720252 
" clip-path="url(#pf756b76143)" style="fill: none; stroke: #c49c94; stroke-opacity: 0.7; stroke-width: 2.7; stroke-linecap: square"/>
    <defs>
     <path id="ma68c8e9a32" d="M 0 3.383948 
C 0.897434 3.383948 1.758231 3.027394 2.392813 2.392813 
C 3.027394 1.758231 3.383948 0.897434 3.383948 0 
C 3.383948 -0.897434 3.027394 -1.758231 2.392813 -2.392813 
C 1.758231 -3.027394 0.897434 -3.383948 0 -3.383948 
C -0.897434 -3.383948 -1.758231 -3.027394 -2.392813 -2.392813 
C -3.027394 -1.758231 -3.383948 -0.897434 -3.383948 0 
C -3.383948 0.897434 -3.027394 1.758231 -2.392813 2.392813 
C -1.758231 3.027394 -0.897434 3.383948 0 3.383948 
z
" style="stroke: #c49c94; stroke-opacity: 0.7; stroke-width: 2.025"/>
    </defs>
    <g clip-path="url(#pf756b76143)">
     <use xlink:href="#ma68c8e9a32" x="373.248" y="462.670248" style="fill: #c49c94; fill-opacity: 0.7; stroke: #c49c94; stroke-opacity: 0.7; stroke-width: 2.025"/>
     <use xlink:href="#ma68c8e9a32" x="658.944" y="521.598591" style="fill: #c49c94; fill-opacity: 0.7; stroke: #c49c94; stroke-opacity: 0.7; stroke-width: 2.025"/>
     <use xlink:href="#ma68c8e9a32" x="944.64" y="515.827763" style="fill: #c49c94; fill-opacity: 0.7; stroke: #c49c94; stroke-opacity: 0.7; stroke-width: 2.025"/>
     <use xlink:href="#ma68c8e9a32" x="1230.336" y="565.720252" style="fill: #c49c94; fill-opacity: 0.7; stroke: #c49c94; stroke-opacity: 0.7; stroke-width: 2.025"/>
    </g>
   </g>
   <g id="line2d_82">
    <path d="M 358.9632 513.148581 
L 387.5328 513.148581 
M 373.248 513.148581 
L 373.248 412.747343 
M 358.9632 412.747343 
L 387.5328 412.747343 
" clip-path="url(#pf756b76143)" style="fill: none; stroke: #c49c94; stroke-opacity: 0.7; stroke-width: 2.7; stroke-linecap: square"/>
   </g>
   <g id="line2d_83">
    <path d="M 644.6592 561.293736 
L 673.2288 561.293736 
M 658.944 561.293736 
L 658.944 485.961856 
M 644.6592 485.961856 
L 673.2288 485.961856 
" clip-path="url(#pf756b76143)" style="fill: none; stroke: #c49c94; stroke-opacity: 0.7; stroke-width: 2.7; stroke-linecap: square"/>
   </g>
   <g id="line2d_84">
    <path d="M 930.3552 551.381744 
L 958.9248 551.381744 
M 944.64 551.381744 
L 944.64 479.828252 
M 930.3552 479.828252 
L 958.9248 479.828252 
" clip-path="url(#pf756b76143)" style="fill: none; stroke: #c49c94; stroke-opacity: 0.7; stroke-width: 2.7; stroke-linecap: square"/>
   </g>
   <g id="line2d_85">
    <path d="M 1216.0512 601.53131 
L 1244.6208 601.53131 
M 1230.336 601.53131 
L 1230.336 530.054291 
M 1216.0512 530.054291 
L 1244.6208 530.054291 
" clip-path="url(#pf756b76143)" style="fill: none; stroke: #c49c94; stroke-opacity: 0.7; stroke-width: 2.7; stroke-linecap: square"/>
   </g>
   <g id="line2d_86">
    <path clip-path="url(#pf756b76143)" style="fill: none; stroke: #c49c94; stroke-opacity: 0.7; stroke-width: 2.7; stroke-linecap: square"/>
   </g>
   <g id="line2d_87">
    <path d="M 658.944 497.157988 
L 944.64 465.064317 
L 1230.336 623.962976 
L 1516.032 661.356505 
" clip-path="url(#pf756b76143)" style="fill: none; stroke: #e377c2; stroke-opacity: 0.7; stroke-width: 2.7; stroke-linecap: square"/>
    <defs>
     <path id="m414c550d11" d="M 0 3.383948 
C 0.897434 3.383948 1.758231 3.027394 2.392813 2.392813 
C 3.027394 1.758231 3.383948 0.897434 3.383948 0 
C 3.383948 -0.897434 3.027394 -1.758231 2.392813 -2.392813 
C 1.758231 -3.027394 0.897434 -3.383948 0 -3.383948 
C -0.897434 -3.383948 -1.758231 -3.027394 -2.392813 -2.392813 
C -3.027394 -1.758231 -3.383948 -0.897434 -3.383948 0 
C -3.383948 0.897434 -3.027394 1.758231 -2.392813 2.392813 
C -1.758231 3.027394 -0.897434 3.383948 0 3.383948 
z
" style="stroke: #e377c2; stroke-opacity: 0.7; stroke-width: 2.025"/>
    </defs>
    <g clip-path="url(#pf756b76143)">
     <use xlink:href="#m414c550d11" x="658.944" y="497.157988" style="fill: #e377c2; fill-opacity: 0.7; stroke: #e377c2; stroke-opacity: 0.7; stroke-width: 2.025"/>
     <use xlink:href="#m414c550d11" x="944.64" y="465.064317" style="fill: #e377c2; fill-opacity: 0.7; stroke: #e377c2; stroke-opacity: 0.7; stroke-width: 2.025"/>
     <use xlink:href="#m414c550d11" x="1230.336" y="623.962976" style="fill: #e377c2; fill-opacity: 0.7; stroke: #e377c2; stroke-opacity: 0.7; stroke-width: 2.025"/>
     <use xlink:href="#m414c550d11" x="1516.032" y="661.356505" style="fill: #e377c2; fill-opacity: 0.7; stroke: #e377c2; stroke-opacity: 0.7; stroke-width: 2.025"/>
    </g>
   </g>
   <g id="line2d_88">
    <path clip-path="url(#pf756b76143)" style="fill: none; stroke: #e377c2; stroke-opacity: 0.7; stroke-width: 2.7; stroke-linecap: square"/>
   </g>
   <g id="line2d_89">
    <path d="M 644.6592 553.211185 
L 673.2288 553.211185 
M 658.944 553.211185 
L 658.944 431.837894 
M 644.6592 431.837894 
L 673.2288 431.837894 
" clip-path="url(#pf756b76143)" style="fill: none; stroke: #e377c2; stroke-opacity: 0.7; stroke-width: 2.7; stroke-linecap: square"/>
   </g>
   <g id="line2d_90">
    <path d="M 930.3552 533.398905 
L 958.9248 533.398905 
M 944.64 533.398905 
L 944.64 402.606609 
M 930.3552 402.606609 
L 958.9248 402.606609 
" clip-path="url(#pf756b76143)" style="fill: none; stroke: #e377c2; stroke-opacity: 0.7; stroke-width: 2.7; stroke-linecap: square"/>
   </g>
   <g id="line2d_91">
    <path d="M 1216.0512 687.402141 
L 1244.6208 687.402141 
M 1230.336 687.402141 
L 1230.336 566.481446 
M 1216.0512 566.481446 
L 1244.6208 566.481446 
" clip-path="url(#pf756b76143)" style="fill: none; stroke: #e377c2; stroke-opacity: 0.7; stroke-width: 2.7; stroke-linecap: square"/>
   </g>
   <g id="line2d_92">
    <path d="M 1501.7472 736.12531 
L 1530.3168 736.12531 
M 1516.032 736.12531 
L 1516.032 585.636096 
M 1501.7472 585.636096 
L 1530.3168 585.636096 
" clip-path="url(#pf756b76143)" style="fill: none; stroke: #e377c2; stroke-opacity: 0.7; stroke-width: 2.7; stroke-linecap: square"/>
   </g>
   <g id="line2d_93"/>
   <g id="line2d_94"/>
   <g id="line2d_95"/>
   <g id="line2d_96"/>
   <g id="line2d_97"/>
   <g id="line2d_98"/>
   <g id="line2d_99"/>
   <g id="line2d_100"/>
   <g id="line2d_101"/>
   <g id="line2d_102"/>
   <g id="line2d_103"/>
   <g id="line2d_104"/>
   <g id="line2d_105"/>
   <g id="patch_3">
    <path d="M 230.4 899.6832 
L 230.4 121.3056 
" style="fill: none; stroke: #000000; stroke-width: 0.8; stroke-linejoin: miter; stroke-linecap: square"/>
   </g>
   <g id="patch_4">
    <path d="M 1658.88 899.6832 
L 1658.88 121.3056 
" style="fill: none; stroke: #000000; stroke-width: 0.8; stroke-linejoin: miter; stroke-linecap: square"/>
   </g>
   <g id="patch_5">
    <path d="M 230.4 899.6832 
L 1658.88 899.6832 
" style="fill: none; stroke: #000000; stroke-width: 0.8; stroke-linejoin: miter; stroke-linecap: square"/>
   </g>
   <g id="patch_6">
    <path d="M 230.4 121.3056 
L 1658.88 121.3056 
" style="fill: none; stroke: #000000; stroke-width: 0.8; stroke-linejoin: miter; stroke-linecap: square"/>
   </g>
   <g id="text_17">
    <!-- ASEM Per Subject: Arrow DOWN -->
    <g transform="translate(705.490781 115.066538) scale(0.3 -0.3)">
     <defs>
      <path id="DejaVuSans-72" d="M 2631 2963 
Q 2534 3019 2420 3045 
Q 2306 3072 2169 3072 
Q 1681 3072 1420 2755 
Q 1159 2438 1159 1844 
L 1159 0 
L 581 0 
L 581 3500 
L 1159 3500 
L 1159 2956 
Q 1341 3275 1631 3429 
Q 1922 3584 2338 3584 
Q 2397 3584 2469 3576 
Q 2541 3569 2628 3553 
L 2631 2963 
z
" transform="scale(0.015625)"/>
      <path id="DejaVuSans-75" d="M 544 1381 
L 544 3500 
L 1119 3500 
L 1119 1403 
Q 1119 906 1312 657 
Q 1506 409 1894 409 
Q 2359 409 2629 706 
Q 2900 1003 2900 1516 
L 2900 3500 
L 3475 3500 
L 3475 0 
L 2900 0 
L 2900 538 
Q 2691 219 2414 64 
Q 2138 -91 1772 -91 
Q 1169 -91 856 284 
Q 544 659 544 1381 
z
M 1991 3584 
L 1991 3584 
z
" transform="scale(0.015625)"/>
      <path id="DejaVuSans-62" d="M 3116 1747 
Q 3116 2381 2855 2742 
Q 2594 3103 2138 3103 
Q 1681 3103 1420 2742 
Q 1159 2381 1159 1747 
Q 1159 1113 1420 752 
Q 1681 391 2138 391 
Q 2594 391 2855 752 
Q 3116 1113 3116 1747 
z
M 1159 2969 
Q 1341 3281 1617 3432 
Q 1894 3584 2278 3584 
Q 2916 3584 3314 3078 
Q 3713 2572 3713 1747 
Q 3713 922 3314 415 
Q 2916 -91 2278 -91 
Q 1894 -91 1617 61 
Q 1341 213 1159 525 
L 1159 0 
L 581 0 
L 581 4863 
L 1159 4863 
L 1159 2969 
z
" transform="scale(0.015625)"/>
      <path id="DejaVuSans-6a" d="M 603 3500 
L 1178 3500 
L 1178 -63 
Q 1178 -731 923 -1031 
Q 669 -1331 103 -1331 
L -116 -1331 
L -116 -844 
L 38 -844 
Q 366 -844 484 -692 
Q 603 -541 603 -63 
L 603 3500 
z
M 603 4863 
L 1178 4863 
L 1178 4134 
L 603 4134 
L 603 4863 
z
" transform="scale(0.015625)"/>
      <path id="DejaVuSans-63" d="M 3122 3366 
L 3122 2828 
Q 2878 2963 2633 3030 
Q 2388 3097 2138 3097 
Q 1578 3097 1268 2742 
Q 959 2388 959 1747 
Q 959 1106 1268 751 
Q 1578 397 2138 397 
Q 2388 397 2633 464 
Q 2878 531 3122 666 
L 3122 134 
Q 2881 22 2623 -34 
Q 2366 -91 2075 -91 
Q 1284 -91 818 406 
Q 353 903 353 1747 
Q 353 2603 823 3093 
Q 1294 3584 2113 3584 
Q 2378 3584 2631 3529 
Q 2884 3475 3122 3366 
z
" transform="scale(0.015625)"/>
      <path id="DejaVuSans-3a" d="M 750 794 
L 1409 794 
L 1409 0 
L 750 0 
L 750 794 
z
M 750 3309 
L 1409 3309 
L 1409 2516 
L 750 2516 
L 750 3309 
z
" transform="scale(0.015625)"/>
      <path id="DejaVuSans-6f" d="M 1959 3097 
Q 1497 3097 1228 2736 
Q 959 2375 959 1747 
Q 959 1119 1226 758 
Q 1494 397 1959 397 
Q 2419 397 2687 759 
Q 2956 1122 2956 1747 
Q 2956 2369 2687 2733 
Q 2419 3097 1959 3097 
z
M 1959 3584 
Q 2709 3584 3137 3096 
Q 3566 2609 3566 1747 
Q 3566 888 3137 398 
Q 2709 -91 1959 -91 
Q 1206 -91 779 398 
Q 353 888 353 1747 
Q 353 2609 779 3096 
Q 1206 3584 1959 3584 
z
" transform="scale(0.015625)"/>
      <path id="DejaVuSans-77" d="M 269 3500 
L 844 3500 
L 1563 769 
L 2278 3500 
L 2956 3500 
L 3675 769 
L 4391 3500 
L 4966 3500 
L 4050 0 
L 3372 0 
L 2619 2869 
L 1863 0 
L 1184 0 
L 269 3500 
z
" transform="scale(0.015625)"/>
     </defs>
     <use xlink:href="#DejaVuSans-41"/>
     <use xlink:href="#DejaVuSans-53" x="68.408203"/>
     <use xlink:href="#DejaVuSans-45" x="131.884766"/>
     <use xlink:href="#DejaVuSans-4d" x="195.068359"/>
     <use xlink:href="#DejaVuSans-20" x="281.347656"/>
     <use xlink:href="#DejaVuSans-50" x="313.134766"/>
     <use xlink:href="#DejaVuSans-65" x="369.8125"/>
     <use xlink:href="#DejaVuSans-72" x="431.335938"/>
     <use xlink:href="#DejaVuSans-20" x="472.449219"/>
     <use xlink:href="#DejaVuSans-53" x="504.236328"/>
     <use xlink:href="#DejaVuSans-75" x="567.712891"/>
     <use xlink:href="#DejaVuSans-62" x="631.091797"/>
     <use xlink:href="#DejaVuSans-6a" x="694.568359"/>
     <use xlink:href="#DejaVuSans-65" x="722.351562"/>
     <use xlink:href="#DejaVuSans-63" x="783.875"/>
     <use xlink:href="#DejaVuSans-74" x="838.855469"/>
     <use xlink:href="#DejaVuSans-3a" x="878.064453"/>
     <use xlink:href="#DejaVuSans-20" x="911.755859"/>
     <use xlink:href="#DejaVuSans-41" x="943.542969"/>
     <use xlink:href="#DejaVuSans-72" x="1011.951172"/>
     <use xlink:href="#DejaVuSans-72" x="1051.314453"/>
     <use xlink:href="#DejaVuSans-6f" x="1090.177734"/>
     <use xlink:href="#DejaVuSans-77" x="1151.359375"/>
     <use xlink:href="#DejaVuSans-20" x="1233.146484"/>
     <use xlink:href="#DejaVuSans-44" x="1264.933594"/>
     <use xlink:href="#DejaVuSans-4f" x="1341.935547"/>
     <use xlink:href="#DejaVuSans-57" x="1420.646484"/>
     <use xlink:href="#DejaVuSans-4e" x="1519.523438"/>
    </g>
   </g>
   <g id="legend_1">
    <g id="patch_7">
     <path d="M 1555.43 518.93685 
L 1644.88 518.93685 
Q 1648.88 518.93685 1648.88 514.93685 
L 1648.88 135.3056 
Q 1648.88 131.3056 1644.88 131.3056 
L 1555.43 131.3056 
Q 1551.43 131.3056 1551.43 135.3056 
L 1551.43 514.93685 
Q 1551.43 518.93685 1555.43 518.93685 
z
" style="fill: #ffffff; opacity: 0.8; stroke: #cccccc; stroke-linejoin: miter"/>
    </g>
    <g id="line2d_106">
     <path d="M 1559.43 147.502475 
L 1579.43 147.502475 
L 1599.43 147.502475 
" style="fill: none; stroke: #1f77b4; stroke-opacity: 0.7; stroke-width: 2.7; stroke-linecap: square"/>
     <g>
      <use xlink:href="#ma5d7f15b32" x="1579.43" y="147.502475" style="fill: #1f77b4; fill-opacity: 0.7; stroke: #1f77b4; stroke-opacity: 0.7; stroke-width: 2.025"/>
     </g>
    </g>
    <g id="text_18">
     <!-- 2 -->
     <g transform="translate(1615.43 154.502475) scale(0.2 -0.2)">
      <use xlink:href="#DejaVuSans-32"/>
     </g>
    </g>
    <g id="line2d_107">
     <path d="M 1559.43 176.858725 
L 1579.43 176.858725 
L 1599.43 176.858725 
" style="fill: none; stroke: #aec7e8; stroke-opacity: 0.7; stroke-width: 2.7; stroke-linecap: square"/>
     <g>
      <use xlink:href="#m6f239b7a74" x="1579.43" y="176.858725" style="fill: #aec7e8; fill-opacity: 0.7; stroke: #aec7e8; stroke-opacity: 0.7; stroke-width: 2.025"/>
     </g>
    </g>
    <g id="text_19">
     <!-- 3 -->
     <g transform="translate(1615.43 183.858725) scale(0.2 -0.2)">
      <defs>
       <path id="DejaVuSans-33" d="M 2597 2516 
Q 3050 2419 3304 2112 
Q 3559 1806 3559 1356 
Q 3559 666 3084 287 
Q 2609 -91 1734 -91 
Q 1441 -91 1130 -33 
Q 819 25 488 141 
L 488 750 
Q 750 597 1062 519 
Q 1375 441 1716 441 
Q 2309 441 2620 675 
Q 2931 909 2931 1356 
Q 2931 1769 2642 2001 
Q 2353 2234 1838 2234 
L 1294 2234 
L 1294 2753 
L 1863 2753 
Q 2328 2753 2575 2939 
Q 2822 3125 2822 3475 
Q 2822 3834 2567 4026 
Q 2313 4219 1838 4219 
Q 1578 4219 1281 4162 
Q 984 4106 628 3988 
L 628 4550 
Q 988 4650 1302 4700 
Q 1616 4750 1894 4750 
Q 2613 4750 3031 4423 
Q 3450 4097 3450 3541 
Q 3450 3153 3228 2886 
Q 3006 2619 2597 2516 
z
" transform="scale(0.015625)"/>
      </defs>
      <use xlink:href="#DejaVuSans-33"/>
     </g>
    </g>
    <g id="line2d_108">
     <path d="M 1559.43 206.214975 
L 1579.43 206.214975 
L 1599.43 206.214975 
" style="fill: none; stroke: #ff7f0e; stroke-opacity: 0.7; stroke-width: 2.7; stroke-linecap: square"/>
     <g>
      <use xlink:href="#m221e6ae7ca" x="1579.43" y="206.214975" style="fill: #ff7f0e; fill-opacity: 0.7; stroke: #ff7f0e; stroke-opacity: 0.7; stroke-width: 2.025"/>
     </g>
    </g>
    <g id="text_20">
     <!-- 4 -->
     <g transform="translate(1615.43 213.214975) scale(0.2 -0.2)">
      <defs>
       <path id="DejaVuSans-34" d="M 2419 4116 
L 825 1625 
L 2419 1625 
L 2419 4116 
z
M 2253 4666 
L 3047 4666 
L 3047 1625 
L 3713 1625 
L 3713 1100 
L 3047 1100 
L 3047 0 
L 2419 0 
L 2419 1100 
L 313 1100 
L 313 1709 
L 2253 4666 
z
" transform="scale(0.015625)"/>
      </defs>
      <use xlink:href="#DejaVuSans-34"/>
     </g>
    </g>
    <g id="line2d_109">
     <path d="M 1559.43 235.571225 
L 1579.43 235.571225 
L 1599.43 235.571225 
" style="fill: none; stroke: #ffbb78; stroke-opacity: 0.7; stroke-width: 2.7; stroke-linecap: square"/>
     <g>
      <use xlink:href="#m417dacca55" x="1579.43" y="235.571225" style="fill: #ffbb78; fill-opacity: 0.7; stroke: #ffbb78; stroke-opacity: 0.7; stroke-width: 2.025"/>
     </g>
    </g>
    <g id="text_21">
     <!-- 5 -->
     <g transform="translate(1615.43 242.571225) scale(0.2 -0.2)">
      <use xlink:href="#DejaVuSans-35"/>
     </g>
    </g>
    <g id="line2d_110">
     <path d="M 1559.43 264.927475 
L 1579.43 264.927475 
L 1599.43 264.927475 
" style="fill: none; stroke: #2ca02c; stroke-opacity: 0.7; stroke-width: 2.7; stroke-linecap: square"/>
     <g>
      <use xlink:href="#m11ea60dbe3" x="1579.43" y="264.927475" style="fill: #2ca02c; fill-opacity: 0.7; stroke: #2ca02c; stroke-opacity: 0.7; stroke-width: 2.025"/>
     </g>
    </g>
    <g id="text_22">
     <!-- 6 -->
     <g transform="translate(1615.43 271.927475) scale(0.2 -0.2)">
      <defs>
       <path id="DejaVuSans-36" d="M 2113 2584 
Q 1688 2584 1439 2293 
Q 1191 2003 1191 1497 
Q 1191 994 1439 701 
Q 1688 409 2113 409 
Q 2538 409 2786 701 
Q 3034 994 3034 1497 
Q 3034 2003 2786 2293 
Q 2538 2584 2113 2584 
z
M 3366 4563 
L 3366 3988 
Q 3128 4100 2886 4159 
Q 2644 4219 2406 4219 
Q 1781 4219 1451 3797 
Q 1122 3375 1075 2522 
Q 1259 2794 1537 2939 
Q 1816 3084 2150 3084 
Q 2853 3084 3261 2657 
Q 3669 2231 3669 1497 
Q 3669 778 3244 343 
Q 2819 -91 2113 -91 
Q 1303 -91 875 529 
Q 447 1150 447 2328 
Q 447 3434 972 4092 
Q 1497 4750 2381 4750 
Q 2619 4750 2861 4703 
Q 3103 4656 3366 4563 
z
" transform="scale(0.015625)"/>
      </defs>
      <use xlink:href="#DejaVuSans-36"/>
     </g>
    </g>
    <g id="line2d_111">
     <path d="M 1559.43 294.283725 
L 1579.43 294.283725 
L 1599.43 294.283725 
" style="fill: none; stroke: #98df8a; stroke-opacity: 0.7; stroke-width: 2.7; stroke-linecap: square"/>
     <g>
      <use xlink:href="#m317f965b38" x="1579.43" y="294.283725" style="fill: #98df8a; fill-opacity: 0.7; stroke: #98df8a; stroke-opacity: 0.7; stroke-width: 2.025"/>
     </g>
    </g>
    <g id="text_23">
     <!-- 7 -->
     <g transform="translate(1615.43 301.283725) scale(0.2 -0.2)">
      <use xlink:href="#DejaVuSans-37"/>
     </g>
    </g>
    <g id="line2d_112">
     <path d="M 1559.43 323.639975 
L 1579.43 323.639975 
L 1599.43 323.639975 
" style="fill: none; stroke: #d62728; stroke-opacity: 0.7; stroke-width: 2.7; stroke-linecap: square"/>
     <g>
      <use xlink:href="#mf10a937261" x="1579.43" y="323.639975" style="fill: #d62728; fill-opacity: 0.7; stroke: #d62728; stroke-opacity: 0.7; stroke-width: 2.025"/>
     </g>
    </g>
    <g id="text_24">
     <!-- 8 -->
     <g transform="translate(1615.43 330.639975) scale(0.2 -0.2)">
      <defs>
       <path id="DejaVuSans-38" d="M 2034 2216 
Q 1584 2216 1326 1975 
Q 1069 1734 1069 1313 
Q 1069 891 1326 650 
Q 1584 409 2034 409 
Q 2484 409 2743 651 
Q 3003 894 3003 1313 
Q 3003 1734 2745 1975 
Q 2488 2216 2034 2216 
z
M 1403 2484 
Q 997 2584 770 2862 
Q 544 3141 544 3541 
Q 544 4100 942 4425 
Q 1341 4750 2034 4750 
Q 2731 4750 3128 4425 
Q 3525 4100 3525 3541 
Q 3525 3141 3298 2862 
Q 3072 2584 2669 2484 
Q 3125 2378 3379 2068 
Q 3634 1759 3634 1313 
Q 3634 634 3220 271 
Q 2806 -91 2034 -91 
Q 1263 -91 848 271 
Q 434 634 434 1313 
Q 434 1759 690 2068 
Q 947 2378 1403 2484 
z
M 1172 3481 
Q 1172 3119 1398 2916 
Q 1625 2713 2034 2713 
Q 2441 2713 2670 2916 
Q 2900 3119 2900 3481 
Q 2900 3844 2670 4047 
Q 2441 4250 2034 4250 
Q 1625 4250 1398 4047 
Q 1172 3844 1172 3481 
z
" transform="scale(0.015625)"/>
      </defs>
      <use xlink:href="#DejaVuSans-38"/>
     </g>
    </g>
    <g id="line2d_113">
     <path d="M 1559.43 352.996225 
L 1579.43 352.996225 
L 1599.43 352.996225 
" style="fill: none; stroke: #ff9896; stroke-opacity: 0.7; stroke-width: 2.7; stroke-linecap: square"/>
     <g>
      <use xlink:href="#md700d676ca" x="1579.43" y="352.996225" style="fill: #ff9896; fill-opacity: 0.7; stroke: #ff9896; stroke-opacity: 0.7; stroke-width: 2.025"/>
     </g>
    </g>
    <g id="text_25">
     <!-- 9 -->
     <g transform="translate(1615.43 359.996225) scale(0.2 -0.2)">
      <defs>
       <path id="DejaVuSans-39" d="M 703 97 
L 703 672 
Q 941 559 1184 500 
Q 1428 441 1663 441 
Q 2288 441 2617 861 
Q 2947 1281 2994 2138 
Q 2813 1869 2534 1725 
Q 2256 1581 1919 1581 
Q 1219 1581 811 2004 
Q 403 2428 403 3163 
Q 403 3881 828 4315 
Q 1253 4750 1959 4750 
Q 2769 4750 3195 4129 
Q 3622 3509 3622 2328 
Q 3622 1225 3098 567 
Q 2575 -91 1691 -91 
Q 1453 -91 1209 -44 
Q 966 3 703 97 
z
M 1959 2075 
Q 2384 2075 2632 2365 
Q 2881 2656 2881 3163 
Q 2881 3666 2632 3958 
Q 2384 4250 1959 4250 
Q 1534 4250 1286 3958 
Q 1038 3666 1038 3163 
Q 1038 2656 1286 2365 
Q 1534 2075 1959 2075 
z
" transform="scale(0.015625)"/>
      </defs>
      <use xlink:href="#DejaVuSans-39"/>
     </g>
    </g>
    <g id="line2d_114">
     <path d="M 1559.43 382.352475 
L 1579.43 382.352475 
L 1599.43 382.352475 
" style="fill: none; stroke: #9467bd; stroke-opacity: 0.7; stroke-width: 2.7; stroke-linecap: square"/>
     <g>
      <use xlink:href="#m933e40d298" x="1579.43" y="382.352475" style="fill: #9467bd; fill-opacity: 0.7; stroke: #9467bd; stroke-opacity: 0.7; stroke-width: 2.025"/>
     </g>
    </g>
    <g id="text_26">
     <!-- 10 -->
     <g transform="translate(1615.43 389.352475) scale(0.2 -0.2)">
      <use xlink:href="#DejaVuSans-31"/>
      <use xlink:href="#DejaVuSans-30" x="63.623047"/>
     </g>
    </g>
    <g id="line2d_115">
     <path d="M 1559.43 411.708725 
L 1579.43 411.708725 
L 1599.43 411.708725 
" style="fill: none; stroke: #c5b0d5; stroke-opacity: 0.7; stroke-width: 2.7; stroke-linecap: square"/>
     <g>
      <use xlink:href="#m24299c04e5" x="1579.43" y="411.708725" style="fill: #c5b0d5; fill-opacity: 0.7; stroke: #c5b0d5; stroke-opacity: 0.7; stroke-width: 2.025"/>
     </g>
    </g>
    <g id="text_27">
     <!-- 11 -->
     <g transform="translate(1615.43 418.708725) scale(0.2 -0.2)">
      <use xlink:href="#DejaVuSans-31"/>
      <use xlink:href="#DejaVuSans-31" x="63.623047"/>
     </g>
    </g>
    <g id="line2d_116">
     <path d="M 1559.43 441.064975 
L 1579.43 441.064975 
L 1599.43 441.064975 
" style="fill: none; stroke: #8c564b; stroke-opacity: 0.7; stroke-width: 2.7; stroke-linecap: square"/>
     <g>
      <use xlink:href="#m7362d32069" x="1579.43" y="441.064975" style="fill: #8c564b; fill-opacity: 0.7; stroke: #8c564b; stroke-opacity: 0.7; stroke-width: 2.025"/>
     </g>
    </g>
    <g id="text_28">
     <!-- 12 -->
     <g transform="translate(1615.43 448.064975) scale(0.2 -0.2)">
      <use xlink:href="#DejaVuSans-31"/>
      <use xlink:href="#DejaVuSans-32" x="63.623047"/>
     </g>
    </g>
    <g id="line2d_117">
     <path d="M 1559.43 470.421225 
L 1579.43 470.421225 
L 1599.43 470.421225 
" style="fill: none; stroke: #c49c94; stroke-opacity: 0.7; stroke-width: 2.7; stroke-linecap: square"/>
     <g>
      <use xlink:href="#ma68c8e9a32" x="1579.43" y="470.421225" style="fill: #c49c94; fill-opacity: 0.7; stroke: #c49c94; stroke-opacity: 0.7; stroke-width: 2.025"/>
     </g>
    </g>
    <g id="text_29">
     <!-- 13 -->
     <g transform="translate(1615.43 477.421225) scale(0.2 -0.2)">
      <use xlink:href="#DejaVuSans-31"/>
      <use xlink:href="#DejaVuSans-33" x="63.623047"/>
     </g>
    </g>
    <g id="line2d_118">
     <path d="M 1559.43 499.777475 
L 1579.43 499.777475 
L 1599.43 499.777475 
" style="fill: none; stroke: #e377c2; stroke-opacity: 0.7; stroke-width: 2.7; stroke-linecap: square"/>
     <g>
      <use xlink:href="#m414c550d11" x="1579.43" y="499.777475" style="fill: #e377c2; fill-opacity: 0.7; stroke: #e377c2; stroke-opacity: 0.7; stroke-width: 2.025"/>
     </g>
    </g>
    <g id="text_30">
     <!-- 14 -->
     <g transform="translate(1615.43 506.777475) scale(0.2 -0.2)">
      <use xlink:href="#DejaVuSans-31"/>
      <use xlink:href="#DejaVuSans-34" x="63.623047"/>
     </g>
    </g>
   </g>
  </g>
 </g>
 <defs>
  <clipPath id="pf756b76143">
   <rect x="230.4" y="121.3056" width="1428.48" height="778.3776"/>
  </clipPath>
 </defs>
</svg>
