<?xml version="1.0" encoding="utf-8" standalone="no"?>
<!DOCTYPE svg PUBLIC "-//W3C//DTD SVG 1.1//EN"
  "http://www.w3.org/Graphics/SVG/1.1/DTD/svg11.dtd">
<svg xmlns:xlink="http://www.w3.org/1999/xlink" width="1843.2pt" height="1010.88pt" viewBox="0 0 1843.2 1010.88" xmlns="http://www.w3.org/2000/svg" version="1.1">
 <metadata>
  <rdf:RDF xmlns:dc="http://purl.org/dc/elements/1.1/" xmlns:cc="http://creativecommons.org/ns#" xmlns:rdf="http://www.w3.org/1999/02/22-rdf-syntax-ns#">
   <cc:Work>
    <dc:type rdf:resource="http://purl.org/dc/dcmitype/StillImage"/>
    <dc:date>2025-02-03T17:38:10.925177</dc:date>
    <dc:format>image/svg+xml</dc:format>
    <dc:creator>
     <cc:Agent>
      <dc:title>Matplotlib v3.9.2, https://matplotlib.org/</dc:title>
     </cc:Agent>
    </dc:creator>
   </cc:Work>
  </rdf:RDF>
 </metadata>
 <defs>
  <style type="text/css">*{stroke-linejoin: round; stroke-linecap: butt}</style>
 </defs>
 <g id="figure_1">
  <g id="patch_1">
   <path d="M 0 1010.88 
L 1843.2 1010.88 
L 1843.2 0 
L 0 0 
z
" style="fill: #ffffff"/>
  </g>
  <g id="axes_1">
   <g id="patch_2">
    <path d="M 230.4 899.6832 
L 1658.88 899.6832 
L 1658.88 121.3056 
L 230.4 121.3056 
z
" style="fill: #ffffff"/>
   </g>
   <g id="matplotlib.axis_1">
    <g id="xtick_1">
     <g id="line2d_1">
      <defs>
       <path id="m44760c97a0" d="M 0 0 
L 0 3.5 
" style="stroke: #000000; stroke-width: 0.8"/>
      </defs>
      <g>
       <use xlink:href="#m44760c97a0" x="373.248" y="899.6832" style="stroke: #000000; stroke-width: 0.8"/>
      </g>
     </g>
     <g id="text_1">
      <!-- 0.0 -->
      <g transform="translate(357.344875 921.880075) scale(0.2 -0.2)">
       <defs>
        <path id="DejaVuSans-30" d="M 2034 4250 
Q 1547 4250 1301 3770 
Q 1056 3291 1056 2328 
Q 1056 1369 1301 889 
Q 1547 409 2034 409 
Q 2525 409 2770 889 
Q 3016 1369 3016 2328 
Q 3016 3291 2770 3770 
Q 2525 4250 2034 4250 
z
M 2034 4750 
Q 2819 4750 3233 4129 
Q 3647 3509 3647 2328 
Q 3647 1150 3233 529 
Q 2819 -91 2034 -91 
Q 1250 -91 836 529 
Q 422 1150 422 2328 
Q 422 3509 836 4129 
Q 1250 4750 2034 4750 
z
" transform="scale(0.015625)"/>
        <path id="DejaVuSans-2e" d="M 684 794 
L 1344 794 
L 1344 0 
L 684 0 
L 684 794 
z
" transform="scale(0.015625)"/>
       </defs>
       <use xlink:href="#DejaVuSans-30"/>
       <use xlink:href="#DejaVuSans-2e" x="63.623047"/>
       <use xlink:href="#DejaVuSans-30" x="95.410156"/>
      </g>
     </g>
    </g>
    <g id="xtick_2">
     <g id="line2d_2">
      <g>
       <use xlink:href="#m44760c97a0" x="658.944" y="899.6832" style="stroke: #000000; stroke-width: 0.8"/>
      </g>
     </g>
     <g id="text_2">
      <!-- 0.25 -->
      <g transform="translate(636.678375 921.880075) scale(0.2 -0.2)">
       <defs>
        <path id="DejaVuSans-32" d="M 1228 531 
L 3431 531 
L 3431 0 
L 469 0 
L 469 531 
Q 828 903 1448 1529 
Q 2069 2156 2228 2338 
Q 2531 2678 2651 2914 
Q 2772 3150 2772 3378 
Q 2772 3750 2511 3984 
Q 2250 4219 1831 4219 
Q 1534 4219 1204 4116 
Q 875 4013 500 3803 
L 500 4441 
Q 881 4594 1212 4672 
Q 1544 4750 1819 4750 
Q 2544 4750 2975 4387 
Q 3406 4025 3406 3419 
Q 3406 3131 3298 2873 
Q 3191 2616 2906 2266 
Q 2828 2175 2409 1742 
Q 1991 1309 1228 531 
z
" transform="scale(0.015625)"/>
        <path id="DejaVuSans-35" d="M 691 4666 
L 3169 4666 
L 3169 4134 
L 1269 4134 
L 1269 2991 
Q 1406 3038 1543 3061 
Q 1681 3084 1819 3084 
Q 2600 3084 3056 2656 
Q 3513 2228 3513 1497 
Q 3513 744 3044 326 
Q 2575 -91 1722 -91 
Q 1428 -91 1123 -41 
Q 819 9 494 109 
L 494 744 
Q 775 591 1075 516 
Q 1375 441 1709 441 
Q 2250 441 2565 725 
Q 2881 1009 2881 1497 
Q 2881 1984 2565 2268 
Q 2250 2553 1709 2553 
Q 1456 2553 1204 2497 
Q 953 2441 691 2322 
L 691 4666 
z
" transform="scale(0.015625)"/>
       </defs>
       <use xlink:href="#DejaVuSans-30"/>
       <use xlink:href="#DejaVuSans-2e" x="63.623047"/>
       <use xlink:href="#DejaVuSans-32" x="95.410156"/>
       <use xlink:href="#DejaVuSans-35" x="159.033203"/>
      </g>
     </g>
    </g>
    <g id="xtick_3">
     <g id="line2d_3">
      <g>
       <use xlink:href="#m44760c97a0" x="944.64" y="899.6832" style="stroke: #000000; stroke-width: 0.8"/>
      </g>
     </g>
     <g id="text_3">
      <!-- 0.5 -->
      <g transform="translate(928.736875 921.880075) scale(0.2 -0.2)">
       <use xlink:href="#DejaVuSans-30"/>
       <use xlink:href="#DejaVuSans-2e" x="63.623047"/>
       <use xlink:href="#DejaVuSans-35" x="95.410156"/>
      </g>
     </g>
    </g>
    <g id="xtick_4">
     <g id="line2d_4">
      <g>
       <use xlink:href="#m44760c97a0" x="1230.336" y="899.6832" style="stroke: #000000; stroke-width: 0.8"/>
      </g>
     </g>
     <g id="text_4">
      <!-- 0.75 -->
      <g transform="translate(1208.070375 921.880075) scale(0.2 -0.2)">
       <defs>
        <path id="DejaVuSans-37" d="M 525 4666 
L 3525 4666 
L 3525 4397 
L 1831 0 
L 1172 0 
L 2766 4134 
L 525 4134 
L 525 4666 
z
" transform="scale(0.015625)"/>
       </defs>
       <use xlink:href="#DejaVuSans-30"/>
       <use xlink:href="#DejaVuSans-2e" x="63.623047"/>
       <use xlink:href="#DejaVuSans-37" x="95.410156"/>
       <use xlink:href="#DejaVuSans-35" x="159.033203"/>
      </g>
     </g>
    </g>
    <g id="xtick_5">
     <g id="line2d_5">
      <g>
       <use xlink:href="#m44760c97a0" x="1516.032" y="899.6832" style="stroke: #000000; stroke-width: 0.8"/>
      </g>
     </g>
     <g id="text_5">
      <!-- 1.0 -->
      <g transform="translate(1500.128875 921.880075) scale(0.2 -0.2)">
       <defs>
        <path id="DejaVuSans-31" d="M 794 531 
L 1825 531 
L 1825 4091 
L 703 3866 
L 703 4441 
L 1819 4666 
L 2450 4666 
L 2450 531 
L 3481 531 
L 3481 0 
L 794 0 
L 794 531 
z
" transform="scale(0.015625)"/>
       </defs>
       <use xlink:href="#DejaVuSans-31"/>
       <use xlink:href="#DejaVuSans-2e" x="63.623047"/>
       <use xlink:href="#DejaVuSans-30" x="95.410156"/>
      </g>
     </g>
    </g>
    <g id="text_6">
     <!-- P(Left|DOWN) -->
     <g transform="translate(841.203281 952.966012) scale(0.3 -0.3)">
      <defs>
       <path id="DejaVuSans-50" d="M 1259 4147 
L 1259 2394 
L 2053 2394 
Q 2494 2394 2734 2622 
Q 2975 2850 2975 3272 
Q 2975 3691 2734 3919 
Q 2494 4147 2053 4147 
L 1259 4147 
z
M 628 4666 
L 2053 4666 
Q 2838 4666 3239 4311 
Q 3641 3956 3641 3272 
Q 3641 2581 3239 2228 
Q 2838 1875 2053 1875 
L 1259 1875 
L 1259 0 
L 628 0 
L 628 4666 
z
" transform="scale(0.015625)"/>
       <path id="DejaVuSans-28" d="M 1984 4856 
Q 1566 4138 1362 3434 
Q 1159 2731 1159 2009 
Q 1159 1288 1364 580 
Q 1569 -128 1984 -844 
L 1484 -844 
Q 1016 -109 783 600 
Q 550 1309 550 2009 
Q 550 2706 781 3412 
Q 1013 4119 1484 4856 
L 1984 4856 
z
" transform="scale(0.015625)"/>
       <path id="DejaVuSans-4c" d="M 628 4666 
L 1259 4666 
L 1259 531 
L 3531 531 
L 3531 0 
L 628 0 
L 628 4666 
z
" transform="scale(0.015625)"/>
       <path id="DejaVuSans-65" d="M 3597 1894 
L 3597 1613 
L 953 1613 
Q 991 1019 1311 708 
Q 1631 397 2203 397 
Q 2534 397 2845 478 
Q 3156 559 3463 722 
L 3463 178 
Q 3153 47 2828 -22 
Q 2503 -91 2169 -91 
Q 1331 -91 842 396 
Q 353 884 353 1716 
Q 353 2575 817 3079 
Q 1281 3584 2069 3584 
Q 2775 3584 3186 3129 
Q 3597 2675 3597 1894 
z
M 3022 2063 
Q 3016 2534 2758 2815 
Q 2500 3097 2075 3097 
Q 1594 3097 1305 2825 
Q 1016 2553 972 2059 
L 3022 2063 
z
" transform="scale(0.015625)"/>
       <path id="DejaVuSans-66" d="M 2375 4863 
L 2375 4384 
L 1825 4384 
Q 1516 4384 1395 4259 
Q 1275 4134 1275 3809 
L 1275 3500 
L 2222 3500 
L 2222 3053 
L 1275 3053 
L 1275 0 
L 697 0 
L 697 3053 
L 147 3053 
L 147 3500 
L 697 3500 
L 697 3744 
Q 697 4328 969 4595 
Q 1241 4863 1831 4863 
L 2375 4863 
z
" transform="scale(0.015625)"/>
       <path id="DejaVuSans-74" d="M 1172 4494 
L 1172 3500 
L 2356 3500 
L 2356 3053 
L 1172 3053 
L 1172 1153 
Q 1172 725 1289 603 
Q 1406 481 1766 481 
L 2356 481 
L 2356 0 
L 1766 0 
Q 1100 0 847 248 
Q 594 497 594 1153 
L 594 3053 
L 172 3053 
L 172 3500 
L 594 3500 
L 594 4494 
L 1172 4494 
z
" transform="scale(0.015625)"/>
       <path id="DejaVuSans-7c" d="M 1344 4891 
L 1344 -1509 
L 813 -1509 
L 813 4891 
L 1344 4891 
z
" transform="scale(0.015625)"/>
       <path id="DejaVuSans-44" d="M 1259 4147 
L 1259 519 
L 2022 519 
Q 2988 519 3436 956 
Q 3884 1394 3884 2338 
Q 3884 3275 3436 3711 
Q 2988 4147 2022 4147 
L 1259 4147 
z
M 628 4666 
L 1925 4666 
Q 3281 4666 3915 4102 
Q 4550 3538 4550 2338 
Q 4550 1131 3912 565 
Q 3275 0 1925 0 
L 628 0 
L 628 4666 
z
" transform="scale(0.015625)"/>
       <path id="DejaVuSans-4f" d="M 2522 4238 
Q 1834 4238 1429 3725 
Q 1025 3213 1025 2328 
Q 1025 1447 1429 934 
Q 1834 422 2522 422 
Q 3209 422 3611 934 
Q 4013 1447 4013 2328 
Q 4013 3213 3611 3725 
Q 3209 4238 2522 4238 
z
M 2522 4750 
Q 3503 4750 4090 4092 
Q 4678 3434 4678 2328 
Q 4678 1225 4090 567 
Q 3503 -91 2522 -91 
Q 1538 -91 948 565 
Q 359 1222 359 2328 
Q 359 3434 948 4092 
Q 1538 4750 2522 4750 
z
" transform="scale(0.015625)"/>
       <path id="DejaVuSans-57" d="M 213 4666 
L 850 4666 
L 1831 722 
L 2809 4666 
L 3519 4666 
L 4500 722 
L 5478 4666 
L 6119 4666 
L 4947 0 
L 4153 0 
L 3169 4050 
L 2175 0 
L 1381 0 
L 213 4666 
z
" transform="scale(0.015625)"/>
       <path id="DejaVuSans-4e" d="M 628 4666 
L 1478 4666 
L 3547 763 
L 3547 4666 
L 4159 4666 
L 4159 0 
L 3309 0 
L 1241 3903 
L 1241 0 
L 628 0 
L 628 4666 
z
" transform="scale(0.015625)"/>
       <path id="DejaVuSans-29" d="M 513 4856 
L 1013 4856 
Q 1481 4119 1714 3412 
Q 1947 2706 1947 2009 
Q 1947 1309 1714 600 
Q 1481 -109 1013 -844 
L 513 -844 
Q 928 -128 1133 580 
Q 1338 1288 1338 2009 
Q 1338 2731 1133 3434 
Q 928 4138 513 4856 
z
" transform="scale(0.015625)"/>
      </defs>
      <use xlink:href="#DejaVuSans-50"/>
      <use xlink:href="#DejaVuSans-28" x="60.302734"/>
      <use xlink:href="#DejaVuSans-4c" x="99.316406"/>
      <use xlink:href="#DejaVuSans-65" x="153.279297"/>
      <use xlink:href="#DejaVuSans-66" x="214.802734"/>
      <use xlink:href="#DejaVuSans-74" x="248.257812"/>
      <use xlink:href="#DejaVuSans-7c" x="287.466797"/>
      <use xlink:href="#DejaVuSans-44" x="321.158203"/>
      <use xlink:href="#DejaVuSans-4f" x="398.160156"/>
      <use xlink:href="#DejaVuSans-57" x="476.871094"/>
      <use xlink:href="#DejaVuSans-4e" x="575.748047"/>
      <use xlink:href="#DejaVuSans-29" x="650.552734"/>
     </g>
    </g>
   </g>
   <g id="matplotlib.axis_2">
    <g id="ytick_1">
     <g id="line2d_6">
      <defs>
       <path id="m1a8566ac19" d="M 0 0 
L -3.5 0 
" style="stroke: #000000; stroke-width: 0.8"/>
      </defs>
      <g>
       <use xlink:href="#m1a8566ac19" x="230.4" y="871.420191" style="stroke: #000000; stroke-width: 0.8"/>
      </g>
     </g>
     <g id="text_7">
      <!-- −2.5 -->
      <g transform="translate(174.834375 879.018629) scale(0.2 -0.2)">
       <defs>
        <path id="DejaVuSans-2212" d="M 678 2272 
L 4684 2272 
L 4684 1741 
L 678 1741 
L 678 2272 
z
" transform="scale(0.015625)"/>
       </defs>
       <use xlink:href="#DejaVuSans-2212"/>
       <use xlink:href="#DejaVuSans-32" x="83.789062"/>
       <use xlink:href="#DejaVuSans-2e" x="147.412109"/>
       <use xlink:href="#DejaVuSans-35" x="179.199219"/>
      </g>
     </g>
    </g>
    <g id="ytick_2">
     <g id="line2d_7">
      <g>
       <use xlink:href="#m1a8566ac19" x="230.4" y="783.795529" style="stroke: #000000; stroke-width: 0.8"/>
      </g>
     </g>
     <g id="text_8">
      <!-- −2.0 -->
      <g transform="translate(174.834375 791.393967) scale(0.2 -0.2)">
       <use xlink:href="#DejaVuSans-2212"/>
       <use xlink:href="#DejaVuSans-32" x="83.789062"/>
       <use xlink:href="#DejaVuSans-2e" x="147.412109"/>
       <use xlink:href="#DejaVuSans-30" x="179.199219"/>
      </g>
     </g>
    </g>
    <g id="ytick_3">
     <g id="line2d_8">
      <g>
       <use xlink:href="#m1a8566ac19" x="230.4" y="696.170867" style="stroke: #000000; stroke-width: 0.8"/>
      </g>
     </g>
     <g id="text_9">
      <!-- −1.5 -->
      <g transform="translate(174.834375 703.769304) scale(0.2 -0.2)">
       <use xlink:href="#DejaVuSans-2212"/>
       <use xlink:href="#DejaVuSans-31" x="83.789062"/>
       <use xlink:href="#DejaVuSans-2e" x="147.412109"/>
       <use xlink:href="#DejaVuSans-35" x="179.199219"/>
      </g>
     </g>
    </g>
    <g id="ytick_4">
     <g id="line2d_9">
      <g>
       <use xlink:href="#m1a8566ac19" x="230.4" y="608.546204" style="stroke: #000000; stroke-width: 0.8"/>
      </g>
     </g>
     <g id="text_10">
      <!-- −1.0 -->
      <g transform="translate(174.834375 616.144642) scale(0.2 -0.2)">
       <use xlink:href="#DejaVuSans-2212"/>
       <use xlink:href="#DejaVuSans-31" x="83.789062"/>
       <use xlink:href="#DejaVuSans-2e" x="147.412109"/>
       <use xlink:href="#DejaVuSans-30" x="179.199219"/>
      </g>
     </g>
    </g>
    <g id="ytick_5">
     <g id="line2d_10">
      <g>
       <use xlink:href="#m1a8566ac19" x="230.4" y="520.921542" style="stroke: #000000; stroke-width: 0.8"/>
      </g>
     </g>
     <g id="text_11">
      <!-- −0.5 -->
      <g transform="translate(174.834375 528.51998) scale(0.2 -0.2)">
       <use xlink:href="#DejaVuSans-2212"/>
       <use xlink:href="#DejaVuSans-30" x="83.789062"/>
       <use xlink:href="#DejaVuSans-2e" x="147.412109"/>
       <use xlink:href="#DejaVuSans-35" x="179.199219"/>
      </g>
     </g>
    </g>
    <g id="ytick_6">
     <g id="line2d_11">
      <g>
       <use xlink:href="#m1a8566ac19" x="230.4" y="433.29688" style="stroke: #000000; stroke-width: 0.8"/>
      </g>
     </g>
     <g id="text_12">
      <!-- 0.0 -->
      <g transform="translate(191.59375 440.895317) scale(0.2 -0.2)">
       <use xlink:href="#DejaVuSans-30"/>
       <use xlink:href="#DejaVuSans-2e" x="63.623047"/>
       <use xlink:href="#DejaVuSans-30" x="95.410156"/>
      </g>
     </g>
    </g>
    <g id="ytick_7">
     <g id="line2d_12">
      <g>
       <use xlink:href="#m1a8566ac19" x="230.4" y="345.672217" style="stroke: #000000; stroke-width: 0.8"/>
      </g>
     </g>
     <g id="text_13">
      <!-- 0.5 -->
      <g transform="translate(191.59375 353.270655) scale(0.2 -0.2)">
       <use xlink:href="#DejaVuSans-30"/>
       <use xlink:href="#DejaVuSans-2e" x="63.623047"/>
       <use xlink:href="#DejaVuSans-35" x="95.410156"/>
      </g>
     </g>
    </g>
    <g id="ytick_8">
     <g id="line2d_13">
      <g>
       <use xlink:href="#m1a8566ac19" x="230.4" y="258.047555" style="stroke: #000000; stroke-width: 0.8"/>
      </g>
     </g>
     <g id="text_14">
      <!-- 1.0 -->
      <g transform="translate(191.59375 265.645992) scale(0.2 -0.2)">
       <use xlink:href="#DejaVuSans-31"/>
       <use xlink:href="#DejaVuSans-2e" x="63.623047"/>
       <use xlink:href="#DejaVuSans-30" x="95.410156"/>
      </g>
     </g>
    </g>
    <g id="ytick_9">
     <g id="line2d_14">
      <g>
       <use xlink:href="#m1a8566ac19" x="230.4" y="170.422893" style="stroke: #000000; stroke-width: 0.8"/>
      </g>
     </g>
     <g id="text_15">
      <!-- 1.5 -->
      <g transform="translate(191.59375 178.02133) scale(0.2 -0.2)">
       <use xlink:href="#DejaVuSans-31"/>
       <use xlink:href="#DejaVuSans-2e" x="63.623047"/>
       <use xlink:href="#DejaVuSans-35" x="95.410156"/>
      </g>
     </g>
    </g>
    <g id="text_16">
     <!-- ASEM (deg/s) -->
     <g transform="translate(164.595312 610.312369) rotate(-90) scale(0.3 -0.3)">
      <defs>
       <path id="DejaVuSans-41" d="M 2188 4044 
L 1331 1722 
L 3047 1722 
L 2188 4044 
z
M 1831 4666 
L 2547 4666 
L 4325 0 
L 3669 0 
L 3244 1197 
L 1141 1197 
L 716 0 
L 50 0 
L 1831 4666 
z
" transform="scale(0.015625)"/>
       <path id="DejaVuSans-53" d="M 3425 4513 
L 3425 3897 
Q 3066 4069 2747 4153 
Q 2428 4238 2131 4238 
Q 1616 4238 1336 4038 
Q 1056 3838 1056 3469 
Q 1056 3159 1242 3001 
Q 1428 2844 1947 2747 
L 2328 2669 
Q 3034 2534 3370 2195 
Q 3706 1856 3706 1288 
Q 3706 609 3251 259 
Q 2797 -91 1919 -91 
Q 1588 -91 1214 -16 
Q 841 59 441 206 
L 441 856 
Q 825 641 1194 531 
Q 1563 422 1919 422 
Q 2459 422 2753 634 
Q 3047 847 3047 1241 
Q 3047 1584 2836 1778 
Q 2625 1972 2144 2069 
L 1759 2144 
Q 1053 2284 737 2584 
Q 422 2884 422 3419 
Q 422 4038 858 4394 
Q 1294 4750 2059 4750 
Q 2388 4750 2728 4690 
Q 3069 4631 3425 4513 
z
" transform="scale(0.015625)"/>
       <path id="DejaVuSans-45" d="M 628 4666 
L 3578 4666 
L 3578 4134 
L 1259 4134 
L 1259 2753 
L 3481 2753 
L 3481 2222 
L 1259 2222 
L 1259 531 
L 3634 531 
L 3634 0 
L 628 0 
L 628 4666 
z
" transform="scale(0.015625)"/>
       <path id="DejaVuSans-4d" d="M 628 4666 
L 1569 4666 
L 2759 1491 
L 3956 4666 
L 4897 4666 
L 4897 0 
L 4281 0 
L 4281 4097 
L 3078 897 
L 2444 897 
L 1241 4097 
L 1241 0 
L 628 0 
L 628 4666 
z
" transform="scale(0.015625)"/>
       <path id="DejaVuSans-20" transform="scale(0.015625)"/>
       <path id="DejaVuSans-64" d="M 2906 2969 
L 2906 4863 
L 3481 4863 
L 3481 0 
L 2906 0 
L 2906 525 
Q 2725 213 2448 61 
Q 2172 -91 1784 -91 
Q 1150 -91 751 415 
Q 353 922 353 1747 
Q 353 2572 751 3078 
Q 1150 3584 1784 3584 
Q 2172 3584 2448 3432 
Q 2725 3281 2906 2969 
z
M 947 1747 
Q 947 1113 1208 752 
Q 1469 391 1925 391 
Q 2381 391 2643 752 
Q 2906 1113 2906 1747 
Q 2906 2381 2643 2742 
Q 2381 3103 1925 3103 
Q 1469 3103 1208 2742 
Q 947 2381 947 1747 
z
" transform="scale(0.015625)"/>
       <path id="DejaVuSans-67" d="M 2906 1791 
Q 2906 2416 2648 2759 
Q 2391 3103 1925 3103 
Q 1463 3103 1205 2759 
Q 947 2416 947 1791 
Q 947 1169 1205 825 
Q 1463 481 1925 481 
Q 2391 481 2648 825 
Q 2906 1169 2906 1791 
z
M 3481 434 
Q 3481 -459 3084 -895 
Q 2688 -1331 1869 -1331 
Q 1566 -1331 1297 -1286 
Q 1028 -1241 775 -1147 
L 775 -588 
Q 1028 -725 1275 -790 
Q 1522 -856 1778 -856 
Q 2344 -856 2625 -561 
Q 2906 -266 2906 331 
L 2906 616 
Q 2728 306 2450 153 
Q 2172 0 1784 0 
Q 1141 0 747 490 
Q 353 981 353 1791 
Q 353 2603 747 3093 
Q 1141 3584 1784 3584 
Q 2172 3584 2450 3431 
Q 2728 3278 2906 2969 
L 2906 3500 
L 3481 3500 
L 3481 434 
z
" transform="scale(0.015625)"/>
       <path id="DejaVuSans-2f" d="M 1625 4666 
L 2156 4666 
L 531 -594 
L 0 -594 
L 1625 4666 
z
" transform="scale(0.015625)"/>
       <path id="DejaVuSans-73" d="M 2834 3397 
L 2834 2853 
Q 2591 2978 2328 3040 
Q 2066 3103 1784 3103 
Q 1356 3103 1142 2972 
Q 928 2841 928 2578 
Q 928 2378 1081 2264 
Q 1234 2150 1697 2047 
L 1894 2003 
Q 2506 1872 2764 1633 
Q 3022 1394 3022 966 
Q 3022 478 2636 193 
Q 2250 -91 1575 -91 
Q 1294 -91 989 -36 
Q 684 19 347 128 
L 347 722 
Q 666 556 975 473 
Q 1284 391 1588 391 
Q 1994 391 2212 530 
Q 2431 669 2431 922 
Q 2431 1156 2273 1281 
Q 2116 1406 1581 1522 
L 1381 1569 
Q 847 1681 609 1914 
Q 372 2147 372 2553 
Q 372 3047 722 3315 
Q 1072 3584 1716 3584 
Q 2034 3584 2315 3537 
Q 2597 3491 2834 3397 
z
" transform="scale(0.015625)"/>
      </defs>
      <use xlink:href="#DejaVuSans-41"/>
      <use xlink:href="#DejaVuSans-53" x="68.408203"/>
      <use xlink:href="#DejaVuSans-45" x="131.884766"/>
      <use xlink:href="#DejaVuSans-4d" x="195.068359"/>
      <use xlink:href="#DejaVuSans-20" x="281.347656"/>
      <use xlink:href="#DejaVuSans-28" x="313.134766"/>
      <use xlink:href="#DejaVuSans-64" x="352.148438"/>
      <use xlink:href="#DejaVuSans-65" x="415.625"/>
      <use xlink:href="#DejaVuSans-67" x="477.148438"/>
      <use xlink:href="#DejaVuSans-2f" x="540.625"/>
      <use xlink:href="#DejaVuSans-73" x="574.316406"/>
      <use xlink:href="#DejaVuSans-29" x="626.416016"/>
     </g>
    </g>
   </g>
   <g id="line2d_15">
    <path d="M 658.944 445.283826 
L 944.64 509.730856 
L 1230.336 574.776234 
L 1516.032 496.992073 
" clip-path="url(#p8cf9a47f8f)" style="fill: none; stroke: #1f77b4; stroke-opacity: 0.7; stroke-width: 2.7; stroke-linecap: square"/>
    <defs>
     <path id="mf361ac3930" d="M 0 3.383948 
C 0.897434 3.383948 1.758231 3.027394 2.392813 2.392813 
C 3.027394 1.758231 3.383948 0.897434 3.383948 0 
C 3.383948 -0.897434 3.027394 -1.758231 2.392813 -2.392813 
C 1.758231 -3.027394 0.897434 -3.383948 0 -3.383948 
C -0.897434 -3.383948 -1.758231 -3.027394 -2.392813 -2.392813 
C -3.027394 -1.758231 -3.383948 -0.897434 -3.383948 0 
C -3.383948 0.897434 -3.027394 1.758231 -2.392813 2.392813 
C -1.758231 3.027394 -0.897434 3.383948 0 3.383948 
z
" style="stroke: #1f77b4; stroke-opacity: 0.7; stroke-width: 2.025"/>
    </defs>
    <g clip-path="url(#p8cf9a47f8f)">
     <use xlink:href="#mf361ac3930" x="658.944" y="445.283826" style="fill: #1f77b4; fill-opacity: 0.7; stroke: #1f77b4; stroke-opacity: 0.7; stroke-width: 2.025"/>
     <use xlink:href="#mf361ac3930" x="944.64" y="509.730856" style="fill: #1f77b4; fill-opacity: 0.7; stroke: #1f77b4; stroke-opacity: 0.7; stroke-width: 2.025"/>
     <use xlink:href="#mf361ac3930" x="1230.336" y="574.776234" style="fill: #1f77b4; fill-opacity: 0.7; stroke: #1f77b4; stroke-opacity: 0.7; stroke-width: 2.025"/>
     <use xlink:href="#mf361ac3930" x="1516.032" y="496.992073" style="fill: #1f77b4; fill-opacity: 0.7; stroke: #1f77b4; stroke-opacity: 0.7; stroke-width: 2.025"/>
    </g>
   </g>
   <g id="line2d_16">
    <path clip-path="url(#p8cf9a47f8f)" style="fill: none; stroke: #1f77b4; stroke-opacity: 0.7; stroke-width: 2.7; stroke-linecap: square"/>
   </g>
   <g id="line2d_17">
    <path d="M 644.6592 500.330804 
L 673.2288 500.330804 
M 658.944 500.330804 
L 658.944 386.459733 
M 644.6592 386.459733 
L 673.2288 386.459733 
" clip-path="url(#p8cf9a47f8f)" style="fill: none; stroke: #1f77b4; stroke-opacity: 0.7; stroke-width: 2.7; stroke-linecap: square"/>
   </g>
   <g id="line2d_18">
    <path d="M 930.3552 565.826828 
L 958.9248 565.826828 
M 944.64 565.826828 
L 944.64 449.637913 
M 930.3552 449.637913 
L 958.9248 449.637913 
" clip-path="url(#p8cf9a47f8f)" style="fill: none; stroke: #1f77b4; stroke-opacity: 0.7; stroke-width: 2.7; stroke-linecap: square"/>
   </g>
   <g id="line2d_19">
    <path d="M 1216.0512 623.36833 
L 1244.6208 623.36833 
M 1230.336 623.36833 
L 1230.336 526.09983 
M 1216.0512 526.09983 
L 1244.6208 526.09983 
" clip-path="url(#p8cf9a47f8f)" style="fill: none; stroke: #1f77b4; stroke-opacity: 0.7; stroke-width: 2.7; stroke-linecap: square"/>
   </g>
   <g id="line2d_20">
    <path d="M 1501.7472 563.223448 
L 1530.3168 563.223448 
M 1516.032 563.223448 
L 1516.032 423.484625 
M 1501.7472 423.484625 
L 1530.3168 423.484625 
" clip-path="url(#p8cf9a47f8f)" style="fill: none; stroke: #1f77b4; stroke-opacity: 0.7; stroke-width: 2.7; stroke-linecap: square"/>
   </g>
   <g id="line2d_21">
    <path d="M 373.248 264.098516 
L 658.944 437.296437 
L 944.64 494.747497 
L 1230.336 518.426428 
" clip-path="url(#p8cf9a47f8f)" style="fill: none; stroke: #aec7e8; stroke-opacity: 0.7; stroke-width: 2.7; stroke-linecap: square"/>
    <defs>
     <path id="m190d408aff" d="M 0 3.383948 
C 0.897434 3.383948 1.758231 3.027394 2.392813 2.392813 
C 3.027394 1.758231 3.383948 0.897434 3.383948 0 
C 3.383948 -0.897434 3.027394 -1.758231 2.392813 -2.392813 
C 1.758231 -3.027394 0.897434 -3.383948 0 -3.383948 
C -0.897434 -3.383948 -1.758231 -3.027394 -2.392813 -2.392813 
C -3.027394 -1.758231 -3.383948 -0.897434 -3.383948 0 
C -3.383948 0.897434 -3.027394 1.758231 -2.392813 2.392813 
C -1.758231 3.027394 -0.897434 3.383948 0 3.383948 
z
" style="stroke: #aec7e8; stroke-opacity: 0.7; stroke-width: 2.025"/>
    </defs>
    <g clip-path="url(#p8cf9a47f8f)">
     <use xlink:href="#m190d408aff" x="373.248" y="264.098516" style="fill: #aec7e8; fill-opacity: 0.7; stroke: #aec7e8; stroke-opacity: 0.7; stroke-width: 2.025"/>
     <use xlink:href="#m190d408aff" x="658.944" y="437.296437" style="fill: #aec7e8; fill-opacity: 0.7; stroke: #aec7e8; stroke-opacity: 0.7; stroke-width: 2.025"/>
     <use xlink:href="#m190d408aff" x="944.64" y="494.747497" style="fill: #aec7e8; fill-opacity: 0.7; stroke: #aec7e8; stroke-opacity: 0.7; stroke-width: 2.025"/>
     <use xlink:href="#m190d408aff" x="1230.336" y="518.426428" style="fill: #aec7e8; fill-opacity: 0.7; stroke: #aec7e8; stroke-opacity: 0.7; stroke-width: 2.025"/>
    </g>
   </g>
   <g id="line2d_22">
    <path d="M 358.9632 323.733772 
L 387.5328 323.733772 
M 373.248 323.733772 
L 373.248 203.012439 
M 358.9632 203.012439 
L 387.5328 203.012439 
" clip-path="url(#p8cf9a47f8f)" style="fill: none; stroke: #aec7e8; stroke-opacity: 0.7; stroke-width: 2.7; stroke-linecap: square"/>
   </g>
   <g id="line2d_23">
    <path d="M 644.6592 485.781812 
L 673.2288 485.781812 
M 658.944 485.781812 
L 658.944 387.813823 
M 644.6592 387.813823 
L 673.2288 387.813823 
" clip-path="url(#p8cf9a47f8f)" style="fill: none; stroke: #aec7e8; stroke-opacity: 0.7; stroke-width: 2.7; stroke-linecap: square"/>
   </g>
   <g id="line2d_24">
    <path d="M 930.3552 542.037256 
L 958.9248 542.037256 
M 944.64 542.037256 
L 944.64 444.80395 
M 930.3552 444.80395 
L 958.9248 444.80395 
" clip-path="url(#p8cf9a47f8f)" style="fill: none; stroke: #aec7e8; stroke-opacity: 0.7; stroke-width: 2.7; stroke-linecap: square"/>
   </g>
   <g id="line2d_25">
    <path d="M 1216.0512 569.327594 
L 1244.6208 569.327594 
M 1230.336 569.327594 
L 1230.336 466.167111 
M 1216.0512 466.167111 
L 1244.6208 466.167111 
" clip-path="url(#p8cf9a47f8f)" style="fill: none; stroke: #aec7e8; stroke-opacity: 0.7; stroke-width: 2.7; stroke-linecap: square"/>
   </g>
   <g id="line2d_26">
    <path clip-path="url(#p8cf9a47f8f)" style="fill: none; stroke: #aec7e8; stroke-opacity: 0.7; stroke-width: 2.7; stroke-linecap: square"/>
   </g>
   <g id="line2d_27">
    <path d="M 373.248 392.724172 
L 658.944 462.238745 
L 944.64 455.33498 
L 1230.336 342.643379 
" clip-path="url(#p8cf9a47f8f)" style="fill: none; stroke: #ff7f0e; stroke-opacity: 0.7; stroke-width: 2.7; stroke-linecap: square"/>
    <defs>
     <path id="m4dd0af92ad" d="M 0 3.383948 
C 0.897434 3.383948 1.758231 3.027394 2.392813 2.392813 
C 3.027394 1.758231 3.383948 0.897434 3.383948 0 
C 3.383948 -0.897434 3.027394 -1.758231 2.392813 -2.392813 
C 1.758231 -3.027394 0.897434 -3.383948 0 -3.383948 
C -0.897434 -3.383948 -1.758231 -3.027394 -2.392813 -2.392813 
C -3.027394 -1.758231 -3.383948 -0.897434 -3.383948 0 
C -3.383948 0.897434 -3.027394 1.758231 -2.392813 2.392813 
C -1.758231 3.027394 -0.897434 3.383948 0 3.383948 
z
" style="stroke: #ff7f0e; stroke-opacity: 0.7; stroke-width: 2.025"/>
    </defs>
    <g clip-path="url(#p8cf9a47f8f)">
     <use xlink:href="#m4dd0af92ad" x="373.248" y="392.724172" style="fill: #ff7f0e; fill-opacity: 0.7; stroke: #ff7f0e; stroke-opacity: 0.7; stroke-width: 2.025"/>
     <use xlink:href="#m4dd0af92ad" x="658.944" y="462.238745" style="fill: #ff7f0e; fill-opacity: 0.7; stroke: #ff7f0e; stroke-opacity: 0.7; stroke-width: 2.025"/>
     <use xlink:href="#m4dd0af92ad" x="944.64" y="455.33498" style="fill: #ff7f0e; fill-opacity: 0.7; stroke: #ff7f0e; stroke-opacity: 0.7; stroke-width: 2.025"/>
     <use xlink:href="#m4dd0af92ad" x="1230.336" y="342.643379" style="fill: #ff7f0e; fill-opacity: 0.7; stroke: #ff7f0e; stroke-opacity: 0.7; stroke-width: 2.025"/>
    </g>
   </g>
   <g id="line2d_28">
    <path d="M 358.9632 444.586226 
L 387.5328 444.586226 
M 373.248 444.586226 
L 373.248 341.78889 
M 358.9632 341.78889 
L 387.5328 341.78889 
" clip-path="url(#p8cf9a47f8f)" style="fill: none; stroke: #ff7f0e; stroke-opacity: 0.7; stroke-width: 2.7; stroke-linecap: square"/>
   </g>
   <g id="line2d_29">
    <path d="M 644.6592 523.230685 
L 673.2288 523.230685 
M 658.944 523.230685 
L 658.944 403.209839 
M 644.6592 403.209839 
L 673.2288 403.209839 
" clip-path="url(#p8cf9a47f8f)" style="fill: none; stroke: #ff7f0e; stroke-opacity: 0.7; stroke-width: 2.7; stroke-linecap: square"/>
   </g>
   <g id="line2d_30">
    <path d="M 930.3552 524.315473 
L 958.9248 524.315473 
M 944.64 524.315473 
L 944.64 390.830301 
M 930.3552 390.830301 
L 958.9248 390.830301 
" clip-path="url(#p8cf9a47f8f)" style="fill: none; stroke: #ff7f0e; stroke-opacity: 0.7; stroke-width: 2.7; stroke-linecap: square"/>
   </g>
   <g id="line2d_31">
    <path d="M 1216.0512 404.890396 
L 1244.6208 404.890396 
M 1230.336 404.890396 
L 1230.336 278.474898 
M 1216.0512 278.474898 
L 1244.6208 278.474898 
" clip-path="url(#p8cf9a47f8f)" style="fill: none; stroke: #ff7f0e; stroke-opacity: 0.7; stroke-width: 2.7; stroke-linecap: square"/>
   </g>
   <g id="line2d_32">
    <path clip-path="url(#p8cf9a47f8f)" style="fill: none; stroke: #ff7f0e; stroke-opacity: 0.7; stroke-width: 2.7; stroke-linecap: square"/>
   </g>
   <g id="line2d_33">
    <path d="M 658.944 301.842649 
L 944.64 471.900143 
L 1230.336 474.849928 
L 1516.032 707.995263 
" clip-path="url(#p8cf9a47f8f)" style="fill: none; stroke: #ffbb78; stroke-opacity: 0.7; stroke-width: 2.7; stroke-linecap: square"/>
    <defs>
     <path id="mbed96a5f5f" d="M 0 3.383948 
C 0.897434 3.383948 1.758231 3.027394 2.392813 2.392813 
C 3.027394 1.758231 3.383948 0.897434 3.383948 0 
C 3.383948 -0.897434 3.027394 -1.758231 2.392813 -2.392813 
C 1.758231 -3.027394 0.897434 -3.383948 0 -3.383948 
C -0.897434 -3.383948 -1.758231 -3.027394 -2.392813 -2.392813 
C -3.027394 -1.758231 -3.383948 -0.897434 -3.383948 0 
C -3.383948 0.897434 -3.027394 1.758231 -2.392813 2.392813 
C -1.758231 3.027394 -0.897434 3.383948 0 3.383948 
z
" style="stroke: #ffbb78; stroke-opacity: 0.7; stroke-width: 2.025"/>
    </defs>
    <g clip-path="url(#p8cf9a47f8f)">
     <use xlink:href="#mbed96a5f5f" x="658.944" y="301.842649" style="fill: #ffbb78; fill-opacity: 0.7; stroke: #ffbb78; stroke-opacity: 0.7; stroke-width: 2.025"/>
     <use xlink:href="#mbed96a5f5f" x="944.64" y="471.900143" style="fill: #ffbb78; fill-opacity: 0.7; stroke: #ffbb78; stroke-opacity: 0.7; stroke-width: 2.025"/>
     <use xlink:href="#mbed96a5f5f" x="1230.336" y="474.849928" style="fill: #ffbb78; fill-opacity: 0.7; stroke: #ffbb78; stroke-opacity: 0.7; stroke-width: 2.025"/>
     <use xlink:href="#mbed96a5f5f" x="1516.032" y="707.995263" style="fill: #ffbb78; fill-opacity: 0.7; stroke: #ffbb78; stroke-opacity: 0.7; stroke-width: 2.025"/>
    </g>
   </g>
   <g id="line2d_34">
    <path clip-path="url(#p8cf9a47f8f)" style="fill: none; stroke: #ffbb78; stroke-opacity: 0.7; stroke-width: 2.7; stroke-linecap: square"/>
   </g>
   <g id="line2d_35">
    <path d="M 644.6592 360.458299 
L 673.2288 360.458299 
M 658.944 360.458299 
L 658.944 235.160775 
M 644.6592 235.160775 
L 673.2288 235.160775 
" clip-path="url(#p8cf9a47f8f)" style="fill: none; stroke: #ffbb78; stroke-opacity: 0.7; stroke-width: 2.7; stroke-linecap: square"/>
   </g>
   <g id="line2d_36">
    <path d="M 930.3552 530.93091 
L 958.9248 530.93091 
M 944.64 530.93091 
L 944.64 415.543809 
M 930.3552 415.543809 
L 958.9248 415.543809 
" clip-path="url(#p8cf9a47f8f)" style="fill: none; stroke: #ffbb78; stroke-opacity: 0.7; stroke-width: 2.7; stroke-linecap: square"/>
   </g>
   <g id="line2d_37">
    <path d="M 1216.0512 536.79963 
L 1244.6208 536.79963 
M 1230.336 536.79963 
L 1230.336 412.449427 
M 1216.0512 412.449427 
L 1244.6208 412.449427 
" clip-path="url(#p8cf9a47f8f)" style="fill: none; stroke: #ffbb78; stroke-opacity: 0.7; stroke-width: 2.7; stroke-linecap: square"/>
   </g>
   <g id="line2d_38">
    <path d="M 1501.7472 777.913943 
L 1530.3168 777.913943 
M 1516.032 777.913943 
L 1516.032 634.228997 
M 1501.7472 634.228997 
L 1530.3168 634.228997 
" clip-path="url(#p8cf9a47f8f)" style="fill: none; stroke: #ffbb78; stroke-opacity: 0.7; stroke-width: 2.7; stroke-linecap: square"/>
   </g>
   <g id="line2d_39">
    <path d="M 658.944 333.874104 
L 944.64 370.452903 
L 1230.336 393.174236 
L 1516.032 792.459791 
" clip-path="url(#p8cf9a47f8f)" style="fill: none; stroke: #2ca02c; stroke-opacity: 0.7; stroke-width: 2.7; stroke-linecap: square"/>
    <defs>
     <path id="m8a00991d45" d="M 0 3.383948 
C 0.897434 3.383948 1.758231 3.027394 2.392813 2.392813 
C 3.027394 1.758231 3.383948 0.897434 3.383948 0 
C 3.383948 -0.897434 3.027394 -1.758231 2.392813 -2.392813 
C 1.758231 -3.027394 0.897434 -3.383948 0 -3.383948 
C -0.897434 -3.383948 -1.758231 -3.027394 -2.392813 -2.392813 
C -3.027394 -1.758231 -3.383948 -0.897434 -3.383948 0 
C -3.383948 0.897434 -3.027394 1.758231 -2.392813 2.392813 
C -1.758231 3.027394 -0.897434 3.383948 0 3.383948 
z
" style="stroke: #2ca02c; stroke-opacity: 0.7; stroke-width: 2.025"/>
    </defs>
    <g clip-path="url(#p8cf9a47f8f)">
     <use xlink:href="#m8a00991d45" x="658.944" y="333.874104" style="fill: #2ca02c; fill-opacity: 0.7; stroke: #2ca02c; stroke-opacity: 0.7; stroke-width: 2.025"/>
     <use xlink:href="#m8a00991d45" x="944.64" y="370.452903" style="fill: #2ca02c; fill-opacity: 0.7; stroke: #2ca02c; stroke-opacity: 0.7; stroke-width: 2.025"/>
     <use xlink:href="#m8a00991d45" x="1230.336" y="393.174236" style="fill: #2ca02c; fill-opacity: 0.7; stroke: #2ca02c; stroke-opacity: 0.7; stroke-width: 2.025"/>
     <use xlink:href="#m8a00991d45" x="1516.032" y="792.459791" style="fill: #2ca02c; fill-opacity: 0.7; stroke: #2ca02c; stroke-opacity: 0.7; stroke-width: 2.025"/>
    </g>
   </g>
   <g id="line2d_40">
    <path clip-path="url(#p8cf9a47f8f)" style="fill: none; stroke: #2ca02c; stroke-opacity: 0.7; stroke-width: 2.7; stroke-linecap: square"/>
   </g>
   <g id="line2d_41">
    <path d="M 644.6592 377.58331 
L 673.2288 377.58331 
M 658.944 377.58331 
L 658.944 284.972502 
M 644.6592 284.972502 
L 673.2288 284.972502 
" clip-path="url(#p8cf9a47f8f)" style="fill: none; stroke: #2ca02c; stroke-opacity: 0.7; stroke-width: 2.7; stroke-linecap: square"/>
   </g>
   <g id="line2d_42">
    <path d="M 930.3552 432.256625 
L 958.9248 432.256625 
M 944.64 432.256625 
L 944.64 309.661044 
M 930.3552 309.661044 
L 958.9248 309.661044 
" clip-path="url(#p8cf9a47f8f)" style="fill: none; stroke: #2ca02c; stroke-opacity: 0.7; stroke-width: 2.7; stroke-linecap: square"/>
   </g>
   <g id="line2d_43">
    <path d="M 1216.0512 431.645524 
L 1244.6208 431.645524 
M 1230.336 431.645524 
L 1230.336 356.124965 
M 1216.0512 356.124965 
L 1244.6208 356.124965 
" clip-path="url(#p8cf9a47f8f)" style="fill: none; stroke: #2ca02c; stroke-opacity: 0.7; stroke-width: 2.7; stroke-linecap: square"/>
   </g>
   <g id="line2d_44">
    <path d="M 1501.7472 864.3024 
L 1530.3168 864.3024 
M 1516.032 864.3024 
L 1516.032 726.239989 
M 1501.7472 726.239989 
L 1530.3168 726.239989 
" clip-path="url(#p8cf9a47f8f)" style="fill: none; stroke: #2ca02c; stroke-opacity: 0.7; stroke-width: 2.7; stroke-linecap: square"/>
   </g>
   <g id="line2d_45">
    <path d="M 373.248 408.512056 
L 658.944 466.70063 
L 944.64 457.409792 
L 1230.336 501.529299 
" clip-path="url(#p8cf9a47f8f)" style="fill: none; stroke: #98df8a; stroke-opacity: 0.7; stroke-width: 2.7; stroke-linecap: square"/>
    <defs>
     <path id="m36f46cfb90" d="M 0 3.383948 
C 0.897434 3.383948 1.758231 3.027394 2.392813 2.392813 
C 3.027394 1.758231 3.383948 0.897434 3.383948 0 
C 3.383948 -0.897434 3.027394 -1.758231 2.392813 -2.392813 
C 1.758231 -3.027394 0.897434 -3.383948 0 -3.383948 
C -0.897434 -3.383948 -1.758231 -3.027394 -2.392813 -2.392813 
C -3.027394 -1.758231 -3.383948 -0.897434 -3.383948 0 
C -3.383948 0.897434 -3.027394 1.758231 -2.392813 2.392813 
C -1.758231 3.027394 -0.897434 3.383948 0 3.383948 
z
" style="stroke: #98df8a; stroke-opacity: 0.7; stroke-width: 2.025"/>
    </defs>
    <g clip-path="url(#p8cf9a47f8f)">
     <use xlink:href="#m36f46cfb90" x="373.248" y="408.512056" style="fill: #98df8a; fill-opacity: 0.7; stroke: #98df8a; stroke-opacity: 0.7; stroke-width: 2.025"/>
     <use xlink:href="#m36f46cfb90" x="658.944" y="466.70063" style="fill: #98df8a; fill-opacity: 0.7; stroke: #98df8a; stroke-opacity: 0.7; stroke-width: 2.025"/>
     <use xlink:href="#m36f46cfb90" x="944.64" y="457.409792" style="fill: #98df8a; fill-opacity: 0.7; stroke: #98df8a; stroke-opacity: 0.7; stroke-width: 2.025"/>
     <use xlink:href="#m36f46cfb90" x="1230.336" y="501.529299" style="fill: #98df8a; fill-opacity: 0.7; stroke: #98df8a; stroke-opacity: 0.7; stroke-width: 2.025"/>
    </g>
   </g>
   <g id="line2d_46">
    <path d="M 358.9632 466.288619 
L 387.5328 466.288619 
M 373.248 466.288619 
L 373.248 357.009505 
M 358.9632 357.009505 
L 387.5328 357.009505 
" clip-path="url(#p8cf9a47f8f)" style="fill: none; stroke: #98df8a; stroke-opacity: 0.7; stroke-width: 2.7; stroke-linecap: square"/>
   </g>
   <g id="line2d_47">
    <path d="M 644.6592 518.548082 
L 673.2288 518.548082 
M 658.944 518.548082 
L 658.944 418.702949 
M 644.6592 418.702949 
L 673.2288 418.702949 
" clip-path="url(#p8cf9a47f8f)" style="fill: none; stroke: #98df8a; stroke-opacity: 0.7; stroke-width: 2.7; stroke-linecap: square"/>
   </g>
   <g id="line2d_48">
    <path d="M 930.3552 501.598574 
L 958.9248 501.598574 
M 944.64 501.598574 
L 944.64 413.205797 
M 930.3552 413.205797 
L 958.9248 413.205797 
" clip-path="url(#p8cf9a47f8f)" style="fill: none; stroke: #98df8a; stroke-opacity: 0.7; stroke-width: 2.7; stroke-linecap: square"/>
   </g>
   <g id="line2d_49">
    <path d="M 1216.0512 544.867134 
L 1244.6208 544.867134 
M 1230.336 544.867134 
L 1230.336 461.05302 
M 1216.0512 461.05302 
L 1244.6208 461.05302 
" clip-path="url(#p8cf9a47f8f)" style="fill: none; stroke: #98df8a; stroke-opacity: 0.7; stroke-width: 2.7; stroke-linecap: square"/>
   </g>
   <g id="line2d_50">
    <path clip-path="url(#p8cf9a47f8f)" style="fill: none; stroke: #98df8a; stroke-opacity: 0.7; stroke-width: 2.7; stroke-linecap: square"/>
   </g>
   <g id="line2d_51">
    <path d="M 373.248 247.336841 
L 658.944 367.068307 
L 944.64 439.0773 
L 1230.336 525.246587 
" clip-path="url(#p8cf9a47f8f)" style="fill: none; stroke: #d62728; stroke-opacity: 0.7; stroke-width: 2.7; stroke-linecap: square"/>
    <defs>
     <path id="m9288642567" d="M 0 3.383948 
C 0.897434 3.383948 1.758231 3.027394 2.392813 2.392813 
C 3.027394 1.758231 3.383948 0.897434 3.383948 0 
C 3.383948 -0.897434 3.027394 -1.758231 2.392813 -2.392813 
C 1.758231 -3.027394 0.897434 -3.383948 0 -3.383948 
C -0.897434 -3.383948 -1.758231 -3.027394 -2.392813 -2.392813 
C -3.027394 -1.758231 -3.383948 -0.897434 -3.383948 0 
C -3.383948 0.897434 -3.027394 1.758231 -2.392813 2.392813 
C -1.758231 3.027394 -0.897434 3.383948 0 3.383948 
z
" style="stroke: #d62728; stroke-opacity: 0.7; stroke-width: 2.025"/>
    </defs>
    <g clip-path="url(#p8cf9a47f8f)">
     <use xlink:href="#m9288642567" x="373.248" y="247.336841" style="fill: #d62728; fill-opacity: 0.7; stroke: #d62728; stroke-opacity: 0.7; stroke-width: 2.025"/>
     <use xlink:href="#m9288642567" x="658.944" y="367.068307" style="fill: #d62728; fill-opacity: 0.7; stroke: #d62728; stroke-opacity: 0.7; stroke-width: 2.025"/>
     <use xlink:href="#m9288642567" x="944.64" y="439.0773" style="fill: #d62728; fill-opacity: 0.7; stroke: #d62728; stroke-opacity: 0.7; stroke-width: 2.025"/>
     <use xlink:href="#m9288642567" x="1230.336" y="525.246587" style="fill: #d62728; fill-opacity: 0.7; stroke: #d62728; stroke-opacity: 0.7; stroke-width: 2.025"/>
    </g>
   </g>
   <g id="line2d_52">
    <path d="M 358.9632 316.401925 
L 387.5328 316.401925 
M 373.248 316.401925 
L 373.248 177.655525 
M 358.9632 177.655525 
L 387.5328 177.655525 
" clip-path="url(#p8cf9a47f8f)" style="fill: none; stroke: #d62728; stroke-opacity: 0.7; stroke-width: 2.7; stroke-linecap: square"/>
   </g>
   <g id="line2d_53">
    <path d="M 644.6592 445.811672 
L 673.2288 445.811672 
M 658.944 445.811672 
L 658.944 287.533441 
M 644.6592 287.533441 
L 673.2288 287.533441 
" clip-path="url(#p8cf9a47f8f)" style="fill: none; stroke: #d62728; stroke-opacity: 0.7; stroke-width: 2.7; stroke-linecap: square"/>
   </g>
   <g id="line2d_54">
    <path d="M 930.3552 514.412618 
L 958.9248 514.412618 
M 944.64 514.412618 
L 944.64 367.051434 
M 930.3552 367.051434 
L 958.9248 367.051434 
" clip-path="url(#p8cf9a47f8f)" style="fill: none; stroke: #d62728; stroke-opacity: 0.7; stroke-width: 2.7; stroke-linecap: square"/>
   </g>
   <g id="line2d_55">
    <path d="M 1216.0512 582.802159 
L 1244.6208 582.802159 
M 1230.336 582.802159 
L 1230.336 464.955061 
M 1216.0512 464.955061 
L 1244.6208 464.955061 
" clip-path="url(#p8cf9a47f8f)" style="fill: none; stroke: #d62728; stroke-opacity: 0.7; stroke-width: 2.7; stroke-linecap: square"/>
   </g>
   <g id="line2d_56">
    <path clip-path="url(#p8cf9a47f8f)" style="fill: none; stroke: #d62728; stroke-opacity: 0.7; stroke-width: 2.7; stroke-linecap: square"/>
   </g>
   <g id="line2d_57">
    <path d="M 373.248 234.921848 
L 658.944 391.680876 
L 944.64 410.649835 
L 1230.336 482.706153 
" clip-path="url(#p8cf9a47f8f)" style="fill: none; stroke: #ff9896; stroke-opacity: 0.7; stroke-width: 2.7; stroke-linecap: square"/>
    <defs>
     <path id="mc15532e446" d="M 0 3.383948 
C 0.897434 3.383948 1.758231 3.027394 2.392813 2.392813 
C 3.027394 1.758231 3.383948 0.897434 3.383948 0 
C 3.383948 -0.897434 3.027394 -1.758231 2.392813 -2.392813 
C 1.758231 -3.027394 0.897434 -3.383948 0 -3.383948 
C -0.897434 -3.383948 -1.758231 -3.027394 -2.392813 -2.392813 
C -3.027394 -1.758231 -3.383948 -0.897434 -3.383948 0 
C -3.383948 0.897434 -3.027394 1.758231 -2.392813 2.392813 
C -1.758231 3.027394 -0.897434 3.383948 0 3.383948 
z
" style="stroke: #ff9896; stroke-opacity: 0.7; stroke-width: 2.025"/>
    </defs>
    <g clip-path="url(#p8cf9a47f8f)">
     <use xlink:href="#mc15532e446" x="373.248" y="234.921848" style="fill: #ff9896; fill-opacity: 0.7; stroke: #ff9896; stroke-opacity: 0.7; stroke-width: 2.025"/>
     <use xlink:href="#mc15532e446" x="658.944" y="391.680876" style="fill: #ff9896; fill-opacity: 0.7; stroke: #ff9896; stroke-opacity: 0.7; stroke-width: 2.025"/>
     <use xlink:href="#mc15532e446" x="944.64" y="410.649835" style="fill: #ff9896; fill-opacity: 0.7; stroke: #ff9896; stroke-opacity: 0.7; stroke-width: 2.025"/>
     <use xlink:href="#mc15532e446" x="1230.336" y="482.706153" style="fill: #ff9896; fill-opacity: 0.7; stroke: #ff9896; stroke-opacity: 0.7; stroke-width: 2.025"/>
    </g>
   </g>
   <g id="line2d_58">
    <path d="M 358.9632 309.182314 
L 387.5328 309.182314 
M 373.248 309.182314 
L 373.248 156.6864 
M 358.9632 156.6864 
L 387.5328 156.6864 
" clip-path="url(#p8cf9a47f8f)" style="fill: none; stroke: #ff9896; stroke-opacity: 0.7; stroke-width: 2.7; stroke-linecap: square"/>
   </g>
   <g id="line2d_59">
    <path d="M 644.6592 458.944771 
L 673.2288 458.944771 
M 658.944 458.944771 
L 658.944 337.751472 
M 644.6592 337.751472 
L 673.2288 337.751472 
" clip-path="url(#p8cf9a47f8f)" style="fill: none; stroke: #ff9896; stroke-opacity: 0.7; stroke-width: 2.7; stroke-linecap: square"/>
   </g>
   <g id="line2d_60">
    <path d="M 930.3552 462.274542 
L 958.9248 462.274542 
M 944.64 462.274542 
L 944.64 357.806697 
M 930.3552 357.806697 
L 958.9248 357.806697 
" clip-path="url(#p8cf9a47f8f)" style="fill: none; stroke: #ff9896; stroke-opacity: 0.7; stroke-width: 2.7; stroke-linecap: square"/>
   </g>
   <g id="line2d_61">
    <path d="M 1216.0512 568.370545 
L 1244.6208 568.370545 
M 1230.336 568.370545 
L 1230.336 407.595056 
M 1216.0512 407.595056 
L 1244.6208 407.595056 
" clip-path="url(#p8cf9a47f8f)" style="fill: none; stroke: #ff9896; stroke-opacity: 0.7; stroke-width: 2.7; stroke-linecap: square"/>
   </g>
   <g id="line2d_62">
    <path clip-path="url(#p8cf9a47f8f)" style="fill: none; stroke: #ff9896; stroke-opacity: 0.7; stroke-width: 2.7; stroke-linecap: square"/>
   </g>
   <g id="line2d_63">
    <path d="M 658.944 413.8836 
L 944.64 412.021921 
L 1230.336 419.910424 
L 1516.032 591.131831 
" clip-path="url(#p8cf9a47f8f)" style="fill: none; stroke: #9467bd; stroke-opacity: 0.7; stroke-width: 2.7; stroke-linecap: square"/>
    <defs>
     <path id="m4aa3a823c5" d="M 0 3.383948 
C 0.897434 3.383948 1.758231 3.027394 2.392813 2.392813 
C 3.027394 1.758231 3.383948 0.897434 3.383948 0 
C 3.383948 -0.897434 3.027394 -1.758231 2.392813 -2.392813 
C 1.758231 -3.027394 0.897434 -3.383948 0 -3.383948 
C -0.897434 -3.383948 -1.758231 -3.027394 -2.392813 -2.392813 
C -3.027394 -1.758231 -3.383948 -0.897434 -3.383948 0 
C -3.383948 0.897434 -3.027394 1.758231 -2.392813 2.392813 
C -1.758231 3.027394 -0.897434 3.383948 0 3.383948 
z
" style="stroke: #9467bd; stroke-opacity: 0.7; stroke-width: 2.025"/>
    </defs>
    <g clip-path="url(#p8cf9a47f8f)">
     <use xlink:href="#m4aa3a823c5" x="658.944" y="413.8836" style="fill: #9467bd; fill-opacity: 0.7; stroke: #9467bd; stroke-opacity: 0.7; stroke-width: 2.025"/>
     <use xlink:href="#m4aa3a823c5" x="944.64" y="412.021921" style="fill: #9467bd; fill-opacity: 0.7; stroke: #9467bd; stroke-opacity: 0.7; stroke-width: 2.025"/>
     <use xlink:href="#m4aa3a823c5" x="1230.336" y="419.910424" style="fill: #9467bd; fill-opacity: 0.7; stroke: #9467bd; stroke-opacity: 0.7; stroke-width: 2.025"/>
     <use xlink:href="#m4aa3a823c5" x="1516.032" y="591.131831" style="fill: #9467bd; fill-opacity: 0.7; stroke: #9467bd; stroke-opacity: 0.7; stroke-width: 2.025"/>
    </g>
   </g>
   <g id="line2d_64">
    <path clip-path="url(#p8cf9a47f8f)" style="fill: none; stroke: #9467bd; stroke-opacity: 0.7; stroke-width: 2.7; stroke-linecap: square"/>
   </g>
   <g id="line2d_65">
    <path d="M 644.6592 466.737133 
L 673.2288 466.737133 
M 658.944 466.737133 
L 658.944 361.470285 
M 644.6592 361.470285 
L 673.2288 361.470285 
" clip-path="url(#p8cf9a47f8f)" style="fill: none; stroke: #9467bd; stroke-opacity: 0.7; stroke-width: 2.7; stroke-linecap: square"/>
   </g>
   <g id="line2d_66">
    <path d="M 930.3552 453.107851 
L 958.9248 453.107851 
M 944.64 453.107851 
L 944.64 368.494703 
M 930.3552 368.494703 
L 958.9248 368.494703 
" clip-path="url(#p8cf9a47f8f)" style="fill: none; stroke: #9467bd; stroke-opacity: 0.7; stroke-width: 2.7; stroke-linecap: square"/>
   </g>
   <g id="line2d_67">
    <path d="M 1216.0512 480.152405 
L 1244.6208 480.152405 
M 1230.336 480.152405 
L 1230.336 364.014286 
M 1216.0512 364.014286 
L 1244.6208 364.014286 
" clip-path="url(#p8cf9a47f8f)" style="fill: none; stroke: #9467bd; stroke-opacity: 0.7; stroke-width: 2.7; stroke-linecap: square"/>
   </g>
   <g id="line2d_68">
    <path d="M 1501.7472 635.295479 
L 1530.3168 635.295479 
M 1516.032 635.295479 
L 1516.032 547.436711 
M 1501.7472 547.436711 
L 1530.3168 547.436711 
" clip-path="url(#p8cf9a47f8f)" style="fill: none; stroke: #9467bd; stroke-opacity: 0.7; stroke-width: 2.7; stroke-linecap: square"/>
   </g>
   <g id="line2d_69">
    <path d="M 658.944 345.693512 
L 944.64 419.751317 
L 1230.336 460.950905 
L 1516.032 524.024179 
" clip-path="url(#p8cf9a47f8f)" style="fill: none; stroke: #c5b0d5; stroke-opacity: 0.7; stroke-width: 2.7; stroke-linecap: square"/>
    <defs>
     <path id="mad47e4a6d2" d="M 0 3.383948 
C 0.897434 3.383948 1.758231 3.027394 2.392813 2.392813 
C 3.027394 1.758231 3.383948 0.897434 3.383948 0 
C 3.383948 -0.897434 3.027394 -1.758231 2.392813 -2.392813 
C 1.758231 -3.027394 0.897434 -3.383948 0 -3.383948 
C -0.897434 -3.383948 -1.758231 -3.027394 -2.392813 -2.392813 
C -3.027394 -1.758231 -3.383948 -0.897434 -3.383948 0 
C -3.383948 0.897434 -3.027394 1.758231 -2.392813 2.392813 
C -1.758231 3.027394 -0.897434 3.383948 0 3.383948 
z
" style="stroke: #c5b0d5; stroke-opacity: 0.7; stroke-width: 2.025"/>
    </defs>
    <g clip-path="url(#p8cf9a47f8f)">
     <use xlink:href="#mad47e4a6d2" x="658.944" y="345.693512" style="fill: #c5b0d5; fill-opacity: 0.7; stroke: #c5b0d5; stroke-opacity: 0.7; stroke-width: 2.025"/>
     <use xlink:href="#mad47e4a6d2" x="944.64" y="419.751317" style="fill: #c5b0d5; fill-opacity: 0.7; stroke: #c5b0d5; stroke-opacity: 0.7; stroke-width: 2.025"/>
     <use xlink:href="#mad47e4a6d2" x="1230.336" y="460.950905" style="fill: #c5b0d5; fill-opacity: 0.7; stroke: #c5b0d5; stroke-opacity: 0.7; stroke-width: 2.025"/>
     <use xlink:href="#mad47e4a6d2" x="1516.032" y="524.024179" style="fill: #c5b0d5; fill-opacity: 0.7; stroke: #c5b0d5; stroke-opacity: 0.7; stroke-width: 2.025"/>
    </g>
   </g>
   <g id="line2d_70">
    <path clip-path="url(#p8cf9a47f8f)" style="fill: none; stroke: #c5b0d5; stroke-opacity: 0.7; stroke-width: 2.7; stroke-linecap: square"/>
   </g>
   <g id="line2d_71">
    <path d="M 644.6592 394.699777 
L 673.2288 394.699777 
M 658.944 394.699777 
L 658.944 292.08558 
M 644.6592 292.08558 
L 673.2288 292.08558 
" clip-path="url(#p8cf9a47f8f)" style="fill: none; stroke: #c5b0d5; stroke-opacity: 0.7; stroke-width: 2.7; stroke-linecap: square"/>
   </g>
   <g id="line2d_72">
    <path d="M 930.3552 468.952208 
L 958.9248 468.952208 
M 944.64 468.952208 
L 944.64 372.074044 
M 930.3552 372.074044 
L 958.9248 372.074044 
" clip-path="url(#p8cf9a47f8f)" style="fill: none; stroke: #c5b0d5; stroke-opacity: 0.7; stroke-width: 2.7; stroke-linecap: square"/>
   </g>
   <g id="line2d_73">
    <path d="M 1216.0512 501.981595 
L 1244.6208 501.981595 
M 1230.336 501.981595 
L 1230.336 412.722282 
M 1216.0512 412.722282 
L 1244.6208 412.722282 
" clip-path="url(#p8cf9a47f8f)" style="fill: none; stroke: #c5b0d5; stroke-opacity: 0.7; stroke-width: 2.7; stroke-linecap: square"/>
   </g>
   <g id="line2d_74">
    <path d="M 1501.7472 575.372104 
L 1530.3168 575.372104 
M 1516.032 575.372104 
L 1516.032 474.714637 
M 1501.7472 474.714637 
L 1530.3168 474.714637 
" clip-path="url(#p8cf9a47f8f)" style="fill: none; stroke: #c5b0d5; stroke-opacity: 0.7; stroke-width: 2.7; stroke-linecap: square"/>
   </g>
   <g id="line2d_75">
    <path d="M 658.944 379.168564 
L 944.64 460.73603 
L 1230.336 440.566548 
L 1516.032 594.65392 
" clip-path="url(#p8cf9a47f8f)" style="fill: none; stroke: #8c564b; stroke-opacity: 0.7; stroke-width: 2.7; stroke-linecap: square"/>
    <defs>
     <path id="ma57de2c7df" d="M 0 3.383948 
C 0.897434 3.383948 1.758231 3.027394 2.392813 2.392813 
C 3.027394 1.758231 3.383948 0.897434 3.383948 0 
C 3.383948 -0.897434 3.027394 -1.758231 2.392813 -2.392813 
C 1.758231 -3.027394 0.897434 -3.383948 0 -3.383948 
C -0.897434 -3.383948 -1.758231 -3.027394 -2.392813 -2.392813 
C -3.027394 -1.758231 -3.383948 -0.897434 -3.383948 0 
C -3.383948 0.897434 -3.027394 1.758231 -2.392813 2.392813 
C -1.758231 3.027394 -0.897434 3.383948 0 3.383948 
z
" style="stroke: #8c564b; stroke-opacity: 0.7; stroke-width: 2.025"/>
    </defs>
    <g clip-path="url(#p8cf9a47f8f)">
     <use xlink:href="#ma57de2c7df" x="658.944" y="379.168564" style="fill: #8c564b; fill-opacity: 0.7; stroke: #8c564b; stroke-opacity: 0.7; stroke-width: 2.025"/>
     <use xlink:href="#ma57de2c7df" x="944.64" y="460.73603" style="fill: #8c564b; fill-opacity: 0.7; stroke: #8c564b; stroke-opacity: 0.7; stroke-width: 2.025"/>
     <use xlink:href="#ma57de2c7df" x="1230.336" y="440.566548" style="fill: #8c564b; fill-opacity: 0.7; stroke: #8c564b; stroke-opacity: 0.7; stroke-width: 2.025"/>
     <use xlink:href="#ma57de2c7df" x="1516.032" y="594.65392" style="fill: #8c564b; fill-opacity: 0.7; stroke: #8c564b; stroke-opacity: 0.7; stroke-width: 2.025"/>
    </g>
   </g>
   <g id="line2d_76">
    <path clip-path="url(#p8cf9a47f8f)" style="fill: none; stroke: #8c564b; stroke-opacity: 0.7; stroke-width: 2.7; stroke-linecap: square"/>
   </g>
   <g id="line2d_77">
    <path d="M 644.6592 431.403467 
L 673.2288 431.403467 
M 658.944 431.403467 
L 658.944 317.501844 
M 644.6592 317.501844 
L 673.2288 317.501844 
" clip-path="url(#p8cf9a47f8f)" style="fill: none; stroke: #8c564b; stroke-opacity: 0.7; stroke-width: 2.7; stroke-linecap: square"/>
   </g>
   <g id="line2d_78">
    <path d="M 930.3552 528.357035 
L 958.9248 528.357035 
M 944.64 528.357035 
L 944.64 401.75745 
M 930.3552 401.75745 
L 958.9248 401.75745 
" clip-path="url(#p8cf9a47f8f)" style="fill: none; stroke: #8c564b; stroke-opacity: 0.7; stroke-width: 2.7; stroke-linecap: square"/>
   </g>
   <g id="line2d_79">
    <path d="M 1216.0512 499.132372 
L 1244.6208 499.132372 
M 1230.336 499.132372 
L 1230.336 380.769762 
M 1216.0512 380.769762 
L 1244.6208 380.769762 
" clip-path="url(#p8cf9a47f8f)" style="fill: none; stroke: #8c564b; stroke-opacity: 0.7; stroke-width: 2.7; stroke-linecap: square"/>
   </g>
   <g id="line2d_80">
    <path d="M 1501.7472 690.481884 
L 1530.3168 690.481884 
M 1516.032 690.481884 
L 1516.032 498.889751 
M 1501.7472 498.889751 
L 1530.3168 498.889751 
" clip-path="url(#p8cf9a47f8f)" style="fill: none; stroke: #8c564b; stroke-opacity: 0.7; stroke-width: 2.7; stroke-linecap: square"/>
   </g>
   <g id="line2d_81">
    <path d="M 373.248 464.322181 
L 658.944 523.192176 
L 944.64 517.427062 
L 1230.336 567.27015 
" clip-path="url(#p8cf9a47f8f)" style="fill: none; stroke: #c49c94; stroke-opacity: 0.7; stroke-width: 2.7; stroke-linecap: square"/>
    <defs>
     <path id="mcb6ab1adcc" d="M 0 3.383948 
C 0.897434 3.383948 1.758231 3.027394 2.392813 2.392813 
C 3.027394 1.758231 3.383948 0.897434 3.383948 0 
C 3.383948 -0.897434 3.027394 -1.758231 2.392813 -2.392813 
C 1.758231 -3.027394 0.897434 -3.383948 0 -3.383948 
C -0.897434 -3.383948 -1.758231 -3.027394 -2.392813 -2.392813 
C -3.027394 -1.758231 -3.383948 -0.897434 -3.383948 0 
C -3.383948 0.897434 -3.027394 1.758231 -2.392813 2.392813 
C -1.758231 3.027394 -0.897434 3.383948 0 3.383948 
z
" style="stroke: #c49c94; stroke-opacity: 0.7; stroke-width: 2.025"/>
    </defs>
    <g clip-path="url(#p8cf9a47f8f)">
     <use xlink:href="#mcb6ab1adcc" x="373.248" y="464.322181" style="fill: #c49c94; fill-opacity: 0.7; stroke: #c49c94; stroke-opacity: 0.7; stroke-width: 2.025"/>
     <use xlink:href="#mcb6ab1adcc" x="658.944" y="523.192176" style="fill: #c49c94; fill-opacity: 0.7; stroke: #c49c94; stroke-opacity: 0.7; stroke-width: 2.025"/>
     <use xlink:href="#mcb6ab1adcc" x="944.64" y="517.427062" style="fill: #c49c94; fill-opacity: 0.7; stroke: #c49c94; stroke-opacity: 0.7; stroke-width: 2.025"/>
     <use xlink:href="#mcb6ab1adcc" x="1230.336" y="567.27015" style="fill: #c49c94; fill-opacity: 0.7; stroke: #c49c94; stroke-opacity: 0.7; stroke-width: 2.025"/>
    </g>
   </g>
   <g id="line2d_82">
    <path d="M 358.9632 515.81145 
L 387.5328 515.81145 
M 373.248 515.81145 
L 373.248 413.741134 
M 358.9632 413.741134 
L 387.5328 413.741134 
" clip-path="url(#p8cf9a47f8f)" style="fill: none; stroke: #c49c94; stroke-opacity: 0.7; stroke-width: 2.7; stroke-linecap: square"/>
   </g>
   <g id="line2d_83">
    <path d="M 644.6592 559.988737 
L 673.2288 559.988737 
M 658.944 559.988737 
L 658.944 486.378419 
M 644.6592 486.378419 
L 673.2288 486.378419 
" clip-path="url(#p8cf9a47f8f)" style="fill: none; stroke: #c49c94; stroke-opacity: 0.7; stroke-width: 2.7; stroke-linecap: square"/>
   </g>
   <g id="line2d_84">
    <path d="M 930.3552 552.626011 
L 958.9248 552.626011 
M 944.64 552.626011 
L 944.64 483.426563 
M 930.3552 483.426563 
L 958.9248 483.426563 
" clip-path="url(#p8cf9a47f8f)" style="fill: none; stroke: #c49c94; stroke-opacity: 0.7; stroke-width: 2.7; stroke-linecap: square"/>
   </g>
   <g id="line2d_85">
    <path d="M 1216.0512 604.73494 
L 1244.6208 604.73494 
M 1230.336 604.73494 
L 1230.336 529.264552 
M 1216.0512 529.264552 
L 1244.6208 529.264552 
" clip-path="url(#p8cf9a47f8f)" style="fill: none; stroke: #c49c94; stroke-opacity: 0.7; stroke-width: 2.7; stroke-linecap: square"/>
   </g>
   <g id="line2d_86">
    <path clip-path="url(#p8cf9a47f8f)" style="fill: none; stroke: #c49c94; stroke-opacity: 0.7; stroke-width: 2.7; stroke-linecap: square"/>
   </g>
   <g id="line2d_87">
    <path d="M 658.944 498.775772 
L 944.64 466.713879 
L 1230.336 625.455205 
L 1516.032 662.811709 
" clip-path="url(#p8cf9a47f8f)" style="fill: none; stroke: #e377c2; stroke-opacity: 0.7; stroke-width: 2.7; stroke-linecap: square"/>
    <defs>
     <path id="m67c49ac03a" d="M 0 3.383948 
C 0.897434 3.383948 1.758231 3.027394 2.392813 2.392813 
C 3.027394 1.758231 3.383948 0.897434 3.383948 0 
C 3.383948 -0.897434 3.027394 -1.758231 2.392813 -2.392813 
C 1.758231 -3.027394 0.897434 -3.383948 0 -3.383948 
C -0.897434 -3.383948 -1.758231 -3.027394 -2.392813 -2.392813 
C -3.027394 -1.758231 -3.383948 -0.897434 -3.383948 0 
C -3.383948 0.897434 -3.027394 1.758231 -2.392813 2.392813 
C -1.758231 3.027394 -0.897434 3.383948 0 3.383948 
z
" style="stroke: #e377c2; stroke-opacity: 0.7; stroke-width: 2.025"/>
    </defs>
    <g clip-path="url(#p8cf9a47f8f)">
     <use xlink:href="#m67c49ac03a" x="658.944" y="498.775772" style="fill: #e377c2; fill-opacity: 0.7; stroke: #e377c2; stroke-opacity: 0.7; stroke-width: 2.025"/>
     <use xlink:href="#m67c49ac03a" x="944.64" y="466.713879" style="fill: #e377c2; fill-opacity: 0.7; stroke: #e377c2; stroke-opacity: 0.7; stroke-width: 2.025"/>
     <use xlink:href="#m67c49ac03a" x="1230.336" y="625.455205" style="fill: #e377c2; fill-opacity: 0.7; stroke: #e377c2; stroke-opacity: 0.7; stroke-width: 2.025"/>
     <use xlink:href="#m67c49ac03a" x="1516.032" y="662.811709" style="fill: #e377c2; fill-opacity: 0.7; stroke: #e377c2; stroke-opacity: 0.7; stroke-width: 2.025"/>
    </g>
   </g>
   <g id="line2d_88">
    <path clip-path="url(#p8cf9a47f8f)" style="fill: none; stroke: #e377c2; stroke-opacity: 0.7; stroke-width: 2.7; stroke-linecap: square"/>
   </g>
   <g id="line2d_89">
    <path d="M 644.6592 559.200312 
L 673.2288 559.200312 
M 658.944 559.200312 
L 658.944 437.222183 
M 644.6592 437.222183 
L 673.2288 437.222183 
" clip-path="url(#p8cf9a47f8f)" style="fill: none; stroke: #e377c2; stroke-opacity: 0.7; stroke-width: 2.7; stroke-linecap: square"/>
   </g>
   <g id="line2d_90">
    <path d="M 930.3552 530.697317 
L 958.9248 530.697317 
M 944.64 530.697317 
L 944.64 398.587184 
M 930.3552 398.587184 
L 958.9248 398.587184 
" clip-path="url(#p8cf9a47f8f)" style="fill: none; stroke: #e377c2; stroke-opacity: 0.7; stroke-width: 2.7; stroke-linecap: square"/>
   </g>
   <g id="line2d_91">
    <path d="M 1216.0512 687.074214 
L 1244.6208 687.074214 
M 1230.336 687.074214 
L 1230.336 562.898051 
M 1216.0512 562.898051 
L 1244.6208 562.898051 
" clip-path="url(#p8cf9a47f8f)" style="fill: none; stroke: #e377c2; stroke-opacity: 0.7; stroke-width: 2.7; stroke-linecap: square"/>
   </g>
   <g id="line2d_92">
    <path d="M 1501.7472 731.591482 
L 1530.3168 731.591482 
M 1516.032 731.591482 
L 1516.032 591.023281 
M 1501.7472 591.023281 
L 1530.3168 591.023281 
" clip-path="url(#p8cf9a47f8f)" style="fill: none; stroke: #e377c2; stroke-opacity: 0.7; stroke-width: 2.7; stroke-linecap: square"/>
   </g>
   <g id="line2d_93"/>
   <g id="line2d_94"/>
   <g id="line2d_95"/>
   <g id="line2d_96"/>
   <g id="line2d_97"/>
   <g id="line2d_98"/>
   <g id="line2d_99"/>
   <g id="line2d_100"/>
   <g id="line2d_101"/>
   <g id="line2d_102"/>
   <g id="line2d_103"/>
   <g id="line2d_104"/>
   <g id="line2d_105"/>
   <g id="patch_3">
    <path d="M 230.4 899.6832 
L 230.4 121.3056 
" style="fill: none; stroke: #000000; stroke-width: 0.8; stroke-linejoin: miter; stroke-linecap: square"/>
   </g>
   <g id="patch_4">
    <path d="M 1658.88 899.6832 
L 1658.88 121.3056 
" style="fill: none; stroke: #000000; stroke-width: 0.8; stroke-linejoin: miter; stroke-linecap: square"/>
   </g>
   <g id="patch_5">
    <path d="M 230.4 899.6832 
L 1658.88 899.6832 
" style="fill: none; stroke: #000000; stroke-width: 0.8; stroke-linejoin: miter; stroke-linecap: square"/>
   </g>
   <g id="patch_6">
    <path d="M 230.4 121.3056 
L 1658.88 121.3056 
" style="fill: none; stroke: #000000; stroke-width: 0.8; stroke-linejoin: miter; stroke-linecap: square"/>
   </g>
   <g id="text_17">
    <!-- ASEM Per Subject: Arrow DOWN -->
    <g transform="translate(705.490781 115.066538) scale(0.3 -0.3)">
     <defs>
      <path id="DejaVuSans-72" d="M 2631 2963 
Q 2534 3019 2420 3045 
Q 2306 3072 2169 3072 
Q 1681 3072 1420 2755 
Q 1159 2438 1159 1844 
L 1159 0 
L 581 0 
L 581 3500 
L 1159 3500 
L 1159 2956 
Q 1341 3275 1631 3429 
Q 1922 3584 2338 3584 
Q 2397 3584 2469 3576 
Q 2541 3569 2628 3553 
L 2631 2963 
z
" transform="scale(0.015625)"/>
      <path id="DejaVuSans-75" d="M 544 1381 
L 544 3500 
L 1119 3500 
L 1119 1403 
Q 1119 906 1312 657 
Q 1506 409 1894 409 
Q 2359 409 2629 706 
Q 2900 1003 2900 1516 
L 2900 3500 
L 3475 3500 
L 3475 0 
L 2900 0 
L 2900 538 
Q 2691 219 2414 64 
Q 2138 -91 1772 -91 
Q 1169 -91 856 284 
Q 544 659 544 1381 
z
M 1991 3584 
L 1991 3584 
z
" transform="scale(0.015625)"/>
      <path id="DejaVuSans-62" d="M 3116 1747 
Q 3116 2381 2855 2742 
Q 2594 3103 2138 3103 
Q 1681 3103 1420 2742 
Q 1159 2381 1159 1747 
Q 1159 1113 1420 752 
Q 1681 391 2138 391 
Q 2594 391 2855 752 
Q 3116 1113 3116 1747 
z
M 1159 2969 
Q 1341 3281 1617 3432 
Q 1894 3584 2278 3584 
Q 2916 3584 3314 3078 
Q 3713 2572 3713 1747 
Q 3713 922 3314 415 
Q 2916 -91 2278 -91 
Q 1894 -91 1617 61 
Q 1341 213 1159 525 
L 1159 0 
L 581 0 
L 581 4863 
L 1159 4863 
L 1159 2969 
z
" transform="scale(0.015625)"/>
      <path id="DejaVuSans-6a" d="M 603 3500 
L 1178 3500 
L 1178 -63 
Q 1178 -731 923 -1031 
Q 669 -1331 103 -1331 
L -116 -1331 
L -116 -844 
L 38 -844 
Q 366 -844 484 -692 
Q 603 -541 603 -63 
L 603 3500 
z
M 603 4863 
L 1178 4863 
L 1178 4134 
L 603 4134 
L 603 4863 
z
" transform="scale(0.015625)"/>
      <path id="DejaVuSans-63" d="M 3122 3366 
L 3122 2828 
Q 2878 2963 2633 3030 
Q 2388 3097 2138 3097 
Q 1578 3097 1268 2742 
Q 959 2388 959 1747 
Q 959 1106 1268 751 
Q 1578 397 2138 397 
Q 2388 397 2633 464 
Q 2878 531 3122 666 
L 3122 134 
Q 2881 22 2623 -34 
Q 2366 -91 2075 -91 
Q 1284 -91 818 406 
Q 353 903 353 1747 
Q 353 2603 823 3093 
Q 1294 3584 2113 3584 
Q 2378 3584 2631 3529 
Q 2884 3475 3122 3366 
z
" transform="scale(0.015625)"/>
      <path id="DejaVuSans-3a" d="M 750 794 
L 1409 794 
L 1409 0 
L 750 0 
L 750 794 
z
M 750 3309 
L 1409 3309 
L 1409 2516 
L 750 2516 
L 750 3309 
z
" transform="scale(0.015625)"/>
      <path id="DejaVuSans-6f" d="M 1959 3097 
Q 1497 3097 1228 2736 
Q 959 2375 959 1747 
Q 959 1119 1226 758 
Q 1494 397 1959 397 
Q 2419 397 2687 759 
Q 2956 1122 2956 1747 
Q 2956 2369 2687 2733 
Q 2419 3097 1959 3097 
z
M 1959 3584 
Q 2709 3584 3137 3096 
Q 3566 2609 3566 1747 
Q 3566 888 3137 398 
Q 2709 -91 1959 -91 
Q 1206 -91 779 398 
Q 353 888 353 1747 
Q 353 2609 779 3096 
Q 1206 3584 1959 3584 
z
" transform="scale(0.015625)"/>
      <path id="DejaVuSans-77" d="M 269 3500 
L 844 3500 
L 1563 769 
L 2278 3500 
L 2956 3500 
L 3675 769 
L 4391 3500 
L 4966 3500 
L 4050 0 
L 3372 0 
L 2619 2869 
L 1863 0 
L 1184 0 
L 269 3500 
z
" transform="scale(0.015625)"/>
     </defs>
     <use xlink:href="#DejaVuSans-41"/>
     <use xlink:href="#DejaVuSans-53" x="68.408203"/>
     <use xlink:href="#DejaVuSans-45" x="131.884766"/>
     <use xlink:href="#DejaVuSans-4d" x="195.068359"/>
     <use xlink:href="#DejaVuSans-20" x="281.347656"/>
     <use xlink:href="#DejaVuSans-50" x="313.134766"/>
     <use xlink:href="#DejaVuSans-65" x="369.8125"/>
     <use xlink:href="#DejaVuSans-72" x="431.335938"/>
     <use xlink:href="#DejaVuSans-20" x="472.449219"/>
     <use xlink:href="#DejaVuSans-53" x="504.236328"/>
     <use xlink:href="#DejaVuSans-75" x="567.712891"/>
     <use xlink:href="#DejaVuSans-62" x="631.091797"/>
     <use xlink:href="#DejaVuSans-6a" x="694.568359"/>
     <use xlink:href="#DejaVuSans-65" x="722.351562"/>
     <use xlink:href="#DejaVuSans-63" x="783.875"/>
     <use xlink:href="#DejaVuSans-74" x="838.855469"/>
     <use xlink:href="#DejaVuSans-3a" x="878.064453"/>
     <use xlink:href="#DejaVuSans-20" x="911.755859"/>
     <use xlink:href="#DejaVuSans-41" x="943.542969"/>
     <use xlink:href="#DejaVuSans-72" x="1011.951172"/>
     <use xlink:href="#DejaVuSans-72" x="1051.314453"/>
     <use xlink:href="#DejaVuSans-6f" x="1090.177734"/>
     <use xlink:href="#DejaVuSans-77" x="1151.359375"/>
     <use xlink:href="#DejaVuSans-20" x="1233.146484"/>
     <use xlink:href="#DejaVuSans-44" x="1264.933594"/>
     <use xlink:href="#DejaVuSans-4f" x="1341.935547"/>
     <use xlink:href="#DejaVuSans-57" x="1420.646484"/>
     <use xlink:href="#DejaVuSans-4e" x="1519.523438"/>
    </g>
   </g>
   <g id="legend_1">
    <g id="patch_7">
     <path d="M 1555.43 518.93685 
L 1644.88 518.93685 
Q 1648.88 518.93685 1648.88 514.93685 
L 1648.88 135.3056 
Q 1648.88 131.3056 1644.88 131.3056 
L 1555.43 131.3056 
Q 1551.43 131.3056 1551.43 135.3056 
L 1551.43 514.93685 
Q 1551.43 518.93685 1555.43 518.93685 
z
" style="fill: #ffffff; opacity: 0.8; stroke: #cccccc; stroke-linejoin: miter"/>
    </g>
    <g id="line2d_106">
     <path d="M 1559.43 147.502475 
L 1579.43 147.502475 
L 1599.43 147.502475 
" style="fill: none; stroke: #1f77b4; stroke-opacity: 0.7; stroke-width: 2.7; stroke-linecap: square"/>
     <g>
      <use xlink:href="#mf361ac3930" x="1579.43" y="147.502475" style="fill: #1f77b4; fill-opacity: 0.7; stroke: #1f77b4; stroke-opacity: 0.7; stroke-width: 2.025"/>
     </g>
    </g>
    <g id="text_18">
     <!-- 2 -->
     <g transform="translate(1615.43 154.502475) scale(0.2 -0.2)">
      <use xlink:href="#DejaVuSans-32"/>
     </g>
    </g>
    <g id="line2d_107">
     <path d="M 1559.43 176.858725 
L 1579.43 176.858725 
L 1599.43 176.858725 
" style="fill: none; stroke: #aec7e8; stroke-opacity: 0.7; stroke-width: 2.7; stroke-linecap: square"/>
     <g>
      <use xlink:href="#m190d408aff" x="1579.43" y="176.858725" style="fill: #aec7e8; fill-opacity: 0.7; stroke: #aec7e8; stroke-opacity: 0.7; stroke-width: 2.025"/>
     </g>
    </g>
    <g id="text_19">
     <!-- 3 -->
     <g transform="translate(1615.43 183.858725) scale(0.2 -0.2)">
      <defs>
       <path id="DejaVuSans-33" d="M 2597 2516 
Q 3050 2419 3304 2112 
Q 3559 1806 3559 1356 
Q 3559 666 3084 287 
Q 2609 -91 1734 -91 
Q 1441 -91 1130 -33 
Q 819 25 488 141 
L 488 750 
Q 750 597 1062 519 
Q 1375 441 1716 441 
Q 2309 441 2620 675 
Q 2931 909 2931 1356 
Q 2931 1769 2642 2001 
Q 2353 2234 1838 2234 
L 1294 2234 
L 1294 2753 
L 1863 2753 
Q 2328 2753 2575 2939 
Q 2822 3125 2822 3475 
Q 2822 3834 2567 4026 
Q 2313 4219 1838 4219 
Q 1578 4219 1281 4162 
Q 984 4106 628 3988 
L 628 4550 
Q 988 4650 1302 4700 
Q 1616 4750 1894 4750 
Q 2613 4750 3031 4423 
Q 3450 4097 3450 3541 
Q 3450 3153 3228 2886 
Q 3006 2619 2597 2516 
z
" transform="scale(0.015625)"/>
      </defs>
      <use xlink:href="#DejaVuSans-33"/>
     </g>
    </g>
    <g id="line2d_108">
     <path d="M 1559.43 206.214975 
L 1579.43 206.214975 
L 1599.43 206.214975 
" style="fill: none; stroke: #ff7f0e; stroke-opacity: 0.7; stroke-width: 2.7; stroke-linecap: square"/>
     <g>
      <use xlink:href="#m4dd0af92ad" x="1579.43" y="206.214975" style="fill: #ff7f0e; fill-opacity: 0.7; stroke: #ff7f0e; stroke-opacity: 0.7; stroke-width: 2.025"/>
     </g>
    </g>
    <g id="text_20">
     <!-- 4 -->
     <g transform="translate(1615.43 213.214975) scale(0.2 -0.2)">
      <defs>
       <path id="DejaVuSans-34" d="M 2419 4116 
L 825 1625 
L 2419 1625 
L 2419 4116 
z
M 2253 4666 
L 3047 4666 
L 3047 1625 
L 3713 1625 
L 3713 1100 
L 3047 1100 
L 3047 0 
L 2419 0 
L 2419 1100 
L 313 1100 
L 313 1709 
L 2253 4666 
z
" transform="scale(0.015625)"/>
      </defs>
      <use xlink:href="#DejaVuSans-34"/>
     </g>
    </g>
    <g id="line2d_109">
     <path d="M 1559.43 235.571225 
L 1579.43 235.571225 
L 1599.43 235.571225 
" style="fill: none; stroke: #ffbb78; stroke-opacity: 0.7; stroke-width: 2.7; stroke-linecap: square"/>
     <g>
      <use xlink:href="#mbed96a5f5f" x="1579.43" y="235.571225" style="fill: #ffbb78; fill-opacity: 0.7; stroke: #ffbb78; stroke-opacity: 0.7; stroke-width: 2.025"/>
     </g>
    </g>
    <g id="text_21">
     <!-- 5 -->
     <g transform="translate(1615.43 242.571225) scale(0.2 -0.2)">
      <use xlink:href="#DejaVuSans-35"/>
     </g>
    </g>
    <g id="line2d_110">
     <path d="M 1559.43 264.927475 
L 1579.43 264.927475 
L 1599.43 264.927475 
" style="fill: none; stroke: #2ca02c; stroke-opacity: 0.7; stroke-width: 2.7; stroke-linecap: square"/>
     <g>
      <use xlink:href="#m8a00991d45" x="1579.43" y="264.927475" style="fill: #2ca02c; fill-opacity: 0.7; stroke: #2ca02c; stroke-opacity: 0.7; stroke-width: 2.025"/>
     </g>
    </g>
    <g id="text_22">
     <!-- 6 -->
     <g transform="translate(1615.43 271.927475) scale(0.2 -0.2)">
      <defs>
       <path id="DejaVuSans-36" d="M 2113 2584 
Q 1688 2584 1439 2293 
Q 1191 2003 1191 1497 
Q 1191 994 1439 701 
Q 1688 409 2113 409 
Q 2538 409 2786 701 
Q 3034 994 3034 1497 
Q 3034 2003 2786 2293 
Q 2538 2584 2113 2584 
z
M 3366 4563 
L 3366 3988 
Q 3128 4100 2886 4159 
Q 2644 4219 2406 4219 
Q 1781 4219 1451 3797 
Q 1122 3375 1075 2522 
Q 1259 2794 1537 2939 
Q 1816 3084 2150 3084 
Q 2853 3084 3261 2657 
Q 3669 2231 3669 1497 
Q 3669 778 3244 343 
Q 2819 -91 2113 -91 
Q 1303 -91 875 529 
Q 447 1150 447 2328 
Q 447 3434 972 4092 
Q 1497 4750 2381 4750 
Q 2619 4750 2861 4703 
Q 3103 4656 3366 4563 
z
" transform="scale(0.015625)"/>
      </defs>
      <use xlink:href="#DejaVuSans-36"/>
     </g>
    </g>
    <g id="line2d_111">
     <path d="M 1559.43 294.283725 
L 1579.43 294.283725 
L 1599.43 294.283725 
" style="fill: none; stroke: #98df8a; stroke-opacity: 0.7; stroke-width: 2.7; stroke-linecap: square"/>
     <g>
      <use xlink:href="#m36f46cfb90" x="1579.43" y="294.283725" style="fill: #98df8a; fill-opacity: 0.7; stroke: #98df8a; stroke-opacity: 0.7; stroke-width: 2.025"/>
     </g>
    </g>
    <g id="text_23">
     <!-- 7 -->
     <g transform="translate(1615.43 301.283725) scale(0.2 -0.2)">
      <use xlink:href="#DejaVuSans-37"/>
     </g>
    </g>
    <g id="line2d_112">
     <path d="M 1559.43 323.639975 
L 1579.43 323.639975 
L 1599.43 323.639975 
" style="fill: none; stroke: #d62728; stroke-opacity: 0.7; stroke-width: 2.7; stroke-linecap: square"/>
     <g>
      <use xlink:href="#m9288642567" x="1579.43" y="323.639975" style="fill: #d62728; fill-opacity: 0.7; stroke: #d62728; stroke-opacity: 0.7; stroke-width: 2.025"/>
     </g>
    </g>
    <g id="text_24">
     <!-- 8 -->
     <g transform="translate(1615.43 330.639975) scale(0.2 -0.2)">
      <defs>
       <path id="DejaVuSans-38" d="M 2034 2216 
Q 1584 2216 1326 1975 
Q 1069 1734 1069 1313 
Q 1069 891 1326 650 
Q 1584 409 2034 409 
Q 2484 409 2743 651 
Q 3003 894 3003 1313 
Q 3003 1734 2745 1975 
Q 2488 2216 2034 2216 
z
M 1403 2484 
Q 997 2584 770 2862 
Q 544 3141 544 3541 
Q 544 4100 942 4425 
Q 1341 4750 2034 4750 
Q 2731 4750 3128 4425 
Q 3525 4100 3525 3541 
Q 3525 3141 3298 2862 
Q 3072 2584 2669 2484 
Q 3125 2378 3379 2068 
Q 3634 1759 3634 1313 
Q 3634 634 3220 271 
Q 2806 -91 2034 -91 
Q 1263 -91 848 271 
Q 434 634 434 1313 
Q 434 1759 690 2068 
Q 947 2378 1403 2484 
z
M 1172 3481 
Q 1172 3119 1398 2916 
Q 1625 2713 2034 2713 
Q 2441 2713 2670 2916 
Q 2900 3119 2900 3481 
Q 2900 3844 2670 4047 
Q 2441 4250 2034 4250 
Q 1625 4250 1398 4047 
Q 1172 3844 1172 3481 
z
" transform="scale(0.015625)"/>
      </defs>
      <use xlink:href="#DejaVuSans-38"/>
     </g>
    </g>
    <g id="line2d_113">
     <path d="M 1559.43 352.996225 
L 1579.43 352.996225 
L 1599.43 352.996225 
" style="fill: none; stroke: #ff9896; stroke-opacity: 0.7; stroke-width: 2.7; stroke-linecap: square"/>
     <g>
      <use xlink:href="#mc15532e446" x="1579.43" y="352.996225" style="fill: #ff9896; fill-opacity: 0.7; stroke: #ff9896; stroke-opacity: 0.7; stroke-width: 2.025"/>
     </g>
    </g>
    <g id="text_25">
     <!-- 9 -->
     <g transform="translate(1615.43 359.996225) scale(0.2 -0.2)">
      <defs>
       <path id="DejaVuSans-39" d="M 703 97 
L 703 672 
Q 941 559 1184 500 
Q 1428 441 1663 441 
Q 2288 441 2617 861 
Q 2947 1281 2994 2138 
Q 2813 1869 2534 1725 
Q 2256 1581 1919 1581 
Q 1219 1581 811 2004 
Q 403 2428 403 3163 
Q 403 3881 828 4315 
Q 1253 4750 1959 4750 
Q 2769 4750 3195 4129 
Q 3622 3509 3622 2328 
Q 3622 1225 3098 567 
Q 2575 -91 1691 -91 
Q 1453 -91 1209 -44 
Q 966 3 703 97 
z
M 1959 2075 
Q 2384 2075 2632 2365 
Q 2881 2656 2881 3163 
Q 2881 3666 2632 3958 
Q 2384 4250 1959 4250 
Q 1534 4250 1286 3958 
Q 1038 3666 1038 3163 
Q 1038 2656 1286 2365 
Q 1534 2075 1959 2075 
z
" transform="scale(0.015625)"/>
      </defs>
      <use xlink:href="#DejaVuSans-39"/>
     </g>
    </g>
    <g id="line2d_114">
     <path d="M 1559.43 382.352475 
L 1579.43 382.352475 
L 1599.43 382.352475 
" style="fill: none; stroke: #9467bd; stroke-opacity: 0.7; stroke-width: 2.7; stroke-linecap: square"/>
     <g>
      <use xlink:href="#m4aa3a823c5" x="1579.43" y="382.352475" style="fill: #9467bd; fill-opacity: 0.7; stroke: #9467bd; stroke-opacity: 0.7; stroke-width: 2.025"/>
     </g>
    </g>
    <g id="text_26">
     <!-- 10 -->
     <g transform="translate(1615.43 389.352475) scale(0.2 -0.2)">
      <use xlink:href="#DejaVuSans-31"/>
      <use xlink:href="#DejaVuSans-30" x="63.623047"/>
     </g>
    </g>
    <g id="line2d_115">
     <path d="M 1559.43 411.708725 
L 1579.43 411.708725 
L 1599.43 411.708725 
" style="fill: none; stroke: #c5b0d5; stroke-opacity: 0.7; stroke-width: 2.7; stroke-linecap: square"/>
     <g>
      <use xlink:href="#mad47e4a6d2" x="1579.43" y="411.708725" style="fill: #c5b0d5; fill-opacity: 0.7; stroke: #c5b0d5; stroke-opacity: 0.7; stroke-width: 2.025"/>
     </g>
    </g>
    <g id="text_27">
     <!-- 11 -->
     <g transform="translate(1615.43 418.708725) scale(0.2 -0.2)">
      <use xlink:href="#DejaVuSans-31"/>
      <use xlink:href="#DejaVuSans-31" x="63.623047"/>
     </g>
    </g>
    <g id="line2d_116">
     <path d="M 1559.43 441.064975 
L 1579.43 441.064975 
L 1599.43 441.064975 
" style="fill: none; stroke: #8c564b; stroke-opacity: 0.7; stroke-width: 2.7; stroke-linecap: square"/>
     <g>
      <use xlink:href="#ma57de2c7df" x="1579.43" y="441.064975" style="fill: #8c564b; fill-opacity: 0.7; stroke: #8c564b; stroke-opacity: 0.7; stroke-width: 2.025"/>
     </g>
    </g>
    <g id="text_28">
     <!-- 12 -->
     <g transform="translate(1615.43 448.064975) scale(0.2 -0.2)">
      <use xlink:href="#DejaVuSans-31"/>
      <use xlink:href="#DejaVuSans-32" x="63.623047"/>
     </g>
    </g>
    <g id="line2d_117">
     <path d="M 1559.43 470.421225 
L 1579.43 470.421225 
L 1599.43 470.421225 
" style="fill: none; stroke: #c49c94; stroke-opacity: 0.7; stroke-width: 2.7; stroke-linecap: square"/>
     <g>
      <use xlink:href="#mcb6ab1adcc" x="1579.43" y="470.421225" style="fill: #c49c94; fill-opacity: 0.7; stroke: #c49c94; stroke-opacity: 0.7; stroke-width: 2.025"/>
     </g>
    </g>
    <g id="text_29">
     <!-- 13 -->
     <g transform="translate(1615.43 477.421225) scale(0.2 -0.2)">
      <use xlink:href="#DejaVuSans-31"/>
      <use xlink:href="#DejaVuSans-33" x="63.623047"/>
     </g>
    </g>
    <g id="line2d_118">
     <path d="M 1559.43 499.777475 
L 1579.43 499.777475 
L 1599.43 499.777475 
" style="fill: none; stroke: #e377c2; stroke-opacity: 0.7; stroke-width: 2.7; stroke-linecap: square"/>
     <g>
      <use xlink:href="#m67c49ac03a" x="1579.43" y="499.777475" style="fill: #e377c2; fill-opacity: 0.7; stroke: #e377c2; stroke-opacity: 0.7; stroke-width: 2.025"/>
     </g>
    </g>
    <g id="text_30">
     <!-- 14 -->
     <g transform="translate(1615.43 506.777475) scale(0.2 -0.2)">
      <use xlink:href="#DejaVuSans-31"/>
      <use xlink:href="#DejaVuSans-34" x="63.623047"/>
     </g>
    </g>
   </g>
  </g>
 </g>
 <defs>
  <clipPath id="p8cf9a47f8f">
   <rect x="230.4" y="121.3056" width="1428.48" height="778.3776"/>
  </clipPath>
 </defs>
</svg>
