<?xml version="1.0" encoding="utf-8" standalone="no"?>
<!DOCTYPE svg PUBLIC "-//W3C//DTD SVG 1.1//EN"
  "http://www.w3.org/Graphics/SVG/1.1/DTD/svg11.dtd">
<svg xmlns:xlink="http://www.w3.org/1999/xlink" width="360pt" height="360pt" viewBox="0 0 360 360" xmlns="http://www.w3.org/2000/svg" version="1.1">
 <metadata>
  <rdf:RDF xmlns:dc="http://purl.org/dc/elements/1.1/" xmlns:cc="http://creativecommons.org/ns#" xmlns:rdf="http://www.w3.org/1999/02/22-rdf-syntax-ns#">
   <cc:Work>
    <dc:type rdf:resource="http://purl.org/dc/dcmitype/StillImage"/>
    <dc:date>2024-12-04T11:22:44.157421</dc:date>
    <dc:format>image/svg+xml</dc:format>
    <dc:creator>
     <cc:Agent>
      <dc:title>Matplotlib v3.9.2, https://matplotlib.org/</dc:title>
     </cc:Agent>
    </dc:creator>
   </cc:Work>
  </rdf:RDF>
 </metadata>
 <defs>
  <style type="text/css">*{stroke-linejoin: round; stroke-linecap: butt}</style>
 </defs>
 <g id="figure_1">
  <g id="patch_1">
   <path d="M 0 360 
L 360 360 
L 360 0 
L 0 0 
z
" style="fill: #ffffff"/>
  </g>
  <g id="axes_1">
   <g id="patch_2">
    <path d="M 47.82125 317.93875 
L 349.2 317.93875 
L 349.2 10.8 
L 47.82125 10.8 
z
" style="fill: #ffffff"/>
   </g>
   <g id="PathCollection_1">
    <defs>
     <path id="ma072550f44" d="M 0 3 
C 0.795609 3 1.55874 2.683901 2.12132 2.12132 
C 2.683901 1.55874 3 0.795609 3 0 
C 3 -0.795609 2.683901 -1.55874 2.12132 -2.12132 
C 1.55874 -2.683901 0.795609 -3 0 -3 
C -0.795609 -3 -1.55874 -2.683901 -2.12132 -2.12132 
C -2.683901 -1.55874 -3 -0.795609 -3 0 
C -3 0.795609 -2.683901 1.55874 -2.12132 2.12132 
C -1.55874 2.683901 -0.795609 3 0 3 
z
" style="stroke: #1f77b4; stroke-opacity: 0.8"/>
    </defs>
    <g clip-path="url(#pc1b737593e)">
     <use xlink:href="#ma072550f44" x="246.957058" y="125.56433" style="fill: #1f77b4; fill-opacity: 0.8; stroke: #1f77b4; stroke-opacity: 0.8"/>
     <use xlink:href="#ma072550f44" x="61.520284" y="195.450294" style="fill: #1f77b4; fill-opacity: 0.8; stroke: #1f77b4; stroke-opacity: 0.8"/>
     <use xlink:href="#ma072550f44" x="186.088398" y="139.866022" style="fill: #1f77b4; fill-opacity: 0.8; stroke: #1f77b4; stroke-opacity: 0.8"/>
     <use xlink:href="#ma072550f44" x="225.405311" y="62.683299" style="fill: #1f77b4; fill-opacity: 0.8; stroke: #1f77b4; stroke-opacity: 0.8"/>
     <use xlink:href="#ma072550f44" x="216.78733" y="226.995466" style="fill: #1f77b4; fill-opacity: 0.8; stroke: #1f77b4; stroke-opacity: 0.8"/>
     <use xlink:href="#ma072550f44" x="335.500966" y="262.357879" style="fill: #1f77b4; fill-opacity: 0.8; stroke: #1f77b4; stroke-opacity: 0.8"/>
     <use xlink:href="#ma072550f44" x="78.828994" y="84.111899" style="fill: #1f77b4; fill-opacity: 0.8; stroke: #1f77b4; stroke-opacity: 0.8"/>
     <use xlink:href="#ma072550f44" x="224.734132" y="181.151142" style="fill: #1f77b4; fill-opacity: 0.8; stroke: #1f77b4; stroke-opacity: 0.8"/>
     <use xlink:href="#ma072550f44" x="62.749566" y="303.977898" style="fill: #1f77b4; fill-opacity: 0.8; stroke: #1f77b4; stroke-opacity: 0.8"/>
     <use xlink:href="#ma072550f44" x="217.960806" y="146.134596" style="fill: #1f77b4; fill-opacity: 0.8; stroke: #1f77b4; stroke-opacity: 0.8"/>
     <use xlink:href="#ma072550f44" x="133.569717" y="223.963972" style="fill: #1f77b4; fill-opacity: 0.8; stroke: #1f77b4; stroke-opacity: 0.8"/>
     <use xlink:href="#ma072550f44" x="162.246838" y="248.992198" style="fill: #1f77b4; fill-opacity: 0.8; stroke: #1f77b4; stroke-opacity: 0.8"/>
     <use xlink:href="#ma072550f44" x="205.196134" y="129.629213" style="fill: #1f77b4; fill-opacity: 0.8; stroke: #1f77b4; stroke-opacity: 0.8"/>
    </g>
   </g>
   <g id="PolyCollection_1">
    <path d="M 61.520284 101.735645 
L 61.520284 302.97408 
L 64.287766 300.246911 
L 67.055247 297.519742 
L 69.822729 294.597813 
L 72.590211 291.634198 
L 75.357692 289.014007 
L 78.125174 286.407974 
L 80.892656 283.798271 
L 83.660137 281.18442 
L 86.427619 278.023159 
L 89.1951 274.949965 
L 91.962582 272.444028 
L 94.730064 269.935486 
L 97.497545 267.012864 
L 100.265027 263.98556 
L 103.032509 261.38386 
L 105.79999 258.383969 
L 108.567472 255.275583 
L 111.334954 252.15612 
L 114.102435 249.036657 
L 116.869917 245.719819 
L 119.637398 242.83057 
L 122.40488 241.265926 
L 125.172362 240.126164 
L 127.939843 237.295397 
L 130.707325 234.914472 
L 133.474807 232.433533 
L 136.242288 230.338746 
L 139.00977 229.054234 
L 141.777251 227.163543 
L 144.544733 226.259386 
L 147.312215 224.537722 
L 150.079696 223.213618 
L 152.847178 221.954333 
L 155.61466 220.966247 
L 158.382141 219.816922 
L 161.149623 218.701688 
L 163.917105 217.550937 
L 166.684586 215.998306 
L 169.452068 215.277853 
L 172.219549 214.511241 
L 174.987031 213.822146 
L 177.754513 213.099939 
L 180.521994 212.472441 
L 183.289476 212.615121 
L 186.056958 212.200044 
L 188.824439 212.102865 
L 191.591921 211.955224 
L 194.359403 211.744085 
L 197.126884 211.828873 
L 199.894366 211.733918 
L 202.661847 211.693968 
L 205.429329 211.639921 
L 208.196811 211.753405 
L 210.964292 212.233839 
L 213.731774 212.174343 
L 216.499256 212.478003 
L 219.266737 212.631555 
L 222.034219 212.914949 
L 224.801701 213.403635 
L 227.569182 213.986745 
L 230.336664 214.445599 
L 233.104145 214.655741 
L 235.871627 214.895842 
L 238.639109 215.153202 
L 241.40659 215.448333 
L 244.174072 215.774428 
L 246.941554 216.197933 
L 249.709035 216.617991 
L 252.476517 217.047387 
L 255.243999 217.529356 
L 258.01148 218.714864 
L 260.778962 219.138032 
L 263.546443 219.558323 
L 266.313925 220.661106 
L 269.081407 221.38599 
L 271.848888 222.69661 
L 274.61637 223.525831 
L 277.383852 223.658436 
L 280.151333 223.978716 
L 282.918815 224.522211 
L 285.686296 225.532961 
L 288.453778 225.931925 
L 291.22126 226.762538 
L 293.988741 227.685135 
L 296.756223 228.677902 
L 299.523705 229.520857 
L 302.291186 230.077239 
L 305.058668 230.997493 
L 307.82615 232.168578 
L 310.593631 232.68667 
L 313.361113 233.8355 
L 316.128594 234.989066 
L 318.896076 235.737042 
L 321.663558 236.766453 
L 324.431039 237.793427 
L 327.198521 238.820402 
L 329.966003 239.847993 
L 332.733484 240.890599 
L 335.500966 241.933205 
L 335.500966 24.760852 
L 335.500966 24.760852 
L 332.733484 27.579726 
L 329.966003 29.890114 
L 327.198521 31.996218 
L 324.431039 34.102321 
L 321.663558 36.208424 
L 318.896076 38.314528 
L 316.128594 40.420631 
L 313.361113 42.526735 
L 310.593631 44.632838 
L 307.82615 46.855946 
L 305.058668 49.09866 
L 302.291186 51.345489 
L 299.523705 53.624039 
L 296.756223 56.073638 
L 293.988741 58.534492 
L 291.22126 61.402339 
L 288.453778 64.300283 
L 285.686296 67.203547 
L 282.918815 70.13758 
L 280.151333 73.003463 
L 277.383852 75.886816 
L 274.61637 78.785384 
L 271.848888 81.835128 
L 269.081407 85.460157 
L 266.313925 88.290761 
L 263.546443 90.379658 
L 260.778962 93.15398 
L 258.01148 95.776657 
L 255.243999 98.001405 
L 252.476517 100.414132 
L 249.709035 102.853525 
L 246.941554 105.25716 
L 244.174072 107.65941 
L 241.40659 109.4213 
L 238.639109 110.926382 
L 235.871627 112.072297 
L 233.104145 114.227772 
L 230.336664 116.52763 
L 227.569182 118.864127 
L 224.801701 121.075719 
L 222.034219 122.922149 
L 219.266737 125.260865 
L 216.499256 126.768955 
L 213.731774 127.805977 
L 210.964292 129.470915 
L 208.196811 131.308242 
L 205.429329 132.363545 
L 202.661847 132.9193 
L 199.894366 134.458948 
L 197.126884 136.124148 
L 194.359403 135.985446 
L 191.591921 135.472398 
L 188.824439 136.872157 
L 186.056958 136.988671 
L 183.289476 137.27613 
L 180.521994 137.376803 
L 177.754513 137.43846 
L 174.987031 137.890228 
L 172.219549 137.553417 
L 169.452068 137.612289 
L 166.684586 137.66181 
L 163.917105 137.118302 
L 161.149623 136.54703 
L 158.382141 136.104475 
L 155.61466 135.203294 
L 152.847178 134.645159 
L 150.079696 133.537357 
L 147.312215 132.636148 
L 144.544733 131.209107 
L 141.777251 129.801152 
L 139.00977 129.074619 
L 136.242288 128.592547 
L 133.474807 128.057453 
L 130.707325 127.539652 
L 127.939843 127.025461 
L 125.172362 126.298105 
L 122.40488 124.790669 
L 119.637398 123.539237 
L 116.869917 122.801768 
L 114.102435 122.064298 
L 111.334954 121.326828 
L 108.567472 120.603448 
L 105.79999 119.886268 
L 103.032509 118.600964 
L 100.265027 117.054123 
L 97.497545 116.187735 
L 94.730064 115.59666 
L 91.962582 115.005586 
L 89.1951 114.414511 
L 86.427619 113.552791 
L 83.660137 112.227373 
L 80.892656 110.914011 
L 78.125174 109.602619 
L 75.357692 108.291228 
L 72.590211 106.979836 
L 69.822729 105.668444 
L 67.055247 104.357052 
L 64.287766 103.045661 
L 61.520284 101.735645 
z
" clip-path="url(#pc1b737593e)" style="fill: #1f77b4; fill-opacity: 0.15"/>
   </g>
   <g id="matplotlib.axis_1">
    <g id="xtick_1">
     <g id="line2d_1">
      <defs>
       <path id="m72f9be68f8" d="M 0 0 
L 0 3.5 
" style="stroke: #000000; stroke-width: 0.8"/>
      </defs>
      <g>
       <use xlink:href="#m72f9be68f8" x="52.148192" y="317.93875" style="stroke: #000000; stroke-width: 0.8"/>
      </g>
     </g>
     <g id="text_1">
      <!-- −1.0 -->
      <g transform="translate(40.006786 332.537188) scale(0.1 -0.1)">
       <defs>
        <path id="DejaVuSans-2212" d="M 678 2272 
L 4684 2272 
L 4684 1741 
L 678 1741 
L 678 2272 
z
" transform="scale(0.015625)"/>
        <path id="DejaVuSans-31" d="M 794 531 
L 1825 531 
L 1825 4091 
L 703 3866 
L 703 4441 
L 1819 4666 
L 2450 4666 
L 2450 531 
L 3481 531 
L 3481 0 
L 794 0 
L 794 531 
z
" transform="scale(0.015625)"/>
        <path id="DejaVuSans-2e" d="M 684 794 
L 1344 794 
L 1344 0 
L 684 0 
L 684 794 
z
" transform="scale(0.015625)"/>
        <path id="DejaVuSans-30" d="M 2034 4250 
Q 1547 4250 1301 3770 
Q 1056 3291 1056 2328 
Q 1056 1369 1301 889 
Q 1547 409 2034 409 
Q 2525 409 2770 889 
Q 3016 1369 3016 2328 
Q 3016 3291 2770 3770 
Q 2525 4250 2034 4250 
z
M 2034 4750 
Q 2819 4750 3233 4129 
Q 3647 3509 3647 2328 
Q 3647 1150 3233 529 
Q 2819 -91 2034 -91 
Q 1250 -91 836 529 
Q 422 1150 422 2328 
Q 422 3509 836 4129 
Q 1250 4750 2034 4750 
z
" transform="scale(0.015625)"/>
       </defs>
       <use xlink:href="#DejaVuSans-2212"/>
       <use xlink:href="#DejaVuSans-31" x="83.789062"/>
       <use xlink:href="#DejaVuSans-2e" x="147.412109"/>
       <use xlink:href="#DejaVuSans-30" x="179.199219"/>
      </g>
     </g>
    </g>
    <g id="xtick_2">
     <g id="line2d_2">
      <g>
       <use xlink:href="#m72f9be68f8" x="86.306681" y="317.93875" style="stroke: #000000; stroke-width: 0.8"/>
      </g>
     </g>
     <g id="text_2">
      <!-- −0.8 -->
      <g transform="translate(74.165275 332.537188) scale(0.1 -0.1)">
       <defs>
        <path id="DejaVuSans-38" d="M 2034 2216 
Q 1584 2216 1326 1975 
Q 1069 1734 1069 1313 
Q 1069 891 1326 650 
Q 1584 409 2034 409 
Q 2484 409 2743 651 
Q 3003 894 3003 1313 
Q 3003 1734 2745 1975 
Q 2488 2216 2034 2216 
z
M 1403 2484 
Q 997 2584 770 2862 
Q 544 3141 544 3541 
Q 544 4100 942 4425 
Q 1341 4750 2034 4750 
Q 2731 4750 3128 4425 
Q 3525 4100 3525 3541 
Q 3525 3141 3298 2862 
Q 3072 2584 2669 2484 
Q 3125 2378 3379 2068 
Q 3634 1759 3634 1313 
Q 3634 634 3220 271 
Q 2806 -91 2034 -91 
Q 1263 -91 848 271 
Q 434 634 434 1313 
Q 434 1759 690 2068 
Q 947 2378 1403 2484 
z
M 1172 3481 
Q 1172 3119 1398 2916 
Q 1625 2713 2034 2713 
Q 2441 2713 2670 2916 
Q 2900 3119 2900 3481 
Q 2900 3844 2670 4047 
Q 2441 4250 2034 4250 
Q 1625 4250 1398 4047 
Q 1172 3844 1172 3481 
z
" transform="scale(0.015625)"/>
       </defs>
       <use xlink:href="#DejaVuSans-2212"/>
       <use xlink:href="#DejaVuSans-30" x="83.789062"/>
       <use xlink:href="#DejaVuSans-2e" x="147.412109"/>
       <use xlink:href="#DejaVuSans-38" x="179.199219"/>
      </g>
     </g>
    </g>
    <g id="xtick_3">
     <g id="line2d_3">
      <g>
       <use xlink:href="#m72f9be68f8" x="120.46517" y="317.93875" style="stroke: #000000; stroke-width: 0.8"/>
      </g>
     </g>
     <g id="text_3">
      <!-- −0.6 -->
      <g transform="translate(108.323764 332.537188) scale(0.1 -0.1)">
       <defs>
        <path id="DejaVuSans-36" d="M 2113 2584 
Q 1688 2584 1439 2293 
Q 1191 2003 1191 1497 
Q 1191 994 1439 701 
Q 1688 409 2113 409 
Q 2538 409 2786 701 
Q 3034 994 3034 1497 
Q 3034 2003 2786 2293 
Q 2538 2584 2113 2584 
z
M 3366 4563 
L 3366 3988 
Q 3128 4100 2886 4159 
Q 2644 4219 2406 4219 
Q 1781 4219 1451 3797 
Q 1122 3375 1075 2522 
Q 1259 2794 1537 2939 
Q 1816 3084 2150 3084 
Q 2853 3084 3261 2657 
Q 3669 2231 3669 1497 
Q 3669 778 3244 343 
Q 2819 -91 2113 -91 
Q 1303 -91 875 529 
Q 447 1150 447 2328 
Q 447 3434 972 4092 
Q 1497 4750 2381 4750 
Q 2619 4750 2861 4703 
Q 3103 4656 3366 4563 
z
" transform="scale(0.015625)"/>
       </defs>
       <use xlink:href="#DejaVuSans-2212"/>
       <use xlink:href="#DejaVuSans-30" x="83.789062"/>
       <use xlink:href="#DejaVuSans-2e" x="147.412109"/>
       <use xlink:href="#DejaVuSans-36" x="179.199219"/>
      </g>
     </g>
    </g>
    <g id="xtick_4">
     <g id="line2d_4">
      <g>
       <use xlink:href="#m72f9be68f8" x="154.62366" y="317.93875" style="stroke: #000000; stroke-width: 0.8"/>
      </g>
     </g>
     <g id="text_4">
      <!-- −0.4 -->
      <g transform="translate(142.482253 332.537188) scale(0.1 -0.1)">
       <defs>
        <path id="DejaVuSans-34" d="M 2419 4116 
L 825 1625 
L 2419 1625 
L 2419 4116 
z
M 2253 4666 
L 3047 4666 
L 3047 1625 
L 3713 1625 
L 3713 1100 
L 3047 1100 
L 3047 0 
L 2419 0 
L 2419 1100 
L 313 1100 
L 313 1709 
L 2253 4666 
z
" transform="scale(0.015625)"/>
       </defs>
       <use xlink:href="#DejaVuSans-2212"/>
       <use xlink:href="#DejaVuSans-30" x="83.789062"/>
       <use xlink:href="#DejaVuSans-2e" x="147.412109"/>
       <use xlink:href="#DejaVuSans-34" x="179.199219"/>
      </g>
     </g>
    </g>
    <g id="xtick_5">
     <g id="line2d_5">
      <g>
       <use xlink:href="#m72f9be68f8" x="188.782149" y="317.93875" style="stroke: #000000; stroke-width: 0.8"/>
      </g>
     </g>
     <g id="text_5">
      <!-- −0.2 -->
      <g transform="translate(176.640742 332.537188) scale(0.1 -0.1)">
       <defs>
        <path id="DejaVuSans-32" d="M 1228 531 
L 3431 531 
L 3431 0 
L 469 0 
L 469 531 
Q 828 903 1448 1529 
Q 2069 2156 2228 2338 
Q 2531 2678 2651 2914 
Q 2772 3150 2772 3378 
Q 2772 3750 2511 3984 
Q 2250 4219 1831 4219 
Q 1534 4219 1204 4116 
Q 875 4013 500 3803 
L 500 4441 
Q 881 4594 1212 4672 
Q 1544 4750 1819 4750 
Q 2544 4750 2975 4387 
Q 3406 4025 3406 3419 
Q 3406 3131 3298 2873 
Q 3191 2616 2906 2266 
Q 2828 2175 2409 1742 
Q 1991 1309 1228 531 
z
" transform="scale(0.015625)"/>
       </defs>
       <use xlink:href="#DejaVuSans-2212"/>
       <use xlink:href="#DejaVuSans-30" x="83.789062"/>
       <use xlink:href="#DejaVuSans-2e" x="147.412109"/>
       <use xlink:href="#DejaVuSans-32" x="179.199219"/>
      </g>
     </g>
    </g>
    <g id="xtick_6">
     <g id="line2d_6">
      <g>
       <use xlink:href="#m72f9be68f8" x="222.940638" y="317.93875" style="stroke: #000000; stroke-width: 0.8"/>
      </g>
     </g>
     <g id="text_6">
      <!-- 0.0 -->
      <g transform="translate(214.989075 332.537188) scale(0.1 -0.1)">
       <use xlink:href="#DejaVuSans-30"/>
       <use xlink:href="#DejaVuSans-2e" x="63.623047"/>
       <use xlink:href="#DejaVuSans-30" x="95.410156"/>
      </g>
     </g>
    </g>
    <g id="xtick_7">
     <g id="line2d_7">
      <g>
       <use xlink:href="#m72f9be68f8" x="257.099127" y="317.93875" style="stroke: #000000; stroke-width: 0.8"/>
      </g>
     </g>
     <g id="text_7">
      <!-- 0.2 -->
      <g transform="translate(249.147565 332.537188) scale(0.1 -0.1)">
       <use xlink:href="#DejaVuSans-30"/>
       <use xlink:href="#DejaVuSans-2e" x="63.623047"/>
       <use xlink:href="#DejaVuSans-32" x="95.410156"/>
      </g>
     </g>
    </g>
    <g id="xtick_8">
     <g id="line2d_8">
      <g>
       <use xlink:href="#m72f9be68f8" x="291.257616" y="317.93875" style="stroke: #000000; stroke-width: 0.8"/>
      </g>
     </g>
     <g id="text_8">
      <!-- 0.4 -->
      <g transform="translate(283.306054 332.537188) scale(0.1 -0.1)">
       <use xlink:href="#DejaVuSans-30"/>
       <use xlink:href="#DejaVuSans-2e" x="63.623047"/>
       <use xlink:href="#DejaVuSans-34" x="95.410156"/>
      </g>
     </g>
    </g>
    <g id="xtick_9">
     <g id="line2d_9">
      <g>
       <use xlink:href="#m72f9be68f8" x="325.416105" y="317.93875" style="stroke: #000000; stroke-width: 0.8"/>
      </g>
     </g>
     <g id="text_9">
      <!-- 0.6 -->
      <g transform="translate(317.464543 332.537188) scale(0.1 -0.1)">
       <use xlink:href="#DejaVuSans-30"/>
       <use xlink:href="#DejaVuSans-2e" x="63.623047"/>
       <use xlink:href="#DejaVuSans-36" x="95.410156"/>
      </g>
     </g>
    </g>
    <g id="text_10">
     <!-- persistence_score_down -->
     <g transform="translate(137.650469 346.215312) scale(0.1 -0.1)">
      <defs>
       <path id="DejaVuSans-70" d="M 1159 525 
L 1159 -1331 
L 581 -1331 
L 581 3500 
L 1159 3500 
L 1159 2969 
Q 1341 3281 1617 3432 
Q 1894 3584 2278 3584 
Q 2916 3584 3314 3078 
Q 3713 2572 3713 1747 
Q 3713 922 3314 415 
Q 2916 -91 2278 -91 
Q 1894 -91 1617 61 
Q 1341 213 1159 525 
z
M 3116 1747 
Q 3116 2381 2855 2742 
Q 2594 3103 2138 3103 
Q 1681 3103 1420 2742 
Q 1159 2381 1159 1747 
Q 1159 1113 1420 752 
Q 1681 391 2138 391 
Q 2594 391 2855 752 
Q 3116 1113 3116 1747 
z
" transform="scale(0.015625)"/>
       <path id="DejaVuSans-65" d="M 3597 1894 
L 3597 1613 
L 953 1613 
Q 991 1019 1311 708 
Q 1631 397 2203 397 
Q 2534 397 2845 478 
Q 3156 559 3463 722 
L 3463 178 
Q 3153 47 2828 -22 
Q 2503 -91 2169 -91 
Q 1331 -91 842 396 
Q 353 884 353 1716 
Q 353 2575 817 3079 
Q 1281 3584 2069 3584 
Q 2775 3584 3186 3129 
Q 3597 2675 3597 1894 
z
M 3022 2063 
Q 3016 2534 2758 2815 
Q 2500 3097 2075 3097 
Q 1594 3097 1305 2825 
Q 1016 2553 972 2059 
L 3022 2063 
z
" transform="scale(0.015625)"/>
       <path id="DejaVuSans-72" d="M 2631 2963 
Q 2534 3019 2420 3045 
Q 2306 3072 2169 3072 
Q 1681 3072 1420 2755 
Q 1159 2438 1159 1844 
L 1159 0 
L 581 0 
L 581 3500 
L 1159 3500 
L 1159 2956 
Q 1341 3275 1631 3429 
Q 1922 3584 2338 3584 
Q 2397 3584 2469 3576 
Q 2541 3569 2628 3553 
L 2631 2963 
z
" transform="scale(0.015625)"/>
       <path id="DejaVuSans-73" d="M 2834 3397 
L 2834 2853 
Q 2591 2978 2328 3040 
Q 2066 3103 1784 3103 
Q 1356 3103 1142 2972 
Q 928 2841 928 2578 
Q 928 2378 1081 2264 
Q 1234 2150 1697 2047 
L 1894 2003 
Q 2506 1872 2764 1633 
Q 3022 1394 3022 966 
Q 3022 478 2636 193 
Q 2250 -91 1575 -91 
Q 1294 -91 989 -36 
Q 684 19 347 128 
L 347 722 
Q 666 556 975 473 
Q 1284 391 1588 391 
Q 1994 391 2212 530 
Q 2431 669 2431 922 
Q 2431 1156 2273 1281 
Q 2116 1406 1581 1522 
L 1381 1569 
Q 847 1681 609 1914 
Q 372 2147 372 2553 
Q 372 3047 722 3315 
Q 1072 3584 1716 3584 
Q 2034 3584 2315 3537 
Q 2597 3491 2834 3397 
z
" transform="scale(0.015625)"/>
       <path id="DejaVuSans-69" d="M 603 3500 
L 1178 3500 
L 1178 0 
L 603 0 
L 603 3500 
z
M 603 4863 
L 1178 4863 
L 1178 4134 
L 603 4134 
L 603 4863 
z
" transform="scale(0.015625)"/>
       <path id="DejaVuSans-74" d="M 1172 4494 
L 1172 3500 
L 2356 3500 
L 2356 3053 
L 1172 3053 
L 1172 1153 
Q 1172 725 1289 603 
Q 1406 481 1766 481 
L 2356 481 
L 2356 0 
L 1766 0 
Q 1100 0 847 248 
Q 594 497 594 1153 
L 594 3053 
L 172 3053 
L 172 3500 
L 594 3500 
L 594 4494 
L 1172 4494 
z
" transform="scale(0.015625)"/>
       <path id="DejaVuSans-6e" d="M 3513 2113 
L 3513 0 
L 2938 0 
L 2938 2094 
Q 2938 2591 2744 2837 
Q 2550 3084 2163 3084 
Q 1697 3084 1428 2787 
Q 1159 2491 1159 1978 
L 1159 0 
L 581 0 
L 581 3500 
L 1159 3500 
L 1159 2956 
Q 1366 3272 1645 3428 
Q 1925 3584 2291 3584 
Q 2894 3584 3203 3211 
Q 3513 2838 3513 2113 
z
" transform="scale(0.015625)"/>
       <path id="DejaVuSans-63" d="M 3122 3366 
L 3122 2828 
Q 2878 2963 2633 3030 
Q 2388 3097 2138 3097 
Q 1578 3097 1268 2742 
Q 959 2388 959 1747 
Q 959 1106 1268 751 
Q 1578 397 2138 397 
Q 2388 397 2633 464 
Q 2878 531 3122 666 
L 3122 134 
Q 2881 22 2623 -34 
Q 2366 -91 2075 -91 
Q 1284 -91 818 406 
Q 353 903 353 1747 
Q 353 2603 823 3093 
Q 1294 3584 2113 3584 
Q 2378 3584 2631 3529 
Q 2884 3475 3122 3366 
z
" transform="scale(0.015625)"/>
       <path id="DejaVuSans-5f" d="M 3263 -1063 
L 3263 -1509 
L -63 -1509 
L -63 -1063 
L 3263 -1063 
z
" transform="scale(0.015625)"/>
       <path id="DejaVuSans-6f" d="M 1959 3097 
Q 1497 3097 1228 2736 
Q 959 2375 959 1747 
Q 959 1119 1226 758 
Q 1494 397 1959 397 
Q 2419 397 2687 759 
Q 2956 1122 2956 1747 
Q 2956 2369 2687 2733 
Q 2419 3097 1959 3097 
z
M 1959 3584 
Q 2709 3584 3137 3096 
Q 3566 2609 3566 1747 
Q 3566 888 3137 398 
Q 2709 -91 1959 -91 
Q 1206 -91 779 398 
Q 353 888 353 1747 
Q 353 2609 779 3096 
Q 1206 3584 1959 3584 
z
" transform="scale(0.015625)"/>
       <path id="DejaVuSans-64" d="M 2906 2969 
L 2906 4863 
L 3481 4863 
L 3481 0 
L 2906 0 
L 2906 525 
Q 2725 213 2448 61 
Q 2172 -91 1784 -91 
Q 1150 -91 751 415 
Q 353 922 353 1747 
Q 353 2572 751 3078 
Q 1150 3584 1784 3584 
Q 2172 3584 2448 3432 
Q 2725 3281 2906 2969 
z
M 947 1747 
Q 947 1113 1208 752 
Q 1469 391 1925 391 
Q 2381 391 2643 752 
Q 2906 1113 2906 1747 
Q 2906 2381 2643 2742 
Q 2381 3103 1925 3103 
Q 1469 3103 1208 2742 
Q 947 2381 947 1747 
z
" transform="scale(0.015625)"/>
       <path id="DejaVuSans-77" d="M 269 3500 
L 844 3500 
L 1563 769 
L 2278 3500 
L 2956 3500 
L 3675 769 
L 4391 3500 
L 4966 3500 
L 4050 0 
L 3372 0 
L 2619 2869 
L 1863 0 
L 1184 0 
L 269 3500 
z
" transform="scale(0.015625)"/>
      </defs>
      <use xlink:href="#DejaVuSans-70"/>
      <use xlink:href="#DejaVuSans-65" x="63.476562"/>
      <use xlink:href="#DejaVuSans-72" x="125"/>
      <use xlink:href="#DejaVuSans-73" x="166.113281"/>
      <use xlink:href="#DejaVuSans-69" x="218.212891"/>
      <use xlink:href="#DejaVuSans-73" x="245.996094"/>
      <use xlink:href="#DejaVuSans-74" x="298.095703"/>
      <use xlink:href="#DejaVuSans-65" x="337.304688"/>
      <use xlink:href="#DejaVuSans-6e" x="398.828125"/>
      <use xlink:href="#DejaVuSans-63" x="462.207031"/>
      <use xlink:href="#DejaVuSans-65" x="517.1875"/>
      <use xlink:href="#DejaVuSans-5f" x="578.710938"/>
      <use xlink:href="#DejaVuSans-73" x="628.710938"/>
      <use xlink:href="#DejaVuSans-63" x="680.810547"/>
      <use xlink:href="#DejaVuSans-6f" x="735.791016"/>
      <use xlink:href="#DejaVuSans-72" x="796.972656"/>
      <use xlink:href="#DejaVuSans-65" x="835.835938"/>
      <use xlink:href="#DejaVuSans-5f" x="897.359375"/>
      <use xlink:href="#DejaVuSans-64" x="947.359375"/>
      <use xlink:href="#DejaVuSans-6f" x="1010.835938"/>
      <use xlink:href="#DejaVuSans-77" x="1072.017578"/>
      <use xlink:href="#DejaVuSans-6e" x="1153.804688"/>
     </g>
    </g>
   </g>
   <g id="matplotlib.axis_2">
    <g id="ytick_1">
     <g id="line2d_10">
      <defs>
       <path id="mad1e2428da" d="M 0 0 
L -3.5 0 
" style="stroke: #000000; stroke-width: 0.8"/>
      </defs>
      <g>
       <use xlink:href="#mad1e2428da" x="47.82125" y="312.686941" style="stroke: #000000; stroke-width: 0.8"/>
      </g>
     </g>
     <g id="text_11">
      <!-- 0.0 -->
      <g transform="translate(24.918125 316.486159) scale(0.1 -0.1)">
       <use xlink:href="#DejaVuSans-30"/>
       <use xlink:href="#DejaVuSans-2e" x="63.623047"/>
       <use xlink:href="#DejaVuSans-30" x="95.410156"/>
      </g>
     </g>
    </g>
    <g id="ytick_2">
     <g id="line2d_11">
      <g>
       <use xlink:href="#mad1e2428da" x="47.82125" y="262.03824" style="stroke: #000000; stroke-width: 0.8"/>
      </g>
     </g>
     <g id="text_12">
      <!-- 0.2 -->
      <g transform="translate(24.918125 265.837459) scale(0.1 -0.1)">
       <use xlink:href="#DejaVuSans-30"/>
       <use xlink:href="#DejaVuSans-2e" x="63.623047"/>
       <use xlink:href="#DejaVuSans-32" x="95.410156"/>
      </g>
     </g>
    </g>
    <g id="ytick_3">
     <g id="line2d_12">
      <g>
       <use xlink:href="#mad1e2428da" x="47.82125" y="211.38954" style="stroke: #000000; stroke-width: 0.8"/>
      </g>
     </g>
     <g id="text_13">
      <!-- 0.4 -->
      <g transform="translate(24.918125 215.188758) scale(0.1 -0.1)">
       <use xlink:href="#DejaVuSans-30"/>
       <use xlink:href="#DejaVuSans-2e" x="63.623047"/>
       <use xlink:href="#DejaVuSans-34" x="95.410156"/>
      </g>
     </g>
    </g>
    <g id="ytick_4">
     <g id="line2d_13">
      <g>
       <use xlink:href="#mad1e2428da" x="47.82125" y="160.740839" style="stroke: #000000; stroke-width: 0.8"/>
      </g>
     </g>
     <g id="text_14">
      <!-- 0.6 -->
      <g transform="translate(24.918125 164.540058) scale(0.1 -0.1)">
       <use xlink:href="#DejaVuSans-30"/>
       <use xlink:href="#DejaVuSans-2e" x="63.623047"/>
       <use xlink:href="#DejaVuSans-36" x="95.410156"/>
      </g>
     </g>
    </g>
    <g id="ytick_5">
     <g id="line2d_14">
      <g>
       <use xlink:href="#mad1e2428da" x="47.82125" y="110.092139" style="stroke: #000000; stroke-width: 0.8"/>
      </g>
     </g>
     <g id="text_15">
      <!-- 0.8 -->
      <g transform="translate(24.918125 113.891357) scale(0.1 -0.1)">
       <use xlink:href="#DejaVuSans-30"/>
       <use xlink:href="#DejaVuSans-2e" x="63.623047"/>
       <use xlink:href="#DejaVuSans-38" x="95.410156"/>
      </g>
     </g>
    </g>
    <g id="ytick_6">
     <g id="line2d_15">
      <g>
       <use xlink:href="#mad1e2428da" x="47.82125" y="59.443438" style="stroke: #000000; stroke-width: 0.8"/>
      </g>
     </g>
     <g id="text_16">
      <!-- 1.0 -->
      <g transform="translate(24.918125 63.242657) scale(0.1 -0.1)">
       <use xlink:href="#DejaVuSans-31"/>
       <use xlink:href="#DejaVuSans-2e" x="63.623047"/>
       <use xlink:href="#DejaVuSans-30" x="95.410156"/>
      </g>
     </g>
    </g>
    <g id="text_17">
     <!-- adaptation_down -->
     <g transform="translate(18.560313 207.438906) rotate(-90) scale(0.1 -0.1)">
      <defs>
       <path id="DejaVuSans-61" d="M 2194 1759 
Q 1497 1759 1228 1600 
Q 959 1441 959 1056 
Q 959 750 1161 570 
Q 1363 391 1709 391 
Q 2188 391 2477 730 
Q 2766 1069 2766 1631 
L 2766 1759 
L 2194 1759 
z
M 3341 1997 
L 3341 0 
L 2766 0 
L 2766 531 
Q 2569 213 2275 61 
Q 1981 -91 1556 -91 
Q 1019 -91 701 211 
Q 384 513 384 1019 
Q 384 1609 779 1909 
Q 1175 2209 1959 2209 
L 2766 2209 
L 2766 2266 
Q 2766 2663 2505 2880 
Q 2244 3097 1772 3097 
Q 1472 3097 1187 3025 
Q 903 2953 641 2809 
L 641 3341 
Q 956 3463 1253 3523 
Q 1550 3584 1831 3584 
Q 2591 3584 2966 3190 
Q 3341 2797 3341 1997 
z
" transform="scale(0.015625)"/>
      </defs>
      <use xlink:href="#DejaVuSans-61"/>
      <use xlink:href="#DejaVuSans-64" x="61.279297"/>
      <use xlink:href="#DejaVuSans-61" x="124.755859"/>
      <use xlink:href="#DejaVuSans-70" x="186.035156"/>
      <use xlink:href="#DejaVuSans-74" x="249.511719"/>
      <use xlink:href="#DejaVuSans-61" x="288.720703"/>
      <use xlink:href="#DejaVuSans-74" x="350"/>
      <use xlink:href="#DejaVuSans-69" x="389.208984"/>
      <use xlink:href="#DejaVuSans-6f" x="416.992188"/>
      <use xlink:href="#DejaVuSans-6e" x="478.173828"/>
      <use xlink:href="#DejaVuSans-5f" x="541.552734"/>
      <use xlink:href="#DejaVuSans-64" x="591.552734"/>
      <use xlink:href="#DejaVuSans-6f" x="655.029297"/>
      <use xlink:href="#DejaVuSans-77" x="716.210938"/>
      <use xlink:href="#DejaVuSans-6e" x="797.998047"/>
     </g>
    </g>
   </g>
   <g id="line2d_16">
    <path d="M 61.520284 190.401641 
L 64.287766 190.145208 
L 67.055247 189.888775 
L 69.822729 189.632341 
L 72.590211 189.375908 
L 75.357692 189.119475 
L 78.125174 188.863042 
L 80.892656 188.606609 
L 83.660137 188.350175 
L 86.427619 188.093742 
L 89.1951 187.837309 
L 91.962582 187.580876 
L 94.730064 187.324443 
L 97.497545 187.06801 
L 100.265027 186.811576 
L 103.032509 186.555143 
L 105.79999 186.29871 
L 108.567472 186.042277 
L 111.334954 185.785844 
L 114.102435 185.529411 
L 116.869917 185.272977 
L 119.637398 185.016544 
L 122.40488 184.760111 
L 125.172362 184.503678 
L 127.939843 184.247245 
L 130.707325 183.990812 
L 133.474807 183.734378 
L 136.242288 183.477945 
L 139.00977 183.221512 
L 141.777251 182.965079 
L 144.544733 182.708646 
L 147.312215 182.452212 
L 150.079696 182.195779 
L 152.847178 181.939346 
L 155.61466 181.682913 
L 158.382141 181.42648 
L 161.149623 181.170047 
L 163.917105 180.913613 
L 166.684586 180.65718 
L 169.452068 180.400747 
L 172.219549 180.144314 
L 174.987031 179.887881 
L 177.754513 179.631448 
L 180.521994 179.375014 
L 183.289476 179.118581 
L 186.056958 178.862148 
L 188.824439 178.605715 
L 191.591921 178.349282 
L 194.359403 178.092849 
L 197.126884 177.836415 
L 199.894366 177.579982 
L 202.661847 177.323549 
L 205.429329 177.067116 
L 208.196811 176.810683 
L 210.964292 176.55425 
L 213.731774 176.297816 
L 216.499256 176.041383 
L 219.266737 175.78495 
L 222.034219 175.528517 
L 224.801701 175.272084 
L 227.569182 175.01565 
L 230.336664 174.759217 
L 233.104145 174.502784 
L 235.871627 174.246351 
L 238.639109 173.989918 
L 241.40659 173.733485 
L 244.174072 173.477051 
L 246.941554 173.220618 
L 249.709035 172.964185 
L 252.476517 172.707752 
L 255.243999 172.451319 
L 258.01148 172.194886 
L 260.778962 171.938452 
L 263.546443 171.682019 
L 266.313925 171.425586 
L 269.081407 171.169153 
L 271.848888 170.91272 
L 274.61637 170.656287 
L 277.383852 170.399853 
L 280.151333 170.14342 
L 282.918815 169.886987 
L 285.686296 169.630554 
L 288.453778 169.374121 
L 291.22126 169.117688 
L 293.988741 168.861254 
L 296.756223 168.604821 
L 299.523705 168.348388 
L 302.291186 168.091955 
L 305.058668 167.835522 
L 307.82615 167.579088 
L 310.593631 167.322655 
L 313.361113 167.066222 
L 316.128594 166.809789 
L 318.896076 166.553356 
L 321.663558 166.296923 
L 324.431039 166.040489 
L 327.198521 165.784056 
L 329.966003 165.527623 
L 332.733484 165.27119 
L 335.500966 165.014757 
" clip-path="url(#pc1b737593e)" style="fill: none; stroke: #1f77b4; stroke-width: 2.25; stroke-linecap: square"/>
   </g>
   <g id="patch_3">
    <path d="M 47.82125 317.93875 
L 47.82125 10.8 
" style="fill: none; stroke: #000000; stroke-width: 0.8; stroke-linejoin: miter; stroke-linecap: square"/>
   </g>
   <g id="patch_4">
    <path d="M 47.82125 317.93875 
L 349.2 317.93875 
" style="fill: none; stroke: #000000; stroke-width: 0.8; stroke-linejoin: miter; stroke-linecap: square"/>
   </g>
  </g>
 </g>
 <defs>
  <clipPath id="pc1b737593e">
   <rect x="47.82125" y="10.8" width="301.37875" height="307.13875"/>
  </clipPath>
 </defs>
</svg>
