<?xml version="1.0" encoding="utf-8" standalone="no"?>
<!DOCTYPE svg PUBLIC "-//W3C//DTD SVG 1.1//EN"
  "http://www.w3.org/Graphics/SVG/1.1/DTD/svg11.dtd">
<svg xmlns:xlink="http://www.w3.org/1999/xlink" width="360pt" height="360pt" viewBox="0 0 360 360" xmlns="http://www.w3.org/2000/svg" version="1.1">
 <metadata>
  <rdf:RDF xmlns:dc="http://purl.org/dc/elements/1.1/" xmlns:cc="http://creativecommons.org/ns#" xmlns:rdf="http://www.w3.org/1999/02/22-rdf-syntax-ns#">
   <cc:Work>
    <dc:type rdf:resource="http://purl.org/dc/dcmitype/StillImage"/>
    <dc:date>2024-12-05T14:39:03.996362</dc:date>
    <dc:format>image/svg+xml</dc:format>
    <dc:creator>
     <cc:Agent>
      <dc:title>Matplotlib v3.9.2, https://matplotlib.org/</dc:title>
     </cc:Agent>
    </dc:creator>
   </cc:Work>
  </rdf:RDF>
 </metadata>
 <defs>
  <style type="text/css">*{stroke-linejoin: round; stroke-linecap: butt}</style>
 </defs>
 <g id="figure_1">
  <g id="patch_1">
   <path d="M 0 360 
L 360 360 
L 360 0 
L 0 0 
z
" style="fill: #ffffff"/>
  </g>
  <g id="axes_1">
   <g id="patch_2">
    <path d="M 47.82125 317.93875 
L 349.2 317.93875 
L 349.2 10.8 
L 47.82125 10.8 
z
" style="fill: #ffffff"/>
   </g>
   <g id="PathCollection_1">
    <defs>
     <path id="m33a99b4ca7" d="M 0 3 
C 0.795609 3 1.55874 2.683901 2.12132 2.12132 
C 2.683901 1.55874 3 0.795609 3 0 
C 3 -0.795609 2.683901 -1.55874 2.12132 -2.12132 
C 1.55874 -2.683901 0.795609 -3 0 -3 
C -0.795609 -3 -1.55874 -2.683901 -2.12132 -2.12132 
C -2.683901 -1.55874 -3 -0.795609 -3 0 
C -3 0.795609 -2.683901 1.55874 -2.12132 2.12132 
C -1.55874 2.683901 -0.795609 3 0 3 
z
" style="stroke: #1f77b4; stroke-opacity: 0.8"/>
    </defs>
    <g clip-path="url(#pc08e62b912)">
     <use xlink:href="#m33a99b4ca7" x="246.957058" y="126.298598" style="fill: #1f77b4; fill-opacity: 0.8; stroke: #1f77b4; stroke-opacity: 0.8"/>
     <use xlink:href="#m33a99b4ca7" x="61.520284" y="195.896943" style="fill: #1f77b4; fill-opacity: 0.8; stroke: #1f77b4; stroke-opacity: 0.8"/>
     <use xlink:href="#m33a99b4ca7" x="186.088398" y="140.54143" style="fill: #1f77b4; fill-opacity: 0.8; stroke: #1f77b4; stroke-opacity: 0.8"/>
     <use xlink:href="#m33a99b4ca7" x="225.405311" y="63.676355" style="fill: #1f77b4; fill-opacity: 0.8; stroke: #1f77b4; stroke-opacity: 0.8"/>
     <use xlink:href="#m33a99b4ca7" x="216.78733" y="227.31229" style="fill: #1f77b4; fill-opacity: 0.8; stroke: #1f77b4; stroke-opacity: 0.8"/>
     <use xlink:href="#m33a99b4ca7" x="335.500966" y="262.529168" style="fill: #1f77b4; fill-opacity: 0.8; stroke: #1f77b4; stroke-opacity: 0.8"/>
     <use xlink:href="#m33a99b4ca7" x="78.828994" y="85.016765" style="fill: #1f77b4; fill-opacity: 0.8; stroke: #1f77b4; stroke-opacity: 0.8"/>
     <use xlink:href="#m33a99b4ca7" x="224.734132" y="181.65664" style="fill: #1f77b4; fill-opacity: 0.8; stroke: #1f77b4; stroke-opacity: 0.8"/>
     <use xlink:href="#m33a99b4ca7" x="62.749566" y="303.977898" style="fill: #1f77b4; fill-opacity: 0.8; stroke: #1f77b4; stroke-opacity: 0.8"/>
     <use xlink:href="#m33a99b4ca7" x="217.960806" y="146.784206" style="fill: #1f77b4; fill-opacity: 0.8; stroke: #1f77b4; stroke-opacity: 0.8"/>
     <use xlink:href="#m33a99b4ca7" x="133.569717" y="224.293272" style="fill: #1f77b4; fill-opacity: 0.8; stroke: #1f77b4; stroke-opacity: 0.8"/>
     <use xlink:href="#m33a99b4ca7" x="162.246838" y="249.218494" style="fill: #1f77b4; fill-opacity: 0.8; stroke: #1f77b4; stroke-opacity: 0.8"/>
     <use xlink:href="#m33a99b4ca7" x="205.196134" y="130.346751" style="fill: #1f77b4; fill-opacity: 0.8; stroke: #1f77b4; stroke-opacity: 0.8"/>
    </g>
   </g>
   <g id="PolyCollection_1">
    <path d="M 61.520284 94.130314 
L 61.520284 296.633187 
L 64.287766 293.997831 
L 67.055247 291.362474 
L 69.822729 288.732964 
L 72.590211 286.223521 
L 75.357692 283.55787 
L 78.125174 280.841729 
L 80.892656 278.200681 
L 83.660137 275.570764 
L 86.427619 272.940847 
L 89.1951 270.31093 
L 91.962582 267.681013 
L 94.730064 265.051096 
L 97.497545 262.421179 
L 100.265027 259.791262 
L 103.032509 257.156333 
L 105.79999 254.518289 
L 108.567472 251.880245 
L 111.334954 249.266264 
L 114.102435 247.179518 
L 116.869917 245.156723 
L 119.637398 243.661829 
L 122.40488 241.38987 
L 125.172362 239.032047 
L 127.939843 236.374818 
L 130.707325 235.066885 
L 133.474807 234.620249 
L 136.242288 232.89033 
L 139.00977 231.929629 
L 141.777251 229.419315 
L 144.544733 228.396473 
L 147.312215 226.789559 
L 150.079696 225.810915 
L 152.847178 223.475475 
L 155.61466 221.334269 
L 158.382141 219.486557 
L 161.149623 218.822812 
L 163.917105 218.334166 
L 166.684586 216.964394 
L 169.452068 217.162614 
L 172.219549 216.813916 
L 174.987031 216.440334 
L 177.754513 215.938884 
L 180.521994 215.407325 
L 183.289476 214.919398 
L 186.056958 214.442479 
L 188.824439 214.857427 
L 191.591921 215.048843 
L 194.359403 214.85517 
L 197.126884 214.489239 
L 199.894366 214.428397 
L 202.661847 214.23701 
L 205.429329 214.026729 
L 208.196811 214.206621 
L 210.964292 214.634681 
L 213.731774 215.00412 
L 216.499256 215.284912 
L 219.266737 215.407642 
L 222.034219 215.712725 
L 224.801701 215.781349 
L 227.569182 216.334254 
L 230.336664 216.64899 
L 233.104145 217.044909 
L 235.871627 217.269663 
L 238.639109 217.574706 
L 241.40659 217.39074 
L 244.174072 217.106155 
L 246.941554 217.806367 
L 249.709035 218.528175 
L 252.476517 218.740451 
L 255.243999 219.047552 
L 258.01148 219.741932 
L 260.778962 219.951827 
L 263.546443 220.362417 
L 266.313925 221.005592 
L 269.081407 221.489861 
L 271.848888 221.823612 
L 274.61637 222.824149 
L 277.383852 223.435274 
L 280.151333 223.820656 
L 282.918815 224.636811 
L 285.686296 225.406156 
L 288.453778 226.770214 
L 291.22126 227.553143 
L 293.988741 228.19877 
L 296.756223 229.492332 
L 299.523705 229.983412 
L 302.291186 230.449862 
L 305.058668 230.856639 
L 307.82615 231.565272 
L 310.593631 232.75823 
L 313.361113 233.910647 
L 316.128594 235.089011 
L 318.896076 236.389616 
L 321.663558 237.322745 
L 324.431039 238.150625 
L 327.198521 238.845828 
L 329.966003 239.822712 
L 332.733484 240.650971 
L 335.500966 241.491622 
L 335.500966 24.760852 
L 335.500966 24.760852 
L 332.733484 27.638064 
L 329.966003 30.502441 
L 327.198521 32.785472 
L 324.431039 35.072874 
L 321.663558 37.360276 
L 318.896076 40.255504 
L 316.128594 43.30346 
L 313.361113 46.351417 
L 310.593631 48.926869 
L 307.82615 51.504595 
L 305.058668 54.08577 
L 302.291186 56.667996 
L 299.523705 59.255168 
L 296.756223 61.842341 
L 293.988741 64.429514 
L 291.22126 66.472874 
L 288.453778 68.922538 
L 285.686296 71.380281 
L 282.918815 73.368573 
L 280.151333 75.364489 
L 277.383852 77.793687 
L 274.61637 80.721935 
L 271.848888 83.650921 
L 269.081407 86.579907 
L 266.313925 89.136873 
L 263.546443 91.182436 
L 260.778962 92.811067 
L 258.01148 94.787471 
L 255.243999 97.349026 
L 252.476517 99.271448 
L 249.709035 101.502226 
L 246.941554 103.719342 
L 244.174072 105.826112 
L 241.40659 107.693541 
L 238.639109 109.74007 
L 235.871627 111.811532 
L 233.104145 113.873264 
L 230.336664 116.139921 
L 227.569182 118.025302 
L 224.801701 119.839761 
L 222.034219 121.864958 
L 219.266737 123.484222 
L 216.499256 125.283719 
L 213.731774 127.096334 
L 210.964292 128.813807 
L 208.196811 130.32681 
L 205.429329 130.442892 
L 202.661847 131.962252 
L 199.894366 133.453475 
L 197.126884 134.99431 
L 194.359403 135.277813 
L 191.591921 135.56262 
L 188.824439 135.665097 
L 186.056958 135.87193 
L 183.289476 136.569462 
L 180.521994 136.716962 
L 177.754513 136.673273 
L 174.987031 136.893754 
L 172.219549 136.947897 
L 169.452068 136.164315 
L 166.684586 135.192936 
L 163.917105 134.105544 
L 161.149623 134.348689 
L 158.382141 133.385029 
L 155.61466 132.869209 
L 152.847178 131.893837 
L 150.079696 130.911259 
L 147.312215 130.345969 
L 144.544733 129.626603 
L 141.777251 128.513608 
L 139.00977 127.418437 
L 136.242288 126.259744 
L 133.474807 125.130285 
L 130.707325 124.002961 
L 127.939843 122.960508 
L 125.172362 121.96357 
L 122.40488 120.966632 
L 119.637398 119.904902 
L 116.869917 118.619107 
L 114.102435 117.333311 
L 111.334954 115.987661 
L 108.567472 114.565718 
L 105.79999 113.223895 
L 103.032509 112.035049 
L 100.265027 110.850766 
L 97.497545 109.59505 
L 94.730064 108.490158 
L 91.962582 107.309544 
L 89.1951 106.26342 
L 86.427619 105.150334 
L 83.660137 103.843893 
L 80.892656 102.57988 
L 78.125174 101.393937 
L 75.357692 100.207994 
L 72.590211 99.022051 
L 69.822729 97.837168 
L 67.055247 96.657247 
L 64.287766 95.477327 
L 61.520284 94.130314 
z
" clip-path="url(#pc08e62b912)" style="fill: #1f77b4; fill-opacity: 0.15"/>
   </g>
   <g id="matplotlib.axis_1">
    <g id="xtick_1">
     <g id="line2d_1">
      <defs>
       <path id="m8717ffe118" d="M 0 0 
L 0 3.5 
" style="stroke: #000000; stroke-width: 0.8"/>
      </defs>
      <g>
       <use xlink:href="#m8717ffe118" x="52.148192" y="317.93875" style="stroke: #000000; stroke-width: 0.8"/>
      </g>
     </g>
     <g id="text_1">
      <!-- −1.0 -->
      <g transform="translate(40.006786 332.537188) scale(0.1 -0.1)">
       <defs>
        <path id="DejaVuSans-2212" d="M 678 2272 
L 4684 2272 
L 4684 1741 
L 678 1741 
L 678 2272 
z
" transform="scale(0.015625)"/>
        <path id="DejaVuSans-31" d="M 794 531 
L 1825 531 
L 1825 4091 
L 703 3866 
L 703 4441 
L 1819 4666 
L 2450 4666 
L 2450 531 
L 3481 531 
L 3481 0 
L 794 0 
L 794 531 
z
" transform="scale(0.015625)"/>
        <path id="DejaVuSans-2e" d="M 684 794 
L 1344 794 
L 1344 0 
L 684 0 
L 684 794 
z
" transform="scale(0.015625)"/>
        <path id="DejaVuSans-30" d="M 2034 4250 
Q 1547 4250 1301 3770 
Q 1056 3291 1056 2328 
Q 1056 1369 1301 889 
Q 1547 409 2034 409 
Q 2525 409 2770 889 
Q 3016 1369 3016 2328 
Q 3016 3291 2770 3770 
Q 2525 4250 2034 4250 
z
M 2034 4750 
Q 2819 4750 3233 4129 
Q 3647 3509 3647 2328 
Q 3647 1150 3233 529 
Q 2819 -91 2034 -91 
Q 1250 -91 836 529 
Q 422 1150 422 2328 
Q 422 3509 836 4129 
Q 1250 4750 2034 4750 
z
" transform="scale(0.015625)"/>
       </defs>
       <use xlink:href="#DejaVuSans-2212"/>
       <use xlink:href="#DejaVuSans-31" x="83.789062"/>
       <use xlink:href="#DejaVuSans-2e" x="147.412109"/>
       <use xlink:href="#DejaVuSans-30" x="179.199219"/>
      </g>
     </g>
    </g>
    <g id="xtick_2">
     <g id="line2d_2">
      <g>
       <use xlink:href="#m8717ffe118" x="86.306681" y="317.93875" style="stroke: #000000; stroke-width: 0.8"/>
      </g>
     </g>
     <g id="text_2">
      <!-- −0.8 -->
      <g transform="translate(74.165275 332.537188) scale(0.1 -0.1)">
       <defs>
        <path id="DejaVuSans-38" d="M 2034 2216 
Q 1584 2216 1326 1975 
Q 1069 1734 1069 1313 
Q 1069 891 1326 650 
Q 1584 409 2034 409 
Q 2484 409 2743 651 
Q 3003 894 3003 1313 
Q 3003 1734 2745 1975 
Q 2488 2216 2034 2216 
z
M 1403 2484 
Q 997 2584 770 2862 
Q 544 3141 544 3541 
Q 544 4100 942 4425 
Q 1341 4750 2034 4750 
Q 2731 4750 3128 4425 
Q 3525 4100 3525 3541 
Q 3525 3141 3298 2862 
Q 3072 2584 2669 2484 
Q 3125 2378 3379 2068 
Q 3634 1759 3634 1313 
Q 3634 634 3220 271 
Q 2806 -91 2034 -91 
Q 1263 -91 848 271 
Q 434 634 434 1313 
Q 434 1759 690 2068 
Q 947 2378 1403 2484 
z
M 1172 3481 
Q 1172 3119 1398 2916 
Q 1625 2713 2034 2713 
Q 2441 2713 2670 2916 
Q 2900 3119 2900 3481 
Q 2900 3844 2670 4047 
Q 2441 4250 2034 4250 
Q 1625 4250 1398 4047 
Q 1172 3844 1172 3481 
z
" transform="scale(0.015625)"/>
       </defs>
       <use xlink:href="#DejaVuSans-2212"/>
       <use xlink:href="#DejaVuSans-30" x="83.789062"/>
       <use xlink:href="#DejaVuSans-2e" x="147.412109"/>
       <use xlink:href="#DejaVuSans-38" x="179.199219"/>
      </g>
     </g>
    </g>
    <g id="xtick_3">
     <g id="line2d_3">
      <g>
       <use xlink:href="#m8717ffe118" x="120.46517" y="317.93875" style="stroke: #000000; stroke-width: 0.8"/>
      </g>
     </g>
     <g id="text_3">
      <!-- −0.6 -->
      <g transform="translate(108.323764 332.537188) scale(0.1 -0.1)">
       <defs>
        <path id="DejaVuSans-36" d="M 2113 2584 
Q 1688 2584 1439 2293 
Q 1191 2003 1191 1497 
Q 1191 994 1439 701 
Q 1688 409 2113 409 
Q 2538 409 2786 701 
Q 3034 994 3034 1497 
Q 3034 2003 2786 2293 
Q 2538 2584 2113 2584 
z
M 3366 4563 
L 3366 3988 
Q 3128 4100 2886 4159 
Q 2644 4219 2406 4219 
Q 1781 4219 1451 3797 
Q 1122 3375 1075 2522 
Q 1259 2794 1537 2939 
Q 1816 3084 2150 3084 
Q 2853 3084 3261 2657 
Q 3669 2231 3669 1497 
Q 3669 778 3244 343 
Q 2819 -91 2113 -91 
Q 1303 -91 875 529 
Q 447 1150 447 2328 
Q 447 3434 972 4092 
Q 1497 4750 2381 4750 
Q 2619 4750 2861 4703 
Q 3103 4656 3366 4563 
z
" transform="scale(0.015625)"/>
       </defs>
       <use xlink:href="#DejaVuSans-2212"/>
       <use xlink:href="#DejaVuSans-30" x="83.789062"/>
       <use xlink:href="#DejaVuSans-2e" x="147.412109"/>
       <use xlink:href="#DejaVuSans-36" x="179.199219"/>
      </g>
     </g>
    </g>
    <g id="xtick_4">
     <g id="line2d_4">
      <g>
       <use xlink:href="#m8717ffe118" x="154.62366" y="317.93875" style="stroke: #000000; stroke-width: 0.8"/>
      </g>
     </g>
     <g id="text_4">
      <!-- −0.4 -->
      <g transform="translate(142.482253 332.537188) scale(0.1 -0.1)">
       <defs>
        <path id="DejaVuSans-34" d="M 2419 4116 
L 825 1625 
L 2419 1625 
L 2419 4116 
z
M 2253 4666 
L 3047 4666 
L 3047 1625 
L 3713 1625 
L 3713 1100 
L 3047 1100 
L 3047 0 
L 2419 0 
L 2419 1100 
L 313 1100 
L 313 1709 
L 2253 4666 
z
" transform="scale(0.015625)"/>
       </defs>
       <use xlink:href="#DejaVuSans-2212"/>
       <use xlink:href="#DejaVuSans-30" x="83.789062"/>
       <use xlink:href="#DejaVuSans-2e" x="147.412109"/>
       <use xlink:href="#DejaVuSans-34" x="179.199219"/>
      </g>
     </g>
    </g>
    <g id="xtick_5">
     <g id="line2d_5">
      <g>
       <use xlink:href="#m8717ffe118" x="188.782149" y="317.93875" style="stroke: #000000; stroke-width: 0.8"/>
      </g>
     </g>
     <g id="text_5">
      <!-- −0.2 -->
      <g transform="translate(176.640742 332.537188) scale(0.1 -0.1)">
       <defs>
        <path id="DejaVuSans-32" d="M 1228 531 
L 3431 531 
L 3431 0 
L 469 0 
L 469 531 
Q 828 903 1448 1529 
Q 2069 2156 2228 2338 
Q 2531 2678 2651 2914 
Q 2772 3150 2772 3378 
Q 2772 3750 2511 3984 
Q 2250 4219 1831 4219 
Q 1534 4219 1204 4116 
Q 875 4013 500 3803 
L 500 4441 
Q 881 4594 1212 4672 
Q 1544 4750 1819 4750 
Q 2544 4750 2975 4387 
Q 3406 4025 3406 3419 
Q 3406 3131 3298 2873 
Q 3191 2616 2906 2266 
Q 2828 2175 2409 1742 
Q 1991 1309 1228 531 
z
" transform="scale(0.015625)"/>
       </defs>
       <use xlink:href="#DejaVuSans-2212"/>
       <use xlink:href="#DejaVuSans-30" x="83.789062"/>
       <use xlink:href="#DejaVuSans-2e" x="147.412109"/>
       <use xlink:href="#DejaVuSans-32" x="179.199219"/>
      </g>
     </g>
    </g>
    <g id="xtick_6">
     <g id="line2d_6">
      <g>
       <use xlink:href="#m8717ffe118" x="222.940638" y="317.93875" style="stroke: #000000; stroke-width: 0.8"/>
      </g>
     </g>
     <g id="text_6">
      <!-- 0.0 -->
      <g transform="translate(214.989075 332.537188) scale(0.1 -0.1)">
       <use xlink:href="#DejaVuSans-30"/>
       <use xlink:href="#DejaVuSans-2e" x="63.623047"/>
       <use xlink:href="#DejaVuSans-30" x="95.410156"/>
      </g>
     </g>
    </g>
    <g id="xtick_7">
     <g id="line2d_7">
      <g>
       <use xlink:href="#m8717ffe118" x="257.099127" y="317.93875" style="stroke: #000000; stroke-width: 0.8"/>
      </g>
     </g>
     <g id="text_7">
      <!-- 0.2 -->
      <g transform="translate(249.147565 332.537188) scale(0.1 -0.1)">
       <use xlink:href="#DejaVuSans-30"/>
       <use xlink:href="#DejaVuSans-2e" x="63.623047"/>
       <use xlink:href="#DejaVuSans-32" x="95.410156"/>
      </g>
     </g>
    </g>
    <g id="xtick_8">
     <g id="line2d_8">
      <g>
       <use xlink:href="#m8717ffe118" x="291.257616" y="317.93875" style="stroke: #000000; stroke-width: 0.8"/>
      </g>
     </g>
     <g id="text_8">
      <!-- 0.4 -->
      <g transform="translate(283.306054 332.537188) scale(0.1 -0.1)">
       <use xlink:href="#DejaVuSans-30"/>
       <use xlink:href="#DejaVuSans-2e" x="63.623047"/>
       <use xlink:href="#DejaVuSans-34" x="95.410156"/>
      </g>
     </g>
    </g>
    <g id="xtick_9">
     <g id="line2d_9">
      <g>
       <use xlink:href="#m8717ffe118" x="325.416105" y="317.93875" style="stroke: #000000; stroke-width: 0.8"/>
      </g>
     </g>
     <g id="text_9">
      <!-- 0.6 -->
      <g transform="translate(317.464543 332.537188) scale(0.1 -0.1)">
       <use xlink:href="#DejaVuSans-30"/>
       <use xlink:href="#DejaVuSans-2e" x="63.623047"/>
       <use xlink:href="#DejaVuSans-36" x="95.410156"/>
      </g>
     </g>
    </g>
    <g id="text_10">
     <!-- persistence_score_down -->
     <g transform="translate(137.650469 346.215312) scale(0.1 -0.1)">
      <defs>
       <path id="DejaVuSans-70" d="M 1159 525 
L 1159 -1331 
L 581 -1331 
L 581 3500 
L 1159 3500 
L 1159 2969 
Q 1341 3281 1617 3432 
Q 1894 3584 2278 3584 
Q 2916 3584 3314 3078 
Q 3713 2572 3713 1747 
Q 3713 922 3314 415 
Q 2916 -91 2278 -91 
Q 1894 -91 1617 61 
Q 1341 213 1159 525 
z
M 3116 1747 
Q 3116 2381 2855 2742 
Q 2594 3103 2138 3103 
Q 1681 3103 1420 2742 
Q 1159 2381 1159 1747 
Q 1159 1113 1420 752 
Q 1681 391 2138 391 
Q 2594 391 2855 752 
Q 3116 1113 3116 1747 
z
" transform="scale(0.015625)"/>
       <path id="DejaVuSans-65" d="M 3597 1894 
L 3597 1613 
L 953 1613 
Q 991 1019 1311 708 
Q 1631 397 2203 397 
Q 2534 397 2845 478 
Q 3156 559 3463 722 
L 3463 178 
Q 3153 47 2828 -22 
Q 2503 -91 2169 -91 
Q 1331 -91 842 396 
Q 353 884 353 1716 
Q 353 2575 817 3079 
Q 1281 3584 2069 3584 
Q 2775 3584 3186 3129 
Q 3597 2675 3597 1894 
z
M 3022 2063 
Q 3016 2534 2758 2815 
Q 2500 3097 2075 3097 
Q 1594 3097 1305 2825 
Q 1016 2553 972 2059 
L 3022 2063 
z
" transform="scale(0.015625)"/>
       <path id="DejaVuSans-72" d="M 2631 2963 
Q 2534 3019 2420 3045 
Q 2306 3072 2169 3072 
Q 1681 3072 1420 2755 
Q 1159 2438 1159 1844 
L 1159 0 
L 581 0 
L 581 3500 
L 1159 3500 
L 1159 2956 
Q 1341 3275 1631 3429 
Q 1922 3584 2338 3584 
Q 2397 3584 2469 3576 
Q 2541 3569 2628 3553 
L 2631 2963 
z
" transform="scale(0.015625)"/>
       <path id="DejaVuSans-73" d="M 2834 3397 
L 2834 2853 
Q 2591 2978 2328 3040 
Q 2066 3103 1784 3103 
Q 1356 3103 1142 2972 
Q 928 2841 928 2578 
Q 928 2378 1081 2264 
Q 1234 2150 1697 2047 
L 1894 2003 
Q 2506 1872 2764 1633 
Q 3022 1394 3022 966 
Q 3022 478 2636 193 
Q 2250 -91 1575 -91 
Q 1294 -91 989 -36 
Q 684 19 347 128 
L 347 722 
Q 666 556 975 473 
Q 1284 391 1588 391 
Q 1994 391 2212 530 
Q 2431 669 2431 922 
Q 2431 1156 2273 1281 
Q 2116 1406 1581 1522 
L 1381 1569 
Q 847 1681 609 1914 
Q 372 2147 372 2553 
Q 372 3047 722 3315 
Q 1072 3584 1716 3584 
Q 2034 3584 2315 3537 
Q 2597 3491 2834 3397 
z
" transform="scale(0.015625)"/>
       <path id="DejaVuSans-69" d="M 603 3500 
L 1178 3500 
L 1178 0 
L 603 0 
L 603 3500 
z
M 603 4863 
L 1178 4863 
L 1178 4134 
L 603 4134 
L 603 4863 
z
" transform="scale(0.015625)"/>
       <path id="DejaVuSans-74" d="M 1172 4494 
L 1172 3500 
L 2356 3500 
L 2356 3053 
L 1172 3053 
L 1172 1153 
Q 1172 725 1289 603 
Q 1406 481 1766 481 
L 2356 481 
L 2356 0 
L 1766 0 
Q 1100 0 847 248 
Q 594 497 594 1153 
L 594 3053 
L 172 3053 
L 172 3500 
L 594 3500 
L 594 4494 
L 1172 4494 
z
" transform="scale(0.015625)"/>
       <path id="DejaVuSans-6e" d="M 3513 2113 
L 3513 0 
L 2938 0 
L 2938 2094 
Q 2938 2591 2744 2837 
Q 2550 3084 2163 3084 
Q 1697 3084 1428 2787 
Q 1159 2491 1159 1978 
L 1159 0 
L 581 0 
L 581 3500 
L 1159 3500 
L 1159 2956 
Q 1366 3272 1645 3428 
Q 1925 3584 2291 3584 
Q 2894 3584 3203 3211 
Q 3513 2838 3513 2113 
z
" transform="scale(0.015625)"/>
       <path id="DejaVuSans-63" d="M 3122 3366 
L 3122 2828 
Q 2878 2963 2633 3030 
Q 2388 3097 2138 3097 
Q 1578 3097 1268 2742 
Q 959 2388 959 1747 
Q 959 1106 1268 751 
Q 1578 397 2138 397 
Q 2388 397 2633 464 
Q 2878 531 3122 666 
L 3122 134 
Q 2881 22 2623 -34 
Q 2366 -91 2075 -91 
Q 1284 -91 818 406 
Q 353 903 353 1747 
Q 353 2603 823 3093 
Q 1294 3584 2113 3584 
Q 2378 3584 2631 3529 
Q 2884 3475 3122 3366 
z
" transform="scale(0.015625)"/>
       <path id="DejaVuSans-5f" d="M 3263 -1063 
L 3263 -1509 
L -63 -1509 
L -63 -1063 
L 3263 -1063 
z
" transform="scale(0.015625)"/>
       <path id="DejaVuSans-6f" d="M 1959 3097 
Q 1497 3097 1228 2736 
Q 959 2375 959 1747 
Q 959 1119 1226 758 
Q 1494 397 1959 397 
Q 2419 397 2687 759 
Q 2956 1122 2956 1747 
Q 2956 2369 2687 2733 
Q 2419 3097 1959 3097 
z
M 1959 3584 
Q 2709 3584 3137 3096 
Q 3566 2609 3566 1747 
Q 3566 888 3137 398 
Q 2709 -91 1959 -91 
Q 1206 -91 779 398 
Q 353 888 353 1747 
Q 353 2609 779 3096 
Q 1206 3584 1959 3584 
z
" transform="scale(0.015625)"/>
       <path id="DejaVuSans-64" d="M 2906 2969 
L 2906 4863 
L 3481 4863 
L 3481 0 
L 2906 0 
L 2906 525 
Q 2725 213 2448 61 
Q 2172 -91 1784 -91 
Q 1150 -91 751 415 
Q 353 922 353 1747 
Q 353 2572 751 3078 
Q 1150 3584 1784 3584 
Q 2172 3584 2448 3432 
Q 2725 3281 2906 2969 
z
M 947 1747 
Q 947 1113 1208 752 
Q 1469 391 1925 391 
Q 2381 391 2643 752 
Q 2906 1113 2906 1747 
Q 2906 2381 2643 2742 
Q 2381 3103 1925 3103 
Q 1469 3103 1208 2742 
Q 947 2381 947 1747 
z
" transform="scale(0.015625)"/>
       <path id="DejaVuSans-77" d="M 269 3500 
L 844 3500 
L 1563 769 
L 2278 3500 
L 2956 3500 
L 3675 769 
L 4391 3500 
L 4966 3500 
L 4050 0 
L 3372 0 
L 2619 2869 
L 1863 0 
L 1184 0 
L 269 3500 
z
" transform="scale(0.015625)"/>
      </defs>
      <use xlink:href="#DejaVuSans-70"/>
      <use xlink:href="#DejaVuSans-65" x="63.476562"/>
      <use xlink:href="#DejaVuSans-72" x="125"/>
      <use xlink:href="#DejaVuSans-73" x="166.113281"/>
      <use xlink:href="#DejaVuSans-69" x="218.212891"/>
      <use xlink:href="#DejaVuSans-73" x="245.996094"/>
      <use xlink:href="#DejaVuSans-74" x="298.095703"/>
      <use xlink:href="#DejaVuSans-65" x="337.304688"/>
      <use xlink:href="#DejaVuSans-6e" x="398.828125"/>
      <use xlink:href="#DejaVuSans-63" x="462.207031"/>
      <use xlink:href="#DejaVuSans-65" x="517.1875"/>
      <use xlink:href="#DejaVuSans-5f" x="578.710938"/>
      <use xlink:href="#DejaVuSans-73" x="628.710938"/>
      <use xlink:href="#DejaVuSans-63" x="680.810547"/>
      <use xlink:href="#DejaVuSans-6f" x="735.791016"/>
      <use xlink:href="#DejaVuSans-72" x="796.972656"/>
      <use xlink:href="#DejaVuSans-65" x="835.835938"/>
      <use xlink:href="#DejaVuSans-5f" x="897.359375"/>
      <use xlink:href="#DejaVuSans-64" x="947.359375"/>
      <use xlink:href="#DejaVuSans-6f" x="1010.835938"/>
      <use xlink:href="#DejaVuSans-77" x="1072.017578"/>
      <use xlink:href="#DejaVuSans-6e" x="1153.804688"/>
     </g>
    </g>
   </g>
   <g id="matplotlib.axis_2">
    <g id="ytick_1">
     <g id="line2d_10">
      <defs>
       <path id="m6fe009342b" d="M 0 0 
L -3.5 0 
" style="stroke: #000000; stroke-width: 0.8"/>
      </defs>
      <g>
       <use xlink:href="#m6fe009342b" x="47.82125" y="312.651098" style="stroke: #000000; stroke-width: 0.8"/>
      </g>
     </g>
     <g id="text_11">
      <!-- 0.0 -->
      <g transform="translate(24.918125 316.450317) scale(0.1 -0.1)">
       <use xlink:href="#DejaVuSans-30"/>
       <use xlink:href="#DejaVuSans-2e" x="63.623047"/>
       <use xlink:href="#DejaVuSans-30" x="95.410156"/>
      </g>
     </g>
    </g>
    <g id="ytick_2">
     <g id="line2d_11">
      <g>
       <use xlink:href="#m6fe009342b" x="47.82125" y="262.210844" style="stroke: #000000; stroke-width: 0.8"/>
      </g>
     </g>
     <g id="text_12">
      <!-- 0.2 -->
      <g transform="translate(24.918125 266.010063) scale(0.1 -0.1)">
       <use xlink:href="#DejaVuSans-30"/>
       <use xlink:href="#DejaVuSans-2e" x="63.623047"/>
       <use xlink:href="#DejaVuSans-32" x="95.410156"/>
      </g>
     </g>
    </g>
    <g id="ytick_3">
     <g id="line2d_12">
      <g>
       <use xlink:href="#m6fe009342b" x="47.82125" y="211.77059" style="stroke: #000000; stroke-width: 0.8"/>
      </g>
     </g>
     <g id="text_13">
      <!-- 0.4 -->
      <g transform="translate(24.918125 215.569809) scale(0.1 -0.1)">
       <use xlink:href="#DejaVuSans-30"/>
       <use xlink:href="#DejaVuSans-2e" x="63.623047"/>
       <use xlink:href="#DejaVuSans-34" x="95.410156"/>
      </g>
     </g>
    </g>
    <g id="ytick_4">
     <g id="line2d_13">
      <g>
       <use xlink:href="#m6fe009342b" x="47.82125" y="161.330336" style="stroke: #000000; stroke-width: 0.8"/>
      </g>
     </g>
     <g id="text_14">
      <!-- 0.6 -->
      <g transform="translate(24.918125 165.129555) scale(0.1 -0.1)">
       <use xlink:href="#DejaVuSans-30"/>
       <use xlink:href="#DejaVuSans-2e" x="63.623047"/>
       <use xlink:href="#DejaVuSans-36" x="95.410156"/>
      </g>
     </g>
    </g>
    <g id="ytick_5">
     <g id="line2d_14">
      <g>
       <use xlink:href="#m6fe009342b" x="47.82125" y="110.890082" style="stroke: #000000; stroke-width: 0.8"/>
      </g>
     </g>
     <g id="text_15">
      <!-- 0.8 -->
      <g transform="translate(24.918125 114.689301) scale(0.1 -0.1)">
       <use xlink:href="#DejaVuSans-30"/>
       <use xlink:href="#DejaVuSans-2e" x="63.623047"/>
       <use xlink:href="#DejaVuSans-38" x="95.410156"/>
      </g>
     </g>
    </g>
    <g id="ytick_6">
     <g id="line2d_15">
      <g>
       <use xlink:href="#m6fe009342b" x="47.82125" y="60.449828" style="stroke: #000000; stroke-width: 0.8"/>
      </g>
     </g>
     <g id="text_16">
      <!-- 1.0 -->
      <g transform="translate(24.918125 64.249047) scale(0.1 -0.1)">
       <use xlink:href="#DejaVuSans-31"/>
       <use xlink:href="#DejaVuSans-2e" x="63.623047"/>
       <use xlink:href="#DejaVuSans-30" x="95.410156"/>
      </g>
     </g>
    </g>
    <g id="text_17">
     <!-- adaptation_down -->
     <g transform="translate(18.560313 207.438906) rotate(-90) scale(0.1 -0.1)">
      <defs>
       <path id="DejaVuSans-61" d="M 2194 1759 
Q 1497 1759 1228 1600 
Q 959 1441 959 1056 
Q 959 750 1161 570 
Q 1363 391 1709 391 
Q 2188 391 2477 730 
Q 2766 1069 2766 1631 
L 2766 1759 
L 2194 1759 
z
M 3341 1997 
L 3341 0 
L 2766 0 
L 2766 531 
Q 2569 213 2275 61 
Q 1981 -91 1556 -91 
Q 1019 -91 701 211 
Q 384 513 384 1019 
Q 384 1609 779 1909 
Q 1175 2209 1959 2209 
L 2766 2209 
L 2766 2266 
Q 2766 2663 2505 2880 
Q 2244 3097 1772 3097 
Q 1472 3097 1187 3025 
Q 903 2953 641 2809 
L 641 3341 
Q 956 3463 1253 3523 
Q 1550 3584 1831 3584 
Q 2591 3584 2966 3190 
Q 3341 2797 3341 1997 
z
" transform="scale(0.015625)"/>
      </defs>
      <use xlink:href="#DejaVuSans-61"/>
      <use xlink:href="#DejaVuSans-64" x="61.279297"/>
      <use xlink:href="#DejaVuSans-61" x="124.755859"/>
      <use xlink:href="#DejaVuSans-70" x="186.035156"/>
      <use xlink:href="#DejaVuSans-74" x="249.511719"/>
      <use xlink:href="#DejaVuSans-61" x="288.720703"/>
      <use xlink:href="#DejaVuSans-74" x="350"/>
      <use xlink:href="#DejaVuSans-69" x="389.208984"/>
      <use xlink:href="#DejaVuSans-6f" x="416.992188"/>
      <use xlink:href="#DejaVuSans-6e" x="478.173828"/>
      <use xlink:href="#DejaVuSans-5f" x="541.552734"/>
      <use xlink:href="#DejaVuSans-64" x="591.552734"/>
      <use xlink:href="#DejaVuSans-6f" x="655.029297"/>
      <use xlink:href="#DejaVuSans-77" x="716.210938"/>
      <use xlink:href="#DejaVuSans-6e" x="797.998047"/>
     </g>
    </g>
   </g>
   <g id="line2d_16">
    <path d="M 61.520284 190.869068 
L 64.287766 190.61369 
L 67.055247 190.358312 
L 69.822729 190.102934 
L 72.590211 189.847557 
L 75.357692 189.592179 
L 78.125174 189.336801 
L 80.892656 189.081423 
L 83.660137 188.826045 
L 86.427619 188.570668 
L 89.1951 188.31529 
L 91.962582 188.059912 
L 94.730064 187.804534 
L 97.497545 187.549156 
L 100.265027 187.293778 
L 103.032509 187.038401 
L 105.79999 186.783023 
L 108.567472 186.527645 
L 111.334954 186.272267 
L 114.102435 186.016889 
L 116.869917 185.761512 
L 119.637398 185.506134 
L 122.40488 185.250756 
L 125.172362 184.995378 
L 127.939843 184.74 
L 130.707325 184.484623 
L 133.474807 184.229245 
L 136.242288 183.973867 
L 139.00977 183.718489 
L 141.777251 183.463111 
L 144.544733 183.207733 
L 147.312215 182.952356 
L 150.079696 182.696978 
L 152.847178 182.4416 
L 155.61466 182.186222 
L 158.382141 181.930844 
L 161.149623 181.675467 
L 163.917105 181.420089 
L 166.684586 181.164711 
L 169.452068 180.909333 
L 172.219549 180.653955 
L 174.987031 180.398578 
L 177.754513 180.1432 
L 180.521994 179.887822 
L 183.289476 179.632444 
L 186.056958 179.377066 
L 188.824439 179.121688 
L 191.591921 178.866311 
L 194.359403 178.610933 
L 197.126884 178.355555 
L 199.894366 178.100177 
L 202.661847 177.844799 
L 205.429329 177.589422 
L 208.196811 177.334044 
L 210.964292 177.078666 
L 213.731774 176.823288 
L 216.499256 176.56791 
L 219.266737 176.312533 
L 222.034219 176.057155 
L 224.801701 175.801777 
L 227.569182 175.546399 
L 230.336664 175.291021 
L 233.104145 175.035643 
L 235.871627 174.780266 
L 238.639109 174.524888 
L 241.40659 174.26951 
L 244.174072 174.014132 
L 246.941554 173.758754 
L 249.709035 173.503377 
L 252.476517 173.247999 
L 255.243999 172.992621 
L 258.01148 172.737243 
L 260.778962 172.481865 
L 263.546443 172.226487 
L 266.313925 171.97111 
L 269.081407 171.715732 
L 271.848888 171.460354 
L 274.61637 171.204976 
L 277.383852 170.949598 
L 280.151333 170.694221 
L 282.918815 170.438843 
L 285.686296 170.183465 
L 288.453778 169.928087 
L 291.22126 169.672709 
L 293.988741 169.417332 
L 296.756223 169.161954 
L 299.523705 168.906576 
L 302.291186 168.651198 
L 305.058668 168.39582 
L 307.82615 168.140442 
L 310.593631 167.885065 
L 313.361113 167.629687 
L 316.128594 167.374309 
L 318.896076 167.118931 
L 321.663558 166.863553 
L 324.431039 166.608176 
L 327.198521 166.352798 
L 329.966003 166.09742 
L 332.733484 165.842042 
L 335.500966 165.586664 
" clip-path="url(#pc08e62b912)" style="fill: none; stroke: #1f77b4; stroke-width: 2.25; stroke-linecap: square"/>
   </g>
   <g id="patch_3">
    <path d="M 47.82125 317.93875 
L 47.82125 10.8 
" style="fill: none; stroke: #000000; stroke-width: 0.8; stroke-linejoin: miter; stroke-linecap: square"/>
   </g>
   <g id="patch_4">
    <path d="M 47.82125 317.93875 
L 349.2 317.93875 
" style="fill: none; stroke: #000000; stroke-width: 0.8; stroke-linejoin: miter; stroke-linecap: square"/>
   </g>
  </g>
 </g>
 <defs>
  <clipPath id="pc08e62b912">
   <rect x="47.82125" y="10.8" width="301.37875" height="307.13875"/>
  </clipPath>
 </defs>
</svg>
