<?xml version="1.0" encoding="utf-8" standalone="no"?>
<!DOCTYPE svg PUBLIC "-//W3C//DTD SVG 1.1//EN"
  "http://www.w3.org/Graphics/SVG/1.1/DTD/svg11.dtd">
<svg xmlns:xlink="http://www.w3.org/1999/xlink" width="360pt" height="360pt" viewBox="0 0 360 360" xmlns="http://www.w3.org/2000/svg" version="1.1">
 <metadata>
  <rdf:RDF xmlns:dc="http://purl.org/dc/elements/1.1/" xmlns:cc="http://creativecommons.org/ns#" xmlns:rdf="http://www.w3.org/1999/02/22-rdf-syntax-ns#">
   <cc:Work>
    <dc:type rdf:resource="http://purl.org/dc/dcmitype/StillImage"/>
    <dc:date>2025-02-03T17:43:43.836904</dc:date>
    <dc:format>image/svg+xml</dc:format>
    <dc:creator>
     <cc:Agent>
      <dc:title>Matplotlib v3.9.2, https://matplotlib.org/</dc:title>
     </cc:Agent>
    </dc:creator>
   </cc:Work>
  </rdf:RDF>
 </metadata>
 <defs>
  <style type="text/css">*{stroke-linejoin: round; stroke-linecap: butt}</style>
 </defs>
 <g id="figure_1">
  <g id="patch_1">
   <path d="M 0 360 
L 360 360 
L 360 0 
L 0 0 
z
" style="fill: #ffffff"/>
  </g>
  <g id="axes_1">
   <g id="patch_2">
    <path d="M 47.72 317.93875 
L 349.2 317.93875 
L 349.2 10.8 
L 47.72 10.8 
z
" style="fill: #ffffff"/>
   </g>
   <g id="PathCollection_1">
    <defs>
     <path id="ma40e89a96e" d="M 0 3 
C 0.795609 3 1.55874 2.683901 2.12132 2.12132 
C 2.683901 1.55874 3 0.795609 3 0 
C 3 -0.795609 2.683901 -1.55874 2.12132 -2.12132 
C 1.55874 -2.683901 0.795609 -3 0 -3 
C -0.795609 -3 -1.55874 -2.683901 -2.12132 -2.12132 
C -2.683901 -1.55874 -3 -0.795609 -3 0 
C -3 0.795609 -2.683901 1.55874 -2.12132 2.12132 
C -1.55874 2.683901 -0.795609 3 0 3 
z
" style="stroke: #1f77b4; stroke-opacity: 0.8"/>
    </defs>
    <g clip-path="url(#pc28cc12fa5)">
     <use xlink:href="#ma40e89a96e" x="245.719683" y="205.200689" style="fill: #1f77b4; fill-opacity: 0.8; stroke: #1f77b4; stroke-opacity: 0.8"/>
     <use xlink:href="#ma40e89a96e" x="61.423636" y="241.522171" style="fill: #1f77b4; fill-opacity: 0.8; stroke: #1f77b4; stroke-opacity: 0.8"/>
     <use xlink:href="#ma40e89a96e" x="188.930296" y="222.008386" style="fill: #1f77b4; fill-opacity: 0.8; stroke: #1f77b4; stroke-opacity: 0.8"/>
     <use xlink:href="#ma40e89a96e" x="221.692767" y="121.042808" style="fill: #1f77b4; fill-opacity: 0.8; stroke: #1f77b4; stroke-opacity: 0.8"/>
     <use xlink:href="#ma40e89a96e" x="229.790518" y="230.612931" style="fill: #1f77b4; fill-opacity: 0.8; stroke: #1f77b4; stroke-opacity: 0.8"/>
     <use xlink:href="#ma40e89a96e" x="335.496364" y="205.486072" style="fill: #1f77b4; fill-opacity: 0.8; stroke: #1f77b4; stroke-opacity: 0.8"/>
     <use xlink:href="#ma40e89a96e" x="74.791345" y="24.760852" style="fill: #1f77b4; fill-opacity: 0.8; stroke: #1f77b4; stroke-opacity: 0.8"/>
     <use xlink:href="#ma40e89a96e" x="223.028591" y="173.278844" style="fill: #1f77b4; fill-opacity: 0.8; stroke: #1f77b4; stroke-opacity: 0.8"/>
     <use xlink:href="#ma40e89a96e" x="64.603167" y="241.160242" style="fill: #1f77b4; fill-opacity: 0.8; stroke: #1f77b4; stroke-opacity: 0.8"/>
     <use xlink:href="#ma40e89a96e" x="215.046835" y="179.881169" style="fill: #1f77b4; fill-opacity: 0.8; stroke: #1f77b4; stroke-opacity: 0.8"/>
     <use xlink:href="#ma40e89a96e" x="129.424822" y="101.77137" style="fill: #1f77b4; fill-opacity: 0.8; stroke: #1f77b4; stroke-opacity: 0.8"/>
     <use xlink:href="#ma40e89a96e" x="159.698952" y="303.977898" style="fill: #1f77b4; fill-opacity: 0.8; stroke: #1f77b4; stroke-opacity: 0.8"/>
     <use xlink:href="#ma40e89a96e" x="203.515784" y="200.447956" style="fill: #1f77b4; fill-opacity: 0.8; stroke: #1f77b4; stroke-opacity: 0.8"/>
    </g>
   </g>
   <g id="PolyCollection_1">
    <path d="M 61.423636 57.999832 
L 61.423636 262.222089 
L 64.192048 261.512324 
L 66.960459 260.802559 
L 69.728871 259.911171 
L 72.497282 258.495236 
L 75.265693 257.106586 
L 78.034105 256.346853 
L 80.802516 255.587121 
L 83.570927 254.572899 
L 86.339339 253.953839 
L 89.10775 253.333255 
L 91.876162 251.840133 
L 94.644573 250.930307 
L 97.412984 249.564554 
L 100.181396 248.275154 
L 102.949807 247.376503 
L 105.718219 246.55444 
L 108.48663 245.760583 
L 111.255041 244.966726 
L 114.023453 244.172868 
L 116.791864 243.379011 
L 119.560275 242.585154 
L 122.328687 241.791297 
L 125.097098 240.99744 
L 127.86551 240.203582 
L 130.633921 239.409725 
L 133.402332 238.613037 
L 136.170744 237.812123 
L 138.939155 237.01121 
L 141.707567 236.226141 
L 144.475978 235.416467 
L 147.244389 234.625129 
L 150.012801 233.833791 
L 152.781212 233.093149 
L 155.549624 232.432008 
L 158.318035 231.770866 
L 161.086446 231.109996 
L 163.854858 230.448583 
L 166.623269 229.787441 
L 169.39168 229.151836 
L 172.160092 228.473477 
L 174.928503 227.819826 
L 177.696915 227.154288 
L 180.465326 226.488705 
L 183.233737 225.718592 
L 186.002149 224.913884 
L 188.77056 224.259025 
L 191.538972 223.854919 
L 194.307383 223.640059 
L 197.075794 224.057389 
L 199.844206 223.304128 
L 202.612617 223.407976 
L 205.381028 222.856349 
L 208.14944 222.364361 
L 210.917851 222.216818 
L 213.686263 221.882082 
L 216.454674 222.452843 
L 219.223085 221.841905 
L 221.991497 221.438921 
L 224.759908 221.04579 
L 227.52832 221.021915 
L 230.296731 221.366352 
L 233.065142 222.732315 
L 235.833554 224.933187 
L 238.601965 225.655737 
L 241.370376 226.50934 
L 244.138788 228.290355 
L 246.907199 230.079316 
L 249.675611 231.378985 
L 252.444022 233.318728 
L 255.212433 234.76328 
L 257.980845 235.896919 
L 260.749256 237.466527 
L 263.517668 239.566465 
L 266.286079 241.350318 
L 269.05449 242.728841 
L 271.822902 244.285657 
L 274.591313 245.983307 
L 277.359725 248.247391 
L 280.128136 250.623547 
L 282.896547 252.992701 
L 285.664959 255.05006 
L 288.43337 256.83817 
L 291.201781 258.610356 
L 293.970193 260.444655 
L 296.738604 262.935066 
L 299.507016 264.820939 
L 302.275427 266.953295 
L 305.043838 269.191772 
L 307.81225 271.415639 
L 310.580661 273.48399 
L 313.349073 274.997871 
L 316.117484 276.511751 
L 318.885895 278.025631 
L 321.654307 279.79745 
L 324.422718 281.664721 
L 327.191129 283.52387 
L 329.959541 285.383019 
L 332.727952 287.242167 
L 335.496364 289.753854 
L 335.496364 143.673915 
L 335.496364 143.673915 
L 332.727952 144.655723 
L 329.959541 145.637531 
L 327.191129 146.611219 
L 324.422718 147.00669 
L 321.654307 147.402162 
L 318.885895 147.907004 
L 316.117484 149.4109 
L 313.349073 150.457161 
L 310.580661 151.206173 
L 307.81225 152.343264 
L 305.043838 153.490323 
L 302.275427 154.247475 
L 299.507016 154.735639 
L 296.738604 155.223804 
L 293.970193 155.711968 
L 291.201781 156.372394 
L 288.43337 157.178588 
L 285.664959 158.24849 
L 282.896547 158.709522 
L 280.128136 159.326239 
L 277.359725 160.063263 
L 274.591313 160.803774 
L 271.822902 161.52458 
L 269.05449 162.268679 
L 266.286079 162.891246 
L 263.517668 163.560934 
L 260.749256 164.292547 
L 257.980845 165.191741 
L 255.212433 165.537603 
L 252.444022 165.810573 
L 249.675611 166.12488 
L 246.907199 166.711848 
L 244.138788 166.712519 
L 241.370376 166.585616 
L 238.601965 166.450017 
L 235.833554 166.420572 
L 233.065142 166.075768 
L 230.296731 165.691119 
L 227.52832 165.409577 
L 224.759908 165.549049 
L 221.991497 165.231671 
L 219.223085 164.351419 
L 216.454674 163.580802 
L 213.686263 162.814878 
L 210.917851 161.591341 
L 208.14944 160.543114 
L 205.381028 159.717988 
L 202.612617 158.359044 
L 199.844206 157.478732 
L 197.075794 155.813668 
L 194.307383 154.547208 
L 191.538972 152.66318 
L 188.77056 150.639277 
L 186.002149 149.571277 
L 183.233737 148.419061 
L 180.465326 146.611802 
L 177.696915 145.110124 
L 174.928503 143.332168 
L 172.160092 141.568211 
L 169.39168 140.23251 
L 166.623269 138.044445 
L 163.854858 136.289278 
L 161.086446 134.766834 
L 158.318035 132.99242 
L 155.549624 131.375361 
L 152.781212 129.461875 
L 150.012801 127.548388 
L 147.244389 125.211902 
L 144.475978 122.742405 
L 141.707567 120.182291 
L 138.939155 117.380198 
L 136.170744 114.661804 
L 133.402332 111.943411 
L 130.633921 109.225017 
L 127.86551 106.508627 
L 125.097098 104.088814 
L 122.328687 102.244712 
L 119.560275 100.400611 
L 116.791864 97.70202 
L 114.023453 95.164837 
L 111.255041 93.527043 
L 108.48663 91.889249 
L 105.718219 90.251455 
L 102.949807 87.791674 
L 100.181396 84.671898 
L 97.412984 82.99057 
L 94.644573 81.144659 
L 91.876162 78.613812 
L 89.10775 76.233551 
L 86.339339 74.400261 
L 83.570927 72.579421 
L 80.802516 70.75858 
L 78.034105 68.93774 
L 75.265693 67.1169 
L 72.497282 65.296059 
L 69.728871 63.475219 
L 66.960459 61.674825 
L 64.192048 59.871388 
L 61.423636 57.999832 
z
" clip-path="url(#pc28cc12fa5)" style="fill: #1f77b4; fill-opacity: 0.15"/>
   </g>
   <g id="matplotlib.axis_1">
    <g id="xtick_1">
     <g id="line2d_1">
      <defs>
       <path id="m45f68cb498" d="M 0 0 
L 0 3.5 
" style="stroke: #000000; stroke-width: 0.8"/>
      </defs>
      <g>
       <use xlink:href="#m45f68cb498" x="48.114184" y="317.93875" style="stroke: #000000; stroke-width: 0.8"/>
      </g>
     </g>
     <g id="text_1">
      <!-- −2.0 -->
      <g transform="translate(35.972778 332.537188) scale(0.1 -0.1)">
       <defs>
        <path id="DejaVuSans-2212" d="M 678 2272 
L 4684 2272 
L 4684 1741 
L 678 1741 
L 678 2272 
z
" transform="scale(0.015625)"/>
        <path id="DejaVuSans-32" d="M 1228 531 
L 3431 531 
L 3431 0 
L 469 0 
L 469 531 
Q 828 903 1448 1529 
Q 2069 2156 2228 2338 
Q 2531 2678 2651 2914 
Q 2772 3150 2772 3378 
Q 2772 3750 2511 3984 
Q 2250 4219 1831 4219 
Q 1534 4219 1204 4116 
Q 875 4013 500 3803 
L 500 4441 
Q 881 4594 1212 4672 
Q 1544 4750 1819 4750 
Q 2544 4750 2975 4387 
Q 3406 4025 3406 3419 
Q 3406 3131 3298 2873 
Q 3191 2616 2906 2266 
Q 2828 2175 2409 1742 
Q 1991 1309 1228 531 
z
" transform="scale(0.015625)"/>
        <path id="DejaVuSans-2e" d="M 684 794 
L 1344 794 
L 1344 0 
L 684 0 
L 684 794 
z
" transform="scale(0.015625)"/>
        <path id="DejaVuSans-30" d="M 2034 4250 
Q 1547 4250 1301 3770 
Q 1056 3291 1056 2328 
Q 1056 1369 1301 889 
Q 1547 409 2034 409 
Q 2525 409 2770 889 
Q 3016 1369 3016 2328 
Q 3016 3291 2770 3770 
Q 2525 4250 2034 4250 
z
M 2034 4750 
Q 2819 4750 3233 4129 
Q 3647 3509 3647 2328 
Q 3647 1150 3233 529 
Q 2819 -91 2034 -91 
Q 1250 -91 836 529 
Q 422 1150 422 2328 
Q 422 3509 836 4129 
Q 1250 4750 2034 4750 
z
" transform="scale(0.015625)"/>
       </defs>
       <use xlink:href="#DejaVuSans-2212"/>
       <use xlink:href="#DejaVuSans-32" x="83.789062"/>
       <use xlink:href="#DejaVuSans-2e" x="147.412109"/>
       <use xlink:href="#DejaVuSans-30" x="179.199219"/>
      </g>
     </g>
    </g>
    <g id="xtick_2">
     <g id="line2d_2">
      <g>
       <use xlink:href="#m45f68cb498" x="91.27119" y="317.93875" style="stroke: #000000; stroke-width: 0.8"/>
      </g>
     </g>
     <g id="text_2">
      <!-- −1.5 -->
      <g transform="translate(79.129784 332.537188) scale(0.1 -0.1)">
       <defs>
        <path id="DejaVuSans-31" d="M 794 531 
L 1825 531 
L 1825 4091 
L 703 3866 
L 703 4441 
L 1819 4666 
L 2450 4666 
L 2450 531 
L 3481 531 
L 3481 0 
L 794 0 
L 794 531 
z
" transform="scale(0.015625)"/>
        <path id="DejaVuSans-35" d="M 691 4666 
L 3169 4666 
L 3169 4134 
L 1269 4134 
L 1269 2991 
Q 1406 3038 1543 3061 
Q 1681 3084 1819 3084 
Q 2600 3084 3056 2656 
Q 3513 2228 3513 1497 
Q 3513 744 3044 326 
Q 2575 -91 1722 -91 
Q 1428 -91 1123 -41 
Q 819 9 494 109 
L 494 744 
Q 775 591 1075 516 
Q 1375 441 1709 441 
Q 2250 441 2565 725 
Q 2881 1009 2881 1497 
Q 2881 1984 2565 2268 
Q 2250 2553 1709 2553 
Q 1456 2553 1204 2497 
Q 953 2441 691 2322 
L 691 4666 
z
" transform="scale(0.015625)"/>
       </defs>
       <use xlink:href="#DejaVuSans-2212"/>
       <use xlink:href="#DejaVuSans-31" x="83.789062"/>
       <use xlink:href="#DejaVuSans-2e" x="147.412109"/>
       <use xlink:href="#DejaVuSans-35" x="179.199219"/>
      </g>
     </g>
    </g>
    <g id="xtick_3">
     <g id="line2d_3">
      <g>
       <use xlink:href="#m45f68cb498" x="134.428196" y="317.93875" style="stroke: #000000; stroke-width: 0.8"/>
      </g>
     </g>
     <g id="text_3">
      <!-- −1.0 -->
      <g transform="translate(122.28679 332.537188) scale(0.1 -0.1)">
       <use xlink:href="#DejaVuSans-2212"/>
       <use xlink:href="#DejaVuSans-31" x="83.789062"/>
       <use xlink:href="#DejaVuSans-2e" x="147.412109"/>
       <use xlink:href="#DejaVuSans-30" x="179.199219"/>
      </g>
     </g>
    </g>
    <g id="xtick_4">
     <g id="line2d_4">
      <g>
       <use xlink:href="#m45f68cb498" x="177.585202" y="317.93875" style="stroke: #000000; stroke-width: 0.8"/>
      </g>
     </g>
     <g id="text_4">
      <!-- −0.5 -->
      <g transform="translate(165.443796 332.537188) scale(0.1 -0.1)">
       <use xlink:href="#DejaVuSans-2212"/>
       <use xlink:href="#DejaVuSans-30" x="83.789062"/>
       <use xlink:href="#DejaVuSans-2e" x="147.412109"/>
       <use xlink:href="#DejaVuSans-35" x="179.199219"/>
      </g>
     </g>
    </g>
    <g id="xtick_5">
     <g id="line2d_5">
      <g>
       <use xlink:href="#m45f68cb498" x="220.742208" y="317.93875" style="stroke: #000000; stroke-width: 0.8"/>
      </g>
     </g>
     <g id="text_5">
      <!-- 0.0 -->
      <g transform="translate(212.790645 332.537188) scale(0.1 -0.1)">
       <use xlink:href="#DejaVuSans-30"/>
       <use xlink:href="#DejaVuSans-2e" x="63.623047"/>
       <use xlink:href="#DejaVuSans-30" x="95.410156"/>
      </g>
     </g>
    </g>
    <g id="xtick_6">
     <g id="line2d_6">
      <g>
       <use xlink:href="#m45f68cb498" x="263.899214" y="317.93875" style="stroke: #000000; stroke-width: 0.8"/>
      </g>
     </g>
     <g id="text_6">
      <!-- 0.5 -->
      <g transform="translate(255.947651 332.537188) scale(0.1 -0.1)">
       <use xlink:href="#DejaVuSans-30"/>
       <use xlink:href="#DejaVuSans-2e" x="63.623047"/>
       <use xlink:href="#DejaVuSans-35" x="95.410156"/>
      </g>
     </g>
    </g>
    <g id="xtick_7">
     <g id="line2d_7">
      <g>
       <use xlink:href="#m45f68cb498" x="307.05622" y="317.93875" style="stroke: #000000; stroke-width: 0.8"/>
      </g>
     </g>
     <g id="text_7">
      <!-- 1.0 -->
      <g transform="translate(299.104657 332.537188) scale(0.1 -0.1)">
       <use xlink:href="#DejaVuSans-31"/>
       <use xlink:href="#DejaVuSans-2e" x="63.623047"/>
       <use xlink:href="#DejaVuSans-30" x="95.410156"/>
      </g>
     </g>
    </g>
    <g id="text_8">
     <!-- persistence_score -->
     <g transform="translate(153.59125 346.215312) scale(0.1 -0.1)">
      <defs>
       <path id="DejaVuSans-70" d="M 1159 525 
L 1159 -1331 
L 581 -1331 
L 581 3500 
L 1159 3500 
L 1159 2969 
Q 1341 3281 1617 3432 
Q 1894 3584 2278 3584 
Q 2916 3584 3314 3078 
Q 3713 2572 3713 1747 
Q 3713 922 3314 415 
Q 2916 -91 2278 -91 
Q 1894 -91 1617 61 
Q 1341 213 1159 525 
z
M 3116 1747 
Q 3116 2381 2855 2742 
Q 2594 3103 2138 3103 
Q 1681 3103 1420 2742 
Q 1159 2381 1159 1747 
Q 1159 1113 1420 752 
Q 1681 391 2138 391 
Q 2594 391 2855 752 
Q 3116 1113 3116 1747 
z
" transform="scale(0.015625)"/>
       <path id="DejaVuSans-65" d="M 3597 1894 
L 3597 1613 
L 953 1613 
Q 991 1019 1311 708 
Q 1631 397 2203 397 
Q 2534 397 2845 478 
Q 3156 559 3463 722 
L 3463 178 
Q 3153 47 2828 -22 
Q 2503 -91 2169 -91 
Q 1331 -91 842 396 
Q 353 884 353 1716 
Q 353 2575 817 3079 
Q 1281 3584 2069 3584 
Q 2775 3584 3186 3129 
Q 3597 2675 3597 1894 
z
M 3022 2063 
Q 3016 2534 2758 2815 
Q 2500 3097 2075 3097 
Q 1594 3097 1305 2825 
Q 1016 2553 972 2059 
L 3022 2063 
z
" transform="scale(0.015625)"/>
       <path id="DejaVuSans-72" d="M 2631 2963 
Q 2534 3019 2420 3045 
Q 2306 3072 2169 3072 
Q 1681 3072 1420 2755 
Q 1159 2438 1159 1844 
L 1159 0 
L 581 0 
L 581 3500 
L 1159 3500 
L 1159 2956 
Q 1341 3275 1631 3429 
Q 1922 3584 2338 3584 
Q 2397 3584 2469 3576 
Q 2541 3569 2628 3553 
L 2631 2963 
z
" transform="scale(0.015625)"/>
       <path id="DejaVuSans-73" d="M 2834 3397 
L 2834 2853 
Q 2591 2978 2328 3040 
Q 2066 3103 1784 3103 
Q 1356 3103 1142 2972 
Q 928 2841 928 2578 
Q 928 2378 1081 2264 
Q 1234 2150 1697 2047 
L 1894 2003 
Q 2506 1872 2764 1633 
Q 3022 1394 3022 966 
Q 3022 478 2636 193 
Q 2250 -91 1575 -91 
Q 1294 -91 989 -36 
Q 684 19 347 128 
L 347 722 
Q 666 556 975 473 
Q 1284 391 1588 391 
Q 1994 391 2212 530 
Q 2431 669 2431 922 
Q 2431 1156 2273 1281 
Q 2116 1406 1581 1522 
L 1381 1569 
Q 847 1681 609 1914 
Q 372 2147 372 2553 
Q 372 3047 722 3315 
Q 1072 3584 1716 3584 
Q 2034 3584 2315 3537 
Q 2597 3491 2834 3397 
z
" transform="scale(0.015625)"/>
       <path id="DejaVuSans-69" d="M 603 3500 
L 1178 3500 
L 1178 0 
L 603 0 
L 603 3500 
z
M 603 4863 
L 1178 4863 
L 1178 4134 
L 603 4134 
L 603 4863 
z
" transform="scale(0.015625)"/>
       <path id="DejaVuSans-74" d="M 1172 4494 
L 1172 3500 
L 2356 3500 
L 2356 3053 
L 1172 3053 
L 1172 1153 
Q 1172 725 1289 603 
Q 1406 481 1766 481 
L 2356 481 
L 2356 0 
L 1766 0 
Q 1100 0 847 248 
Q 594 497 594 1153 
L 594 3053 
L 172 3053 
L 172 3500 
L 594 3500 
L 594 4494 
L 1172 4494 
z
" transform="scale(0.015625)"/>
       <path id="DejaVuSans-6e" d="M 3513 2113 
L 3513 0 
L 2938 0 
L 2938 2094 
Q 2938 2591 2744 2837 
Q 2550 3084 2163 3084 
Q 1697 3084 1428 2787 
Q 1159 2491 1159 1978 
L 1159 0 
L 581 0 
L 581 3500 
L 1159 3500 
L 1159 2956 
Q 1366 3272 1645 3428 
Q 1925 3584 2291 3584 
Q 2894 3584 3203 3211 
Q 3513 2838 3513 2113 
z
" transform="scale(0.015625)"/>
       <path id="DejaVuSans-63" d="M 3122 3366 
L 3122 2828 
Q 2878 2963 2633 3030 
Q 2388 3097 2138 3097 
Q 1578 3097 1268 2742 
Q 959 2388 959 1747 
Q 959 1106 1268 751 
Q 1578 397 2138 397 
Q 2388 397 2633 464 
Q 2878 531 3122 666 
L 3122 134 
Q 2881 22 2623 -34 
Q 2366 -91 2075 -91 
Q 1284 -91 818 406 
Q 353 903 353 1747 
Q 353 2603 823 3093 
Q 1294 3584 2113 3584 
Q 2378 3584 2631 3529 
Q 2884 3475 3122 3366 
z
" transform="scale(0.015625)"/>
       <path id="DejaVuSans-5f" d="M 3263 -1063 
L 3263 -1509 
L -63 -1509 
L -63 -1063 
L 3263 -1063 
z
" transform="scale(0.015625)"/>
       <path id="DejaVuSans-6f" d="M 1959 3097 
Q 1497 3097 1228 2736 
Q 959 2375 959 1747 
Q 959 1119 1226 758 
Q 1494 397 1959 397 
Q 2419 397 2687 759 
Q 2956 1122 2956 1747 
Q 2956 2369 2687 2733 
Q 2419 3097 1959 3097 
z
M 1959 3584 
Q 2709 3584 3137 3096 
Q 3566 2609 3566 1747 
Q 3566 888 3137 398 
Q 2709 -91 1959 -91 
Q 1206 -91 779 398 
Q 353 888 353 1747 
Q 353 2609 779 3096 
Q 1206 3584 1959 3584 
z
" transform="scale(0.015625)"/>
      </defs>
      <use xlink:href="#DejaVuSans-70"/>
      <use xlink:href="#DejaVuSans-65" x="63.476562"/>
      <use xlink:href="#DejaVuSans-72" x="125"/>
      <use xlink:href="#DejaVuSans-73" x="166.113281"/>
      <use xlink:href="#DejaVuSans-69" x="218.212891"/>
      <use xlink:href="#DejaVuSans-73" x="245.996094"/>
      <use xlink:href="#DejaVuSans-74" x="298.095703"/>
      <use xlink:href="#DejaVuSans-65" x="337.304688"/>
      <use xlink:href="#DejaVuSans-6e" x="398.828125"/>
      <use xlink:href="#DejaVuSans-63" x="462.207031"/>
      <use xlink:href="#DejaVuSans-65" x="517.1875"/>
      <use xlink:href="#DejaVuSans-5f" x="578.710938"/>
      <use xlink:href="#DejaVuSans-73" x="628.710938"/>
      <use xlink:href="#DejaVuSans-63" x="680.810547"/>
      <use xlink:href="#DejaVuSans-6f" x="735.791016"/>
      <use xlink:href="#DejaVuSans-72" x="796.972656"/>
      <use xlink:href="#DejaVuSans-65" x="835.835938"/>
     </g>
    </g>
   </g>
   <g id="matplotlib.axis_2">
    <g id="ytick_1">
     <g id="line2d_8">
      <defs>
       <path id="med2d95e0db" d="M 0 0 
L -3.5 0 
" style="stroke: #000000; stroke-width: 0.8"/>
      </defs>
      <g>
       <use xlink:href="#med2d95e0db" x="47.72" y="314.967557" style="stroke: #000000; stroke-width: 0.8"/>
      </g>
     </g>
     <g id="text_9">
      <!-- 0.1 -->
      <g transform="translate(24.816875 318.766775) scale(0.1 -0.1)">
       <use xlink:href="#DejaVuSans-30"/>
       <use xlink:href="#DejaVuSans-2e" x="63.623047"/>
       <use xlink:href="#DejaVuSans-31" x="95.410156"/>
      </g>
     </g>
    </g>
    <g id="ytick_2">
     <g id="line2d_9">
      <g>
       <use xlink:href="#med2d95e0db" x="47.72" y="276.436714" style="stroke: #000000; stroke-width: 0.8"/>
      </g>
     </g>
     <g id="text_10">
      <!-- 0.2 -->
      <g transform="translate(24.816875 280.235933) scale(0.1 -0.1)">
       <use xlink:href="#DejaVuSans-30"/>
       <use xlink:href="#DejaVuSans-2e" x="63.623047"/>
       <use xlink:href="#DejaVuSans-32" x="95.410156"/>
      </g>
     </g>
    </g>
    <g id="ytick_3">
     <g id="line2d_10">
      <g>
       <use xlink:href="#med2d95e0db" x="47.72" y="237.905872" style="stroke: #000000; stroke-width: 0.8"/>
      </g>
     </g>
     <g id="text_11">
      <!-- 0.3 -->
      <g transform="translate(24.816875 241.70509) scale(0.1 -0.1)">
       <defs>
        <path id="DejaVuSans-33" d="M 2597 2516 
Q 3050 2419 3304 2112 
Q 3559 1806 3559 1356 
Q 3559 666 3084 287 
Q 2609 -91 1734 -91 
Q 1441 -91 1130 -33 
Q 819 25 488 141 
L 488 750 
Q 750 597 1062 519 
Q 1375 441 1716 441 
Q 2309 441 2620 675 
Q 2931 909 2931 1356 
Q 2931 1769 2642 2001 
Q 2353 2234 1838 2234 
L 1294 2234 
L 1294 2753 
L 1863 2753 
Q 2328 2753 2575 2939 
Q 2822 3125 2822 3475 
Q 2822 3834 2567 4026 
Q 2313 4219 1838 4219 
Q 1578 4219 1281 4162 
Q 984 4106 628 3988 
L 628 4550 
Q 988 4650 1302 4700 
Q 1616 4750 1894 4750 
Q 2613 4750 3031 4423 
Q 3450 4097 3450 3541 
Q 3450 3153 3228 2886 
Q 3006 2619 2597 2516 
z
" transform="scale(0.015625)"/>
       </defs>
       <use xlink:href="#DejaVuSans-30"/>
       <use xlink:href="#DejaVuSans-2e" x="63.623047"/>
       <use xlink:href="#DejaVuSans-33" x="95.410156"/>
      </g>
     </g>
    </g>
    <g id="ytick_4">
     <g id="line2d_11">
      <g>
       <use xlink:href="#med2d95e0db" x="47.72" y="199.375029" style="stroke: #000000; stroke-width: 0.8"/>
      </g>
     </g>
     <g id="text_12">
      <!-- 0.4 -->
      <g transform="translate(24.816875 203.174248) scale(0.1 -0.1)">
       <defs>
        <path id="DejaVuSans-34" d="M 2419 4116 
L 825 1625 
L 2419 1625 
L 2419 4116 
z
M 2253 4666 
L 3047 4666 
L 3047 1625 
L 3713 1625 
L 3713 1100 
L 3047 1100 
L 3047 0 
L 2419 0 
L 2419 1100 
L 313 1100 
L 313 1709 
L 2253 4666 
z
" transform="scale(0.015625)"/>
       </defs>
       <use xlink:href="#DejaVuSans-30"/>
       <use xlink:href="#DejaVuSans-2e" x="63.623047"/>
       <use xlink:href="#DejaVuSans-34" x="95.410156"/>
      </g>
     </g>
    </g>
    <g id="ytick_5">
     <g id="line2d_12">
      <g>
       <use xlink:href="#med2d95e0db" x="47.72" y="160.844187" style="stroke: #000000; stroke-width: 0.8"/>
      </g>
     </g>
     <g id="text_13">
      <!-- 0.5 -->
      <g transform="translate(24.816875 164.643405) scale(0.1 -0.1)">
       <use xlink:href="#DejaVuSans-30"/>
       <use xlink:href="#DejaVuSans-2e" x="63.623047"/>
       <use xlink:href="#DejaVuSans-35" x="95.410156"/>
      </g>
     </g>
    </g>
    <g id="ytick_6">
     <g id="line2d_13">
      <g>
       <use xlink:href="#med2d95e0db" x="47.72" y="122.313344" style="stroke: #000000; stroke-width: 0.8"/>
      </g>
     </g>
     <g id="text_14">
      <!-- 0.6 -->
      <g transform="translate(24.816875 126.112563) scale(0.1 -0.1)">
       <defs>
        <path id="DejaVuSans-36" d="M 2113 2584 
Q 1688 2584 1439 2293 
Q 1191 2003 1191 1497 
Q 1191 994 1439 701 
Q 1688 409 2113 409 
Q 2538 409 2786 701 
Q 3034 994 3034 1497 
Q 3034 2003 2786 2293 
Q 2538 2584 2113 2584 
z
M 3366 4563 
L 3366 3988 
Q 3128 4100 2886 4159 
Q 2644 4219 2406 4219 
Q 1781 4219 1451 3797 
Q 1122 3375 1075 2522 
Q 1259 2794 1537 2939 
Q 1816 3084 2150 3084 
Q 2853 3084 3261 2657 
Q 3669 2231 3669 1497 
Q 3669 778 3244 343 
Q 2819 -91 2113 -91 
Q 1303 -91 875 529 
Q 447 1150 447 2328 
Q 447 3434 972 4092 
Q 1497 4750 2381 4750 
Q 2619 4750 2861 4703 
Q 3103 4656 3366 4563 
z
" transform="scale(0.015625)"/>
       </defs>
       <use xlink:href="#DejaVuSans-30"/>
       <use xlink:href="#DejaVuSans-2e" x="63.623047"/>
       <use xlink:href="#DejaVuSans-36" x="95.410156"/>
      </g>
     </g>
    </g>
    <g id="ytick_7">
     <g id="line2d_14">
      <g>
       <use xlink:href="#med2d95e0db" x="47.72" y="83.782502" style="stroke: #000000; stroke-width: 0.8"/>
      </g>
     </g>
     <g id="text_15">
      <!-- 0.7 -->
      <g transform="translate(24.816875 87.58172) scale(0.1 -0.1)">
       <defs>
        <path id="DejaVuSans-37" d="M 525 4666 
L 3525 4666 
L 3525 4397 
L 1831 0 
L 1172 0 
L 2766 4134 
L 525 4134 
L 525 4666 
z
" transform="scale(0.015625)"/>
       </defs>
       <use xlink:href="#DejaVuSans-30"/>
       <use xlink:href="#DejaVuSans-2e" x="63.623047"/>
       <use xlink:href="#DejaVuSans-37" x="95.410156"/>
      </g>
     </g>
    </g>
    <g id="ytick_8">
     <g id="line2d_15">
      <g>
       <use xlink:href="#med2d95e0db" x="47.72" y="45.251659" style="stroke: #000000; stroke-width: 0.8"/>
      </g>
     </g>
     <g id="text_16">
      <!-- 0.8 -->
      <g transform="translate(24.816875 49.050878) scale(0.1 -0.1)">
       <defs>
        <path id="DejaVuSans-38" d="M 2034 2216 
Q 1584 2216 1326 1975 
Q 1069 1734 1069 1313 
Q 1069 891 1326 650 
Q 1584 409 2034 409 
Q 2484 409 2743 651 
Q 3003 894 3003 1313 
Q 3003 1734 2745 1975 
Q 2488 2216 2034 2216 
z
M 1403 2484 
Q 997 2584 770 2862 
Q 544 3141 544 3541 
Q 544 4100 942 4425 
Q 1341 4750 2034 4750 
Q 2731 4750 3128 4425 
Q 3525 4100 3525 3541 
Q 3525 3141 3298 2862 
Q 3072 2584 2669 2484 
Q 3125 2378 3379 2068 
Q 3634 1759 3634 1313 
Q 3634 634 3220 271 
Q 2806 -91 2034 -91 
Q 1263 -91 848 271 
Q 434 634 434 1313 
Q 434 1759 690 2068 
Q 947 2378 1403 2484 
z
M 1172 3481 
Q 1172 3119 1398 2916 
Q 1625 2713 2034 2713 
Q 2441 2713 2670 2916 
Q 2900 3119 2900 3481 
Q 2900 3844 2670 4047 
Q 2441 4250 2034 4250 
Q 1625 4250 1398 4047 
Q 1172 3844 1172 3481 
z
" transform="scale(0.015625)"/>
       </defs>
       <use xlink:href="#DejaVuSans-30"/>
       <use xlink:href="#DejaVuSans-2e" x="63.623047"/>
       <use xlink:href="#DejaVuSans-38" x="95.410156"/>
      </g>
     </g>
    </g>
    <g id="text_17">
     <!-- adaptation -->
     <g transform="translate(18.737188 191.4475) rotate(-90) scale(0.1 -0.1)">
      <defs>
       <path id="DejaVuSans-61" d="M 2194 1759 
Q 1497 1759 1228 1600 
Q 959 1441 959 1056 
Q 959 750 1161 570 
Q 1363 391 1709 391 
Q 2188 391 2477 730 
Q 2766 1069 2766 1631 
L 2766 1759 
L 2194 1759 
z
M 3341 1997 
L 3341 0 
L 2766 0 
L 2766 531 
Q 2569 213 2275 61 
Q 1981 -91 1556 -91 
Q 1019 -91 701 211 
Q 384 513 384 1019 
Q 384 1609 779 1909 
Q 1175 2209 1959 2209 
L 2766 2209 
L 2766 2266 
Q 2766 2663 2505 2880 
Q 2244 3097 1772 3097 
Q 1472 3097 1187 3025 
Q 903 2953 641 2809 
L 641 3341 
Q 956 3463 1253 3523 
Q 1550 3584 1831 3584 
Q 2591 3584 2966 3190 
Q 3341 2797 3341 1997 
z
" transform="scale(0.015625)"/>
       <path id="DejaVuSans-64" d="M 2906 2969 
L 2906 4863 
L 3481 4863 
L 3481 0 
L 2906 0 
L 2906 525 
Q 2725 213 2448 61 
Q 2172 -91 1784 -91 
Q 1150 -91 751 415 
Q 353 922 353 1747 
Q 353 2572 751 3078 
Q 1150 3584 1784 3584 
Q 2172 3584 2448 3432 
Q 2725 3281 2906 2969 
z
M 947 1747 
Q 947 1113 1208 752 
Q 1469 391 1925 391 
Q 2381 391 2643 752 
Q 2906 1113 2906 1747 
Q 2906 2381 2643 2742 
Q 2381 3103 1925 3103 
Q 1469 3103 1208 2742 
Q 947 2381 947 1747 
z
" transform="scale(0.015625)"/>
      </defs>
      <use xlink:href="#DejaVuSans-61"/>
      <use xlink:href="#DejaVuSans-64" x="61.279297"/>
      <use xlink:href="#DejaVuSans-61" x="124.755859"/>
      <use xlink:href="#DejaVuSans-70" x="186.035156"/>
      <use xlink:href="#DejaVuSans-74" x="249.511719"/>
      <use xlink:href="#DejaVuSans-61" x="288.720703"/>
      <use xlink:href="#DejaVuSans-74" x="350"/>
      <use xlink:href="#DejaVuSans-69" x="389.208984"/>
      <use xlink:href="#DejaVuSans-6f" x="416.992188"/>
      <use xlink:href="#DejaVuSans-6e" x="478.173828"/>
     </g>
    </g>
   </g>
   <g id="line2d_16">
    <path d="M 61.423636 173.875468 
L 64.192048 174.215177 
L 66.960459 174.554886 
L 69.728871 174.894595 
L 72.497282 175.234304 
L 75.265693 175.574013 
L 78.034105 175.913723 
L 80.802516 176.253432 
L 83.570927 176.593141 
L 86.339339 176.93285 
L 89.10775 177.272559 
L 91.876162 177.612268 
L 94.644573 177.951977 
L 97.412984 178.291687 
L 100.181396 178.631396 
L 102.949807 178.971105 
L 105.718219 179.310814 
L 108.48663 179.650523 
L 111.255041 179.990232 
L 114.023453 180.329942 
L 116.791864 180.669651 
L 119.560275 181.00936 
L 122.328687 181.349069 
L 125.097098 181.688778 
L 127.86551 182.028487 
L 130.633921 182.368196 
L 133.402332 182.707906 
L 136.170744 183.047615 
L 138.939155 183.387324 
L 141.707567 183.727033 
L 144.475978 184.066742 
L 147.244389 184.406451 
L 150.012801 184.74616 
L 152.781212 185.08587 
L 155.549624 185.425579 
L 158.318035 185.765288 
L 161.086446 186.104997 
L 163.854858 186.444706 
L 166.623269 186.784415 
L 169.39168 187.124124 
L 172.160092 187.463834 
L 174.928503 187.803543 
L 177.696915 188.143252 
L 180.465326 188.482961 
L 183.233737 188.82267 
L 186.002149 189.162379 
L 188.77056 189.502089 
L 191.538972 189.841798 
L 194.307383 190.181507 
L 197.075794 190.521216 
L 199.844206 190.860925 
L 202.612617 191.200634 
L 205.381028 191.540343 
L 208.14944 191.880053 
L 210.917851 192.219762 
L 213.686263 192.559471 
L 216.454674 192.89918 
L 219.223085 193.238889 
L 221.991497 193.578598 
L 224.759908 193.918307 
L 227.52832 194.258017 
L 230.296731 194.597726 
L 233.065142 194.937435 
L 235.833554 195.277144 
L 238.601965 195.616853 
L 241.370376 195.956562 
L 244.138788 196.296272 
L 246.907199 196.635981 
L 249.675611 196.97569 
L 252.444022 197.315399 
L 255.212433 197.655108 
L 257.980845 197.994817 
L 260.749256 198.334526 
L 263.517668 198.674236 
L 266.286079 199.013945 
L 269.05449 199.353654 
L 271.822902 199.693363 
L 274.591313 200.033072 
L 277.359725 200.372781 
L 280.128136 200.71249 
L 282.896547 201.0522 
L 285.664959 201.391909 
L 288.43337 201.731618 
L 291.201781 202.071327 
L 293.970193 202.411036 
L 296.738604 202.750745 
L 299.507016 203.090454 
L 302.275427 203.430164 
L 305.043838 203.769873 
L 307.81225 204.109582 
L 310.580661 204.449291 
L 313.349073 204.789 
L 316.117484 205.128709 
L 318.885895 205.468419 
L 321.654307 205.808128 
L 324.422718 206.147837 
L 327.191129 206.487546 
L 329.959541 206.827255 
L 332.727952 207.166964 
L 335.496364 207.506673 
" clip-path="url(#pc28cc12fa5)" style="fill: none; stroke: #1f77b4; stroke-width: 2.25; stroke-linecap: square"/>
   </g>
   <g id="patch_3">
    <path d="M 47.72 317.93875 
L 47.72 10.8 
" style="fill: none; stroke: #000000; stroke-width: 0.8; stroke-linejoin: miter; stroke-linecap: square"/>
   </g>
   <g id="patch_4">
    <path d="M 47.72 317.93875 
L 349.2 317.93875 
" style="fill: none; stroke: #000000; stroke-width: 0.8; stroke-linejoin: miter; stroke-linecap: square"/>
   </g>
  </g>
 </g>
 <defs>
  <clipPath id="pc28cc12fa5">
   <rect x="47.72" y="10.8" width="301.48" height="307.13875"/>
  </clipPath>
 </defs>
</svg>
